G04 DesignSpark PCB PRO Gerber Version 10.0 Build 5299*
G04 #@! TF.Part,Single*
G04 #@! TF.FileFunction,Copper,L2,Bot*
G04 #@! TF.FilePolarity,Positive*
%FSLAX35Y35*%
%MOIN*%
G04 #@! TA.AperFunction,ComponentPad*
%ADD29R,0.06496X0.06496*%
G04 #@! TD.AperFunction*
%ADD19C,0.00787*%
%ADD21C,0.01000*%
%ADD23C,0.01969*%
G04 #@! TA.AperFunction,ViaPad*
%ADD24C,0.03543*%
%ADD137C,0.05600*%
G04 #@! TA.AperFunction,ComponentPad*
%ADD28C,0.06102*%
%ADD72C,0.06496*%
%ADD140C,0.24921*%
G04 #@! TD.AperFunction*
X0Y0D02*
D02*
D19*
X6974Y268984D02*
Y7394D01*
X11331Y3037D01*
X272921D01*
X277278Y7394D01*
Y268984D01*
X272921Y273341D01*
X11331D01*
X6974Y268984D01*
X20472Y24016D02*
G75*
G02*
X35433I7480J0D01*
G01*
G75*
G02*
X20472I-7480J0D01*
G01*
Y252362D02*
G75*
G02*
X35433I7480J0D01*
G01*
G75*
G02*
X20472I-7480J0D01*
G01*
X38902Y123189D02*
G75*
G02*
X48185I4642J0D01*
G01*
G75*
G02*
X38902I-4642J0D01*
G01*
X39114Y113189D02*
G75*
G02*
X47972I4429J0D01*
G01*
G75*
G02*
X39114I-4429J0D01*
G01*
Y133189D02*
G75*
G02*
X47972I4429J0D01*
G01*
G75*
G02*
X39114I-4429J0D01*
G01*
Y143189D02*
G75*
G02*
X47972I4429J0D01*
G01*
G75*
G02*
X39114I-4429J0D01*
G01*
Y153189D02*
G75*
G02*
X47972I4429J0D01*
G01*
G75*
G02*
X39114I-4429J0D01*
G01*
Y163189D02*
G75*
G02*
X47972I4429J0D01*
G01*
G75*
G02*
X39114I-4429J0D01*
G01*
X49114Y117618D02*
X57972D01*
Y108760D01*
X49114D01*
Y117618D01*
Y123189D02*
G75*
G02*
X57972I4429J0D01*
G01*
G75*
G02*
X49114I-4429J0D01*
G01*
Y133189D02*
G75*
G02*
X57972I4429J0D01*
G01*
G75*
G02*
X49114I-4429J0D01*
G01*
Y143189D02*
G75*
G02*
X57972I4429J0D01*
G01*
G75*
G02*
X49114I-4429J0D01*
G01*
Y153189D02*
G75*
G02*
X57972I4429J0D01*
G01*
G75*
G02*
X49114I-4429J0D01*
G01*
Y163189D02*
G75*
G02*
X57972I4429J0D01*
G01*
G75*
G02*
X49114I-4429J0D01*
G01*
X185827Y213667D02*
G75*
G02*
X188470Y211024I0J-2644D01*
G01*
Y144094D01*
G75*
G02*
X185827Y141451I-2644J0D01*
G01*
X118903D01*
G75*
G02*
X111024Y116673I-7880J-11136D01*
G01*
G75*
G02*
Y143957I0J13642D01*
G01*
G75*
G02*
X116617Y142757I0J-13643D01*
G01*
G75*
G02*
X116254Y144094I2281J1338D01*
G01*
Y211024D01*
G75*
G02*
X118898Y213667I2644J0D01*
G01*
X185827D01*
X171791Y55512D02*
G75*
G02*
X199075I13642J0D01*
G01*
G75*
G02*
X171791I-13642J0D01*
G01*
X273578Y182633D02*
G75*
G02*
X274213Y181102I-1531J-1531D01*
G01*
Y116535D01*
G75*
G02*
X273578Y115004I-2165J0D01*
G01*
X270035Y111461D01*
G75*
G02*
X268502Y110827I-1531J1531D01*
G01*
X265717D01*
G75*
G02*
X257972Y113189I-3512J2362D01*
G01*
G75*
G02*
X265951Y115157I4232J0D01*
G01*
X267607D01*
X269882Y117432D01*
Y180206D01*
X238473Y211614D01*
X235230D01*
G75*
G02*
X228324Y212008I-3341J2165D01*
G01*
X205514D01*
G75*
G02*
X204398Y212469I-2J1575D01*
G01*
X202824Y214044D01*
G75*
G02*
X202362Y215157I1113J1114D01*
G01*
Y236107D01*
G75*
G02*
X199956Y239764I1575J3656D01*
G01*
G75*
G02*
X207918I3981J0D01*
G01*
G75*
G02*
X205512Y236107I-3981J0D01*
G01*
Y215810D01*
X206164Y215157D01*
X228155D01*
G75*
G02*
X235230Y215945I3735J-1378D01*
G01*
X239368D01*
G75*
G02*
X240901Y215311I2J-2165D01*
G01*
X273578Y182633D01*
X247972Y113189D02*
G75*
G02*
X256437I4232J0D01*
G01*
G75*
G02*
X247972I-4232J0D01*
G01*
X248819Y24016D02*
G75*
G02*
X263780I7480J0D01*
G01*
G75*
G02*
X248819I-7480J0D01*
G01*
X247972Y123189D02*
G75*
G02*
X256437I4232J0D01*
G01*
G75*
G02*
X247972I-4232J0D01*
G01*
Y133189D02*
G75*
G02*
X256437I4232J0D01*
G01*
G75*
G02*
X247972I-4232J0D01*
G01*
Y143189D02*
G75*
G02*
X256437I4232J0D01*
G01*
G75*
G02*
X247972I-4232J0D01*
G01*
Y153189D02*
G75*
G02*
X256437I4232J0D01*
G01*
G75*
G02*
X247972I-4232J0D01*
G01*
Y163189D02*
G75*
G02*
X256437I4232J0D01*
G01*
G75*
G02*
X247972I-4232J0D01*
G01*
X257760Y123189D02*
G75*
G02*
X266650I4445J0D01*
G01*
G75*
G02*
X257760I-4445J0D01*
G01*
X257972Y133189D02*
G75*
G02*
X266437I4232J0D01*
G01*
G75*
G02*
X257972I-4232J0D01*
G01*
Y143189D02*
G75*
G02*
X266437I4232J0D01*
G01*
G75*
G02*
X257972I-4232J0D01*
G01*
Y153189D02*
G75*
G02*
X266437I4232J0D01*
G01*
G75*
G02*
X257972I-4232J0D01*
G01*
Y163189D02*
G75*
G02*
X266437I4232J0D01*
G01*
G75*
G02*
X257972I-4232J0D01*
G01*
X248819Y252362D02*
G75*
G02*
X263780I7480J0D01*
G01*
G75*
G02*
X248819I-7480J0D01*
G01*
X7368Y24016D02*
G36*
X7368Y24016D02*
Y7000D01*
X10937Y3431D01*
X273315D01*
X276884Y7000D01*
Y24016D01*
X263780D01*
G75*
G02*
X248819I-7480J0D01*
G01*
X35433D01*
G75*
G02*
X20472I-7480J0D01*
G01*
X7368D01*
G37*
Y55512D02*
G36*
X7368Y55512D02*
Y24016D01*
X20472D01*
G75*
G02*
X35433I7480J0D01*
G01*
X248819D01*
G75*
G02*
X263780I7480J0D01*
G01*
X276884D01*
Y55512D01*
X199075D01*
G75*
G02*
X171791I-13642J0D01*
G01*
X7368D01*
G37*
Y113189D02*
G36*
X7368Y113189D02*
Y55512D01*
X171791D01*
G75*
G02*
X199075I13642J0D01*
G01*
X276884D01*
Y113189D01*
X271763D01*
X270035Y111461D01*
G75*
G02*
X268502Y110827I-1532J1533D01*
G01*
X265717D01*
G75*
G02*
X257972Y113189I-3512J2363D01*
G01*
X256437D01*
G75*
G02*
X247972I-4232J0D01*
G01*
X57972D01*
Y108760D01*
X49114D01*
Y113189D01*
X47972D01*
G75*
G02*
X39114I-4429J0D01*
G01*
X7368D01*
G37*
Y123189D02*
G36*
X7368Y123189D02*
Y113189D01*
X39114D01*
G75*
G02*
X47972I4429J0D01*
G01*
X49114D01*
Y117618D01*
X57972D01*
Y113189D01*
X247972D01*
G75*
G02*
X256437I4232J0D01*
G01*
X257972D01*
G75*
G02*
X265951Y115157I4232J0D01*
G01*
X267607D01*
X269882Y117432D01*
Y123189D01*
X266650D01*
G75*
G02*
X257760I-4445J0D01*
G01*
X256437D01*
G75*
G02*
X247972I-4232J0D01*
G01*
X122656D01*
G75*
G02*
X111024Y116673I-11633J7126D01*
G01*
G75*
G02*
X99391Y123189I0J13642D01*
G01*
X57972D01*
G75*
G02*
X49114I-4429J0D01*
G01*
X48185D01*
G75*
G02*
X38902I-4642J0D01*
G01*
X7368D01*
G37*
X273578Y115004D02*
G36*
X273578Y115004D02*
X271763Y113189D01*
X276884D01*
Y123189D01*
X274213D01*
Y116535D01*
G75*
G02*
X273578Y115004I-2166J0D01*
G01*
G37*
X7368Y133189D02*
G36*
X7368Y133189D02*
Y123189D01*
X38902D01*
G75*
G02*
X48185I4642J0D01*
G01*
X49114D01*
G75*
G02*
X57972I4429J0D01*
G01*
X99391D01*
G75*
G02*
X97382Y130315I11633J7126D01*
G01*
G75*
G02*
X97688Y133189I13642J0D01*
G01*
X57972D01*
G75*
G02*
X49114I-4429J0D01*
G01*
X47972D01*
G75*
G02*
X39114I-4429J0D01*
G01*
X7368D01*
G37*
X124665Y130315D02*
G36*
X124665Y130315D02*
G75*
G02*
X122656Y123189I-13642J0D01*
G01*
X247972D01*
G75*
G02*
X256437I4232J0D01*
G01*
X257760D01*
G75*
G02*
X266650I4445J0D01*
G01*
X269882D01*
Y133189D01*
X266437D01*
G75*
G02*
X257972I-4232J0D01*
G01*
X256437D01*
G75*
G02*
X247972I-4232J0D01*
G01*
X124359D01*
G75*
G02*
X124665Y130315I-13335J-2874D01*
G01*
G37*
X274213Y133189D02*
G36*
X274213Y133189D02*
Y123189D01*
X276884D01*
Y133189D01*
X274213D01*
G37*
X7368Y143189D02*
G36*
X7368Y143189D02*
Y133189D01*
X39114D01*
G75*
G02*
X47972I4429J0D01*
G01*
X49114D01*
G75*
G02*
X57972I4429J0D01*
G01*
X97688D01*
G75*
G02*
X106512Y143189I13335J-2874D01*
G01*
X57972D01*
G75*
G02*
X49114I-4429J0D01*
G01*
X47972D01*
G75*
G02*
X39114I-4429J0D01*
G01*
X7368D01*
G37*
X116414D02*
G36*
X116414Y143189D02*
X115536D01*
G75*
G02*
X116617Y142757I-4511J-12867D01*
G01*
G75*
G02*
X116414Y143189I2281J1339D01*
G01*
G37*
X118903Y141451D02*
G36*
X118903Y141451D02*
G75*
G02*
X124359Y133189I-7880J-11136D01*
G01*
X247972D01*
G75*
G02*
X256437I4232J0D01*
G01*
X257972D01*
G75*
G02*
X266437I4232J0D01*
G01*
X269882D01*
Y143189D01*
X266437D01*
G75*
G02*
X257972I-4232J0D01*
G01*
X256437D01*
G75*
G02*
X247972I-4232J0D01*
G01*
X188311D01*
G75*
G02*
X185827Y141451I-2484J906D01*
G01*
X118903D01*
G37*
X274213Y143189D02*
G36*
X274213Y143189D02*
Y133189D01*
X276884D01*
Y143189D01*
X274213D01*
G37*
X7368Y153189D02*
G36*
X7368Y153189D02*
Y143189D01*
X39114D01*
G75*
G02*
X47972I4429J0D01*
G01*
X49114D01*
G75*
G02*
X57972I4429J0D01*
G01*
X106512D01*
G75*
G02*
X111024Y143957I4512J-12874D01*
G01*
G75*
G02*
X115536Y143189I2J-13635D01*
G01*
X116414D01*
G75*
G02*
X116254Y144094I2485J906D01*
G01*
Y153189D01*
X57972D01*
G75*
G02*
X49114I-4429J0D01*
G01*
X47972D01*
G75*
G02*
X39114I-4429J0D01*
G01*
X7368D01*
G37*
X188470Y144094D02*
G36*
X188470Y144094D02*
G75*
G02*
X188311Y143189I-2644J0D01*
G01*
X247972D01*
G75*
G02*
X256437I4232J0D01*
G01*
X257972D01*
G75*
G02*
X266437I4232J0D01*
G01*
X269882D01*
Y153189D01*
X266437D01*
G75*
G02*
X257972I-4232J0D01*
G01*
X256437D01*
G75*
G02*
X247972I-4232J0D01*
G01*
X188470D01*
Y144094D01*
G37*
X274213Y153189D02*
G36*
X274213Y153189D02*
Y143189D01*
X276884D01*
Y153189D01*
X274213D01*
G37*
X7368Y163189D02*
G36*
X7368Y163189D02*
Y153189D01*
X39114D01*
G75*
G02*
X47972I4429J0D01*
G01*
X49114D01*
G75*
G02*
X57972I4429J0D01*
G01*
X116254D01*
Y163189D01*
X57972D01*
G75*
G02*
X49114I-4429J0D01*
G01*
X47972D01*
G75*
G02*
X39114I-4429J0D01*
G01*
X7368D01*
G37*
X188470D02*
G36*
X188470Y163189D02*
Y153189D01*
X247972D01*
G75*
G02*
X256437I4232J0D01*
G01*
X257972D01*
G75*
G02*
X266437I4232J0D01*
G01*
X269882D01*
Y163189D01*
X266437D01*
G75*
G02*
X257972I-4232J0D01*
G01*
X256437D01*
G75*
G02*
X247972I-4232J0D01*
G01*
X188470D01*
G37*
X274213D02*
G36*
X274213Y163189D02*
Y153189D01*
X276884D01*
Y163189D01*
X274213D01*
G37*
X7368Y252362D02*
G36*
X7368Y252362D02*
Y163189D01*
X39114D01*
G75*
G02*
X47972I4429J0D01*
G01*
X49114D01*
G75*
G02*
X57972I4429J0D01*
G01*
X116254D01*
Y211024D01*
G75*
G02*
X118898Y213667I2644J0D01*
G01*
X185827D01*
G75*
G02*
X188470Y211024I0J-2644D01*
G01*
Y163189D01*
X247972D01*
G75*
G02*
X256437I4232J0D01*
G01*
X257972D01*
G75*
G02*
X266437I4232J0D01*
G01*
X269882D01*
Y180206D01*
X238473Y211614D01*
X235230D01*
G75*
G02*
X228324Y212008I-3341J2165D01*
G01*
X205514D01*
G75*
G02*
X204398Y212469I-2J1576D01*
G01*
X202824Y214044D01*
G75*
G02*
X202362Y215157I1114J1114D01*
G01*
Y236107D01*
G75*
G02*
X199956Y239764I1574J3656D01*
G01*
G75*
G02*
X207918I3981J0D01*
G01*
G75*
G02*
X205512Y236107I-3981J0D01*
G01*
Y215810D01*
X206164Y215157D01*
X228155D01*
G75*
G02*
X235230Y215945I3735J-1378D01*
G01*
X239368D01*
G75*
G02*
X240901Y215311I2J-2167D01*
G01*
X273578Y182633D01*
G75*
G02*
X274213Y181102I-1532J-1531D01*
G01*
Y163189D01*
X276884D01*
Y252362D01*
X263780D01*
G75*
G02*
X248819I-7480J0D01*
G01*
X35433D01*
G75*
G02*
X20472I-7480J0D01*
G01*
X7368D01*
G37*
Y269378D02*
G36*
X7368Y269378D02*
Y252362D01*
X20472D01*
G75*
G02*
X35433I7480J0D01*
G01*
X248819D01*
G75*
G02*
X263780I7480J0D01*
G01*
X276884D01*
Y269378D01*
X273315Y272947D01*
X10937D01*
X7368Y269378D01*
G37*
X203937Y239764D02*
Y215157D01*
X205512Y213583D01*
X231693D01*
X231890Y213780D01*
D02*
D21*
X40795Y123189D02*
X38795D01*
X43543Y120441D02*
Y118441D01*
Y125937D02*
Y127937D01*
X46291Y123189D02*
X48291D01*
X259654D02*
X257654D01*
X262205Y120638D02*
Y118638D01*
Y125740D02*
Y127740D01*
X264756Y123189D02*
X266756D01*
D02*
D23*
X231890Y213780D02*
X239370D01*
X272047Y181102D01*
Y116535D01*
X268504Y112992D01*
X262402D01*
X262205Y113189D01*
D02*
D24*
X63386Y20079D03*
Y59449D03*
Y177559D03*
Y216929D03*
Y256299D03*
X102756Y20079D03*
Y59449D03*
Y98819D03*
Y177559D03*
Y216929D03*
Y256299D03*
X142126Y20079D03*
Y59449D03*
Y98819D03*
Y220866D03*
X181496Y20079D03*
Y98819D03*
Y220866D03*
Y256299D03*
X220866Y20079D03*
Y59449D03*
Y98819D03*
Y208661D03*
Y256299D03*
X222441Y188976D03*
D02*
D28*
X252205Y113189D03*
Y123189D03*
Y133189D03*
Y143189D03*
Y153189D03*
Y163189D03*
X262205Y113189D03*
Y123189D03*
Y133189D03*
Y143189D03*
Y153189D03*
Y163189D03*
D02*
D29*
X53543Y113189D03*
D02*
D72*
X43543D03*
Y123189D03*
Y133189D03*
Y143189D03*
Y153189D03*
Y163189D03*
X53543Y123189D03*
Y133189D03*
Y143189D03*
Y153189D03*
Y163189D03*
D02*
D137*
X203937Y239764D03*
X231890Y213780D03*
D02*
D140*
X111024Y130315D03*
X185433Y55512D03*
X0Y0D02*
M02*
