G04 DesignSpark PCB PRO Gerber Version 10.0 Build 5299*
G04 #@! TF.Part,Single*
G04 #@! TF.FileFunction,Soldermask,Top*
G04 #@! TF.FilePolarity,Negative*
%FSLAX35Y35*%
%MOIN*%
G04 #@! TA.AperFunction,SMDPad,CuDef*
%ADD98R,0.04937X0.05291*%
%ADD97R,0.04543X0.04543*%
G04 #@! TA.AperFunction,ComponentPad*
%ADD93R,0.07496X0.07496*%
%ADD92C,0.07102*%
%ADD94C,0.07496*%
G04 #@! TA.AperFunction,SMDPad,CuDef*
%ADD141R,0.05724X0.04150*%
G04 #@! TA.AperFunction,WasherPad*
%ADD91C,0.13598*%
G04 #@! TA.AperFunction,SMDPad,CuDef*
%ADD96R,0.06906X0.05331*%
%ADD142R,0.09465X0.06118*%
G04 #@! TA.AperFunction,ComponentPad*
%ADD143C,0.25921*%
G04 #@! TD.AperFunction*
X0Y0D02*
D02*
D91*
X27953Y24016D03*
Y252362D03*
X256299Y24016D03*
Y252362D03*
D02*
D92*
X252205Y113189D03*
Y123189D03*
Y133189D03*
Y143189D03*
Y153189D03*
Y163189D03*
X262205Y113189D03*
Y123189D03*
Y133189D03*
Y143189D03*
Y153189D03*
Y163189D03*
D02*
D93*
X53543Y113189D03*
D02*
D94*
X43543D03*
Y123189D03*
Y133189D03*
Y143189D03*
Y153189D03*
Y163189D03*
X53543Y123189D03*
Y133189D03*
Y143189D03*
Y153189D03*
Y163189D03*
D02*
D96*
X135236Y261220D03*
X149016D03*
D02*
D97*
X142126Y258661D03*
D02*
D98*
X127165Y244531D03*
Y251531D03*
X166929Y251618D03*
Y258618D03*
D02*
D141*
X226378Y49409D03*
Y54331D03*
Y59252D03*
Y64173D03*
Y69094D03*
Y74016D03*
Y78937D03*
D02*
D142*
X235413Y41929D03*
Y86417D03*
D02*
D143*
X112598Y220866D03*
X183465Y146063D03*
X0Y0D02*
M02*
