G04 DesignSpark PCB PRO Gerber Version 10.0 Build 5299*
G04 #@! TF.Part,Single*
G04 #@! TF.FileFunction,Copper,L1,Top*
G04 #@! TF.FilePolarity,Positive*
%FSLAX35Y35*%
%MOIN*%
G04 #@! TA.AperFunction,SMDPad,CuDef*
%ADD80R,0.03937X0.04291*%
%ADD85R,0.03543X0.03543*%
G04 #@! TA.AperFunction,ComponentPad*
%ADD21R,0.06496X0.06496*%
G04 #@! TD.AperFunction*
%ADD29C,0.00500*%
%ADD18C,0.00787*%
%ADD75C,0.00984*%
%ADD19C,0.01000*%
%ADD71C,0.01969*%
G04 #@! TA.AperFunction,ViaPad*
%ADD70C,0.03543*%
G04 #@! TD.AperFunction*
%ADD76C,0.03937*%
G04 #@! TA.AperFunction,ViaPad*
%ADD134C,0.05600*%
G04 #@! TA.AperFunction,ComponentPad*
%ADD20C,0.06102*%
%ADD22C,0.06496*%
G04 #@! TA.AperFunction,SMDPad,CuDef*
%ADD135R,0.04724X0.03150*%
%ADD138R,0.05906X0.04331*%
%ADD136R,0.08465X0.05118*%
G04 #@! TA.AperFunction,ComponentPad*
%ADD137C,0.24921*%
G04 #@! TD.AperFunction*
X0Y0D02*
D02*
D18*
X6974Y268984D02*
Y7394D01*
X11331Y3037D01*
X272921D01*
X277278Y7394D01*
Y268984D01*
X272921Y273341D01*
X11331D01*
X6974Y268984D01*
X20472Y24016D02*
G75*
G02*
X35433I7480J0D01*
G01*
G75*
G02*
X20472I-7480J0D01*
G01*
Y252362D02*
G75*
G02*
X35433I7480J0D01*
G01*
G75*
G02*
X20472I-7480J0D01*
G01*
X38902Y123189D02*
G75*
G02*
X48185I4642J0D01*
G01*
G75*
G02*
X38902I-4642J0D01*
G01*
X39114Y113189D02*
G75*
G02*
X47972I4429J0D01*
G01*
G75*
G02*
X39114I-4429J0D01*
G01*
X273228Y142524D02*
G75*
G02*
X273720Y141339I-1181J-1185D01*
G01*
Y71260D01*
G75*
G02*
X273228Y70075I-1673J0D01*
G01*
X266146Y62992D01*
G75*
G02*
X264961Y62500I-1185J1181D01*
G01*
X229921D01*
Y62220D01*
X230134D01*
Y56283D01*
X229921D01*
Y46654D01*
X222835D01*
Y56283D01*
X222622D01*
Y62220D01*
X222835D01*
Y71047D01*
X222622D01*
Y76984D01*
X222835D01*
Y81693D01*
X229921D01*
Y81102D01*
X258749D01*
X260039Y82393D01*
Y109553D01*
G75*
G02*
X257972Y113189I2165J3636D01*
G01*
G75*
G02*
X266437I4232J0D01*
G01*
G75*
G02*
X264370Y109553I-4232J0D01*
G01*
Y81496D01*
G75*
G02*
X263736Y79965I-2165J0D01*
G01*
X261177Y77406D01*
G75*
G02*
X259643Y76772I-1531J1531D01*
G01*
X230134D01*
Y71047D01*
X229921D01*
Y70768D01*
X260921D01*
X266437Y76283D01*
Y121831D01*
G75*
G02*
X257760Y123189I-4232J1358D01*
G01*
G75*
G02*
X266437Y124547I4445J0D01*
G01*
Y130409D01*
X265834Y131012D01*
G75*
G02*
X260486Y129322I-3630J2177D01*
G01*
X258200Y127036D01*
G75*
G02*
X257084Y126575I-1114J1113D01*
G01*
X254744D01*
G75*
G02*
X256437Y123189I-2539J-3386D01*
G01*
G75*
G02*
X247972I-4232J0D01*
G01*
G75*
G02*
X249665Y126575I4232J0D01*
G01*
X239176D01*
G75*
G02*
X238060Y127036I-2J1575D01*
G01*
X235107Y129989D01*
G75*
G02*
X234646Y131102I1113J1114D01*
G01*
Y183206D01*
X233993Y183858D01*
X79393D01*
X77953Y182419D01*
Y137992D01*
G75*
G02*
X77491Y136879I-1575J0D01*
G01*
X67649Y127036D01*
G75*
G02*
X66533Y126575I-1114J1113D01*
G01*
X56399D01*
G75*
G02*
X57972Y123189I-2856J-3386D01*
G01*
G75*
G02*
X49114I-4429J0D01*
G01*
G75*
G02*
X50688Y126575I4429J0D01*
G01*
X48349D01*
G75*
G02*
X47233Y127036I-2J1575D01*
G01*
X45191Y129078D01*
G75*
G02*
X39114Y133189I-1648J4111D01*
G01*
G75*
G02*
X47972I4429J0D01*
G01*
G75*
G02*
X47508Y131215I-4429J0D01*
G01*
X48999Y129724D01*
X50784D01*
G75*
G02*
X50735Y136614I2759J3465D01*
G01*
X48703D01*
G75*
G02*
X47587Y137076I-2J1575D01*
G01*
X45465Y139198D01*
G75*
G02*
X39114Y143189I-1921J3991D01*
G01*
G75*
G02*
X47972I4429J0D01*
G01*
G75*
G02*
X47631Y141485I-4430J0D01*
G01*
X49353Y139764D01*
X50735D01*
G75*
G02*
X49114Y143189I2808J3426D01*
G01*
G75*
G02*
X57636Y144882I4429J0D01*
G01*
X64702D01*
X69291Y149471D01*
Y156872D01*
G75*
G02*
X69224Y156800I-1177J1044D01*
G01*
X64499Y152076D01*
G75*
G02*
X63383Y151614I-1114J1113D01*
G01*
X57683D01*
G75*
G02*
X49114Y153189I-4140J1575D01*
G01*
G75*
G02*
X57683Y154764I4429J0D01*
G01*
X62733D01*
X66535Y158566D01*
Y191339D01*
G75*
G02*
X66997Y192452I1575J0D01*
G01*
X69753Y195208D01*
G75*
G02*
X70869Y195669I1114J-1113D01*
G01*
X236612D01*
G75*
G02*
X237728Y195208I2J-1575D01*
G01*
X245602Y187334D01*
G75*
G02*
X246063Y186220I-1113J-1114D01*
G01*
Y154983D01*
X246282Y154764D01*
X248276D01*
G75*
G02*
X256437Y153189I3928J-1575D01*
G01*
G75*
G02*
X248276Y151614I-4232J0D01*
G01*
X245632D01*
G75*
G02*
X244517Y152076I-2J1575D01*
G01*
X243375Y153217D01*
G75*
G02*
X243307Y153289I1109J1116D01*
G01*
Y145534D01*
X243959Y144882D01*
X248326D01*
G75*
G02*
X256437Y143189I3879J-1693D01*
G01*
G75*
G02*
X254691Y139764I-4232J0D01*
G01*
X256552D01*
X258313Y141525D01*
G75*
G02*
X266039Y144980I3891J1664D01*
G01*
X270079D01*
G75*
G02*
X271264Y144488I0J-1673D01*
G01*
X273228Y142524D01*
X248819Y24016D02*
G75*
G02*
X263780I7480J0D01*
G01*
G75*
G02*
X248819I-7480J0D01*
G01*
X230000Y45669D02*
X240827D01*
Y38189D01*
X230000D01*
Y45669D01*
X247972Y113189D02*
G75*
G02*
X256437I4232J0D01*
G01*
G75*
G02*
X247972I-4232J0D01*
G01*
X169823Y146063D02*
G75*
G02*
X197106I13642J0D01*
G01*
G75*
G02*
X178096Y133522I-13641J0D01*
G01*
G75*
G02*
X178234Y132677I-2506J-845D01*
G01*
Y65748D01*
G75*
G02*
X175591Y63104I-2644J0D01*
G01*
X108661D01*
G75*
G02*
X106018Y65748I0J2644D01*
G01*
Y132677D01*
G75*
G02*
X108661Y135321I2644J0D01*
G01*
X175056D01*
G75*
G02*
X169823Y146063I8409J10742D01*
G01*
X230000Y90157D02*
X240827D01*
Y82677D01*
X230000D01*
Y90157D01*
X49114Y117618D02*
X57972D01*
Y108760D01*
X49114D01*
Y117618D01*
X39114Y153189D02*
G75*
G02*
X47972I4429J0D01*
G01*
G75*
G02*
X39114I-4429J0D01*
G01*
Y163189D02*
G75*
G02*
X47972I4429J0D01*
G01*
G75*
G02*
X39114I-4429J0D01*
G01*
X255354Y166016D02*
G75*
G02*
X256437Y163189I-3150J-2827D01*
G01*
G75*
G02*
X247972I-4232J0D01*
G01*
G75*
G02*
X249055Y166016I4233J0D01*
G01*
Y195703D01*
X246333Y198425D01*
X59848D01*
X56693Y195270D01*
Y166303D01*
G75*
G02*
X57972Y163189I-3150J-3114D01*
G01*
G75*
G02*
X49114I-4429J0D01*
G01*
G75*
G02*
X50394Y166303I4430J0D01*
G01*
Y196575D01*
G75*
G02*
X51319Y198805I3150J0D01*
G01*
X56313Y203799D01*
G75*
G02*
X58543Y204724I2230J-2224D01*
G01*
X247638D01*
G75*
G02*
X249868Y203799I0J-3150D01*
G01*
X254429Y199238D01*
G75*
G02*
X255354Y197008I-2224J-2230D01*
G01*
Y166016D01*
X98957Y220866D02*
G75*
G02*
X126240I13642J0D01*
G01*
G75*
G02*
X98957I-13642J0D01*
G01*
X123803Y248071D02*
X130528D01*
Y240992D01*
X123803D01*
Y248071D01*
X172765Y253291D02*
G75*
G02*
X180359Y251618I3613J-1673D01*
G01*
G75*
G02*
X172765Y249945I-3981J0D01*
G01*
X170079D01*
Y248291D01*
X163780D01*
Y254945D01*
X165498D01*
Y255291D01*
X163780D01*
Y259402D01*
X163634Y259547D01*
X153150D01*
Y257874D01*
X145079D01*
Y255709D01*
X139173D01*
Y257874D01*
X131102D01*
Y259248D01*
X128839Y256984D01*
Y254858D01*
X130315D01*
Y248205D01*
X124016D01*
Y254858D01*
X125492D01*
Y257677D01*
G75*
G02*
X125984Y258862I1673J0D01*
G01*
X129524Y262402D01*
G75*
G02*
X130709Y262894I1185J-1181D01*
G01*
X131102D01*
Y264567D01*
X139370D01*
Y261614D01*
X144882D01*
Y264567D01*
X153150D01*
Y262894D01*
X164327D01*
G75*
G02*
X165512Y262402I0J-1673D01*
G01*
X165969Y261945D01*
X170079D01*
Y255291D01*
X168360D01*
Y254945D01*
X170079D01*
Y253291D01*
X172765D01*
X248819Y252362D02*
G75*
G02*
X263780I7480J0D01*
G01*
G75*
G02*
X248819I-7480J0D01*
G01*
X257972Y153189D02*
G75*
G02*
X266437I4232J0D01*
G01*
G75*
G02*
X257972I-4232J0D01*
G01*
Y163189D02*
G75*
G02*
X266437I4232J0D01*
G01*
G75*
G02*
X257972I-4232J0D01*
G01*
X7368Y24016D02*
G36*
X7368Y24016D02*
Y7000D01*
X10937Y3431D01*
X273315D01*
X276884Y7000D01*
Y24016D01*
X263780D01*
G75*
G02*
X248819I-7480J0D01*
G01*
X35433D01*
G75*
G02*
X20472I-7480J0D01*
G01*
X7368D01*
G37*
Y41929D02*
G36*
X7368Y41929D02*
Y24016D01*
X20472D01*
G75*
G02*
X35433I7480J0D01*
G01*
X248819D01*
G75*
G02*
X263780I7480J0D01*
G01*
X276884D01*
Y41929D01*
X240827D01*
Y38189D01*
X230000D01*
Y41929D01*
X7368D01*
G37*
Y86417D02*
G36*
X7368Y86417D02*
Y41929D01*
X230000D01*
Y45669D01*
X240827D01*
Y41929D01*
X276884D01*
Y86417D01*
X273720D01*
Y71260D01*
G75*
G02*
X273228Y70075I-1673J0D01*
G01*
X266146Y62992D01*
G75*
G02*
X264961Y62500I-1185J1180D01*
G01*
X229921D01*
Y62220D01*
X230134D01*
Y56283D01*
X229921D01*
Y46654D01*
X222835D01*
Y56283D01*
X222622D01*
Y62220D01*
X222835D01*
Y71047D01*
X222622D01*
Y76984D01*
X222835D01*
Y81693D01*
X229921D01*
Y81102D01*
X258749D01*
X260039Y82393D01*
Y86417D01*
X240827D01*
Y82677D01*
X230000D01*
Y86417D01*
X178234D01*
Y65748D01*
G75*
G02*
X175591Y63104I-2644J0D01*
G01*
X108661D01*
G75*
G02*
X106018Y65748I0J2644D01*
G01*
Y86417D01*
X7368D01*
G37*
X229921Y71047D02*
G36*
X229921Y71047D02*
Y70768D01*
X260921D01*
X266437Y76283D01*
Y86417D01*
X264370D01*
Y81496D01*
G75*
G02*
X263736Y79965I-2166J0D01*
G01*
X261177Y77406D01*
G75*
G02*
X259643Y76772I-1532J1533D01*
G01*
X230134D01*
Y71047D01*
X229921D01*
G37*
X7368Y113189D02*
G36*
X7368Y113189D02*
Y86417D01*
X106018D01*
Y113189D01*
X57972D01*
Y108760D01*
X49114D01*
Y113189D01*
X47972D01*
G75*
G02*
X39114I-4429J0D01*
G01*
X7368D01*
G37*
X178234D02*
G36*
X178234Y113189D02*
Y86417D01*
X230000D01*
Y90157D01*
X240827D01*
Y86417D01*
X260039D01*
Y109553D01*
G75*
G02*
X257972Y113189I2165J3636D01*
G01*
Y113189D01*
X256437D01*
G75*
G02*
X247972I-4232J0D01*
G01*
X178234D01*
G37*
X264370Y109553D02*
G36*
X264370Y109553D02*
Y86417D01*
X266437D01*
Y113189D01*
X266436D01*
G75*
G02*
X264370Y109553I-4234J1D01*
G01*
G37*
X273720Y113189D02*
G36*
X273720Y113189D02*
Y86417D01*
X276884D01*
Y113189D01*
X273720D01*
G37*
X7368Y123189D02*
G36*
X7368Y123189D02*
Y113189D01*
X39114D01*
G75*
G02*
X47972I4429J0D01*
G01*
X49114D01*
Y117618D01*
X57972D01*
Y113189D01*
X106018D01*
Y123189D01*
X57972D01*
G75*
G02*
X49114I-4429J0D01*
G01*
X48185D01*
G75*
G02*
X38902I-4642J0D01*
G01*
X7368D01*
G37*
X178234D02*
G36*
X178234Y123189D02*
Y113189D01*
X247972D01*
G75*
G02*
X256437I4232J0D01*
G01*
X257972D01*
G75*
G02*
X266436I4232J0D01*
G01*
X266437D01*
Y121831D01*
G75*
G02*
X257760Y123189I-4232J1358D01*
G01*
X256437D01*
G75*
G02*
X247972I-4232J0D01*
G01*
X178234D01*
G37*
X273720D02*
G36*
X273720Y123189D02*
Y113189D01*
X276884D01*
Y123189D01*
X273720D01*
G37*
X7368Y153189D02*
G36*
X7368Y153189D02*
Y123189D01*
X38902D01*
G75*
G02*
X48185I4642J0D01*
G01*
X49114D01*
Y123189D01*
G75*
G02*
X50688Y126575I4429J0D01*
G01*
X48349D01*
G75*
G02*
X47233Y127036I-2J1576D01*
G01*
X45191Y129078D01*
G75*
G02*
X39114Y133189I-1648J4111D01*
G01*
G75*
G02*
X47972I4429J0D01*
G01*
G75*
G02*
X47508Y131215I-4435J1D01*
G01*
X48999Y129724D01*
X50784D01*
G75*
G02*
X49114Y133189I2759J3465D01*
G01*
G75*
G02*
X50735Y136614I4429J0D01*
G01*
X48703D01*
G75*
G02*
X47587Y137076I-2J1576D01*
G01*
X45465Y139198D01*
G75*
G02*
X39114Y143189I-1921J3991D01*
G01*
G75*
G02*
X47972I4429J0D01*
G01*
G75*
G02*
X47631Y141485I-4435J2D01*
G01*
X49353Y139764D01*
X50735D01*
G75*
G02*
X49114Y143189I2809J3426D01*
G01*
G75*
G02*
X57636Y144882I4429J0D01*
G01*
X64702D01*
X69291Y149471D01*
Y153189D01*
X65613D01*
X64499Y152076D01*
G75*
G02*
X63383Y151614I-1114J1115D01*
G01*
X57683D01*
G75*
G02*
X49114Y153189I-4140J1575D01*
G01*
X47972D01*
G75*
G02*
X39114I-4429J0D01*
G01*
X7368D01*
G37*
X57972Y123189D02*
G36*
X57972Y123189D02*
Y123189D01*
X106018D01*
Y132677D01*
G75*
G02*
X108661Y135321I2644J0D01*
G01*
X175056D01*
G75*
G02*
X169823Y146063I8409J10742D01*
G01*
G75*
G02*
X171832Y153189I13642J0D01*
G01*
X77953D01*
Y137992D01*
G75*
G02*
X77491Y136879I-1575J0D01*
G01*
X67649Y127036D01*
G75*
G02*
X66533Y126575I-1114J1115D01*
G01*
X56399D01*
G75*
G02*
X57972Y123189I-2855J-3385D01*
G01*
G37*
X178234Y132677D02*
G36*
X178234Y132677D02*
Y123189D01*
X247972D01*
Y123189D01*
G75*
G02*
X249665Y126575I4232J0D01*
G01*
X239176D01*
G75*
G02*
X238060Y127036I-2J1576D01*
G01*
X235107Y129989D01*
G75*
G02*
X234646Y131102I1114J1114D01*
G01*
Y153189D01*
X195097D01*
G75*
G02*
X197106Y146063I-11633J-7126D01*
G01*
G75*
G02*
X178096Y133522I-13642J0D01*
G01*
G75*
G02*
X178234Y132680I-2491J-843D01*
G01*
G75*
G02*
Y132677I-2506J-1D01*
G01*
G37*
X243307Y153189D02*
G36*
X243307Y153189D02*
Y145534D01*
X243959Y144882D01*
X248326D01*
G75*
G02*
X256437Y143189I3879J-1693D01*
G01*
G75*
G02*
X254691Y139764I-4232J0D01*
G01*
X256552D01*
X258313Y141525D01*
G75*
G02*
X257972Y143189I3892J1664D01*
G01*
G75*
G02*
X266039Y144980I4232J0D01*
G01*
X270079D01*
G75*
G02*
X271264Y144488I0J-1672D01*
G01*
X273228Y142524D01*
G75*
G02*
X273720Y141339I-1181J-1185D01*
G01*
Y123189D01*
X276884D01*
Y153189D01*
X266437D01*
G75*
G02*
X257972I-4232J0D01*
G01*
X256437D01*
G75*
G02*
X248276Y151614I-4232J0D01*
G01*
X245632D01*
G75*
G02*
X244517Y152076I-2J1576D01*
G01*
X243403Y153189D01*
X243307D01*
G37*
X256437Y123189D02*
G36*
X256437Y123189D02*
Y123189D01*
X257760D01*
G75*
G02*
X266437Y124547I4445J0D01*
G01*
Y130409D01*
X265834Y131012D01*
G75*
G02*
X260486Y129322I-3630J2176D01*
G01*
X258200Y127036D01*
G75*
G02*
X257084Y126575I-1114J1115D01*
G01*
X254744D01*
G75*
G02*
X256437Y123189I-2539J-3385D01*
G01*
G37*
X7368Y163189D02*
G36*
X7368Y163189D02*
Y153189D01*
X39114D01*
G75*
G02*
X47972I4429J0D01*
G01*
X49114D01*
G75*
G02*
X57683Y154764I4429J0D01*
G01*
X62733D01*
X66535Y158566D01*
Y163189D01*
X57972D01*
G75*
G02*
X49114I-4429J0D01*
G01*
X47972D01*
G75*
G02*
X39114I-4429J0D01*
G01*
X7368D01*
G37*
X69224Y156800D02*
G36*
X69224Y156800D02*
X65613Y153189D01*
X69291D01*
Y156872D01*
G75*
G02*
X69224Y156800I-1620J1464D01*
G01*
G37*
X77953Y163189D02*
G36*
X77953Y163189D02*
Y153189D01*
X171832D01*
G75*
G02*
X195097I11633J-7126D01*
G01*
X234646D01*
Y163189D01*
X77953D01*
G37*
X243307Y153289D02*
G36*
X243307Y153289D02*
Y153189D01*
X243403D01*
X243375Y153217D01*
G75*
G02*
X243307Y153289I1553J1535D01*
G01*
G37*
X246063Y163189D02*
G36*
X246063Y163189D02*
Y154983D01*
X246282Y154764D01*
X248276D01*
G75*
G02*
X256437Y153189I3928J-1575D01*
G01*
X257972D01*
G75*
G02*
X266437I4232J0D01*
G01*
X276884D01*
Y163189D01*
X266437D01*
G75*
G02*
X257972I-4232J0D01*
G01*
X256437D01*
G75*
G02*
X247972I-4232J0D01*
G01*
X246063D01*
G37*
X7368Y220866D02*
G36*
X7368Y220866D02*
Y163189D01*
X39114D01*
G75*
G02*
X47972I4429J0D01*
G01*
X49114D01*
Y163189D01*
G75*
G02*
X50394Y166303I4428J0D01*
G01*
Y196575D01*
G75*
G02*
X51319Y198805I3151J0D01*
G01*
X56313Y203799D01*
G75*
G02*
X58543Y204724I2230J-2226D01*
G01*
X247638D01*
G75*
G02*
X249868Y203799I0J-3151D01*
G01*
X254429Y199238D01*
G75*
G02*
X255354Y197008I-2226J-2230D01*
G01*
Y166016D01*
G75*
G02*
X256437Y163189I-3150J-2827D01*
G01*
X257972D01*
G75*
G02*
X266437I4232J0D01*
G01*
X276884D01*
Y220866D01*
X126240D01*
G75*
G02*
X98957I-13642J0D01*
G01*
X7368D01*
G37*
X56693Y195270D02*
G36*
X56693Y195270D02*
Y166303D01*
G75*
G02*
X57972Y163189I-3149J-3114D01*
G01*
Y163189D01*
X66535D01*
Y191339D01*
G75*
G02*
X66997Y192452I1575J0D01*
G01*
X69753Y195208D01*
G75*
G02*
X70869Y195669I1114J-1115D01*
G01*
X236612D01*
G75*
G02*
X237728Y195208I2J-1576D01*
G01*
X245602Y187334D01*
G75*
G02*
X246063Y186220I-1114J-1114D01*
G01*
Y163189D01*
X247972D01*
G75*
G02*
X249055Y166016I4232J0D01*
G01*
Y195703D01*
X246333Y198425D01*
X59848D01*
X56693Y195270D01*
G37*
X77953Y182419D02*
G36*
X77953Y182419D02*
Y163189D01*
X234646D01*
Y183206D01*
X233993Y183858D01*
X79393D01*
X77953Y182419D01*
G37*
X7368Y244531D02*
G36*
X7368Y244531D02*
Y220866D01*
X98957D01*
G75*
G02*
X126240I13642J0D01*
G01*
X276884D01*
Y244531D01*
X130528D01*
Y240992D01*
X123803D01*
Y244531D01*
X7368D01*
G37*
Y252362D02*
G36*
X7368Y252362D02*
Y244531D01*
X123803D01*
Y248071D01*
X130528D01*
Y244531D01*
X276884D01*
Y252362D01*
X263780D01*
G75*
G02*
X248819I-7480J0D01*
G01*
X180289D01*
G75*
G02*
X180359Y251618I-3911J-744D01*
G01*
G75*
G02*
X172765Y249945I-3981J0D01*
G01*
X170079D01*
Y248291D01*
X163780D01*
Y252362D01*
X130315D01*
Y248205D01*
X124016D01*
Y252362D01*
X35433D01*
G75*
G02*
X20472I-7480J0D01*
G01*
X7368D01*
G37*
Y269378D02*
G36*
X7368Y269378D02*
Y252362D01*
X20472D01*
G75*
G02*
X35433I7480J0D01*
G01*
X124016D01*
Y254858D01*
X125492D01*
Y257677D01*
G75*
G02*
X125984Y258862I1673J0D01*
G01*
X129524Y262402D01*
G75*
G02*
X130709Y262894I1185J-1180D01*
G01*
X131102D01*
Y264567D01*
X139370D01*
Y261614D01*
X144882D01*
Y264567D01*
X153150D01*
Y262894D01*
X164327D01*
G75*
G02*
X165512Y262402I0J-1672D01*
G01*
X165969Y261945D01*
X170079D01*
Y255291D01*
X168360D01*
Y254945D01*
X170079D01*
Y253291D01*
X172765D01*
G75*
G02*
X180289Y252362I3613J-1673D01*
G01*
X248819D01*
G75*
G02*
X263780I7480J0D01*
G01*
X276884D01*
Y269378D01*
X273315Y272947D01*
X10937D01*
X7368Y269378D01*
G37*
X128839Y256984D02*
G36*
X128839Y256984D02*
Y254858D01*
X130315D01*
Y252362D01*
X163780D01*
Y254945D01*
X165498D01*
Y255291D01*
X163780D01*
Y259402D01*
X163634Y259547D01*
X153150D01*
Y257874D01*
X145079D01*
Y255709D01*
X139173D01*
Y257874D01*
X131102D01*
Y259248D01*
X128839Y256984D01*
G37*
X43543Y133189D02*
X43307D01*
X48346Y128150D01*
X66535D01*
X76378Y137992D01*
Y183071D01*
X78740Y185433D01*
X234646D01*
X236220Y183858D01*
Y131102D01*
X239173Y128150D01*
X257087D01*
X262126Y133189D01*
X262205D01*
X43543Y143189D02*
X43701D01*
X48701Y138189D01*
X66142D01*
X73622Y145669D01*
Y184252D01*
X77559Y188189D01*
X235433D01*
X238976Y184646D01*
Y140157D01*
X240945Y138189D01*
X257205D01*
X262205Y143189D01*
X252205D02*
Y143307D01*
X243307D01*
X241732Y144882D01*
Y185433D01*
X235827Y191339D01*
X74016D01*
X70866Y188189D01*
Y148819D01*
X65354Y143307D01*
X53543D01*
Y143189D01*
X252205Y153189D02*
X245630D01*
X244488Y154331D01*
Y186220D01*
X236614Y194094D01*
X70866D01*
X68110Y191339D01*
Y157913D01*
X63386Y153189D01*
X53543D01*
D02*
D19*
X40795Y123189D02*
X38795D01*
X43543Y120441D02*
Y118441D01*
Y125937D02*
Y127937D01*
X46291Y123189D02*
X48291D01*
X125550Y242917D02*
X123697Y241063D01*
X125550Y246146D02*
X123697Y248000D01*
X128780Y242917D02*
X130634Y241063D01*
X128780Y246146D02*
X130634Y248000D01*
X224516Y59252D02*
X222516D01*
X224516Y74016D02*
X222516D01*
X228240Y59252D02*
X230240D01*
X228240Y74016D02*
X230240D01*
X260401Y121385D02*
X258987Y119971D01*
X260401Y124993D02*
X258987Y126407D01*
X264009Y121385D02*
X265423Y119971D01*
X264009Y124993D02*
X265423Y126407D01*
D02*
D70*
X63386Y20079D03*
Y59449D03*
Y177559D03*
Y216929D03*
Y256299D03*
X90945Y216929D03*
X93307Y177559D03*
X102756Y20079D03*
Y59449D03*
Y98819D03*
Y256299D03*
X142126Y20079D03*
Y57874D03*
Y220866D03*
X181496Y20079D03*
Y220866D03*
X186220Y256299D03*
X189370Y98819D03*
X220866Y20079D03*
Y59449D03*
Y98819D03*
Y256299D03*
X233465Y59055D03*
Y74016D03*
D02*
D71*
X226378Y59252D02*
X233268D01*
X233465Y59055D01*
X226378Y74016D02*
X233465D01*
X226378Y78937D02*
X259646D01*
X262205Y81496D01*
Y113189D01*
D02*
D20*
X252205D03*
Y123189D03*
Y133189D03*
Y143189D03*
Y153189D03*
Y163189D03*
X262205Y113189D03*
Y123189D03*
Y133189D03*
Y143189D03*
Y153189D03*
Y163189D03*
D02*
D21*
X53543Y113189D03*
D02*
D22*
X43543D03*
Y123189D03*
Y133189D03*
Y143189D03*
Y153189D03*
Y163189D03*
X53543Y123189D03*
Y133189D03*
Y143189D03*
Y153189D03*
Y163189D03*
D02*
D29*
X166929Y252618D02*
Y257618D01*
D02*
D75*
X135236Y261220D02*
X130709D01*
X127165Y257677D01*
Y251531D01*
X149016Y261220D02*
X164327D01*
X166929Y258618D01*
Y251618D02*
X176378D01*
X226378Y64173D02*
X264961D01*
X272047Y71260D01*
Y141339D01*
X270079Y143307D01*
X262323D01*
X262205Y143189D01*
X226378Y69094D02*
X261614D01*
X268110Y75591D01*
Y131102D01*
X266142Y133071D01*
X262323D01*
X262205Y133189D01*
D02*
D76*
X252205Y163189D02*
Y197008D01*
X247638Y201575D01*
X58543D01*
X53543Y196575D01*
Y163189D01*
D02*
D80*
X127165Y244531D03*
Y251531D03*
X166929Y251618D03*
Y258618D03*
D02*
D85*
X142126Y258661D03*
D02*
D134*
X176378Y251618D03*
D02*
D135*
X226378Y49409D03*
Y54331D03*
Y59252D03*
Y64173D03*
Y69094D03*
Y74016D03*
Y78937D03*
D02*
D136*
X235413Y41929D03*
Y86417D03*
D02*
D137*
X112598Y220866D03*
X183465Y146063D03*
D02*
D138*
X135236Y261220D03*
X149016D03*
X0Y0D02*
M02*
