G04 DesignSpark PCB PRO Gerber Version 10.0 Build 5299*
G04 #@! TF.Part,Single*
G04 #@! TF.FileFunction,Soldermask,Bot*
G04 #@! TF.FilePolarity,Negative*
%FSLAX35Y35*%
%MOIN*%
G04 #@! TA.AperFunction,ViaPad*
%ADD17C,0.04143X0.01969*%
%ADD99C,0.06600X0.03500*%
G04 #@! TA.AperFunction,ComponentPad*
%ADD70C,0.06702X0.04094*%
%ADD100R,0.07096X0.07096X0.04331*%
%ADD101C,0.07096X0.04331*%
G04 #@! TA.AperFunction,WasherPad*
%ADD19C,0.13198X0.12598*%
G04 #@! TA.AperFunction,ComponentPad*
%ADD102C,0.39970X0.25000*%
G04 #@! TD.AperFunction*
X0Y0D02*
D02*
D17*
X15748Y84547D03*
X22441Y96457D03*
X24252Y68071D03*
X33071Y77559D03*
Y83858D03*
X33268Y58661D03*
X46850Y98031D03*
X53819Y45669D03*
X53937Y58661D03*
X61067Y98031D03*
X61811Y32677D03*
X63386Y66929D03*
Y130315D03*
Y185039D03*
Y216929D03*
X68110Y88976D03*
X72441Y45276D03*
X76378Y103150D03*
X90551Y45276D03*
X95276Y62992D03*
X97638Y107087D03*
X99606Y95276D03*
X102756Y66929D03*
Y98819D03*
Y130315D03*
Y185039D03*
Y216929D03*
Y256299D03*
X116929Y239370D03*
X142126Y66929D03*
Y98819D03*
Y130315D03*
X181496Y66929D03*
Y98819D03*
Y130315D03*
Y185039D03*
Y216929D03*
Y256299D03*
X220866Y66929D03*
Y98819D03*
Y130315D03*
Y185039D03*
Y216929D03*
Y256299D03*
D02*
D19*
X27953Y24016D03*
Y252362D03*
X256299Y24016D03*
Y252362D03*
D02*
D70*
X252205Y113189D03*
Y123189D03*
Y133189D03*
Y143189D03*
Y153189D03*
Y163189D03*
X262205Y113189D03*
Y123189D03*
Y133189D03*
Y143189D03*
Y153189D03*
Y163189D03*
D02*
D99*
X31102Y113189D03*
D02*
D100*
X53543D03*
X107087Y20079D03*
D02*
D101*
X43543Y113189D03*
Y123189D03*
Y133189D03*
Y143189D03*
Y153189D03*
Y163189D03*
X53543Y123189D03*
Y133189D03*
Y143189D03*
Y153189D03*
Y163189D03*
X117087Y20079D03*
X127087D03*
X137087D03*
X147087D03*
X157087D03*
X167087D03*
X177087D03*
D02*
D102*
X142126Y191516D03*
X0Y0D02*
M02*
