G05
M48
;#@! TF.GenerationSoftware,DesignSpark,DesignSpark PCB PRO,10.0.5344
;#@! TF.CreationDate,2022-02-17T16:41:50+00:00*
;#@! TF.FileFunction,Plated,1,2,PTH
;FILE_FORMAT=3:5
;TYPE=PLATED
INCH,TZ
FMAT,2
T1C000.01969
T2C000.03500
T3C000.04094
T4C000.04331
%
T001
X0.15748Y0.84547
X0.22441Y0.96457
X0.24252Y0.68071
X0.33071Y0.77559
X0.33071Y0.83858
X0.33268Y0.58661
X0.46850Y0.98031
X0.53819Y0.45669
X0.53937Y0.58661
X0.61067Y0.98031
X0.61811Y0.32677
X0.63386Y0.66929
X0.63386Y1.30315
X0.63386Y1.85039
X0.63386Y2.16929
X0.68110Y0.88976
X0.72441Y0.45276
X0.76378Y1.03150
X0.90551Y0.45276
X0.95276Y0.62992
X0.97638Y1.07087
X0.99606Y0.95276
X1.02756Y0.66929
X1.02756Y0.98819
X1.02756Y1.30315
X1.02756Y1.85039
X1.02756Y2.16929
X1.02756Y2.56299
X1.16929Y2.39370
X1.42126Y0.66929
X1.42126Y0.98819
X1.42126Y1.30315
X1.81496Y0.66929
X1.81496Y0.98819
X1.81496Y1.30315
X1.81496Y1.85039
X1.81496Y2.16929
X1.81496Y2.56299
X2.20866Y0.66929
X2.20866Y0.98819
X2.20866Y1.30315
X2.20866Y1.85039
X2.20866Y2.16929
X2.20866Y2.56299
T002
X0.31102Y1.13189
T003
X2.52205Y1.13189
X2.52205Y1.23189
X2.52205Y1.33189
X2.52205Y1.43189
X2.52205Y1.53189
X2.52205Y1.63189
X2.62205Y1.13189
X2.62205Y1.23189
X2.62205Y1.33189
X2.62205Y1.43189
X2.62205Y1.53189
X2.62205Y1.63189
T004
X0.43543Y1.13189
X0.43543Y1.23189
X0.43543Y1.33189
X0.43543Y1.43189
X0.43543Y1.53189
X0.43543Y1.63189
X0.53543Y1.13189
X0.53543Y1.23189
X0.53543Y1.33189
X0.53543Y1.43189
X0.53543Y1.53189
X0.53543Y1.63189
X1.07087Y0.20079
X1.17087Y0.20079
X1.27087Y0.20079
X1.37087Y0.20079
X1.47087Y0.20079
X1.57087Y0.20079
X1.67087Y0.20079
X1.77087Y0.20079
M30
