G04 DesignSpark PCB PRO Gerber Version 10.0 Build 5299*
G04 #@! TF.Part,Single*
G04 #@! TF.FileFunction,Drillmap*
G04 #@! TF.FilePolarity,Positive*
%FSLAX36Y36*%
%MOIN*%
%ADD26C,0.00500*%
G04 #@! TA.AperFunction,ViaPad*
%ADD25C,0.10000*%
G04 #@! TD.AperFunction*
X0Y0D02*
D02*
D25*
X157480Y845472D03*
X224409Y964567D03*
X242520Y680709D03*
X279528Y240157D03*
Y2523622D03*
X311024Y1131890D03*
X330709Y775591D03*
Y838583D03*
X332677Y586614D03*
X435433Y1131890D03*
Y1231890D03*
Y1331890D03*
Y1431890D03*
Y1531890D03*
Y1631890D03*
X468504Y980315D03*
X535433Y1131890D03*
Y1231890D03*
Y1331890D03*
Y1431890D03*
Y1531890D03*
Y1631890D03*
X538189Y456693D03*
X539370Y586614D03*
X610669Y980315D03*
X618110Y326772D03*
X633858Y669291D03*
Y1303150D03*
Y1850394D03*
Y2169291D03*
X681102Y889764D03*
X724409Y452756D03*
X763780Y1031496D03*
X905512Y452756D03*
X952756Y629921D03*
X976378Y1070866D03*
X996063Y952756D03*
X1027559Y669291D03*
Y988189D03*
Y1303150D03*
Y1850394D03*
Y2169291D03*
Y2562992D03*
X1070866Y200787D03*
X1169291Y2393701D03*
X1170866Y200787D03*
X1270866D03*
X1370866D03*
X1421260Y669291D03*
Y988189D03*
Y1303150D03*
Y1915157D03*
X1470866Y200787D03*
X1570866D03*
X1670866D03*
X1770866D03*
X1814961Y669291D03*
Y988189D03*
Y1303150D03*
Y1850394D03*
Y2169291D03*
Y2562992D03*
X2208661Y669291D03*
Y988189D03*
Y1303150D03*
Y1850394D03*
Y2169291D03*
Y2562992D03*
X2522047Y1131890D03*
Y1231890D03*
Y1331890D03*
Y1431890D03*
Y1531890D03*
Y1631890D03*
X2562992Y240157D03*
Y2523622D03*
X2622047Y1131890D03*
Y1231890D03*
Y1331890D03*
Y1431890D03*
Y1531890D03*
Y1631890D03*
D02*
D26*
X257480Y904846D02*
X273106Y942346D01*
X288732Y904846D01*
X263732Y920472D02*
X282480D01*
X324409Y1023941D02*
X340035Y1061441D01*
X355661Y1023941D01*
X330661Y1039567D02*
X349409D01*
X342520Y740083D02*
X358146Y777583D01*
X373772Y740083D01*
X348772Y755709D02*
X367520D01*
X379528Y299531D02*
Y337031D01*
X410780D01*
X404528Y318283D02*
X379528D01*
Y2582996D02*
Y2620496D01*
X410780D01*
X404528Y2601748D02*
X379528D01*
X411024Y1228764D02*
Y1191264D01*
X442276D01*
X430709Y834965D02*
X446335Y872465D01*
X461961Y834965D01*
X436961Y850591D02*
X455709D01*
X430709Y897957D02*
X446335Y935457D01*
X461961Y897957D01*
X436961Y913583D02*
X455709D01*
X432677Y645988D02*
X448303Y683488D01*
X463929Y645988D01*
X438929Y661614D02*
X457677D01*
X535433Y1191264D02*
Y1228764D01*
Y1210016D02*
X566685D01*
Y1191264D02*
Y1228764D01*
X535433Y1291264D02*
Y1328764D01*
Y1310016D02*
X566685D01*
Y1291264D02*
Y1328764D01*
X535433Y1391264D02*
Y1428764D01*
Y1410016D02*
X566685D01*
Y1391264D02*
Y1428764D01*
X535433Y1491264D02*
Y1528764D01*
Y1510016D02*
X566685D01*
Y1491264D02*
Y1528764D01*
X535433Y1591264D02*
Y1628764D01*
Y1610016D02*
X566685D01*
Y1591264D02*
Y1628764D01*
X535433Y1691264D02*
Y1728764D01*
Y1710016D02*
X566685D01*
Y1691264D02*
Y1728764D01*
X568504Y1039689D02*
X584130Y1077189D01*
X599756Y1039689D01*
X574756Y1055315D02*
X593504D01*
X635433Y1191264D02*
Y1228764D01*
Y1210016D02*
X666685D01*
Y1191264D02*
Y1228764D01*
X635433Y1291264D02*
Y1328764D01*
Y1310016D02*
X666685D01*
Y1291264D02*
Y1328764D01*
X635433Y1391264D02*
Y1428764D01*
Y1410016D02*
X666685D01*
Y1391264D02*
Y1428764D01*
X635433Y1491264D02*
Y1528764D01*
Y1510016D02*
X666685D01*
Y1491264D02*
Y1528764D01*
X635433Y1591264D02*
Y1628764D01*
Y1610016D02*
X666685D01*
Y1591264D02*
Y1628764D01*
X635433Y1691264D02*
Y1728764D01*
Y1710016D02*
X666685D01*
Y1691264D02*
Y1728764D01*
X638189Y516067D02*
X653815Y553567D01*
X669441Y516067D01*
X644441Y531693D02*
X663189D01*
X639370Y645988D02*
X654996Y683488D01*
X670622Y645988D01*
X645622Y661614D02*
X664370D01*
X710669Y1039689D02*
X726295Y1077189D01*
X741921Y1039689D01*
X716921Y1055315D02*
X735669D01*
X718110Y386146D02*
X733736Y423646D01*
X749362Y386146D01*
X724362Y401772D02*
X743110D01*
X733858Y728665D02*
X749484Y766165D01*
X765110Y728665D01*
X740110Y744291D02*
X758858D01*
X733858Y1362524D02*
X749484Y1400024D01*
X765110Y1362524D01*
X740110Y1378150D02*
X758858D01*
X733858Y1909768D02*
X749484Y1947268D01*
X765110Y1909768D01*
X740110Y1925394D02*
X758858D01*
X733858Y2228665D02*
X749484Y2266165D01*
X765110Y2228665D01*
X740110Y2244291D02*
X758858D01*
X781102Y949138D02*
X796728Y986638D01*
X812354Y949138D01*
X787354Y964764D02*
X806102D01*
X824409Y512130D02*
X840035Y549630D01*
X855661Y512130D01*
X830661Y527756D02*
X849409D01*
X863780Y1090870D02*
X879406Y1128370D01*
X895031Y1090870D01*
X870031Y1106496D02*
X888780D01*
X1005512Y512130D02*
X1021138Y549630D01*
X1036764Y512130D01*
X1011764Y527756D02*
X1030512D01*
X1052756Y689295D02*
X1068382Y726795D01*
X1084008Y689295D01*
X1059008Y704921D02*
X1077756D01*
X1076378Y1130240D02*
X1092004Y1167740D01*
X1107630Y1130240D01*
X1082630Y1145866D02*
X1101378D01*
X1096063Y1012130D02*
X1111689Y1049630D01*
X1127315Y1012130D01*
X1102315Y1027756D02*
X1121063D01*
X1127559Y728665D02*
X1143185Y766165D01*
X1158811Y728665D01*
X1133811Y744291D02*
X1152559D01*
X1127559Y1047563D02*
X1143185Y1085063D01*
X1158811Y1047563D01*
X1133811Y1063189D02*
X1152559D01*
X1127559Y1362524D02*
X1143185Y1400024D01*
X1158811Y1362524D01*
X1133811Y1378150D02*
X1152559D01*
X1127559Y1909768D02*
X1143185Y1947268D01*
X1158811Y1909768D01*
X1133811Y1925394D02*
X1152559D01*
X1127559Y2228665D02*
X1143185Y2266165D01*
X1158811Y2228665D01*
X1133811Y2244291D02*
X1152559D01*
X1127559Y2622366D02*
X1143185Y2659866D01*
X1158811Y2622366D01*
X1133811Y2637992D02*
X1152559D01*
X1170866Y260161D02*
Y297661D01*
Y278913D02*
X1202118D01*
Y260161D02*
Y297661D01*
X1269291Y2453075D02*
X1284917Y2490575D01*
X1300543Y2453075D01*
X1275543Y2468701D02*
X1294291D01*
X1270866Y260161D02*
Y297661D01*
Y278913D02*
X1302118D01*
Y260161D02*
Y297661D01*
X1370866Y260161D02*
Y297661D01*
Y278913D02*
X1402118D01*
Y260161D02*
Y297661D01*
X1470866Y260161D02*
Y297661D01*
Y278913D02*
X1502118D01*
Y260161D02*
Y297661D01*
X1521260Y728665D02*
X1536886Y766165D01*
X1552512Y728665D01*
X1527512Y744291D02*
X1546260D01*
X1521260Y1047563D02*
X1536886Y1085063D01*
X1552512Y1047563D01*
X1527512Y1063189D02*
X1546260D01*
X1521260Y1362524D02*
X1536886Y1400024D01*
X1552512Y1362524D01*
X1527512Y1378150D02*
X1546260D01*
X1521260Y1974531D02*
Y2012031D01*
X1536886Y1993283D01*
X1552512Y2012031D01*
Y1974531D01*
X1570866Y260161D02*
Y297661D01*
Y278913D02*
X1602118D01*
Y260161D02*
Y297661D01*
X1670866Y260161D02*
Y297661D01*
Y278913D02*
X1702118D01*
Y260161D02*
Y297661D01*
X1770866Y260161D02*
Y297661D01*
Y278913D02*
X1802118D01*
Y260161D02*
Y297661D01*
X1870866Y260161D02*
Y297661D01*
Y278913D02*
X1902118D01*
Y260161D02*
Y297661D01*
X1914961Y728665D02*
X1930587Y766165D01*
X1946213Y728665D01*
X1921213Y744291D02*
X1939961D01*
X1914961Y1047563D02*
X1930587Y1085063D01*
X1946213Y1047563D01*
X1921213Y1063189D02*
X1939961D01*
X1914961Y1362524D02*
X1930587Y1400024D01*
X1946213Y1362524D01*
X1921213Y1378150D02*
X1939961D01*
X1914961Y1909768D02*
X1930587Y1947268D01*
X1946213Y1909768D01*
X1921213Y1925394D02*
X1939961D01*
X1914961Y2228665D02*
X1930587Y2266165D01*
X1946213Y2228665D01*
X1921213Y2244291D02*
X1939961D01*
X1914961Y2622366D02*
X1930587Y2659866D01*
X1946213Y2622366D01*
X1921213Y2637992D02*
X1939961D01*
X2308661Y728665D02*
X2324287Y766165D01*
X2339913Y728665D01*
X2314913Y744291D02*
X2333661D01*
X2308661Y1047563D02*
X2324287Y1085063D01*
X2339913Y1047563D01*
X2314913Y1063189D02*
X2333661D01*
X2308661Y1362524D02*
X2324287Y1400024D01*
X2339913Y1362524D01*
X2314913Y1378150D02*
X2333661D01*
X2308661Y1909768D02*
X2324287Y1947268D01*
X2339913Y1909768D01*
X2314913Y1925394D02*
X2333661D01*
X2308661Y2228665D02*
X2324287Y2266165D01*
X2339913Y2228665D01*
X2314913Y2244291D02*
X2333661D01*
X2308661Y2622366D02*
X2324287Y2659866D01*
X2339913Y2622366D01*
X2314913Y2637992D02*
X2333661D01*
X2643921Y1206890D02*
X2653299D01*
Y1203764D01*
X2650173Y1197516D01*
X2647047Y1194390D01*
X2640799Y1191264D01*
X2634547D01*
X2628299Y1194390D01*
X2625173Y1197516D01*
X2622047Y1203764D01*
Y1216264D01*
X2625173Y1222516D01*
X2628299Y1225642D01*
X2634547Y1228764D01*
X2640799D01*
X2647047Y1225642D01*
X2650173Y1222516D01*
X2653299Y1216264D01*
X2643921Y1306890D02*
X2653299D01*
Y1303764D01*
X2650173Y1297516D01*
X2647047Y1294390D01*
X2640799Y1291264D01*
X2634547D01*
X2628299Y1294390D01*
X2625173Y1297516D01*
X2622047Y1303764D01*
Y1316264D01*
X2625173Y1322516D01*
X2628299Y1325642D01*
X2634547Y1328764D01*
X2640799D01*
X2647047Y1325642D01*
X2650173Y1322516D01*
X2653299Y1316264D01*
X2643921Y1406890D02*
X2653299D01*
Y1403764D01*
X2650173Y1397516D01*
X2647047Y1394390D01*
X2640799Y1391264D01*
X2634547D01*
X2628299Y1394390D01*
X2625173Y1397516D01*
X2622047Y1403764D01*
Y1416264D01*
X2625173Y1422516D01*
X2628299Y1425642D01*
X2634547Y1428764D01*
X2640799D01*
X2647047Y1425642D01*
X2650173Y1422516D01*
X2653299Y1416264D01*
X2643921Y1506890D02*
X2653299D01*
Y1503764D01*
X2650173Y1497516D01*
X2647047Y1494390D01*
X2640799Y1491264D01*
X2634547D01*
X2628299Y1494390D01*
X2625173Y1497516D01*
X2622047Y1503764D01*
Y1516264D01*
X2625173Y1522516D01*
X2628299Y1525642D01*
X2634547Y1528764D01*
X2640799D01*
X2647047Y1525642D01*
X2650173Y1522516D01*
X2653299Y1516264D01*
X2643921Y1606890D02*
X2653299D01*
Y1603764D01*
X2650173Y1597516D01*
X2647047Y1594390D01*
X2640799Y1591264D01*
X2634547D01*
X2628299Y1594390D01*
X2625173Y1597516D01*
X2622047Y1603764D01*
Y1616264D01*
X2625173Y1622516D01*
X2628299Y1625642D01*
X2634547Y1628764D01*
X2640799D01*
X2647047Y1625642D01*
X2650173Y1622516D01*
X2653299Y1616264D01*
X2643921Y1706890D02*
X2653299D01*
Y1703764D01*
X2650173Y1697516D01*
X2647047Y1694390D01*
X2640799Y1691264D01*
X2634547D01*
X2628299Y1694390D01*
X2625173Y1697516D01*
X2622047Y1703764D01*
Y1716264D01*
X2625173Y1722516D01*
X2628299Y1725642D01*
X2634547Y1728764D01*
X2640799D01*
X2647047Y1725642D01*
X2650173Y1722516D01*
X2653299Y1716264D01*
X2662992Y299531D02*
Y337031D01*
X2694244D01*
X2687992Y318283D02*
X2662992D01*
Y2582996D02*
Y2620496D01*
X2694244D01*
X2687992Y2601748D02*
X2662992D01*
X2743921Y1206890D02*
X2753299D01*
Y1203764D01*
X2750173Y1197516D01*
X2747047Y1194390D01*
X2740799Y1191264D01*
X2734547D01*
X2728299Y1194390D01*
X2725173Y1197516D01*
X2722047Y1203764D01*
Y1216264D01*
X2725173Y1222516D01*
X2728299Y1225642D01*
X2734547Y1228764D01*
X2740799D01*
X2747047Y1225642D01*
X2750173Y1222516D01*
X2753299Y1216264D01*
X2743921Y1306890D02*
X2753299D01*
Y1303764D01*
X2750173Y1297516D01*
X2747047Y1294390D01*
X2740799Y1291264D01*
X2734547D01*
X2728299Y1294390D01*
X2725173Y1297516D01*
X2722047Y1303764D01*
Y1316264D01*
X2725173Y1322516D01*
X2728299Y1325642D01*
X2734547Y1328764D01*
X2740799D01*
X2747047Y1325642D01*
X2750173Y1322516D01*
X2753299Y1316264D01*
X2743921Y1406890D02*
X2753299D01*
Y1403764D01*
X2750173Y1397516D01*
X2747047Y1394390D01*
X2740799Y1391264D01*
X2734547D01*
X2728299Y1394390D01*
X2725173Y1397516D01*
X2722047Y1403764D01*
Y1416264D01*
X2725173Y1422516D01*
X2728299Y1425642D01*
X2734547Y1428764D01*
X2740799D01*
X2747047Y1425642D01*
X2750173Y1422516D01*
X2753299Y1416264D01*
X2743921Y1506890D02*
X2753299D01*
Y1503764D01*
X2750173Y1497516D01*
X2747047Y1494390D01*
X2740799Y1491264D01*
X2734547D01*
X2728299Y1494390D01*
X2725173Y1497516D01*
X2722047Y1503764D01*
Y1516264D01*
X2725173Y1522516D01*
X2728299Y1525642D01*
X2734547Y1528764D01*
X2740799D01*
X2747047Y1525642D01*
X2750173Y1522516D01*
X2753299Y1516264D01*
X2743921Y1606890D02*
X2753299D01*
Y1603764D01*
X2750173Y1597516D01*
X2747047Y1594390D01*
X2740799Y1591264D01*
X2734547D01*
X2728299Y1594390D01*
X2725173Y1597516D01*
X2722047Y1603764D01*
Y1616264D01*
X2725173Y1622516D01*
X2728299Y1625642D01*
X2734547Y1628764D01*
X2740799D01*
X2747047Y1625642D01*
X2750173Y1622516D01*
X2753299Y1616264D01*
X2743921Y1706890D02*
X2753299D01*
Y1703764D01*
X2750173Y1697516D01*
X2747047Y1694390D01*
X2740799Y1691264D01*
X2734547D01*
X2728299Y1694390D01*
X2725173Y1697516D01*
X2722047Y1703764D01*
Y1716264D01*
X2725173Y1722516D01*
X2728299Y1725642D01*
X2734547Y1728764D01*
X2740799D01*
X2747047Y1725642D01*
X2750173Y1722516D01*
X2753299Y1716264D01*
X0Y0D02*
M02*
