  0
SECTION
  2
HEADER
  9
$EXTMIN
 10
481.400
 20
464.900
  9
$EXTMAX
 10
523.510
 20
535.100
  9
$LIMMIN
 10
481.400
 20
464.900
  9
$LIMMAX
 10
523.510
 20
535.100
  0
ENDSEC
  0
SECTION
  2
TABLES
  0
TABLE
  2
LAYER
 70
    18
  0
LAYER
  2
0
 70
    64
 62
     7
  6
CONTINUOUS
  0
LAYER
  2
_BOARD
 70
    64
 62
    254
  6
CONTINUOUS
  0
LAYER
  2
_DRILL
 70
    64
 62
    251
  6
CONTINUOUS
  0
ENDTAB
  0
ENDSEC
  0
SECTION
  2
BLOCKS
  0
BLOCK
  8
0
  2
_HOLE
 70
    64
 10
0.000
 20
0.000
  0
CIRCLE
  8
0
 10
0.000
 20
0.000
 40
0.500
  0
ENDBLK
  8
0
  0
ENDSEC
  0
SECTION
  2
ENTITIES
  0
POLYLINE
  8
_BOARD
 66
     1
 62
     3
 10
0.000
 20
0.000
 70
     1
 40
0.000
 41
0.000
  0
VERTEX
  8
_BOARD
 10
482.500
 20
466.500
 40
0.000
 41
0.000
  0
VERTEX
  8
_BOARD
 10
482.500
 20
533.500
  0
VERTEX
  8
_BOARD
 10
482.500
 20
533.500
 40
0.000
 41
0.000
  0
VERTEX
  8
_BOARD
 10
484.000
 20
535.000
  0
VERTEX
  8
_BOARD
 10
484.000
 20
535.000
 40
0.000
 41
0.000
  0
VERTEX
  8
_BOARD
 10
516.000
 20
535.000
  0
VERTEX
  8
_BOARD
 10
516.000
 20
535.000
 40
0.000
 41
0.000
  0
VERTEX
  8
_BOARD
 10
517.500
 20
533.500
  0
VERTEX
  8
_BOARD
 10
517.500
 20
533.500
 40
0.000
 41
0.000
  0
VERTEX
  8
_BOARD
 10
517.500
 20
466.500
  0
VERTEX
  8
_BOARD
 10
517.500
 20
466.500
 40
0.000
 41
0.000
  0
VERTEX
  8
_BOARD
 10
516.000
 20
465.000
  0
VERTEX
  8
_BOARD
 10
516.000
 20
465.000
 40
0.000
 41
0.000
  0
VERTEX
  8
_BOARD
 10
484.000
 20
465.000
  0
VERTEX
  8
_BOARD
 10
484.000
 20
465.000
 40
0.000
 41
0.000
  0
VERTEX
  8
_BOARD
 10
482.500
 20
466.500
 40
0.000
 41
0.000
  0
VERTEX
  8
_BOARD
 10
482.500
 20
466.500
  0
SEQEND
  8
_BOARD
  0
INSERT
  8
_DRILL
  2
_HOLE
 10
490.450
 20
494.239
 41
3.350
 42
3.350
  0
INSERT
  8
_DRILL
  2
_HOLE
 10
490.450
 20
505.671
 41
3.350
 42
3.350
  0
INSERT
  8
_DRILL
  2
_HOLE
 10
499.340
 20
495.510
 41
0.760
 42
0.760
  0
INSERT
  8
_DRILL
  2
_HOLE
 10
496.800
 20
496.780
 41
0.760
 42
0.760
  0
INSERT
  8
_DRILL
  2
_HOLE
 10
499.340
 20
498.050
 41
0.760
 42
0.760
  0
INSERT
  8
_DRILL
  2
_HOLE
 10
496.800
 20
499.320
 41
0.760
 42
0.760
  0
INSERT
  8
_DRILL
  2
_HOLE
 10
499.340
 20
500.590
 41
0.760
 42
0.760
  0
INSERT
  8
_DRILL
  2
_HOLE
 10
496.800
 20
501.860
 41
0.760
 42
0.760
  0
INSERT
  8
_DRILL
  2
_HOLE
 10
499.340
 20
503.130
 41
0.760
 42
0.760
  0
INSERT
  8
_DRILL
  2
_HOLE
 10
496.800
 20
504.400
 41
0.760
 42
0.760
  0
INSERT
  8
_DRILL
  2
_HOLE
 10
510.760
 20
493.650
 41
1.040
 42
1.040
  0
INSERT
  8
_DRILL
  2
_HOLE
 10
513.300
 20
493.650
 41
1.040
 42
1.040
  0
INSERT
  8
_DRILL
  2
_HOLE
 10
510.760
 20
496.190
 41
1.040
 42
1.040
  0
INSERT
  8
_DRILL
  2
_HOLE
 10
513.300
 20
496.190
 41
1.040
 42
1.040
  0
INSERT
  8
_DRILL
  2
_HOLE
 10
510.760
 20
498.730
 41
1.040
 42
1.040
  0
INSERT
  8
_DRILL
  2
_HOLE
 10
513.300
 20
498.730
 41
1.040
 42
1.040
  0
INSERT
  8
_DRILL
  2
_HOLE
 10
510.760
 20
501.270
 41
1.040
 42
1.040
  0
INSERT
  8
_DRILL
  2
_HOLE
 10
513.300
 20
501.270
 41
1.040
 42
1.040
  0
INSERT
  8
_DRILL
  2
_HOLE
 10
510.760
 20
503.810
 41
1.040
 42
1.040
  0
INSERT
  8
_DRILL
  2
_HOLE
 10
513.300
 20
503.810
 41
1.040
 42
1.040
  0
INSERT
  8
_DRILL
  2
_HOLE
 10
510.760
 20
506.350
 41
1.040
 42
1.040
  0
INSERT
  8
_DRILL
  2
_HOLE
 10
513.300
 20
506.350
 41
1.040
 42
1.040
  0
INSERT
  8
_DRILL
  2
_HOLE
 10
511.500
 20
529.000
 41
3.200
 42
3.200
  0
INSERT
  8
_DRILL
  2
_HOLE
 10
488.500
 20
529.000
 41
3.200
 42
3.200
  0
INSERT
  8
_DRILL
  2
_HOLE
 10
511.500
 20
471.000
 41
3.200
 42
3.200
  0
INSERT
  8
_DRILL
  2
_HOLE
 10
488.500
 20
471.000
 41
3.200
 42
3.200
  0
ENDSEC
  0
EOF
