G04 DesignSpark PCB PRO Gerber Version 10.0 Build 5299*
G04 #@! TF.Part,Single*
G04 #@! TF.FileFunction,Copper,L1,Top*
G04 #@! TF.FilePolarity,Positive*
%FSLAX36Y36*%
%MOIN*%
G04 #@! TA.AperFunction,SMDPad,CuDef*
%ADD79R,0.01575X0.03543*%
%ADD76R,0.03543X0.01575*%
%ADD77R,0.02362X0.06102*%
%ADD75R,0.03937X0.04291*%
%ADD78R,0.04724X0.07087*%
G04 #@! TA.AperFunction,ComponentPad*
%ADD19R,0.06000X0.06000*%
%ADD15R,0.06496X0.06496*%
G04 #@! TD.AperFunction*
%ADD10C,0.00787*%
%ADD14C,0.00984*%
%ADD11C,0.01000*%
%ADD73C,0.01969*%
%ADD72C,0.02362*%
G04 #@! TA.AperFunction,ViaPad*
%ADD12C,0.03543*%
G04 #@! TD.AperFunction*
%ADD13C,0.03937*%
G04 #@! TA.AperFunction,ComponentPad*
%ADD18C,0.05512*%
%ADD17C,0.06102*%
%ADD16C,0.06496*%
G04 #@! TA.AperFunction,SMDPad,CuDef*
%ADD80R,0.04331X0.01772*%
%ADD74R,0.05610X0.01772*%
%ADD81R,0.04291X0.03937*%
G04 #@! TD.AperFunction*
X0Y0D02*
D02*
D10*
X69744Y2689839D02*
Y73941D01*
X113311Y30374D01*
X1351256D01*
X1394823Y73941D01*
Y2689839D01*
X1351256Y2733406D01*
X113311D01*
X69744Y2689839D01*
X204724Y2523622D02*
G75*
G02*
X354331I74803J0D01*
G01*
G75*
G02*
X204724I-74803J0D01*
G01*
X1080709Y1478386D02*
G75*
G02*
X1085630Y1466535I-11811J-11854D01*
G01*
Y1342520D01*
G75*
G02*
X1080709Y1330669I-16732J4D01*
G01*
X1068937Y1318898D01*
G75*
G02*
X1057087Y1313976I-11854J11811D01*
G01*
X1056063D01*
G75*
G02*
X978843Y1315157I-38346J17913D01*
G01*
X955547D01*
G75*
G02*
X943681Y1320059I-31J16732D01*
G01*
X936988Y1326752D01*
G75*
G02*
X932087Y1338583I11831J11831D01*
G01*
G75*
G02*
Y1338591I6835J4D01*
G01*
G75*
G02*
Y1338618I7933J16D01*
G01*
Y1436024D01*
X898602D01*
Y1405512D01*
X818878D01*
Y1485236D01*
G75*
G02*
X807047Y1490157I24J16732D01*
G01*
X795276Y1501929D01*
G75*
G02*
X790354Y1513780I11811J11854D01*
G01*
Y1553780D01*
X775591D01*
Y1570315D01*
X770685D01*
G75*
G02*
X721441I-24622J16299D01*
G01*
X716535D01*
Y1553780D01*
X701299D01*
Y1523622D01*
X724429D01*
Y1448976D01*
X726555D01*
Y1403386D01*
X642579D01*
Y1434055D01*
X634882D01*
X630906Y1430079D01*
Y1299248D01*
G75*
G02*
Y1299220I-7933J-12D01*
G01*
G75*
G02*
Y1299213I-6835J-4D01*
G01*
G75*
G02*
X626004Y1287382I-16732J0D01*
G01*
X610256Y1271634D01*
G75*
G02*
X598390Y1266732I-11835J11831D01*
G01*
X562780D01*
G75*
G02*
X579724Y1231890I-27346J-34839D01*
G01*
G75*
G02*
X491142I-44291J0D01*
G01*
G75*
G02*
X508091Y1266732I44291J-4D01*
G01*
X483858D01*
G75*
G02*
X472008Y1271654I4J16732D01*
G01*
X452598Y1291059D01*
G75*
G02*
X406193Y1365157I-17165J40831D01*
G01*
X325827D01*
X319882Y1359213D01*
Y912441D01*
X321890Y910433D01*
X350358D01*
G75*
G02*
X362224Y905531I31J-16732D01*
G01*
X374488Y893268D01*
Y950945D01*
X445276D01*
Y883701D01*
X384055D01*
X389783Y877972D01*
G75*
G02*
X394685Y866142I-11831J-11831D01*
G01*
G75*
G02*
Y866134I-6835J-4D01*
G01*
G75*
G02*
Y866106I-7933J-12D01*
G01*
Y787437D01*
G75*
G02*
Y787409I-7933J-12D01*
G01*
G75*
G02*
Y787402I-6835J-4D01*
G01*
G75*
G02*
X389783Y775571I-16732J0D01*
G01*
X362224Y748012D01*
G75*
G02*
X350358Y743110I-11835J11831D01*
G01*
X346457D01*
Y740157D01*
X279528D01*
Y744094D01*
X263819D01*
X260827Y741102D01*
Y728346D01*
G75*
G02*
X255906Y716496I-16732J4D01*
G01*
X244134Y704724D01*
G75*
G02*
X232283Y699803I-11854J11811D01*
G01*
X224409D01*
Y682835D01*
X161417D01*
Y809291D01*
X224232D01*
G75*
G02*
X222043Y812756I23799J17461D01*
G01*
X161417D01*
Y879291D01*
X224409D01*
Y862756D01*
X228744D01*
G75*
G02*
X240610Y857854I31J-16732D01*
G01*
X242661Y855807D01*
G75*
G02*
X277402Y829819I5370J-29035D01*
G01*
Y854484D01*
G75*
G02*
X271614Y858268I6067J15594D01*
G01*
X259843Y870039D01*
G75*
G02*
X254921Y881890I11811J11854D01*
G01*
Y1559055D01*
G75*
G02*
X259843Y1570906I16732J-4D01*
G01*
X283425Y1594488D01*
G75*
G02*
X295276Y1599409I11854J-11811D01*
G01*
X405319D01*
G75*
G02*
X391142Y1631890I30114J32480D01*
G01*
G75*
G02*
X479724I44291J0D01*
G01*
G75*
G02*
X465547Y1599409I-44291J0D01*
G01*
X484646D01*
G75*
G02*
X496496Y1594488I-4J-16732D01*
G01*
X518268Y1572720D01*
G75*
G02*
X560063Y1495079I17165J-40831D01*
G01*
X644705D01*
Y1523622D01*
X667835D01*
Y1553780D01*
X653543D01*
Y1620315D01*
X716535D01*
Y1603780D01*
X722039D01*
G75*
G02*
X770087I24024J-17165D01*
G01*
X775591D01*
Y1620315D01*
X838583D01*
Y1553780D01*
X823819D01*
Y1523622D01*
X898602D01*
Y1493110D01*
X898622D01*
Y1528504D01*
X898583Y1528543D01*
X877953D01*
G75*
G02*
X866102Y1533465I4J16732D01*
G01*
X858268Y1541299D01*
G75*
G02*
X853346Y1553150I11811J11854D01*
G01*
Y1564961D01*
X850394D01*
Y1624016D01*
X854331D01*
Y1692295D01*
X819575Y1727055D01*
G75*
G02*
X814961Y1738189I11134J11138D01*
G01*
Y1746693D01*
X799213D01*
Y1762795D01*
X661417D01*
G75*
G02*
X649567Y1767717I4J16732D01*
G01*
X614173Y1803110D01*
G75*
G02*
X609252Y1814961I11811J11854D01*
G01*
Y2031291D01*
G75*
G02*
Y2102567I16732J35638D01*
G01*
Y2346457D01*
G75*
G02*
X614173Y2358307I16732J-4D01*
G01*
X664370Y2408504D01*
Y2467087D01*
X657480D01*
Y2551732D01*
X773465D01*
Y2553858D01*
X824961D01*
Y2464961D01*
X782197D01*
X783000Y2464161D01*
G75*
G02*
X789370Y2448819I-15283J-15339D01*
G01*
Y2429524D01*
G75*
G02*
X797244Y2409449I-21654J-20075D01*
G01*
G75*
G02*
X738189I-29528J0D01*
G01*
G75*
G02*
X746063Y2429524I29528J0D01*
G01*
Y2439850D01*
X744559Y2441350D01*
G75*
G02*
X738189Y2456693I15283J15339D01*
G01*
Y2467087D01*
X737205D01*
Y2401610D01*
G75*
G02*
Y2401583I-7933J-12D01*
G01*
G75*
G02*
Y2401575I-6835J-4D01*
G01*
G75*
G02*
X732303Y2389744I-16732J0D01*
G01*
X721457Y2378898D01*
Y2102567D01*
G75*
G02*
Y2031291I-16732J-35638D01*
G01*
Y1853386D01*
X743150Y1831693D01*
X799213D01*
Y1883228D01*
X862205D01*
Y1868110D01*
G75*
G02*
X909449I23622J-17717D01*
G01*
Y1883228D01*
X972441D01*
Y1816693D01*
X909449D01*
Y1832677D01*
G75*
G02*
X892886Y1821720I-23626J17717D01*
G01*
X909449Y1805157D01*
Y1813228D01*
X972441D01*
Y1746693D01*
X956693D01*
Y1730315D01*
G75*
G02*
X952079Y1719181I-15748J4D01*
G01*
X925197Y1692295D01*
Y1624016D01*
X929134D01*
Y1570906D01*
X946850Y1553189D01*
G75*
G02*
X951772Y1541339I-11811J-11854D01*
G01*
Y1514764D01*
X974409D01*
G75*
G02*
X979354Y1514016I-4J-16740D01*
G01*
G75*
G02*
X975394Y1531890I38366J17878D01*
G01*
G75*
G02*
X1060039I42323J0D01*
G01*
G75*
G02*
X1046630Y1500984I-42323J4D01*
G01*
X1051181D01*
G75*
G02*
X1063031Y1496063I-4J-16732D01*
G01*
X1080709Y1478386D01*
X1368701Y1994740D02*
G75*
G02*
X1377953Y1972441I-22244J-22299D01*
G01*
Y748031D01*
G75*
G02*
X1368701Y725732I-31496J0D01*
G01*
X1337260Y694291D01*
G75*
G02*
X1314961Y685039I-22299J22244D01*
G01*
X1214173D01*
Y636299D01*
X1224488D01*
Y552677D01*
X1140866D01*
Y636299D01*
X1151181D01*
Y685039D01*
X824071D01*
X803150Y664118D01*
Y618110D01*
G75*
G02*
X809933Y603697I-31492J-23626D01*
G01*
G75*
G02*
X891890Y594488I40461J-9209D01*
G01*
G75*
G02*
X809933Y585280I-41496J0D01*
G01*
G75*
G02*
X732283Y594488I-38280J9209D01*
G01*
G75*
G02*
X740157Y618110I39370J0D01*
G01*
Y677165D01*
G75*
G02*
X749409Y699465I31496J0D01*
G01*
X781244Y731299D01*
X649606D01*
G75*
G02*
X637756Y736220I4J16732D01*
G01*
X626969D01*
Y715591D01*
X628976Y713583D01*
X681102D01*
G75*
G02*
X692953Y708661I-4J-16732D01*
G01*
X704724Y696890D01*
G75*
G02*
X709646Y685039I-11811J-11854D01*
G01*
Y630126D01*
G75*
G02*
X732283Y594488I-16732J-35638D01*
G01*
G75*
G02*
X653543I-39370J0D01*
G01*
G75*
G02*
X676181Y630126I39370J0D01*
G01*
Y678110D01*
X674173Y680118D01*
X626929D01*
G75*
G02*
X630906Y669291I-12756J-10831D01*
G01*
Y630126D01*
G75*
G02*
X653543Y594488I-16732J-35638D01*
G01*
G75*
G02*
X574803I-39370J0D01*
G01*
G75*
G02*
X597441Y630126I39370J0D01*
G01*
Y662362D01*
X556063Y703740D01*
X437008D01*
G75*
G02*
X425157Y708661I4J16732D01*
G01*
X413386Y720433D01*
G75*
G02*
X408465Y732283I11811J11854D01*
G01*
Y775591D01*
G75*
G02*
X413386Y787441I16732J-4D01*
G01*
X424173Y798228D01*
G75*
G02*
X433071Y802886I11850J-11811D01*
G01*
Y858268D01*
X500000D01*
Y854331D01*
X519169D01*
G75*
G02*
X523071Y861669I16264J-3941D01*
G01*
Y885827D01*
X446614D01*
Y948819D01*
X573071D01*
Y885827D01*
X556535D01*
Y854764D01*
G75*
G02*
X552165Y843488I-16732J0D01*
G01*
Y811024D01*
G75*
G02*
X550197Y803150I-16732J0D01*
G01*
X555079D01*
X559016Y807087D01*
G75*
G02*
X570866Y812008I11854J-11811D01*
G01*
X580709D01*
Y814961D01*
X632874D01*
Y834646D01*
G75*
G02*
X637795Y846496I16732J-4D01*
G01*
X649567Y858268D01*
G75*
G02*
X661417Y863189I11854J-11811D01*
G01*
X720472D01*
Y880157D01*
X783465D01*
Y813622D01*
X720472D01*
Y829724D01*
X668346D01*
X666339Y827717D01*
Y807087D01*
G75*
G02*
X663252Y797402I-16732J0D01*
G01*
X704882D01*
Y764764D01*
X788346D01*
X802165Y778583D01*
Y813622D01*
X787402D01*
Y880157D01*
X850394D01*
Y813622D01*
X835630D01*
Y771654D01*
G75*
G02*
X830709Y759803I-16732J4D01*
G01*
X818937Y748031D01*
X884843D01*
Y898583D01*
X883268Y900157D01*
X850394D01*
Y883622D01*
X787402D01*
Y900591D01*
X783465D01*
Y883622D01*
X720472D01*
Y900591D01*
X643071D01*
Y885827D01*
X576535D01*
Y948819D01*
X643071D01*
Y934055D01*
X720472D01*
Y950157D01*
X783465D01*
Y934055D01*
X787402D01*
Y950157D01*
X850394D01*
Y933622D01*
X890197D01*
G75*
G02*
X902047Y928701I-4J-16732D01*
G01*
X913386Y917362D01*
G75*
G02*
X918307Y905512I-11811J-11854D01*
G01*
Y748031D01*
X1301913D01*
X1314961Y761079D01*
Y1959394D01*
X1294039Y1980315D01*
X811067D01*
G75*
G02*
X788752Y1989539I-43J31496D01*
G01*
X761193Y2017098D01*
G75*
G02*
X751969Y2039370I22272J22272D01*
G01*
G75*
G02*
Y2039382I13268J8D01*
G01*
G75*
G02*
Y2039413I11953J16D01*
G01*
Y2043307D01*
G75*
G02*
X744094Y2066929I31496J23622D01*
G01*
G75*
G02*
X821744Y2076138I39370J0D01*
G01*
G75*
G02*
X903701Y2066929I40461J-9209D01*
G01*
G75*
G02*
X896323Y2043307I-41496J-4D01*
G01*
X1307087D01*
G75*
G02*
X1329386Y2034055I0J-31496D01*
G01*
X1368701Y1994740D01*
X1240866Y636299D02*
X1324488D01*
Y552677D01*
X1312992D01*
Y503937D01*
G75*
G02*
X1303740Y481638I-31496J0D01*
G01*
X1258520Y436417D01*
G75*
G02*
X1236220Y427165I-22299J22244D01*
G01*
X196894D01*
G75*
G02*
X174579Y436390I-43J31496D01*
G01*
X91902Y519067D01*
G75*
G02*
X82677Y541339I22272J22272D01*
G01*
G75*
G02*
Y541350I13268J8D01*
G01*
G75*
G02*
Y541382I11953J16D01*
G01*
Y1704681D01*
G75*
G02*
Y1704713I12110J16D01*
G01*
G75*
G02*
Y1704724I14098J8D01*
G01*
G75*
G02*
X91902Y1726996I31496J0D01*
G01*
X127335Y1762429D01*
G75*
G02*
X149650Y1771654I22272J-22272D01*
G01*
X501969D01*
G75*
G02*
X524268Y1762402I0J-31496D01*
G01*
X557677Y1728992D01*
G75*
G02*
X566929Y1706693I-22244J-22299D01*
G01*
Y1663031D01*
G75*
G02*
X579724Y1631890I-31500J-31142D01*
G01*
G75*
G02*
X491142I-44291J0D01*
G01*
G75*
G02*
X503937Y1663031I44295J0D01*
G01*
Y1693646D01*
X488921Y1708661D01*
X162654D01*
X145669Y1691677D01*
Y554386D01*
X209898Y490157D01*
X1223173D01*
X1250000Y516984D01*
Y552677D01*
X1240866D01*
Y636299D01*
X204724Y240157D02*
G75*
G02*
X354331I74803J0D01*
G01*
G75*
G02*
X204724I-74803J0D01*
G01*
X1110236D02*
G75*
G02*
X1259843I74803J0D01*
G01*
G75*
G02*
X1110236I-74803J0D01*
G01*
X224409Y663386D02*
G75*
G02*
X277559Y645669I23622J-17717D01*
G01*
G75*
G02*
X224409Y627953I-29528J0D01*
G01*
Y612835D01*
X161417D01*
Y679370D01*
X224409D01*
Y663386D01*
X1040866Y636299D02*
X1124488D01*
Y552677D01*
X1040866D01*
Y636299D01*
X975394Y1631890D02*
G75*
G02*
X1060039I42323J0D01*
G01*
G75*
G02*
X975394I-42323J0D01*
G01*
X973268Y1231890D02*
G75*
G02*
X1062165I44449J0D01*
G01*
G75*
G02*
X973268I-44449J0D01*
G01*
X975394Y1131890D02*
G75*
G02*
X1060039I42323J0D01*
G01*
G75*
G02*
X975394I-42323J0D01*
G01*
X491142Y1176181D02*
X579724D01*
Y1087598D01*
X491142D01*
Y1176181D01*
X389016Y1231890D02*
G75*
G02*
X481850I46417J0D01*
G01*
G75*
G02*
X389016I-46417J0D01*
G01*
X391142Y1131890D02*
G75*
G02*
X479724I44291J0D01*
G01*
G75*
G02*
X391142I-44291J0D01*
G01*
X773465Y1692441D02*
X840709D01*
Y1621654D01*
X773465D01*
Y1692441D01*
X651417D02*
X718661D01*
Y1621654D01*
X651417D01*
Y1692441D01*
X594488Y2709213D02*
X665354D01*
Y2614724D01*
X594488D01*
Y2709213D01*
X814961D02*
X885827D01*
Y2614724D01*
X814961D01*
Y2709213D01*
X1110236Y2523622D02*
G75*
G02*
X1259843I74803J0D01*
G01*
G75*
G02*
X1110236I-74803J0D01*
G01*
X73681Y240157D02*
G36*
X73681Y240157D02*
Y70004D01*
X109374Y34311D01*
X1355193D01*
X1390886Y70004D01*
Y240157D01*
X1259843D01*
G75*
G02*
X1110236I-74803J0D01*
G01*
X354331D01*
G75*
G02*
X204724I-74803J0D01*
G01*
X73681D01*
G37*
Y594488D02*
G36*
X73681Y594488D02*
Y240157D01*
X204724D01*
G75*
G02*
X354331I74803J0D01*
G01*
X1110236D01*
G75*
G02*
X1259843I74803J0D01*
G01*
X1390886D01*
Y594488D01*
X1324488D01*
Y552677D01*
X1312992D01*
Y503937D01*
G75*
G02*
X1303740Y481638I-31508J4D01*
G01*
X1258520Y436417D01*
G75*
G02*
X1236220Y427165I-22303J22256D01*
G01*
X196894D01*
G75*
G02*
X174579Y436390I-35J31516D01*
G01*
X91902Y519067D01*
G75*
G02*
X82677Y541335I22268J22268D01*
G01*
G75*
G02*
Y541339I56394J4D01*
G01*
Y541350D01*
Y541382D01*
Y594488D01*
X73681D01*
G37*
X145669D02*
G36*
X145669Y594488D02*
Y554386D01*
X209898Y490157D01*
X1223173D01*
X1250000Y516984D01*
Y552677D01*
X1240866D01*
Y594488D01*
X1224488D01*
Y552677D01*
X1140866D01*
Y594488D01*
X1124488D01*
Y552677D01*
X1040866D01*
Y594488D01*
X891890D01*
G75*
G02*
X809933Y585280I-41496J0D01*
G01*
G75*
G02*
X732283Y594488I-38280J9209D01*
G01*
X732280D01*
G75*
G02*
X653543I-39366J24D01*
G01*
X653539D01*
G75*
G02*
X574803I-39366J24D01*
G01*
X145669D01*
G37*
X73681Y646102D02*
G36*
X73681Y646102D02*
Y594488D01*
X82677D01*
Y646102D01*
X73681D01*
G37*
X145669D02*
G36*
X145669Y646102D02*
Y594488D01*
X574803D01*
G75*
G02*
X597441Y630126I39370J0D01*
G01*
Y646102D01*
X277555D01*
G75*
G02*
X277559Y645669I-29535J-484D01*
G01*
G75*
G02*
X224409Y627953I-29528J0D01*
G01*
Y612835D01*
X161417D01*
Y646102D01*
X145669D01*
G37*
X630906D02*
G36*
X630906Y646102D02*
Y630126D01*
G75*
G02*
X653539Y594496I-16760J-35650D01*
G01*
G75*
G02*
Y594488I-41012J-4D01*
G01*
X653543D01*
G75*
G02*
X676181Y630126I39370J0D01*
G01*
Y646102D01*
X630906D01*
G37*
X709646D02*
G36*
X709646Y646102D02*
Y630126D01*
G75*
G02*
X732280Y594496I-16760J-35650D01*
G01*
G75*
G02*
Y594488I-41012J-4D01*
G01*
X732283D01*
G75*
G02*
X740157Y618110I39366J0D01*
G01*
Y646102D01*
X709646D01*
G37*
X803150D02*
G36*
X803150Y646102D02*
Y618110D01*
G75*
G02*
X809933Y603697I-31398J-23579D01*
G01*
G75*
G02*
X891890Y594488I40461J-9209D01*
G01*
X1040866D01*
Y636299D01*
X1124488D01*
Y594488D01*
X1140866D01*
Y636299D01*
X1151181D01*
Y646102D01*
X803150D01*
G37*
X1214173D02*
G36*
X1214173Y646102D02*
Y636299D01*
X1224488D01*
Y594488D01*
X1240866D01*
Y636299D01*
X1324488D01*
Y594488D01*
X1390886D01*
Y646102D01*
X1214173D01*
G37*
X73681Y1131890D02*
G36*
X73681Y1131890D02*
Y646102D01*
X82677D01*
Y1131890D01*
X73681D01*
G37*
X145669D02*
G36*
X145669Y1131890D02*
Y646102D01*
X161417D01*
Y679370D01*
X224409D01*
Y663386D01*
G75*
G02*
X277555Y646102I23622J-17717D01*
G01*
X597441D01*
Y662362D01*
X556063Y703740D01*
X437008D01*
G75*
G02*
X425157Y708661I0J16724D01*
G01*
X413386Y720433D01*
G75*
G02*
X408465Y732283I11807J11850D01*
G01*
Y775591D01*
G75*
G02*
X413386Y787441I16728J0D01*
G01*
X424173Y798228D01*
G75*
G02*
X433071Y802886I11850J-11811D01*
G01*
Y858268D01*
X500000D01*
Y854331D01*
X519169D01*
G75*
G02*
X523071Y861669I16295J-3957D01*
G01*
Y885827D01*
X446614D01*
Y948819D01*
X573071D01*
Y885827D01*
X556535D01*
Y854764D01*
G75*
G02*
Y854760I-11874J0D01*
G01*
G75*
G02*
X552165Y843488I-16720J0D01*
G01*
Y811024D01*
G75*
G02*
X550197Y803150I-16740J0D01*
G01*
X555079D01*
X559016Y807087D01*
G75*
G02*
X570866Y812008I11850J-11803D01*
G01*
X580709D01*
Y814961D01*
X632874D01*
Y834646D01*
G75*
G02*
X637795Y846496I16728J0D01*
G01*
X649567Y858268D01*
G75*
G02*
X661417Y863189I11850J-11803D01*
G01*
X720472D01*
Y880157D01*
X783465D01*
Y813622D01*
X720472D01*
Y829724D01*
X668346D01*
X666339Y827717D01*
Y807087D01*
G75*
G02*
X663252Y797402I-16756J8D01*
G01*
X704882D01*
Y764764D01*
X788346D01*
X802165Y778583D01*
Y813622D01*
X787402D01*
Y880157D01*
X850394D01*
Y813622D01*
X835630D01*
Y771654D01*
G75*
G02*
X830709Y759803I-16728J0D01*
G01*
X818937Y748031D01*
X884843D01*
Y898583D01*
X883268Y900157D01*
X850394D01*
Y883622D01*
X787402D01*
Y900591D01*
X783465D01*
Y883622D01*
X720472D01*
Y900591D01*
X643071D01*
Y885827D01*
X576535D01*
Y948819D01*
X643071D01*
Y934055D01*
X720472D01*
Y950157D01*
X783465D01*
Y934055D01*
X787402D01*
Y950157D01*
X850394D01*
Y933622D01*
X890197D01*
G75*
G02*
X902047Y928701I0J-16724D01*
G01*
X913386Y917362D01*
G75*
G02*
X918307Y905512I-11807J-11850D01*
G01*
Y748031D01*
X1301913D01*
X1314961Y761079D01*
Y1131890D01*
X1060039D01*
G75*
G02*
X975394I-42323J0D01*
G01*
X579724D01*
Y1087598D01*
X491142D01*
Y1131890D01*
X479724D01*
G75*
G02*
X391142I-44291J0D01*
G01*
X319882D01*
Y912441D01*
X321890Y910433D01*
X350358D01*
G75*
G02*
X362224Y905531I31J-16740D01*
G01*
X374488Y893268D01*
Y950945D01*
X445276D01*
Y883701D01*
X384055D01*
X389783Y877972D01*
G75*
G02*
X394685Y866142I-11854J-11843D01*
G01*
Y866134D01*
Y866106D01*
Y787437D01*
Y787409D01*
Y787402D01*
G75*
G02*
X389783Y775571I-16756J12D01*
G01*
X362224Y748012D01*
G75*
G02*
X350358Y743110I-11835J11839D01*
G01*
X346457D01*
Y740157D01*
X279528D01*
Y744094D01*
X263819D01*
X260827Y741102D01*
Y728346D01*
G75*
G02*
X255906Y716496I-16728J0D01*
G01*
X244134Y704724D01*
G75*
G02*
X232283Y699803I-11850J11803D01*
G01*
X224409D01*
Y682835D01*
X161417D01*
Y809291D01*
X224232D01*
G75*
G02*
X222043Y812756I23890J17520D01*
G01*
X161417D01*
Y879291D01*
X224409D01*
Y862756D01*
X228744D01*
G75*
G02*
X240610Y857854I31J-16740D01*
G01*
X242661Y855807D01*
G75*
G02*
X277402Y829819I5374J-29031D01*
G01*
Y854484D01*
G75*
G02*
X271614Y858268I6094J15642D01*
G01*
X259843Y870039D01*
G75*
G02*
X254921Y881890I11807J11850D01*
G01*
Y1131890D01*
X145669D01*
G37*
X626969Y736220D02*
G36*
X626969Y736220D02*
Y715591D01*
X628976Y713583D01*
X681102D01*
G75*
G02*
X692953Y708661I0J-16724D01*
G01*
X704724Y696890D01*
G75*
G02*
X709646Y685039I-11807J-11850D01*
G01*
Y646102D01*
X740157D01*
Y677165D01*
G75*
G02*
X749409Y699465I31508J-4D01*
G01*
X781244Y731299D01*
X649606D01*
G75*
G02*
X637756Y736220I0J16724D01*
G01*
X626969D01*
G37*
X630906Y669291D02*
G36*
X630906Y669291D02*
Y646102D01*
X676181D01*
Y678110D01*
X674173Y680118D01*
X626929D01*
G75*
G02*
X630906Y669291I-12776J-10835D01*
G01*
G37*
X803150Y664118D02*
G36*
X803150Y664118D02*
Y646102D01*
X1151181D01*
Y685039D01*
X824071D01*
X803150Y664118D01*
G37*
X1214173Y685039D02*
G36*
X1214173Y685039D02*
Y646102D01*
X1390886D01*
Y1131890D01*
X1377953D01*
Y748031D01*
G75*
G02*
X1368701Y725732I-31508J4D01*
G01*
X1337260Y694291D01*
G75*
G02*
X1314961Y685039I-22303J22256D01*
G01*
X1214173D01*
G37*
X73681Y1231890D02*
G36*
X73681Y1231890D02*
Y1131890D01*
X82677D01*
Y1231890D01*
X73681D01*
G37*
X145669D02*
G36*
X145669Y1231890D02*
Y1131890D01*
X254921D01*
Y1231890D01*
X145669D01*
G37*
X319882D02*
G36*
X319882Y1231890D02*
Y1131890D01*
X391142D01*
G75*
G02*
X479724I44291J0D01*
G01*
X491142D01*
Y1176181D01*
X579724D01*
Y1131890D01*
X975394D01*
G75*
G02*
X1060039I42323J0D01*
G01*
X1314961D01*
Y1231890D01*
X1062165D01*
G75*
G02*
X973268I-44449J0D01*
G01*
X579724D01*
G75*
G02*
X491142I-44291J0D01*
G01*
X481850D01*
G75*
G02*
X389016I-46417J0D01*
G01*
X319882D01*
G37*
X1377953D02*
G36*
X1377953Y1231890D02*
Y1131890D01*
X1390886D01*
Y1231890D01*
X1377953D01*
G37*
X73681Y1330551D02*
G36*
X73681Y1330551D02*
Y1231890D01*
X82677D01*
Y1330551D01*
X73681D01*
G37*
X145669D02*
G36*
X145669Y1330551D02*
Y1231890D01*
X254921D01*
Y1330551D01*
X145669D01*
G37*
X319882D02*
G36*
X319882Y1330551D02*
Y1231890D01*
X389016D01*
G75*
G02*
X481850I46417J0D01*
G01*
X491142D01*
G75*
G02*
Y1231898I50126J4D01*
G01*
G75*
G02*
X508091Y1266732I44272J0D01*
G01*
X483858D01*
G75*
G02*
X472008Y1271654I0J16724D01*
G01*
X452598Y1291059D01*
G75*
G02*
X391161Y1330551I-17165J40831D01*
G01*
X319882D01*
G37*
X579724Y1231894D02*
G36*
X579724Y1231894D02*
G75*
G02*
Y1231890I-45114J0D01*
G01*
X973268D01*
G75*
G02*
X1062165I44449J0D01*
G01*
X1314961D01*
Y1330551D01*
X1080591D01*
X1068937Y1318898D01*
G75*
G02*
X1057087Y1313976I-11850J11803D01*
G01*
X1056063D01*
G75*
G02*
X978843Y1315157I-38346J17913D01*
G01*
X955547D01*
G75*
G02*
X943681Y1320059I-31J16740D01*
G01*
X936988Y1326752D01*
G75*
G02*
X934142Y1330551I11850J11846D01*
G01*
X630906D01*
Y1299248D01*
Y1299220D01*
Y1299213D01*
G75*
G02*
X626004Y1287382I-16756J12D01*
G01*
X610256Y1271634D01*
G75*
G02*
X598390Y1266732I-11835J11839D01*
G01*
X562780D01*
G75*
G02*
X579724Y1231894I-27343J-34839D01*
G01*
G37*
X1377953Y1330551D02*
G36*
X1377953Y1330551D02*
Y1231890D01*
X1390886D01*
Y1330551D01*
X1377953D01*
G37*
X73681Y1631890D02*
G36*
X73681Y1631890D02*
Y1330551D01*
X82677D01*
Y1631890D01*
X73681D01*
G37*
X145669D02*
G36*
X145669Y1631890D02*
Y1330551D01*
X254921D01*
Y1559055D01*
G75*
G02*
X259843Y1570906I16728J0D01*
G01*
X283425Y1594488D01*
G75*
G02*
X295276Y1599409I11850J-11803D01*
G01*
X405319D01*
G75*
G02*
X391142Y1631882I30098J32472D01*
G01*
G75*
G02*
Y1631890I37594J4D01*
G01*
X145669D01*
G37*
X319882Y1359213D02*
G36*
X319882Y1359213D02*
Y1330551D01*
X391161D01*
G75*
G02*
X391142Y1331890I44319J1323D01*
G01*
G75*
G02*
X406193Y1365157I44291J0D01*
G01*
X325827D01*
X319882Y1359213D01*
G37*
X479724Y1631882D02*
G36*
X479724Y1631882D02*
G75*
G02*
X465547Y1599409I-44276J0D01*
G01*
X484646D01*
G75*
G02*
X496496Y1594488I0J-16724D01*
G01*
X518268Y1572720D01*
G75*
G02*
X579724Y1531890I17165J-40831D01*
G01*
G75*
G02*
X560063Y1495079I-44291J0D01*
G01*
X644705D01*
Y1523622D01*
X667835D01*
Y1553780D01*
X653543D01*
Y1620315D01*
X716535D01*
Y1603780D01*
X722039D01*
G75*
G02*
X770087I24024J-17161D01*
G01*
X775591D01*
Y1620315D01*
X838583D01*
Y1553780D01*
X823819D01*
Y1523622D01*
X898602D01*
Y1493110D01*
X898622D01*
Y1528504D01*
X898583Y1528543D01*
X877953D01*
G75*
G02*
X866102Y1533465I0J16724D01*
G01*
X858268Y1541299D01*
G75*
G02*
X853346Y1553150I11807J11850D01*
G01*
Y1564961D01*
X850394D01*
Y1624016D01*
X854331D01*
Y1631890D01*
X840709D01*
Y1621654D01*
X773465D01*
Y1631890D01*
X718661D01*
Y1621654D01*
X651417D01*
Y1631890D01*
X579724D01*
G75*
G02*
X491142I-44291J0D01*
G01*
X479724D01*
G75*
G02*
Y1631882I-37594J-4D01*
G01*
G37*
X630906Y1430079D02*
G36*
X630906Y1430079D02*
Y1330551D01*
X934142D01*
G75*
G02*
X932087Y1338583I14697J8039D01*
G01*
Y1338591D01*
Y1338618D01*
Y1436024D01*
X898602D01*
Y1405512D01*
X818878D01*
Y1485236D01*
G75*
G02*
X807047Y1490157I20J16732D01*
G01*
X795276Y1501929D01*
G75*
G02*
X790354Y1513780I11807J11850D01*
G01*
Y1553780D01*
X775591D01*
Y1570315D01*
X770685D01*
G75*
G02*
X721441I-24622J16299D01*
G01*
X716535D01*
Y1553780D01*
X701299D01*
Y1523622D01*
X724429D01*
Y1448976D01*
X726555D01*
Y1403386D01*
X642579D01*
Y1434055D01*
X634882D01*
X630906Y1430079D01*
G37*
X925197Y1631890D02*
G36*
X925197Y1631890D02*
Y1624016D01*
X929134D01*
Y1570906D01*
X946850Y1553189D01*
G75*
G02*
X951772Y1541339I-11807J-11850D01*
G01*
Y1514764D01*
X974409D01*
G75*
G02*
X979354Y1514016I-12J-16807D01*
G01*
G75*
G02*
X975394Y1531890I38433J17894D01*
G01*
G75*
G02*
X1060039I42323J0D01*
G01*
G75*
G02*
X1046630Y1500984I-42323J0D01*
G01*
X1051181D01*
G75*
G02*
X1063031Y1496063I0J-16724D01*
G01*
X1080709Y1478386D01*
G75*
G02*
X1085630Y1466535I-11807J-11850D01*
G01*
Y1342520D01*
G75*
G02*
X1080709Y1330669I-16728J0D01*
G01*
X1080591Y1330551D01*
X1314961D01*
Y1631890D01*
X1060039D01*
G75*
G02*
X975394I-42323J0D01*
G01*
X925197D01*
G37*
X1377953D02*
G36*
X1377953Y1631890D02*
Y1330551D01*
X1390886D01*
Y1631890D01*
X1377953D01*
G37*
X73681Y2523622D02*
G36*
X73681Y2523622D02*
Y1631890D01*
X82677D01*
Y1704681D01*
Y1704713D01*
Y1704724D01*
G75*
G02*
X91902Y1726996I31512J-4D01*
G01*
X127335Y1762429D01*
G75*
G02*
X149650Y1771654I22280J-22291D01*
G01*
X501969D01*
G75*
G02*
X524268Y1762402I-4J-31508D01*
G01*
X557677Y1728992D01*
G75*
G02*
X566929Y1706693I-22256J-22303D01*
G01*
Y1663031D01*
G75*
G02*
X579724Y1631894I-31488J-31138D01*
G01*
G75*
G02*
Y1631890I-45114J0D01*
G01*
X651417D01*
Y1692441D01*
X718661D01*
Y1631890D01*
X773465D01*
Y1692441D01*
X840709D01*
Y1631890D01*
X854331D01*
Y1692295D01*
X819575Y1727055D01*
G75*
G02*
X814961Y1738189I11138J11138D01*
G01*
Y1746693D01*
X799213D01*
Y1762795D01*
X661417D01*
G75*
G02*
X649567Y1767717I0J16724D01*
G01*
X614173Y1803110D01*
G75*
G02*
X609252Y1814961I11807J11850D01*
G01*
Y2031291D01*
G75*
G02*
X586614Y2066929I16732J35638D01*
G01*
G75*
G02*
X609252Y2102567I39370J0D01*
G01*
Y2346457D01*
G75*
G02*
X614173Y2358307I16728J0D01*
G01*
X664370Y2408504D01*
Y2467087D01*
X657480D01*
Y2523622D01*
X354331D01*
G75*
G02*
X204724I-74803J0D01*
G01*
X73681D01*
G37*
X145669Y1691677D02*
G36*
X145669Y1691677D02*
Y1631890D01*
X391142D01*
G75*
G02*
X479724I44291J0D01*
G01*
X491142D01*
G75*
G02*
Y1631894I45114J4D01*
G01*
G75*
G02*
X503937Y1663031I44283J0D01*
G01*
Y1693646D01*
X488921Y1708661D01*
X162654D01*
X145669Y1691677D01*
G37*
X721457Y2031291D02*
G36*
X721457Y2031291D02*
Y1853386D01*
X743150Y1831693D01*
X799213D01*
Y1883228D01*
X862205D01*
Y1868110D01*
G75*
G02*
X909449I23622J-17717D01*
G01*
Y1883228D01*
X972441D01*
Y1816693D01*
X909449D01*
Y1832677D01*
G75*
G02*
X892886Y1821720I-23606J17689D01*
G01*
X909449Y1805157D01*
Y1813228D01*
X972441D01*
Y1746693D01*
X956693D01*
Y1730315D01*
G75*
G02*
X952079Y1719181I-15752J4D01*
G01*
X925197Y1692295D01*
Y1631890D01*
X975394D01*
G75*
G02*
X1060039I42323J0D01*
G01*
X1314961D01*
Y1959394D01*
X1294039Y1980315D01*
X811067D01*
G75*
G02*
X788752Y1989539I-35J31516D01*
G01*
X761193Y2017098D01*
G75*
G02*
X751969Y2039366I22268J22268D01*
G01*
G75*
G02*
Y2039370I56394J4D01*
G01*
Y2039382D01*
Y2039413D01*
Y2043307D01*
G75*
G02*
X744094Y2066929I31492J23622D01*
G01*
G75*
G02*
X721457Y2031291I-39374J0D01*
G01*
G37*
Y2378898D02*
G36*
X721457Y2378898D02*
Y2102567D01*
G75*
G02*
X744094Y2066933I-16732J-35638D01*
G01*
G75*
G02*
X821744Y2076138I39370J0D01*
G01*
G75*
G02*
X903701Y2066929I40461J-9209D01*
G01*
G75*
G02*
Y2066917I-48339J-4D01*
G01*
G75*
G02*
X896323Y2043307I-41469J0D01*
G01*
X1307087D01*
G75*
G02*
X1329386Y2034055I-4J-31508D01*
G01*
X1368701Y1994740D01*
G75*
G02*
X1377953Y1972441I-22256J-22303D01*
G01*
Y1631890D01*
X1390886D01*
Y2523622D01*
X1259843D01*
G75*
G02*
X1110236I-74803J0D01*
G01*
X824961D01*
Y2464961D01*
X782197D01*
X783000Y2464161D01*
G75*
G02*
X789370Y2448831I-15264J-15331D01*
G01*
G75*
G02*
Y2448819I-21146J-4D01*
G01*
Y2429524D01*
G75*
G02*
X797244Y2409449I-21654J-20075D01*
G01*
G75*
G02*
X738189I-29528J0D01*
G01*
G75*
G02*
X746063Y2429524I29528J0D01*
G01*
Y2439850D01*
X744559Y2441350D01*
G75*
G02*
X738189Y2456681I15264J15331D01*
G01*
G75*
G02*
Y2456693I21146J8D01*
G01*
Y2467087D01*
X737205D01*
Y2401610D01*
Y2401583D01*
Y2401575D01*
G75*
G02*
X732303Y2389744I-16756J12D01*
G01*
X721457Y2378898D01*
G37*
X73681Y2661969D02*
G36*
X73681Y2661969D02*
Y2523622D01*
X204724D01*
G75*
G02*
X354331I74803J0D01*
G01*
X657480D01*
Y2551732D01*
X773465D01*
Y2553858D01*
X824961D01*
Y2523622D01*
X1110236D01*
G75*
G02*
X1259843I74803J0D01*
G01*
X1390886D01*
Y2661969D01*
X885827D01*
Y2614724D01*
X814961D01*
Y2661969D01*
X665354D01*
Y2614724D01*
X594488D01*
Y2661969D01*
X73681D01*
G37*
Y2693776D02*
G36*
X73681Y2693776D02*
Y2661969D01*
X594488D01*
Y2709213D01*
X665354D01*
Y2661969D01*
X814961D01*
Y2709213D01*
X885827D01*
Y2661969D01*
X1390886D01*
Y2693776D01*
X1355193Y2729469D01*
X109374D01*
X73681Y2693776D01*
G37*
X830709Y1779961D02*
Y1738189D01*
X870079Y1698819D01*
Y1594488D01*
X940945Y1779961D02*
Y1730315D01*
X909449Y1698819D01*
Y1594488D01*
D02*
D11*
X393425Y917323D02*
X373425D01*
X407953Y1231890D02*
X387953D01*
X409882Y902638D02*
Y882638D01*
Y932008D02*
Y952008D01*
X435433Y1204409D02*
Y1184409D01*
Y1259370D02*
Y1279370D01*
X462913Y1231890D02*
X482913D01*
X661516Y1426181D02*
X641516D01*
X668890Y1640898D02*
X650354Y1622362D01*
X668890Y1673197D02*
X650354Y1691732D01*
X673228Y778465D02*
Y798465D01*
X684567Y1422323D02*
Y1402323D01*
X685945Y775591D02*
X705945D01*
X701189Y1640898D02*
X719724Y1622362D01*
X701189Y1673197D02*
X719724Y1691732D01*
X707618Y1426181D02*
X727618D01*
X790937Y1640898D02*
X772402Y1622362D01*
X790937Y1673197D02*
X772402Y1691732D01*
X799213Y2483898D02*
Y2463898D01*
Y2534921D02*
Y2554921D01*
X806024Y2509409D02*
X826024D01*
X823236Y1640898D02*
X841772Y1622362D01*
X823236Y1673197D02*
X841772Y1691732D01*
X834441Y578535D02*
X820299Y564394D01*
X834441Y610441D02*
X820299Y624583D01*
X862205Y2089488D02*
Y2109488D01*
X866346Y578535D02*
X880488Y564394D01*
X866346Y610441D02*
X880488Y624583D01*
X884764Y2066929D02*
X904764D01*
X992205Y1231890D02*
X972205D01*
X1017717Y1206378D02*
Y1186378D01*
Y1257402D02*
Y1277402D01*
X1043228Y1231890D02*
X1063228D01*
D02*
D12*
X216535Y905512D03*
X248031Y645669D03*
Y826772D03*
X342520Y937008D03*
X377953Y590551D03*
X685039Y1370079D03*
X728346Y791339D03*
X746063Y1586614D03*
X767717Y2409449D03*
X771654Y1086614D03*
Y1263780D03*
X811024Y1708661D03*
X822835Y2429134D03*
X885827Y1850394D03*
X889764Y1734252D03*
X968504Y594488D03*
X1125984Y1232283D03*
D02*
D13*
X535433Y1631890D02*
Y1706693D01*
X501969Y1740157D01*
X149606D01*
X114173Y1704724D01*
Y541339D01*
X196850Y458661D01*
X1236220D01*
X1281496Y503937D01*
Y593701D01*
X1282283Y594488D01*
X1282677D01*
X771654D02*
Y677165D01*
X811024Y716535D01*
X901575D01*
X783465Y2066929D02*
Y2039370D01*
X811024Y2011811D01*
X1307087D01*
X1346457Y1972441D01*
Y748031D01*
X1314961Y716535D01*
X1177165D01*
X850394Y594488D02*
X968504D01*
X901575Y716535D02*
X1177165D01*
X1182677D01*
Y594488D01*
D02*
D14*
X192913Y846024D02*
X228780D01*
X248031Y826772D01*
Y645669D02*
X193346D01*
X192913Y646102D01*
X312992Y760827D02*
X256890D01*
X244094Y748031D01*
Y728346D01*
X232283Y716535D01*
X193346D01*
X192913Y716102D01*
X312992Y786417D02*
X345472D01*
X354331Y795276D01*
Y854331D01*
X338583Y870079D01*
X283465D01*
X271654Y881890D01*
Y1559055D01*
X295276Y1582677D01*
X484646D01*
X535433Y1531890D01*
X312992Y786417D02*
X250984D01*
X240157Y775591D01*
X193346D01*
X192913Y776024D01*
X312992Y812008D02*
X262795D01*
X248031Y826772D01*
X312992Y837598D02*
X284449D01*
X216535Y905512D01*
X409882Y917323D02*
X362205D01*
X342520Y937008D01*
X435433Y1431890D02*
Y1433465D01*
X480315Y1478346D01*
X683583D01*
X684567Y1477362D01*
X466535Y760827D02*
X562008D01*
X566929Y755906D01*
X610236D01*
X466535Y786417D02*
X436024D01*
X425197Y775591D01*
Y732283D01*
X437008Y720472D01*
X562992D01*
X614173Y669291D01*
Y594488D01*
X466535Y786417D02*
X562008D01*
X570866Y795276D01*
X610236D01*
X466535Y837598D02*
X535433D01*
Y811024D01*
X467520D01*
X466535Y812008D01*
X535433Y1431890D02*
Y1429134D01*
X488189Y1381890D01*
X318898D01*
X303150Y1366142D01*
Y905512D01*
X314961Y893701D01*
X350394D01*
X377953Y866142D01*
Y787402D01*
X350394Y759843D01*
X313976D01*
X312992Y760827D01*
X539803Y917323D02*
Y854764D01*
X535433Y850394D01*
Y837598D01*
X539803Y917323D02*
X479882D01*
X609803D02*
X818465D01*
X818898Y916890D01*
X610236Y755906D02*
Y708661D01*
X622047Y696850D01*
X681102D01*
X692913Y685039D01*
Y594488D01*
X610236Y755906D02*
X641732D01*
X649606Y748031D01*
X795276D01*
X818898Y771654D01*
Y846890D01*
X610236Y795276D02*
X637795D01*
X649606Y807087D01*
Y834646D01*
X661417Y846457D01*
X748465D01*
X748898Y846890D01*
X751969D01*
X673228Y775591D02*
X712598D01*
X728346Y791339D01*
X684567Y1426181D02*
Y1370551D01*
X685039Y1370079D01*
X684567Y1451772D02*
X683583Y1450787D01*
X627953D01*
X614173Y1437008D01*
Y1299213D01*
X598425Y1283465D01*
X483858D01*
X435433Y1331890D01*
X684567Y1502953D02*
Y1586575D01*
X685039Y1587047D01*
X807087D01*
X685039Y1657047D02*
X807087D01*
X720472Y2509409D02*
Y2401575D01*
X704724Y2385827D01*
Y2066929D01*
X807087Y1587047D02*
Y1513780D01*
X818898Y1501969D01*
X857756D01*
X858740Y1502953D01*
X818898Y916890D02*
X890197D01*
X901575Y905512D01*
Y716535D01*
X830709Y1779961D02*
X830276Y1779528D01*
X661417D01*
X625984Y1814961D01*
Y2346457D01*
X681102Y2401575D01*
Y2509409D01*
X830709Y1849961D02*
X940945D01*
X870079Y1594488D02*
Y1553150D01*
X877953Y1545276D01*
X905512D01*
X915354Y1535433D01*
Y1476378D01*
X889764Y1657480D02*
Y1734252D01*
X909449Y1594488D02*
Y1566929D01*
X935039Y1541339D01*
Y1505906D01*
X942913Y1498031D01*
X974409D01*
X988189Y1484252D01*
X1051181D01*
X1068898Y1466535D01*
Y1342520D01*
X1057087Y1330709D01*
X1018898D01*
X1017717Y1331890D01*
X915354Y1476378D02*
X859724D01*
X858740Y1477362D01*
X940945Y1779961D02*
X910984D01*
X875984Y1814961D01*
X736220D01*
X704724Y1846457D01*
Y2066929D01*
X1017717Y1331890D02*
X955512D01*
X948819Y1338583D01*
Y1444882D01*
X940945Y1452756D01*
X861693D01*
X860709Y1451772D01*
X858740D01*
X1017717Y1431890D02*
X973622D01*
X968504Y1437008D01*
Y1472441D01*
X964567Y1476378D01*
X915354D01*
D02*
D15*
X535433Y1131890D03*
D02*
D16*
X435433D03*
Y1231890D03*
Y1331890D03*
Y1431890D03*
Y1531890D03*
Y1631890D03*
X535433Y1231890D03*
Y1331890D03*
Y1431890D03*
Y1531890D03*
Y1631890D03*
D02*
D17*
X1017717Y1131890D03*
Y1231890D03*
Y1331890D03*
Y1431890D03*
Y1531890D03*
Y1631890D03*
D02*
D18*
X614173Y594488D03*
X625984Y2066929D03*
X692913Y594488D03*
X704724Y2066929D03*
X771654Y594488D03*
X783465Y2066929D03*
X850394Y594488D03*
X862205Y2066929D03*
D02*
D19*
X1082677Y594488D03*
X1182677D03*
X1282677D03*
D02*
D72*
X799213Y2509409D02*
Y2452756D01*
X822835Y2429134D01*
D02*
D73*
X759843Y2509409D02*
Y2456693D01*
X767717Y2448819D01*
Y2409449D01*
D02*
D74*
X684567Y1426181D03*
Y1451772D03*
Y1477362D03*
Y1502953D03*
X858740Y1426181D03*
Y1451772D03*
Y1477362D03*
Y1502953D03*
D02*
D75*
X192913Y646102D03*
Y716102D03*
Y776024D03*
Y846024D03*
X685039Y1587047D03*
Y1657047D03*
X751969Y846890D03*
Y916890D03*
X807087Y1587047D03*
Y1657047D03*
X818898Y846890D03*
Y916890D03*
X830709Y1779961D03*
Y1849961D03*
X940945Y1779961D03*
Y1849961D03*
D02*
D76*
X610236Y755906D03*
Y795276D03*
X673228Y775591D03*
D02*
D77*
X681102Y2509409D03*
X720472D03*
X759843D03*
X799213D03*
D02*
D78*
X629921Y2661969D03*
X850394D03*
D02*
D79*
X870079Y1594488D03*
X889764Y1657480D03*
X909449Y1594488D03*
D02*
D80*
X312992Y760827D03*
Y786417D03*
Y812008D03*
Y837598D03*
X466535Y760827D03*
Y786417D03*
Y812008D03*
Y837598D03*
D02*
D81*
X409882Y917323D03*
X479882D03*
X539803D03*
X609803D03*
X0Y0D02*
M02*
