G04 DesignSpark PCB PRO Gerber Version 10.0 Build 5299*
G04 #@! TF.Part,Single*
G04 #@! TF.FileFunction,Copper,L1,Top*
G04 #@! TF.FilePolarity,Positive*
%FSLAX35Y35*%
%MOIN*%
G04 #@! TA.AperFunction,SMDPad,CuDef*
%ADD115R,0.01575X0.03543*%
%ADD112R,0.02362X0.06102*%
%ADD80R,0.03937X0.04291*%
%ADD113R,0.04724X0.07087*%
G04 #@! TA.AperFunction,ComponentPad*
%ADD114R,0.06000X0.06000*%
%ADD21R,0.06496X0.06496*%
G04 #@! TD.AperFunction*
%ADD18C,0.00787*%
%ADD75C,0.00984*%
%ADD19C,0.01000*%
%ADD71C,0.01969*%
%ADD108C,0.02362*%
G04 #@! TA.AperFunction,ViaPad*
%ADD70C,0.03543*%
G04 #@! TD.AperFunction*
%ADD76C,0.03937*%
G04 #@! TA.AperFunction,ComponentPad*
%ADD110C,0.05512*%
%ADD20C,0.06102*%
%ADD22C,0.06496*%
G04 #@! TA.AperFunction,SMDPad,CuDef*
%ADD111R,0.03543X0.01575*%
%ADD116R,0.04331X0.01772*%
%ADD109R,0.05610X0.01772*%
%ADD77R,0.04291X0.03937*%
G04 #@! TD.AperFunction*
X0Y0D02*
D02*
D18*
X6974Y268984D02*
Y7394D01*
X11331Y3037D01*
X135126D01*
X139482Y7394D01*
Y268984D01*
X135126Y273341D01*
X11331D01*
X6974Y268984D01*
X20472Y252362D02*
G75*
G02*
X35433I7480J0D01*
G01*
G75*
G02*
X20472I-7480J0D01*
G01*
X108071Y147839D02*
G75*
G02*
X108563Y146654I-1181J-1185D01*
G01*
Y134252D01*
G75*
G02*
X108071Y133067I-1673J0D01*
G01*
X106894Y131890D01*
G75*
G02*
X105709Y131398I-1185J1181D01*
G01*
X105606D01*
G75*
G02*
X97884Y131516I-3835J1791D01*
G01*
X95555D01*
G75*
G02*
X94368Y132006I-3J1673D01*
G01*
X93699Y132675D01*
G75*
G02*
X93209Y133858I1183J1183D01*
G01*
G75*
G02*
Y133859I683J0D01*
G01*
G75*
G02*
Y133862I793J2D01*
G01*
Y143602D01*
X89860D01*
Y140551D01*
X81888D01*
Y148524D01*
G75*
G02*
X80705Y149016I2J1673D01*
G01*
X79528Y150193D01*
G75*
G02*
X79035Y151378I1181J1185D01*
G01*
Y155378D01*
X77559D01*
Y157031D01*
X77069D01*
G75*
G02*
X72144I-2462J1630D01*
G01*
X71654D01*
Y155378D01*
X70130D01*
Y152362D01*
X72443D01*
Y144898D01*
X72656D01*
Y140339D01*
X64258D01*
Y143406D01*
X63488D01*
X63091Y143008D01*
Y129925D01*
G75*
G02*
Y129922I-793J-1D01*
G01*
G75*
G02*
Y129921I-683J0D01*
G01*
G75*
G02*
X62600Y128738I-1673J0D01*
G01*
X61026Y127163D01*
G75*
G02*
X59839Y126673I-1183J1183D01*
G01*
X56278D01*
G75*
G02*
X57972Y123189I-2735J-3484D01*
G01*
G75*
G02*
X49114I-4429J0D01*
G01*
G75*
G02*
X50809Y126673I4429J0D01*
G01*
X48386D01*
G75*
G02*
X47201Y127165I0J1673D01*
G01*
X45260Y129106D01*
G75*
G02*
X40619Y136516I-1717J4083D01*
G01*
X32583D01*
X31988Y135921D01*
Y91244D01*
X32189Y91043D01*
X35036D01*
G75*
G02*
X36222Y90553I3J-1673D01*
G01*
X37449Y89327D01*
Y95094D01*
X44528D01*
Y88370D01*
X38406D01*
X38978Y87797D01*
G75*
G02*
X39469Y86614I-1183J-1183D01*
G01*
G75*
G02*
Y86613I-683J0D01*
G01*
G75*
G02*
Y86611I-793J-1D01*
G01*
Y78744D01*
G75*
G02*
Y78741I-793J-1D01*
G01*
G75*
G02*
Y78740I-683J0D01*
G01*
G75*
G02*
X38978Y77557I-1673J0D01*
G01*
X36222Y74801D01*
G75*
G02*
X35036Y74311I-1183J1183D01*
G01*
X34646D01*
Y74016D01*
X27953D01*
Y74409D01*
X26382D01*
X26083Y74110D01*
Y72835D01*
G75*
G02*
X25591Y71650I-1673J0D01*
G01*
X24413Y70472D01*
G75*
G02*
X23228Y69980I-1185J1181D01*
G01*
X22441D01*
Y68283D01*
X16142D01*
Y80929D01*
X22423D01*
G75*
G02*
X22204Y81276I2380J1746D01*
G01*
X16142D01*
Y87929D01*
X22441D01*
Y86276D01*
X22874D01*
G75*
G02*
X24061Y85785I3J-1673D01*
G01*
X24266Y85581D01*
G75*
G02*
X27740Y82982I537J-2904D01*
G01*
Y85448D01*
G75*
G02*
X27161Y85827I607J1559D01*
G01*
X25984Y87004D01*
G75*
G02*
X25492Y88189I1181J1185D01*
G01*
Y155906D01*
G75*
G02*
X25984Y157091I1673J0D01*
G01*
X28343Y159449D01*
G75*
G02*
X29528Y159941I1185J-1181D01*
G01*
X40532D01*
G75*
G02*
X39114Y163189I3011J3248D01*
G01*
G75*
G02*
X47972I4429J0D01*
G01*
G75*
G02*
X46555Y159941I-4429J0D01*
G01*
X48465D01*
G75*
G02*
X49650Y159449I0J-1673D01*
G01*
X51827Y157272D01*
G75*
G02*
X56006Y149508I1717J-4083D01*
G01*
X64470D01*
Y152362D01*
X66783D01*
Y155378D01*
X65354D01*
Y162031D01*
X71654D01*
Y160378D01*
X72204D01*
G75*
G02*
X77009I2402J-1717D01*
G01*
X77559D01*
Y162031D01*
X83858D01*
Y155378D01*
X82382D01*
Y152362D01*
X89860D01*
Y149311D01*
X89862D01*
Y152850D01*
X89858Y152854D01*
X87795D01*
G75*
G02*
X86610Y153346I0J1673D01*
G01*
X85827Y154130D01*
G75*
G02*
X85335Y155315I1181J1185D01*
G01*
Y156496D01*
X85039D01*
Y162402D01*
X85433D01*
Y169230D01*
X81957Y172706D01*
G75*
G02*
X81496Y173819I1113J1114D01*
G01*
Y174669D01*
X79921D01*
Y176280D01*
X66142D01*
G75*
G02*
X64957Y176772I0J1673D01*
G01*
X61417Y180311D01*
G75*
G02*
X60925Y181496I1181J1185D01*
G01*
Y203129D01*
G75*
G02*
Y210257I1673J3564D01*
G01*
Y234646D01*
G75*
G02*
X61417Y235831I1673J0D01*
G01*
X66437Y240850D01*
Y246709D01*
X65748D01*
Y255173D01*
X77346D01*
Y255386D01*
X82496D01*
Y246496D01*
X78220D01*
X78300Y246416D01*
G75*
G02*
X78937Y244882I-1528J-1534D01*
G01*
Y242952D01*
G75*
G02*
X79724Y240945I-2165J-2007D01*
G01*
G75*
G02*
X73819I-2953J0D01*
G01*
G75*
G02*
X74606Y242952I2953J0D01*
G01*
Y243985D01*
X74456Y244135D01*
G75*
G02*
X73819Y245669I1528J1534D01*
G01*
Y246709D01*
X73720D01*
Y240161D01*
G75*
G02*
Y240158I-793J-1D01*
G01*
G75*
G02*
Y240157I-683J0D01*
G01*
G75*
G02*
X73230Y238974I-1673J0D01*
G01*
X72146Y237890D01*
Y210257D01*
G75*
G02*
Y203129I-1673J-3564D01*
G01*
Y185339D01*
X74315Y183169D01*
X79921D01*
Y188323D01*
X86220D01*
Y186811D01*
G75*
G02*
X90945I2362J-1772D01*
G01*
Y188323D01*
X97244D01*
Y181669D01*
X90945D01*
Y183268D01*
G75*
G02*
X89289Y182172I-2363J1772D01*
G01*
X90945Y180516D01*
Y181323D01*
X97244D01*
Y174669D01*
X95669D01*
Y173031D01*
G75*
G02*
X95208Y171918I-1575J0D01*
G01*
X92520Y169230D01*
Y162402D01*
X92913D01*
Y157091D01*
X94685Y155319D01*
G75*
G02*
X95177Y154134I-1181J-1185D01*
G01*
Y151476D01*
X97441D01*
G75*
G02*
X97935Y151402I0J-1674D01*
G01*
G75*
G02*
X97539Y153189I3837J1788D01*
G01*
G75*
G02*
X106004I4232J0D01*
G01*
G75*
G02*
X104663Y150098I-4232J0D01*
G01*
X105118D01*
G75*
G02*
X106303Y149606I0J-1673D01*
G01*
X108071Y147839D01*
X136870Y199474D02*
G75*
G02*
X137795Y197244I-2224J-2230D01*
G01*
Y74803D01*
G75*
G02*
X136870Y72573I-3150J0D01*
G01*
X133726Y69429D01*
G75*
G02*
X131496Y68504I-2230J2224D01*
G01*
X121417D01*
Y63630D01*
X122449D01*
Y55268D01*
X114087D01*
Y63630D01*
X115118D01*
Y68504D01*
X82407D01*
X80315Y66412D01*
Y61811D01*
G75*
G02*
X80993Y60370I-3149J-2363D01*
G01*
G75*
G02*
X89189Y59449I4046J-921D01*
G01*
G75*
G02*
X80993Y58528I-4150J0D01*
G01*
G75*
G02*
X73228Y59449I-3828J921D01*
G01*
G75*
G02*
X74016Y61811I3937J0D01*
G01*
Y67717D01*
G75*
G02*
X74941Y69946I3150J0D01*
G01*
X78124Y73130D01*
X64961D01*
G75*
G02*
X63776Y73622I0J1673D01*
G01*
X62697D01*
Y71559D01*
X62898Y71358D01*
X68110D01*
G75*
G02*
X69295Y70866I0J-1673D01*
G01*
X70472Y69689D01*
G75*
G02*
X70965Y68504I-1181J-1185D01*
G01*
Y63013D01*
G75*
G02*
X73228Y59449I-1673J-3564D01*
G01*
G75*
G02*
X65354I-3937J0D01*
G01*
G75*
G02*
X67618Y63013I3937J0D01*
G01*
Y67811D01*
X67417Y68012D01*
X62693D01*
G75*
G02*
X63091Y66929I-1276J-1083D01*
G01*
Y63013D01*
G75*
G02*
X65354Y59449I-1673J-3564D01*
G01*
G75*
G02*
X57480I-3937J0D01*
G01*
G75*
G02*
X59744Y63013I3937J0D01*
G01*
Y66236D01*
X55606Y70374D01*
X43701D01*
G75*
G02*
X42516Y70866I0J1673D01*
G01*
X41339Y72043D01*
G75*
G02*
X40846Y73228I1181J1185D01*
G01*
Y77559D01*
G75*
G02*
X41339Y78744I1673J0D01*
G01*
X42417Y79823D01*
G75*
G02*
X43307Y80289I1185J-1181D01*
G01*
Y85827D01*
X50000D01*
Y85433D01*
X51917D01*
G75*
G02*
X52307Y86167I1626J-394D01*
G01*
Y88583D01*
X44661D01*
Y94882D01*
X57307D01*
Y88583D01*
X55654D01*
Y85476D01*
G75*
G02*
X55217Y84349I-1673J0D01*
G01*
Y81102D01*
G75*
G02*
X55020Y80315I-1673J0D01*
G01*
X55508D01*
X55902Y80709D01*
G75*
G02*
X57087Y81201I1185J-1181D01*
G01*
X58071D01*
Y81496D01*
X63287D01*
Y83465D01*
G75*
G02*
X63780Y84650I1673J0D01*
G01*
X64957Y85827D01*
G75*
G02*
X66142Y86319I1185J-1181D01*
G01*
X72047D01*
Y88016D01*
X78346D01*
Y81362D01*
X72047D01*
Y82972D01*
X66835D01*
X66634Y82772D01*
Y80709D01*
G75*
G02*
X66325Y79740I-1673J0D01*
G01*
X70488D01*
Y76476D01*
X78835D01*
X80217Y77858D01*
Y81362D01*
X78740D01*
Y88016D01*
X85039D01*
Y81362D01*
X83563D01*
Y77165D01*
G75*
G02*
X83071Y75980I-1673J0D01*
G01*
X81894Y74803D01*
X88484D01*
Y89858D01*
X88327Y90016D01*
X85039D01*
Y88362D01*
X78740D01*
Y90059D01*
X78346D01*
Y88362D01*
X72047D01*
Y90059D01*
X64307D01*
Y88583D01*
X57654D01*
Y94882D01*
X64307D01*
Y93406D01*
X72047D01*
Y95016D01*
X78346D01*
Y93406D01*
X78740D01*
Y95016D01*
X85039D01*
Y93362D01*
X89020D01*
G75*
G02*
X90205Y92870I0J-1673D01*
G01*
X91339Y91736D01*
G75*
G02*
X91831Y90551I-1181J-1185D01*
G01*
Y74803D01*
X130191D01*
X131496Y76108D01*
Y195939D01*
X129404Y198031D01*
X81107D01*
G75*
G02*
X78875Y198954I-4J3150D01*
G01*
X76119Y201710D01*
G75*
G02*
X75197Y203937I2227J2227D01*
G01*
G75*
G02*
Y203938I1327J1D01*
G01*
G75*
G02*
Y203941I1195J2D01*
G01*
Y204331D01*
G75*
G02*
X74409Y206693I3150J2362D01*
G01*
G75*
G02*
X82174Y207614I3937J0D01*
G01*
G75*
G02*
X90370Y206693I4046J-921D01*
G01*
G75*
G02*
X89632Y204331I-4150J0D01*
G01*
X130709D01*
G75*
G02*
X132939Y203406I0J-3150D01*
G01*
X136870Y199474D01*
X124087Y63630D02*
X132449D01*
Y55268D01*
X131299D01*
Y50394D01*
G75*
G02*
X130374Y48164I-3150J0D01*
G01*
X125852Y43642D01*
G75*
G02*
X123622Y42717I-2230J2224D01*
G01*
X19689D01*
G75*
G02*
X17458Y43639I-4J3150D01*
G01*
X9190Y51907D01*
G75*
G02*
X8268Y54134I2227J2227D01*
G01*
G75*
G02*
Y54135I1327J1D01*
G01*
G75*
G02*
Y54138I1195J2D01*
G01*
Y170468D01*
G75*
G02*
Y170471I1211J2D01*
G01*
G75*
G02*
Y170472I1410J1D01*
G01*
G75*
G02*
X9190Y172700I3150J0D01*
G01*
X12733Y176243D01*
G75*
G02*
X14965Y177165I2227J-2227D01*
G01*
X50197D01*
G75*
G02*
X52427Y176240I0J-3150D01*
G01*
X55768Y172899D01*
G75*
G02*
X56693Y170669I-2224J-2230D01*
G01*
Y166303D01*
G75*
G02*
X57972Y163189I-3150J-3114D01*
G01*
G75*
G02*
X49114I-4429J0D01*
G01*
G75*
G02*
X50394Y166303I4430J0D01*
G01*
Y169365D01*
X48892Y170866D01*
X16265D01*
X14567Y169168D01*
Y55439D01*
X20990Y49016D01*
X122317D01*
X125000Y51698D01*
Y55268D01*
X124087D01*
Y63630D01*
X20472Y24016D02*
G75*
G02*
X35433I7480J0D01*
G01*
G75*
G02*
X20472I-7480J0D01*
G01*
X111024D02*
G75*
G02*
X125984I7480J0D01*
G01*
G75*
G02*
X111024I-7480J0D01*
G01*
X22441Y66339D02*
G75*
G02*
X27756Y64567I2362J-1772D01*
G01*
G75*
G02*
X22441Y62795I-2953J0D01*
G01*
Y61283D01*
X16142D01*
Y67937D01*
X22441D01*
Y66339D01*
X104087Y63630D02*
X112449D01*
Y55268D01*
X104087D01*
Y63630D01*
X97539Y163189D02*
G75*
G02*
X106004I4232J0D01*
G01*
G75*
G02*
X97539I-4232J0D01*
G01*
X97327Y123189D02*
G75*
G02*
X106217I4445J0D01*
G01*
G75*
G02*
X97327I-4445J0D01*
G01*
X97539Y113189D02*
G75*
G02*
X106004I4232J0D01*
G01*
G75*
G02*
X97539I-4232J0D01*
G01*
X49114Y117618D02*
X57972D01*
Y108760D01*
X49114D01*
Y117618D01*
X38902Y123189D02*
G75*
G02*
X48185I4642J0D01*
G01*
G75*
G02*
X38902I-4642J0D01*
G01*
X39114Y113189D02*
G75*
G02*
X47972I4429J0D01*
G01*
G75*
G02*
X39114I-4429J0D01*
G01*
X77346Y169244D02*
X84071D01*
Y162165D01*
X77346D01*
Y169244D01*
X65142D02*
X71866D01*
Y162165D01*
X65142D01*
Y169244D01*
X59449Y270921D02*
X66535D01*
Y261472D01*
X59449D01*
Y270921D01*
X81496D02*
X88583D01*
Y261472D01*
X81496D01*
Y270921D01*
X111024Y252362D02*
G75*
G02*
X125984I7480J0D01*
G01*
G75*
G02*
X111024I-7480J0D01*
G01*
X7368Y24016D02*
G36*
X7368Y24016D02*
Y7000D01*
X10937Y3431D01*
X135519D01*
X139089Y7000D01*
Y24016D01*
X125984D01*
G75*
G02*
X111024I-7480J0D01*
G01*
X35433D01*
G75*
G02*
X20472I-7480J0D01*
G01*
X7368D01*
G37*
Y59449D02*
G36*
X7368Y59449D02*
Y24016D01*
X20472D01*
G75*
G02*
X35433I7480J0D01*
G01*
X111024D01*
G75*
G02*
X125984I7480J0D01*
G01*
X139089D01*
Y59449D01*
X132449D01*
Y55268D01*
X131299D01*
Y50394D01*
G75*
G02*
X130374Y48164I-3151J0D01*
G01*
X125852Y43642D01*
G75*
G02*
X123622Y42717I-2230J2226D01*
G01*
X19689D01*
G75*
G02*
X17458Y43639I-4J3152D01*
G01*
X9190Y51907D01*
G75*
G02*
X8268Y54133I2227J2227D01*
G01*
Y54134D01*
Y54135D01*
Y54138D01*
Y59449D01*
X7368D01*
G37*
X14567D02*
G36*
X14567Y59449D02*
Y55439D01*
X20990Y49016D01*
X122317D01*
X125000Y51698D01*
Y55268D01*
X124087D01*
Y59449D01*
X122449D01*
Y55268D01*
X114087D01*
Y59449D01*
X112449D01*
Y55268D01*
X104087D01*
Y59449D01*
X89189D01*
G75*
G02*
X80993Y58528I-4150J0D01*
G01*
G75*
G02*
X73228Y59449I-3828J921D01*
G01*
X73228D01*
G75*
G02*
X65354I-3937J2D01*
G01*
X65354D01*
G75*
G02*
X57480I-3937J2D01*
G01*
X14567D01*
G37*
X7368Y64610D02*
G36*
X7368Y64610D02*
Y59449D01*
X8268D01*
Y64610D01*
X7368D01*
G37*
X14567D02*
G36*
X14567Y64610D02*
Y59449D01*
X57480D01*
G75*
G02*
X59744Y63013I3937J0D01*
G01*
Y64610D01*
X27756D01*
G75*
G02*
X27756Y64567I-2954J-48D01*
G01*
G75*
G02*
X22441Y62795I-2953J0D01*
G01*
Y61283D01*
X16142D01*
Y64610D01*
X14567D01*
G37*
X63091D02*
G36*
X63091Y64610D02*
Y63013D01*
G75*
G02*
X65354Y59450I-1676J-3565D01*
G01*
G75*
G02*
Y59449I-4101J0D01*
G01*
X65354D01*
G75*
G02*
X67618Y63013I3937J0D01*
G01*
Y64610D01*
X63091D01*
G37*
X70965D02*
G36*
X70965Y64610D02*
Y63013D01*
G75*
G02*
X73228Y59450I-1676J-3565D01*
G01*
G75*
G02*
Y59449I-4101J0D01*
G01*
X73228D01*
G75*
G02*
X74016Y61811I3937J0D01*
G01*
Y64610D01*
X70965D01*
G37*
X80315D02*
G36*
X80315Y64610D02*
Y61811D01*
G75*
G02*
X80993Y60370I-3140J-2358D01*
G01*
G75*
G02*
X89189Y59449I4046J-921D01*
G01*
X104087D01*
Y63630D01*
X112449D01*
Y59449D01*
X114087D01*
Y63630D01*
X115118D01*
Y64610D01*
X80315D01*
G37*
X121417D02*
G36*
X121417Y64610D02*
Y63630D01*
X122449D01*
Y59449D01*
X124087D01*
Y63630D01*
X132449D01*
Y59449D01*
X139089D01*
Y64610D01*
X121417D01*
G37*
X7368Y113189D02*
G36*
X7368Y113189D02*
Y64610D01*
X8268D01*
Y113189D01*
X7368D01*
G37*
X14567D02*
G36*
X14567Y113189D02*
Y64610D01*
X16142D01*
Y67937D01*
X22441D01*
Y66339D01*
G75*
G02*
X27756Y64610I2362J-1772D01*
G01*
X59744D01*
Y66236D01*
X55606Y70374D01*
X43701D01*
G75*
G02*
X42516Y70866I0J1672D01*
G01*
X41339Y72043D01*
G75*
G02*
X40846Y73228I1181J1185D01*
G01*
Y77559D01*
G75*
G02*
X41339Y78744I1673J0D01*
G01*
X42417Y79823D01*
G75*
G02*
X43307Y80289I1185J-1181D01*
G01*
Y85827D01*
X50000D01*
Y85433D01*
X51917D01*
G75*
G02*
X52307Y86167I1630J-396D01*
G01*
Y88583D01*
X44661D01*
Y94882D01*
X57307D01*
Y88583D01*
X55654D01*
Y85476D01*
Y85476D01*
G75*
G02*
X55217Y84349I-1672J0D01*
G01*
Y81102D01*
G75*
G02*
X55020Y80315I-1674J0D01*
G01*
X55508D01*
X55902Y80709D01*
G75*
G02*
X57087Y81201I1185J-1180D01*
G01*
X58071D01*
Y81496D01*
X63287D01*
Y83465D01*
G75*
G02*
X63780Y84650I1673J0D01*
G01*
X64957Y85827D01*
G75*
G02*
X66142Y86319I1185J-1180D01*
G01*
X72047D01*
Y88016D01*
X78346D01*
Y81362D01*
X72047D01*
Y82972D01*
X66835D01*
X66634Y82772D01*
Y80709D01*
G75*
G02*
X66325Y79740I-1676J1D01*
G01*
X70488D01*
Y76476D01*
X78835D01*
X80217Y77858D01*
Y81362D01*
X78740D01*
Y88016D01*
X85039D01*
Y81362D01*
X83563D01*
Y77165D01*
G75*
G02*
X83071Y75980I-1673J0D01*
G01*
X81894Y74803D01*
X88484D01*
Y89858D01*
X88327Y90016D01*
X85039D01*
Y88362D01*
X78740D01*
Y90059D01*
X78346D01*
Y88362D01*
X72047D01*
Y90059D01*
X64307D01*
Y88583D01*
X57654D01*
Y94882D01*
X64307D01*
Y93406D01*
X72047D01*
Y95016D01*
X78346D01*
Y93406D01*
X78740D01*
Y95016D01*
X85039D01*
Y93362D01*
X89020D01*
G75*
G02*
X90205Y92870I0J-1672D01*
G01*
X91339Y91736D01*
G75*
G02*
X91831Y90551I-1181J-1185D01*
G01*
Y74803D01*
X130191D01*
X131496Y76108D01*
Y113189D01*
X106004D01*
G75*
G02*
X97539I-4232J0D01*
G01*
X57972D01*
Y108760D01*
X49114D01*
Y113189D01*
X47972D01*
G75*
G02*
X39114I-4429J0D01*
G01*
X31988D01*
Y91244D01*
X32189Y91043D01*
X35036D01*
G75*
G02*
X36222Y90553I3J-1674D01*
G01*
X37449Y89327D01*
Y95094D01*
X44528D01*
Y88370D01*
X38406D01*
X38978Y87797D01*
G75*
G02*
X39469Y86614I-1185J-1184D01*
G01*
Y86613D01*
Y86611D01*
Y78744D01*
Y78741D01*
Y78740D01*
G75*
G02*
X38978Y77557I-1676J1D01*
G01*
X36222Y74801D01*
G75*
G02*
X35036Y74311I-1183J1184D01*
G01*
X34646D01*
Y74016D01*
X27953D01*
Y74409D01*
X26382D01*
X26083Y74110D01*
Y72835D01*
G75*
G02*
X25591Y71650I-1673J0D01*
G01*
X24413Y70472D01*
G75*
G02*
X23228Y69980I-1185J1180D01*
G01*
X22441D01*
Y68283D01*
X16142D01*
Y80929D01*
X22423D01*
G75*
G02*
X22204Y81276I2389J1752D01*
G01*
X16142D01*
Y87929D01*
X22441D01*
Y86276D01*
X22874D01*
G75*
G02*
X24061Y85785I3J-1674D01*
G01*
X24266Y85581D01*
G75*
G02*
X27740Y82982I537J-2903D01*
G01*
Y85448D01*
G75*
G02*
X27161Y85827I609J1564D01*
G01*
X25984Y87004D01*
G75*
G02*
X25492Y88189I1181J1185D01*
G01*
Y113189D01*
X14567D01*
G37*
X62697Y73622D02*
G36*
X62697Y73622D02*
Y71559D01*
X62898Y71358D01*
X68110D01*
G75*
G02*
X69295Y70866I0J-1672D01*
G01*
X70472Y69689D01*
G75*
G02*
X70965Y68504I-1181J-1185D01*
G01*
Y64610D01*
X74016D01*
Y67717D01*
G75*
G02*
X74941Y69946I3151J0D01*
G01*
X78124Y73130D01*
X64961D01*
G75*
G02*
X63776Y73622I0J1672D01*
G01*
X62697D01*
G37*
X63091Y66929D02*
G36*
X63091Y66929D02*
Y64610D01*
X67618D01*
Y67811D01*
X67417Y68012D01*
X62693D01*
G75*
G02*
X63091Y66929I-1278J-1083D01*
G01*
G37*
X80315Y66412D02*
G36*
X80315Y66412D02*
Y64610D01*
X115118D01*
Y68504D01*
X82407D01*
X80315Y66412D01*
G37*
X121417Y68504D02*
G36*
X121417Y68504D02*
Y64610D01*
X139089D01*
Y113189D01*
X137795D01*
Y74803D01*
G75*
G02*
X136870Y72573I-3151J0D01*
G01*
X133726Y69429D01*
G75*
G02*
X131496Y68504I-2230J2226D01*
G01*
X121417D01*
G37*
X7368Y123189D02*
G36*
X7368Y123189D02*
Y113189D01*
X8268D01*
Y123189D01*
X7368D01*
G37*
X14567D02*
G36*
X14567Y123189D02*
Y113189D01*
X25492D01*
Y123189D01*
X14567D01*
G37*
X31988D02*
G36*
X31988Y123189D02*
Y113189D01*
X39114D01*
G75*
G02*
X47972I4429J0D01*
G01*
X49114D01*
Y117618D01*
X57972D01*
Y113189D01*
X97539D01*
G75*
G02*
X106004I4232J0D01*
G01*
X131496D01*
Y123189D01*
X106217D01*
G75*
G02*
X97327I-4445J0D01*
G01*
X57972D01*
G75*
G02*
X49114I-4429J0D01*
G01*
X48185D01*
G75*
G02*
X38902I-4642J0D01*
G01*
X31988D01*
G37*
X137795D02*
G36*
X137795Y123189D02*
Y113189D01*
X139089D01*
Y123189D01*
X137795D01*
G37*
X7368Y133055D02*
G36*
X7368Y133055D02*
Y123189D01*
X8268D01*
Y133055D01*
X7368D01*
G37*
X14567D02*
G36*
X14567Y133055D02*
Y123189D01*
X25492D01*
Y133055D01*
X14567D01*
G37*
X31988D02*
G36*
X31988Y133055D02*
Y123189D01*
X38902D01*
G75*
G02*
X48185I4642J0D01*
G01*
X49114D01*
G75*
G02*
Y123190I5013J0D01*
G01*
G75*
G02*
X50809Y126673I4427J0D01*
G01*
X48386D01*
G75*
G02*
X47201Y127165I0J1672D01*
G01*
X45260Y129106D01*
G75*
G02*
X39116Y133055I-1717J4083D01*
G01*
X31988D01*
G37*
X57972Y123189D02*
G36*
X57972Y123189D02*
Y123189D01*
X97327D01*
G75*
G02*
X106217I4445J0D01*
G01*
X131496D01*
Y133055D01*
X108059D01*
X106894Y131890D01*
G75*
G02*
X105709Y131398I-1185J1180D01*
G01*
X105606D01*
G75*
G02*
X97884Y131516I-3835J1791D01*
G01*
X95555D01*
G75*
G02*
X94368Y132006I-3J1674D01*
G01*
X93699Y132675D01*
G75*
G02*
X93414Y133055I1185J1185D01*
G01*
X63091D01*
Y129925D01*
Y129922D01*
Y129921D01*
G75*
G02*
X62600Y128738I-1676J1D01*
G01*
X61026Y127163D01*
G75*
G02*
X59839Y126673I-1183J1184D01*
G01*
X56278D01*
G75*
G02*
X57972Y123189I-2734J-3484D01*
G01*
G37*
X137795Y133055D02*
G36*
X137795Y133055D02*
Y123189D01*
X139089D01*
Y133055D01*
X137795D01*
G37*
X7368Y163189D02*
G36*
X7368Y163189D02*
Y133055D01*
X8268D01*
Y163189D01*
X7368D01*
G37*
X14567D02*
G36*
X14567Y163189D02*
Y133055D01*
X25492D01*
Y155906D01*
G75*
G02*
X25984Y157091I1673J0D01*
G01*
X28343Y159449D01*
G75*
G02*
X29528Y159941I1185J-1180D01*
G01*
X40532D01*
G75*
G02*
X39114Y163188I3010J3247D01*
G01*
G75*
G02*
Y163189I3759J0D01*
G01*
X14567D01*
G37*
X31988Y135921D02*
G36*
X31988Y135921D02*
Y133055D01*
X39116D01*
G75*
G02*
X39114Y133189I4432J132D01*
G01*
G75*
G02*
X40619Y136516I4429J0D01*
G01*
X32583D01*
X31988Y135921D01*
G37*
X47972Y163188D02*
G36*
X47972Y163188D02*
G75*
G02*
X46555Y159941I-4428J0D01*
G01*
X48465D01*
G75*
G02*
X49650Y159449I0J-1672D01*
G01*
X51827Y157272D01*
G75*
G02*
X57972Y153189I1717J-4083D01*
G01*
G75*
G02*
X56006Y149508I-4429J0D01*
G01*
X64470D01*
Y152362D01*
X66783D01*
Y155378D01*
X65354D01*
Y162031D01*
X71654D01*
Y160378D01*
X72204D01*
G75*
G02*
X77009I2402J-1716D01*
G01*
X77559D01*
Y162031D01*
X83858D01*
Y155378D01*
X82382D01*
Y152362D01*
X89860D01*
Y149311D01*
X89862D01*
Y152850D01*
X89858Y152854D01*
X87795D01*
G75*
G02*
X86610Y153346I0J1672D01*
G01*
X85827Y154130D01*
G75*
G02*
X85335Y155315I1181J1185D01*
G01*
Y156496D01*
X85039D01*
Y162402D01*
X85433D01*
Y163189D01*
X84071D01*
Y162165D01*
X77346D01*
Y163189D01*
X71866D01*
Y162165D01*
X65142D01*
Y163189D01*
X57972D01*
G75*
G02*
X49114I-4429J0D01*
G01*
X47972D01*
G75*
G02*
Y163188I-3759J0D01*
G01*
G37*
X63091Y143008D02*
G36*
X63091Y143008D02*
Y133055D01*
X93414D01*
G75*
G02*
X93209Y133858I1470J804D01*
G01*
Y133859D01*
Y133862D01*
Y143602D01*
X89860D01*
Y140551D01*
X81888D01*
Y148524D01*
G75*
G02*
X80705Y149016I2J1673D01*
G01*
X79528Y150193D01*
G75*
G02*
X79035Y151378I1181J1185D01*
G01*
Y155378D01*
X77559D01*
Y157031D01*
X77069D01*
G75*
G02*
X72144I-2462J1630D01*
G01*
X71654D01*
Y155378D01*
X70130D01*
Y152362D01*
X72443D01*
Y144898D01*
X72656D01*
Y140339D01*
X64258D01*
Y143406D01*
X63488D01*
X63091Y143008D01*
G37*
X92520Y163189D02*
G36*
X92520Y163189D02*
Y162402D01*
X92913D01*
Y157091D01*
X94685Y155319D01*
G75*
G02*
X95177Y154134I-1181J-1185D01*
G01*
Y151476D01*
X97441D01*
G75*
G02*
X97935Y151402I-1J-1681D01*
G01*
G75*
G02*
X97539Y153189I3843J1789D01*
G01*
G75*
G02*
X106004I4232J0D01*
G01*
G75*
G02*
X104663Y150098I-4232J0D01*
G01*
X105118D01*
G75*
G02*
X106303Y149606I0J-1672D01*
G01*
X108071Y147839D01*
G75*
G02*
X108563Y146654I-1181J-1185D01*
G01*
Y134252D01*
G75*
G02*
X108071Y133067I-1673J0D01*
G01*
X108059Y133055D01*
X131496D01*
Y163189D01*
X106004D01*
G75*
G02*
X97539I-4232J0D01*
G01*
X92520D01*
G37*
X137795D02*
G36*
X137795Y163189D02*
Y133055D01*
X139089D01*
Y163189D01*
X137795D01*
G37*
X7368Y252362D02*
G36*
X7368Y252362D02*
Y163189D01*
X8268D01*
Y170468D01*
Y170471D01*
Y170472D01*
G75*
G02*
X9190Y172700I3151J0D01*
G01*
X12733Y176243D01*
G75*
G02*
X14965Y177165I2228J-2229D01*
G01*
X50197D01*
G75*
G02*
X52427Y176240I0J-3151D01*
G01*
X55768Y172899D01*
G75*
G02*
X56693Y170669I-2226J-2230D01*
G01*
Y166303D01*
G75*
G02*
X57972Y163189I-3149J-3114D01*
G01*
Y163189D01*
X65142D01*
Y169244D01*
X71866D01*
Y163189D01*
X77346D01*
Y169244D01*
X84071D01*
Y163189D01*
X85433D01*
Y169230D01*
X81957Y172706D01*
G75*
G02*
X81496Y173819I1114J1114D01*
G01*
Y174669D01*
X79921D01*
Y176280D01*
X66142D01*
G75*
G02*
X64957Y176772I0J1672D01*
G01*
X61417Y180311D01*
G75*
G02*
X60925Y181496I1181J1185D01*
G01*
Y203129D01*
G75*
G02*
X58661Y206693I1673J3564D01*
G01*
G75*
G02*
X60925Y210257I3937J0D01*
G01*
Y234646D01*
G75*
G02*
X61417Y235831I1673J0D01*
G01*
X66437Y240850D01*
Y246709D01*
X65748D01*
Y252362D01*
X35433D01*
G75*
G02*
X20472I-7480J0D01*
G01*
X7368D01*
G37*
X14567Y169168D02*
G36*
X14567Y169168D02*
Y163189D01*
X39114D01*
G75*
G02*
X47972I4429J0D01*
G01*
X49114D01*
Y163189D01*
G75*
G02*
X50394Y166303I4428J0D01*
G01*
Y169365D01*
X48892Y170866D01*
X16265D01*
X14567Y169168D01*
G37*
X72146Y203129D02*
G36*
X72146Y203129D02*
Y185339D01*
X74315Y183169D01*
X79921D01*
Y188323D01*
X86220D01*
Y186811D01*
G75*
G02*
X90945I2362J-1772D01*
G01*
Y188323D01*
X97244D01*
Y181669D01*
X90945D01*
Y183268D01*
G75*
G02*
X89289Y182172I-2361J1769D01*
G01*
X90945Y180516D01*
Y181323D01*
X97244D01*
Y174669D01*
X95669D01*
Y173031D01*
G75*
G02*
X95208Y171918I-1575J0D01*
G01*
X92520Y169230D01*
Y163189D01*
X97539D01*
G75*
G02*
X106004I4232J0D01*
G01*
X131496D01*
Y195939D01*
X129404Y198031D01*
X81107D01*
G75*
G02*
X78875Y198954I-4J3152D01*
G01*
X76119Y201710D01*
G75*
G02*
X75197Y203937I2227J2227D01*
G01*
Y203937D01*
Y203938D01*
Y203941D01*
Y204331D01*
G75*
G02*
X74409Y206693I3149J2362D01*
G01*
G75*
G02*
X72146Y203129I-3937J0D01*
G01*
G37*
Y237890D02*
G36*
X72146Y237890D02*
Y210257D01*
G75*
G02*
X74409Y206693I-1673J-3564D01*
G01*
G75*
G02*
X82174Y207614I3937J0D01*
G01*
G75*
G02*
X90370Y206693I4046J-921D01*
G01*
G75*
G02*
Y206692I-4834J0D01*
G01*
G75*
G02*
X89632Y204331I-4147J0D01*
G01*
X130709D01*
G75*
G02*
X132939Y203406I0J-3151D01*
G01*
X136870Y199474D01*
G75*
G02*
X137795Y197244I-2226J-2230D01*
G01*
Y163189D01*
X139089D01*
Y252362D01*
X125984D01*
G75*
G02*
X111024I-7480J0D01*
G01*
X82496D01*
Y246496D01*
X78220D01*
X78300Y246416D01*
G75*
G02*
X78937Y244883I-1526J-1533D01*
G01*
G75*
G02*
Y244882I-2115J0D01*
G01*
Y242952D01*
G75*
G02*
X79724Y240945I-2165J-2007D01*
G01*
G75*
G02*
X73819I-2953J0D01*
G01*
G75*
G02*
X74606Y242952I2953J0D01*
G01*
Y243985D01*
X74456Y244135D01*
G75*
G02*
X73819Y245668I1526J1533D01*
G01*
G75*
G02*
Y245669I2115J1D01*
G01*
Y246709D01*
X73720D01*
Y240161D01*
Y240158D01*
Y240157D01*
G75*
G02*
X73230Y238974I-1676J1D01*
G01*
X72146Y237890D01*
G37*
X7368Y266197D02*
G36*
X7368Y266197D02*
Y252362D01*
X20472D01*
G75*
G02*
X35433I7480J0D01*
G01*
X65748D01*
Y255173D01*
X77346D01*
Y255386D01*
X82496D01*
Y252362D01*
X111024D01*
G75*
G02*
X125984I7480J0D01*
G01*
X139089D01*
Y266197D01*
X88583D01*
Y261472D01*
X81496D01*
Y266197D01*
X66535D01*
Y261472D01*
X59449D01*
Y266197D01*
X7368D01*
G37*
Y269378D02*
G36*
X7368Y269378D02*
Y266197D01*
X59449D01*
Y270921D01*
X66535D01*
Y266197D01*
X81496D01*
Y270921D01*
X88583D01*
Y266197D01*
X139089D01*
Y269378D01*
X135519Y272947D01*
X10937D01*
X7368Y269378D01*
G37*
X83071Y177996D02*
Y173819D01*
X87008Y169882D01*
Y159449D01*
X94094Y177996D02*
Y173031D01*
X90945Y169882D01*
Y159449D01*
D02*
D19*
X39343Y91732D02*
X37343D01*
X40795Y123189D02*
X38795D01*
X40988Y90264D02*
Y88264D01*
Y93201D02*
Y95201D01*
X43543Y120441D02*
Y118441D01*
Y125937D02*
Y127937D01*
X46291Y123189D02*
X48291D01*
X66152Y142618D02*
X64152D01*
X66889Y164090D02*
X65035Y162236D01*
X66889Y167320D02*
X65035Y169173D01*
X67323Y77846D02*
Y79846D01*
X68457Y142232D02*
Y140232D01*
X68594Y77559D02*
X70594D01*
X70119Y164090D02*
X71972Y162236D01*
X70119Y167320D02*
X71972Y169173D01*
X70762Y142618D02*
X72762D01*
X79094Y164090D02*
X77240Y162236D01*
X79094Y167320D02*
X77240Y169173D01*
X79921Y248390D02*
Y246390D01*
Y253492D02*
Y255492D01*
X80602Y250941D02*
X82602D01*
X82324Y164090D02*
X84177Y162236D01*
X82324Y167320D02*
X84177Y169173D01*
X83444Y57854D02*
X82030Y56439D01*
X83444Y61044D02*
X82030Y62458D01*
X86220Y208949D02*
Y210949D01*
X86635Y57854D02*
X88049Y56439D01*
X86635Y61044D02*
X88049Y62458D01*
X88476Y206693D02*
X90476D01*
X99220Y123189D02*
X97220D01*
X101772Y120638D02*
Y118638D01*
Y125740D02*
Y127740D01*
X104323Y123189D02*
X106323D01*
D02*
D70*
X21654Y90551D03*
X24803Y64567D03*
Y82677D03*
X34252Y93701D03*
X37795Y59055D03*
X68504Y137008D03*
X72835Y79134D03*
X74606Y158661D03*
X76772Y240945D03*
X77165Y108661D03*
Y126378D03*
X81102Y170866D03*
X82283Y242913D03*
X88583Y185039D03*
X88976Y173425D03*
X96850Y59449D03*
X112598Y123228D03*
D02*
D71*
X75984Y250941D02*
Y245669D01*
X76772Y244882D01*
Y240945D01*
D02*
D20*
X101772Y113189D03*
Y123189D03*
Y133189D03*
Y143189D03*
Y153189D03*
Y163189D03*
D02*
D21*
X53543Y113189D03*
D02*
D22*
X43543D03*
Y123189D03*
Y133189D03*
Y143189D03*
Y153189D03*
Y163189D03*
X53543Y123189D03*
Y133189D03*
Y143189D03*
Y153189D03*
Y163189D03*
D02*
D75*
X19291Y84602D02*
X22878D01*
X24803Y82677D01*
Y64567D02*
X19335D01*
X19291Y64610D01*
X31299Y76083D02*
X25689D01*
X24409Y74803D01*
Y72835D01*
X23228Y71654D01*
X19335D01*
X19291Y71610D01*
X31299Y78642D02*
X34547D01*
X35433Y79528D01*
Y85433D01*
X33858Y87008D01*
X28346D01*
X27165Y88189D01*
Y155906D01*
X29528Y158268D01*
X48465D01*
X53543Y153189D01*
X31299Y78642D02*
X25098D01*
X24016Y77559D01*
X19335D01*
X19291Y77602D01*
X31299Y81201D02*
X26280D01*
X24803Y82677D01*
X31299Y83760D02*
X28445D01*
X21654Y90551D01*
X40988Y91732D02*
X36220D01*
X34252Y93701D01*
X43543Y143189D02*
Y143346D01*
X48031Y147835D01*
X68358D01*
X68457Y147736D01*
X46654Y76083D02*
X56201D01*
X56693Y75591D01*
X61024D01*
X46654Y78642D02*
X43602D01*
X42520Y77559D01*
Y73228D01*
X43701Y72047D01*
X56299D01*
X61417Y66929D01*
Y59449D01*
X46654Y78642D02*
X56201D01*
X57087Y79528D01*
X61024D01*
X46654Y83760D02*
X53543D01*
Y81102D01*
X46752D01*
X46654Y81201D01*
X53543Y143189D02*
Y142913D01*
X48819Y138189D01*
X31890D01*
X30315Y136614D01*
Y90551D01*
X31496Y89370D01*
X35039D01*
X37795Y86614D01*
Y78740D01*
X35039Y75984D01*
X31398D01*
X31299Y76083D01*
X53980Y91732D02*
Y85476D01*
X53543Y85039D01*
Y83760D01*
X53980Y91732D02*
X47988D01*
X60980D02*
X81846D01*
X81890Y91689D01*
X61024Y75591D02*
Y70866D01*
X62205Y69685D01*
X68110D01*
X69291Y68504D01*
Y59449D01*
X61024Y75591D02*
X64173D01*
X64961Y74803D01*
X79528D01*
X81890Y77165D01*
Y84689D01*
X61024Y79528D02*
X63780D01*
X64961Y80709D01*
Y83465D01*
X66142Y84646D01*
X74846D01*
X74890Y84689D01*
X75197D01*
X67323Y77559D02*
X71260D01*
X72835Y79134D01*
X68457Y142618D02*
Y137055D01*
X68504Y137008D01*
X68457Y145177D02*
X68358Y145079D01*
X62795D01*
X61417Y143701D01*
Y129921D01*
X59843Y128346D01*
X48386D01*
X43543Y133189D01*
X68457Y150295D02*
Y158657D01*
X68504Y158705D01*
X80709D01*
X68504Y165705D02*
X80709D01*
X72047Y250941D02*
Y240157D01*
X70472Y238583D01*
Y206693D01*
X80709Y158705D02*
Y151378D01*
X81890Y150197D01*
X85776D01*
X85874Y150295D01*
X81890Y91689D02*
X89020D01*
X90157Y90551D01*
Y71654D01*
X83071Y177996D02*
X83028Y177953D01*
X66142D01*
X62598Y181496D01*
Y234646D01*
X68110Y240157D01*
Y250941D01*
X83071Y184996D02*
X94094D01*
X87008Y159449D02*
Y155315D01*
X87795Y154528D01*
X90551D01*
X91535Y153543D01*
Y147638D01*
X88976Y165748D02*
Y173425D01*
X90945Y159449D02*
Y156693D01*
X93504Y154134D01*
Y150591D01*
X94291Y149803D01*
X97441D01*
X98819Y148425D01*
X105118D01*
X106890Y146654D01*
Y134252D01*
X105709Y133071D01*
X101890D01*
X101772Y133189D01*
X91535Y147638D02*
X85972D01*
X85874Y147736D01*
X94094Y177996D02*
X91098D01*
X87598Y181496D01*
X73622D01*
X70472Y184646D01*
Y206693D01*
X101772Y133189D02*
X95551D01*
X94882Y133858D01*
Y144488D01*
X94094Y145276D01*
X86169D01*
X86071Y145177D01*
X85874D01*
X101772Y143189D02*
X97362D01*
X96850Y143701D01*
Y147244D01*
X96457Y147638D01*
X91535D01*
D02*
D76*
X53543Y163189D02*
Y170669D01*
X50197Y174016D01*
X14961D01*
X11417Y170472D01*
Y54134D01*
X19685Y45866D01*
X123622D01*
X128150Y50394D01*
Y59370D01*
X128228Y59449D01*
X128268D01*
X77165D02*
Y67717D01*
X81102Y71654D01*
X90157D01*
X78346Y206693D02*
Y203937D01*
X81102Y201181D01*
X130709D01*
X134646Y197244D01*
Y74803D01*
X131496Y71654D01*
X117717D01*
X85039Y59449D02*
X96850D01*
X90157Y71654D02*
X117717D01*
X118268D01*
Y59449D01*
D02*
D77*
X40988Y91732D03*
X47988D03*
X53980D03*
X60980D03*
D02*
D80*
X19291Y64610D03*
Y71610D03*
Y77602D03*
Y84602D03*
X68504Y158705D03*
Y165705D03*
X75197Y84689D03*
Y91689D03*
X80709Y158705D03*
Y165705D03*
X81890Y84689D03*
Y91689D03*
X83071Y177996D03*
Y184996D03*
X94094Y177996D03*
Y184996D03*
D02*
D108*
X79921Y250941D02*
Y245276D01*
X82283Y242913D01*
D02*
D109*
X68457Y142618D03*
Y145177D03*
Y147736D03*
Y150295D03*
X85874Y142618D03*
Y145177D03*
Y147736D03*
Y150295D03*
D02*
D110*
X61417Y59449D03*
X62598Y206693D03*
X69291Y59449D03*
X70472Y206693D03*
X77165Y59449D03*
X78346Y206693D03*
X85039Y59449D03*
X86220Y206693D03*
D02*
D111*
X61024Y75591D03*
Y79528D03*
X67323Y77559D03*
D02*
D112*
X68110Y250941D03*
X72047D03*
X75984D03*
X79921D03*
D02*
D113*
X62992Y266197D03*
X85039D03*
D02*
D114*
X108268Y59449D03*
X118268D03*
X128268D03*
D02*
D115*
X87008Y159449D03*
X88976Y165748D03*
X90945Y159449D03*
D02*
D116*
X31299Y76083D03*
Y78642D03*
Y81201D03*
Y83760D03*
X46654Y76083D03*
Y78642D03*
Y81201D03*
Y83760D03*
X0Y0D02*
M02*
