G04 DesignSpark PCB PRO Gerber Version 10.0 Build 5299*
G04 #@! TF.Part,Single*
G04 #@! TF.FileFunction,Drillmap*
G04 #@! TF.FilePolarity,Positive*
%FSLAX35Y35*%
%MOIN*%
%ADD29C,0.00500*%
G04 #@! TA.AperFunction,ViaPad*
%ADD28C,0.10000*%
G04 #@! TD.AperFunction*
X0Y0D02*
D02*
D28*
X21654Y90551D03*
X24803Y64567D03*
Y82677D03*
X27953Y24016D03*
Y252362D03*
X34252Y93701D03*
X37795Y59055D03*
X43543Y113189D03*
Y123189D03*
Y133189D03*
Y143189D03*
Y153189D03*
Y163189D03*
X53543Y113189D03*
Y123189D03*
Y133189D03*
Y143189D03*
Y153189D03*
Y163189D03*
X61417Y59449D03*
X62598Y206693D03*
X68504Y137008D03*
X69291Y59449D03*
X70472Y206693D03*
X72835Y79134D03*
X74606Y158661D03*
X76772Y240945D03*
X77165Y59449D03*
Y108661D03*
Y126378D03*
X78346Y206693D03*
X81102Y170866D03*
X82283Y242913D03*
X85039Y59449D03*
X86220Y206693D03*
X88583Y185039D03*
X88976Y173425D03*
X96850Y59449D03*
X101772Y113189D03*
Y123189D03*
Y133189D03*
Y143189D03*
Y153189D03*
Y163189D03*
X108268Y59449D03*
X112598Y123228D03*
X118268Y59449D03*
X118504Y24016D03*
Y252362D03*
X128268Y59449D03*
D02*
D29*
X31654Y96489D02*
Y100239D01*
X34779D01*
X34154Y98364D02*
X31654D01*
X34803Y70504D02*
Y74254D01*
X37928D01*
X37303Y72380D02*
X34803D01*
Y88615D02*
Y92365D01*
X37928D01*
X37303Y90490D02*
X34803D01*
X40140Y31828D02*
X40765Y31516D01*
X41078Y30891D01*
X40765Y30266D01*
X40140Y29953D01*
X37953D01*
Y33703D01*
X40140D01*
X40765Y33391D01*
X41078Y32766D01*
X40765Y32141D01*
X40140Y31828D01*
X37953D01*
X40140Y260175D02*
X40765Y259862D01*
X41078Y259237D01*
X40765Y258612D01*
X40140Y258300D01*
X37953D01*
Y262050D01*
X40140D01*
X40765Y261737D01*
X41078Y261112D01*
X40765Y260487D01*
X40140Y260175D01*
X37953D01*
X44252Y99638D02*
Y103388D01*
X47377D01*
X46752Y101513D02*
X44252D01*
X47795Y64993D02*
Y68743D01*
X50920D01*
X50295Y66868D02*
X47795D01*
X56669Y119752D02*
X56356Y119439D01*
X55731Y119126D01*
X54793D01*
X54169Y119439D01*
X53856Y119752D01*
X53543Y120376D01*
Y121626D01*
X53856Y122252D01*
X54169Y122564D01*
X54793Y122876D01*
X55731D01*
X56356Y122564D01*
X56669Y122252D01*
Y129752D02*
X56356Y129439D01*
X55731Y129126D01*
X54793D01*
X54169Y129439D01*
X53856Y129752D01*
X53543Y130376D01*
Y131626D01*
X53856Y132252D01*
X54169Y132564D01*
X54793Y132876D01*
X55731D01*
X56356Y132564D01*
X56669Y132252D01*
Y139752D02*
X56356Y139439D01*
X55731Y139126D01*
X54793D01*
X54169Y139439D01*
X53856Y139752D01*
X53543Y140376D01*
Y141626D01*
X53856Y142252D01*
X54169Y142564D01*
X54793Y142876D01*
X55731D01*
X56356Y142564D01*
X56669Y142252D01*
Y149752D02*
X56356Y149439D01*
X55731Y149126D01*
X54793D01*
X54169Y149439D01*
X53856Y149752D01*
X53543Y150376D01*
Y151626D01*
X53856Y152252D01*
X54169Y152564D01*
X54793Y152876D01*
X55731D01*
X56356Y152564D01*
X56669Y152252D01*
Y159752D02*
X56356Y159439D01*
X55731Y159126D01*
X54793D01*
X54169Y159439D01*
X53856Y159752D01*
X53543Y160376D01*
Y161626D01*
X53856Y162252D01*
X54169Y162564D01*
X54793Y162876D01*
X55731D01*
X56356Y162564D01*
X56669Y162252D01*
Y169752D02*
X56356Y169439D01*
X55731Y169126D01*
X54793D01*
X54169Y169439D01*
X53856Y169752D01*
X53543Y170376D01*
Y171626D01*
X53856Y172252D01*
X54169Y172564D01*
X54793Y172876D01*
X55731D01*
X56356Y172564D01*
X56669Y172252D01*
X66669Y119752D02*
X66356Y119439D01*
X65731Y119126D01*
X64793D01*
X64169Y119439D01*
X63856Y119752D01*
X63543Y120376D01*
Y121626D01*
X63856Y122252D01*
X64169Y122564D01*
X64793Y122876D01*
X65731D01*
X66356Y122564D01*
X66669Y122252D01*
Y129752D02*
X66356Y129439D01*
X65731Y129126D01*
X64793D01*
X64169Y129439D01*
X63856Y129752D01*
X63543Y130376D01*
Y131626D01*
X63856Y132252D01*
X64169Y132564D01*
X64793Y132876D01*
X65731D01*
X66356Y132564D01*
X66669Y132252D01*
Y139752D02*
X66356Y139439D01*
X65731Y139126D01*
X64793D01*
X64169Y139439D01*
X63856Y139752D01*
X63543Y140376D01*
Y141626D01*
X63856Y142252D01*
X64169Y142564D01*
X64793Y142876D01*
X65731D01*
X66356Y142564D01*
X66669Y142252D01*
Y149752D02*
X66356Y149439D01*
X65731Y149126D01*
X64793D01*
X64169Y149439D01*
X63856Y149752D01*
X63543Y150376D01*
Y151626D01*
X63856Y152252D01*
X64169Y152564D01*
X64793Y152876D01*
X65731D01*
X66356Y152564D01*
X66669Y152252D01*
Y159752D02*
X66356Y159439D01*
X65731Y159126D01*
X64793D01*
X64169Y159439D01*
X63856Y159752D01*
X63543Y160376D01*
Y161626D01*
X63856Y162252D01*
X64169Y162564D01*
X64793Y162876D01*
X65731D01*
X66356Y162564D01*
X66669Y162252D01*
Y169752D02*
X66356Y169439D01*
X65731Y169126D01*
X64793D01*
X64169Y169439D01*
X63856Y169752D01*
X63543Y170376D01*
Y171626D01*
X63856Y172252D01*
X64169Y172564D01*
X64793Y172876D01*
X65731D01*
X66356Y172564D01*
X66669Y172252D01*
X71417Y69136D02*
X72980Y65386D01*
X74543Y69136D01*
X72598Y216380D02*
X74161Y212630D01*
X75724Y216380D01*
X78504Y142945D02*
Y146695D01*
X81629D01*
X81004Y144820D02*
X78504D01*
X79291Y69136D02*
X80854Y65386D01*
X82417Y69136D01*
X80472Y216380D02*
X82035Y212630D01*
X83598Y216380D01*
X82835Y85071D02*
Y88821D01*
X85960D01*
X85335Y86946D02*
X82835D01*
X84606Y164599D02*
Y168349D01*
X87731D01*
X87106Y166474D02*
X84606D01*
X86772Y246882D02*
Y250632D01*
X89897D01*
X89272Y248757D02*
X86772D01*
X87165Y69136D02*
X88728Y65386D01*
X90291Y69136D01*
X87165Y114599D02*
Y118349D01*
X90291D01*
X89665Y116474D02*
X87165D01*
Y132315D02*
Y136065D01*
X90291D01*
X89665Y134191D02*
X87165D01*
X88346Y216380D02*
X89909Y212630D01*
X91472Y216380D01*
X91102Y176804D02*
Y180554D01*
X94228D01*
X93602Y178679D02*
X91102D01*
X92283Y248851D02*
Y252601D01*
X95409D01*
X94783Y250726D02*
X92283D01*
X95039Y69136D02*
X96602Y65386D01*
X98165Y69136D01*
X96220Y216380D02*
X97783Y212630D01*
X99346Y216380D01*
X98583Y190977D02*
Y194727D01*
X101708D01*
X101083Y192852D02*
X98583D01*
X98976Y179363D02*
Y183113D01*
X102102D01*
X101476Y181238D02*
X98976D01*
X106850Y65386D02*
Y69136D01*
X109976D01*
X109350Y67261D02*
X106850D01*
X111772Y119126D02*
Y122876D01*
Y121002D02*
X114897D01*
Y119126D02*
Y122876D01*
X111772Y129126D02*
Y132876D01*
Y131002D02*
X114897D01*
Y129126D02*
Y132876D01*
X111772Y139126D02*
Y142876D01*
Y141002D02*
X114897D01*
Y139126D02*
Y142876D01*
X111772Y149126D02*
Y152876D01*
Y151002D02*
X114897D01*
Y149126D02*
Y152876D01*
X111772Y159126D02*
Y162876D01*
Y161002D02*
X114897D01*
Y159126D02*
Y162876D01*
X111772Y169126D02*
Y172876D01*
Y171002D02*
X114897D01*
Y169126D02*
Y172876D01*
X118268Y65386D02*
Y69136D01*
X120455D01*
X121080Y68824D01*
X121393Y68199D01*
X121080Y67574D01*
X120455Y67261D01*
X118268D01*
X120455D02*
X121393Y65386D01*
X122598Y129166D02*
Y132916D01*
X125724D01*
X125098Y131041D02*
X122598D01*
X128268Y65386D02*
Y69136D01*
X130455D01*
X131080Y68824D01*
X131393Y68199D01*
X131080Y67574D01*
X130455Y67261D01*
X128268D01*
X130455D02*
X131393Y65386D01*
X130691Y31828D02*
X131317Y31516D01*
X131629Y30891D01*
X131317Y30266D01*
X130691Y29953D01*
X128504D01*
Y33703D01*
X130691D01*
X131317Y33391D01*
X131629Y32766D01*
X131317Y32141D01*
X130691Y31828D01*
X128504D01*
X130691Y260175D02*
X131317Y259862D01*
X131629Y259237D01*
X131317Y258612D01*
X130691Y258300D01*
X128504D01*
Y262050D01*
X130691D01*
X131317Y261737D01*
X131629Y261112D01*
X131317Y260487D01*
X130691Y260175D01*
X128504D01*
X138268Y65386D02*
Y69136D01*
X140455D01*
X141080Y68824D01*
X141393Y68199D01*
X141080Y67574D01*
X140455Y67261D01*
X138268D01*
X140455D02*
X141393Y65386D01*
X0Y0D02*
M02*
