G05
M48
;#@! TF.GenerationSoftware,DesignSpark,DesignSpark PCB PRO,10.0.5344
;#@! TF.CreationDate,2022-02-14T16:14:13+00:00*
;#@! TF.FileFunction,Plated,1,2,PTH
;FILE_FORMAT=3:5
;TYPE=PLATED
INCH,TZ
FMAT,2
T1C000.01969
T2C000.03150
T3C000.03500
T4C000.04094
T5C000.04331
%
T001
X0.21654Y0.90551
X0.24803Y0.64567
X0.24803Y0.82677
X0.34252Y0.93701
X0.37795Y0.59055
X0.68504Y1.37008
X0.72835Y0.79134
X0.74606Y1.58661
X0.76772Y2.40945
X0.77165Y1.08661
X0.77165Y1.26378
X0.81102Y1.70866
X0.82283Y2.42913
X0.88583Y1.85039
X0.88976Y1.73425
X0.96850Y0.59449
X1.12598Y1.23228
T002
X0.61417Y0.59449
X0.62598Y2.06693
X0.69291Y0.59449
X0.70472Y2.06693
X0.77165Y0.59449
X0.78346Y2.06693
X0.85039Y0.59449
X0.86220Y2.06693
T003
X1.08268Y0.59449
X1.18268Y0.59449
X1.28268Y0.59449
T004
X1.01772Y1.13189
X1.01772Y1.23189
X1.01772Y1.33189
X1.01772Y1.43189
X1.01772Y1.53189
X1.01772Y1.63189
T005
X0.43543Y1.13189
X0.43543Y1.23189
X0.43543Y1.33189
X0.43543Y1.43189
X0.43543Y1.53189
X0.43543Y1.63189
X0.53543Y1.13189
X0.53543Y1.23189
X0.53543Y1.33189
X0.53543Y1.43189
X0.53543Y1.53189
X0.53543Y1.63189
M30
