G04 DesignSpark PCB PRO Gerber Version 10.0 Build 5299*
G04 #@! TF.Part,Single*
G04 #@! TF.FileFunction,Drillmap*
G04 #@! TF.FilePolarity,Positive*
%FSLAX36Y36*%
%MOIN*%
%ADD26C,0.00500*%
G04 #@! TA.AperFunction,ViaPad*
%ADD25C,0.10000*%
G04 #@! TD.AperFunction*
X0Y0D02*
D02*
D25*
X216535Y905512D03*
X248031Y645669D03*
Y826772D03*
X279528Y240157D03*
Y2523622D03*
X342520Y937008D03*
X377953Y590551D03*
X435433Y1131890D03*
Y1231890D03*
Y1331890D03*
Y1431890D03*
Y1531890D03*
Y1631890D03*
X535433Y1131890D03*
Y1231890D03*
Y1331890D03*
Y1431890D03*
Y1531890D03*
Y1631890D03*
X614173Y594488D03*
X625984Y2066929D03*
X685039Y1370079D03*
X692913Y594488D03*
X704724Y2066929D03*
X728346Y791339D03*
X746063Y1586614D03*
X767717Y2409449D03*
X771654Y594488D03*
Y1086614D03*
Y1263780D03*
X783465Y2066929D03*
X811024Y1708661D03*
X822835Y2429134D03*
X850394Y594488D03*
X862205Y2066929D03*
X885827Y1850394D03*
X889764Y1734252D03*
X968504Y594488D03*
X1017717Y1131890D03*
Y1231890D03*
Y1331890D03*
Y1431890D03*
Y1531890D03*
Y1631890D03*
X1082677Y594488D03*
X1125984Y1232283D03*
X1182677Y594488D03*
X1185039Y240157D03*
Y2523622D03*
X1282677Y594488D03*
D02*
D26*
X316535Y964886D02*
X332161Y1002386D01*
X347787Y964886D01*
X322787Y980512D02*
X341535D01*
X348031Y705043D02*
X363657Y742543D01*
X379283Y705043D01*
X354283Y720669D02*
X373031D01*
X348031Y886146D02*
X363657Y923646D01*
X379283Y886146D01*
X354283Y901772D02*
X373031D01*
X379528Y299531D02*
Y337031D01*
X410780D01*
X404528Y318283D02*
X379528D01*
Y2582996D02*
Y2620496D01*
X410780D01*
X404528Y2601748D02*
X379528D01*
X442520Y996382D02*
X458146Y1033882D01*
X473772Y996382D01*
X448772Y1012008D02*
X467520D01*
X477953Y649925D02*
X493579Y687425D01*
X509205Y649925D01*
X484205Y665551D02*
X502953D01*
X535433Y1191264D02*
Y1228764D01*
Y1210016D02*
X566685D01*
Y1191264D02*
Y1228764D01*
X535433Y1291264D02*
Y1328764D01*
Y1310016D02*
X566685D01*
Y1291264D02*
Y1328764D01*
X535433Y1391264D02*
Y1428764D01*
Y1410016D02*
X566685D01*
Y1391264D02*
Y1428764D01*
X535433Y1491264D02*
Y1528764D01*
Y1510016D02*
X566685D01*
Y1491264D02*
Y1528764D01*
X535433Y1591264D02*
Y1628764D01*
Y1610016D02*
X566685D01*
Y1591264D02*
Y1628764D01*
X535433Y1691264D02*
Y1728764D01*
Y1710016D02*
X566685D01*
Y1691264D02*
Y1728764D01*
X635433Y1191264D02*
Y1228764D01*
Y1210016D02*
X666685D01*
Y1191264D02*
Y1228764D01*
X635433Y1291264D02*
Y1328764D01*
Y1310016D02*
X666685D01*
Y1291264D02*
Y1328764D01*
X635433Y1391264D02*
Y1428764D01*
Y1410016D02*
X666685D01*
Y1391264D02*
Y1428764D01*
X635433Y1491264D02*
Y1528764D01*
Y1510016D02*
X666685D01*
Y1491264D02*
Y1528764D01*
X635433Y1591264D02*
Y1628764D01*
Y1610016D02*
X666685D01*
Y1591264D02*
Y1628764D01*
X635433Y1691264D02*
Y1728764D01*
Y1710016D02*
X666685D01*
Y1691264D02*
Y1728764D01*
X714173Y660114D02*
X717299Y656988D01*
X723547Y653862D01*
X729799Y656988D01*
X732925Y660114D01*
Y691362D01*
X739173D01*
X732925D02*
X720425D01*
X725984Y2132555D02*
X729110Y2129429D01*
X735358Y2126303D01*
X741610Y2129429D01*
X744736Y2132555D01*
Y2163803D01*
X750984D01*
X744736D02*
X732236D01*
X785039Y1429453D02*
X800665Y1466953D01*
X816291Y1429453D01*
X791291Y1445079D02*
X810039D01*
X792913Y660114D02*
X796039Y656988D01*
X802287Y653862D01*
X808539Y656988D01*
X811665Y660114D01*
Y691362D01*
X817913D01*
X811665D02*
X799165D01*
X804724Y2132555D02*
X807850Y2129429D01*
X814098Y2126303D01*
X820350Y2129429D01*
X823476Y2132555D01*
Y2163803D01*
X829724D01*
X823476D02*
X810976D01*
X828346Y850713D02*
X843972Y888213D01*
X859598Y850713D01*
X834598Y866339D02*
X853346D01*
X846063Y1645988D02*
X861689Y1683488D01*
X877315Y1645988D01*
X852315Y1661614D02*
X871063D01*
X867717Y2468823D02*
X883343Y2506323D01*
X898969Y2468823D01*
X873969Y2484449D02*
X892717D01*
X871654Y660114D02*
X874780Y656988D01*
X881028Y653862D01*
X887280Y656988D01*
X890406Y660114D01*
Y691362D01*
X896654D01*
X890406D02*
X877906D01*
X871654Y1145988D02*
X887280Y1183488D01*
X902906Y1145988D01*
X877906Y1161614D02*
X896654D01*
X871654Y1323154D02*
X887280Y1360654D01*
X902906Y1323154D01*
X877906Y1338780D02*
X896654D01*
X883465Y2132555D02*
X886591Y2129429D01*
X892839Y2126303D01*
X899091Y2129429D01*
X902217Y2132555D01*
Y2163803D01*
X908465D01*
X902217D02*
X889717D01*
X911024Y1768035D02*
X926650Y1805535D01*
X942276Y1768035D01*
X917276Y1783661D02*
X936024D01*
X922835Y2488508D02*
X938461Y2526008D01*
X954087Y2488508D01*
X929087Y2504134D02*
X947835D01*
X950394Y660114D02*
X953520Y656988D01*
X959768Y653862D01*
X966020Y656988D01*
X969146Y660114D01*
Y691362D01*
X975394D01*
X969146D02*
X956646D01*
X962205Y2132555D02*
X965331Y2129429D01*
X971579Y2126303D01*
X977831Y2129429D01*
X980957Y2132555D01*
Y2163803D01*
X987205D01*
X980957D02*
X968457D01*
X985827Y1909768D02*
X1001453Y1947268D01*
X1017079Y1909768D01*
X992079Y1925394D02*
X1010827D01*
X989764Y1793626D02*
X1005390Y1831126D01*
X1021016Y1793626D01*
X996016Y1809252D02*
X1014764D01*
X1068504Y653862D02*
X1084130Y691362D01*
X1099756Y653862D01*
X1074756Y669488D02*
X1093504D01*
X1139591Y1206890D02*
X1148969D01*
Y1203764D01*
X1145843Y1197516D01*
X1142717Y1194390D01*
X1136469Y1191264D01*
X1130217D01*
X1123969Y1194390D01*
X1120843Y1197516D01*
X1117717Y1203764D01*
Y1216264D01*
X1120843Y1222516D01*
X1123969Y1225642D01*
X1130217Y1228764D01*
X1136469D01*
X1142717Y1225642D01*
X1145843Y1222516D01*
X1148969Y1216264D01*
X1139591Y1306890D02*
X1148969D01*
Y1303764D01*
X1145843Y1297516D01*
X1142717Y1294390D01*
X1136469Y1291264D01*
X1130217D01*
X1123969Y1294390D01*
X1120843Y1297516D01*
X1117717Y1303764D01*
Y1316264D01*
X1120843Y1322516D01*
X1123969Y1325642D01*
X1130217Y1328764D01*
X1136469D01*
X1142717Y1325642D01*
X1145843Y1322516D01*
X1148969Y1316264D01*
X1139591Y1406890D02*
X1148969D01*
Y1403764D01*
X1145843Y1397516D01*
X1142717Y1394390D01*
X1136469Y1391264D01*
X1130217D01*
X1123969Y1394390D01*
X1120843Y1397516D01*
X1117717Y1403764D01*
Y1416264D01*
X1120843Y1422516D01*
X1123969Y1425642D01*
X1130217Y1428764D01*
X1136469D01*
X1142717Y1425642D01*
X1145843Y1422516D01*
X1148969Y1416264D01*
X1139591Y1506890D02*
X1148969D01*
Y1503764D01*
X1145843Y1497516D01*
X1142717Y1494390D01*
X1136469Y1491264D01*
X1130217D01*
X1123969Y1494390D01*
X1120843Y1497516D01*
X1117717Y1503764D01*
Y1516264D01*
X1120843Y1522516D01*
X1123969Y1525642D01*
X1130217Y1528764D01*
X1136469D01*
X1142717Y1525642D01*
X1145843Y1522516D01*
X1148969Y1516264D01*
X1139591Y1606890D02*
X1148969D01*
Y1603764D01*
X1145843Y1597516D01*
X1142717Y1594390D01*
X1136469Y1591264D01*
X1130217D01*
X1123969Y1594390D01*
X1120843Y1597516D01*
X1117717Y1603764D01*
Y1616264D01*
X1120843Y1622516D01*
X1123969Y1625642D01*
X1130217Y1628764D01*
X1136469D01*
X1142717Y1625642D01*
X1145843Y1622516D01*
X1148969Y1616264D01*
X1139591Y1706890D02*
X1148969D01*
Y1703764D01*
X1145843Y1697516D01*
X1142717Y1694390D01*
X1136469Y1691264D01*
X1130217D01*
X1123969Y1694390D01*
X1120843Y1697516D01*
X1117717Y1703764D01*
Y1716264D01*
X1120843Y1722516D01*
X1123969Y1725642D01*
X1130217Y1728764D01*
X1136469D01*
X1142717Y1725642D01*
X1145843Y1722516D01*
X1148969Y1716264D01*
X1182677Y691362D02*
Y653862D01*
X1213929D01*
X1225984Y1291657D02*
X1241610Y1329157D01*
X1257236Y1291657D01*
X1232236Y1307283D02*
X1250984D01*
X1282677Y691362D02*
Y653862D01*
X1313929D01*
X1285039Y299531D02*
Y337031D01*
X1316291D01*
X1310039Y318283D02*
X1285039D01*
Y2582996D02*
Y2620496D01*
X1316291D01*
X1310039Y2601748D02*
X1285039D01*
X1382677Y691362D02*
Y653862D01*
X1413929D01*
X0Y0D02*
M02*
