G04 DesignSpark PCB PRO Gerber Version 10.0 Build 5299*
G04 #@! TF.Part,Single*
G04 #@! TF.FileFunction,Soldermask,Bot*
G04 #@! TF.FilePolarity,Negative*
%FSLAX36Y36*%
%MOIN*%
G04 #@! TA.AperFunction,ComponentPad*
%ADD24R,0.06600X0.06600*%
%ADD20R,0.07096X0.07096*%
G04 #@! TA.AperFunction,ViaPad*
%ADD70C,0.04143*%
G04 #@! TA.AperFunction,ComponentPad*
%ADD23C,0.06112*%
%ADD22C,0.06702*%
%ADD21C,0.07096*%
G04 #@! TA.AperFunction,WasherPad*
%ADD71C,0.13198*%
G04 #@! TD.AperFunction*
X0Y0D02*
D02*
D70*
X216535Y905512D03*
X248031Y645669D03*
Y826772D03*
X342520Y937008D03*
X377953Y590551D03*
X685039Y1370079D03*
X728346Y791339D03*
X746063Y1586614D03*
X767717Y2409449D03*
X771654Y1086614D03*
Y1263780D03*
X811024Y1708661D03*
X822835Y2429134D03*
X885827Y1850394D03*
X889764Y1734252D03*
X968504Y594488D03*
X1125984Y1232283D03*
D02*
D71*
X279528Y240157D03*
Y2523622D03*
X1185039Y240157D03*
Y2523622D03*
D02*
D20*
X535433Y1131890D03*
D02*
D21*
X435433D03*
Y1231890D03*
Y1331890D03*
Y1431890D03*
Y1531890D03*
Y1631890D03*
X535433Y1231890D03*
Y1331890D03*
Y1431890D03*
Y1531890D03*
Y1631890D03*
D02*
D22*
X1017717Y1131890D03*
Y1231890D03*
Y1331890D03*
Y1431890D03*
Y1531890D03*
Y1631890D03*
D02*
D23*
X614173Y594488D03*
X625984Y2066929D03*
X692913Y594488D03*
X704724Y2066929D03*
X771654Y594488D03*
X783465Y2066929D03*
X850394Y594488D03*
X862205Y2066929D03*
D02*
D24*
X1082677Y594488D03*
X1182677D03*
X1282677D03*
X0Y0D02*
M02*
