G04 DesignSpark PCB PRO Gerber Version 10.0 Build 5299*
G04 #@! TF.Part,Single*
G04 #@! TF.FileFunction,Paste,Top*
G04 #@! TF.FilePolarity,Positive*
%FSLAX35Y35*%
%MOIN*%
G04 #@! TA.AperFunction,SMDPad,CuDef*
%ADD130R,0.01417X0.03386*%
%ADD128R,0.02126X0.05866*%
%ADD15R,0.03543X0.03898*%
%ADD129R,0.04252X0.06614*%
%ADD127R,0.03386X0.01417*%
%ADD131R,0.04154X0.01594*%
%ADD126R,0.05433X0.01594*%
%ADD10R,0.03898X0.03543*%
G04 #@! TD.AperFunction*
X0Y0D02*
D02*
D10*
X40988Y91732D03*
X47988D03*
X53980D03*
X60980D03*
D02*
D15*
X19291Y64610D03*
Y71610D03*
Y77602D03*
Y84602D03*
X68504Y158705D03*
Y165705D03*
X75197Y84689D03*
Y91689D03*
X80709Y158705D03*
Y165705D03*
X81890Y84689D03*
Y91689D03*
X83071Y177996D03*
Y184996D03*
X94094Y177996D03*
Y184996D03*
D02*
D126*
X68457Y142618D03*
Y145177D03*
Y147736D03*
Y150295D03*
X85874Y142618D03*
Y145177D03*
Y147736D03*
Y150295D03*
D02*
D127*
X61024Y75591D03*
Y79528D03*
X67323Y77559D03*
D02*
D128*
X68110Y250941D03*
X72047D03*
X75984D03*
X79921D03*
D02*
D129*
X62992Y266197D03*
X85039D03*
D02*
D130*
X87008Y159449D03*
X88976Y165748D03*
X90945Y159449D03*
D02*
D131*
X31299Y76083D03*
Y78642D03*
Y81201D03*
Y83760D03*
X46654Y76083D03*
Y78642D03*
Y81201D03*
Y83760D03*
X0Y0D02*
M02*
