G04 DesignSpark PCB PRO Gerber Version 10.0 Build 5299*
G04 #@! TF.Part,Single*
G04 #@! TF.FileFunction,Copper,L2,Inr*
G04 #@! TF.FilePolarity,Positive*
%FSLAX35Y35*%
%MOIN*%
%ADD106C,0.00500*%
%ADD111C,0.00984*%
%ADD113C,0.01500*%
G04 #@! TA.AperFunction,ViaPad*
%ADD112C,0.03543*%
G04 #@! TD.AperFunction*
%ADD121C,0.03937*%
%ADD122C,0.05906*%
G04 #@! TA.AperFunction,ComponentPad*
%ADD114C,0.06102*%
G04 #@! TD.AperFunction*
X0Y0D02*
D02*
D106*
X9543Y252053D02*
Y8578D01*
X12227Y5894D01*
X367906D01*
X370590Y8578D01*
Y71171D01*
G75*
G02*
X365014Y71654I-2767J482D01*
G01*
G75*
G02*
X370590Y72136I2809J0D01*
G01*
Y252053D01*
X367906Y254737D01*
X350097D01*
G75*
G02*
X351051Y254093I-1172J-2768D01*
G01*
X354200Y250945D01*
G75*
G02*
X355081Y248819I-2125J-2126D01*
G01*
Y41207D01*
G75*
G02*
X352075Y34593I-3006J-2624D01*
G01*
X351145D01*
G75*
G02*
X350644I-251J3989D01*
G01*
X328530Y34593D01*
X319975Y26037D01*
G75*
G02*
X317150Y24869I-2821J2822D01*
G01*
X307509D01*
G75*
G02*
X305726I-892J3991D01*
G01*
X300553D01*
Y22835D01*
G75*
G02*
X299384Y20013I-3991J0D01*
G01*
X296628Y17257D01*
G75*
G02*
X293803Y16089I-2821J2822D01*
G01*
X267909D01*
G75*
G02*
X268663Y14174I-2055J-1915D01*
G01*
G75*
G02*
X263045I-2809J0D01*
G01*
G75*
G02*
X263799Y16089I2809J0D01*
G01*
X158460D01*
G75*
G02*
X159214Y14174I-2055J-1915D01*
G01*
G75*
G02*
X153596I-2809J0D01*
G01*
G75*
G02*
X154350Y16089I2809J0D01*
G01*
X106409D01*
G75*
G02*
X103583Y17257I-4J3991D01*
G01*
X99646Y21194D01*
G75*
G02*
X98478Y24016I2822J2821D01*
G01*
Y57796D01*
X93729Y62545D01*
X43807D01*
G75*
G02*
X42289Y62845I0J3991D01*
G01*
G75*
G02*
X42679Y61417I-2419J-1428D01*
G01*
G75*
G02*
X37061I-2809J0D01*
G01*
G75*
G02*
X40630Y64122I2809J0D01*
G01*
G75*
G02*
X40801Y69159I3177J2414D01*
G01*
Y89370D01*
G75*
G02*
X46813I3006J0D01*
G01*
Y70526D01*
X95378D01*
G75*
G02*
X98204Y69357I4J-3991D01*
G01*
X105290Y62271D01*
G75*
G02*
X106458Y59449I-2822J-2821D01*
G01*
Y25669D01*
X108058Y24069D01*
X292154D01*
X292572Y24488D01*
Y28265D01*
G75*
G02*
X292529Y28859I4047J594D01*
G01*
G75*
G02*
X297509Y32849I4089J0D01*
G01*
X305726D01*
G75*
G02*
X307509I892J-3991D01*
G01*
X315500D01*
X324056Y41405D01*
G75*
G02*
X326881Y42573I2821J-2822D01*
G01*
X349069Y42573D01*
Y102479D01*
G75*
G02*
X344976Y102339I-2112J1852D01*
G01*
Y60236D01*
G75*
G02*
X339476Y54736I-5500J0D01*
G01*
X325697D01*
G75*
G02*
X320197Y60236I0J5500D01*
G01*
Y244488D01*
G75*
G02*
X322498Y248963I5500J0D01*
G01*
X274733D01*
G75*
G02*
X274297I-218J3007D01*
G01*
X273191D01*
Y182678D01*
G75*
G02*
X267179I-3006J0D01*
G01*
Y248963D01*
X174186D01*
X172797Y247574D01*
Y227953D01*
G75*
G02*
X171916Y225827I-3006J0D01*
G01*
X168767Y222678D01*
G75*
G02*
X166641Y221797I-2126J2125D01*
G01*
X158189D01*
G75*
G02*
X154025Y224804I-997J3006D01*
G01*
G75*
G02*
X158192Y227809I3167J0D01*
G01*
X165396D01*
X166785Y229198D01*
Y248819D01*
G75*
G02*
X167666Y250945I3006J0D01*
G01*
X170815Y254094D01*
G75*
G02*
X171768Y254737I2126J-2124D01*
G01*
X12227D01*
X9543Y252053D01*
X355368Y162992D02*
G75*
G02*
X362167I3400J0D01*
G01*
G75*
G02*
X355368I-3400J0D01*
G01*
X359502Y103150D02*
G75*
G02*
X365120I2809J0D01*
G01*
G75*
G02*
X359502I-2809J0D01*
G01*
X364620Y33858D02*
G75*
G02*
X370238I2809J0D01*
G01*
G75*
G02*
X364620I-2809J0D01*
G01*
X361470Y125197D02*
G75*
G02*
X367089I2809J0D01*
G01*
G75*
G02*
X361470I-2809J0D01*
G01*
X355565Y197244D02*
G75*
G02*
X361183I2809J0D01*
G01*
G75*
G02*
X355565I-2809J0D01*
G01*
Y236614D02*
G75*
G02*
X361183I2809J0D01*
G01*
G75*
G02*
X355565I-2809J0D01*
G01*
X363833Y165354D02*
G75*
G02*
X369451I2809J0D01*
G01*
G75*
G02*
X363833I-2809J0D01*
G01*
X332140Y18110D02*
G75*
G02*
X346813I7337J0D01*
G01*
G75*
G02*
X332140I-7337J0D01*
G01*
X301628Y21260D02*
G75*
G02*
X307246I2809J0D01*
G01*
G75*
G02*
X301628I-2809J0D01*
G01*
X277612Y12993D02*
G75*
G02*
X283230I2809J0D01*
G01*
G75*
G02*
X277612I-2809J0D01*
G01*
X62651Y51969D02*
G75*
G02*
X68269I2809J0D01*
G01*
G75*
G02*
X63932Y49612I-2809J0D01*
G01*
G75*
G02*
X63939Y49409I-3001J-200D01*
G01*
G75*
G02*
X63587Y47998I-3006J0D01*
G01*
G75*
G02*
X67088Y45276I693J-2722D01*
G01*
G75*
G02*
X64823Y42520I-2809J0D01*
G01*
G75*
G02*
X67088Y39764I-544J-2756D01*
G01*
G75*
G02*
X61470I-2809J0D01*
G01*
G75*
G02*
X63735Y42520I2809J0D01*
G01*
G75*
G02*
X61761Y46520I543J2756D01*
G01*
G75*
G02*
X57927Y49409I-828J2890D01*
G01*
G75*
G02*
X62653Y51874I3006J0D01*
G01*
G75*
G02*
X62651Y51969I2813J94D01*
G01*
X66999Y14876D02*
G75*
G02*
X72600Y14567I2792J-309D01*
G01*
G75*
G02*
X67071Y13865I-2809J0D01*
G01*
G75*
G02*
X61470Y14173I-2792J309D01*
G01*
G75*
G02*
X66999Y14876I2809J0D01*
G01*
X61470Y26378D02*
G75*
G02*
X67088I2809J0D01*
G01*
G75*
G02*
X61470I-2809J0D01*
G01*
Y33465D02*
G75*
G02*
X67088I2809J0D01*
G01*
G75*
G02*
X61470I-2809J0D01*
G01*
X74069Y14567D02*
G75*
G02*
X79687I2809J0D01*
G01*
G75*
G02*
X74069I-2809J0D01*
G01*
Y25984D02*
G75*
G02*
X79687I2809J0D01*
G01*
G75*
G02*
X74069I-2809J0D01*
G01*
X79580Y20079D02*
G75*
G02*
X85198I2809J0D01*
G01*
G75*
G02*
X79580I-2809J0D01*
G01*
X74069Y34252D02*
G75*
G02*
X79687I2809J0D01*
G01*
G75*
G02*
X74069I-2809J0D01*
G01*
X79580Y39764D02*
G75*
G02*
X85198I2809J0D01*
G01*
G75*
G02*
X79580I-2809J0D01*
G01*
Y50788D02*
G75*
G02*
X85198I2809J0D01*
G01*
G75*
G02*
X83547Y48229I-2809J0D01*
G01*
G75*
G02*
X85198Y45669I-1158J-2559D01*
G01*
G75*
G02*
X79580I-2809J0D01*
G01*
G75*
G02*
X81231Y48229I2809J0D01*
G01*
G75*
G02*
X79580Y50788I1158J2559D01*
G01*
X85486Y52363D02*
G75*
G02*
X91104I2809J0D01*
G01*
G75*
G02*
X85486I-2809J0D01*
G01*
X89029Y57481D02*
G75*
G02*
X94647I2809J0D01*
G01*
G75*
G02*
X89029I-2809J0D01*
G01*
X326825Y49409D02*
G75*
G02*
X332837I3006J0D01*
G01*
G75*
G02*
X326825I-3006J0D01*
G01*
X276825Y79134D02*
G75*
G02*
X282443I2809J0D01*
G01*
G75*
G02*
X276825I-2809J0D01*
G01*
Y118504D02*
G75*
G02*
X282443I2809J0D01*
G01*
G75*
G02*
X276825I-2809J0D01*
G01*
Y157874D02*
G75*
G02*
X282443I2809J0D01*
G01*
G75*
G02*
X276825I-2809J0D01*
G01*
Y236614D02*
G75*
G02*
X282443I2809J0D01*
G01*
G75*
G02*
X276825I-2809J0D01*
G01*
X280368Y196851D02*
G75*
G02*
X285986I2809J0D01*
G01*
G75*
G02*
X280368I-2809J0D01*
G01*
X282529Y28859D02*
G75*
G02*
X290706I4089J0D01*
G01*
G75*
G02*
X282529I-4089J0D01*
G01*
Y38859D02*
G75*
G02*
X290706I4089J0D01*
G01*
G75*
G02*
X282529I-4089J0D01*
G01*
X292529D02*
G75*
G02*
X300706I4089J0D01*
G01*
G75*
G02*
X292529I-4089J0D01*
G01*
X296903Y54725D02*
G75*
G02*
X302521I2809J0D01*
G01*
G75*
G02*
X296903I-2809J0D01*
G01*
X302529Y38859D02*
G75*
G02*
X310706I4089J0D01*
G01*
G75*
G02*
X302529I-4089J0D01*
G01*
X314226Y51575D02*
G75*
G02*
X319844I2809J0D01*
G01*
G75*
G02*
X314226I-2809J0D01*
G01*
X314226Y79134D02*
G75*
G02*
X319844I2809J0D01*
G01*
G75*
G02*
X314226I-2809J0D01*
G01*
Y118504D02*
G75*
G02*
X319844I2809J0D01*
G01*
G75*
G02*
X314226I-2809J0D01*
G01*
Y157874D02*
G75*
G02*
X319844I2809J0D01*
G01*
G75*
G02*
X314226I-2809J0D01*
G01*
Y197244D02*
G75*
G02*
X319844I2809J0D01*
G01*
G75*
G02*
X314226I-2809J0D01*
G01*
Y236614D02*
G75*
G02*
X319844I2809J0D01*
G01*
G75*
G02*
X314226I-2809J0D01*
G01*
X272529Y28859D02*
G75*
G02*
X280706I4089J0D01*
G01*
G75*
G02*
X272529I-4089J0D01*
G01*
Y38859D02*
G75*
G02*
X280706I4089J0D01*
G01*
G75*
G02*
X272529I-4089J0D01*
G01*
X185880Y56693D02*
G75*
G02*
X191498I2809J0D01*
G01*
G75*
G02*
X185880I-2809J0D01*
G01*
X189030Y173622D02*
G75*
G02*
X194648I2809J0D01*
G01*
G75*
G02*
X189030I-2809J0D01*
G01*
X192529Y28859D02*
G75*
G02*
X200706I4089J0D01*
G01*
G75*
G02*
X192529I-4089J0D01*
G01*
Y38859D02*
G75*
G02*
X200706I4089J0D01*
G01*
G75*
G02*
X192529I-4089J0D01*
G01*
X198085Y118504D02*
G75*
G02*
X203703I2809J0D01*
G01*
G75*
G02*
X198085I-2809J0D01*
G01*
X202529Y28859D02*
G75*
G02*
X210706I4089J0D01*
G01*
G75*
G02*
X202529I-4089J0D01*
G01*
Y38859D02*
G75*
G02*
X210706I4089J0D01*
G01*
G75*
G02*
X202529I-4089J0D01*
G01*
X198085Y197244D02*
G75*
G02*
X203703I2809J0D01*
G01*
G75*
G02*
X198085I-2809J0D01*
G01*
X206156Y220079D02*
G75*
G02*
X212955I3400J0D01*
G01*
G75*
G02*
X206156I-3400J0D01*
G01*
X208911Y99607D02*
G75*
G02*
X214530I2809J0D01*
G01*
G75*
G02*
X208911I-2809J0D01*
G01*
X212529Y28859D02*
G75*
G02*
X220706I4089J0D01*
G01*
G75*
G02*
X212529I-4089J0D01*
G01*
Y38859D02*
G75*
G02*
X220706I4089J0D01*
G01*
G75*
G02*
X212529I-4089J0D01*
G01*
X213045Y84646D02*
G75*
G02*
X218663I2809J0D01*
G01*
G75*
G02*
X213045I-2809J0D01*
G01*
X210289Y208268D02*
G75*
G02*
X215907I2809J0D01*
G01*
G75*
G02*
X210289I-2809J0D01*
G01*
X215014Y103150D02*
G75*
G02*
X220632I2809J0D01*
G01*
G75*
G02*
X215014I-2809J0D01*
G01*
X218754Y88976D02*
G75*
G02*
X224372I2809J0D01*
G01*
G75*
G02*
X218754I-2809J0D01*
G01*
X222529Y28859D02*
G75*
G02*
X230706I4089J0D01*
G01*
G75*
G02*
X222529I-4089J0D01*
G01*
Y38859D02*
G75*
G02*
X230706I4089J0D01*
G01*
G75*
G02*
X222529I-4089J0D01*
G01*
X223281Y50000D02*
G75*
G02*
X228899I2809J0D01*
G01*
G75*
G02*
X223281I-2809J0D01*
G01*
X206746Y243701D02*
G75*
G02*
X212364I2809J0D01*
G01*
G75*
G02*
X206746I-2809J0D01*
G01*
X221707Y152362D02*
G75*
G02*
X227325I2809J0D01*
G01*
G75*
G02*
X221707I-2809J0D01*
G01*
Y165748D02*
G75*
G02*
X227325I2809J0D01*
G01*
G75*
G02*
X221707I-2809J0D01*
G01*
Y178346D02*
G75*
G02*
X227325I2809J0D01*
G01*
G75*
G02*
X221707I-2809J0D01*
G01*
X229899Y214439D02*
G75*
G02*
X234411Y212205I1703J-2234D01*
G01*
G75*
G02*
X228793I-2809J0D01*
G01*
G75*
G02*
X229368Y213908I2809J0D01*
G01*
G75*
G02*
X224856Y216142I-1703J2234D01*
G01*
G75*
G02*
X230474I2809J0D01*
G01*
G75*
G02*
X229899Y214439I-2809J0D01*
G01*
X232529Y28859D02*
G75*
G02*
X240706I4089J0D01*
G01*
G75*
G02*
X232529I-4089J0D01*
G01*
Y38859D02*
G75*
G02*
X240706I4089J0D01*
G01*
G75*
G02*
X232529I-4089J0D01*
G01*
X233809Y74410D02*
G75*
G02*
X239427I2809J0D01*
G01*
G75*
G02*
X233809I-2809J0D01*
G01*
X243771Y65663D02*
G75*
G02*
X249372Y65355I2792J-308D01*
G01*
G75*
G02*
X243843Y64653I-2809J0D01*
G01*
G75*
G02*
X238242Y64961I-2792J308D01*
G01*
G75*
G02*
X243771Y65663I2809J0D01*
G01*
X244935Y59843D02*
G75*
G02*
X250553I2809J0D01*
G01*
G75*
G02*
X244935I-2809J0D01*
G01*
X242529Y28859D02*
G75*
G02*
X250706I4089J0D01*
G01*
G75*
G02*
X242529I-4089J0D01*
G01*
Y38859D02*
G75*
G02*
X250706I4089J0D01*
G01*
G75*
G02*
X242529I-4089J0D01*
G01*
X237455Y79134D02*
G75*
G02*
X243073I2809J0D01*
G01*
G75*
G02*
X237455I-2809J0D01*
G01*
Y157874D02*
G75*
G02*
X243073I2809J0D01*
G01*
G75*
G02*
X237455I-2809J0D01*
G01*
X238045Y121654D02*
G75*
G02*
X244844I3400J0D01*
G01*
G75*
G02*
X238045I-3400J0D01*
G01*
X240801Y110630D02*
G75*
G02*
X247600I3400J0D01*
G01*
G75*
G02*
X245154Y107367I-3400J0D01*
G01*
G75*
G02*
X247010Y104724I-954J-2642D01*
G01*
G75*
G02*
X241392I-2809J0D01*
G01*
G75*
G02*
X243247Y107367I2809J0D01*
G01*
G75*
G02*
X240801Y110630I954J3263D01*
G01*
X240407Y175591D02*
G75*
G02*
X247207I3400J0D01*
G01*
G75*
G02*
X240407I-3400J0D01*
G01*
X241392Y197244D02*
G75*
G02*
X247010I2809J0D01*
G01*
G75*
G02*
X241392I-2809J0D01*
G01*
Y236614D02*
G75*
G02*
X247010I2809J0D01*
G01*
G75*
G02*
X241392I-2809J0D01*
G01*
X249856Y81890D02*
G75*
G02*
X256656I3400J0D01*
G01*
G75*
G02*
X249856I-3400J0D01*
G01*
X250447Y61811D02*
G75*
G02*
X256065I2809J0D01*
G01*
G75*
G02*
X250447I-2809J0D01*
G01*
X252529Y28859D02*
G75*
G02*
X260706I4089J0D01*
G01*
G75*
G02*
X252529I-4089J0D01*
G01*
Y38859D02*
G75*
G02*
X260706I4089J0D01*
G01*
G75*
G02*
X252529I-4089J0D01*
G01*
X262529Y28859D02*
G75*
G02*
X270706I4089J0D01*
G01*
G75*
G02*
X262529I-4089J0D01*
G01*
Y38859D02*
G75*
G02*
X270706I4089J0D01*
G01*
G75*
G02*
X262529I-4089J0D01*
G01*
X262651Y53937D02*
G75*
G02*
X268269I2809J0D01*
G01*
G75*
G02*
X262651I-2809J0D01*
G01*
X173281Y229134D02*
G75*
G02*
X178900I2809J0D01*
G01*
G75*
G02*
X173281I-2809J0D01*
G01*
X177219Y169685D02*
G75*
G02*
X182837I2809J0D01*
G01*
G75*
G02*
X177219I-2809J0D01*
G01*
X170131Y136221D02*
G75*
G02*
X175750I2809J0D01*
G01*
G75*
G02*
X170131I-2809J0D01*
G01*
X172529Y28859D02*
G75*
G02*
X180706I4089J0D01*
G01*
G75*
G02*
X172529I-4089J0D01*
G01*
Y38859D02*
G75*
G02*
X180706I4089J0D01*
G01*
G75*
G02*
X172529I-4089J0D01*
G01*
X173675Y52363D02*
G75*
G02*
X179293I2809J0D01*
G01*
G75*
G02*
X173675I-2809J0D01*
G01*
X178956Y91493D02*
G75*
G02*
X184411Y90551I2647J-941D01*
G01*
G75*
G02*
X179131Y89217I-2809J0D01*
G01*
G75*
G02*
X173675Y90158I-2647J941D01*
G01*
G75*
G02*
X178956Y91493I2809J0D01*
G01*
X182529Y28859D02*
G75*
G02*
X190706I4089J0D01*
G01*
G75*
G02*
X182529I-4089J0D01*
G01*
Y38859D02*
G75*
G02*
X190706I4089J0D01*
G01*
G75*
G02*
X182529I-4089J0D01*
G01*
X174462Y72441D02*
G75*
G02*
X180080I2809J0D01*
G01*
G75*
G02*
X174462I-2809J0D01*
G01*
X171313Y188976D02*
G75*
G02*
X176931I2809J0D01*
G01*
G75*
G02*
X171313I-2809J0D01*
G01*
X160880Y185039D02*
G75*
G02*
X167679I3400J0D01*
G01*
G75*
G02*
X160880I-3400J0D01*
G01*
X154384Y172441D02*
G75*
G02*
X160002I2809J0D01*
G01*
G75*
G02*
X154384I-2809J0D01*
G01*
X158715Y118504D02*
G75*
G02*
X164333I2809J0D01*
G01*
G75*
G02*
X158715I-2809J0D01*
G01*
X162529Y28859D02*
G75*
G02*
X170706I4089J0D01*
G01*
G75*
G02*
X162529I-4089J0D01*
G01*
Y38859D02*
G75*
G02*
X170706I4089J0D01*
G01*
G75*
G02*
X162529I-4089J0D01*
G01*
X158715Y157874D02*
G75*
G02*
X164333I2809J0D01*
G01*
G75*
G02*
X158715I-2809J0D01*
G01*
X14226Y67717D02*
G75*
G02*
X19844I2809J0D01*
G01*
G75*
G02*
X14226I-2809J0D01*
G01*
X19738Y11811D02*
G75*
G02*
X25356I2809J0D01*
G01*
G75*
G02*
X19738I-2809J0D01*
G01*
Y27559D02*
G75*
G02*
X25356I2809J0D01*
G01*
G75*
G02*
X19738I-2809J0D01*
G01*
X14423Y242520D02*
G75*
G02*
X29096I7337J0D01*
G01*
G75*
G02*
X14423I-7337J0D01*
G01*
X17770Y129134D02*
G75*
G02*
X23388I2809J0D01*
G01*
G75*
G02*
X17770I-2809J0D01*
G01*
X21313Y107874D02*
G75*
G02*
X26931I2809J0D01*
G01*
G75*
G02*
X21313I-2809J0D01*
G01*
X26541Y64606D02*
G75*
G02*
X31175I2317J0D01*
G01*
G75*
G02*
X26541I-2317J0D01*
G01*
X27219Y32677D02*
G75*
G02*
X32837I2809J0D01*
G01*
G75*
G02*
X27219I-2809J0D01*
G01*
X26541Y87362D02*
G75*
G02*
X31175I2317J0D01*
G01*
G75*
G02*
X26541I-2317J0D01*
G01*
X27219Y120079D02*
G75*
G02*
X32837I2809J0D01*
G01*
G75*
G02*
X27219I-2809J0D01*
G01*
X27612Y157087D02*
G75*
G02*
X33230I2809J0D01*
G01*
G75*
G02*
X27612I-2809J0D01*
G01*
X28006Y196457D02*
G75*
G02*
X33624I2809J0D01*
G01*
G75*
G02*
X28006I-2809J0D01*
G01*
X34699Y11811D02*
G75*
G02*
X40317I2809J0D01*
G01*
G75*
G02*
X34699I-2809J0D01*
G01*
Y27559D02*
G75*
G02*
X40317I2809J0D01*
G01*
G75*
G02*
X34699I-2809J0D01*
G01*
X40211Y14173D02*
G75*
G02*
X45829I2809J0D01*
G01*
G75*
G02*
X40211I-2809J0D01*
G01*
Y25197D02*
G75*
G02*
X45829I2809J0D01*
G01*
G75*
G02*
X40211I-2809J0D01*
G01*
X38636Y96457D02*
G75*
G02*
X44254I2809J0D01*
G01*
G75*
G02*
X38636I-2809J0D01*
G01*
X40604Y132283D02*
G75*
G02*
X46222I2809J0D01*
G01*
G75*
G02*
X40604I-2809J0D01*
G01*
X57927Y242717D02*
G75*
G02*
X63939I3006J0D01*
G01*
G75*
G02*
X57927I-3006J0D01*
G01*
X58321Y110630D02*
G75*
G02*
X63939I2809J0D01*
G01*
G75*
G02*
X58321I-2809J0D01*
G01*
X66589Y76772D02*
G75*
G02*
X72207I2809J0D01*
G01*
G75*
G02*
X66589I-2809J0D01*
G01*
X74856Y171654D02*
G75*
G02*
X80474I2809J0D01*
G01*
G75*
G02*
X74856I-2809J0D01*
G01*
X75687Y157874D02*
G75*
G02*
X81305I2809J0D01*
G01*
G75*
G02*
X75687I-2809J0D01*
G01*
X79974Y197244D02*
G75*
G02*
X85593I2809J0D01*
G01*
G75*
G02*
X79974I-2809J0D01*
G01*
X85486Y129134D02*
G75*
G02*
X91104I2809J0D01*
G01*
G75*
G02*
X85486I-2809J0D01*
G01*
X89423Y120866D02*
G75*
G02*
X95041I2809J0D01*
G01*
G75*
G02*
X89423I-2809J0D01*
G01*
X90211Y114567D02*
G75*
G02*
X95829I2809J0D01*
G01*
G75*
G02*
X90211I-2809J0D01*
G01*
X88045Y144094D02*
G75*
G02*
X94844I3400J0D01*
G01*
G75*
G02*
X88045I-3400J0D01*
G01*
X90211Y185433D02*
G75*
G02*
X95829I2809J0D01*
G01*
G75*
G02*
X90211I-2809J0D01*
G01*
X93754Y155906D02*
G75*
G02*
X99372I2809J0D01*
G01*
G75*
G02*
X93754I-2809J0D01*
G01*
X98478Y71654D02*
G75*
G02*
X104096I2809J0D01*
G01*
G75*
G02*
X98478I-2809J0D01*
G01*
X96159Y208661D02*
G75*
G02*
X101778I2809J0D01*
G01*
G75*
G02*
X96159I-2809J0D01*
G01*
X100994Y103937D02*
G75*
G02*
X107793I3400J0D01*
G01*
G75*
G02*
X100994I-3400J0D01*
G01*
X105565Y68504D02*
G75*
G02*
X111183I2809J0D01*
G01*
G75*
G02*
X105565I-2809J0D01*
G01*
X102612Y188976D02*
G75*
G02*
X109411I3400J0D01*
G01*
G75*
G02*
X102612I-3400J0D01*
G01*
X105959Y112992D02*
G75*
G02*
X111577I2809J0D01*
G01*
G75*
G02*
X105959I-2809J0D01*
G01*
X109502Y201575D02*
G75*
G02*
X115120I2809J0D01*
G01*
G75*
G02*
X109502I-2809J0D01*
G01*
X112529Y28859D02*
G75*
G02*
X120706I4089J0D01*
G01*
G75*
G02*
X112529I-4089J0D01*
G01*
Y38859D02*
G75*
G02*
X120706I4089J0D01*
G01*
G75*
G02*
X112529I-4089J0D01*
G01*
X113833Y218898D02*
G75*
G02*
X119451I2809J0D01*
G01*
G75*
G02*
X113833I-2809J0D01*
G01*
X115407Y65355D02*
G75*
G02*
X121025I2809J0D01*
G01*
G75*
G02*
X115407I-2809J0D01*
G01*
X119344Y47638D02*
G75*
G02*
X124962I2809J0D01*
G01*
G75*
G02*
X119344I-2809J0D01*
G01*
X122529Y28859D02*
G75*
G02*
X130706I4089J0D01*
G01*
G75*
G02*
X122529I-4089J0D01*
G01*
Y38859D02*
G75*
G02*
X130706I4089J0D01*
G01*
G75*
G02*
X122529I-4089J0D01*
G01*
X116589Y200000D02*
G75*
G02*
X122207I2809J0D01*
G01*
G75*
G02*
X116589I-2809J0D01*
G01*
X120919Y98031D02*
G75*
G02*
X126537I2809J0D01*
G01*
G75*
G02*
X120919I-2809J0D01*
G01*
X122888Y157874D02*
G75*
G02*
X128506I2809J0D01*
G01*
G75*
G02*
X122888I-2809J0D01*
G01*
Y212598D02*
G75*
G02*
X128506I2809J0D01*
G01*
G75*
G02*
X122888I-2809J0D01*
G01*
X132529Y28859D02*
G75*
G02*
X140706I4089J0D01*
G01*
G75*
G02*
X132529I-4089J0D01*
G01*
Y38859D02*
G75*
G02*
X140706I4089J0D01*
G01*
G75*
G02*
X132529I-4089J0D01*
G01*
X136076Y76772D02*
G75*
G02*
X142876I3400J0D01*
G01*
G75*
G02*
X136076I-3400J0D01*
G01*
X136667Y70079D02*
G75*
G02*
X142285I2809J0D01*
G01*
G75*
G02*
X136667I-2809J0D01*
G01*
X142529Y28859D02*
G75*
G02*
X150706I4089J0D01*
G01*
G75*
G02*
X142529I-4089J0D01*
G01*
Y38859D02*
G75*
G02*
X150706I4089J0D01*
G01*
G75*
G02*
X142529I-4089J0D01*
G01*
X146116Y167323D02*
G75*
G02*
X151734I2809J0D01*
G01*
G75*
G02*
X146116I-2809J0D01*
G01*
X148085Y190157D02*
G75*
G02*
X153703I2809J0D01*
G01*
G75*
G02*
X148085I-2809J0D01*
G01*
X152529Y28859D02*
G75*
G02*
X160706I4089J0D01*
G01*
G75*
G02*
X152529I-4089J0D01*
G01*
Y38859D02*
G75*
G02*
X160706I4089J0D01*
G01*
G75*
G02*
X152529I-4089J0D01*
G01*
X154384Y242913D02*
G75*
G02*
X160002I2809J0D01*
G01*
G75*
G02*
X154384I-2809J0D01*
G01*
X9793Y12993D02*
G36*
X9793Y12993D02*
Y8328D01*
X11977Y6144D01*
X368156D01*
X370340Y8328D01*
Y12993D01*
X344733D01*
G75*
G02*
X334220I-5257J5118D01*
G01*
X283230D01*
G75*
G02*
X277612I-2809J0D01*
G01*
X268403D01*
G75*
G02*
X263305I-2549J1181D01*
G01*
X158954D01*
G75*
G02*
X153856I-2549J1181D01*
G01*
X79204D01*
G75*
G02*
X74551I-2326J1574D01*
G01*
X72117D01*
G75*
G02*
X67465I-2326J1574D01*
G01*
X66828D01*
G75*
G02*
X61730I-2549J1181D01*
G01*
X45569D01*
G75*
G02*
X40471I-2549J1181D01*
G01*
X40056D01*
G75*
G02*
X40317Y11811I-2548J-1181D01*
G01*
G75*
G02*
X34699I-2809J0D01*
G01*
G75*
G02*
X34959Y12993I2809J0D01*
G01*
X25096D01*
G75*
G02*
X25356Y11811I-2548J-1181D01*
G01*
G75*
G02*
X19738I-2809J0D01*
G01*
G75*
G02*
X19999Y12993I2809J0D01*
G01*
X9793D01*
G37*
Y18110D02*
G36*
X9793Y18110D02*
Y12993D01*
X19999D01*
G75*
G02*
X25096I2548J-1181D01*
G01*
X34959D01*
G75*
G02*
X40056I2548J-1181D01*
G01*
X40471D01*
G75*
G02*
X40211Y14173I2549J1181D01*
G01*
G75*
G02*
X45829I2809J0D01*
G01*
G75*
G02*
X45569Y12993I-2809J0D01*
G01*
X61730D01*
G75*
G02*
X61470Y14173I2549J1181D01*
G01*
G75*
G02*
X66999Y14876I2809J0D01*
G01*
G75*
G02*
X72600Y14567I2792J-309D01*
G01*
G75*
G02*
X72117Y12993I-2809J0D01*
G01*
X74551D01*
G75*
G02*
X74069Y14567I2326J1574D01*
G01*
G75*
G02*
X79687I2809J0D01*
G01*
G75*
G02*
X79204Y12993I-2809J0D01*
G01*
X153856D01*
G75*
G02*
X153596Y14174I2549J1181D01*
G01*
Y14174D01*
G75*
G02*
X154350Y16089I2808J0D01*
G01*
X106409D01*
G75*
G02*
X103583Y17257I-4J3989D01*
G01*
X102731Y18110D01*
X84393D01*
G75*
G02*
X80385I-2004J1969D01*
G01*
X9793D01*
G37*
X67071Y13865D02*
G36*
X67071Y13865D02*
G75*
G02*
X66828Y12993I-2792J309D01*
G01*
X67465D01*
G75*
G02*
X67071Y13865I2326J1574D01*
G01*
G37*
X159214Y14174D02*
G36*
X159214Y14174D02*
G75*
G02*
X158954Y12993I-2809J0D01*
G01*
X263305D01*
G75*
G02*
X263045Y14174I2549J1181D01*
G01*
Y14174D01*
G75*
G02*
X263799Y16089I2808J0D01*
G01*
X158460D01*
G75*
G02*
X159214Y14174I-2054J-1915D01*
G01*
Y14174D01*
G37*
X268663D02*
G36*
X268663Y14174D02*
G75*
G02*
X268403Y12993I-2809J0D01*
G01*
X277612D01*
G75*
G02*
X283230I2809J0D01*
G01*
X334220D01*
G75*
G02*
X332140Y18110I5257J5118D01*
G01*
X297481D01*
X296628Y17257D01*
G75*
G02*
X293803Y16089I-2822J2823D01*
G01*
X267909D01*
G75*
G02*
X268663Y14174I-2054J-1915D01*
G01*
Y14174D01*
G37*
X346813Y18110D02*
G36*
X346813Y18110D02*
G75*
G02*
X344733Y12993I-7337J0D01*
G01*
X370340D01*
Y18110D01*
X346813D01*
G37*
X9793Y21260D02*
G36*
X9793Y21260D02*
Y18110D01*
X80385D01*
G75*
G02*
X79580Y20079I2004J1969D01*
G01*
G75*
G02*
X79841Y21260I2809J0D01*
G01*
X9793D01*
G37*
X85198Y20079D02*
G36*
X85198Y20079D02*
G75*
G02*
X84393Y18110I-2809J0D01*
G01*
X102731D01*
X99646Y21194D01*
G75*
G02*
X99582Y21260I2822J2818D01*
G01*
X84938D01*
G75*
G02*
X85198Y20079I-2548J-1181D01*
G01*
G37*
X299384Y20013D02*
G36*
X299384Y20013D02*
X297481Y18110D01*
X332140D01*
G75*
G02*
X332850Y21260I7337J0D01*
G01*
X307246D01*
G75*
G02*
X301628I-2809J0D01*
G01*
X300229D01*
G75*
G02*
X299384Y20013I-3665J1574D01*
G01*
G37*
X346102Y21260D02*
G36*
X346102Y21260D02*
G75*
G02*
X346813Y18110I-6626J-3150D01*
G01*
X370340D01*
Y21260D01*
X346102D01*
G37*
X9793Y26378D02*
G36*
X9793Y26378D02*
Y21260D01*
X79841D01*
G75*
G02*
X84938I2548J-1181D01*
G01*
X99582D01*
G75*
G02*
X98478Y24015I2885J2755D01*
G01*
G75*
G02*
Y24016I3470J0D01*
G01*
Y26378D01*
X79659D01*
G75*
G02*
X79687Y25984I-2781J-393D01*
G01*
G75*
G02*
X74069I-2809J0D01*
G01*
G75*
G02*
X74096Y26378I2809J1D01*
G01*
X67088D01*
G75*
G02*
X61470I-2809J0D01*
G01*
X45569D01*
G75*
G02*
X45829Y25197I-2549J-1181D01*
G01*
G75*
G02*
X40211I-2809J0D01*
G01*
G75*
G02*
X40471Y26378I2809J0D01*
G01*
X40057D01*
G75*
G02*
X34959I-2549J1181D01*
G01*
X25096D01*
G75*
G02*
X19998I-2549J1181D01*
G01*
X9793D01*
G37*
X106458D02*
G36*
X106458Y26378D02*
Y25669D01*
X108058Y24069D01*
X292154D01*
X292572Y24488D01*
Y26378D01*
X289868D01*
G75*
G02*
X283368I-3250J2481D01*
G01*
X279868D01*
G75*
G02*
X273368I-3250J2481D01*
G01*
X269868D01*
G75*
G02*
X263368I-3250J2481D01*
G01*
X259868D01*
G75*
G02*
X253368I-3250J2481D01*
G01*
X249868D01*
G75*
G02*
X243368I-3250J2481D01*
G01*
X239868D01*
G75*
G02*
X233368I-3250J2481D01*
G01*
X229868D01*
G75*
G02*
X223368I-3250J2481D01*
G01*
X219868D01*
G75*
G02*
X213368I-3250J2481D01*
G01*
X209868D01*
G75*
G02*
X203368I-3250J2481D01*
G01*
X199868D01*
G75*
G02*
X193368I-3250J2481D01*
G01*
X189868D01*
G75*
G02*
X183368I-3250J2481D01*
G01*
X179868D01*
G75*
G02*
X173368I-3250J2481D01*
G01*
X169868D01*
G75*
G02*
X163368I-3250J2481D01*
G01*
X159868D01*
G75*
G02*
X153368I-3250J2481D01*
G01*
X149868D01*
G75*
G02*
X143368I-3250J2481D01*
G01*
X139868D01*
G75*
G02*
X133368I-3250J2481D01*
G01*
X129868D01*
G75*
G02*
X123368I-3250J2481D01*
G01*
X119868D01*
G75*
G02*
X113368I-3250J2481D01*
G01*
X106458D01*
G37*
X300553Y24869D02*
G36*
X300553Y24869D02*
Y22835D01*
G75*
G02*
Y22834I-3470J0D01*
G01*
G75*
G02*
X300229Y21260I-3989J0D01*
G01*
X301628D01*
G75*
G02*
X307246I2809J0D01*
G01*
X332850D01*
G75*
G02*
X346102I6626J-3150D01*
G01*
X370340D01*
Y26378D01*
X320316D01*
X319975Y26037D01*
G75*
G02*
X317150Y24869I-2822J2823D01*
G01*
X307509D01*
G75*
G02*
X305726I-892J3991D01*
G01*
X300553D01*
G37*
X9793Y33858D02*
G36*
X9793Y33858D02*
Y26378D01*
X19998D01*
G75*
G02*
X19738Y27559I2549J1181D01*
G01*
G75*
G02*
X25356I2809J0D01*
G01*
G75*
G02*
X25096Y26378I-2809J0D01*
G01*
X34959D01*
G75*
G02*
X34699Y27559I2549J1181D01*
G01*
G75*
G02*
X40317I2809J0D01*
G01*
G75*
G02*
X40057Y26378I-2809J0D01*
G01*
X40471D01*
G75*
G02*
X45569I2549J-1181D01*
G01*
X61470D01*
G75*
G02*
X67088I2809J0D01*
G01*
X74096D01*
G75*
G02*
X79659I2781J-394D01*
G01*
X98478D01*
Y33858D01*
X79659D01*
G75*
G02*
X74096I-2781J394D01*
G01*
X67061D01*
G75*
G02*
X67088Y33465I-2781J-393D01*
G01*
G75*
G02*
X61470I-2809J0D01*
G01*
G75*
G02*
X61498Y33858I2809J1D01*
G01*
X32576D01*
G75*
G02*
X32837Y32677I-2549J-1181D01*
G01*
G75*
G02*
X27219I-2809J0D01*
G01*
G75*
G02*
X27479Y33858I2809J0D01*
G01*
X9793D01*
G37*
X106458D02*
G36*
X106458Y33858D02*
Y26378D01*
X113368D01*
G75*
G02*
X112529Y28859I3250J2481D01*
G01*
G75*
G02*
X120706I4089J0D01*
G01*
G75*
G02*
X119868Y26378I-4089J0D01*
G01*
X123368D01*
G75*
G02*
X122529Y28859I3250J2481D01*
G01*
G75*
G02*
X130706I4089J0D01*
G01*
G75*
G02*
X129868Y26378I-4089J0D01*
G01*
X133368D01*
G75*
G02*
X132529Y28859I3250J2481D01*
G01*
G75*
G02*
X140706I4089J0D01*
G01*
G75*
G02*
X139868Y26378I-4089J0D01*
G01*
X143368D01*
G75*
G02*
X142529Y28859I3250J2481D01*
G01*
G75*
G02*
X150706I4089J0D01*
G01*
G75*
G02*
X149868Y26378I-4089J0D01*
G01*
X153368D01*
G75*
G02*
X152529Y28859I3250J2481D01*
G01*
G75*
G02*
X160706I4089J0D01*
G01*
G75*
G02*
X159868Y26378I-4089J0D01*
G01*
X163368D01*
G75*
G02*
X162529Y28859I3250J2481D01*
G01*
G75*
G02*
X170706I4089J0D01*
G01*
G75*
G02*
X169868Y26378I-4089J0D01*
G01*
X173368D01*
G75*
G02*
X172529Y28859I3250J2481D01*
G01*
G75*
G02*
X180706I4089J0D01*
G01*
G75*
G02*
X179868Y26378I-4089J0D01*
G01*
X183368D01*
G75*
G02*
X182529Y28859I3250J2481D01*
G01*
G75*
G02*
X190706I4089J0D01*
G01*
G75*
G02*
X189868Y26378I-4089J0D01*
G01*
X193368D01*
G75*
G02*
X192529Y28859I3250J2481D01*
G01*
G75*
G02*
X200706I4089J0D01*
G01*
G75*
G02*
X199868Y26378I-4089J0D01*
G01*
X203368D01*
G75*
G02*
X202529Y28859I3250J2481D01*
G01*
G75*
G02*
X210706I4089J0D01*
G01*
G75*
G02*
X209868Y26378I-4089J0D01*
G01*
X213368D01*
G75*
G02*
X212529Y28859I3250J2481D01*
G01*
G75*
G02*
X220706I4089J0D01*
G01*
G75*
G02*
X219868Y26378I-4089J0D01*
G01*
X223368D01*
G75*
G02*
X222529Y28859I3250J2481D01*
G01*
G75*
G02*
X230706I4089J0D01*
G01*
G75*
G02*
X229868Y26378I-4089J0D01*
G01*
X233368D01*
G75*
G02*
X232529Y28859I3250J2481D01*
G01*
G75*
G02*
X240706I4089J0D01*
G01*
G75*
G02*
X239868Y26378I-4089J0D01*
G01*
X243368D01*
G75*
G02*
X242529Y28859I3250J2481D01*
G01*
G75*
G02*
X250706I4089J0D01*
G01*
G75*
G02*
X249868Y26378I-4089J0D01*
G01*
X253368D01*
G75*
G02*
X252529Y28859I3250J2481D01*
G01*
G75*
G02*
X260706I4089J0D01*
G01*
G75*
G02*
X259868Y26378I-4089J0D01*
G01*
X263368D01*
G75*
G02*
X262529Y28859I3250J2481D01*
G01*
G75*
G02*
X270706I4089J0D01*
G01*
G75*
G02*
X269868Y26378I-4089J0D01*
G01*
X273368D01*
G75*
G02*
X272529Y28859I3250J2481D01*
G01*
G75*
G02*
X280706I4089J0D01*
G01*
G75*
G02*
X279868Y26378I-4089J0D01*
G01*
X283368D01*
G75*
G02*
X282529Y28859I3250J2481D01*
G01*
G75*
G02*
X290706I4089J0D01*
G01*
G75*
G02*
X289868Y26378I-4089J0D01*
G01*
X292572D01*
Y28265D01*
G75*
G02*
X292529Y28859I4118J599D01*
G01*
G75*
G02*
X297509Y32849I4089J0D01*
G01*
X305726D01*
G75*
G02*
X307509I892J-3991D01*
G01*
X315500D01*
X316510Y33858D01*
X106458D01*
G37*
X327796D02*
G36*
X327796Y33858D02*
X320316Y26378D01*
X370340D01*
Y33858D01*
X370238D01*
G75*
G02*
X364620I-2809J0D01*
G01*
X327796D01*
G37*
X9793Y39764D02*
G36*
X9793Y39764D02*
Y33858D01*
X27479D01*
G75*
G02*
X32576I2549J-1181D01*
G01*
X61498D01*
G75*
G02*
X67061I2781J-394D01*
G01*
X74096D01*
G75*
G02*
X74069Y34252I2781J393D01*
G01*
G75*
G02*
X79687I2809J0D01*
G01*
G75*
G02*
X79659Y33858I-2809J-1D01*
G01*
X98478D01*
Y39764D01*
X85198D01*
G75*
G02*
X79580I-2809J0D01*
G01*
X67088D01*
G75*
G02*
X61470I-2809J0D01*
G01*
X9793D01*
G37*
X106458D02*
G36*
X106458Y39764D02*
Y33858D01*
X316510D01*
X322415Y39764D01*
X310605D01*
G75*
G02*
X310706Y38859I-3987J-906D01*
G01*
G75*
G02*
X302529I-4089J0D01*
G01*
G75*
G02*
X302631Y39764I4089J-1D01*
G01*
X300605D01*
G75*
G02*
X300706Y38859I-3987J-906D01*
G01*
G75*
G02*
X292529I-4089J0D01*
G01*
G75*
G02*
X292631Y39764I4089J-1D01*
G01*
X290605D01*
G75*
G02*
X290706Y38859I-3987J-906D01*
G01*
G75*
G02*
X282529I-4089J0D01*
G01*
G75*
G02*
X282631Y39764I4089J-1D01*
G01*
X280605D01*
G75*
G02*
X280706Y38859I-3987J-906D01*
G01*
G75*
G02*
X272529I-4089J0D01*
G01*
G75*
G02*
X272631Y39764I4089J-1D01*
G01*
X270605D01*
G75*
G02*
X270706Y38859I-3987J-906D01*
G01*
G75*
G02*
X262529I-4089J0D01*
G01*
G75*
G02*
X262631Y39764I4089J-1D01*
G01*
X260605D01*
G75*
G02*
X260706Y38859I-3987J-906D01*
G01*
G75*
G02*
X252529I-4089J0D01*
G01*
G75*
G02*
X252631Y39764I4089J-1D01*
G01*
X250605D01*
G75*
G02*
X250706Y38859I-3987J-906D01*
G01*
G75*
G02*
X242529I-4089J0D01*
G01*
G75*
G02*
X242631Y39764I4089J-1D01*
G01*
X240605D01*
G75*
G02*
X240706Y38859I-3987J-906D01*
G01*
G75*
G02*
X232529I-4089J0D01*
G01*
G75*
G02*
X232631Y39764I4089J-1D01*
G01*
X230605D01*
G75*
G02*
X230706Y38859I-3987J-906D01*
G01*
G75*
G02*
X222529I-4089J0D01*
G01*
G75*
G02*
X222631Y39764I4089J-1D01*
G01*
X220605D01*
G75*
G02*
X220706Y38859I-3987J-906D01*
G01*
G75*
G02*
X212529I-4089J0D01*
G01*
G75*
G02*
X212631Y39764I4089J-1D01*
G01*
X210605D01*
G75*
G02*
X210706Y38859I-3987J-906D01*
G01*
G75*
G02*
X202529I-4089J0D01*
G01*
G75*
G02*
X202631Y39764I4089J-1D01*
G01*
X200605D01*
G75*
G02*
X200706Y38859I-3987J-906D01*
G01*
G75*
G02*
X192529I-4089J0D01*
G01*
G75*
G02*
X192631Y39764I4089J-1D01*
G01*
X190605D01*
G75*
G02*
X190706Y38859I-3987J-906D01*
G01*
G75*
G02*
X182529I-4089J0D01*
G01*
G75*
G02*
X182631Y39764I4089J-1D01*
G01*
X180605D01*
G75*
G02*
X180706Y38859I-3987J-906D01*
G01*
G75*
G02*
X172529I-4089J0D01*
G01*
G75*
G02*
X172631Y39764I4089J-1D01*
G01*
X170605D01*
G75*
G02*
X170706Y38859I-3987J-906D01*
G01*
G75*
G02*
X162529I-4089J0D01*
G01*
G75*
G02*
X162631Y39764I4089J-1D01*
G01*
X160605D01*
G75*
G02*
X160706Y38859I-3987J-906D01*
G01*
G75*
G02*
X152529I-4089J0D01*
G01*
G75*
G02*
X152631Y39764I4089J-1D01*
G01*
X150605D01*
G75*
G02*
X150706Y38859I-3987J-906D01*
G01*
G75*
G02*
X142529I-4089J0D01*
G01*
G75*
G02*
X142631Y39764I4089J-1D01*
G01*
X140605D01*
G75*
G02*
X140706Y38859I-3987J-906D01*
G01*
G75*
G02*
X132529I-4089J0D01*
G01*
G75*
G02*
X132631Y39764I4089J-1D01*
G01*
X130605D01*
G75*
G02*
X130706Y38859I-3987J-906D01*
G01*
G75*
G02*
X122529I-4089J0D01*
G01*
G75*
G02*
X122631Y39764I4089J-1D01*
G01*
X120605D01*
G75*
G02*
X120706Y38859I-3987J-906D01*
G01*
G75*
G02*
X112529I-4089J0D01*
G01*
G75*
G02*
X112631Y39764I4089J-1D01*
G01*
X106458D01*
G37*
X328530Y34593D02*
G36*
X328530Y34593D02*
X327796Y33858D01*
X364620D01*
G75*
G02*
X370238I2809J0D01*
G01*
X370340D01*
Y39764D01*
X355886D01*
G75*
G02*
X356065Y38583I-3811J-1181D01*
G01*
G75*
G02*
X352075Y34593I-3990J0D01*
G01*
X351145D01*
G75*
G02*
X350644I-251J3990D01*
G01*
X328530Y34593D01*
G37*
X9793Y45866D02*
G36*
X9793Y45866D02*
Y39764D01*
X61470D01*
Y39764D01*
G75*
G02*
X63735Y42520I2809J0D01*
G01*
G75*
G02*
X61470Y45275I543J2756D01*
G01*
G75*
G02*
X61533Y45866I2809J1D01*
G01*
X9793D01*
G37*
X67025D02*
G36*
X67025Y45866D02*
G75*
G02*
X67088Y45276I-2746J-592D01*
G01*
Y45275D01*
G75*
G02*
X64823Y42520I-2809J0D01*
G01*
G75*
G02*
X67088Y39764I-543J-2756D01*
G01*
Y39764D01*
X79580D01*
G75*
G02*
X85198I2809J0D01*
G01*
X98478D01*
Y45866D01*
X85191D01*
G75*
G02*
X85198Y45669I-2804J-200D01*
G01*
G75*
G02*
X79580I-2809J0D01*
G01*
Y45670D01*
G75*
G02*
X79587Y45866I2809J3D01*
G01*
X67025D01*
G37*
X106458D02*
G36*
X106458Y45866D02*
Y39764D01*
X112631D01*
G75*
G02*
X120605I3987J-905D01*
G01*
X122631D01*
G75*
G02*
X130605I3987J-905D01*
G01*
X132631D01*
G75*
G02*
X140605I3987J-905D01*
G01*
X142631D01*
G75*
G02*
X150605I3987J-905D01*
G01*
X152631D01*
G75*
G02*
X160605I3987J-905D01*
G01*
X162631D01*
G75*
G02*
X170605I3987J-905D01*
G01*
X172631D01*
G75*
G02*
X180605I3987J-905D01*
G01*
X182631D01*
G75*
G02*
X190605I3987J-905D01*
G01*
X192631D01*
G75*
G02*
X200605I3987J-905D01*
G01*
X202631D01*
G75*
G02*
X210605I3987J-905D01*
G01*
X212631D01*
G75*
G02*
X220605I3987J-905D01*
G01*
X222631D01*
G75*
G02*
X230605I3987J-905D01*
G01*
X232631D01*
G75*
G02*
X240605I3987J-905D01*
G01*
X242631D01*
G75*
G02*
X250605I3987J-905D01*
G01*
X252631D01*
G75*
G02*
X260605I3987J-905D01*
G01*
X262631D01*
G75*
G02*
X270605I3987J-905D01*
G01*
X272631D01*
G75*
G02*
X280605I3987J-905D01*
G01*
X282631D01*
G75*
G02*
X290605I3987J-905D01*
G01*
X292631D01*
G75*
G02*
X300605I3987J-905D01*
G01*
X302631D01*
G75*
G02*
X310605I3987J-905D01*
G01*
X322415D01*
X324056Y41405D01*
G75*
G02*
X326881Y42573I2822J-2823D01*
G01*
X349069Y42573D01*
Y45866D01*
X124333D01*
G75*
G02*
X119974I-2180J1772D01*
G01*
X106458D01*
G37*
X355081D02*
G36*
X355081Y45866D02*
Y41207D01*
G75*
G02*
X355886Y39764I-3006J-2624D01*
G01*
X370340D01*
Y45866D01*
X355081D01*
G37*
X9793Y49409D02*
G36*
X9793Y49409D02*
Y45866D01*
X61533D01*
G75*
G02*
X61761Y46520I2746J-591D01*
G01*
G75*
G02*
X57927Y49409I-828J2890D01*
G01*
X9793D01*
G37*
X63939D02*
G36*
X63939Y49409D02*
G75*
G02*
X63587Y47998I-3009J1D01*
G01*
G75*
G02*
X67025Y45866I692J-2722D01*
G01*
X79587D01*
G75*
G02*
X81231Y48229I2802J-196D01*
G01*
G75*
G02*
X79942Y49409I1158J2560D01*
G01*
X66618D01*
G75*
G02*
X64303I-1157J2559D01*
G01*
X63939D01*
G37*
X84837D02*
G36*
X84837Y49409D02*
G75*
G02*
X83547Y48229I-2448J1379D01*
G01*
G75*
G02*
X85191Y45866I-1159J-2560D01*
G01*
X98478D01*
Y49409D01*
X84837D01*
G37*
X106458D02*
G36*
X106458Y49409D02*
Y45866D01*
X119974D01*
G75*
G02*
X119344Y47638I2180J1772D01*
G01*
G75*
G02*
X119973Y49409I2809J0D01*
G01*
X106458D01*
G37*
X124962Y47638D02*
G36*
X124962Y47638D02*
G75*
G02*
X124333Y45866I-2809J0D01*
G01*
X349069D01*
Y49409D01*
X332837D01*
G75*
G02*
X326825I-3006J0D01*
G01*
X318824D01*
G75*
G02*
X315246I-1789J2166D01*
G01*
X228836D01*
G75*
G02*
X223344I-2746J591D01*
G01*
X124333D01*
G75*
G02*
X124962Y47638I-2180J-1771D01*
G01*
G37*
X355081Y49409D02*
G36*
X355081Y49409D02*
Y45866D01*
X370340D01*
Y49409D01*
X355081D01*
G37*
X9793Y52363D02*
G36*
X9793Y52363D02*
Y49409D01*
X57927D01*
G75*
G02*
X60373Y52363I3006J0D01*
G01*
X9793D01*
G37*
X61493D02*
G36*
X61493Y52363D02*
G75*
G02*
X62653Y51874I-560J-2953D01*
G01*
G75*
G02*
X62651Y51969I2835J94D01*
G01*
G75*
G02*
X62679Y52363I2809J1D01*
G01*
X61493D01*
G37*
X63939Y49415D02*
G36*
X63939Y49415D02*
G75*
G02*
Y49409I-2917J-3D01*
G01*
X64303D01*
G75*
G02*
X63932Y49612I1157J2560D01*
G01*
G75*
G02*
X63939Y49415I-2889J-197D01*
G01*
G37*
X68242Y52363D02*
G36*
X68242Y52363D02*
G75*
G02*
X68269Y51969I-2781J-393D01*
G01*
G75*
G02*
X66618Y49409I-2809J0D01*
G01*
X79942D01*
G75*
G02*
X79580Y50788I2448J1378D01*
G01*
G75*
G02*
X80063Y52363I2809J0D01*
G01*
X68242D01*
G37*
X85198Y50788D02*
G36*
X85198Y50788D02*
G75*
G02*
X84837Y49409I-2809J0D01*
G01*
X98478D01*
Y52363D01*
X91104D01*
G75*
G02*
X85486I-2809J0D01*
G01*
X84715D01*
G75*
G02*
X85198Y50788I-2326J-1575D01*
G01*
G37*
X106458Y52363D02*
G36*
X106458Y52363D02*
Y49409D01*
X119973D01*
G75*
G02*
X124333I2180J-1771D01*
G01*
X223344D01*
G75*
G02*
X223281Y50000I2746J592D01*
G01*
G75*
G02*
X224570Y52363I2809J0D01*
G01*
X179293D01*
G75*
G02*
X173675I-2809J0D01*
G01*
X106458D01*
G37*
X228899Y50000D02*
G36*
X228899Y50000D02*
G75*
G02*
X228836Y49409I-2809J1D01*
G01*
X315246D01*
G75*
G02*
X314226Y51575I1789J2166D01*
G01*
G75*
G02*
X314339Y52363I2809J0D01*
G01*
X301232D01*
G75*
G02*
X298192I-1520J2362D01*
G01*
X267786D01*
G75*
G02*
X263134I-2326J1575D01*
G01*
X227610D01*
G75*
G02*
X228899Y50000I-1520J-2362D01*
G01*
G37*
X319844Y51575D02*
G36*
X319844Y51575D02*
G75*
G02*
X318824Y49409I-2809J0D01*
G01*
X326825D01*
G75*
G02*
X329270Y52363I3006J0D01*
G01*
X319731D01*
G75*
G02*
X319844Y51575I-2696J-787D01*
G01*
G37*
X330391Y52363D02*
G36*
X330391Y52363D02*
G75*
G02*
X332837Y49409I-561J-2953D01*
G01*
X349069D01*
Y52363D01*
X330391D01*
G37*
X355081D02*
G36*
X355081Y52363D02*
Y49409D01*
X370340D01*
Y52363D01*
X355081D01*
G37*
X9793Y57481D02*
G36*
X9793Y57481D02*
Y52363D01*
X60373D01*
G75*
G02*
X61493I560J-2954D01*
G01*
X62679D01*
G75*
G02*
X68242I2781J-394D01*
G01*
X80063D01*
G75*
G02*
X84715I2326J-1575D01*
G01*
X85486D01*
G75*
G02*
X91104I2809J0D01*
G01*
X98478D01*
Y57481D01*
X94647D01*
G75*
G02*
X89029I-2809J0D01*
G01*
X9793D01*
G37*
X106458D02*
G36*
X106458Y57481D02*
Y52363D01*
X173675D01*
G75*
G02*
X179293I2809J0D01*
G01*
X224570D01*
G75*
G02*
X227610I1520J-2362D01*
G01*
X263134D01*
G75*
G02*
X262651Y53937I2326J1575D01*
G01*
G75*
G02*
X268269I2809J0D01*
G01*
G75*
G02*
X267786Y52363I-2809J0D01*
G01*
X298192D01*
G75*
G02*
X296903Y54725I1520J2362D01*
G01*
G75*
G02*
X299169Y57481I2809J0D01*
G01*
X249264D01*
G75*
G02*
X246224I-1520J2362D01*
G01*
X191385D01*
G75*
G02*
X191498Y56693I-2696J-787D01*
G01*
G75*
G02*
X185880I-2809J0D01*
G01*
G75*
G02*
X185992Y57481I2809J0D01*
G01*
X106458D01*
G37*
X302521Y54725D02*
G36*
X302521Y54725D02*
G75*
G02*
X301232Y52363I-2809J0D01*
G01*
X314339D01*
G75*
G02*
X319731I2696J-787D01*
G01*
X329270D01*
G75*
G02*
X330391I561J-2953D01*
G01*
X349069D01*
Y57481D01*
X344236D01*
G75*
G02*
X339476Y54736I-4760J2756D01*
G01*
X325697D01*
G75*
G02*
X320937Y57481I0J5500D01*
G01*
X300256D01*
G75*
G02*
X302521Y54725I-544J-2756D01*
G01*
G37*
X355081Y57481D02*
G36*
X355081Y57481D02*
Y52363D01*
X370340D01*
Y57481D01*
X355081D01*
G37*
X9793Y61811D02*
G36*
X9793Y61811D02*
Y57481D01*
X89029D01*
G75*
G02*
X94647I2809J0D01*
G01*
X98478D01*
Y57796D01*
X94463Y61811D01*
X42652D01*
G75*
G02*
X42679Y61418I-2777J-392D01*
G01*
G75*
G02*
Y61417I-3759J0D01*
G01*
G75*
G02*
X37061I-2809J0D01*
G01*
G75*
G02*
X37089Y61811I2810J-1D01*
G01*
X9793D01*
G37*
X106458Y59449D02*
G36*
X106458Y59449D02*
Y57481D01*
X185992D01*
G75*
G02*
X191385I2696J-787D01*
G01*
X246224D01*
G75*
G02*
X244935Y59843I1520J2362D01*
G01*
G75*
G02*
X245740Y61811I2809J0D01*
G01*
X105684D01*
G75*
G02*
X106458Y59450I-3215J-2361D01*
G01*
G75*
G02*
Y59449I-3470J0D01*
G01*
G37*
X250447Y61811D02*
G36*
X250447Y61811D02*
X249748D01*
G75*
G02*
X250553Y59843I-2004J-1969D01*
G01*
G75*
G02*
X249264Y57481I-2809J0D01*
G01*
X299169D01*
G75*
G02*
X300256I544J-2755D01*
G01*
X320937D01*
G75*
G02*
X320197Y60236I4760J2756D01*
G01*
Y61811D01*
X256065D01*
G75*
G02*
X250447I-2809J0D01*
G01*
G37*
X344976Y60236D02*
G36*
X344976Y60236D02*
G75*
G02*
X344236Y57481I-5500J0D01*
G01*
X349069D01*
Y61811D01*
X344976D01*
Y60236D01*
G37*
X355081Y61811D02*
G36*
X355081Y61811D02*
Y57481D01*
X370340D01*
Y61811D01*
X355081D01*
G37*
X9793Y65158D02*
G36*
X9793Y65158D02*
Y61811D01*
X37089D01*
G75*
G02*
X40630Y64122I2781J-394D01*
G01*
G75*
G02*
X40062Y65158I3177J2414D01*
G01*
X31109D01*
G75*
G02*
X31175Y64606I-2250J-551D01*
G01*
G75*
G02*
X26541I-2317J0D01*
G01*
G75*
G02*
X26608Y65158I2317J0D01*
G01*
X18195D01*
G75*
G02*
X15876I-1159J2559D01*
G01*
X9793D01*
G37*
X42289Y62845D02*
G36*
X42289Y62845D02*
G75*
G02*
X42652Y61811I-2416J-1428D01*
G01*
X94463D01*
X93729Y62545D01*
X43807D01*
G75*
G02*
X42289Y62845I-1J3986D01*
G01*
G37*
X102403Y65158D02*
G36*
X102403Y65158D02*
X105290Y62271D01*
G75*
G02*
X105684Y61811I-2820J-2821D01*
G01*
X245740D01*
G75*
G02*
X249748I2004J-1969D01*
G01*
X250447D01*
G75*
G02*
X256065I2809J0D01*
G01*
X320197D01*
Y65158D01*
X249365D01*
G75*
G02*
X243843Y64653I-2802J197D01*
G01*
G75*
G02*
X238242Y64961I-2792J308D01*
G01*
G75*
G02*
X238249Y65158I2809J-3D01*
G01*
X121018D01*
G75*
G02*
X115414I-2802J197D01*
G01*
X102403D01*
G37*
X344976D02*
G36*
X344976Y65158D02*
Y61811D01*
X349069D01*
Y65158D01*
X344976D01*
G37*
X355081D02*
G36*
X355081Y65158D02*
Y61811D01*
X370340D01*
Y65158D01*
X355081D01*
G37*
X9793Y68504D02*
G36*
X9793Y68504D02*
Y65158D01*
X15876D01*
G75*
G02*
X14226Y67717I1159J2559D01*
G01*
G75*
G02*
X14339Y68504I2809J0D01*
G01*
X9793D01*
G37*
X19844Y67717D02*
G36*
X19844Y67717D02*
G75*
G02*
X18195Y65158I-2809J0D01*
G01*
X26608D01*
G75*
G02*
X31109I2250J-552D01*
G01*
X40062D01*
G75*
G02*
X39817Y66535I3745J1378D01*
G01*
G75*
G02*
X40337Y68504I3990J0D01*
G01*
X19732D01*
G75*
G02*
X19844Y67717I-2696J-787D01*
G01*
G37*
X99056Y68504D02*
G36*
X99056Y68504D02*
X102403Y65158D01*
X115414D01*
G75*
G02*
X115407Y65355I2802J200D01*
G01*
G75*
G02*
X121025I2809J0D01*
G01*
G75*
G02*
X121018Y65158I-2809J3D01*
G01*
X238249D01*
G75*
G02*
X243771Y65663I2802J-197D01*
G01*
G75*
G02*
X249372Y65355I2792J-308D01*
G01*
G75*
G02*
X249365Y65158I-2809J3D01*
G01*
X320197D01*
Y68504D01*
X141802D01*
G75*
G02*
X137150I-2326J1575D01*
G01*
X111183D01*
G75*
G02*
X105565I-2809J0D01*
G01*
X99056D01*
G37*
X344976D02*
G36*
X344976Y68504D02*
Y65158D01*
X349069D01*
Y68504D01*
X344976D01*
G37*
X355081D02*
G36*
X355081Y68504D02*
Y65158D01*
X370340D01*
Y68504D01*
X355081D01*
G37*
X9793Y71654D02*
G36*
X9793Y71654D02*
Y68504D01*
X14339D01*
G75*
G02*
X19732I2696J-788D01*
G01*
X40337D01*
G75*
G02*
X40801Y69159I3470J-1969D01*
G01*
Y71654D01*
X9793D01*
G37*
X46813D02*
G36*
X46813Y71654D02*
Y70526D01*
X95378D01*
G75*
G02*
X98204Y69357I4J-3989D01*
G01*
X99056Y68504D01*
X105565D01*
G75*
G02*
X111183I2809J0D01*
G01*
X137150D01*
G75*
G02*
X136667Y70079I2326J1575D01*
G01*
G75*
G02*
X137150Y71654I2809J0D01*
G01*
X104096D01*
G75*
G02*
X98478I-2809J0D01*
G01*
X46813D01*
G37*
X142285Y70079D02*
G36*
X142285Y70079D02*
G75*
G02*
X141802Y68504I-2809J0D01*
G01*
X320197D01*
Y71654D01*
X237161D01*
G75*
G02*
X236074I-544J2755D01*
G01*
X179968D01*
G75*
G02*
X174575I-2696J787D01*
G01*
X141802D01*
G75*
G02*
X142285Y70079I-2326J-1575D01*
G01*
G37*
X344976Y71654D02*
G36*
X344976Y71654D02*
Y68504D01*
X349069D01*
Y71654D01*
X344976D01*
G37*
X355081D02*
G36*
X355081Y71654D02*
Y68504D01*
X370340D01*
Y70407D01*
G75*
G02*
X365014Y71654I-2517J1246D01*
G01*
Y71654D01*
X355081D01*
G37*
X9793Y74410D02*
G36*
X9793Y74410D02*
Y71654D01*
X40801D01*
Y74410D01*
X9793D01*
G37*
X46813D02*
G36*
X46813Y74410D02*
Y71654D01*
X98478D01*
G75*
G02*
X100743Y74410I2809J0D01*
G01*
X70919D01*
G75*
G02*
X67877I-1521J2362D01*
G01*
X46813D01*
G37*
X101831D02*
G36*
X101831Y74410D02*
G75*
G02*
X104096Y71654I-544J-2756D01*
G01*
X137150D01*
G75*
G02*
X141802I2326J-1575D01*
G01*
X174575D01*
G75*
G02*
X174462Y72441I2696J787D01*
G01*
G75*
G02*
X175267Y74410I2809J0D01*
G01*
X141921D01*
G75*
G02*
X137031I-2445J2362D01*
G01*
X101831D01*
G37*
X180080Y72441D02*
G36*
X180080Y72441D02*
G75*
G02*
X179968Y71654I-2809J0D01*
G01*
X236074D01*
G75*
G02*
X233809Y74410I544J2756D01*
G01*
X179275D01*
G75*
G02*
X180080Y72441I-2004J-1969D01*
G01*
G37*
X239427Y74410D02*
G36*
X239427Y74410D02*
G75*
G02*
X237161Y71654I-2809J0D01*
G01*
X320197D01*
Y74410D01*
X239427D01*
G37*
X344976D02*
G36*
X344976Y74410D02*
Y71654D01*
X349069D01*
Y74410D01*
X344976D01*
G37*
X355081D02*
G36*
X355081Y74410D02*
Y71654D01*
X365014D01*
G75*
G02*
X367282Y74410I2809J0D01*
G01*
X355081D01*
G37*
X368364D02*
G36*
X368364Y74410D02*
G75*
G02*
X370340Y72900I-541J-2756D01*
G01*
Y74410D01*
X368364D01*
G37*
X9793Y79134D02*
G36*
X9793Y79134D02*
Y74410D01*
X40801D01*
Y79134D01*
X9793D01*
G37*
X46813D02*
G36*
X46813Y79134D02*
Y74410D01*
X67877D01*
G75*
G02*
X66589Y76772I1521J2362D01*
G01*
G75*
G02*
X67878Y79134I2809J0D01*
G01*
X46813D01*
G37*
X72207Y76772D02*
G36*
X72207Y76772D02*
G75*
G02*
X70919Y74410I-2809J0D01*
G01*
X100743D01*
G75*
G02*
X101831I544J-2755D01*
G01*
X137031D01*
G75*
G02*
X136076Y76772I2445J2362D01*
G01*
G75*
G02*
X137031Y79134I3400J0D01*
G01*
X70918D01*
G75*
G02*
X72207Y76772I-1520J-2362D01*
G01*
G37*
X142876D02*
G36*
X142876Y76772D02*
G75*
G02*
X141921Y74410I-3400J0D01*
G01*
X175267D01*
G75*
G02*
X179275I2004J-1969D01*
G01*
X233809D01*
G75*
G02*
X239427I2809J0D01*
G01*
X320197D01*
Y79134D01*
X319844D01*
G75*
G02*
X314226I-2809J0D01*
G01*
X282443D01*
G75*
G02*
X276825I-2809J0D01*
G01*
X255246D01*
G75*
G02*
X251265I-1991J2756D01*
G01*
X243073D01*
G75*
G02*
X237455I-2809J0D01*
G01*
X141921D01*
G75*
G02*
X142876Y76772I-2445J-2362D01*
G01*
G37*
X344976Y79134D02*
G36*
X344976Y79134D02*
Y74410D01*
X349069D01*
Y79134D01*
X344976D01*
G37*
X355081D02*
G36*
X355081Y79134D02*
Y74410D01*
X367282D01*
G75*
G02*
X368364I541J-2756D01*
G01*
X370340D01*
Y79134D01*
X355081D01*
G37*
X9793Y84646D02*
G36*
X9793Y84646D02*
Y79134D01*
X40801D01*
Y84646D01*
X9793D01*
G37*
X46813D02*
G36*
X46813Y84646D02*
Y79134D01*
X67878D01*
G75*
G02*
X70918I1520J-2362D01*
G01*
X137031D01*
G75*
G02*
X141921I2445J-2362D01*
G01*
X237455D01*
G75*
G02*
X243073I2809J0D01*
G01*
X251265D01*
G75*
G02*
X249856Y81890I1991J2756D01*
G01*
G75*
G02*
X251266Y84646I3400J0D01*
G01*
X218663D01*
G75*
G02*
X213045I-2809J0D01*
G01*
X46813D01*
G37*
X256656Y81890D02*
G36*
X256656Y81890D02*
G75*
G02*
X255246Y79134I-3400J0D01*
G01*
X276825D01*
G75*
G02*
X282443I2809J0D01*
G01*
X314226D01*
G75*
G02*
X319844I2809J0D01*
G01*
X320197D01*
Y84646D01*
X255246D01*
G75*
G02*
X256656Y81890I-1990J-2756D01*
G01*
G37*
X344976Y84646D02*
G36*
X344976Y84646D02*
Y79134D01*
X349069D01*
Y84646D01*
X344976D01*
G37*
X355081D02*
G36*
X355081Y84646D02*
Y79134D01*
X370340D01*
Y84646D01*
X355081D01*
G37*
X9793Y88976D02*
G36*
X9793Y88976D02*
Y84646D01*
X40801D01*
Y88976D01*
X30520D01*
G75*
G02*
X31175Y87362I-1662J-1614D01*
G01*
G75*
G02*
X26541I-2317J0D01*
G01*
G75*
G02*
X27196Y88976I2317J0D01*
G01*
X9793D01*
G37*
X46813D02*
G36*
X46813Y88976D02*
Y84646D01*
X213045D01*
G75*
G02*
X218663I2809J0D01*
G01*
X251266D01*
G75*
G02*
X255246I1990J-2757D01*
G01*
X320197D01*
Y88976D01*
X224372D01*
G75*
G02*
X218754I-2809J0D01*
G01*
X183928D01*
G75*
G02*
X179276I-2326J1575D01*
G01*
X179033D01*
G75*
G02*
X173935I-2548J1182D01*
G01*
X46813D01*
G37*
X344976D02*
G36*
X344976Y88976D02*
Y84646D01*
X349069D01*
Y88976D01*
X344976D01*
G37*
X355081D02*
G36*
X355081Y88976D02*
Y84646D01*
X370340D01*
Y88976D01*
X355081D01*
G37*
X9793Y96457D02*
G36*
X9793Y96457D02*
Y88976D01*
X27196D01*
G75*
G02*
X30520I1662J-1614D01*
G01*
X40801D01*
Y89370D01*
G75*
G02*
X46813I3006J0D01*
G01*
Y88976D01*
X173935D01*
G75*
G02*
X173675Y90158I2549J1182D01*
G01*
G75*
G02*
X178956Y91493I2809J0D01*
G01*
G75*
G02*
X184411Y90551I2647J-941D01*
G01*
G75*
G02*
X183928Y88976I-2809J0D01*
G01*
X218754D01*
G75*
G02*
X224372I2809J0D01*
G01*
X320197D01*
Y96457D01*
X126054D01*
G75*
G02*
X121402I-2326J1575D01*
G01*
X44254D01*
G75*
G02*
X38636I-2809J0D01*
G01*
X9793D01*
G37*
X179131Y89217D02*
G36*
X179131Y89217D02*
G75*
G02*
X179033Y88976I-2647J940D01*
G01*
X179276D01*
G75*
G02*
X179131Y89217I2326J1575D01*
G01*
G37*
X344976Y96457D02*
G36*
X344976Y96457D02*
Y88976D01*
X349069D01*
Y96457D01*
X344976D01*
G37*
X355081D02*
G36*
X355081Y96457D02*
Y88976D01*
X370340D01*
Y96457D01*
X355081D01*
G37*
X9793Y99607D02*
G36*
X9793Y99607D02*
Y96457D01*
X38636D01*
G75*
G02*
X44254I2809J0D01*
G01*
X121402D01*
G75*
G02*
X120919Y98031I2326J1575D01*
G01*
G75*
G02*
X121402Y99607I2809J0D01*
G01*
X9793D01*
G37*
X126537Y98031D02*
G36*
X126537Y98031D02*
G75*
G02*
X126054Y96457I-2809J0D01*
G01*
X320197D01*
Y99607D01*
X214530D01*
G75*
G02*
X208911I-2809J0D01*
G01*
X126054D01*
G75*
G02*
X126537Y98031I-2326J-1575D01*
G01*
G37*
X344976Y99607D02*
G36*
X344976Y99607D02*
Y96457D01*
X349069D01*
Y99607D01*
X344976D01*
G37*
X355081D02*
G36*
X355081Y99607D02*
Y96457D01*
X370340D01*
Y99607D01*
X355081D01*
G37*
X9793Y103150D02*
G36*
X9793Y103150D02*
Y99607D01*
X121402D01*
G75*
G02*
X126054I2326J-1575D01*
G01*
X208911D01*
G75*
G02*
X214530I2809J0D01*
G01*
X320197D01*
Y103150D01*
X246527D01*
G75*
G02*
X241875I-2326J1575D01*
G01*
X220632D01*
G75*
G02*
X215014I-2809J0D01*
G01*
X107701D01*
G75*
G02*
X101087I-3307J787D01*
G01*
X9793D01*
G37*
X344976Y102339D02*
G36*
X344976Y102339D02*
Y99607D01*
X349069D01*
Y102479D01*
G75*
G02*
X344976Y102339I-2112J1852D01*
G01*
G37*
X355081Y103150D02*
G36*
X355081Y103150D02*
Y99607D01*
X370340D01*
Y103150D01*
X365120D01*
G75*
G02*
X359502I-2809J0D01*
G01*
X355081D01*
G37*
X9793Y107874D02*
G36*
X9793Y107874D02*
Y103150D01*
X101087D01*
G75*
G02*
X100994Y103937I3307J788D01*
G01*
G75*
G02*
X107793I3400J0D01*
G01*
G75*
G02*
X107701Y103150I-3400J0D01*
G01*
X215014D01*
G75*
G02*
X220632I2809J0D01*
G01*
X241875D01*
G75*
G02*
X241392Y104724I2326J1575D01*
G01*
G75*
G02*
X243247Y107367I2809J0D01*
G01*
G75*
G02*
X242211Y107874I954J3263D01*
G01*
X61674D01*
G75*
G02*
X60586I-544J2755D01*
G01*
X26931D01*
G75*
G02*
X21313I-2809J0D01*
G01*
X9793D01*
G37*
X246191D02*
G36*
X246191Y107874D02*
G75*
G02*
X245154Y107367I-1991J2756D01*
G01*
G75*
G02*
X247010Y104724I-954J-2643D01*
G01*
G75*
G02*
X246527Y103150I-2809J0D01*
G01*
X320197D01*
Y107874D01*
X246191D01*
G37*
X355081D02*
G36*
X355081Y107874D02*
Y103150D01*
X359502D01*
G75*
G02*
X365120I2809J0D01*
G01*
X370340D01*
Y107874D01*
X355081D01*
G37*
X9793Y110630D02*
G36*
X9793Y110630D02*
Y107874D01*
X21313D01*
G75*
G02*
X23578Y110630I2809J0D01*
G01*
X9793D01*
G37*
X24666D02*
G36*
X24666Y110630D02*
G75*
G02*
X26931Y107874I-544J-2756D01*
G01*
X60586D01*
G75*
G02*
X58321Y110630I544J2756D01*
G01*
X24666D01*
G37*
X63939D02*
G36*
X63939Y110630D02*
G75*
G02*
X61674Y107874I-2809J0D01*
G01*
X242211D01*
G75*
G02*
X240801Y110630I1991J2756D01*
G01*
X110288D01*
G75*
G02*
X107248I-1520J2362D01*
G01*
X63939D01*
G37*
X247600D02*
G36*
X247600Y110630D02*
G75*
G02*
X246191Y107874I-3400J0D01*
G01*
X320197D01*
Y110630D01*
X247600D01*
G37*
X355081D02*
G36*
X355081Y110630D02*
Y107874D01*
X370340D01*
Y110630D01*
X355081D01*
G37*
X9793Y114567D02*
G36*
X9793Y114567D02*
Y110630D01*
X23578D01*
G75*
G02*
X24666I544J-2755D01*
G01*
X58321D01*
G75*
G02*
X63939I2809J0D01*
G01*
X107248D01*
G75*
G02*
X105959Y112992I1520J2362D01*
G01*
G75*
G02*
X106442Y114567I2809J0D01*
G01*
X95829D01*
G75*
G02*
X90211I-2809J0D01*
G01*
X9793D01*
G37*
X111577Y112992D02*
G36*
X111577Y112992D02*
G75*
G02*
X110288Y110630I-2809J0D01*
G01*
X240801D01*
G75*
G02*
X247600I3400J0D01*
G01*
X320197D01*
Y114567D01*
X111094D01*
G75*
G02*
X111577Y112992I-2326J-1575D01*
G01*
G37*
X355081Y114567D02*
G36*
X355081Y114567D02*
Y110630D01*
X370340D01*
Y114567D01*
X355081D01*
G37*
X9793Y118504D02*
G36*
X9793Y118504D02*
Y114567D01*
X90211D01*
G75*
G02*
X95829I2809J0D01*
G01*
X106442D01*
G75*
G02*
X111094I2326J-1575D01*
G01*
X320197D01*
Y118504D01*
X319844D01*
G75*
G02*
X314226I-2809J0D01*
G01*
X282443D01*
G75*
G02*
X276825I-2809J0D01*
G01*
X242724D01*
G75*
G02*
X240165I-1280J3150D01*
G01*
X203703D01*
G75*
G02*
X198085I-2809J0D01*
G01*
X164333D01*
G75*
G02*
X158715I-2809J0D01*
G01*
X93752D01*
G75*
G02*
X90712I-1520J2362D01*
G01*
X32354D01*
G75*
G02*
X27702I-2326J1575D01*
G01*
X9793D01*
G37*
X355081D02*
G36*
X355081Y118504D02*
Y114567D01*
X370340D01*
Y118504D01*
X355081D01*
G37*
X9793Y125197D02*
G36*
X9793Y125197D02*
Y118504D01*
X27702D01*
G75*
G02*
X27219Y120079I2326J1575D01*
G01*
G75*
G02*
X32837I2809J0D01*
G01*
G75*
G02*
X32354Y118504I-2809J0D01*
G01*
X90712D01*
G75*
G02*
X89423Y120866I1520J2362D01*
G01*
G75*
G02*
X95041I2809J0D01*
G01*
G75*
G02*
X93752Y118504I-2809J0D01*
G01*
X158715D01*
G75*
G02*
X164333I2809J0D01*
G01*
X198085D01*
G75*
G02*
X203703I2809J0D01*
G01*
X240165D01*
G75*
G02*
X238045Y121654I1280J3150D01*
G01*
G75*
G02*
X244844I3400J0D01*
G01*
G75*
G02*
X242724Y118504I-3400J0D01*
G01*
X276825D01*
G75*
G02*
X282443I2809J0D01*
G01*
X314226D01*
G75*
G02*
X319844I2809J0D01*
G01*
X320197D01*
Y125197D01*
X9793D01*
G37*
X355081D02*
G36*
X355081Y125197D02*
Y118504D01*
X370340D01*
Y125197D01*
X367089D01*
G75*
G02*
X361470I-2809J0D01*
G01*
X355081D01*
G37*
X9793Y129134D02*
G36*
X9793Y129134D02*
Y125197D01*
X320197D01*
Y129134D01*
X91104D01*
G75*
G02*
X85486I-2809J0D01*
G01*
X23388D01*
G75*
G02*
X17770I-2809J0D01*
G01*
X9793D01*
G37*
X355081D02*
G36*
X355081Y129134D02*
Y125197D01*
X361470D01*
G75*
G02*
X367089I2809J0D01*
G01*
X370340D01*
Y129134D01*
X355081D01*
G37*
X9793Y132283D02*
G36*
X9793Y132283D02*
Y129134D01*
X17770D01*
G75*
G02*
X23388I2809J0D01*
G01*
X85486D01*
G75*
G02*
X91104I2809J0D01*
G01*
X320197D01*
Y132283D01*
X46222D01*
G75*
G02*
X40604I-2809J0D01*
G01*
X9793D01*
G37*
X355081D02*
G36*
X355081Y132283D02*
Y129134D01*
X370340D01*
Y132283D01*
X355081D01*
G37*
X9793Y136221D02*
G36*
X9793Y136221D02*
Y132283D01*
X40604D01*
G75*
G02*
X46222I2809J0D01*
G01*
X320197D01*
Y136221D01*
X175750D01*
G75*
G02*
X170131I-2809J0D01*
G01*
X9793D01*
G37*
X355081D02*
G36*
X355081Y136221D02*
Y132283D01*
X370340D01*
Y136221D01*
X355081D01*
G37*
X9793Y144094D02*
G36*
X9793Y144094D02*
Y136221D01*
X170131D01*
G75*
G02*
X175750I2809J0D01*
G01*
X320197D01*
Y144094D01*
X94844D01*
G75*
G02*
X88045I-3400J0D01*
G01*
X9793D01*
G37*
X355081D02*
G36*
X355081Y144094D02*
Y136221D01*
X370340D01*
Y144094D01*
X355081D01*
G37*
X9793Y152362D02*
G36*
X9793Y152362D02*
Y144094D01*
X88045D01*
G75*
G02*
X94844I3400J0D01*
G01*
X320197D01*
Y152362D01*
X227325D01*
G75*
G02*
X221707I-2809J0D01*
G01*
X9793D01*
G37*
X355081D02*
G36*
X355081Y152362D02*
Y144094D01*
X370340D01*
Y152362D01*
X355081D01*
G37*
X9793Y157874D02*
G36*
X9793Y157874D02*
Y152362D01*
X221707D01*
G75*
G02*
X227325I2809J0D01*
G01*
X320197D01*
Y157874D01*
X319844D01*
G75*
G02*
X314226I-2809J0D01*
G01*
X282443D01*
G75*
G02*
X276825I-2809J0D01*
G01*
X243073D01*
G75*
G02*
X237455I-2809J0D01*
G01*
X164333D01*
G75*
G02*
X158715I-2809J0D01*
G01*
X128506D01*
G75*
G02*
X122888I-2809J0D01*
G01*
X98567D01*
G75*
G02*
X99372Y155906I-2004J-1969D01*
G01*
G75*
G02*
X93754I-2809J0D01*
G01*
G75*
G02*
X94559Y157874I2809J0D01*
G01*
X81305D01*
G75*
G02*
X75687I-2809J0D01*
G01*
X33118D01*
G75*
G02*
X33230Y157087I-2696J-787D01*
G01*
G75*
G02*
X27612I-2809J0D01*
G01*
G75*
G02*
X27725Y157874I2809J0D01*
G01*
X9793D01*
G37*
X355081D02*
G36*
X355081Y157874D02*
Y152362D01*
X370340D01*
Y157874D01*
X355081D01*
G37*
X9793Y162992D02*
G36*
X9793Y162992D02*
Y157874D01*
X27725D01*
G75*
G02*
X33118I2696J-787D01*
G01*
X75687D01*
G75*
G02*
X81305I2809J0D01*
G01*
X94559D01*
G75*
G02*
X98567I2004J-1969D01*
G01*
X122888D01*
G75*
G02*
X128506I2809J0D01*
G01*
X158715D01*
G75*
G02*
X164333I2809J0D01*
G01*
X237455D01*
G75*
G02*
X243073I2809J0D01*
G01*
X276825D01*
G75*
G02*
X282443I2809J0D01*
G01*
X314226D01*
G75*
G02*
X319844I2809J0D01*
G01*
X320197D01*
Y162992D01*
X225059D01*
G75*
G02*
X223972I-544J2755D01*
G01*
X9793D01*
G37*
X355081D02*
G36*
X355081Y162992D02*
Y157874D01*
X370340D01*
Y162992D01*
X368162D01*
G75*
G02*
X365122I-1520J2362D01*
G01*
X362167D01*
G75*
G02*
X355368I-3400J0D01*
G01*
X355081D01*
G37*
X9793Y165748D02*
G36*
X9793Y165748D02*
Y162992D01*
X223972D01*
G75*
G02*
X221707Y165748I544J2756D01*
G01*
X151251D01*
G75*
G02*
X146599I-2326J1575D01*
G01*
X9793D01*
G37*
X227325D02*
G36*
X227325Y165748D02*
G75*
G02*
X225059Y162992I-2809J0D01*
G01*
X320197D01*
Y165748D01*
X227325D01*
G37*
X355081D02*
G36*
X355081Y165748D02*
Y162992D01*
X355368D01*
G75*
G02*
X356777Y165748I3400J0D01*
G01*
X355081D01*
G37*
X360758D02*
G36*
X360758Y165748D02*
G75*
G02*
X362167Y162992I-1991J-2756D01*
G01*
X365122D01*
G75*
G02*
X363833Y165354I1520J2362D01*
G01*
G75*
G02*
X363860Y165748I2809J1D01*
G01*
X360758D01*
G37*
X369451Y165354D02*
G36*
X369451Y165354D02*
G75*
G02*
X368162Y162992I-2809J0D01*
G01*
X370340D01*
Y165748D01*
X369423D01*
G75*
G02*
X369451Y165354I-2781J-393D01*
G01*
G37*
X9793Y169685D02*
G36*
X9793Y169685D02*
Y165748D01*
X146599D01*
G75*
G02*
X146116Y167323I2326J1575D01*
G01*
G75*
G02*
X147405Y169685I2809J0D01*
G01*
X79669D01*
G75*
G02*
X75661I-2004J1969D01*
G01*
X9793D01*
G37*
X151734Y167323D02*
G36*
X151734Y167323D02*
G75*
G02*
X151251Y165748I-2809J0D01*
G01*
X221707D01*
G75*
G02*
X227325I2809J0D01*
G01*
X320197D01*
Y169685D01*
X182837D01*
G75*
G02*
X177219I-2809J0D01*
G01*
X157737D01*
G75*
G02*
X156649I-544J2755D01*
G01*
X150445D01*
G75*
G02*
X151734Y167323I-1520J-2362D01*
G01*
G37*
X355081Y169685D02*
G36*
X355081Y169685D02*
Y165748D01*
X356777D01*
G75*
G02*
X360758I1991J-2756D01*
G01*
X363860D01*
G75*
G02*
X369423I2781J-394D01*
G01*
X370340D01*
Y169685D01*
X355081D01*
G37*
X9793Y173622D02*
G36*
X9793Y173622D02*
Y169685D01*
X75661D01*
G75*
G02*
X74856Y171654I2004J1969D01*
G01*
G75*
G02*
X75661Y173622I2809J0D01*
G01*
X9793D01*
G37*
X80474Y171654D02*
G36*
X80474Y171654D02*
G75*
G02*
X79669Y169685I-2809J0D01*
G01*
X147405D01*
G75*
G02*
X150445I1520J-2362D01*
G01*
X156649D01*
G75*
G02*
X154384Y172441I544J2756D01*
G01*
G75*
G02*
X154644Y173622I2809J0D01*
G01*
X79669D01*
G75*
G02*
X80474Y171654I-2004J-1969D01*
G01*
G37*
X160002Y172441D02*
G36*
X160002Y172441D02*
G75*
G02*
X157737Y169685I-2809J0D01*
G01*
X177219D01*
G75*
G02*
X182837I2809J0D01*
G01*
X320197D01*
Y173622D01*
X246579D01*
G75*
G02*
X241035I-2772J1969D01*
G01*
X194648D01*
G75*
G02*
X189030I-2809J0D01*
G01*
X159742D01*
G75*
G02*
X160002Y172441I-2549J-1181D01*
G01*
G37*
X355081Y173622D02*
G36*
X355081Y173622D02*
Y169685D01*
X370340D01*
Y173622D01*
X355081D01*
G37*
X9793Y178346D02*
G36*
X9793Y178346D02*
Y173622D01*
X75661D01*
G75*
G02*
X79669I2004J-1969D01*
G01*
X154644D01*
G75*
G02*
X159742I2549J-1181D01*
G01*
X189030D01*
G75*
G02*
X194648I2809J0D01*
G01*
X241035D01*
G75*
G02*
X240407Y175591I2772J1969D01*
G01*
G75*
G02*
X241817Y178346I3400J0D01*
G01*
X227325D01*
G75*
G02*
X221707I-2809J0D01*
G01*
X9793D01*
G37*
X247207Y175591D02*
G36*
X247207Y175591D02*
G75*
G02*
X246579Y173622I-3400J0D01*
G01*
X320197D01*
Y178346D01*
X245798D01*
G75*
G02*
X247207Y175591I-1991J-2756D01*
G01*
G37*
X355081Y178346D02*
G36*
X355081Y178346D02*
Y173622D01*
X370340D01*
Y178346D01*
X355081D01*
G37*
X9793Y185039D02*
G36*
X9793Y185039D02*
Y178346D01*
X221707D01*
G75*
G02*
X227325I2809J0D01*
G01*
X241817D01*
G75*
G02*
X245798I1991J-2756D01*
G01*
X320197D01*
Y185039D01*
X273191D01*
Y182678D01*
G75*
G02*
X267179I-3006J0D01*
G01*
Y185039D01*
X167679D01*
G75*
G02*
X160880I-3400J0D01*
G01*
X95801D01*
G75*
G02*
X90238I-2781J394D01*
G01*
X9793D01*
G37*
X355081D02*
G36*
X355081Y185039D02*
Y178346D01*
X370340D01*
Y185039D01*
X355081D01*
G37*
X9793Y188976D02*
G36*
X9793Y188976D02*
Y185039D01*
X90238D01*
G75*
G02*
X90211Y185433I2781J393D01*
G01*
G75*
G02*
X95829I2809J0D01*
G01*
G75*
G02*
X95801Y185039I-2809J-1D01*
G01*
X160880D01*
G75*
G02*
X167679I3400J0D01*
G01*
X267179D01*
Y188976D01*
X176931D01*
G75*
G02*
X171313I-2809J0D01*
G01*
X153443D01*
G75*
G02*
X148345I-2549J1181D01*
G01*
X109411D01*
G75*
G02*
X102612I-3400J0D01*
G01*
X9793D01*
G37*
X273191D02*
G36*
X273191Y188976D02*
Y185039D01*
X320197D01*
Y188976D01*
X273191D01*
G37*
X355081D02*
G36*
X355081Y188976D02*
Y185039D01*
X370340D01*
Y188976D01*
X355081D01*
G37*
X9793Y197244D02*
G36*
X9793Y197244D02*
Y188976D01*
X102612D01*
G75*
G02*
X109411I3400J0D01*
G01*
X148345D01*
G75*
G02*
X148085Y190157I2549J1181D01*
G01*
G75*
G02*
X153703I2809J0D01*
G01*
G75*
G02*
X153443Y188976I-2809J0D01*
G01*
X171313D01*
G75*
G02*
X176931I2809J0D01*
G01*
X267179D01*
Y197244D01*
X247010D01*
G75*
G02*
X241392I-2809J0D01*
G01*
X203703D01*
G75*
G02*
X198085I-2809J0D01*
G01*
X119941D01*
G75*
G02*
X118854I-544J2755D01*
G01*
X85593D01*
G75*
G02*
X79974I-2809J0D01*
G01*
X33511D01*
G75*
G02*
X33624Y196457I-2696J-787D01*
G01*
G75*
G02*
X28006I-2809J0D01*
G01*
G75*
G02*
X28119Y197244I2809J0D01*
G01*
X9793D01*
G37*
X273191D02*
G36*
X273191Y197244D02*
Y188976D01*
X320197D01*
Y197244D01*
X319844D01*
G75*
G02*
X314226I-2809J0D01*
G01*
X285958D01*
G75*
G02*
X285986Y196851I-2781J-393D01*
G01*
G75*
G02*
X280368I-2809J0D01*
G01*
G75*
G02*
X280395Y197244I2809J1D01*
G01*
X273191D01*
G37*
X355081D02*
G36*
X355081Y197244D02*
Y188976D01*
X370340D01*
Y197244D01*
X361183D01*
G75*
G02*
X355565I-2809J0D01*
G01*
X355081D01*
G37*
X9793Y201575D02*
G36*
X9793Y201575D02*
Y197244D01*
X28119D01*
G75*
G02*
X33511I2696J-787D01*
G01*
X79974D01*
G75*
G02*
X85593I2809J0D01*
G01*
X118854D01*
G75*
G02*
X116589Y200000I544J2756D01*
G01*
G75*
G02*
X117072Y201575I2809J0D01*
G01*
X115120D01*
G75*
G02*
X109502I-2809J0D01*
G01*
X9793D01*
G37*
X122207Y200000D02*
G36*
X122207Y200000D02*
G75*
G02*
X119941Y197244I-2809J0D01*
G01*
X198085D01*
G75*
G02*
X203703I2809J0D01*
G01*
X241392D01*
G75*
G02*
X247010I2809J0D01*
G01*
X267179D01*
Y201575D01*
X121724D01*
G75*
G02*
X122207Y200000I-2326J-1575D01*
G01*
G37*
X273191Y201575D02*
G36*
X273191Y201575D02*
Y197244D01*
X280395D01*
G75*
G02*
X285958I2781J-393D01*
G01*
X314226D01*
G75*
G02*
X319844I2809J0D01*
G01*
X320197D01*
Y201575D01*
X273191D01*
G37*
X355081D02*
G36*
X355081Y201575D02*
Y197244D01*
X355565D01*
G75*
G02*
X361183I2809J0D01*
G01*
X370340D01*
Y201575D01*
X355081D01*
G37*
X9793Y208268D02*
G36*
X9793Y208268D02*
Y201575D01*
X109502D01*
G75*
G02*
X115120I2809J0D01*
G01*
X117072D01*
G75*
G02*
X121724I2326J-1575D01*
G01*
X267179D01*
Y208268D01*
X215907D01*
G75*
G02*
X210289I-2809J0D01*
G01*
X101750D01*
G75*
G02*
X96187I-2781J394D01*
G01*
X9793D01*
G37*
X273191D02*
G36*
X273191Y208268D02*
Y201575D01*
X320197D01*
Y208268D01*
X273191D01*
G37*
X355081D02*
G36*
X355081Y208268D02*
Y201575D01*
X370340D01*
Y208268D01*
X355081D01*
G37*
X9793Y214173D02*
G36*
X9793Y214173D02*
Y208268D01*
X96187D01*
G75*
G02*
X96159Y208661I2781J393D01*
G01*
G75*
G02*
X101778I2809J0D01*
G01*
G75*
G02*
X101750Y208268I-2809J-1D01*
G01*
X210289D01*
G75*
G02*
X215907I2809J0D01*
G01*
X267179D01*
Y214173D01*
X233606D01*
G75*
G02*
X234411Y212205I-2004J-1969D01*
G01*
G75*
G02*
X228793I-2809J0D01*
G01*
Y212205D01*
G75*
G02*
X229368Y213908I2808J0D01*
G01*
G75*
G02*
X225661Y214173I-1703J2234D01*
G01*
X128023D01*
G75*
G02*
X128506Y212598I-2326J-1575D01*
G01*
G75*
G02*
X122888I-2809J0D01*
G01*
G75*
G02*
X123371Y214173I2809J0D01*
G01*
X9793D01*
G37*
X273191D02*
G36*
X273191Y214173D02*
Y208268D01*
X320197D01*
Y214173D01*
X273191D01*
G37*
X355081D02*
G36*
X355081Y214173D02*
Y208268D01*
X370340D01*
Y214173D01*
X355081D01*
G37*
X9793Y220079D02*
G36*
X9793Y220079D02*
Y214173D01*
X123371D01*
G75*
G02*
X128023I2326J-1575D01*
G01*
X225661D01*
G75*
G02*
X224856Y216142I2004J1969D01*
G01*
G75*
G02*
X230474I2809J0D01*
G01*
Y216141D01*
G75*
G02*
X229899Y214439I-2808J0D01*
G01*
G75*
G02*
X233606Y214173I1703J-2234D01*
G01*
X267179D01*
Y220079D01*
X212955D01*
G75*
G02*
X206156I-3400J0D01*
G01*
X119191D01*
G75*
G02*
X119451Y218898I-2549J-1181D01*
G01*
G75*
G02*
X113833I-2809J0D01*
G01*
G75*
G02*
X114093Y220079I2809J0D01*
G01*
X9793D01*
G37*
X273191D02*
G36*
X273191Y220079D02*
Y214173D01*
X320197D01*
Y220079D01*
X273191D01*
G37*
X355081D02*
G36*
X355081Y220079D02*
Y214173D01*
X370340D01*
Y220079D01*
X355081D01*
G37*
X9793Y229134D02*
G36*
X9793Y229134D02*
Y220079D01*
X114093D01*
G75*
G02*
X119191I2549J-1181D01*
G01*
X206156D01*
G75*
G02*
X212955I3400J0D01*
G01*
X267179D01*
Y229134D01*
X178900D01*
G75*
G02*
X173281I-2809J0D01*
G01*
X172797D01*
Y227953D01*
G75*
G02*
X171916Y225827I-3006J0D01*
G01*
X168767Y222678D01*
G75*
G02*
X166641Y221797I-2126J2125D01*
G01*
X158189D01*
G75*
G02*
X154025Y224804I-997J3006D01*
G01*
G75*
G02*
X158192Y227809I3167J0D01*
G01*
X165396D01*
X166720Y229134D01*
X9793D01*
G37*
X273191D02*
G36*
X273191Y229134D02*
Y220079D01*
X320197D01*
Y229134D01*
X273191D01*
G37*
X355081D02*
G36*
X355081Y229134D02*
Y220079D01*
X370340D01*
Y229134D01*
X355081D01*
G37*
X9793Y236614D02*
G36*
X9793Y236614D02*
Y229134D01*
X166720D01*
X166785Y229198D01*
Y236614D01*
X26112D01*
G75*
G02*
X17407I-4353J5906D01*
G01*
X9793D01*
G37*
X172797D02*
G36*
X172797Y236614D02*
Y229134D01*
X173281D01*
G75*
G02*
X178900I2809J0D01*
G01*
X267179D01*
Y236614D01*
X247010D01*
G75*
G02*
X241392I-2809J0D01*
G01*
X172797D01*
G37*
X273191D02*
G36*
X273191Y236614D02*
Y229134D01*
X320197D01*
Y236614D01*
X319844D01*
G75*
G02*
X314226I-2809J0D01*
G01*
X282443D01*
G75*
G02*
X276825I-2809J0D01*
G01*
X273191D01*
G37*
X355081D02*
G36*
X355081Y236614D02*
Y229134D01*
X370340D01*
Y236614D01*
X361183D01*
G75*
G02*
X355565I-2809J0D01*
G01*
X355081D01*
G37*
X9793Y243701D02*
G36*
X9793Y243701D02*
Y236614D01*
X17407D01*
G75*
G02*
X14423Y242520I4353J5906D01*
G01*
G75*
G02*
X14519Y243701I7337J0D01*
G01*
X9793D01*
G37*
X29096Y242520D02*
G36*
X29096Y242520D02*
G75*
G02*
X26112Y236614I-7337J0D01*
G01*
X166785D01*
Y243701D01*
X159889D01*
G75*
G02*
X160002Y242913I-2696J-787D01*
G01*
G75*
G02*
X154384I-2809J0D01*
G01*
G75*
G02*
X154496Y243701I2809J0D01*
G01*
X63773D01*
G75*
G02*
X63939Y242717I-2840J-984D01*
G01*
G75*
G02*
X57927I-3006J0D01*
G01*
G75*
G02*
X58093Y243701I3006J0D01*
G01*
X29000D01*
G75*
G02*
X29096Y242520I-7241J-1181D01*
G01*
G37*
X172797Y243701D02*
G36*
X172797Y243701D02*
Y236614D01*
X241392D01*
G75*
G02*
X247010I2809J0D01*
G01*
X267179D01*
Y243701D01*
X212364D01*
G75*
G02*
X206746I-2809J0D01*
G01*
X172797D01*
G37*
X273191D02*
G36*
X273191Y243701D02*
Y236614D01*
X276825D01*
G75*
G02*
X282443I2809J0D01*
G01*
X314226D01*
G75*
G02*
X319844I2809J0D01*
G01*
X320197D01*
Y243701D01*
X273191D01*
G37*
X355081D02*
G36*
X355081Y243701D02*
Y236614D01*
X355565D01*
G75*
G02*
X361183I2809J0D01*
G01*
X370340D01*
Y243701D01*
X355081D01*
G37*
X9793Y252303D02*
G36*
X9793Y252303D02*
Y243701D01*
X14519D01*
G75*
G02*
X29000I7241J-1181D01*
G01*
X58093D01*
G75*
G02*
X63773I2840J-984D01*
G01*
X154496D01*
G75*
G02*
X159889I2696J-787D01*
G01*
X166785D01*
Y248819D01*
G75*
G02*
X167666Y250945I3006J0D01*
G01*
X170815Y254094D01*
G75*
G02*
X171299Y254487I2132J-2132D01*
G01*
X11977D01*
X9793Y252303D01*
G37*
X172797Y247574D02*
G36*
X172797Y247574D02*
Y243701D01*
X206746D01*
G75*
G02*
X212364I2809J0D01*
G01*
X267179D01*
Y248963D01*
X174186D01*
X172797Y247574D01*
G37*
X273191Y248963D02*
G36*
X273191Y248963D02*
Y243701D01*
X320197D01*
Y244488D01*
G75*
G02*
X322498Y248963I5500J0D01*
G01*
X274733D01*
G75*
G02*
X274297I-218J3012D01*
G01*
X273191D01*
G37*
X350567Y254487D02*
G36*
X350567Y254487D02*
G75*
G02*
X351051Y254093I-1642J-2519D01*
G01*
X354200Y250945D01*
G75*
G02*
X355081Y248819I-2125J-2126D01*
G01*
Y243701D01*
X370340D01*
Y252303D01*
X368156Y254487D01*
X350567D01*
G37*
D02*
D111*
X90165Y144094D02*
X87803D01*
X91445Y142815D02*
Y140453D01*
Y145374D02*
Y147736D01*
X92724Y144094D02*
X95087D01*
X103114Y103937D02*
X100752D01*
X104394Y102657D02*
Y100295D01*
Y105217D02*
Y107579D01*
X104732Y188976D02*
X102370D01*
X105673Y103937D02*
X108035D01*
X106012Y187697D02*
Y185335D01*
Y190256D02*
Y192618D01*
X107291Y188976D02*
X109654D01*
X138196Y76772D02*
X135834D01*
X139476Y75492D02*
Y73130D01*
Y78051D02*
Y80413D01*
X140756Y76772D02*
X143118D01*
X163000Y185039D02*
X160638D01*
X164280Y183760D02*
Y181398D01*
Y186319D02*
Y188681D01*
X165559Y185039D02*
X167921D01*
X208276Y220079D02*
X205913D01*
X209555Y218799D02*
Y216437D01*
Y221358D02*
Y223720D01*
X210835Y220079D02*
X213197D01*
X240165Y121654D02*
X237803D01*
X241445Y120374D02*
Y118012D01*
Y122933D02*
Y125295D01*
X242528Y175591D02*
X240165D01*
X242724Y121654D02*
X245087D01*
X243296Y109725D02*
X241626Y108055D01*
X243296Y111535D02*
X241626Y113205D01*
X243807Y174311D02*
Y171949D01*
Y176870D02*
Y179232D01*
X245087Y175591D02*
X247449D01*
X245106Y109725D02*
X246776Y108055D01*
X245106Y111535D02*
X246776Y113205D01*
X251976Y81890D02*
X249614D01*
X253256Y80610D02*
Y78248D01*
Y83169D02*
Y85531D01*
X254535Y81890D02*
X256898D01*
X357863Y162087D02*
X356193Y160417D01*
X357863Y163897D02*
X356193Y165567D01*
X359672Y162087D02*
X361343Y160417D01*
X359672Y163897D02*
X361343Y165567D01*
D02*
D112*
X17035Y67717D03*
X20579Y129134D03*
X22547Y11811D03*
Y27559D03*
X24122Y107874D03*
X30028Y32677D03*
Y120079D03*
X30421Y157087D03*
X30815Y196457D03*
X37508Y11811D03*
Y27559D03*
X39870Y61417D03*
X41445Y96457D03*
X43020Y14173D03*
Y25197D03*
X43413Y132283D03*
X43807Y66535D03*
Y89370D03*
X61130Y110630D03*
X64279Y14173D03*
Y26378D03*
Y33465D03*
Y39764D03*
Y45276D03*
X65460Y51969D03*
X65854Y130315D03*
X69398Y76772D03*
X69791Y14567D03*
X76878D03*
Y25984D03*
Y34252D03*
X77665Y171654D03*
X78496Y157874D03*
X82389Y20079D03*
Y39764D03*
Y45669D03*
Y50788D03*
X82783Y197244D03*
X88295Y52363D03*
X88295Y129134D03*
X91445Y144094D03*
X91838Y57481D03*
X92232Y120866D03*
X93020Y114567D03*
Y185433D03*
X96563Y155906D03*
X98969Y208661D03*
X101287Y71654D03*
X104394Y103937D03*
X106012Y188976D03*
X108374Y68504D03*
X108768Y112992D03*
X112311Y201575D03*
X113885Y228347D03*
Y233859D03*
Y239370D03*
X116642Y218898D03*
X118216Y65355D03*
X119398Y200000D03*
X122153Y47638D03*
X123728Y98031D03*
X125697Y157874D03*
Y212598D03*
X139476Y70079D03*
Y76772D03*
X148925Y167323D03*
X150894Y190157D03*
X156405Y14174D03*
X157193Y172441D03*
Y224803D03*
Y233858D03*
Y242913D03*
X161524Y118504D03*
Y157874D03*
X164280Y185039D03*
X172941Y136221D03*
X174122Y188976D03*
X176091Y229134D03*
X176484Y52363D03*
Y90158D03*
X177271Y72441D03*
X180028Y169685D03*
X181602Y90551D03*
X188689Y56693D03*
X191839Y173622D03*
X200894Y118504D03*
Y197244D03*
X209555Y220079D03*
Y243701D03*
X211720Y99607D03*
X213098Y208268D03*
X215854Y84646D03*
X217823Y103150D03*
X221563Y88976D03*
X224516Y152362D03*
Y165748D03*
Y178346D03*
X226090Y50000D03*
X227665Y216142D03*
X231602Y212205D03*
X236618Y74410D03*
X240264Y79134D03*
Y157874D03*
X241051Y64961D03*
X241445Y121654D03*
X243807Y175591D03*
X244201Y104724D03*
Y110630D03*
Y197244D03*
Y236614D03*
X246563Y65355D03*
X247744Y59843D03*
X253256Y61811D03*
Y81890D03*
X265460Y53937D03*
X265854Y14174D03*
X270185Y182678D03*
X279634Y79134D03*
Y118504D03*
Y157874D03*
Y236614D03*
X280421Y12993D03*
X283177Y196851D03*
X299712Y54725D03*
X304437Y21260D03*
X317035Y51575D03*
X317035Y79134D03*
Y118504D03*
Y157874D03*
Y197244D03*
Y236614D03*
X346957Y104331D03*
Y114173D03*
Y118898D03*
X347350Y161024D03*
X352075Y38583D03*
X358374Y197244D03*
Y236614D03*
X358768Y162992D03*
X362311Y103150D03*
X364280Y125197D03*
X366642Y165354D03*
X367429Y33858D03*
X367823Y71654D03*
D02*
D113*
X43807Y89370D02*
Y89764D01*
D02*
D114*
X116618Y28859D03*
Y38859D03*
X126618Y28859D03*
Y38859D03*
X136618Y28859D03*
Y38859D03*
X146618Y28859D03*
Y38859D03*
X156618Y28859D03*
Y38859D03*
X166618Y28859D03*
Y38859D03*
X176618Y28859D03*
Y38859D03*
X186618Y28859D03*
Y38859D03*
X196618Y28859D03*
Y38859D03*
X206618Y28859D03*
Y38859D03*
X216618Y28859D03*
Y38859D03*
X226618Y28859D03*
Y38859D03*
X236618Y28859D03*
Y38859D03*
X246618Y28859D03*
Y38859D03*
X256618Y28859D03*
Y38859D03*
X266618Y28859D03*
Y38859D03*
X276618Y28859D03*
Y38859D03*
X286618Y28859D03*
Y38859D03*
X296618Y28859D03*
Y38859D03*
X306618Y28859D03*
Y38859D03*
D02*
D121*
X43807Y89370D02*
Y66535D01*
X157193Y224804D02*
X157193Y224803D01*
X166641D01*
X169791Y227953D01*
Y248819D01*
X172941Y251969D01*
X270185D01*
Y182678D02*
Y251969D01*
X274515D01*
X274515Y251969D01*
X348925D01*
X352075Y248819D01*
Y38583D01*
D02*
D122*
X43807Y66535D02*
X95382D01*
X102468Y59449D01*
Y24016D01*
X106405Y20079D01*
X293807D01*
X296563Y22835D01*
Y28804D01*
X296618Y28859D01*
X317153D01*
X326878Y38583D01*
X350894D01*
X350894Y38583D01*
X352075D01*
X0Y0D02*
M02*
