G04 DesignSpark PCB PRO Gerber Version 10.0 Build 5299*
G04 #@! TF.Part,Single*
G04 #@! TF.FileFunction,Soldermask,Top*
G04 #@! TF.FilePolarity,Negative*
%FSLAX35Y35*%
%MOIN*%
G04 #@! TA.AperFunction,ComponentPad*
%ADD29C,0.02280*%
G04 #@! TA.AperFunction,ViaPad*
%ADD10C,0.04543*%
G04 #@! TA.AperFunction,WasherPad*
%ADD11C,0.04937*%
G04 #@! TA.AperFunction,ComponentPad*
%ADD13C,0.07102*%
G04 #@! TA.AperFunction,WasherPad*
%ADD12C,0.13598*%
G04 #@! TA.AperFunction,SMDPad,CuDef*
%ADD120R,0.04543X0.02575*%
%ADD119R,0.09268X0.06512*%
G04 #@! TD.AperFunction*
X0Y0D02*
D02*
D10*
X17035Y67717D03*
X20579Y129134D03*
X22547Y11811D03*
Y27559D03*
X24122Y107874D03*
X30028Y32677D03*
Y120079D03*
X30421Y157087D03*
X30815Y196457D03*
X37508Y11811D03*
Y27559D03*
X39870Y61417D03*
X41445Y96457D03*
X43020Y14173D03*
Y25197D03*
X43413Y132283D03*
X43807Y66535D03*
Y89370D03*
X61130Y110630D03*
X64279Y14173D03*
Y26378D03*
Y33465D03*
Y39764D03*
Y45276D03*
X65460Y51969D03*
X65854Y130315D03*
X69398Y76772D03*
X69791Y14567D03*
X76878D03*
Y25984D03*
Y34252D03*
X77665Y171654D03*
X78496Y157874D03*
X82389Y20079D03*
Y39764D03*
Y45669D03*
Y50788D03*
X82783Y197244D03*
X88295Y52363D03*
X88295Y129134D03*
X91445Y144094D03*
X91838Y57481D03*
X92232Y120866D03*
X93020Y114567D03*
Y185433D03*
X96563Y155906D03*
X98969Y208661D03*
X101287Y71654D03*
X104394Y103937D03*
X106012Y188976D03*
X108374Y68504D03*
X108768Y112992D03*
X112311Y201575D03*
X113885Y228347D03*
Y233859D03*
Y239370D03*
X116642Y218898D03*
X118216Y65355D03*
X119398Y200000D03*
X122153Y47638D03*
X123728Y98031D03*
X125697Y157874D03*
Y212598D03*
X139476Y70079D03*
Y76772D03*
X148925Y167323D03*
X150894Y190157D03*
X156405Y14174D03*
X157193Y172441D03*
Y224803D03*
Y233858D03*
Y242913D03*
X161524Y118504D03*
Y157874D03*
X164280Y185039D03*
X172941Y136221D03*
X174122Y188976D03*
X176091Y229134D03*
X176484Y52363D03*
Y90158D03*
X177271Y72441D03*
X180028Y169685D03*
X181602Y90551D03*
X188689Y56693D03*
X191839Y173622D03*
X200894Y118504D03*
Y197244D03*
X209555Y220079D03*
Y243701D03*
X211720Y99607D03*
X213098Y208268D03*
X215854Y84646D03*
X217823Y103150D03*
X221563Y88976D03*
X224516Y152362D03*
Y165748D03*
Y178346D03*
X226090Y50000D03*
X227665Y216142D03*
X231602Y212205D03*
X236618Y74410D03*
X240264Y79134D03*
Y157874D03*
X241051Y64961D03*
X241445Y121654D03*
X243807Y175591D03*
X244201Y104724D03*
Y110630D03*
Y197244D03*
Y236614D03*
X246563Y65355D03*
X247744Y59843D03*
X253256Y61811D03*
Y81890D03*
X265460Y53937D03*
X265854Y14174D03*
X270185Y182678D03*
X279634Y79134D03*
Y118504D03*
Y157874D03*
Y236614D03*
X280421Y12993D03*
X283177Y196851D03*
X299712Y54725D03*
X304437Y21260D03*
X317035Y51575D03*
X317035Y79134D03*
Y118504D03*
Y157874D03*
Y197244D03*
Y236614D03*
X346957Y104331D03*
Y114173D03*
Y118898D03*
X347350Y161024D03*
X352075Y38583D03*
X358374Y197244D03*
Y236614D03*
X358768Y162992D03*
X362311Y103150D03*
X364280Y125197D03*
X366642Y165354D03*
X367429Y33858D03*
X367823Y71654D03*
D02*
D11*
X60933Y49409D03*
X60933Y242717D03*
X329831Y49409D03*
D02*
D12*
X21759Y242520D03*
X339476Y18110D03*
D02*
D13*
X116618Y28859D03*
Y38859D03*
X126618Y28859D03*
Y38859D03*
X136618Y28859D03*
Y38859D03*
X146618Y28859D03*
Y38859D03*
X156618Y28859D03*
Y38859D03*
X166618Y28859D03*
Y38859D03*
X176618Y28859D03*
Y38859D03*
X186618Y28859D03*
Y38859D03*
X196618Y28859D03*
Y38859D03*
X206618Y28859D03*
Y38859D03*
X216618Y28859D03*
Y38859D03*
X226618Y28859D03*
Y38859D03*
X236618Y28859D03*
Y38859D03*
X246618Y28859D03*
Y38859D03*
X256618Y28859D03*
Y38859D03*
X266618Y28859D03*
Y38859D03*
X276618Y28859D03*
Y38859D03*
X286618Y28859D03*
Y38859D03*
X296618Y28859D03*
Y38859D03*
X306618Y28859D03*
Y38859D03*
D02*
D29*
X28858Y64606D03*
Y87362D03*
D02*
D119*
X20677Y78150D03*
Y95866D03*
Y117520D03*
Y135236D03*
Y156890D03*
Y174606D03*
Y196260D03*
Y213976D03*
X56504Y78150D03*
Y95866D03*
Y117520D03*
Y135236D03*
Y156890D03*
Y174606D03*
Y196260D03*
Y213976D03*
D02*
D120*
X286326Y12993D03*
X292626Y11024D03*
Y14961D03*
X0Y0D02*
M02*
