G04 DesignSpark PCB PRO Gerber Version 10.0 Build 5299*
G04 #@! TF.Part,Single*
G04 #@! TF.FileFunction,Legend,Bot*
G04 #@! TF.FilePolarity,Positive*
%FSLAX35Y35*%
%MOIN*%
%ADD107C,0.00394*%
%ADD106C,0.00500*%
%ADD108C,0.00787*%
%ADD150C,0.01000*%
G04 #@! TD.AperFunction*
X0Y0D02*
D02*
D106*
X7181Y95669D02*
X6868Y95982D01*
X6556Y96607D01*
X6868Y97232D01*
X7181Y97544D01*
X10306D01*
Y98169D01*
Y97544D02*
Y96294D01*
X6556Y101294D02*
Y102544D01*
Y101919D02*
X10306D01*
X9681Y101294D01*
X6868Y105982D02*
X6556Y106607D01*
Y107232D01*
X6868Y107857D01*
X7493Y108169D01*
X9368D01*
X9993Y107857D01*
X10306Y107232D01*
Y106607D01*
X9993Y105982D01*
X9368Y105669D01*
X7493D01*
X6868Y105982D01*
X9993Y107857D01*
X22953Y23228D02*
X23266Y22916D01*
X23578Y22291D01*
X23266Y21666D01*
X22953Y21353D01*
X19828D01*
Y20728D01*
Y21353D02*
Y22603D01*
X23578Y15728D02*
Y18228D01*
X21391Y16041D01*
X20766Y15728D01*
X20141Y16041D01*
X19828Y16666D01*
Y17603D01*
X20141Y18228D01*
X25452Y136902D02*
Y131602D01*
X37752D01*
Y136902D01*
X25452D01*
X28603Y103937D02*
X32353D01*
Y106124D01*
X32041Y106750D01*
X31415Y107062D01*
X30791Y106750D01*
X30478Y106124D01*
Y103937D01*
Y106124D02*
X28603Y107062D01*
Y109562D02*
Y110812D01*
Y110187D02*
X32353D01*
X31728Y109562D01*
X28915Y113937D02*
X28603Y114562D01*
Y115500D01*
X28915Y116124D01*
X29541Y116437D01*
X29853D01*
X30478Y116124D01*
X30791Y115500D01*
Y113937D01*
X32353D01*
Y116437D01*
X31627Y138964D02*
X31939Y138652D01*
X32565Y138339D01*
X33502D01*
X34127Y138652D01*
X34439Y138964D01*
X34752Y139589D01*
Y140839D01*
X34439Y141464D01*
X34127Y141777D01*
X33502Y142089D01*
X32565D01*
X31939Y141777D01*
X31627Y141464D01*
X29752Y138339D02*
X27252Y142089D01*
X29752D01*
X37752Y124122D02*
Y129422D01*
X25452D01*
Y124122D01*
X37752D01*
X38977Y119536D02*
X33677D01*
Y107236D01*
X38977D01*
Y119536D01*
X40763Y107236D02*
X46063D01*
Y119536D01*
X40763D01*
Y107236D01*
X41838Y212048D02*
X22547D01*
Y159685D01*
X58374D01*
X69004Y170315D01*
Y201418D01*
X58374Y212048D01*
X41838D01*
X47500Y109449D02*
X51250D01*
Y111636D01*
X50938Y112261D01*
X50313Y112574D01*
X49688Y112261D01*
X49376Y111636D01*
Y109449D01*
Y111636D02*
X47500Y112574D01*
Y115074D02*
Y116324D01*
Y115699D02*
X51250D01*
X50626Y115074D01*
X47500Y121011D02*
X51250D01*
X48750Y119449D01*
Y121949D01*
X49169Y44095D02*
X45419D01*
Y41907D01*
X45731Y41282D01*
X46356Y40970D01*
X46981Y41282D01*
X47293Y41907D01*
Y44095D01*
Y41907D02*
X49169Y40970D01*
Y38470D02*
Y37220D01*
Y37845D02*
X45419D01*
X46043Y38470D01*
X48231Y34095D02*
X47606Y33782D01*
X47293Y33157D01*
Y32532D01*
X47606Y31907D01*
X48231Y31595D01*
X48856Y31907D01*
X49169Y32532D01*
Y33157D01*
X48856Y33782D01*
X48231Y34095D01*
X47293D01*
X46356Y33782D01*
X45731Y33157D01*
X45419Y32532D01*
X50999Y17079D02*
X56299D01*
Y29379D01*
X50999D01*
Y17079D01*
Y32039D02*
X56299D01*
Y44339D01*
X50999D01*
Y32039D01*
X51681Y124559D02*
Y128309D01*
X49494D01*
X48869Y127997D01*
X48556Y127372D01*
X48869Y126747D01*
X49494Y126435D01*
X51681D01*
X49494D02*
X48556Y124559D01*
X46056D02*
X44806D01*
X45431D02*
Y128309D01*
X46056Y127685D01*
X41369Y124872D02*
X40744Y124559D01*
X40119D01*
X39494Y124872D01*
X39181Y125497D01*
Y127372D01*
X39494Y127997D01*
X40119Y128309D01*
X40744D01*
X41369Y127997D01*
X41681Y127372D01*
Y125497D01*
X41369Y124872D01*
X39494Y127997D01*
X51718Y15355D02*
X55468D01*
Y12230D01*
Y9730D02*
Y8480D01*
Y9105D02*
X51718D01*
X52343Y9730D01*
X67141Y23771D02*
X72441D01*
Y36071D01*
X67141D01*
Y23771D01*
X67184Y22729D02*
Y17429D01*
X79484D01*
Y22729D01*
X67184D01*
Y42414D02*
Y37114D01*
X79484D01*
Y42414D01*
X67184D01*
X65635Y124803D02*
X64385D01*
X63760Y124491D01*
X63448Y124178D01*
X63135Y123553D01*
Y122928D01*
X63448Y122303D01*
X63760Y121991D01*
X64385Y121678D01*
X65635D01*
X66260Y121991D01*
X66573Y122303D01*
X66885Y122928D01*
Y123553D01*
X66573Y124178D01*
X66260Y124491D01*
X65635Y124803D01*
X65948Y122616D02*
X66885Y121678D01*
Y119178D02*
Y117928D01*
Y118553D02*
X63135D01*
X63760Y119178D01*
X74134Y205537D02*
X74446Y205849D01*
X74759Y206474D01*
Y207412D01*
X74446Y208037D01*
X74134Y208349D01*
X73509Y208662D01*
X72259D01*
X71634Y208349D01*
X71321Y208037D01*
X71009Y207412D01*
Y206474D01*
X71321Y205849D01*
X71634Y205537D01*
X73509Y203662D02*
X72259D01*
X71634Y203349D01*
X71321Y203037D01*
X71009Y202412D01*
Y201787D01*
X71321Y201162D01*
X71634Y200849D01*
X72259Y200537D01*
X73509D01*
X74134Y200849D01*
X74446Y201162D01*
X74759Y201787D01*
Y202412D01*
X74446Y203037D01*
X74134Y203349D01*
X73509Y203662D01*
X74759Y198662D02*
X71009D01*
X74759Y195537D01*
X71009D01*
X74759Y193662D02*
X71009D01*
X74759Y190537D01*
X71009D01*
X74759Y188037D02*
Y186787D01*
Y187412D02*
X71009D01*
X71634Y188037D01*
X75846Y153437D02*
Y148137D01*
X88146D01*
Y153437D01*
X75846D01*
X83027Y33071D02*
X79277D01*
Y30884D01*
X79589Y30259D01*
X80214Y29946D01*
X80839Y30259D01*
X81152Y30884D01*
Y33071D01*
Y30884D02*
X83027Y29946D01*
Y27446D02*
Y26196D01*
Y26821D02*
X79277D01*
X79902Y27446D01*
X83965Y131102D02*
G75*
G02*
X77665I-3150J0D01*
G01*
G75*
G02*
X83965I3150J0D01*
G01*
X88146Y141444D02*
Y146744D01*
X75846D01*
Y141444D01*
X88146D01*
X87126Y135189D02*
Y138939D01*
X88689D02*
X85564D01*
X83689Y135189D02*
Y138939D01*
X81502D01*
X80876Y138627D01*
X80564Y138002D01*
X80876Y137377D01*
X81502Y137065D01*
X83689D01*
X77126Y135189D02*
Y138939D01*
X78689Y136439D01*
X76189D01*
X88539Y169697D02*
X86664D01*
X84789Y171260D01*
X86664Y169697D02*
X84789Y168135D01*
X88539Y165635D02*
Y164385D01*
Y165010D02*
X84789D01*
X85414Y165635D01*
X88319Y38177D02*
X88632Y37864D01*
X89257Y37552D01*
X90194D01*
X90819Y37864D01*
X91132Y38177D01*
X91444Y38802D01*
Y40052D01*
X91132Y40677D01*
X90819Y40989D01*
X90194Y41302D01*
X89257D01*
X88632Y40989D01*
X88319Y40677D01*
X85819Y37552D02*
X84569D01*
X85194D02*
Y41302D01*
X85819Y40677D01*
X89500Y18885D02*
X89813Y18573D01*
X90438Y18260D01*
X91376D01*
X92000Y18573D01*
X92313Y18885D01*
X92626Y19510D01*
Y20760D01*
X92313Y21385D01*
X92000Y21698D01*
X91376Y22010D01*
X90438D01*
X89813Y21698D01*
X89500Y21385D01*
X85126Y18260D02*
X87626D01*
X85438Y20448D01*
X85126Y21073D01*
X85438Y21698D01*
X86063Y22010D01*
X87000D01*
X87626Y21698D01*
X96319Y204225D02*
Y198925D01*
X108619D01*
Y204225D01*
X96319D01*
X95013Y149594D02*
X95325Y149281D01*
X95950Y148969D01*
X96888D01*
X97513Y149281D01*
X97825Y149594D01*
X98138Y150219D01*
Y151469D01*
X97825Y152094D01*
X97513Y152407D01*
X96888Y152719D01*
X95950D01*
X95325Y152407D01*
X95013Y152094D01*
X92200Y150844D02*
X91575D01*
X90950Y151157D01*
X90638Y151781D01*
X90950Y152407D01*
X91575Y152719D01*
X92200D01*
X92825Y152407D01*
X93138Y151781D01*
X92825Y151157D01*
X92200Y150844D01*
X92825Y150531D01*
X93138Y149907D01*
X92825Y149281D01*
X92200Y148969D01*
X91575D01*
X90950Y149281D01*
X90638Y149907D01*
X90950Y150531D01*
X91575Y150844D01*
X99956Y105362D02*
Y104112D01*
Y104737D02*
X96206D01*
Y105362D02*
Y104112D01*
X99331Y98174D02*
X99644Y98487D01*
X99956Y99112D01*
Y100049D01*
X99644Y100674D01*
X99331Y100987D01*
X98706Y101299D01*
X97456D01*
X96831Y100987D01*
X96519Y100674D01*
X96206Y100049D01*
Y99112D01*
X96519Y98487D01*
X96831Y98174D01*
X99956Y95674D02*
Y94424D01*
Y95049D02*
X96206D01*
X96831Y95674D01*
X101287Y131102D02*
G75*
G02*
X94988I-3150J0D01*
G01*
G75*
G02*
X101287I3150J0D01*
G01*
X106012Y141882D02*
Y145632D01*
X103824D01*
X103199Y145320D01*
X102887Y144695D01*
X103199Y144070D01*
X103824Y143757D01*
X106012D01*
X103824D02*
X102887Y141882D01*
X100387D02*
X99137D01*
X99762D02*
Y145632D01*
X100387Y145007D01*
X95387Y141882D02*
X94137D01*
X94762D02*
Y145632D01*
X95387Y145007D01*
X108619Y192232D02*
Y197532D01*
X96319D01*
Y192232D01*
X108619D01*
X108917Y100288D02*
Y94988D01*
X121217D01*
Y100288D01*
X108917D01*
Y106587D02*
Y101287D01*
X121217D01*
Y106587D01*
X108917D01*
X106824Y205893D02*
X107136Y205581D01*
X107761Y205268D01*
X108699D01*
X109324Y205581D01*
X109636Y205893D01*
X109949Y206518D01*
Y207768D01*
X109636Y208393D01*
X109324Y208706D01*
X108699Y209018D01*
X107761D01*
X107136Y208706D01*
X106824Y208393D01*
X104011Y205268D02*
X103386Y205581D01*
X102761Y206206D01*
X102449Y207143D01*
Y208081D01*
X102761Y208706D01*
X103386Y209018D01*
X104011D01*
X104636Y208706D01*
X104949Y208081D01*
X104636Y207456D01*
X104011Y207143D01*
X103386D01*
X102761Y207456D01*
X102449Y208081D01*
X112092Y124016D02*
X110842D01*
X110217Y123703D01*
X109904Y123391D01*
X109592Y122766D01*
Y122141D01*
X109904Y121516D01*
X110217Y121203D01*
X110842Y120891D01*
X112092D01*
X112717Y121203D01*
X113030Y121516D01*
X113342Y122141D01*
Y122766D01*
X113030Y123391D01*
X112717Y123703D01*
X112092Y124016D01*
X112404Y121828D02*
X113342Y120891D01*
Y116516D02*
Y119016D01*
X111154Y116828D01*
X110530Y116516D01*
X109904Y116828D01*
X109592Y117453D01*
Y118391D01*
X109904Y119016D01*
X113898Y129284D02*
Y133034D01*
X115461D02*
X112335D01*
X110461Y129284D02*
Y133034D01*
X108273D01*
X107648Y132722D01*
X107335Y132096D01*
X107648Y131472D01*
X108273Y131159D01*
X110461D01*
X105461Y129596D02*
X104835Y129284D01*
X103898D01*
X103273Y129596D01*
X102961Y130222D01*
Y130534D01*
X103273Y131159D01*
X103898Y131472D01*
X105461D01*
Y133034D01*
X102961D01*
X117035Y226378D02*
Y241339D01*
X121366Y194489D02*
G75*
G02*
X115067I-3150J0D01*
G01*
G75*
G02*
X121366I3150J0D01*
G01*
X122696Y72729D02*
Y67429D01*
X134996D01*
Y72729D01*
X122696D01*
X122397Y159599D02*
X121147D01*
X121772D02*
Y163349D01*
X122397D02*
X121147D01*
X115209Y160224D02*
X115522Y159911D01*
X116147Y159599D01*
X117085D01*
X117709Y159911D01*
X118022Y160224D01*
X118335Y160849D01*
Y162099D01*
X118022Y162724D01*
X117709Y163037D01*
X117085Y163349D01*
X116147D01*
X115522Y163037D01*
X115209Y162724D01*
X110835Y159599D02*
X113335D01*
X111147Y161787D01*
X110835Y162411D01*
X111147Y163037D01*
X111772Y163349D01*
X112709D01*
X113335Y163037D01*
X124122Y195426D02*
Y199176D01*
X121935D01*
X121309Y198863D01*
X120997Y198238D01*
X121309Y197613D01*
X121935Y197301D01*
X124122D01*
X121935D02*
X120997Y195426D01*
X118497D02*
X117247D01*
X117872D02*
Y199176D01*
X118497Y198551D01*
X111622Y195426D02*
X114122D01*
X111935Y197613D01*
X111622Y198238D01*
X111935Y198863D01*
X112559Y199176D01*
X113497D01*
X114122Y198863D01*
X128696Y243851D02*
X127446D01*
X128071D02*
Y247601D01*
X128696D02*
X127446D01*
X121509Y244476D02*
X121821Y244163D01*
X122446Y243851D01*
X123384D01*
X124009Y244163D01*
X124321Y244476D01*
X124634Y245101D01*
Y246351D01*
X124321Y246976D01*
X124009Y247289D01*
X123384Y247601D01*
X122446D01*
X121821Y247289D01*
X121509Y246976D01*
X118071Y243851D02*
Y247601D01*
X119634Y245101D01*
X117134D01*
X126902Y91720D02*
X127215Y91407D01*
X127840Y91095D01*
X128778D01*
X129402Y91407D01*
X129715Y91720D01*
X130028Y92345D01*
Y93595D01*
X129715Y94220D01*
X129402Y94533D01*
X128778Y94845D01*
X127840D01*
X127215Y94533D01*
X126902Y94220D01*
X123465Y91095D02*
Y94845D01*
X125028Y92345D01*
X122528D01*
X126902Y102744D02*
X127215Y102431D01*
X127840Y102119D01*
X128778D01*
X129402Y102431D01*
X129715Y102744D01*
X130028Y103369D01*
Y104619D01*
X129715Y105244D01*
X129402Y105556D01*
X128778Y105869D01*
X127840D01*
X127215Y105556D01*
X126902Y105244D01*
X124715Y102431D02*
X124090Y102119D01*
X123465D01*
X122840Y102431D01*
X122528Y103056D01*
X122840Y103681D01*
X123465Y103994D01*
X124090D01*
X123465D02*
X122840Y104306D01*
X122528Y104931D01*
X122840Y105556D01*
X123465Y105869D01*
X124090D01*
X124715Y105556D01*
X131209Y221654D02*
Y226378D01*
X117035D01*
X131209Y246063D02*
X153650D01*
Y221654D01*
X131209Y246063D02*
Y241339D01*
X117035D01*
X132539Y169973D02*
Y164673D01*
X144839D01*
Y169973D01*
X132539D01*
X132783Y80859D02*
Y84609D01*
X130596D01*
X129970Y84296D01*
X129658Y83671D01*
X129970Y83046D01*
X130596Y82734D01*
X132783D01*
X130596D02*
X129658Y80859D01*
X126846D02*
X126220Y81171D01*
X125596Y81796D01*
X125283Y82734D01*
Y83671D01*
X125596Y84296D01*
X126220Y84609D01*
X126846D01*
X127470Y84296D01*
X127783Y83671D01*
X127470Y83046D01*
X126846Y82734D01*
X126220D01*
X125596Y83046D01*
X125283Y83671D01*
X132402Y189520D02*
Y193270D01*
X133964D02*
X130839D01*
X128964Y189520D02*
Y193270D01*
X126777D01*
X126152Y192958D01*
X125839Y192333D01*
X126152Y191708D01*
X126777Y191396D01*
X128964D01*
X123964Y190458D02*
X123652Y191083D01*
X123027Y191396D01*
X122402D01*
X121777Y191083D01*
X121464Y190458D01*
X121777Y189833D01*
X122402Y189520D01*
X123027D01*
X123652Y189833D01*
X123964Y190458D01*
Y191396D01*
X123652Y192333D01*
X123027Y192958D01*
X122402Y193270D01*
X134996Y74122D02*
Y79422D01*
X122696D01*
Y74122D01*
X134996D01*
X133201Y63374D02*
X133514Y63061D01*
X134139Y62749D01*
X135076D01*
X135701Y63061D01*
X136014Y63374D01*
X136326Y63999D01*
Y65249D01*
X136014Y65874D01*
X135701Y66187D01*
X135076Y66499D01*
X134139D01*
X133514Y66187D01*
X133201Y65874D01*
X131326Y63687D02*
X131014Y64311D01*
X130389Y64624D01*
X129764D01*
X129139Y64311D01*
X128826Y63687D01*
X129139Y63061D01*
X129764Y62749D01*
X130389D01*
X131014Y63061D01*
X131326Y63687D01*
Y64624D01*
X131014Y65561D01*
X130389Y66187D01*
X129764Y66499D01*
X139894Y171641D02*
X140207Y171329D01*
X140832Y171016D01*
X141770D01*
X142394Y171329D01*
X142707Y171641D01*
X143020Y172266D01*
Y173516D01*
X142707Y174141D01*
X142394Y174454D01*
X141770Y174766D01*
X140832D01*
X140207Y174454D01*
X139894Y174141D01*
X138020Y171329D02*
X137394Y171016D01*
X136457D01*
X135832Y171329D01*
X135520Y171954D01*
Y172266D01*
X135832Y172891D01*
X136457Y173204D01*
X138020D01*
Y174766D01*
X135520D01*
X149712Y77166D02*
G75*
G02*
X143413I-3150J0D01*
G01*
G75*
G02*
X149712I3150J0D01*
G01*
X152087Y183883D02*
X152400Y184195D01*
X152712Y184820D01*
Y185758D01*
X152400Y186383D01*
X152087Y186695D01*
X151462Y187008D01*
X150212D01*
X149587Y186695D01*
X149274Y186383D01*
X148962Y185758D01*
Y184820D01*
X149274Y184195D01*
X149587Y183883D01*
X152712Y181383D02*
Y180133D01*
Y180758D02*
X148962D01*
X149587Y181383D01*
X152400Y176695D02*
X152712Y176070D01*
Y175445D01*
X152400Y174820D01*
X151774Y174508D01*
X149900D01*
X149274Y174820D01*
X148962Y175445D01*
Y176070D01*
X149274Y176695D01*
X149900Y177008D01*
X151774D01*
X152400Y176695D01*
X149274Y174820D01*
X153650Y221654D02*
X131209D01*
X159843Y187646D02*
X154543D01*
Y175346D01*
X159843D01*
Y187646D01*
X159949Y87402D02*
G75*
G02*
X153650I-3150J0D01*
G01*
G75*
G02*
X159949I3150J0D01*
G01*
X160885Y227453D02*
Y222153D01*
X173185D01*
Y227453D01*
X160885D01*
Y236508D02*
Y231208D01*
X173185D01*
Y236508D01*
X160885D01*
X161142Y74954D02*
Y78704D01*
X162704D02*
X159579D01*
X157704Y74954D02*
Y78704D01*
X155517D01*
X154892Y78391D01*
X154579Y77766D01*
X154892Y77141D01*
X155517Y76829D01*
X157704D01*
X152079Y74954D02*
X150829D01*
X151454D02*
Y78704D01*
X152079Y78079D01*
X161142Y91489D02*
Y95239D01*
X162705D02*
X159580D01*
X157705Y91489D02*
Y95239D01*
X155517D01*
X154892Y94926D01*
X154580Y94301D01*
X154892Y93676D01*
X155517Y93364D01*
X157705D01*
X152392Y91801D02*
X151767Y91489D01*
X151142D01*
X150517Y91801D01*
X150205Y92426D01*
X150517Y93051D01*
X151142Y93364D01*
X151767D01*
X151142D02*
X150517Y93676D01*
X150205Y94301D01*
X150517Y94926D01*
X151142Y95239D01*
X151767D01*
X152392Y94926D01*
X166354Y191488D02*
X171654D01*
Y203788D01*
X166354D01*
Y191488D01*
X165704Y217960D02*
X164454D01*
X165079D02*
Y214210D01*
X165704D02*
X164454D01*
X158517Y217335D02*
X158829Y217648D01*
X159454Y217960D01*
X160392D01*
X161017Y217648D01*
X161329Y217335D01*
X161642Y216710D01*
Y215460D01*
X161329Y214835D01*
X161017Y214522D01*
X160392Y214210D01*
X159454D01*
X158829Y214522D01*
X158517Y214835D01*
X156329Y217648D02*
X155704Y217960D01*
X155079D01*
X154454Y217648D01*
X154142Y217022D01*
X154454Y216398D01*
X155079Y216085D01*
X155704D01*
X155079D02*
X154454Y215772D01*
X154142Y215148D01*
X154454Y214522D01*
X155079Y214210D01*
X155704D01*
X156329Y214522D01*
X169248Y150394D02*
X165498D01*
Y148206D01*
X165810Y147581D01*
X166435Y147269D01*
X167060Y147581D01*
X167372Y148206D01*
Y150394D01*
Y148206D02*
X169248Y147269D01*
X167372Y144456D02*
Y143831D01*
X167060Y143206D01*
X166435Y142894D01*
X165810Y143206D01*
X165498Y143831D01*
Y144456D01*
X165810Y145081D01*
X166435Y145394D01*
X167060Y145081D01*
X167372Y144456D01*
X167685Y145081D01*
X168310Y145394D01*
X168935Y145081D01*
X169248Y144456D01*
Y143831D01*
X168935Y143206D01*
X168310Y142894D01*
X167685Y143206D01*
X167372Y143831D01*
X173091Y193307D02*
X176841D01*
Y195494D01*
X176529Y196120D01*
X175904Y196432D01*
X175279Y196120D01*
X174966Y195494D01*
Y193307D01*
Y195494D02*
X173091Y196432D01*
Y198932D02*
Y200182D01*
Y199557D02*
X176841D01*
X176216Y198932D01*
X173404Y203620D02*
X173091Y204244D01*
Y204870D01*
X173404Y205494D01*
X174029Y205807D01*
X174654Y205494D01*
X174966Y204870D01*
Y204244D01*
Y204870D02*
X175279Y205494D01*
X175904Y205807D01*
X176529Y205494D01*
X176841Y204870D01*
Y204244D01*
X176529Y203620D01*
X170209Y238570D02*
X170522Y238258D01*
X171147Y237945D01*
X172085D01*
X172709Y238258D01*
X173022Y238570D01*
X173335Y239195D01*
Y240445D01*
X173022Y241070D01*
X172709Y241383D01*
X172085Y241695D01*
X171147D01*
X170522Y241383D01*
X170209Y241070D01*
X167709Y237945D02*
X166459D01*
X167085D02*
Y241695D01*
X167709Y241070D01*
X160835Y237945D02*
X163335D01*
X161147Y240133D01*
X160835Y240758D01*
X161147Y241383D01*
X161772Y241695D01*
X162709D01*
X163335Y241383D01*
X174122Y72441D02*
G75*
G02*
X167822I-3150J0D01*
G01*
G75*
G02*
X174122I3150J0D01*
G01*
X175591Y152607D02*
X170291D01*
Y140307D01*
X175591D01*
Y152607D01*
X175709Y63930D02*
Y67680D01*
X177271D02*
X174146D01*
X172271Y63930D02*
Y67680D01*
X170084D01*
X169459Y67368D01*
X169146Y66743D01*
X169459Y66118D01*
X170084Y65805D01*
X172271D01*
X164771Y63930D02*
X167271D01*
X165084Y66118D01*
X164771Y66743D01*
X165084Y67368D01*
X165709Y67680D01*
X166646D01*
X167271Y67368D01*
X183202Y223610D02*
X183514Y223297D01*
X184139Y222985D01*
X185077D01*
X185702Y223297D01*
X186014Y223610D01*
X186327Y224235D01*
Y225485D01*
X186014Y226110D01*
X185702Y226422D01*
X185077Y226735D01*
X184139D01*
X183514Y226422D01*
X183202Y226110D01*
X180702Y222985D02*
X179452D01*
X180077D02*
Y226735D01*
X180702Y226110D01*
X175702Y222985D02*
X174452D01*
X175077D02*
Y226735D01*
X175702Y226110D01*
X187508Y149038D02*
Y150288D01*
X187195Y150913D01*
X186883Y151226D01*
X186258Y151538D01*
X185633D01*
X185008Y151226D01*
X184695Y150913D01*
X184383Y150288D01*
Y149038D01*
X184695Y148413D01*
X185008Y148100D01*
X185633Y147788D01*
X186258D01*
X186883Y148100D01*
X187195Y148413D01*
X187508Y149038D01*
X185320Y148726D02*
X184383Y147788D01*
X180945D02*
Y151538D01*
X182508Y149038D01*
X180008D01*
X187508Y201181D02*
G75*
G02*
X181209I-3150J0D01*
G01*
G75*
G02*
X187508I3150J0D01*
G01*
X187902Y174235D02*
Y175485D01*
X187589Y176110D01*
X187276Y176422D01*
X186652Y176735D01*
X186026D01*
X185402Y176422D01*
X185089Y176110D01*
X184776Y175485D01*
Y174235D01*
X185089Y173610D01*
X185402Y173297D01*
X186026Y172985D01*
X186652D01*
X187276Y173297D01*
X187589Y173610D01*
X187902Y174235D01*
X185714Y173922D02*
X184776Y172985D01*
X182589Y173297D02*
X181964Y172985D01*
X181339D01*
X180714Y173297D01*
X180402Y173922D01*
X180714Y174547D01*
X181339Y174860D01*
X181964D01*
X181339D02*
X180714Y175172D01*
X180402Y175797D01*
X180714Y176422D01*
X181339Y176735D01*
X181964D01*
X182589Y176422D01*
X192638Y192670D02*
Y196420D01*
X194201D02*
X191076D01*
X189201Y192670D02*
Y196420D01*
X187013D01*
X186388Y196107D01*
X186076Y195482D01*
X186388Y194857D01*
X187013Y194545D01*
X189201D01*
X184201Y192670D02*
X181701Y196420D01*
X184201D01*
X198555Y152063D02*
X220555D01*
Y140063D01*
X198555D01*
Y152063D01*
Y165055D02*
X220555D01*
Y153055D01*
X198555D01*
Y165055D01*
Y178047D02*
X220555D01*
Y166047D01*
X198555D01*
Y178047D01*
Y191039D02*
X220555D01*
Y179039D01*
X198555D01*
Y191039D01*
X208444Y17060D02*
X208757Y17372D01*
X209382Y17685D01*
X210007Y17372D01*
X210320Y17060D01*
Y13935D01*
X210944D01*
X210320D02*
X209070D01*
X214070Y17685D02*
X215320D01*
X214694D02*
Y13935D01*
X214070Y14560D01*
X213319Y201760D02*
X213632Y201447D01*
X214257Y201135D01*
X215194D01*
X215819Y201447D01*
X216132Y201760D01*
X216444Y202385D01*
Y203635D01*
X216132Y204260D01*
X215819Y204572D01*
X215194Y204885D01*
X214257D01*
X213632Y204572D01*
X213319Y204260D01*
X210819Y201135D02*
X209569D01*
X210194D02*
Y204885D01*
X210819Y204260D01*
X206132Y201447D02*
X205507Y201135D01*
X204882D01*
X204257Y201447D01*
X203944Y202072D01*
X204257Y202697D01*
X204882Y203010D01*
X205507D01*
X204882D02*
X204257Y203322D01*
X203944Y203947D01*
X204257Y204572D01*
X204882Y204885D01*
X205507D01*
X206132Y204572D01*
X216689Y194594D02*
Y199894D01*
X204389D01*
Y194594D01*
X216689D01*
X225118Y149606D02*
X221368D01*
Y147419D01*
X221680Y146794D01*
X222305Y146481D01*
X222930Y146794D01*
X223243Y147419D01*
Y149606D01*
Y147419D02*
X225118Y146481D01*
Y144606D02*
X221368Y142106D01*
Y144606D01*
X225118Y162598D02*
X221368D01*
Y160411D01*
X221680Y159786D01*
X222305Y159473D01*
X222930Y159786D01*
X223243Y160411D01*
Y162598D01*
Y160411D02*
X225118Y159473D01*
X224180Y157598D02*
X223555Y157286D01*
X223243Y156661D01*
Y156036D01*
X223555Y155411D01*
X224180Y155098D01*
X224805Y155411D01*
X225118Y156036D01*
Y156661D01*
X224805Y157286D01*
X224180Y157598D01*
X223243D01*
X222305Y157286D01*
X221680Y156661D01*
X221368Y156036D01*
X225118Y175591D02*
X221368D01*
Y173403D01*
X221680Y172778D01*
X222305Y172465D01*
X222930Y172778D01*
X223243Y173403D01*
Y175591D01*
Y173403D02*
X225118Y172465D01*
X224805Y170591D02*
X225118Y169965D01*
Y169028D01*
X224805Y168403D01*
X224180Y168091D01*
X223868D01*
X223243Y168403D01*
X222930Y169028D01*
Y170591D01*
X221368D01*
Y168091D01*
X225118Y190039D02*
X221368D01*
Y187852D01*
X221680Y187227D01*
X222305Y186914D01*
X222930Y187227D01*
X223243Y187852D01*
Y190039D01*
Y187852D02*
X225118Y186914D01*
Y183477D02*
X221368D01*
X223868Y185039D01*
Y182539D01*
X231250Y217323D02*
X230937Y217635D01*
X230625Y218260D01*
X230937Y218885D01*
X231250Y219198D01*
X234375D01*
Y219823D01*
Y219198D02*
Y217948D01*
X230937Y222635D02*
X230625Y223260D01*
Y223885D01*
X230937Y224510D01*
X231563Y224823D01*
X232187Y224510D01*
X232500Y223885D01*
Y223260D01*
Y223885D02*
X232813Y224510D01*
X233437Y224823D01*
X234063Y224510D01*
X234375Y223885D01*
Y223260D01*
X234063Y222635D01*
X239232Y68504D02*
X242982D01*
Y70692D01*
X242670Y71317D01*
X242045Y71630D01*
X241420Y71317D01*
X241107Y70692D01*
Y68504D01*
Y70692D02*
X239232Y71630D01*
Y76004D02*
Y73504D01*
X241420Y75692D01*
X242045Y76004D01*
X242670Y75692D01*
X242982Y75067D01*
Y74130D01*
X242670Y73504D01*
X249213Y80166D02*
X243913D01*
Y67866D01*
X249213D01*
Y80166D01*
X250606Y65067D02*
X255906D01*
Y77367D01*
X250606D01*
Y65067D01*
X257737Y66929D02*
X261487D01*
Y69117D01*
X261174Y69742D01*
X260549Y70054D01*
X259924Y69742D01*
X259612Y69117D01*
Y66929D01*
Y69117D02*
X257737Y70054D01*
X258049Y72242D02*
X257737Y72867D01*
Y73492D01*
X258049Y74117D01*
X258674Y74429D01*
X259299Y74117D01*
X259612Y73492D01*
Y72867D01*
Y73492D02*
X259924Y74117D01*
X260549Y74429D01*
X261174Y74117D01*
X261487Y73492D01*
Y72867D01*
X261174Y72242D01*
X288283Y144882D02*
X287970Y145194D01*
X287658Y145819D01*
X287970Y146444D01*
X288283Y146757D01*
X291408D01*
Y147382D01*
Y146757D02*
Y145507D01*
X287658Y151444D02*
X291408D01*
X288908Y149882D01*
Y152382D01*
X347756Y129528D02*
X348069Y129215D01*
X348381Y128591D01*
X348069Y127965D01*
X347756Y127653D01*
X344631D01*
Y127028D01*
Y127653D02*
Y128903D01*
X346506Y123591D02*
Y122965D01*
X346193Y122341D01*
X345569Y122028D01*
X344943Y122341D01*
X344631Y122965D01*
Y123591D01*
X344943Y124215D01*
X345569Y124528D01*
X346193Y124215D01*
X346506Y123591D01*
X346819Y124215D01*
X347443Y124528D01*
X348069Y124215D01*
X348381Y123591D01*
Y122965D01*
X348069Y122341D01*
X347443Y122028D01*
X346819Y122341D01*
X346506Y122965D01*
X349393Y149485D02*
X345643D01*
Y147609D01*
X345955Y146985D01*
X346268Y146672D01*
X346893Y146359D01*
X348143D01*
X348768Y146672D01*
X349080Y146985D01*
X349393Y147609D01*
Y149485D01*
Y141985D02*
Y144485D01*
X347205Y142297D01*
X346580Y141985D01*
X345955Y142297D01*
X345643Y142922D01*
Y143859D01*
X345955Y144485D01*
X351924Y53544D02*
X348174D01*
Y51669D01*
X348487Y51044D01*
X348799Y50731D01*
X349424Y50419D01*
X350674D01*
X351299Y50731D01*
X351612Y51044D01*
X351924Y51669D01*
Y53544D01*
X351612Y48231D02*
X351924Y47606D01*
Y46981D01*
X351612Y46356D01*
X350987Y46044D01*
X350362Y46356D01*
X350049Y46981D01*
Y47606D01*
Y46981D02*
X349737Y46356D01*
X349112Y46044D01*
X348487Y46356D01*
X348174Y46981D01*
Y47606D01*
X348487Y48231D01*
X364523Y69292D02*
X360773D01*
Y66167D01*
X362648Y66792D02*
Y69292D01*
X364523Y61792D02*
Y64292D01*
X362335Y62104D01*
X361710Y61792D01*
X361085Y62104D01*
X360773Y62729D01*
Y63667D01*
X361085Y64292D01*
X373185Y152756D02*
X369435D01*
Y149631D01*
X371309Y150256D02*
Y152756D01*
X373185Y147131D02*
Y145881D01*
Y146506D02*
X369435D01*
X370059Y147131D01*
D02*
D107*
X4134Y58386D02*
Y93583D02*
X8768Y58386D02*
X4134D01*
Y93583D01*
X9752D01*
X8768Y58386D02*
X4134D01*
Y93583D01*
X9752D01*
X8768Y58386D02*
X9752Y93583D02*
X21563D02*
X24516Y58386D02*
Y58268D01*
X21563D01*
Y58386D01*
X24516D01*
X25500Y93583D02*
X21563D01*
X25500D02*
X21563D01*
X90461Y169291D02*
Y165354D01*
X96366Y169291D02*
Y165354D01*
X112208Y24115D02*
X311027D01*
Y43603D01*
X112208D01*
Y24115D01*
X267823Y95669D02*
X263886D01*
Y100787D01*
X267823Y196457D02*
X263886D01*
Y191339D01*
X279634Y95669D02*
X285933D01*
Y196457D01*
X279634D01*
D02*
D108*
X37114Y62598D02*
G75*
G02*
Y62992I0J197D01*
G01*
Y62598D02*
G75*
G03*
Y62992I0J197D01*
G01*
Y62598D02*
Y62992D02*
G75*
G03*
Y62598I0J-197D01*
G01*
X54634Y102559D02*
Y64370D01*
X56996Y108819D02*
G75*
G03*
Y109307I0J244D01*
G01*
Y108819D02*
G75*
G03*
Y109307I0J244D01*
G01*
G75*
G03*
Y108819I0J-244D01*
G01*
X68472Y125000D02*
Y120276D01*
X68807Y118898D02*
Y118110D01*
X80224D01*
Y118898D01*
X68807D01*
X93020Y176378D02*
X93807D02*
G75*
G02*
X93020I-394J0D01*
G01*
X93807D02*
G75*
G03*
X93020I-394J0D01*
G01*
X94398Y64370D02*
Y102559D01*
X95638Y125000D02*
Y120276D01*
X95972Y118898D02*
Y118110D01*
X107390D01*
Y118898D01*
X95972D01*
X102961Y164646D02*
X108965D01*
X110343Y165157D02*
X122941D01*
Y184449D01*
X110343D01*
Y165157D01*
X132882Y194567D02*
X138886D01*
X140264Y195079D02*
X152862D01*
Y214370D01*
X140264D01*
Y195079D01*
X180224Y153012D02*
X184949D01*
X180224Y178996D02*
X184949D01*
X186327Y153346D02*
X187114D01*
Y164764D01*
X186327D01*
Y153346D01*
Y179331D02*
X187114D01*
Y190748D01*
X186327D01*
Y179331D01*
X306618Y45748D02*
G75*
G03*
X306224I-197J0D01*
G01*
X306618D02*
G75*
G03*
X306224I-197J0D01*
G01*
G75*
G03*
X306618I197J0D01*
G01*
X349122Y57973D02*
Y64863D01*
X354240Y54772D02*
Y64863D01*
X358028Y149606D02*
X367382D01*
X359209Y51969D02*
X368563D01*
D02*
D150*
X226681Y199213D02*
X219791D01*
Y205551D01*
X226681Y237008D02*
X219791D01*
Y230669D01*
X238461Y199213D02*
X241839D01*
Y237008D01*
X238461D01*
X347941Y144587D02*
Y151477D01*
X353059D02*
Y144587D01*
X353650Y77657D02*
Y86220D01*
Y135728D02*
Y127165D01*
X368217Y127953D02*
Y85433D01*
X0Y0D02*
M02*
