G05
M48
;#@! TF.GenerationSoftware,DesignSpark,DesignSpark PCB PRO,10.0.5299
;#@! TF.CreationDate,2021-10-19T15:20:13+00:00*
;#@! TF.FileFunction,Plated,1,2,Buried
;FILE_FORMAT=3:5
;TYPE=PLATED
INCH,TZ
FMAT,2
T1C000.01969
T2C000.02756
T3C000.04094
T4C000.04331
%
T001
X0.63386Y0.20079
X0.63386Y0.59449
X0.63386Y0.98819
X0.63386Y1.77559
X0.63386Y2.16929
X0.63386Y2.56299
X1.02756Y0.20079
X1.02756Y0.59449
X1.02756Y0.98819
X1.02756Y1.77559
X1.02756Y2.16929
X1.02756Y2.56299
X1.42126Y0.20079
X1.42126Y0.59449
X1.42126Y0.98819
X1.42126Y1.77559
X1.42126Y2.16929
X1.81496Y0.20079
X1.81496Y0.59449
X1.81496Y0.98819
X1.81496Y1.77559
X1.81496Y2.16929
X1.81496Y2.56299
X2.20866Y0.20079
X2.20866Y0.59449
X2.20866Y0.98819
X2.20866Y1.77559
X2.20866Y2.16929
X2.20866Y2.56299
T002
X2.07087Y2.07874
X2.07087Y2.13780
X2.07087Y2.19685
X2.07087Y2.25591
X2.07087Y2.31496
T003
X2.52205Y1.13189
X2.52205Y1.23189
X2.52205Y1.33189
X2.52205Y1.43189
X2.52205Y1.53189
X2.52205Y1.63189
X2.62205Y1.13189
X2.62205Y1.23189
X2.62205Y1.33189
X2.62205Y1.43189
X2.62205Y1.53189
X2.62205Y1.63189
T004
X0.43543Y1.13189
X0.43543Y1.23189
X0.43543Y1.33189
X0.43543Y1.43189
X0.43543Y1.53189
X0.43543Y1.63189
X0.53543Y1.13189
X0.53543Y1.23189
X0.53543Y1.33189
X0.53543Y1.43189
X0.53543Y1.53189
X0.53543Y1.63189
M30
