G05
M48
;#@! TF.GenerationSoftware,DesignSpark,DesignSpark PCB PRO,10.0.5344
;#@! TF.CreationDate,2022-05-20T08:11:46+00:00*
;#@! TF.FileFunction,Plated,1,4,PTH
;FILE_FORMAT=3:5
;TYPE=PLATED
INCH,TZ
FMAT,2
T1C000.01772
T2C000.01969
T3C000.03346
T4C000.04094
T5C000.04331
%
T001
X0.56549Y0.42126
X0.82927Y0.76378
X0.86864Y0.52756
X0.86864Y0.56693
X1.02612Y0.61811
X1.03400Y0.58268
X1.11274Y0.42126
X1.68360Y0.56299
X1.72691Y0.54331
T002
X0.25447Y0.41339
X0.39226Y1.11417
X0.45919Y0.35827
X0.56549Y0.22835
X0.57337Y0.60236
X0.61274Y0.68110
X0.63636Y0.92913
X0.71116Y0.98819
X0.71116Y1.77559
X0.71116Y2.16929
X0.71116Y2.56299
X0.73478Y0.18110
X0.73478Y0.70079
X0.73478Y0.86614
X0.76628Y1.87008
X0.76628Y1.93307
X0.78203Y0.29921
X0.78203Y0.70866
X0.82927Y0.18110
X0.91195Y0.18110
X0.93557Y0.86614
X0.95132Y1.81890
X0.97100Y0.18110
X0.98281Y0.76772
X1.02219Y0.26772
X1.10486Y0.98819
X1.10486Y1.77559
X1.10486Y2.22835
X1.10486Y2.56299
X1.11274Y0.30315
X1.11274Y0.36220
X1.19935Y0.09449
X1.22691Y0.58661
X1.28990Y0.30315
X1.28990Y0.36220
X1.28990Y0.42126
X1.32533Y0.09843
X1.45919Y0.44488
X1.49856Y0.98819
X1.49856Y1.77559
X1.59699Y2.00787
X1.73478Y0.44488
X1.74659Y2.46457
X1.86077Y0.18110
X1.88833Y0.59449
X1.89226Y0.98819
X1.89226Y1.77559
X1.89226Y2.22835
X1.89226Y2.56299
X1.94344Y0.47638
X2.04974Y0.44488
X2.24266Y1.05906
X2.28596Y1.77559
X2.28596Y2.16929
X2.28596Y2.56299
X2.38439Y1.01969
X2.40801Y0.46063
X2.40801Y0.83465
X2.47888Y0.48031
X2.47888Y0.57480
X2.47888Y0.76378
X2.49069Y0.92126
T003
X1.97494Y1.15354
X2.07494Y1.15354
X2.17494Y1.15354
T004
X2.59935Y1.13189
X2.59935Y1.23189
X2.59935Y1.33189
X2.59935Y1.43189
X2.59935Y1.53189
X2.59935Y1.63189
X2.69935Y1.13189
X2.69935Y1.23189
X2.69935Y1.33189
X2.69935Y1.43189
X2.69935Y1.53189
X2.69935Y1.63189
T005
X0.51274Y1.13189
X0.51274Y1.23189
X0.51274Y1.33189
X0.51274Y1.43189
X0.51274Y1.53189
X0.51274Y1.63189
X0.61274Y1.13189
X0.61274Y1.23189
X0.61274Y1.33189
X0.61274Y1.43189
X0.61274Y1.53189
X0.61274Y1.63189
M30
