G04 DesignSpark PCB PRO Gerber Version 10.0 Build 5299*
G04 #@! TF.Part,Single*
G04 #@! TF.FileFunction,Drillmap*
G04 #@! TF.FilePolarity,Positive*
%FSLAX35Y35*%
%MOIN*%
%ADD18C,0.00500*%
G04 #@! TA.AperFunction,ViaPad*
%ADD17C,0.10000*%
G04 #@! TD.AperFunction*
X0Y0D02*
D02*
D17*
X25447Y41339D03*
X35683Y24016D03*
Y252362D03*
X39226Y111417D03*
X45919Y35827D03*
X51274Y113189D03*
Y123189D03*
Y133189D03*
Y143189D03*
Y153189D03*
Y163189D03*
X56549Y22835D03*
Y42126D03*
X57337Y60236D03*
X61274Y68110D03*
Y113189D03*
Y123189D03*
Y133189D03*
Y143189D03*
Y153189D03*
Y163189D03*
X63636Y92913D03*
X71116Y98819D03*
Y177559D03*
Y216929D03*
Y256299D03*
X73478Y18110D03*
Y70079D03*
Y86614D03*
X76628Y187008D03*
Y193307D03*
X78203Y29921D03*
Y70866D03*
X82927Y18110D03*
Y76378D03*
X86864Y52756D03*
Y56693D03*
X91195Y18110D03*
X93557Y86614D03*
X95132Y181890D03*
X97100Y18110D03*
X98281Y76772D03*
X102219Y26772D03*
X102612Y61811D03*
X103400Y58268D03*
X110486Y98819D03*
Y177559D03*
Y232677D03*
Y256299D03*
X111274Y30315D03*
Y36220D03*
Y42126D03*
X119935Y9449D03*
X122691Y58661D03*
X128990Y30315D03*
Y36220D03*
Y42126D03*
X132533Y9843D03*
X145919Y44488D03*
X149856Y98819D03*
Y177559D03*
X159699Y200787D03*
X168360Y56299D03*
X172691Y54331D03*
X173478Y44488D03*
X174659Y246457D03*
X186077Y18110D03*
X188833Y59449D03*
X189226Y98819D03*
Y177559D03*
Y232677D03*
Y256299D03*
X194344Y47638D03*
X197494Y115354D03*
X204974Y44488D03*
X207494Y115354D03*
X217494D03*
X224266Y105906D03*
X228596Y177559D03*
Y216929D03*
Y256299D03*
X238439Y101969D03*
X240801Y46063D03*
Y83465D03*
X247888Y48031D03*
Y57480D03*
Y76378D03*
X249069Y92126D03*
X258900Y55551D03*
Y78307D03*
X259935Y113189D03*
Y123189D03*
Y133189D03*
Y143189D03*
Y153189D03*
Y163189D03*
X264030Y24016D03*
Y252362D03*
X269935Y113189D03*
Y123189D03*
Y133189D03*
Y143189D03*
Y153189D03*
Y163189D03*
D02*
D18*
X35447Y47276D02*
Y51026D01*
X38572D01*
X37947Y49151D02*
X35447D01*
X47870Y31828D02*
X48496Y31516D01*
X48808Y30891D01*
X48496Y30266D01*
X47870Y29953D01*
X45683D01*
Y33703D01*
X47870D01*
X48496Y33391D01*
X48808Y32766D01*
X48496Y32141D01*
X47870Y31828D01*
X45683D01*
X47870Y260175D02*
X48496Y259862D01*
X48808Y259237D01*
X48496Y258612D01*
X47870Y258300D01*
X45683D01*
Y262050D01*
X47870D01*
X48496Y261737D01*
X48808Y261112D01*
X48496Y260487D01*
X47870Y260175D01*
X45683D01*
X49226Y117355D02*
Y121105D01*
X52352D01*
X51726Y119230D02*
X49226D01*
X55919Y41764D02*
Y45514D01*
X59044D01*
X58419Y43639D02*
X55919D01*
X64399Y119752D02*
X64086Y119439D01*
X63461Y119126D01*
X62524D01*
X61899Y119439D01*
X61586Y119752D01*
X61274Y120376D01*
Y121626D01*
X61586Y122252D01*
X61899Y122564D01*
X62524Y122876D01*
X63461D01*
X64086Y122564D01*
X64399Y122252D01*
Y129752D02*
X64086Y129439D01*
X63461Y129126D01*
X62524D01*
X61899Y129439D01*
X61586Y129752D01*
X61274Y130376D01*
Y131626D01*
X61586Y132252D01*
X61899Y132564D01*
X62524Y132876D01*
X63461D01*
X64086Y132564D01*
X64399Y132252D01*
Y139752D02*
X64086Y139439D01*
X63461Y139126D01*
X62524D01*
X61899Y139439D01*
X61586Y139752D01*
X61274Y140376D01*
Y141626D01*
X61586Y142252D01*
X61899Y142564D01*
X62524Y142876D01*
X63461D01*
X64086Y142564D01*
X64399Y142252D01*
Y149752D02*
X64086Y149439D01*
X63461Y149126D01*
X62524D01*
X61899Y149439D01*
X61586Y149752D01*
X61274Y150376D01*
Y151626D01*
X61586Y152252D01*
X61899Y152564D01*
X62524Y152876D01*
X63461D01*
X64086Y152564D01*
X64399Y152252D01*
Y159752D02*
X64086Y159439D01*
X63461Y159126D01*
X62524D01*
X61899Y159439D01*
X61586Y159752D01*
X61274Y160376D01*
Y161626D01*
X61586Y162252D01*
X61899Y162564D01*
X62524Y162876D01*
X63461D01*
X64086Y162564D01*
X64399Y162252D01*
Y169752D02*
X64086Y169439D01*
X63461Y169126D01*
X62524D01*
X61899Y169439D01*
X61586Y169752D01*
X61274Y170376D01*
Y171626D01*
X61586Y172252D01*
X61899Y172564D01*
X62524Y172876D01*
X63461D01*
X64086Y172564D01*
X64399Y172252D01*
X66549Y28772D02*
Y32522D01*
X69674D01*
X69049Y30647D02*
X66549D01*
X67487Y48063D02*
X68737D01*
X68112D02*
Y51813D01*
X67487D02*
X68737D01*
X67337Y66174D02*
Y69924D01*
X70462D01*
X69837Y68049D02*
X67337D01*
X71274Y74048D02*
Y77798D01*
X74399D01*
X73774Y75923D02*
X71274D01*
X74399Y119752D02*
X74086Y119439D01*
X73461Y119126D01*
X72524D01*
X71899Y119439D01*
X71586Y119752D01*
X71274Y120376D01*
Y121626D01*
X71586Y122252D01*
X71899Y122564D01*
X72524Y122876D01*
X73461D01*
X74086Y122564D01*
X74399Y122252D01*
Y129752D02*
X74086Y129439D01*
X73461Y129126D01*
X72524D01*
X71899Y129439D01*
X71586Y129752D01*
X71274Y130376D01*
Y131626D01*
X71586Y132252D01*
X71899Y132564D01*
X72524Y132876D01*
X73461D01*
X74086Y132564D01*
X74399Y132252D01*
Y139752D02*
X74086Y139439D01*
X73461Y139126D01*
X72524D01*
X71899Y139439D01*
X71586Y139752D01*
X71274Y140376D01*
Y141626D01*
X71586Y142252D01*
X71899Y142564D01*
X72524Y142876D01*
X73461D01*
X74086Y142564D01*
X74399Y142252D01*
Y149752D02*
X74086Y149439D01*
X73461Y149126D01*
X72524D01*
X71899Y149439D01*
X71586Y149752D01*
X71274Y150376D01*
Y151626D01*
X71586Y152252D01*
X71899Y152564D01*
X72524Y152876D01*
X73461D01*
X74086Y152564D01*
X74399Y152252D01*
Y159752D02*
X74086Y159439D01*
X73461Y159126D01*
X72524D01*
X71899Y159439D01*
X71586Y159752D01*
X71274Y160376D01*
Y161626D01*
X71586Y162252D01*
X71899Y162564D01*
X72524Y162876D01*
X73461D01*
X74086Y162564D01*
X74399Y162252D01*
Y169752D02*
X74086Y169439D01*
X73461Y169126D01*
X72524D01*
X71899Y169439D01*
X71586Y169752D01*
X71274Y170376D01*
Y171626D01*
X71586Y172252D01*
X71899Y172564D01*
X72524Y172876D01*
X73461D01*
X74086Y172564D01*
X74399Y172252D01*
X73636Y98851D02*
Y102601D01*
X76761D01*
X76136Y100726D02*
X73636D01*
X81116Y104756D02*
Y108506D01*
X84241D01*
X83616Y106631D02*
X81116D01*
Y183496D02*
Y187246D01*
X84241D01*
X83616Y185372D02*
X81116D01*
Y222867D02*
Y226617D01*
X84241D01*
X83616Y224742D02*
X81116D01*
Y262237D02*
Y265987D01*
X84241D01*
X83616Y264112D02*
X81116D01*
X83478Y24048D02*
Y27798D01*
X86604D01*
X85978Y25923D02*
X83478D01*
Y76016D02*
Y79766D01*
X86604D01*
X85978Y77891D02*
X83478D01*
Y92552D02*
Y96302D01*
X86604D01*
X85978Y94427D02*
X83478D01*
X86628Y192945D02*
Y196695D01*
X89753D01*
X89128Y194820D02*
X86628D01*
Y199244D02*
Y202994D01*
X89753D01*
X89128Y201120D02*
X86628D01*
X88203Y35859D02*
Y39609D01*
X91328D01*
X90703Y37734D02*
X88203D01*
Y76804D02*
Y80554D01*
X91328D01*
X90703Y78679D02*
X88203D01*
X92927Y24048D02*
Y27798D01*
X96052D01*
X95427Y25923D02*
X92927D01*
X93865Y82315D02*
X95115D01*
X94490D02*
Y86065D01*
X93865D02*
X95115D01*
X97802Y58693D02*
X99052D01*
X98427D02*
Y62443D01*
X97802D02*
X99052D01*
X97802Y62630D02*
X99052D01*
X98427D02*
Y66380D01*
X97802D02*
X99052D01*
X101195Y24048D02*
Y27798D01*
X104320D01*
X103695Y25923D02*
X101195D01*
X103557Y92552D02*
Y96302D01*
X106682D01*
X106057Y94427D02*
X103557D01*
X105132Y187827D02*
Y191577D01*
X108257D01*
X107632Y189702D02*
X105132D01*
X107100Y24048D02*
Y27798D01*
X110226D01*
X109600Y25923D02*
X107100D01*
X108281Y82709D02*
Y86459D01*
X111407D01*
X110781Y84584D02*
X108281D01*
X112219Y32709D02*
Y36459D01*
X115344D01*
X114719Y34584D02*
X112219D01*
X113550Y67748D02*
X114800D01*
X114175D02*
Y71498D01*
X113550D02*
X114800D01*
X114337Y64205D02*
X115587D01*
X114962D02*
Y67955D01*
X114337D02*
X115587D01*
X120486Y104756D02*
Y108506D01*
X123611D01*
X122986Y106631D02*
X120486D01*
Y183496D02*
Y187246D01*
X123611D01*
X122986Y185372D02*
X120486D01*
Y238615D02*
Y242365D01*
X123611D01*
X122986Y240490D02*
X120486D01*
Y262237D02*
Y265987D01*
X123611D01*
X122986Y264112D02*
X120486D01*
X121274Y36252D02*
Y40002D01*
X124399D01*
X123774Y38128D02*
X121274D01*
Y42158D02*
Y45908D01*
X124399D01*
X123774Y44033D02*
X121274D01*
X122211Y48063D02*
X123461D01*
X122836D02*
Y51813D01*
X122211D02*
X123461D01*
X129935Y15386D02*
Y19136D01*
X133060D01*
X132435Y17261D02*
X129935D01*
X132691Y64599D02*
Y68349D01*
X135816D01*
X135191Y66474D02*
X132691D01*
X138990Y36252D02*
Y40002D01*
X142115D01*
X141490Y38128D02*
X138990D01*
Y42158D02*
Y45908D01*
X142115D01*
X141490Y44033D02*
X138990D01*
Y48063D02*
Y51813D01*
X142115D01*
X141490Y49939D02*
X138990D01*
X142533Y15780D02*
Y19530D01*
X145659D01*
X145033Y17655D02*
X142533D01*
X155919Y50426D02*
Y54176D01*
X159044D01*
X158419Y52301D02*
X155919D01*
X159856Y104756D02*
Y108506D01*
X162981D01*
X162356Y106631D02*
X159856D01*
Y183496D02*
Y187246D01*
X162981D01*
X162356Y185372D02*
X159856D01*
X169699Y206725D02*
Y210475D01*
X172824D01*
X172199Y208600D02*
X169699D01*
X179298Y62237D02*
X180548D01*
X179923D02*
Y65987D01*
X179298D02*
X180548D01*
X183628Y60268D02*
X184878D01*
X184254D02*
Y64018D01*
X183628D02*
X184878D01*
X183478Y50426D02*
Y54176D01*
X186604D01*
X185978Y52301D02*
X183478D01*
X184659Y252394D02*
Y256144D01*
X187785D01*
X187159Y254269D02*
X184659D01*
X196077Y24048D02*
Y27798D01*
X199202D01*
X198577Y25923D02*
X196077D01*
X198833Y65386D02*
Y69136D01*
X201958D01*
X201333Y67261D02*
X198833D01*
X199226Y104756D02*
Y108506D01*
X202352D01*
X201726Y106631D02*
X199226D01*
Y183496D02*
Y187246D01*
X202352D01*
X201726Y185372D02*
X199226D01*
Y238615D02*
Y242365D01*
X202352D01*
X201726Y240490D02*
X199226D01*
Y262237D02*
Y265987D01*
X202352D01*
X201726Y264112D02*
X199226D01*
X204344Y53575D02*
Y57325D01*
X207470D01*
X206844Y55450D02*
X204344D01*
X207494Y121292D02*
Y125042D01*
Y123167D02*
X208431D01*
X210619Y125042D01*
X208431Y123167D02*
X210619Y121292D01*
X214974Y50426D02*
Y54176D01*
X218100D01*
X217474Y52301D02*
X214974D01*
X217494Y121292D02*
Y125042D01*
Y123167D02*
X218431D01*
X220619Y125042D01*
X218431Y123167D02*
X220619Y121292D01*
X227494D02*
Y125042D01*
Y123167D02*
X228431D01*
X230619Y125042D01*
X228431Y123167D02*
X230619Y121292D01*
X234266Y111843D02*
Y115593D01*
X237391D01*
X236766Y113718D02*
X234266D01*
X238596Y183496D02*
Y187246D01*
X241722D01*
X241096Y185372D02*
X238596D01*
Y222867D02*
Y226617D01*
X241722D01*
X241096Y224742D02*
X238596D01*
Y262237D02*
Y265987D01*
X241722D01*
X241096Y264112D02*
X238596D01*
X248439Y107906D02*
Y111656D01*
X251564D01*
X250939Y109781D02*
X248439D01*
X250801Y52000D02*
Y55750D01*
X253926D01*
X253301Y53876D02*
X250801D01*
Y89402D02*
Y93152D01*
X253926D01*
X253301Y91277D02*
X250801D01*
X257888Y53969D02*
Y57719D01*
X261013D01*
X260388Y55844D02*
X257888D01*
Y63418D02*
Y67168D01*
X261013D01*
X260388Y65293D02*
X257888D01*
Y82315D02*
Y86065D01*
X261013D01*
X260388Y84191D02*
X257888D01*
X259069Y98063D02*
Y101813D01*
X262194D01*
X261569Y99939D02*
X259069D01*
X268900Y65239D02*
Y61489D01*
X272025D01*
X268900Y87994D02*
Y84244D01*
X272025D01*
X269935Y119126D02*
Y122876D01*
Y121002D02*
X273060D01*
Y119126D02*
Y122876D01*
X269935Y129126D02*
Y132876D01*
Y131002D02*
X273060D01*
Y129126D02*
Y132876D01*
X269935Y139126D02*
Y142876D01*
Y141002D02*
X273060D01*
Y139126D02*
Y142876D01*
X269935Y149126D02*
Y152876D01*
Y151002D02*
X273060D01*
Y149126D02*
Y152876D01*
X269935Y159126D02*
Y162876D01*
Y161002D02*
X273060D01*
Y159126D02*
Y162876D01*
X269935Y169126D02*
Y172876D01*
Y171002D02*
X273060D01*
Y169126D02*
Y172876D01*
X276217Y31828D02*
X276842Y31516D01*
X277155Y30891D01*
X276842Y30266D01*
X276217Y29953D01*
X274030D01*
Y33703D01*
X276217D01*
X276842Y33391D01*
X277155Y32766D01*
X276842Y32141D01*
X276217Y31828D01*
X274030D01*
X276217Y260175D02*
X276842Y259862D01*
X277155Y259237D01*
X276842Y258612D01*
X276217Y258300D01*
X274030D01*
Y262050D01*
X276217D01*
X276842Y261737D01*
X277155Y261112D01*
X276842Y260487D01*
X276217Y260175D01*
X274030D01*
X279935Y119126D02*
Y122876D01*
Y121002D02*
X283060D01*
Y119126D02*
Y122876D01*
X279935Y129126D02*
Y132876D01*
Y131002D02*
X283060D01*
Y129126D02*
Y132876D01*
X279935Y139126D02*
Y142876D01*
Y141002D02*
X283060D01*
Y139126D02*
Y142876D01*
X279935Y149126D02*
Y152876D01*
Y151002D02*
X283060D01*
Y149126D02*
Y152876D01*
X279935Y159126D02*
Y162876D01*
Y161002D02*
X283060D01*
Y159126D02*
Y162876D01*
X279935Y169126D02*
Y172876D01*
Y171002D02*
X283060D01*
Y169126D02*
Y172876D01*
X0Y0D02*
M02*
