G04 DesignSpark PCB PRO Gerber Version 10.0 Build 5299*
G04 #@! TF.Part,Single*
G04 #@! TF.FileFunction,Copper,L4,Bot*
G04 #@! TF.FilePolarity,Positive*
%FSLAX35Y35*%
%MOIN*%
G04 #@! TA.AperFunction,ComponentPad*
%ADD89R,0.05020X0.05020*%
%ADD29R,0.06496X0.06496*%
G04 #@! TD.AperFunction*
%ADD19C,0.00787*%
%ADD22C,0.00984*%
%ADD21C,0.01000*%
%ADD23C,0.01969*%
G04 #@! TA.AperFunction,ViaPad*
%ADD26C,0.02756*%
%ADD24C,0.03543*%
G04 #@! TD.AperFunction*
%ADD130C,0.03937*%
G04 #@! TA.AperFunction,ComponentPad*
%ADD90C,0.05020*%
%ADD28C,0.06102*%
%ADD72C,0.06496*%
G04 #@! TD.AperFunction*
X0Y0D02*
D02*
D19*
X14705Y268984D02*
Y7394D01*
X19061Y3037D01*
X280651D01*
X285008Y7394D01*
Y268984D01*
X280651Y273341D01*
X19061D01*
X14705Y268984D01*
X117502Y11122D02*
G75*
G02*
X122888Y9449I2433J-1673D01*
G01*
G75*
G02*
X117502Y7776I-2953J0D01*
G01*
X25447D01*
G75*
G02*
X24262Y8268I0J1673D01*
G01*
X20722Y11807D01*
G75*
G02*
X20230Y12992I1181J1185D01*
G01*
Y73619D01*
G75*
G02*
Y73621I793J2D01*
G01*
G75*
G02*
Y73622I683J0D01*
G01*
G75*
G02*
X20720Y74805I1673J0D01*
G01*
X23476Y77561D01*
G75*
G02*
X24663Y78051I1183J-1183D01*
G01*
X80991D01*
G75*
G02*
X85486Y76378I1936J-1673D01*
G01*
G75*
G02*
X80991Y74705I-2559J0D01*
G01*
X25352D01*
X23577Y72929D01*
Y13685D01*
X26140Y11122D01*
X117502D01*
X176560Y60169D02*
G75*
G02*
X177022Y59055I-1113J-1114D01*
G01*
Y46457D01*
G75*
G02*
X176560Y45343I-1575J0D01*
G01*
X176358Y45141D01*
G75*
G02*
X176431Y44488I-2880J-652D01*
G01*
G75*
G02*
X170526I-2953J0D01*
G01*
G75*
G02*
X173872Y47415I2953J0D01*
G01*
Y52061D01*
G75*
G02*
X171237Y52225I-1181J2270D01*
G01*
X170655Y51643D01*
G75*
G02*
X169539Y51181I-1114J1113D01*
G01*
X167181D01*
G75*
G02*
X166066Y51643I-2J1575D01*
G01*
X165346Y52362D01*
X89393D01*
G75*
G02*
X84305Y52756I-2529J394D01*
G01*
G75*
G02*
X85229Y54724I2559J0D01*
G01*
G75*
G02*
X84305Y56693I1635J1969D01*
G01*
G75*
G02*
X89373Y57199I2559J0D01*
G01*
X89485Y57087D01*
X101130D01*
G75*
G02*
X101245Y59648I2270J1181D01*
G01*
G75*
G02*
X100053Y61811I1367J2163D01*
G01*
G75*
G02*
X104629Y63386I2559J0D01*
G01*
X167964D01*
G75*
G02*
X169080Y62924I2J-1575D01*
G01*
X170194Y61811D01*
X174263D01*
G75*
G02*
X175379Y61350I2J-1575D01*
G01*
X176560Y60169D01*
X99266Y26772D02*
G75*
G02*
X105171I2953J0D01*
G01*
G75*
G02*
X99266I-2953J0D01*
G01*
X111274Y33268D02*
G75*
G02*
X114226Y30315I0J-2953D01*
G01*
G75*
G02*
X108321I-2953J0D01*
G01*
G75*
G02*
X111274Y33268I2953J0D01*
G01*
X108321Y36220D02*
G75*
G02*
X114226I2953J0D01*
G01*
G75*
G02*
X111274Y33268I-2953J0D01*
G01*
G75*
G02*
X108321Y36220I0J2953D01*
G01*
X108715Y42126D02*
G75*
G02*
X113833I2559J0D01*
G01*
G75*
G02*
X108715I-2559J0D01*
G01*
X28203Y24016D02*
G75*
G02*
X43163I7480J0D01*
G01*
G75*
G02*
X28203I-7480J0D01*
G01*
X42967Y35827D02*
G75*
G02*
X48872I2953J0D01*
G01*
G75*
G02*
X42967I-2953J0D01*
G01*
X53990Y42126D02*
G75*
G02*
X59108I2559J0D01*
G01*
G75*
G02*
X53990I-2559J0D01*
G01*
X75557Y72176D02*
G75*
G02*
X81156Y70866I2646J-1310D01*
G01*
G75*
G02*
X76124Y68769I-2953J0D01*
G01*
G75*
G02*
X70526Y70079I-2646J1310D01*
G01*
G75*
G02*
X75557Y72176I2953J0D01*
G01*
X75250Y29921D02*
G75*
G02*
X81156I2953J0D01*
G01*
G75*
G02*
X75250I-2953J0D01*
G01*
X28203Y252362D02*
G75*
G02*
X43163I7480J0D01*
G01*
G75*
G02*
X28203I-7480J0D01*
G01*
X36274Y111417D02*
G75*
G02*
X42179I2953J0D01*
G01*
G75*
G02*
X36274I-2953J0D01*
G01*
X46632Y123189D02*
G75*
G02*
X55915I4642J0D01*
G01*
G75*
G02*
X46632I-4642J0D01*
G01*
X265703Y113189D02*
G75*
G02*
X274167I4232J0D01*
G01*
G75*
G02*
X273085Y110362I-4233J0D01*
G01*
Y107480D01*
G75*
G02*
X272159Y105250I-3150J0D01*
G01*
X270196Y103287D01*
G75*
G02*
X267967Y102362I-2230J2224D01*
G01*
X255372D01*
G75*
G02*
X253141Y103285I-4J3150D01*
G01*
X250385Y106041D01*
G75*
G02*
X249463Y108268I2227J2227D01*
G01*
G75*
G02*
Y108269I1327J1D01*
G01*
G75*
G02*
Y108272I1195J2D01*
G01*
Y116018D01*
X246189Y119291D01*
X201161D01*
X200915Y119045D01*
X201185D01*
Y111663D01*
X200644D01*
Y108268D01*
G75*
G02*
X199719Y106038I-3150J0D01*
G01*
X197756Y104075D01*
G75*
G02*
X195526Y103150I-2230J2224D01*
G01*
X53793D01*
G75*
G02*
X51563Y104075I0J3150D01*
G01*
X49049Y106589D01*
G75*
G02*
X48124Y108819I2224J2230D01*
G01*
Y110075D01*
G75*
G02*
X46844Y113189I3150J3114D01*
G01*
G75*
G02*
X55703I4429J0D01*
G01*
G75*
G02*
X54447Y110100I-4429J0D01*
G01*
X55098Y109449D01*
X56844D01*
Y117618D01*
X65703D01*
Y109449D01*
X194221D01*
X194344Y109572D01*
Y111663D01*
X193803D01*
Y119045D01*
X194344D01*
Y120074D01*
G75*
G02*
Y120078I1211J2D01*
G01*
G75*
G02*
Y120079I1410J1D01*
G01*
G75*
G02*
X195267Y122306I3150J0D01*
G01*
X197629Y124668D01*
G75*
G02*
X199861Y125591I2227J-2227D01*
G01*
X247494D01*
G75*
G02*
X249724Y124665I0J-3150D01*
G01*
X254837Y119553D01*
G75*
G02*
X255762Y117323I-2224J-2230D01*
G01*
Y113894D01*
G75*
G02*
X264167Y113189I4173J-705D01*
G01*
G75*
G02*
X255762Y112484I-4232J0D01*
G01*
Y109572D01*
X256673Y108661D01*
X266662D01*
X266785Y108785D01*
Y110362D01*
G75*
G02*
X265703Y113189I3150J2827D01*
G01*
X256439Y55551D02*
G75*
G02*
X261360I2461J0D01*
G01*
G75*
G02*
X256439I-2461J0D01*
G01*
X256549Y24016D02*
G75*
G02*
X271510I7480J0D01*
G01*
G75*
G02*
X256549I-7480J0D01*
G01*
X256439Y78307D02*
G75*
G02*
X261360I2461J0D01*
G01*
G75*
G02*
X256439I-2461J0D01*
G01*
X203803Y115354D02*
G75*
G02*
X211185I3691J0D01*
G01*
G75*
G02*
X203803I-3691J0D01*
G01*
X213803D02*
G75*
G02*
X221185I3691J0D01*
G01*
G75*
G02*
X213803I-3691J0D01*
G01*
X244935Y76378D02*
G75*
G02*
X250841I2953J0D01*
G01*
G75*
G02*
X250053Y74370I-2953J0D01*
G01*
Y59488D01*
G75*
G02*
X250841Y57480I-2165J-2007D01*
G01*
G75*
G02*
X244935I-2953J0D01*
G01*
G75*
G02*
X245722Y59488I2953J0D01*
G01*
Y74370D01*
G75*
G02*
X244935Y76378I2165J2007D01*
G01*
X95329Y76772D02*
G75*
G02*
X101234I2953J0D01*
G01*
G75*
G02*
X95329I-2953J0D01*
G01*
X183124Y18110D02*
G75*
G02*
X189030I2953J0D01*
G01*
G75*
G02*
X183124I-2953J0D01*
G01*
X185880Y59449D02*
G75*
G02*
X191785I2953J0D01*
G01*
G75*
G02*
X185880I-2953J0D01*
G01*
X265703Y143189D02*
G75*
G02*
X274167I4232J0D01*
G01*
G75*
G02*
X268369Y139257I-4232J0D01*
G01*
X266120Y137008D01*
G75*
G02*
X264935Y136516I-1185J1181D01*
G01*
X262551D01*
G75*
G02*
X262366Y129724I-2616J-3327D01*
G01*
X264165D01*
X266020Y131580D01*
G75*
G02*
X265703Y133189I3915J1609D01*
G01*
G75*
G02*
X274167I4232J0D01*
G01*
G75*
G02*
X268216Y129322I-4232J0D01*
G01*
X265930Y127036D01*
G75*
G02*
X264815Y126575I-1114J1113D01*
G01*
X262474D01*
G75*
G02*
X264167Y123189I-2539J-3386D01*
G01*
G75*
G02*
X255703I-4232J0D01*
G01*
G75*
G02*
X257396Y126575I4232J0D01*
G01*
X64129D01*
G75*
G02*
X65703Y123189I-2856J-3386D01*
G01*
G75*
G02*
X56844I-4429J0D01*
G01*
G75*
G02*
X58418Y126575I4429J0D01*
G01*
X56079D01*
G75*
G02*
X54963Y127036I-2J1575D01*
G01*
X52922Y129078D01*
G75*
G02*
X46844Y133189I-1648J4111D01*
G01*
G75*
G02*
X55703I4429J0D01*
G01*
G75*
G02*
X55239Y131215I-4429J0D01*
G01*
X56729Y129724D01*
X58514D01*
G75*
G02*
X58350Y136516I2759J3465D01*
G01*
X56431D01*
G75*
G02*
X55246Y137008I0J1673D01*
G01*
X53100Y139154D01*
G75*
G02*
X46844Y143189I-1826J4035D01*
G01*
G75*
G02*
X55703I4429J0D01*
G01*
G75*
G02*
X55402Y141585I-4429J0D01*
G01*
X57124Y139862D01*
X58350D01*
G75*
G02*
X56844Y143189I2924J3327D01*
G01*
G75*
G02*
X65413Y144764I4429J0D01*
G01*
X256007D01*
G75*
G02*
X264167Y143189I3928J-1575D01*
G01*
G75*
G02*
X262551Y139862I-4232J0D01*
G01*
X264242D01*
X266003Y141623D01*
G75*
G02*
X265703Y143189I3932J1566D01*
G01*
X265490Y123189D02*
G75*
G02*
X274380I4445J0D01*
G01*
G75*
G02*
X265490I-4445J0D01*
G01*
X46844Y153189D02*
G75*
G02*
X55703I4429J0D01*
G01*
G75*
G02*
X46844I-4429J0D01*
G01*
Y163189D02*
G75*
G02*
X55703I4429J0D01*
G01*
G75*
G02*
X46844I-4429J0D01*
G01*
X256007Y154764D02*
G75*
G02*
X264167Y153189I3928J-1575D01*
G01*
G75*
G02*
X256007Y151614I-4232J0D01*
G01*
X65413D01*
G75*
G02*
X56844Y153189I-4140J1575D01*
G01*
G75*
G02*
X65413Y154764I4429J0D01*
G01*
X256007D01*
X257108Y166339D02*
G75*
G02*
X264167Y163189I2827J-3150D01*
G01*
G75*
G02*
X257108Y160039I-4232J0D01*
G01*
X64388D01*
G75*
G02*
X56844Y163189I-3114J3150D01*
G01*
G75*
G02*
X64388Y166339I4429J0D01*
G01*
X257108D01*
X73675Y193307D02*
G75*
G02*
X79581I2953J0D01*
G01*
G75*
G02*
X73675I-2953J0D01*
G01*
X171707Y246457D02*
G75*
G02*
X177612I2953J0D01*
G01*
G75*
G02*
X171707I-2953J0D01*
G01*
X256549Y252362D02*
G75*
G02*
X271510I7480J0D01*
G01*
G75*
G02*
X256549I-7480J0D01*
G01*
X265703Y153189D02*
G75*
G02*
X274167I4232J0D01*
G01*
G75*
G02*
X265703I-4232J0D01*
G01*
Y163189D02*
G75*
G02*
X274167I4232J0D01*
G01*
G75*
G02*
X265703I-4232J0D01*
G01*
X15098Y18110D02*
G36*
X15098Y18110D02*
Y7000D01*
X18668Y3431D01*
X281045D01*
X284614Y7000D01*
Y18110D01*
X268621D01*
G75*
G02*
X259438I-4591J5906D01*
G01*
X189030D01*
G75*
G02*
X183124I-2953J0D01*
G01*
X40274D01*
G75*
G02*
X31092I-4591J5906D01*
G01*
X23577D01*
Y13685D01*
X26140Y11122D01*
X117502D01*
G75*
G02*
X122888Y9449I2433J-1674D01*
G01*
G75*
G02*
X117502Y7776I-2953J0D01*
G01*
X25447D01*
G75*
G02*
X24262Y8268I0J1672D01*
G01*
X20722Y11807D01*
G75*
G02*
X20230Y12992I1181J1185D01*
G01*
Y18110D01*
X15098D01*
G37*
Y26772D02*
G36*
X15098Y26772D02*
Y18110D01*
X20230D01*
Y26772D01*
X15098D01*
G37*
X23577D02*
G36*
X23577Y26772D02*
Y18110D01*
X31092D01*
G75*
G02*
X28203Y24016I4591J5906D01*
G01*
G75*
G02*
X28729Y26772I7480J0D01*
G01*
X23577D01*
G37*
X43163Y24016D02*
G36*
X43163Y24016D02*
G75*
G02*
X40274Y18110I-7480J0D01*
G01*
X183124D01*
G75*
G02*
X189030I2953J0D01*
G01*
X259438D01*
G75*
G02*
X256549Y24016I4591J5906D01*
G01*
G75*
G02*
X257075Y26772I7480J0D01*
G01*
X105171D01*
G75*
G02*
X99266I-2953J0D01*
G01*
X42637D01*
G75*
G02*
X43163Y24016I-6954J-2756D01*
G01*
G37*
X271510D02*
G36*
X271510Y24016D02*
G75*
G02*
X268621Y18110I-7480J0D01*
G01*
X284614D01*
Y26772D01*
X270984D01*
G75*
G02*
X271510Y24016I-6954J-2756D01*
G01*
G37*
X15098Y30315D02*
G36*
X15098Y30315D02*
Y26772D01*
X20230D01*
Y30315D01*
X15098D01*
G37*
X23577D02*
G36*
X23577Y30315D02*
Y26772D01*
X28729D01*
G75*
G02*
X31649Y30315I6954J-2756D01*
G01*
X23577D01*
G37*
X39717D02*
G36*
X39717Y30315D02*
G75*
G02*
X42637Y26772I-4034J-6300D01*
G01*
X99266D01*
G75*
G02*
X105171I2953J0D01*
G01*
X257075D01*
G75*
G02*
X259995Y30315I6954J-2756D01*
G01*
X114226D01*
G75*
G02*
X108321I-2953J0D01*
G01*
X81129D01*
G75*
G02*
X81156Y29921I-2926J-394D01*
G01*
G75*
G02*
X75250I-2953J0D01*
G01*
G75*
G02*
X75276Y30315I2953J0D01*
G01*
X39717D01*
G37*
X268064D02*
G36*
X268064Y30315D02*
G75*
G02*
X270984Y26772I-4034J-6300D01*
G01*
X284614D01*
Y30315D01*
X268064D01*
G37*
X15098Y36220D02*
G36*
X15098Y36220D02*
Y30315D01*
X20230D01*
Y36220D01*
X15098D01*
G37*
X23577D02*
G36*
X23577Y36220D02*
Y30315D01*
X31649D01*
G75*
G02*
X39717I4034J-6299D01*
G01*
X75276D01*
G75*
G02*
X81129I2926J-394D01*
G01*
X108321D01*
G75*
G02*
X111274Y33268I2953J0D01*
G01*
G75*
G02*
X114226Y30315I0J-2953D01*
G01*
X259995D01*
G75*
G02*
X268064I4034J-6299D01*
G01*
X284614D01*
Y36220D01*
X114226D01*
G75*
G02*
X111274Y33268I-2953J0D01*
G01*
G75*
G02*
X108321Y36220I0J2953D01*
G01*
X48846D01*
G75*
G02*
X48872Y35827I-2926J-394D01*
G01*
G75*
G02*
X42967I-2953J0D01*
G01*
G75*
G02*
X42993Y36220I2953J0D01*
G01*
X23577D01*
G37*
X15098Y42717D02*
G36*
X15098Y42717D02*
Y36220D01*
X20230D01*
Y42717D01*
X15098D01*
G37*
X23577D02*
G36*
X23577Y42717D02*
Y36220D01*
X42993D01*
G75*
G02*
X48846I2926J-394D01*
G01*
X108321D01*
G75*
G02*
X114226I2953J0D01*
G01*
X284614D01*
Y42717D01*
X175841D01*
G75*
G02*
X171116I-2362J1772D01*
G01*
X113764D01*
G75*
G02*
X113833Y42126I-2490J-590D01*
G01*
G75*
G02*
X108715I-2559J0D01*
G01*
G75*
G02*
X108783Y42717I2559J1D01*
G01*
X59039D01*
G75*
G02*
X59108Y42126I-2490J-590D01*
G01*
G75*
G02*
X53990I-2559J0D01*
G01*
G75*
G02*
X54059Y42717I2559J1D01*
G01*
X23577D01*
G37*
X15098Y55551D02*
G36*
X15098Y55551D02*
Y42717D01*
X20230D01*
Y55551D01*
X15098D01*
G37*
X23577D02*
G36*
X23577Y55551D02*
Y42717D01*
X54059D01*
G75*
G02*
X59039I2490J-591D01*
G01*
X108783D01*
G75*
G02*
X113764I2490J-591D01*
G01*
X171116D01*
G75*
G02*
X170526Y44488I2362J1772D01*
G01*
G75*
G02*
X173872Y47415I2953J0D01*
G01*
Y52061D01*
G75*
G02*
X171237Y52225I-1181J2270D01*
G01*
X170655Y51643D01*
G75*
G02*
X169539Y51181I-1114J1115D01*
G01*
X167181D01*
G75*
G02*
X166066Y51643I-2J1576D01*
G01*
X165346Y52362D01*
X89393D01*
G75*
G02*
X84305Y52756I-2529J394D01*
G01*
G75*
G02*
X85229Y54724I2559J0D01*
G01*
G75*
G02*
X84574Y55551I1635J1968D01*
G01*
X23577D01*
G37*
X176431Y44488D02*
G36*
X176431Y44488D02*
G75*
G02*
X175841Y42717I-2953J0D01*
G01*
X284614D01*
Y55551D01*
X261360D01*
G75*
G02*
X256439I-2461J0D01*
G01*
X250123D01*
G75*
G02*
X245652I-2235J1929D01*
G01*
X177022D01*
Y46457D01*
G75*
G02*
X176560Y45343I-1575J0D01*
G01*
X176358Y45141D01*
G75*
G02*
X176431Y44491I-2865J-650D01*
G01*
G75*
G02*
Y44488I-3096J-1D01*
G01*
G37*
X15098Y59449D02*
G36*
X15098Y59449D02*
Y55551D01*
X20230D01*
Y59449D01*
X15098D01*
G37*
X23577D02*
G36*
X23577Y59449D02*
Y55551D01*
X84574D01*
G75*
G02*
X84305Y56693I2290J1142D01*
G01*
G75*
G02*
X89373Y57199I2559J0D01*
G01*
X89485Y57087D01*
X101130D01*
G75*
G02*
X100841Y58268I2270J1181D01*
G01*
G75*
G02*
X101130Y59449I2559J0D01*
G01*
X23577D01*
G37*
X177022Y59055D02*
G36*
X177022Y59055D02*
Y55551D01*
X245652D01*
G75*
G02*
X244935Y57480I2235J1929D01*
G01*
G75*
G02*
X245687Y59449I2953J0D01*
G01*
X191785D01*
G75*
G02*
X185880I-2953J0D01*
G01*
X176972D01*
G75*
G02*
X177022Y59055I-1525J-394D01*
G01*
G37*
X250841Y57480D02*
G36*
X250841Y57480D02*
G75*
G02*
X250123Y55551I-2953J0D01*
G01*
X256439D01*
G75*
G02*
X261360I2461J0D01*
G01*
X284614D01*
Y59449D01*
X250089D01*
G75*
G02*
X250841Y57480I-2201J-1969D01*
G01*
G37*
X15098Y70472D02*
G36*
X15098Y70472D02*
Y59449D01*
X20230D01*
Y70472D01*
X15098D01*
G37*
X23577D02*
G36*
X23577Y70472D02*
Y59449D01*
X101130D01*
G75*
G02*
X101245Y59648I2271J-1182D01*
G01*
G75*
G02*
X100053Y61811I1368J2163D01*
G01*
G75*
G02*
X104629Y63386I2559J0D01*
G01*
X167964D01*
G75*
G02*
X169080Y62924I2J-1576D01*
G01*
X170194Y61811D01*
X174263D01*
G75*
G02*
X175379Y61350I2J-1576D01*
G01*
X176560Y60169D01*
G75*
G02*
X176972Y59449I-1114J-1114D01*
G01*
X185880D01*
G75*
G02*
X191785I2953J0D01*
G01*
X245687D01*
G75*
G02*
X245722Y59488I2201J-1965D01*
G01*
Y70472D01*
X81129D01*
G75*
G02*
X76124Y68769I-2926J394D01*
G01*
G75*
G02*
X70526Y70079I-2646J1310D01*
G01*
G75*
G02*
X70552Y70472I2954J0D01*
G01*
X23577D01*
G37*
X250053D02*
G36*
X250053Y70472D02*
Y59488D01*
G75*
G02*
X250089Y59449I-2165J-2004D01*
G01*
X284614D01*
Y70472D01*
X250053D01*
G37*
X15098Y78307D02*
G36*
X15098Y78307D02*
Y70472D01*
X20230D01*
Y73619D01*
Y73621D01*
Y73622D01*
G75*
G02*
X20720Y74805I1676J-1D01*
G01*
X23476Y77561D01*
G75*
G02*
X24663Y78051I1183J-1184D01*
G01*
X80991D01*
G75*
G02*
X81246Y78307I1936J-1672D01*
G01*
X15098D01*
G37*
X23577Y72929D02*
G36*
X23577Y72929D02*
Y70472D01*
X70552D01*
G75*
G02*
X75557Y72176I2926J-394D01*
G01*
G75*
G02*
X81156Y70866I2646J-1310D01*
G01*
G75*
G02*
X81129Y70472I-2954J0D01*
G01*
X245722D01*
Y74370D01*
G75*
G02*
X244935Y76378I2165J2007D01*
G01*
G75*
G02*
X245652Y78307I2953J0D01*
G01*
X100804D01*
G75*
G02*
X101234Y76772I-2522J-1535D01*
G01*
G75*
G02*
X95329I-2953J0D01*
G01*
G75*
G02*
X95759Y78307I2953J0D01*
G01*
X84609D01*
G75*
G02*
X85486Y76378I-1681J-1929D01*
G01*
Y76378D01*
G75*
G02*
X80991Y74705I-2559J0D01*
G01*
X25352D01*
X23577Y72929D01*
G37*
X250053Y74370D02*
G36*
X250053Y74370D02*
Y70472D01*
X284614D01*
Y78307D01*
X261360D01*
G75*
G02*
X256439I-2461J0D01*
G01*
X250123D01*
G75*
G02*
X250841Y76378I-2235J-1929D01*
G01*
G75*
G02*
X250053Y74370I-2953J0D01*
G01*
G37*
X15098Y111417D02*
G36*
X15098Y111417D02*
Y78307D01*
X81246D01*
G75*
G02*
X84609I1681J-1929D01*
G01*
X95759D01*
G75*
G02*
X100804I2522J-1535D01*
G01*
X245652D01*
G75*
G02*
X250123I2235J-1929D01*
G01*
X256439D01*
G75*
G02*
X261360I2461J0D01*
G01*
X284614D01*
Y111417D01*
X273779D01*
G75*
G02*
X273085Y110362I-3844J1772D01*
G01*
Y107480D01*
G75*
G02*
X272159Y105250I-3151J0D01*
G01*
X270196Y103287D01*
G75*
G02*
X267967Y102362I-2230J2226D01*
G01*
X255372D01*
G75*
G02*
X253141Y103285I-4J3152D01*
G01*
X250385Y106041D01*
G75*
G02*
X249463Y108267I2227J2227D01*
G01*
Y108268D01*
Y108269D01*
Y108272D01*
Y111417D01*
X200644D01*
Y108268D01*
G75*
G02*
X199719Y106038I-3151J0D01*
G01*
X197756Y104075D01*
G75*
G02*
X195526Y103150I-2230J2226D01*
G01*
X53793D01*
G75*
G02*
X51563Y104075I0J3151D01*
G01*
X49049Y106589D01*
G75*
G02*
X48124Y108819I2226J2230D01*
G01*
Y110075D01*
G75*
G02*
X47214Y111417I3149J3114D01*
G01*
X42179D01*
G75*
G02*
X36274I-2953J0D01*
G01*
X15098D01*
G37*
X54447Y110100D02*
G36*
X54447Y110100D02*
X55098Y109449D01*
X56844D01*
Y111417D01*
X55333D01*
G75*
G02*
X54447Y110100I-4060J1772D01*
G01*
G37*
X65703Y111417D02*
G36*
X65703Y111417D02*
Y109449D01*
X194221D01*
X194344Y109572D01*
Y111417D01*
X65703D01*
G37*
X255762D02*
G36*
X255762Y111417D02*
Y109572D01*
X256673Y108661D01*
X266662D01*
X266785Y108785D01*
Y110362D01*
G75*
G02*
X266091Y111417I3150J2827D01*
G01*
X263779D01*
G75*
G02*
X256091I-3844J1771D01*
G01*
X255762D01*
G37*
X15098Y115354D02*
G36*
X15098Y115354D02*
Y111417D01*
X36274D01*
G75*
G02*
X42179I2953J0D01*
G01*
X47214D01*
G75*
G02*
X46844Y113189I4059J1771D01*
G01*
Y113189D01*
G75*
G02*
X47410Y115354I4429J0D01*
G01*
X15098D01*
G37*
X55703Y113189D02*
G36*
X55703Y113189D02*
G75*
G02*
X55333Y111417I-4430J1D01*
G01*
X56844D01*
Y115354D01*
X55137D01*
G75*
G02*
X55703Y113189I-3864J-2165D01*
G01*
G37*
X65703Y115354D02*
G36*
X65703Y115354D02*
Y111417D01*
X194344D01*
Y111663D01*
X193803D01*
Y115354D01*
X65703D01*
G37*
X200644Y111663D02*
G36*
X200644Y111663D02*
Y111417D01*
X249463D01*
Y115354D01*
X221185D01*
G75*
G02*
X213803I-3691J0D01*
G01*
X211185D01*
G75*
G02*
X203803I-3691J0D01*
G01*
X201185D01*
Y111663D01*
X200644D01*
G37*
X255762Y112484D02*
G36*
X255762Y112484D02*
Y111417D01*
X256091D01*
G75*
G02*
X255762Y112484I3844J1772D01*
G01*
G37*
Y115354D02*
G36*
X255762Y115354D02*
Y113894D01*
G75*
G02*
X256298Y115354I4173J-704D01*
G01*
X255762D01*
G37*
X264167Y113189D02*
G36*
X264167Y113189D02*
G75*
G02*
X263779Y111417I-4232J0D01*
G01*
X266091D01*
G75*
G02*
X265703Y113189I3844J1772D01*
G01*
G75*
G02*
X266299Y115354I4232J0D01*
G01*
X263572D01*
G75*
G02*
X264167Y113189I-3636J-2165D01*
G01*
Y113189D01*
Y113189D01*
G37*
X273571Y115354D02*
G36*
X273571Y115354D02*
G75*
G02*
X274167Y113189I-3636J-2166D01*
G01*
G75*
G02*
X273779Y111417I-4233J0D01*
G01*
X284614D01*
Y115354D01*
X273571D01*
G37*
X15098Y123189D02*
G36*
X15098Y123189D02*
Y115354D01*
X47410D01*
G75*
G02*
X55137I3864J-2165D01*
G01*
X56844D01*
Y117618D01*
X65703D01*
Y115354D01*
X193803D01*
Y119045D01*
X194344D01*
Y120074D01*
Y120078D01*
Y120079D01*
G75*
G02*
X195267Y122306I3151J0D01*
G01*
X196150Y123189D01*
X65703D01*
G75*
G02*
X56844I-4429J0D01*
G01*
X55915D01*
G75*
G02*
X46632I-4642J0D01*
G01*
X15098D01*
G37*
X201161Y119291D02*
G36*
X201161Y119291D02*
X200915Y119045D01*
X201185D01*
Y115354D01*
X203803D01*
G75*
G02*
X211185I3691J0D01*
G01*
X213803D01*
G75*
G02*
X221185I3691J0D01*
G01*
X249463D01*
Y116018D01*
X246189Y119291D01*
X201161D01*
G37*
X251200Y123189D02*
G36*
X251200Y123189D02*
X254837Y119553D01*
G75*
G02*
X255762Y117323I-2226J-2230D01*
G01*
Y115354D01*
X256298D01*
G75*
G02*
X263572I3637J-2165D01*
G01*
X266299D01*
G75*
G02*
X273571I3636J-2165D01*
G01*
X284614D01*
Y123189D01*
X274380D01*
G75*
G02*
X265490I-4445J0D01*
G01*
X264167D01*
G75*
G02*
X255703I-4232J0D01*
G01*
X251200D01*
G37*
X15098Y153189D02*
G36*
X15098Y153189D02*
Y123189D01*
X46632D01*
G75*
G02*
X55915I4642J0D01*
G01*
X56844D01*
Y123189D01*
G75*
G02*
X58418Y126575I4429J0D01*
G01*
X56079D01*
G75*
G02*
X54963Y127036I-2J1576D01*
G01*
X52922Y129078D01*
G75*
G02*
X46844Y133189I-1648J4111D01*
G01*
G75*
G02*
X55703I4429J0D01*
G01*
G75*
G02*
X55239Y131215I-4435J1D01*
G01*
X56729Y129724D01*
X58514D01*
G75*
G02*
X56844Y133189I2759J3465D01*
G01*
G75*
G02*
X58350Y136516I4429J0D01*
G01*
X56431D01*
G75*
G02*
X55246Y137008I0J1672D01*
G01*
X53100Y139154D01*
G75*
G02*
X46844Y143189I-1826J4035D01*
G01*
G75*
G02*
X55703I4429J0D01*
G01*
G75*
G02*
X55402Y141585I-4437J2D01*
G01*
X57124Y139862D01*
X58350D01*
G75*
G02*
X56844Y143189I2924J3327D01*
G01*
G75*
G02*
X65413Y144764I4429J0D01*
G01*
X256007D01*
G75*
G02*
X264167Y143189I3928J-1575D01*
G01*
G75*
G02*
X262551Y139862I-4234J1D01*
G01*
X264242D01*
X266003Y141623D01*
G75*
G02*
X265703Y143189I3941J1568D01*
G01*
G75*
G02*
X274167I4232J0D01*
G01*
G75*
G02*
X268369Y139257I-4232J0D01*
G01*
X266120Y137008D01*
G75*
G02*
X264935Y136516I-1185J1180D01*
G01*
X262551D01*
G75*
G02*
X264167Y133189I-2616J-3327D01*
G01*
G75*
G02*
X262366Y129724I-4232J0D01*
G01*
X264165D01*
X266020Y131580D01*
G75*
G02*
X265703Y133189I3922J1610D01*
G01*
G75*
G02*
X274167I4232J0D01*
G01*
Y133189D01*
G75*
G02*
X268216Y129322I-4232J0D01*
G01*
X265930Y127036D01*
G75*
G02*
X264815Y126575I-1114J1115D01*
G01*
X262474D01*
G75*
G02*
X264167Y123189I-2539J-3385D01*
G01*
Y123189D01*
X265490D01*
G75*
G02*
X274380I4445J0D01*
G01*
X284614D01*
Y153189D01*
X274167D01*
G75*
G02*
X265703I-4232J0D01*
G01*
X264167D01*
G75*
G02*
X256007Y151614I-4232J0D01*
G01*
X65413D01*
G75*
G02*
X56844Y153189I-4140J1575D01*
G01*
X55703D01*
G75*
G02*
X46844I-4429J0D01*
G01*
X15098D01*
G37*
X65703Y123189D02*
G36*
X65703Y123189D02*
Y123189D01*
X196150D01*
X197629Y124668D01*
G75*
G02*
X199861Y125591I2228J-2229D01*
G01*
X247494D01*
G75*
G02*
X249724Y124665I0J-3151D01*
G01*
X251200Y123189D01*
X255703D01*
Y123189D01*
G75*
G02*
X257396Y126575I4232J0D01*
G01*
X64129D01*
G75*
G02*
X65703Y123189I-2855J-3385D01*
G01*
G37*
X15098Y163189D02*
G36*
X15098Y163189D02*
Y153189D01*
X46844D01*
G75*
G02*
X55703I4429J0D01*
G01*
X56844D01*
G75*
G02*
X65413Y154764I4429J0D01*
G01*
X256007D01*
G75*
G02*
X264167Y153189I3928J-1575D01*
G01*
X265703D01*
G75*
G02*
X274167I4232J0D01*
G01*
X284614D01*
Y163189D01*
X274167D01*
G75*
G02*
X265703I-4232J0D01*
G01*
X264167D01*
G75*
G02*
X257108Y160039I-4232J0D01*
G01*
X64388D01*
G75*
G02*
X56844Y163189I-3114J3150D01*
G01*
X55703D01*
G75*
G02*
X46844I-4429J0D01*
G01*
X15098D01*
G37*
Y193307D02*
G36*
X15098Y193307D02*
Y163189D01*
X46844D01*
G75*
G02*
X55703I4429J0D01*
G01*
X56844D01*
G75*
G02*
X64388Y166339I4430J0D01*
G01*
X257108D01*
G75*
G02*
X264167Y163189I2827J-3150D01*
G01*
X265703D01*
G75*
G02*
X274167I4232J0D01*
G01*
X284614D01*
Y193307D01*
X79581D01*
G75*
G02*
X73675I-2953J0D01*
G01*
X15098D01*
G37*
Y246457D02*
G36*
X15098Y246457D02*
Y193307D01*
X73675D01*
G75*
G02*
X79581I2953J0D01*
G01*
X284614D01*
Y246457D01*
X268621D01*
G75*
G02*
X259438I-4591J5906D01*
G01*
X177612D01*
G75*
G02*
X171707I-2953J0D01*
G01*
X40274D01*
G75*
G02*
X31092I-4591J5906D01*
G01*
X15098D01*
G37*
Y252362D02*
G36*
X15098Y252362D02*
Y246457D01*
X31092D01*
G75*
G02*
X28203Y252362I4591J5906D01*
G01*
X15098D01*
G37*
X43163D02*
G36*
X43163Y252362D02*
G75*
G02*
X40274Y246457I-7480J0D01*
G01*
X171707D01*
G75*
G02*
X177612I2953J0D01*
G01*
X259438D01*
G75*
G02*
X256549Y252362I4591J5906D01*
G01*
X43163D01*
G37*
X271510D02*
G36*
X271510Y252362D02*
G75*
G02*
X268621Y246457I-7480J0D01*
G01*
X284614D01*
Y252362D01*
X271510D01*
G37*
X15098Y269378D02*
G36*
X15098Y269378D02*
Y252362D01*
X28203D01*
G75*
G02*
X43163I7480J0D01*
G01*
X256549D01*
G75*
G02*
X271510I7480J0D01*
G01*
X284614D01*
Y269378D01*
X281045Y272947D01*
X18668D01*
X15098Y269378D01*
G37*
X51274Y133189D02*
X51037D01*
X56077Y128150D01*
X264817D01*
X269856Y133189D01*
X269935D01*
X61274Y143189D02*
X259935D01*
X61274Y153189D02*
X259935D01*
X86864Y56693D02*
X87652D01*
X88833Y55512D01*
X166785D01*
X167573Y56299D01*
X168360D01*
X102612Y61811D02*
X167967D01*
X169541Y60236D01*
X174266D01*
X175447Y59055D01*
Y46457D01*
X173478Y44488D01*
X167314Y60236D02*
X105035D01*
G75*
G02*
X105670Y57087I-1635J-1969D01*
G01*
X165925D01*
G75*
G02*
X168888Y58803I2435J-787D01*
G01*
G75*
G02*
X168428Y59123I654J1432D01*
G01*
X167314Y60236D01*
G36*
X167314Y60236D02*
X105035D01*
G75*
G02*
X105670Y57087I-1635J-1969D01*
G01*
X165925D01*
G75*
G02*
X168888Y58803I2435J-787D01*
G01*
G75*
G02*
X168428Y59123I654J1432D01*
G01*
X167314Y60236D01*
G37*
X172691Y54331D02*
X171116D01*
X169541Y52756D01*
X167179D01*
X165998Y53937D01*
X88045D01*
X86864Y52756D01*
D02*
D21*
X48526Y123189D02*
X46526D01*
X51274Y120441D02*
Y118441D01*
Y125937D02*
Y127937D01*
X54022Y123189D02*
X56022D01*
X267384D02*
X265384D01*
X269935Y120638D02*
Y118638D01*
Y125740D02*
Y127740D01*
X272486Y123189D02*
X274486D01*
D02*
D22*
X51274Y143189D02*
X51431D01*
X56431Y138189D01*
X264935D01*
X269935Y143189D01*
X82927Y76378D02*
X24659D01*
X21904Y73622D01*
Y12992D01*
X25447Y9449D01*
X119935D01*
D02*
D23*
X247888Y57480D02*
Y76378D01*
D02*
D24*
X25447Y41339D03*
X39226Y111417D03*
X45919Y35827D03*
X56549Y22835D03*
X57337Y60236D03*
X61274Y68110D03*
X63636Y92913D03*
X71116Y98819D03*
Y177559D03*
Y216929D03*
Y256299D03*
X73478Y18110D03*
Y70079D03*
Y86614D03*
X76628Y187008D03*
Y193307D03*
X78203Y29921D03*
Y70866D03*
X82927Y18110D03*
X91195D03*
X93557Y86614D03*
X95132Y181890D03*
X97100Y18110D03*
X98281Y76772D03*
X102219Y26772D03*
X110486Y98819D03*
Y177559D03*
Y222835D03*
Y256299D03*
X111274Y30315D03*
Y36220D03*
X119935Y9449D03*
X122691Y58661D03*
X128990Y30315D03*
Y36220D03*
Y42126D03*
X132533Y9843D03*
X145919Y44488D03*
X149856Y98819D03*
Y177559D03*
X159699Y200787D03*
X173478Y44488D03*
X174659Y246457D03*
X186077Y18110D03*
X188833Y59449D03*
X189226Y98819D03*
Y177559D03*
Y222835D03*
Y256299D03*
X194344Y47638D03*
X204974Y44488D03*
X224266Y105906D03*
X228596Y177559D03*
Y216929D03*
Y256299D03*
X238439Y101969D03*
X240801Y46063D03*
Y83465D03*
X247888Y48031D03*
Y57480D03*
Y76378D03*
X249069Y92126D03*
D02*
D26*
X56549Y42126D03*
X82927Y76378D03*
X86864Y52756D03*
Y56693D03*
X102612Y61811D03*
X103400Y58268D03*
X111274Y42126D03*
X168360Y56299D03*
X172691Y54331D03*
D02*
D28*
X259935Y113189D03*
Y123189D03*
Y133189D03*
Y143189D03*
Y153189D03*
Y163189D03*
X269935Y113189D03*
Y123189D03*
Y133189D03*
Y143189D03*
Y153189D03*
Y163189D03*
D02*
D29*
X61274Y113189D03*
D02*
D72*
X51274D03*
Y123189D03*
Y133189D03*
Y143189D03*
Y153189D03*
Y163189D03*
X61274Y123189D03*
Y133189D03*
Y143189D03*
Y153189D03*
Y163189D03*
D02*
D89*
X197494Y115354D03*
D02*
D90*
X207494D03*
X217494D03*
D02*
D130*
X51274Y113189D02*
Y108819D01*
X53793Y106299D01*
X195526D01*
X197494Y108268D01*
Y115354D01*
X61274Y163189D02*
X259935D01*
X269935Y113189D02*
Y107480D01*
X267967Y105512D01*
X255368D01*
X252612Y108268D01*
Y117323D01*
X247494Y122441D01*
X199856D01*
X197494Y120079D01*
Y115354D01*
X0Y0D02*
M02*
