G04 DesignSpark PCB PRO Gerber Version 10.0 Build 5299*
G04 #@! TF.Part,Single*
G04 #@! TF.FileFunction,Legend,Top*
G04 #@! TF.FilePolarity,Positive*
%FSLAX35Y35*%
%MOIN*%
%ADD127C,0.00300*%
%ADD107C,0.00394*%
%ADD106C,0.00500*%
%ADD108C,0.00787*%
%ADD126C,0.00800*%
G04 #@! TD.AperFunction*
X0Y0D02*
D02*
D106*
X16779Y192670D02*
Y193920D01*
Y193295D02*
X13029D01*
Y192670D02*
Y193920D01*
X16154Y199857D02*
X16467Y199545D01*
X16779Y198920D01*
Y197982D01*
X16467Y197357D01*
X16154Y197045D01*
X15529Y196732D01*
X14279D01*
X13654Y197045D01*
X13341Y197357D01*
X13029Y197982D01*
Y198920D01*
X13341Y199545D01*
X13654Y199857D01*
X16779Y202357D02*
Y203607D01*
Y202982D02*
X13029D01*
X13654Y202357D01*
X18504Y207874D02*
Y185433D01*
X42913D01*
X18504Y207874D02*
X23228D01*
Y222047D01*
X24803Y7699D02*
Y8012D01*
X25116Y8949D01*
X25428Y9262D01*
X26053Y9574D01*
X26678D01*
X27303Y9262D01*
X27616Y8949D01*
X27928Y8012D01*
Y7699D01*
X27616Y7074D01*
X27303Y6762D01*
X26678Y6449D01*
X26053D01*
X25428Y6762D01*
X25116Y7074D01*
X24803Y7699D01*
X26991D02*
X26366Y7387D01*
X25741Y7699D01*
Y8324D01*
X26366Y8637D01*
X26991Y8324D01*
X34803Y6449D02*
Y10199D01*
X36991D01*
X37616Y9887D01*
X37928Y9262D01*
X37616Y8637D01*
X36991Y8324D01*
X34803D01*
X36991D02*
X37928Y6449D01*
X39803Y7387D02*
X40116Y6762D01*
X40741Y6449D01*
X41991D01*
X42616Y6762D01*
X42928Y7387D01*
X42616Y8012D01*
X41991Y8324D01*
X40741D01*
X40116Y8637D01*
X39803Y9262D01*
X40116Y9887D01*
X40741Y10199D01*
X41991D01*
X42616Y9887D01*
X42928Y9262D01*
X52928Y7074D02*
X52616Y6762D01*
X51991Y6449D01*
X51053D01*
X50428Y6762D01*
X50116Y7074D01*
X49803Y7699D01*
Y8949D01*
X50116Y9574D01*
X50428Y9887D01*
X51053Y10199D01*
X51991D01*
X52616Y9887D01*
X52928Y9574D01*
X54803Y7387D02*
X55116Y6762D01*
X55741Y6449D01*
X56366D01*
X56991Y6762D01*
X57303Y7387D01*
Y8012D01*
X56991Y8637D01*
X56366Y8949D01*
X55741D01*
X55116Y8637D01*
X54803Y8012D01*
Y7387D01*
X59803Y6449D02*
Y8949D01*
Y8637D02*
X60116Y8949D01*
X60741D01*
X61053Y8637D01*
Y7699D01*
Y8637D02*
X61366Y8949D01*
X61991D01*
X62303Y8637D01*
Y6449D01*
X64803Y8949D02*
Y5512D01*
Y7387D02*
X65116Y6762D01*
X65741Y6449D01*
X66366D01*
X66991Y6762D01*
X67303Y7387D01*
Y8012D01*
X66991Y8637D01*
X66366Y8949D01*
X65741D01*
X65116Y8637D01*
X64803Y8012D01*
Y7387D01*
X69803D02*
X70116Y6762D01*
X70741Y6449D01*
X71366D01*
X71991Y6762D01*
X72303Y7387D01*
Y8012D01*
X71991Y8637D01*
X71366Y8949D01*
X70741D01*
X70116Y8637D01*
X69803Y8012D01*
Y7387D01*
X74803Y6449D02*
Y8949D01*
Y8012D02*
X75116Y8637D01*
X75741Y8949D01*
X76366D01*
X76991Y8637D01*
X77303Y8012D01*
Y6449D01*
X82303Y6762D02*
X81991Y6449D01*
X81366D01*
X80741D01*
X80116Y6762D01*
X79803Y7387D01*
Y8324D01*
X80116Y8637D01*
X80741Y8949D01*
X81366D01*
X81991Y8637D01*
X82303Y8324D01*
Y8012D01*
X81991Y7699D01*
X81366Y7387D01*
X80741D01*
X80116Y7699D01*
X79803Y8012D01*
X84803Y6449D02*
Y8949D01*
Y8012D02*
X85116Y8637D01*
X85741Y8949D01*
X86366D01*
X86991Y8637D01*
X87303Y8012D01*
Y6449D01*
X90324Y8949D02*
X91782D01*
X91053Y9574D02*
Y6762D01*
X91366Y6449D01*
X91678D01*
X91991Y6762D01*
X94803D02*
X95428Y6449D01*
X96678D01*
X97303Y6762D01*
Y7387D01*
X96678Y7699D01*
X95428D01*
X94803Y8012D01*
Y8637D01*
X95428Y8949D01*
X96678D01*
X97303Y8637D01*
X107303Y6449D02*
X104803D01*
X106991Y8637D01*
X107303Y9262D01*
X106991Y9887D01*
X106366Y10199D01*
X105428D01*
X104803Y9887D01*
X110116Y6762D02*
X110741Y6449D01*
X111366D01*
X111991Y6762D01*
X112303Y7387D01*
Y9262D01*
X111991Y9887D01*
X111366Y10199D01*
X110741D01*
X110116Y9887D01*
X109803Y9262D01*
Y7387D01*
X110116Y6762D01*
X111991Y9887D01*
X117303Y6449D02*
X114803D01*
X116991Y8637D01*
X117303Y9262D01*
X116991Y9887D01*
X116366Y10199D01*
X115428D01*
X114803Y9887D01*
X120428Y6449D02*
X121678D01*
X121053D02*
Y10199D01*
X120428Y9574D01*
X38189Y222047D02*
X23228D01*
X42126Y26134D02*
Y29884D01*
X45251D01*
X44626Y28009D02*
X42126D01*
Y26134D02*
X45251D01*
X47126Y27072D02*
X47439Y26447D01*
X48063Y26134D01*
X49313D01*
X49939Y26447D01*
X50251Y27072D01*
X49939Y27697D01*
X49313Y28009D01*
X48063D01*
X47439Y28322D01*
X47126Y28947D01*
X47439Y29572D01*
X48063Y29884D01*
X49313D01*
X49939Y29572D01*
X50251Y28947D01*
X52126Y26134D02*
Y29884D01*
X54001D01*
X54626Y29572D01*
X54939Y29259D01*
X55251Y28634D01*
Y27384D01*
X54939Y26759D01*
X54626Y26447D01*
X54001Y26134D01*
X52126D01*
X57126D02*
Y29884D01*
Y28009D02*
X58063D01*
X60251Y29884D01*
X58063Y28009D02*
X60251Y26134D01*
X62126Y27384D02*
X64626D01*
X70251Y26759D02*
X69939Y26447D01*
X69313Y26134D01*
X68376D01*
X67751Y26447D01*
X67439Y26759D01*
X67126Y27384D01*
Y28634D01*
X67439Y29259D01*
X67751Y29572D01*
X68376Y29884D01*
X69313D01*
X69939Y29572D01*
X70251Y29259D01*
X72126Y27384D02*
Y28634D01*
X72439Y29259D01*
X72751Y29572D01*
X73376Y29884D01*
X74001D01*
X74626Y29572D01*
X74939Y29259D01*
X75251Y28634D01*
Y27384D01*
X74939Y26759D01*
X74626Y26447D01*
X74001Y26134D01*
X73376D01*
X72751Y26447D01*
X72439Y26759D01*
X72126Y27384D01*
X79626Y26134D02*
X77126D01*
X79313Y28322D01*
X79626Y28947D01*
X79313Y29572D01*
X78689Y29884D01*
X77751D01*
X77126Y29572D01*
X87126Y28634D02*
X88376Y26134D01*
X89626Y28634D01*
X92439Y26447D02*
X93063Y26134D01*
X93689D01*
X94313Y26447D01*
X94626Y27072D01*
Y28947D01*
X94313Y29572D01*
X93689Y29884D01*
X93063D01*
X92439Y29572D01*
X92126Y28947D01*
Y27072D01*
X92439Y26447D01*
X94313Y29572D01*
X97439Y26134D02*
X97751Y26447D01*
X97439Y26759D01*
X97126Y26447D01*
X97439Y26134D01*
X104626D02*
X102126D01*
X104313Y28322D01*
X104626Y28947D01*
X104313Y29572D01*
X103689Y29884D01*
X102751D01*
X102126Y29572D01*
X42275Y211917D02*
Y217217D01*
X54575D01*
Y211917D01*
X42275D01*
Y219791D02*
Y225091D01*
X54575D01*
Y219791D01*
X42275D01*
X42913Y185433D02*
Y207874D01*
X38189D01*
Y222047D01*
X45669Y102350D02*
X45982Y102037D01*
X46607Y101725D01*
X47232Y102037D01*
X47544Y102350D01*
Y105475D01*
X48169D01*
X47544D02*
X46294D01*
X53169Y101725D02*
X50669D01*
X52857Y103913D01*
X53169Y104537D01*
X52857Y105163D01*
X52232Y105475D01*
X51294D01*
X50669Y105163D01*
X50591Y82402D02*
G75*
G03*
X51821I615J0D01*
G01*
G75*
G03*
X50591I-615J0D01*
G01*
G36*
X50591Y82402D02*
G75*
G03*
X51821I615J0D01*
G01*
G75*
G03*
X50591I-615J0D01*
G01*
G37*
X53044Y187157D02*
X47744D01*
Y199457D01*
X53044D01*
Y187157D01*
X53346Y56063D02*
Y49409D01*
X60600D01*
X51981Y181865D02*
X52293Y181553D01*
X52606Y180928D01*
Y179990D01*
X52293Y179365D01*
X51981Y179053D01*
X51356Y178740D01*
X50106D01*
X49481Y179053D01*
X49168Y179365D01*
X48856Y179990D01*
Y180928D01*
X49168Y181553D01*
X49481Y181865D01*
X52606Y184365D02*
Y185615D01*
Y184990D02*
X48856D01*
X49481Y184365D01*
X59031Y213374D02*
X58718Y213061D01*
X58093Y212748D01*
X57156D01*
X56531Y213061D01*
X56218Y213374D01*
X55906Y213998D01*
Y215248D01*
X56218Y215874D01*
X56531Y216186D01*
X57156Y216498D01*
X58093D01*
X58718Y216186D01*
X59031Y215874D01*
X61218Y213061D02*
X61843Y212748D01*
X62468D01*
X63093Y213061D01*
X63406Y213686D01*
X63093Y214311D01*
X62468Y214624D01*
X61843D01*
X62468D02*
X63093Y214936D01*
X63406Y215561D01*
X63093Y216186D01*
X62468Y216498D01*
X61843D01*
X61218Y216186D01*
X59031Y221248D02*
X58718Y220935D01*
X58093Y220622D01*
X57156D01*
X56531Y220935D01*
X56218Y221248D01*
X55906Y221872D01*
Y223122D01*
X56218Y223748D01*
X56531Y224060D01*
X57156Y224372D01*
X58093D01*
X58718Y224060D01*
X59031Y223748D01*
X63406Y220622D02*
X60906D01*
X63093Y222810D01*
X63406Y223435D01*
X63093Y224060D01*
X62468Y224372D01*
X61531D01*
X60906Y224060D01*
X56842Y244200D02*
Y249500D01*
X69142D01*
Y244200D01*
X56842D01*
X59843Y238733D02*
Y242483D01*
X62030D01*
X62655Y242170D01*
X62968Y241545D01*
X62655Y240920D01*
X62030Y240608D01*
X59843D01*
X62030D02*
X62968Y238733D01*
X65468D02*
X66718D01*
X66093D02*
Y242483D01*
X65468Y241858D01*
X60600Y89173D02*
X53346D01*
Y81900D01*
X76354Y238964D02*
X76041Y238652D01*
X75416Y238339D01*
X74478D01*
X73854Y238652D01*
X73541Y238964D01*
X73228Y239589D01*
Y240839D01*
X73541Y241464D01*
X73854Y241777D01*
X74478Y242089D01*
X75416D01*
X76041Y241777D01*
X76354Y241464D01*
X78228Y239589D02*
Y240839D01*
X78541Y241464D01*
X78854Y241777D01*
X79478Y242089D01*
X80104D01*
X80728Y241777D01*
X81041Y241464D01*
X81354Y240839D01*
Y239589D01*
X81041Y238964D01*
X80728Y238652D01*
X80104Y238339D01*
X79478D01*
X78854Y238652D01*
X78541Y238964D01*
X78228Y239589D01*
X83228Y238339D02*
Y242089D01*
X86354Y238339D01*
Y242089D01*
X88228Y238339D02*
Y242089D01*
X91354Y238339D01*
Y242089D01*
X93854Y238339D02*
X95104D01*
X94478D02*
Y242089D01*
X93854Y241464D01*
X73248Y196183D02*
Y217872D01*
X73322Y218416D01*
X73552Y218809D01*
X73943Y219047D01*
X74503Y219127D01*
X86191D01*
X87135Y218944D01*
X87838Y218456D01*
X88275Y217754D01*
X88426Y216931D01*
Y208342D01*
X88274Y207525D01*
X87857Y206866D01*
X87235Y206406D01*
X86465Y206184D01*
X85798Y206037D01*
X85649Y205876D01*
X85602Y205596D01*
X85644Y205378D01*
X85793Y205233D01*
X86543Y205047D01*
X86937Y204950D01*
X87279Y204738D01*
X87720Y204106D01*
X88583Y201792D01*
X88921Y201179D01*
X89283Y200970D01*
X89877Y200890D01*
X96937D01*
X97509Y200968D01*
X97927Y201194D01*
X98183Y201552D01*
X98270Y202027D01*
Y202890D01*
X98207Y203333D01*
X97996Y203699D01*
X97608Y203954D01*
X97015Y204067D01*
X92740Y204263D01*
X91637Y204548D01*
X90740Y205130D01*
X90137Y205956D01*
X89917Y206969D01*
Y216539D01*
X90079Y217591D01*
X90539Y218338D01*
X91257Y218783D01*
X92191Y218931D01*
X102231D01*
X102831Y218852D01*
X103231Y218617D01*
X103456Y218236D01*
X103526Y217715D01*
Y214499D01*
X103449Y213933D01*
X103207Y213528D01*
X102781Y213286D01*
X102153Y213205D01*
X96702D01*
X96170Y213117D01*
X95804Y212881D01*
X95593Y212543D01*
X95525Y212146D01*
Y211048D01*
X95619Y210646D01*
X95898Y210332D01*
X96352Y210121D01*
X96976Y210028D01*
X101486Y209754D01*
X102445Y209486D01*
X103217Y208876D01*
X103731Y208038D01*
X103918Y207087D01*
Y197242D01*
X103862Y196736D01*
X103706Y196305D01*
X103158Y195659D01*
X102412Y195284D01*
X101604Y195163D01*
X85445D01*
X84886Y195203D01*
X84440Y195359D01*
X84105Y195693D01*
X83876Y196262D01*
X82465Y202027D01*
X82308Y202496D01*
X82067Y202841D01*
X81643Y203053D01*
X80935Y203125D01*
X80447Y203193D01*
X80062Y203400D01*
X79810Y203754D01*
X79719Y204263D01*
Y207283D01*
X79794Y207791D01*
X80028Y208145D01*
X80431Y208353D01*
X81013Y208420D01*
X81798D01*
X82278Y208528D01*
X82607Y208817D01*
X82796Y209231D01*
X82857Y209714D01*
Y212185D01*
X82772Y212655D01*
X82528Y212999D01*
X82145Y213211D01*
X81641Y213283D01*
X78974D01*
Y196301D01*
X78855Y195759D01*
X78552Y195409D01*
X78146Y195220D01*
X77719Y195163D01*
X74463D01*
X73926Y195235D01*
X73547Y195438D01*
X73322Y195759D01*
X73248Y196183D01*
G36*
X73248Y196183D02*
Y217872D01*
X73322Y218416D01*
X73552Y218809D01*
X73943Y219047D01*
X74503Y219127D01*
X86191D01*
X87135Y218944D01*
X87838Y218456D01*
X88275Y217754D01*
X88426Y216931D01*
Y208342D01*
X88274Y207525D01*
X87857Y206866D01*
X87235Y206406D01*
X86465Y206184D01*
X85798Y206037D01*
X85649Y205876D01*
X85602Y205596D01*
X85644Y205378D01*
X85793Y205233D01*
X86543Y205047D01*
X86937Y204950D01*
X87279Y204738D01*
X87720Y204106D01*
X88583Y201792D01*
X88921Y201179D01*
X89283Y200970D01*
X89877Y200890D01*
X96937D01*
X97509Y200968D01*
X97927Y201194D01*
X98183Y201552D01*
X98270Y202027D01*
Y202890D01*
X98207Y203333D01*
X97996Y203699D01*
X97608Y203954D01*
X97015Y204067D01*
X92740Y204263D01*
X91637Y204548D01*
X90740Y205130D01*
X90137Y205956D01*
X89917Y206969D01*
Y216539D01*
X90079Y217591D01*
X90539Y218338D01*
X91257Y218783D01*
X92191Y218931D01*
X102231D01*
X102831Y218852D01*
X103231Y218617D01*
X103456Y218236D01*
X103526Y217715D01*
Y214499D01*
X103449Y213933D01*
X103207Y213528D01*
X102781Y213286D01*
X102153Y213205D01*
X96702D01*
X96170Y213117D01*
X95804Y212881D01*
X95593Y212543D01*
X95525Y212146D01*
Y211048D01*
X95619Y210646D01*
X95898Y210332D01*
X96352Y210121D01*
X96976Y210028D01*
X101486Y209754D01*
X102445Y209486D01*
X103217Y208876D01*
X103731Y208038D01*
X103918Y207087D01*
Y197242D01*
X103862Y196736D01*
X103706Y196305D01*
X103158Y195659D01*
X102412Y195284D01*
X101604Y195163D01*
X85445D01*
X84886Y195203D01*
X84440Y195359D01*
X84105Y195693D01*
X83876Y196262D01*
X82465Y202027D01*
X82308Y202496D01*
X82067Y202841D01*
X81643Y203053D01*
X80935Y203125D01*
X80447Y203193D01*
X80062Y203400D01*
X79810Y203754D01*
X79719Y204263D01*
Y207283D01*
X79794Y207791D01*
X80028Y208145D01*
X80431Y208353D01*
X81013Y208420D01*
X81798D01*
X82278Y208528D01*
X82607Y208817D01*
X82796Y209231D01*
X82857Y209714D01*
Y212185D01*
X82772Y212655D01*
X82528Y212999D01*
X82145Y213211D01*
X81641Y213283D01*
X78974D01*
Y196301D01*
X78855Y195759D01*
X78552Y195409D01*
X78146Y195220D01*
X77719Y195163D01*
X74463D01*
X73926Y195235D01*
X73547Y195438D01*
X73322Y195759D01*
X73248Y196183D01*
G37*
X85827Y260199D02*
Y256449D01*
X88952D01*
X90827D02*
Y260199D01*
X93952D01*
X93327Y258324D02*
X90827D01*
Y256449D02*
X93952D01*
X95827D02*
Y260199D01*
X97702D01*
X98327Y259887D01*
X98639Y259574D01*
X98952Y258949D01*
Y257699D01*
X98639Y257074D01*
X98327Y256762D01*
X97702Y256449D01*
X95827D01*
X103327D02*
X100827D01*
X103014Y258637D01*
X103327Y259262D01*
X103014Y259887D01*
X102389Y260199D01*
X101452D01*
X100827Y259887D01*
X86437Y49409D02*
X93110D01*
Y56063D01*
X89615Y249500D02*
Y244200D01*
X77315D01*
Y249500D01*
X89615D01*
X93110Y81900D02*
Y89173D01*
X86437D01*
X94488Y87365D02*
Y84552D01*
X94801Y83927D01*
X95426Y83615D01*
X96676D01*
X97301Y83927D01*
X97613Y84552D01*
Y87365D01*
X100113Y83615D02*
X101363D01*
X100738D02*
Y87365D01*
X100113Y86740D01*
X130315Y171248D02*
X130628Y170935D01*
X131252Y170622D01*
X131878Y170935D01*
X132190Y171248D01*
Y174372D01*
X132815D01*
X132190D02*
X130940D01*
X135940Y170622D02*
X137190D01*
X136565D02*
Y174372D01*
X135940Y173748D01*
D02*
D107*
X71260Y260236D02*
X75197D01*
X129429Y169193D02*
X160965D01*
Y107185D01*
X129429D01*
D02*
D108*
X27559Y113189D02*
X4567D01*
X27559Y123189D02*
X4567D01*
X27559Y133189D02*
X4567D01*
X27559Y143189D02*
X4567D01*
X27559Y153189D02*
X4567D01*
X27559Y163189D02*
X4567D01*
X53543Y108189D02*
X27559D01*
Y168189D01*
X37559D01*
X61811Y257874D02*
Y258661D02*
G75*
G03*
Y257874I0J-394D01*
G01*
Y258661D02*
G75*
G02*
Y257874I0J-394D01*
G01*
X125591Y167913D02*
G75*
G02*
Y167520I0J-197D01*
G01*
Y167913D02*
G75*
G02*
Y167520I0J-197D01*
G01*
G75*
G02*
Y167913I0J197D01*
G01*
D02*
D126*
X104193Y192525D02*
X105067Y192702D01*
X105781Y193183D01*
X106262Y193897D01*
X106439Y194771D01*
Y219402D01*
X106262Y220276D01*
X105781Y220990D01*
X105067Y221472D01*
X104193Y221648D01*
X72973D01*
X72099Y221472D01*
X71385Y220990D01*
X70903Y220276D01*
X70727Y219402D01*
Y194771D01*
X70903Y193897D01*
X71385Y193183D01*
X72099Y192702D01*
X72973Y192525D01*
X104193D01*
X105746Y219402D02*
X105624Y220007D01*
X105291Y220500D01*
X104797Y220833D01*
X104193Y220955D01*
X72973D01*
X72369Y220833D01*
X71875Y220500D01*
X71542Y220007D01*
X71420Y219402D01*
Y194772D01*
X71542Y194167D01*
X71875Y193674D01*
X72369Y193341D01*
X72973Y193219D01*
X104193D01*
X104797Y193341D01*
X105291Y193674D01*
X105624Y194167D01*
X105746Y194772D01*
Y219402D01*
D02*
D127*
X26990Y34951D02*
Y45377D01*
X29643Y45334D01*
X30000Y45329D01*
X31071Y45305D01*
X31956Y45261D01*
X32502Y45187D01*
X32813Y45100D01*
X32914Y45063D01*
X33267Y44933D01*
X34248Y44324D01*
X35216Y43238D01*
X35806Y41826D01*
X36006Y40538D01*
Y39687D01*
X35824Y38424D01*
X35276Y37068D01*
X34348Y36026D01*
X33379Y35419D01*
X33031Y35280D01*
X32930Y35241D01*
X32617Y35143D01*
X32087Y35063D01*
X31194Y35020D01*
X30071Y34996D01*
X29698Y34991D01*
X26990Y34951D01*
X31638Y37385D02*
X31820Y37435D01*
X32337Y37698D01*
X32844Y38204D01*
X33166Y38917D01*
X33298Y39612D01*
X33311Y39845D01*
X33330Y40198D01*
X33195Y41269D01*
X32667Y42271D01*
X31711Y42865D01*
X30669Y43061D01*
X29724D01*
Y37265D01*
X30463Y37266D01*
X30626D01*
X31113Y37302D01*
X31577Y37369D01*
X31638Y37385D01*
X37052Y34969D02*
Y45358D01*
X42847D01*
Y43067D01*
X41235Y43036D01*
X39622Y43006D01*
X39590Y42214D01*
X39557Y41420D01*
X42739D01*
Y39014D01*
X39558D01*
X39590Y38167D01*
X39622Y37319D01*
X41235Y37289D01*
X42847Y37258D01*
Y34969D01*
X37052D01*
X46100Y34861D02*
X45837Y34928D01*
X45094Y35296D01*
X44308Y35999D01*
X43796Y36905D01*
X43613Y37682D01*
Y38358D01*
X45102D01*
X45655Y38354D01*
X46052Y38325D01*
X46227Y38252D01*
X46282Y38149D01*
X46293Y38113D01*
X46337Y37957D01*
X46560Y37425D01*
X46846Y37126D01*
X46922Y37086D01*
X46996Y37048D01*
X47251Y36985D01*
X47566Y37006D01*
X47850Y37130D01*
X48085Y37334D01*
X48250Y37598D01*
X48330Y37900D01*
X48306Y38219D01*
X48207Y38464D01*
X48159Y38533D01*
X48137Y38564D01*
X47996Y38666D01*
X47668Y38858D01*
X47224Y39087D01*
X46840Y39267D01*
X46710Y39324D01*
X46354Y39480D01*
X45319Y40023D01*
X44424Y40719D01*
X43945Y41495D01*
X43804Y42203D01*
Y42658D01*
X43917Y43317D01*
X44263Y44058D01*
X44850Y44675D01*
X45469Y45080D01*
X45691Y45183D01*
X45792Y45232D01*
X46103Y45365D01*
X46455Y45467D01*
X46863Y45511D01*
X47297Y45520D01*
X47580D01*
X47998Y45509D01*
X48401Y45469D01*
X48733Y45383D01*
X48997Y45279D01*
X49082Y45238D01*
X49267Y45152D01*
X49788Y44811D01*
X50329Y44269D01*
X50698Y43616D01*
X50869Y43051D01*
X50895Y42857D01*
X50969Y42295D01*
X48333D01*
X48207Y42679D01*
X48169Y42790D01*
X47895Y43146D01*
X47450Y43280D01*
X47187D01*
X46840Y43131D01*
X46534Y42772D01*
X46448Y42331D01*
X46571Y42007D01*
X46648Y41938D01*
X46674Y41915D01*
X46833Y41819D01*
X47195Y41619D01*
X47683Y41367D01*
X48103Y41159D01*
X48244Y41091D01*
X48592Y40924D01*
X49609Y40354D01*
X50450Y39656D01*
X50876Y38869D01*
X50992Y38117D01*
Y37866D01*
X50991Y37629D01*
X50882Y36918D01*
X50552Y36140D01*
X49992Y35520D01*
X49406Y35137D01*
X49196Y35043D01*
X49055Y34980D01*
X48572Y34884D01*
X47699Y34791D01*
X46801Y34779D01*
X46268Y34819D01*
X46100Y34861D01*
X51706Y34969D02*
Y45358D01*
X54441D01*
Y34969D01*
X51706D01*
X59263Y34922D02*
X58990Y34996D01*
X58203Y35337D01*
X57260Y35967D01*
X56462Y36791D01*
X55965Y37523D01*
X55836Y37784D01*
X55769Y37919D01*
X55578Y38330D01*
X55434Y38747D01*
X55365Y39203D01*
X55337Y39698D01*
X55332Y39862D01*
X55322Y40101D01*
X55343Y40819D01*
X55461Y41631D01*
X55702Y42352D01*
X55970Y42874D01*
X56076Y43036D01*
X56414Y43557D01*
X57931Y44796D01*
X60296Y45530D01*
X62773Y45204D01*
X64522Y44243D01*
X64965Y43786D01*
X65057Y43691D01*
X65300Y43367D01*
X65648Y42824D01*
X65921Y42309D01*
X66032Y42056D01*
Y41950D01*
X65647Y41888D01*
X64833Y41858D01*
X63091D01*
X62803Y42235D01*
X62680Y42395D01*
X62178Y42772D01*
X61357Y43092D01*
X60467Y43166D01*
X59825Y43053D01*
X59635Y42965D01*
X59504Y42907D01*
X59144Y42657D01*
X58697Y42216D01*
X58333Y41693D01*
X58138Y41280D01*
X58096Y41136D01*
X58030Y40909D01*
X57967Y40188D01*
X58095Y39233D01*
X58452Y38371D01*
X58848Y37838D01*
X59013Y37700D01*
X59213Y37535D01*
X59951Y37202D01*
X60994Y37087D01*
X62005Y37348D01*
X62676Y37780D01*
X62844Y37972D01*
X62927Y38068D01*
X63154Y38372D01*
X63124Y38585D01*
X62656Y38671D01*
X61906Y38686D01*
X60128D01*
Y40873D01*
X66360D01*
Y39772D01*
X66067Y38420D01*
X65245Y36858D01*
X63982Y35652D01*
X62788Y35027D01*
X62365Y34917D01*
X62191Y34872D01*
X61654Y34801D01*
X60809Y34763D01*
X59966Y34804D01*
X59434Y34877D01*
X59263Y34922D01*
X67345Y34969D02*
Y45364D01*
X68514Y45333D01*
X69683Y45302D01*
X71626Y42144D01*
X71816Y41837D01*
X72385Y40914D01*
X73019Y39895D01*
X73459Y39194D01*
X73630Y38928D01*
X73641Y38919D01*
X73662Y39150D01*
X73667Y39826D01*
X73657Y40846D01*
X73639Y41790D01*
X73632Y42104D01*
X73552Y45358D01*
X76094D01*
Y34961D01*
X73742Y35023D01*
X71828Y38078D01*
X69914Y41135D01*
X69857Y34969D01*
X67345D01*
X79856Y34855D02*
X79574Y34916D01*
X78765Y35269D01*
X77922Y35962D01*
X77380Y36873D01*
X77187Y37674D01*
Y38358D01*
X79785D01*
X79853Y37931D01*
X79868Y37836D01*
X79987Y37558D01*
X80235Y37241D01*
X80557Y37020D01*
X80819Y36937D01*
X80985D01*
X81224Y37019D01*
X81505Y37180D01*
X81554Y37220D01*
X81620Y37277D01*
X81822Y37533D01*
X81890Y37835D01*
Y38033D01*
X81828Y38323D01*
X81593Y38641D01*
X81109Y38956D01*
X80507Y39246D01*
X80304Y39334D01*
X79984Y39473D01*
X79054Y39946D01*
X78205Y40538D01*
X77680Y41182D01*
X77442Y41750D01*
X77400Y41946D01*
X77363Y42123D01*
X77343Y42670D01*
X77485Y43358D01*
X77820Y43999D01*
X78198Y44449D01*
X78343Y44576D01*
X78602Y44804D01*
X79566Y45273D01*
X80982Y45509D01*
X82371Y45283D01*
X83282Y44820D01*
X83516Y44593D01*
X83658Y44455D01*
X84130Y43805D01*
X84356Y43067D01*
X84375Y42884D01*
X84436Y42295D01*
X81939D01*
X81723Y42759D01*
X81682Y42846D01*
X81478Y43143D01*
X81228Y43301D01*
X81165Y43318D01*
X81047Y43351D01*
X80657Y43316D01*
X80231Y43078D01*
X79976Y42685D01*
X79944Y42325D01*
X79980Y42220D01*
X79997Y42170D01*
X80098Y42032D01*
X80373Y41815D01*
X80883Y41519D01*
X81501Y41197D01*
X81708Y41092D01*
X82081Y40904D01*
X83167Y40268D01*
X84039Y39509D01*
X84439Y38667D01*
X84506Y37859D01*
X84488Y37593D01*
X84481Y37488D01*
X84388Y36954D01*
X84241Y36496D01*
X84207Y36428D01*
X84148Y36314D01*
X83916Y35997D01*
X83515Y35593D01*
X83050Y35256D01*
X82687Y35065D01*
X82560Y35020D01*
X82420Y34970D01*
X81974Y34886D01*
X81221Y34808D01*
X80462Y34794D01*
X80004Y34824D01*
X79856Y34855D01*
X85609Y34969D02*
Y45382D01*
X88152Y45333D01*
X88495Y45327D01*
X89528Y45300D01*
X90377Y45253D01*
X90901Y45174D01*
X91207Y45083D01*
X91306Y45045D01*
X91494Y44972D01*
X92311Y44404D01*
X92939Y43587D01*
X93033Y43389D01*
X93073Y43304D01*
X93179Y43043D01*
X93266Y42719D01*
X93306Y42332D01*
X93316Y41935D01*
Y41802D01*
X93315Y41672D01*
X93303Y41278D01*
X93261Y40888D01*
X93174Y40558D01*
X93069Y40295D01*
X93030Y40210D01*
X92973Y40089D01*
X92759Y39748D01*
X92406Y39289D01*
X92061Y38937D01*
X91876Y38796D01*
X91771D01*
X91643Y38863D01*
X91254Y39045D01*
X90704Y39315D01*
X90215Y39561D01*
X90054Y39643D01*
X88397Y40491D01*
X89312Y40550D01*
X89440Y40558D01*
X89825Y40593D01*
X90139Y40653D01*
X90346Y40767D01*
X90497Y40911D01*
X90543Y40962D01*
X90603Y41030D01*
X90791Y41340D01*
X90857Y41678D01*
Y41936D01*
X90745Y42372D01*
X90394Y42765D01*
X89776Y42989D01*
X89090Y43061D01*
X88861D01*
X88124Y43061D01*
Y40488D01*
X89703Y39505D01*
X89854Y39411D01*
X90309Y39126D01*
X90739Y38840D01*
X90991Y38633D01*
X91061Y38490D01*
X90945Y38398D01*
X90642Y38340D01*
X90148Y38305D01*
X89633Y38282D01*
X89463Y38275D01*
X88124Y38222D01*
Y34969D01*
X85609D01*
X91767Y34886D02*
X91787Y34935D01*
X91994Y35443D01*
X92276Y36138D01*
X92333Y36280D01*
X92391Y36423D01*
X92654Y37041D01*
X92822Y37399D01*
X92833Y37411D01*
X92843Y37424D01*
X92972Y37378D01*
X93295Y37220D01*
X93753Y36961D01*
X94162Y36715D01*
X94298Y36629D01*
X95683Y35754D01*
X95320Y35641D01*
X95201Y35604D01*
X94844Y35493D01*
X94285Y35320D01*
X93685Y35135D01*
X93091Y34954D01*
X92547Y34790D01*
X92098Y34656D01*
X91791Y34565D01*
X91698Y34530D01*
X91668D01*
X91677Y34635D01*
X91746Y34838D01*
X91767Y34886D01*
X94548Y37326D02*
X94412Y37395D01*
X94007Y37612D01*
X93563Y37866D01*
X93264Y38062D01*
X93154Y38144D01*
Y38254D01*
X93265Y38501D01*
X93569Y39297D01*
X94019Y40439D01*
X94429Y41466D01*
X94568Y41807D01*
X95982Y45302D01*
X96440Y45337D01*
X96897Y45370D01*
X96818Y41619D01*
X96809Y41247D01*
X96781Y40130D01*
X96741Y38848D01*
X96702Y37913D01*
X96678Y37513D01*
X96669Y37457D01*
X96599Y37048D01*
X95507Y38422D01*
X95400Y38558D01*
X95075Y38961D01*
X94706Y39413D01*
X94437Y39730D01*
X94326Y39854D01*
X94311Y39863D01*
X94359Y39687D01*
X94565Y39274D01*
X94623Y39170D01*
X94774Y38898D01*
X95224Y38075D01*
X95656Y37272D01*
X95911Y36780D01*
X95981Y36614D01*
X95976Y36615D01*
X95856Y36673D01*
X95544Y36826D01*
X95092Y37052D01*
X94684Y37257D01*
X94548Y37326D01*
X98637Y37566D02*
X98701Y37682D01*
X99084Y38373D01*
X99452Y39027D01*
X99507Y39124D01*
X99563Y39222D01*
X99780Y39640D01*
X99874Y39875D01*
X99862Y39887D01*
X99793D01*
X99788Y39880D01*
X99783Y39875D01*
X99682Y39749D01*
X99423Y39424D01*
X99049Y38955D01*
X98712Y38531D01*
X98599Y38391D01*
X97447Y36947D01*
X97377Y40141D01*
X97369Y40471D01*
X97344Y41461D01*
X97306Y42693D01*
X97271Y43701D01*
X97248Y44206D01*
X97240Y44345D01*
X97174Y45358D01*
X98137D01*
X99597Y41745D01*
X99738Y41394D01*
X100159Y40339D01*
X100615Y39181D01*
X100916Y38393D01*
X101020Y38099D01*
X101015Y38093D01*
X100996Y38076D01*
X100876Y38015D01*
X100557Y37849D01*
X100118Y37628D01*
X99620Y37380D01*
X99122Y37135D01*
X98685Y36923D01*
X98368Y36774D01*
X98266Y36718D01*
X98233D01*
X98325Y36968D01*
X98572Y37449D01*
X98637Y37566D01*
X100449Y35129D02*
X100270Y35185D01*
X99731Y35357D01*
X99139Y35550D01*
X98730Y35689D01*
X98574Y35746D01*
X98569Y35751D01*
X98658Y35836D01*
X98938Y36033D01*
X99364Y36315D01*
X99759Y36568D01*
X99892Y36650D01*
X100024Y36734D01*
X100424Y36980D01*
X100868Y37245D01*
X101173Y37416D01*
X101291Y37474D01*
X101296Y37468D01*
X101313Y37449D01*
X101365Y37329D01*
X101504Y37006D01*
X101690Y36561D01*
X101898Y36055D01*
X102102Y35547D01*
X102278Y35098D01*
X102403Y34772D01*
X102449Y34662D01*
Y34608D01*
X102425Y34558D01*
X102219Y34586D01*
X101627Y34759D01*
X100743Y35037D01*
X100449Y35129D01*
X102778Y34969D02*
Y38451D01*
X104128Y39280D01*
X104319Y39398D01*
X104900Y39746D01*
X105384Y39993D01*
X105746Y40091D01*
X106053Y40107D01*
X106302D01*
X106743Y40155D01*
X107156Y40244D01*
X107208Y40266D01*
X107335Y40319D01*
X107667Y40607D01*
X107946Y41120D01*
X108019Y41717D01*
X107924Y42176D01*
X107856Y42309D01*
X107794Y42427D01*
X107193Y42860D01*
X106259Y43058D01*
X106031D01*
X105294Y43061D01*
Y40219D01*
X104092Y39616D01*
X103975Y39557D01*
X103621Y39383D01*
X103227Y39191D01*
X102951Y39062D01*
X102864Y39014D01*
X102828D01*
X102813Y39266D01*
X102794Y39950D01*
X102783Y40962D01*
X102778Y41889D01*
Y45380D01*
X105266Y45331D01*
X105686Y45324D01*
X106950Y45274D01*
X108028Y45157D01*
X108729Y44935D01*
X109156Y44669D01*
X109284Y44563D01*
X109544Y44350D01*
X110129Y43471D01*
X110498Y42112D01*
X110369Y40707D01*
X109944Y39733D01*
X109726Y39473D01*
X109655Y39391D01*
X109401Y39181D01*
X108962Y38890D01*
X108522Y38667D01*
X108276Y38577D01*
X108152D01*
X108028Y38492D01*
Y38420D01*
X108130Y38290D01*
X108413Y37903D01*
X108830Y37361D01*
X109211Y36878D01*
X109340Y36718D01*
X109467Y36560D01*
X109850Y36080D01*
X110266Y35548D01*
X110548Y35179D01*
X110652Y35065D01*
Y35018D01*
X110224Y34985D01*
X109455Y34969D01*
X107746D01*
X106622Y36551D01*
X106511Y36707D01*
X106177Y37172D01*
X105797Y37689D01*
X105523Y38050D01*
X105410Y38189D01*
X105396Y38198D01*
X105321Y37794D01*
X105294Y36910D01*
Y34969D01*
X102778D01*
X111417Y34967D02*
Y45358D01*
X114038D01*
X114067Y42992D01*
X114097Y40626D01*
X115573Y42989D01*
X117050Y45352D01*
X118389Y45354D01*
X118573Y45356D01*
X119335Y45341D01*
X119730Y45312D01*
Y45247D01*
X119596Y45080D01*
X119233Y44519D01*
X118696Y43701D01*
X118204Y42960D01*
X118040Y42713D01*
X116350Y40180D01*
X116546Y39898D01*
X116572Y39860D01*
X116742Y39616D01*
X117133Y39057D01*
X117662Y38300D01*
X118119Y37647D01*
X118271Y37429D01*
X118421Y37215D01*
X118872Y36569D01*
X119375Y35844D01*
X119730Y35331D01*
X119869Y35124D01*
X119881Y35105D01*
X119885Y35097D01*
X119849Y35039D01*
X119630Y34997D01*
X119180Y34975D01*
X118633Y34969D01*
X116940D01*
X114097Y39494D01*
X114067Y37231D01*
X114038Y34967D01*
X111417D01*
X0Y0D02*
M02*
