G04 DesignSpark PCB PRO Gerber Version 10.0 Build 5299*
G04 #@! TF.Part,Single*
G04 #@! TF.FileFunction,Soldermask,Top*
G04 #@! TF.FilePolarity,Negative*
%FSLAX35Y35*%
%MOIN*%
G04 #@! TA.AperFunction,SMDPad,CuDef*
%ADD142R,0.04150X0.06906*%
%ADD18R,0.04937X0.05291*%
%ADD140R,0.05724X0.07299*%
%ADD141R,0.13992X0.13992*%
%ADD146R,0.04543X0.04543*%
%ADD145R,0.06906X0.06906*%
G04 #@! TA.AperFunction,ComponentPad*
%ADD138R,0.07496X0.07496*%
G04 #@! TA.AperFunction,SMDPad,CuDef*
%ADD144R,0.08087X0.08087*%
G04 #@! TA.AperFunction,ComponentPad*
%ADD13C,0.07102*%
%ADD139C,0.07496*%
G04 #@! TA.AperFunction,WasherPad*
%ADD12C,0.13598*%
G04 #@! TA.AperFunction,SMDPad,CuDef*
%ADD143R,0.06906X0.04150*%
%ADD17R,0.05291X0.04937*%
G04 #@! TD.AperFunction*
X0Y0D02*
D02*
D12*
X27953Y24016D03*
Y252362D03*
X118504Y24016D03*
Y252362D03*
D02*
D13*
X115591Y113189D03*
Y123189D03*
Y133189D03*
Y143189D03*
Y153189D03*
Y163189D03*
X125591Y113189D03*
Y123189D03*
Y133189D03*
Y143189D03*
Y153189D03*
Y163189D03*
D02*
D17*
X44925Y214567D03*
Y222441D03*
X51925Y214567D03*
Y222441D03*
X59492Y246850D03*
X66492D03*
X79965D03*
X86965D03*
D02*
D18*
X50394Y189807D03*
Y196807D03*
D02*
D138*
X53543Y113189D03*
D02*
D139*
X43543D03*
Y123189D03*
Y133189D03*
Y143189D03*
Y153189D03*
Y163189D03*
X53543Y123189D03*
Y133189D03*
Y143189D03*
Y153189D03*
Y163189D03*
D02*
D140*
X21670Y189392D03*
X30725D03*
X39780D03*
D02*
D141*
X30725Y214589D03*
D02*
D142*
X63386Y53543D03*
Y85039D03*
X68307Y53543D03*
Y85039D03*
X73228Y53543D03*
Y85039D03*
X78150Y53543D03*
Y85039D03*
X83071Y53543D03*
Y85039D03*
D02*
D143*
X57480Y59449D03*
Y64370D03*
Y69291D03*
Y74213D03*
Y79134D03*
X88976Y59449D03*
Y64370D03*
Y69291D03*
Y74213D03*
Y79134D03*
D02*
D144*
X68307Y64370D03*
Y74213D03*
X78150Y64370D03*
Y74213D03*
D02*
D145*
X66339Y258268D03*
X80118D03*
D02*
D146*
X73228Y255709D03*
X0Y0D02*
M02*
