G04 DesignSpark PCB PRO Gerber Version 10.0 Build 5299*
G04 #@! TF.Part,Single*
G04 #@! TF.FileFunction,Copper,L2,Bot*
G04 #@! TF.FilePolarity,Positive*
%FSLAX36Y36*%
%MOIN*%
G04 #@! TA.AperFunction,ComponentPad*
%ADD15R,0.06496X0.06496*%
G04 #@! TD.AperFunction*
%ADD10C,0.00787*%
%ADD14C,0.00984*%
%ADD11C,0.01000*%
%ADD73C,0.01969*%
G04 #@! TA.AperFunction,ViaPad*
%ADD12C,0.03543*%
G04 #@! TD.AperFunction*
%ADD13C,0.03937*%
%ADD100C,0.05906*%
G04 #@! TA.AperFunction,ViaPad*
%ADD101C,0.06000*%
G04 #@! TA.AperFunction,ComponentPad*
%ADD17C,0.06102*%
%ADD16C,0.06496*%
%ADD115C,0.39370*%
G04 #@! TD.AperFunction*
X0Y0D02*
D02*
D10*
X69744Y2689839D02*
Y73941D01*
X113311Y30374D01*
X2729209D01*
X2772776Y73941D01*
Y2689839D01*
X2729209Y2733406D01*
X113311D01*
X69744Y2689839D01*
X1802362Y231929D02*
G75*
G02*
X1770866Y156496I-31496J-31142D01*
G01*
G75*
G02*
X1739370Y231929I4J44291D01*
G01*
Y443646D01*
X1710575Y472441D01*
X927520D01*
G75*
G02*
X935039Y452756I-22008J-19685D01*
G01*
G75*
G02*
X875984I-29528J0D01*
G01*
G75*
G02*
X883504Y472441I29528J0D01*
G01*
X236220D01*
G75*
G02*
X213921Y481693I0J31496D01*
G01*
X135236Y560378D01*
G75*
G02*
X125984Y582677I22244J22299D01*
G01*
Y1062992D01*
G75*
G02*
X135236Y1085291I31496J0D01*
G01*
X185173Y1135228D01*
G75*
G02*
X226378Y1173228I41205J-3339D01*
G01*
X304756D01*
G75*
G02*
X317291I6268J-41343D01*
G01*
X419531D01*
G75*
G02*
X479724Y1131890I15902J-41339D01*
G01*
G75*
G02*
X419531Y1090551I-44291J0D01*
G01*
X317291D01*
G75*
G02*
X304756I-6268J41343D01*
G01*
X229583D01*
X188976Y1049945D01*
Y595724D01*
X249268Y535433D01*
X1723579D01*
G75*
G02*
X1745894Y526209I43J-31496D01*
G01*
X1793138Y478965D01*
G75*
G02*
X1802362Y456693I-22272J-22272D01*
G01*
G75*
G02*
Y456681I-13268J-4D01*
G01*
G75*
G02*
Y456650I-11953J-16D01*
G01*
Y231929D01*
X590594Y1001969D02*
G75*
G02*
X640197Y980315I20075J-21654D01*
G01*
G75*
G02*
X590594Y958661I-29528J0D01*
G01*
X488579D01*
G75*
G02*
X438976Y980315I-20075J21654D01*
G01*
G75*
G02*
X488579Y1001969I29528J0D01*
G01*
X590594D01*
X515039Y603346D02*
G75*
G02*
X568898Y586614I24331J-16732D01*
G01*
G75*
G02*
X515039Y569882I-29528J0D01*
G01*
X357008D01*
G75*
G02*
X303150Y586614I-24331J16732D01*
G01*
G75*
G02*
X357008Y603346I29528J0D01*
G01*
X515039D01*
X1026575Y245079D02*
X1115157D01*
Y156496D01*
X1026575D01*
Y245079D01*
X1126575Y200787D02*
G75*
G02*
X1215157I44291J0D01*
G01*
G75*
G02*
X1126575I-44291J0D01*
G01*
X1226575D02*
G75*
G02*
X1315157I44291J0D01*
G01*
G75*
G02*
X1226575I-44291J0D01*
G01*
X1326575D02*
G75*
G02*
X1415157I44291J0D01*
G01*
G75*
G02*
X1326575I-44291J0D01*
G01*
X1426575D02*
G75*
G02*
X1515157I44291J0D01*
G01*
G75*
G02*
X1426575I-44291J0D01*
G01*
X1524449D02*
G75*
G02*
X1617283I46417J0D01*
G01*
G75*
G02*
X1524449I-46417J0D01*
G01*
X1626575D02*
G75*
G02*
X1715157I44291J0D01*
G01*
G75*
G02*
X1626575I-44291J0D01*
G01*
X204724Y240157D02*
G75*
G02*
X354331I74803J0D01*
G01*
G75*
G02*
X204724I-74803J0D01*
G01*
Y2523622D02*
G75*
G02*
X354331I74803J0D01*
G01*
G75*
G02*
X204724I-74803J0D01*
G01*
X389016Y1231890D02*
G75*
G02*
X481850I46417J0D01*
G01*
G75*
G02*
X389016I-46417J0D01*
G01*
X391142Y1331890D02*
G75*
G02*
X479724I44291J0D01*
G01*
G75*
G02*
X391142I-44291J0D01*
G01*
Y1431890D02*
G75*
G02*
X479724I44291J0D01*
G01*
G75*
G02*
X391142I-44291J0D01*
G01*
Y1531890D02*
G75*
G02*
X479724I44291J0D01*
G01*
G75*
G02*
X391142I-44291J0D01*
G01*
Y1631890D02*
G75*
G02*
X479724I44291J0D01*
G01*
G75*
G02*
X391142I-44291J0D01*
G01*
X491142Y1176181D02*
X579724D01*
Y1087598D01*
X491142D01*
Y1176181D01*
Y1231890D02*
G75*
G02*
X579724I44291J0D01*
G01*
G75*
G02*
X491142I-44291J0D01*
G01*
Y1331890D02*
G75*
G02*
X579724I44291J0D01*
G01*
G75*
G02*
X491142I-44291J0D01*
G01*
Y1431890D02*
G75*
G02*
X579724I44291J0D01*
G01*
G75*
G02*
X491142I-44291J0D01*
G01*
Y1531890D02*
G75*
G02*
X579724I44291J0D01*
G01*
G75*
G02*
X491142I-44291J0D01*
G01*
Y1631890D02*
G75*
G02*
X579724I44291J0D01*
G01*
G75*
G02*
X491142I-44291J0D01*
G01*
X2479724Y1131890D02*
G75*
G02*
X2564370I42323J0D01*
G01*
G75*
G02*
X2479724I-42323J0D01*
G01*
X2488189Y240157D02*
G75*
G02*
X2637795I74803J0D01*
G01*
G75*
G02*
X2488189I-74803J0D01*
G01*
X2479724Y1231890D02*
G75*
G02*
X2564370I42323J0D01*
G01*
G75*
G02*
X2479724I-42323J0D01*
G01*
Y1331890D02*
G75*
G02*
X2564370I42323J0D01*
G01*
G75*
G02*
X2479724I-42323J0D01*
G01*
Y1431890D02*
G75*
G02*
X2564370I42323J0D01*
G01*
G75*
G02*
X2479724I-42323J0D01*
G01*
Y1531890D02*
G75*
G02*
X2564370I42323J0D01*
G01*
G75*
G02*
X2479724I-42323J0D01*
G01*
Y1631890D02*
G75*
G02*
X2564370I42323J0D01*
G01*
G75*
G02*
X2479724I-42323J0D01*
G01*
X2488189Y2523622D02*
G75*
G02*
X2637795I74803J0D01*
G01*
G75*
G02*
X2488189I-74803J0D01*
G01*
X2577598Y1231890D02*
G75*
G02*
X2666496I44449J0D01*
G01*
G75*
G02*
X2577598I-44449J0D01*
G01*
X2579724Y1131890D02*
G75*
G02*
X2664370I42323J0D01*
G01*
G75*
G02*
X2579724I-42323J0D01*
G01*
Y1331890D02*
G75*
G02*
X2664370I42323J0D01*
G01*
G75*
G02*
X2579724I-42323J0D01*
G01*
Y1431890D02*
G75*
G02*
X2664370I42323J0D01*
G01*
G75*
G02*
X2579724I-42323J0D01*
G01*
Y1531890D02*
G75*
G02*
X2664370I42323J0D01*
G01*
G75*
G02*
X2579724I-42323J0D01*
G01*
Y1631890D02*
G75*
G02*
X2664370I42323J0D01*
G01*
G75*
G02*
X2579724I-42323J0D01*
G01*
X73681Y200787D02*
G36*
X73681Y200787D02*
Y70004D01*
X109374Y34311D01*
X2733146D01*
X2768839Y70004D01*
Y200787D01*
X2626594D01*
G75*
G02*
X2499390I-63602J39370D01*
G01*
X1815157D01*
G75*
G02*
X1770866Y156496I-44291J0D01*
G01*
G75*
G02*
X1726575Y200787I0J44291D01*
G01*
X1715157D01*
G75*
G02*
X1626575I-44291J0D01*
G01*
X1617283D01*
G75*
G02*
X1524449I-46417J0D01*
G01*
X1515157D01*
G75*
G02*
X1426575I-44291J0D01*
G01*
X1415157D01*
G75*
G02*
X1326575I-44291J0D01*
G01*
X1315157D01*
G75*
G02*
X1226575I-44291J0D01*
G01*
X1215157D01*
G75*
G02*
X1126575I-44291J0D01*
G01*
X1115157D01*
Y156496D01*
X1026575D01*
Y200787D01*
X343130D01*
G75*
G02*
X215925I-63602J39370D01*
G01*
X73681D01*
G37*
Y586614D02*
G36*
X73681Y586614D02*
Y200787D01*
X215925D01*
G75*
G02*
X204724Y240157I63606J39374D01*
G01*
G75*
G02*
X354331I74803J0D01*
G01*
G75*
G02*
X343130Y200787I-74807J4D01*
G01*
X1026575D01*
Y245079D01*
X1115157D01*
Y200787D01*
X1126575D01*
G75*
G02*
X1215157I44291J0D01*
G01*
X1226575D01*
G75*
G02*
X1315157I44291J0D01*
G01*
X1326575D01*
G75*
G02*
X1415157I44291J0D01*
G01*
X1426575D01*
G75*
G02*
X1515157I44291J0D01*
G01*
X1524449D01*
G75*
G02*
X1617283I46417J0D01*
G01*
X1626575D01*
G75*
G02*
X1715157I44291J0D01*
G01*
X1726575D01*
G75*
G02*
Y200791I112787J4D01*
G01*
G75*
G02*
X1739370Y231929I44295J-4D01*
G01*
Y443646D01*
X1710575Y472441D01*
X927520D01*
G75*
G02*
X935039Y452756I-22024J-19693D01*
G01*
G75*
G02*
X875984I-29528J0D01*
G01*
G75*
G02*
X883504Y472441I29543J-8D01*
G01*
X236220D01*
G75*
G02*
X213921Y481693I4J31508D01*
G01*
X135236Y560378D01*
G75*
G02*
X125984Y582677I22256J22303D01*
G01*
Y586614D01*
X73681D01*
G37*
X198087D02*
G36*
X198087Y586614D02*
X249268Y535433D01*
X1723579D01*
G75*
G02*
X1745894Y526209I35J-31516D01*
G01*
X1793138Y478965D01*
G75*
G02*
X1802362Y456697I-22268J-22268D01*
G01*
G75*
G02*
Y456693I-56394J0D01*
G01*
Y456681D01*
Y456650D01*
Y231929D01*
G75*
G02*
X1815157Y200787I-31496J-31142D01*
G01*
X2499390D01*
G75*
G02*
X2488189Y240157I63606J39374D01*
G01*
G75*
G02*
X2637795I74803J0D01*
G01*
G75*
G02*
X2626594Y200787I-74807J4D01*
G01*
X2768839D01*
Y586614D01*
X568898D01*
G75*
G02*
X515039Y569882I-29528J4D01*
G01*
X357008D01*
G75*
G02*
X303150Y586614I-24331J16736D01*
G01*
X198087D01*
G37*
X73681Y666339D02*
G36*
X73681Y666339D02*
Y586614D01*
X125984D01*
Y666339D01*
X73681D01*
G37*
X188976D02*
G36*
X188976Y666339D02*
Y595724D01*
X198087Y586614D01*
X303150D01*
G75*
G02*
X357008Y603346I29528J-4D01*
G01*
X515039D01*
G75*
G02*
X568898Y586614I24331J-16736D01*
G01*
X2768839D01*
Y666339D01*
X188976D01*
G37*
X73681Y980315D02*
G36*
X73681Y980315D02*
Y666339D01*
X125984D01*
Y980315D01*
X73681D01*
G37*
X188976D02*
G36*
X188976Y980315D02*
Y666339D01*
X2768839D01*
Y980315D01*
X640197D01*
G75*
G02*
Y980311I-37594J0D01*
G01*
G75*
G02*
X590594Y958661I-29528J0D01*
G01*
X488579D01*
G75*
G02*
X438976Y980311I-20075J21650D01*
G01*
G75*
G02*
Y980315I37594J4D01*
G01*
X188976D01*
G37*
X73681Y1131890D02*
G36*
X73681Y1131890D02*
Y980315D01*
X125984D01*
Y1062992D01*
G75*
G02*
X135236Y1085291I31508J-4D01*
G01*
X181835Y1131890D01*
X73681D01*
G37*
X188976Y1049945D02*
G36*
X188976Y1049945D02*
Y980315D01*
X438976D01*
G75*
G02*
Y980319I37594J4D01*
G01*
G75*
G02*
X488579Y1001969I29528J0D01*
G01*
X590594D01*
G75*
G02*
X640197Y980319I20075J-21650D01*
G01*
G75*
G02*
Y980315I-37594J0D01*
G01*
X2768839D01*
Y1131890D01*
X2664370D01*
G75*
G02*
X2579724I-42323J0D01*
G01*
X2564370D01*
G75*
G02*
X2479724I-42323J0D01*
G01*
X579724D01*
Y1087598D01*
X491142D01*
Y1131890D01*
X479724D01*
G75*
G02*
Y1131886I-75193J0D01*
G01*
G75*
G02*
X419531Y1090551I-44287J0D01*
G01*
X317291D01*
G75*
G02*
X304756I-6268J41343D01*
G01*
X229583D01*
X188976Y1049945D01*
G37*
X73681Y1231890D02*
G36*
X73681Y1231890D02*
Y1131890D01*
X181835D01*
X185173Y1135228D01*
G75*
G02*
X226378Y1173228I41201J-3335D01*
G01*
X304756D01*
G75*
G02*
X317291I6268J-41343D01*
G01*
X419531D01*
G75*
G02*
X479724Y1131894I15906J-41335D01*
G01*
G75*
G02*
Y1131890I-75193J0D01*
G01*
X491142D01*
Y1176181D01*
X579724D01*
Y1131890D01*
X2479724D01*
G75*
G02*
X2564370I42323J0D01*
G01*
X2579724D01*
G75*
G02*
X2664370I42323J0D01*
G01*
X2768839D01*
Y1231890D01*
X2666496D01*
G75*
G02*
X2577598I-44449J0D01*
G01*
X2564370D01*
G75*
G02*
X2479724I-42323J0D01*
G01*
X579724D01*
G75*
G02*
X491142I-44291J0D01*
G01*
X481850D01*
G75*
G02*
X389016I-46417J0D01*
G01*
X73681D01*
G37*
Y1331890D02*
G36*
X73681Y1331890D02*
Y1231890D01*
X389016D01*
G75*
G02*
X481850I46417J0D01*
G01*
X491142D01*
G75*
G02*
X579724I44291J0D01*
G01*
X2479724D01*
G75*
G02*
X2564370I42323J0D01*
G01*
X2577598D01*
G75*
G02*
X2666496I44449J0D01*
G01*
X2768839D01*
Y1331890D01*
X2664370D01*
G75*
G02*
X2579724I-42323J0D01*
G01*
X2564370D01*
G75*
G02*
X2479724I-42323J0D01*
G01*
X579724D01*
G75*
G02*
X491142I-44291J0D01*
G01*
X479724D01*
G75*
G02*
X391142I-44291J0D01*
G01*
X73681D01*
G37*
Y1431890D02*
G36*
X73681Y1431890D02*
Y1331890D01*
X391142D01*
G75*
G02*
X479724I44291J0D01*
G01*
X491142D01*
G75*
G02*
X579724I44291J0D01*
G01*
X2479724D01*
G75*
G02*
X2564370I42323J0D01*
G01*
X2579724D01*
G75*
G02*
X2664370I42323J0D01*
G01*
X2768839D01*
Y1431890D01*
X2664370D01*
G75*
G02*
X2579724I-42323J0D01*
G01*
X2564370D01*
G75*
G02*
X2479724I-42323J0D01*
G01*
X579724D01*
G75*
G02*
X491142I-44291J0D01*
G01*
X479724D01*
G75*
G02*
X391142I-44291J0D01*
G01*
X73681D01*
G37*
Y1531890D02*
G36*
X73681Y1531890D02*
Y1431890D01*
X391142D01*
G75*
G02*
X479724I44291J0D01*
G01*
X491142D01*
G75*
G02*
X579724I44291J0D01*
G01*
X2479724D01*
G75*
G02*
X2564370I42323J0D01*
G01*
X2579724D01*
G75*
G02*
X2664370I42323J0D01*
G01*
X2768839D01*
Y1531890D01*
X2664370D01*
G75*
G02*
X2579724I-42323J0D01*
G01*
X2564370D01*
G75*
G02*
X2479724I-42323J0D01*
G01*
X579724D01*
G75*
G02*
X491142I-44291J0D01*
G01*
X479724D01*
G75*
G02*
X391142I-44291J0D01*
G01*
X73681D01*
G37*
Y1631890D02*
G36*
X73681Y1631890D02*
Y1531890D01*
X391142D01*
G75*
G02*
X479724I44291J0D01*
G01*
X491142D01*
G75*
G02*
X579724I44291J0D01*
G01*
X2479724D01*
G75*
G02*
X2564370I42323J0D01*
G01*
X2579724D01*
G75*
G02*
X2664370I42323J0D01*
G01*
X2768839D01*
Y1631890D01*
X2664370D01*
G75*
G02*
X2579724I-42323J0D01*
G01*
X2564370D01*
G75*
G02*
X2479724I-42323J0D01*
G01*
X579724D01*
G75*
G02*
X491142I-44291J0D01*
G01*
X479724D01*
G75*
G02*
X391142I-44291J0D01*
G01*
X73681D01*
G37*
Y2523622D02*
G36*
X73681Y2523622D02*
Y1631890D01*
X391142D01*
G75*
G02*
X479724I44291J0D01*
G01*
X491142D01*
G75*
G02*
X579724I44291J0D01*
G01*
X2479724D01*
G75*
G02*
X2564370I42323J0D01*
G01*
X2579724D01*
G75*
G02*
X2664370I42323J0D01*
G01*
X2768839D01*
Y2523622D01*
X2637795D01*
G75*
G02*
X2488189I-74803J0D01*
G01*
X354331D01*
G75*
G02*
X204724I-74803J0D01*
G01*
X73681D01*
G37*
Y2693776D02*
G36*
X73681Y2693776D02*
Y2523622D01*
X204724D01*
G75*
G02*
X354331I74803J0D01*
G01*
X2488189D01*
G75*
G02*
X2637795I74803J0D01*
G01*
X2768839D01*
Y2693776D01*
X2733146Y2729469D01*
X109374D01*
X73681Y2693776D01*
G37*
D02*
D11*
X407953Y1231890D02*
X387953D01*
X435433Y1204409D02*
Y1184409D01*
Y1259370D02*
Y1279370D01*
X462913Y1231890D02*
X482913D01*
X1543386Y200787D02*
X1523386D01*
X1570866Y173307D02*
Y153307D01*
Y228268D02*
Y248268D01*
X1598346Y200787D02*
X1618346D01*
X2596535Y1231890D02*
X2576535D01*
X2622047Y1206378D02*
Y1186378D01*
Y1257402D02*
Y1277402D01*
X2647559Y1231890D02*
X2667559D01*
D02*
D12*
X157480Y845472D03*
X224409Y964567D03*
X242520Y680709D03*
X330709Y775591D03*
Y838583D03*
X332677Y586614D03*
X468504Y980315D03*
X538189Y456693D03*
X539370Y586614D03*
X610669Y980315D03*
X618110Y326772D03*
X633858Y669291D03*
Y1303150D03*
Y1850394D03*
Y2169291D03*
X681102Y889764D03*
X724409Y452756D03*
X763780Y1031496D03*
X905512Y452756D03*
X952756Y629921D03*
X976378Y1070866D03*
X996063Y952756D03*
X1027559Y669291D03*
Y988189D03*
Y1303150D03*
Y1850394D03*
Y2169291D03*
Y2562992D03*
X1169291Y2393701D03*
X1421260Y669291D03*
Y988189D03*
Y1303150D03*
X1814961Y669291D03*
Y988189D03*
Y1303150D03*
Y1850394D03*
Y2169291D03*
Y2562992D03*
X2208661Y669291D03*
Y988189D03*
Y1303150D03*
Y1850394D03*
Y2169291D03*
Y2562992D03*
D02*
D13*
X157480Y845472D02*
Y582677D01*
X236220Y503937D01*
X905512D01*
X157480Y944882D02*
Y845472D01*
X226378Y1131890D02*
X157480Y1062992D01*
Y944882D01*
X905512Y503937D02*
X1723622D01*
X1770866Y456693D01*
Y200787D01*
D02*
D14*
X539370Y586614D02*
X332677D01*
D02*
D15*
X535433Y1131890D03*
X1070866Y200787D03*
D02*
D16*
X435433Y1131890D03*
Y1231890D03*
Y1331890D03*
Y1431890D03*
Y1531890D03*
Y1631890D03*
X535433Y1231890D03*
Y1331890D03*
Y1431890D03*
Y1531890D03*
Y1631890D03*
X1170866Y200787D03*
X1270866D03*
X1370866D03*
X1470866D03*
X1570866D03*
X1670866D03*
X1770866D03*
D02*
D17*
X2522047Y1131890D03*
Y1231890D03*
Y1331890D03*
Y1431890D03*
Y1531890D03*
Y1631890D03*
X2622047Y1131890D03*
Y1231890D03*
Y1331890D03*
Y1431890D03*
Y1531890D03*
Y1631890D03*
D02*
D73*
X468504Y980315D02*
X610669D01*
X905512Y452756D02*
Y503937D01*
X1421260Y1915157D02*
X1462795D01*
X1478346Y1899606D01*
D02*
D100*
X435433Y1131890D02*
X226378D01*
D02*
D101*
X311024D03*
D02*
D115*
X1421260Y1915157D03*
X0Y0D02*
M02*
