G04 DesignSpark PCB PRO Gerber Version 10.0 Build 5299*
G04 #@! TF.Part,Single*
G04 #@! TF.FileFunction,Copper,L1,Top*
G04 #@! TF.FilePolarity,Positive*
%FSLAX36Y36*%
%MOIN*%
G04 #@! TA.AperFunction,SMDPad,CuDef*
%ADD75R,0.03937X0.04291*%
%ADD103R,0.03543X0.03543*%
G04 #@! TA.AperFunction,ComponentPad*
%ADD15R,0.06496X0.06496*%
G04 #@! TD.AperFunction*
%ADD26C,0.00500*%
%ADD10C,0.00787*%
%ADD14C,0.00984*%
%ADD11C,0.01000*%
%ADD99C,0.01181*%
%ADD73C,0.01969*%
G04 #@! TA.AperFunction,ViaPad*
%ADD12C,0.03543*%
G04 #@! TD.AperFunction*
%ADD100C,0.05906*%
G04 #@! TA.AperFunction,ViaPad*
%ADD101C,0.06000*%
G04 #@! TA.AperFunction,ComponentPad*
%ADD17C,0.06102*%
%ADD16C,0.06496*%
G04 #@! TA.AperFunction,SMDPad,CuDef*
%ADD104R,0.05807X0.01772*%
%ADD105R,0.04724X0.02362*%
%ADD81R,0.04291X0.03937*%
%ADD102R,0.05906X0.04331*%
G04 #@! TA.AperFunction,ComponentPad*
%ADD115C,0.39370*%
G04 #@! TD.AperFunction*
X0Y0D02*
D02*
D10*
X69744Y2689839D02*
Y73941D01*
X113311Y30374D01*
X2729209D01*
X2772776Y73941D01*
Y2689839D01*
X2729209Y2733406D01*
X113311D01*
X69744Y2689839D01*
X2733937Y2216256D02*
G75*
G02*
X2746063Y2187008I-29217J-29252D01*
G01*
Y1155512D01*
G75*
G02*
X2733937Y1126264I-41343J4D01*
G01*
X2710350Y1102677D01*
G75*
G02*
X2681102Y1090551I-29252J29217D01*
G01*
X2631122D01*
G75*
G02*
X2579724Y1131890I-9075J41339D01*
G01*
G75*
G02*
X2631122Y1173228I42323J0D01*
G01*
X2663386D01*
Y1215555D01*
G75*
G02*
X2577598Y1231890I-41339J16335D01*
G01*
G75*
G02*
X2663386Y1248224I44449J0D01*
G01*
Y1322815D01*
G75*
G02*
X2579724Y1331890I-41339J9075D01*
G01*
G75*
G02*
X2582728Y1347547I42327J-4D01*
G01*
X2566299Y1363976D01*
X2549646D01*
G75*
G02*
X2564370Y1331890I-27598J-32087D01*
G01*
G75*
G02*
X2479724I-42323J0D01*
G01*
G75*
G02*
X2494449Y1363976I42323J0D01*
G01*
X565965D01*
G75*
G02*
X579724Y1331890I-30531J-32087D01*
G01*
G75*
G02*
X491142I-44291J0D01*
G01*
G75*
G02*
X504902Y1363976I44291J0D01*
G01*
X490000D01*
X475906Y1349882D01*
G75*
G02*
X476264Y1314724I-40472J-17992D01*
G01*
X498031Y1292953D01*
G75*
G02*
X502953Y1281102I-11811J-11854D01*
G01*
Y1262004D01*
G75*
G02*
X579724Y1231890I32480J-30114D01*
G01*
G75*
G02*
X502953Y1201776I-44291J0D01*
G01*
Y1176181D01*
X579724D01*
Y1087598D01*
X502953D01*
Y1079764D01*
X541339Y1041378D01*
G75*
G02*
X546260Y1029528I-11811J-11854D01*
G01*
Y879921D01*
G75*
G02*
X541339Y868071I-16732J4D01*
G01*
X532520Y859252D01*
G75*
G02*
X520669Y854331I-11854J11811D01*
G01*
X514783D01*
Y837598D01*
X529079D01*
X542583Y851102D01*
G75*
G02*
X555118Y856299I12535J-12520D01*
G01*
X577402D01*
Y870079D01*
X589016D01*
Y960240D01*
G75*
G02*
Y1000390I21654J20075D01*
G01*
Y1006339D01*
G75*
G02*
X595358Y1021650I21654J0D01*
G01*
X659886Y1086177D01*
G75*
G02*
X675220Y1092520I15311J-15311D01*
G01*
X813622D01*
Y1102362D01*
X880157D01*
Y1039370D01*
X866142D01*
Y1013780D01*
X879921D01*
Y1006890D01*
X907480D01*
Y1013780D01*
X978346D01*
Y978504D01*
X980472D01*
Y927008D01*
X978346D01*
Y891732D01*
X907480D01*
Y927008D01*
X905354D01*
Y973425D01*
X879921D01*
Y966535D01*
X809055D01*
Y1013780D01*
X822835D01*
Y1039370D01*
X813622D01*
Y1049213D01*
X684165D01*
X633720Y998768D01*
G75*
G02*
X632323Y960240I-23051J-18453D01*
G01*
Y870079D01*
X643937D01*
Y744094D01*
X577402D01*
Y757874D01*
X555118D01*
G75*
G02*
X542583Y763071I0J17717D01*
G01*
X529079Y776575D01*
X514783D01*
Y734252D01*
X738150D01*
X747047Y743150D01*
Y880551D01*
X732283D01*
Y947087D01*
X795276D01*
Y932087D01*
X809055D01*
Y938976D01*
X879921D01*
Y891732D01*
X809055D01*
Y898622D01*
X795276D01*
Y880551D01*
X780512D01*
Y736256D01*
G75*
G02*
Y736228I-7933J-12D01*
G01*
G75*
G02*
Y736220I-6835J-4D01*
G01*
G75*
G02*
X775610Y724390I-16732J0D01*
G01*
X756909Y705689D01*
G75*
G02*
X745043Y700787I-11835J11831D01*
G01*
X514783D01*
Y696850D01*
X434055D01*
Y560394D01*
X511811D01*
Y507874D01*
X566929D01*
Y560394D01*
X581693D01*
Y565906D01*
X577717Y569882D01*
X563701D01*
G75*
G02*
X509843Y586614I-24331J16732D01*
G01*
G75*
G02*
X563701Y603346I29528J0D01*
G01*
X584646D01*
G75*
G02*
X596496Y598425I-4J-16732D01*
G01*
X610236Y584685D01*
G75*
G02*
X615157Y572835I-11811J-11854D01*
G01*
Y560394D01*
X692913D01*
Y507913D01*
X701201Y516201D01*
G75*
G02*
X713067Y521102I11835J-11831D01*
G01*
X921260D01*
Y537638D01*
X984252D01*
Y471102D01*
X969488D01*
Y461969D01*
X984252D01*
Y395433D01*
X921260D01*
Y427780D01*
G75*
G02*
X887165Y429618I-15748J24976D01*
G01*
Y421260D01*
X871614D01*
Y397638D01*
G75*
G02*
X866417Y385102I-17717J0D01*
G01*
X853638Y372323D01*
G75*
G02*
X845063Y367575I-12535J12524D01*
G01*
X846457Y366181D01*
G75*
G02*
X851378Y354331I-11811J-11854D01*
G01*
Y338583D01*
G75*
G02*
X846457Y326732I-16732J4D01*
G01*
X844528Y324803D01*
X849409D01*
G75*
G02*
X861260Y319882I-4J-16732D01*
G01*
X884882Y296260D01*
X1243272D01*
G75*
G02*
X1255138Y291358I31J-16732D01*
G01*
X1282697Y263799D01*
G75*
G02*
X1287598Y251969I-11831J-11831D01*
G01*
G75*
G02*
Y251961I-6835J-4D01*
G01*
G75*
G02*
Y251933I-7933J-12D01*
G01*
Y241795D01*
G75*
G02*
X1304134Y230028I-16728J-41008D01*
G01*
Y268661D01*
X1270630Y302165D01*
X964567D01*
G75*
G02*
X952717Y307087I4J16732D01*
G01*
X940945Y318858D01*
G75*
G02*
X936878Y325433I11811J11850D01*
G01*
X921260D01*
Y391969D01*
X984252D01*
Y335630D01*
X1277559D01*
G75*
G02*
X1289409Y330709I-4J-16732D01*
G01*
X1332677Y287441D01*
G75*
G02*
X1337598Y275591I-11811J-11854D01*
G01*
Y230028D01*
G75*
G02*
X1415157Y200787I33268J-29240D01*
G01*
G75*
G02*
X1337598Y171547I-44291J0D01*
G01*
Y153543D01*
G75*
G02*
X1332677Y141693I-16732J4D01*
G01*
X1320906Y129921D01*
G75*
G02*
X1309055Y125000I-11854J11811D01*
G01*
X1232283D01*
G75*
G02*
X1220433Y129921I4J16732D01*
G01*
X1208661Y141693D01*
G75*
G02*
X1203740Y153543I11811J11854D01*
G01*
Y171106D01*
G75*
G02*
X1187598Y159780I-32874J29685D01*
G01*
Y147244D01*
G75*
G02*
X1182677Y135394I-16732J4D01*
G01*
X1157520Y110236D01*
G75*
G02*
X1145669Y105315I-11854J11811D01*
G01*
X476413D01*
G75*
G02*
X464547Y110217I-31J16732D01*
G01*
X448799Y125965D01*
G75*
G02*
X443898Y137795I11831J11831D01*
G01*
G75*
G02*
Y137803I6835J4D01*
G01*
G75*
G02*
Y137831I7933J16D01*
G01*
Y314925D01*
G75*
G02*
Y314953I7933J16D01*
G01*
G75*
G02*
Y314961I6835J4D01*
G01*
G75*
G02*
X448799Y326791I16732J0D01*
G01*
X464528Y342520D01*
X424248D01*
G75*
G02*
X412382Y347421I-31J16732D01*
G01*
X405492Y354311D01*
G75*
G02*
X400591Y366142I11831J11831D01*
G01*
G75*
G02*
Y366150I6835J4D01*
G01*
G75*
G02*
Y366177I7933J16D01*
G01*
Y423858D01*
X385827D01*
Y475394D01*
G75*
G02*
X373996Y480295I0J16732D01*
G01*
X358248Y496043D01*
G75*
G02*
X353346Y507874I11831J11831D01*
G01*
G75*
G02*
Y507882I6835J4D01*
G01*
G75*
G02*
Y507909I7933J16D01*
G01*
Y565528D01*
G75*
G02*
X308346Y569882I-20669J21087D01*
G01*
X208661D01*
G75*
G02*
X196811Y574803I4J16732D01*
G01*
X177165Y594449D01*
G75*
G02*
X172244Y606299I11811J11854D01*
G01*
Y728346D01*
G75*
G02*
X177165Y740197I16732J-4D01*
G01*
X191890Y754921D01*
G75*
G02*
X201752Y759724I11854J-11811D01*
G01*
Y771496D01*
X199626D01*
Y828740D01*
X181811D01*
G75*
G02*
X127953Y845472I-24331J16732D01*
G01*
G75*
G02*
X181811Y862205I29528J0D01*
G01*
X199626D01*
Y919449D01*
X285571D01*
Y848268D01*
X283445D01*
Y842677D01*
X285571D01*
Y771496D01*
X283445D01*
Y740315D01*
X285571D01*
Y694724D01*
X205709D01*
Y613228D01*
X215591Y603346D01*
X308346D01*
G75*
G02*
X353346Y607701I24331J-16732D01*
G01*
Y748031D01*
G75*
G02*
X358268Y759882I16732J-4D01*
G01*
X378898Y780512D01*
G75*
G02*
X390748Y785433I11854J-11811D01*
G01*
X433091D01*
Y880386D01*
G75*
G02*
X425177Y884823I3921J16268D01*
G01*
X409429Y900571D01*
G75*
G02*
X404528Y912402I11831J11831D01*
G01*
G75*
G02*
Y912409I6835J4D01*
G01*
G75*
G02*
Y912437I7933J16D01*
G01*
Y1034409D01*
X362205Y1076732D01*
G75*
G02*
X357283Y1088583I11811J11854D01*
G01*
Y1370472D01*
G75*
G02*
X362205Y1382323I16732J-4D01*
G01*
X394602Y1414724D01*
G75*
G02*
X451476Y1473173I40831J17165D01*
G01*
X472402Y1494094D01*
G75*
G02*
X484252Y1499016I11854J-11811D01*
G01*
X505752D01*
G75*
G02*
X491142Y1531890I29681J32874D01*
G01*
G75*
G02*
X576441Y1548622I44291J0D01*
G01*
X2483173D01*
G75*
G02*
X2564370Y1531890I38874J-16732D01*
G01*
G75*
G02*
X2548705Y1499016I-42323J0D01*
G01*
X2573622D01*
G75*
G02*
X2585472Y1494094I-4J-16732D01*
G01*
X2607819Y1471748D01*
G75*
G02*
X2663386Y1440965I14228J-39858D01*
G01*
Y1522815D01*
G75*
G02*
X2579724Y1531890I-41339J9075D01*
G01*
G75*
G02*
X2663386Y1540965I42323J0D01*
G01*
Y1622815D01*
G75*
G02*
X2579724Y1631890I-41339J9075D01*
G01*
G75*
G02*
X2663386Y1640965I42323J0D01*
G01*
Y2169886D01*
X2616736Y2216535D01*
X383264D01*
X352362Y2185634D01*
Y1138157D01*
G75*
G02*
X352835Y1131890I-41343J-6268D01*
G01*
G75*
G02*
X269213I-41811J0D01*
G01*
G75*
G02*
X269685Y1138157I41815J0D01*
G01*
Y2202756D01*
G75*
G02*
X281811Y2232004I41343J-4D01*
G01*
X336894Y2287087D01*
G75*
G02*
X366142Y2299213I29252J-29217D01*
G01*
X1647638D01*
Y2482913D01*
X1637795D01*
Y2549449D01*
X1654980D01*
Y2552913D01*
X1637795D01*
Y2569449D01*
X1598894D01*
G75*
G02*
X1587028Y2574350I-31J16732D01*
G01*
X1573780Y2587598D01*
X1531496D01*
Y2570866D01*
X1450787D01*
Y2549213D01*
X1391732D01*
Y2570866D01*
X1311024D01*
Y2587598D01*
X1197874D01*
X1186024Y2575748D01*
Y2556457D01*
X1200787D01*
Y2489921D01*
X1137795D01*
Y2556457D01*
X1152559D01*
Y2582642D01*
G75*
G02*
Y2582669I7933J16D01*
G01*
G75*
G02*
Y2582677I6835J4D01*
G01*
G75*
G02*
X1157461Y2594508I16732J0D01*
G01*
X1179114Y2616161D01*
G75*
G02*
X1190980Y2621063I11835J-11831D01*
G01*
X1311024D01*
Y2637795D01*
X1393701D01*
Y2608268D01*
X1448819D01*
Y2637795D01*
X1531496D01*
Y2621063D01*
X1580673D01*
G75*
G02*
X1592539Y2616161I31J-16732D01*
G01*
X1605787Y2602913D01*
X1637795D01*
Y2619449D01*
X1700787D01*
Y2552913D01*
X1683602D01*
Y2549449D01*
X1700787D01*
Y2482913D01*
X1690945D01*
Y2299213D01*
X2633858D01*
G75*
G02*
X2663106Y2287087I-4J-41343D01*
G01*
X2733937Y2216256D01*
X391142Y1531890D02*
G75*
G02*
X479724I44291J0D01*
G01*
G75*
G02*
X391142I-44291J0D01*
G01*
Y1631890D02*
G75*
G02*
X479724I44291J0D01*
G01*
G75*
G02*
X391142I-44291J0D01*
G01*
X2512972Y1673228D02*
G75*
G02*
X2564370Y1631890I9075J-41339D01*
G01*
G75*
G02*
X2512972Y1590551I-42323J0D01*
G01*
X551335D01*
G75*
G02*
X491142Y1631890I-15902J41339D01*
G01*
G75*
G02*
X551335Y1673228I44291J0D01*
G01*
X2512972D01*
X881496Y1104488D02*
X952283D01*
Y1037244D01*
X881496D01*
Y1104488D01*
X1426575Y200787D02*
G75*
G02*
X1515157I44291J0D01*
G01*
G75*
G02*
X1426575I-44291J0D01*
G01*
X1524449D02*
G75*
G02*
X1617283I46417J0D01*
G01*
G75*
G02*
X1524449I-46417J0D01*
G01*
X1925197Y234488D02*
X1988189D01*
Y167953D01*
X1925197D01*
Y179134D01*
X1809504D01*
G75*
G02*
X1732228I-38638J21654D01*
G01*
X1709504D01*
G75*
G02*
X1626575Y200787I-38638J21654D01*
G01*
G75*
G02*
X1709504Y222441I44291J0D01*
G01*
X1732228D01*
G75*
G02*
X1809504I38638J-21654D01*
G01*
X1925197D01*
Y234488D01*
X1923071Y306614D02*
X1990315D01*
Y235827D01*
X1923071D01*
Y306614D01*
X2479724Y1131890D02*
G75*
G02*
X2564370I42323J0D01*
G01*
G75*
G02*
X2479724I-42323J0D01*
G01*
X2488189Y240157D02*
G75*
G02*
X2637795I74803J0D01*
G01*
G75*
G02*
X2488189I-74803J0D01*
G01*
X2479724Y1231890D02*
G75*
G02*
X2564370I42323J0D01*
G01*
G75*
G02*
X2479724I-42323J0D01*
G01*
X919134Y609764D02*
X986378D01*
Y538976D01*
X919134D01*
Y609764D01*
X730157Y1019213D02*
X797402D01*
Y948425D01*
X730157D01*
Y1019213D01*
X645276Y872205D02*
X716063D01*
Y741969D01*
X645276D01*
Y872205D01*
X204724Y240157D02*
G75*
G02*
X354331I74803J0D01*
G01*
G75*
G02*
X204724I-74803J0D01*
G01*
Y2523622D02*
G75*
G02*
X354331I74803J0D01*
G01*
G75*
G02*
X204724I-74803J0D01*
G01*
X1135669Y2488583D02*
X1202913D01*
Y2417795D01*
X1135669D01*
Y2488583D01*
X2488189Y2523622D02*
G75*
G02*
X2637795I74803J0D01*
G01*
G75*
G02*
X2488189I-74803J0D01*
G01*
X73681Y200787D02*
G36*
X73681Y200787D02*
Y70004D01*
X109374Y34311D01*
X2733146D01*
X2768839Y70004D01*
Y200787D01*
X2626594D01*
G75*
G02*
X2499390I-63602J39370D01*
G01*
X1988189D01*
Y167953D01*
X1925197D01*
Y179134D01*
X1809504D01*
G75*
G02*
X1732228I-38638J21654D01*
G01*
X1709504D01*
G75*
G02*
X1626575Y200787I-38638J21654D01*
G01*
X1617283D01*
G75*
G02*
X1524449I-46417J0D01*
G01*
X1515157D01*
G75*
G02*
X1426575I-44291J0D01*
G01*
X1415157D01*
G75*
G02*
Y200783I-112787J0D01*
G01*
G75*
G02*
X1337598Y171547I-44291J0D01*
G01*
Y153543D01*
G75*
G02*
X1332677Y141693I-16728J0D01*
G01*
X1320906Y129921D01*
G75*
G02*
X1309055Y125000I-11850J11803D01*
G01*
X1232283D01*
G75*
G02*
X1220433Y129921I0J16724D01*
G01*
X1208661Y141693D01*
G75*
G02*
X1203740Y153543I11807J11850D01*
G01*
Y171106D01*
G75*
G02*
X1187598Y159780I-32850J29650D01*
G01*
Y147244D01*
G75*
G02*
X1182677Y135394I-16728J0D01*
G01*
X1157520Y110236D01*
G75*
G02*
X1145669Y105315I-11850J11803D01*
G01*
X476413D01*
G75*
G02*
X464547Y110217I-31J16740D01*
G01*
X448799Y125965D01*
G75*
G02*
X443898Y137795I11854J11843D01*
G01*
Y137803D01*
Y137831D01*
Y200787D01*
X343130D01*
G75*
G02*
X215925I-63602J39370D01*
G01*
X73681D01*
G37*
Y271220D02*
G36*
X73681Y271220D02*
Y200787D01*
X215925D01*
G75*
G02*
X204724Y240157I63606J39374D01*
G01*
G75*
G02*
X211480Y271220I74807J-4D01*
G01*
X73681D01*
G37*
X354331Y240157D02*
G36*
X354331Y240157D02*
G75*
G02*
X343130Y200787I-74807J4D01*
G01*
X443898D01*
Y271220D01*
X347575D01*
G75*
G02*
X354331Y240157I-68051J-31067D01*
G01*
G37*
X1275276Y271220D02*
G36*
X1275276Y271220D02*
X1282697Y263799D01*
G75*
G02*
X1287598Y251969I-11854J-11843D01*
G01*
Y251961D01*
Y251933D01*
Y241795D01*
G75*
G02*
X1304134Y230028I-16728J-41008D01*
G01*
Y268661D01*
X1301575Y271220D01*
X1275276D01*
G37*
X1337598D02*
G36*
X1337598Y271220D02*
Y230028D01*
G75*
G02*
X1415157Y200791I33268J-29236D01*
G01*
G75*
G02*
Y200787I-112787J0D01*
G01*
X1426575D01*
G75*
G02*
X1515157I44291J0D01*
G01*
X1524449D01*
G75*
G02*
X1617283I46417J0D01*
G01*
X1626575D01*
G75*
G02*
X1709504Y222441I44291J0D01*
G01*
X1732228D01*
G75*
G02*
X1809504I38638J-21654D01*
G01*
X1925197D01*
Y234488D01*
X1988189D01*
Y200787D01*
X2499390D01*
G75*
G02*
X2488189Y240157I63606J39374D01*
G01*
G75*
G02*
X2494945Y271220I74807J-4D01*
G01*
X1990315D01*
Y235827D01*
X1923071D01*
Y271220D01*
X1337598D01*
G37*
X2637795Y240157D02*
G36*
X2637795Y240157D02*
G75*
G02*
X2626594Y200787I-74807J4D01*
G01*
X2768839D01*
Y271220D01*
X2631039D01*
G75*
G02*
X2637795Y240157I-68051J-31067D01*
G01*
G37*
X73681Y574370D02*
G36*
X73681Y574370D02*
Y271220D01*
X211480D01*
G75*
G02*
X347575I68047J-31063D01*
G01*
X443898D01*
Y314925D01*
Y314953D01*
Y314961D01*
G75*
G02*
X448799Y326791I16756J-12D01*
G01*
X464528Y342520D01*
X424248D01*
G75*
G02*
X412382Y347421I-31J16740D01*
G01*
X405492Y354311D01*
G75*
G02*
X400591Y366142I11854J11843D01*
G01*
Y366150D01*
Y366177D01*
Y423858D01*
X385827D01*
Y475394D01*
G75*
G02*
X373996Y480295I12J16756D01*
G01*
X358248Y496043D01*
G75*
G02*
X353346Y507874I11854J11843D01*
G01*
Y507882D01*
Y507909D01*
Y565528D01*
G75*
G02*
X308346Y569882I-20669J21091D01*
G01*
X208661D01*
G75*
G02*
X197260Y574370I0J16724D01*
G01*
X73681D01*
G37*
X434055D02*
G36*
X434055Y574370D02*
Y560394D01*
X511811D01*
Y507874D01*
X566929D01*
Y560394D01*
X581693D01*
Y565906D01*
X577717Y569882D01*
X563701D01*
G75*
G02*
X512500Y574370I-24331J16736D01*
G01*
X434055D01*
G37*
X615157Y572835D02*
G36*
X615157Y572835D02*
Y560394D01*
X692913D01*
Y507913D01*
X701201Y516201D01*
G75*
G02*
X713067Y521102I11835J-11839D01*
G01*
X921260D01*
Y537638D01*
X984252D01*
Y471102D01*
X969488D01*
Y461969D01*
X984252D01*
Y395433D01*
X921260D01*
Y427780D01*
G75*
G02*
X887165Y429618I-15748J24980D01*
G01*
Y421260D01*
X871614D01*
Y397638D01*
G75*
G02*
X866417Y385102I-17720J0D01*
G01*
X853638Y372323D01*
G75*
G02*
X845063Y367575I-12520J12492D01*
G01*
X846457Y366181D01*
G75*
G02*
X851378Y354331I-11807J-11850D01*
G01*
Y338583D01*
G75*
G02*
X846457Y326732I-16728J0D01*
G01*
X844528Y324803D01*
X849409D01*
G75*
G02*
X861260Y319882I0J-16724D01*
G01*
X884882Y296260D01*
X1243272D01*
G75*
G02*
X1255138Y291358I31J-16740D01*
G01*
X1275276Y271220D01*
X1301575D01*
X1270630Y302165D01*
X964567D01*
G75*
G02*
X952717Y307087I0J16724D01*
G01*
X940945Y318858D01*
G75*
G02*
X936878Y325433I11874J11890D01*
G01*
X921260D01*
Y391969D01*
X984252D01*
Y335630D01*
X1277559D01*
G75*
G02*
X1289409Y330709I0J-16724D01*
G01*
X1332677Y287441D01*
G75*
G02*
X1337598Y275591I-11807J-11850D01*
G01*
Y271220D01*
X1923071D01*
Y306614D01*
X1990315D01*
Y271220D01*
X2494945D01*
G75*
G02*
X2631039I68047J-31063D01*
G01*
X2768839D01*
Y574370D01*
X986378D01*
Y538976D01*
X919134D01*
Y574370D01*
X615087D01*
G75*
G02*
X615157Y572835I-16673J-1539D01*
G01*
G37*
X73681Y807087D02*
G36*
X73681Y807087D02*
Y574370D01*
X197260D01*
G75*
G02*
X196811Y574803I11402J12264D01*
G01*
X177165Y594449D01*
G75*
G02*
X172244Y606299I11807J11850D01*
G01*
Y728346D01*
G75*
G02*
X177165Y740197I16728J0D01*
G01*
X191890Y754921D01*
G75*
G02*
X201752Y759724I11862J-11827D01*
G01*
Y771496D01*
X199626D01*
Y807087D01*
X73681D01*
G37*
X205709Y694724D02*
G36*
X205709Y694724D02*
Y613228D01*
X215591Y603346D01*
X308346D01*
G75*
G02*
X353346Y607701I24331J-16736D01*
G01*
Y748031D01*
G75*
G02*
X358268Y759882I16728J0D01*
G01*
X378898Y780512D01*
G75*
G02*
X390748Y785433I11850J-11803D01*
G01*
X433091D01*
Y807087D01*
X285571D01*
Y771496D01*
X283445D01*
Y740315D01*
X285571D01*
Y694724D01*
X205709D01*
G37*
X434055Y696850D02*
G36*
X434055Y696850D02*
Y574370D01*
X512500D01*
G75*
G02*
X509843Y586614I26870J12244D01*
G01*
G75*
G02*
X563701Y603346I29528J-4D01*
G01*
X584646D01*
G75*
G02*
X596496Y598425I0J-16724D01*
G01*
X610236Y584685D01*
G75*
G02*
X615087Y574370I-11803J-11850D01*
G01*
X919134D01*
Y609764D01*
X986378D01*
Y574370D01*
X2768839D01*
Y807087D01*
X780512D01*
Y736256D01*
Y736228D01*
Y736220D01*
G75*
G02*
X775610Y724390I-16756J12D01*
G01*
X756909Y705689D01*
G75*
G02*
X745043Y700787I-11835J11839D01*
G01*
X514783D01*
Y696850D01*
X434055D01*
G37*
X514783Y776575D02*
G36*
X514783Y776575D02*
Y734252D01*
X738150D01*
X747047Y743150D01*
Y807087D01*
X716063D01*
Y741969D01*
X645276D01*
Y807087D01*
X643937D01*
Y744094D01*
X577402D01*
Y757874D01*
X555118D01*
G75*
G02*
X542583Y763071I0J17720D01*
G01*
X529079Y776575D01*
X514783D01*
G37*
X73681Y983819D02*
G36*
X73681Y983819D02*
Y807087D01*
X199626D01*
Y828740D01*
X181811D01*
G75*
G02*
X127953Y845472I-24331J16736D01*
G01*
G75*
G02*
X181811Y862205I29528J-4D01*
G01*
X199626D01*
Y919449D01*
X285571D01*
Y848268D01*
X283445D01*
Y842677D01*
X285571D01*
Y807087D01*
X433091D01*
Y880386D01*
G75*
G02*
X425177Y884823I3929J16287D01*
G01*
X409429Y900571D01*
G75*
G02*
X404528Y912402I11854J11843D01*
G01*
Y912409D01*
Y912437D01*
Y983819D01*
X73681D01*
G37*
X514783Y854331D02*
G36*
X514783Y854331D02*
Y837598D01*
X529079D01*
X542583Y851102D01*
G75*
G02*
X555118Y856299I12535J-12524D01*
G01*
X577402D01*
Y870079D01*
X589016D01*
Y960240D01*
G75*
G02*
X581142Y980315I21654J20075D01*
G01*
G75*
G02*
X581350Y983819I29528J0D01*
G01*
X546260D01*
Y879921D01*
G75*
G02*
X541339Y868071I-16728J0D01*
G01*
X532520Y859252D01*
G75*
G02*
X520669Y854331I-11850J11803D01*
G01*
X514783D01*
G37*
X632323Y960240D02*
G36*
X632323Y960240D02*
Y870079D01*
X643937D01*
Y807087D01*
X645276D01*
Y872205D01*
X716063D01*
Y807087D01*
X747047D01*
Y880551D01*
X732283D01*
Y947087D01*
X795276D01*
Y932087D01*
X809055D01*
Y938976D01*
X879921D01*
Y891732D01*
X809055D01*
Y898622D01*
X795276D01*
Y880551D01*
X780512D01*
Y807087D01*
X2768839D01*
Y983819D01*
X978346D01*
Y978504D01*
X980472D01*
Y927008D01*
X978346D01*
Y891732D01*
X907480D01*
Y927008D01*
X905354D01*
Y973425D01*
X879921D01*
Y966535D01*
X809055D01*
Y983819D01*
X797402D01*
Y948425D01*
X730157D01*
Y983819D01*
X639988D01*
G75*
G02*
X640197Y980315I-29319J-3504D01*
G01*
G75*
G02*
X632323Y960240I-29528J0D01*
G01*
G37*
X73681Y1070866D02*
G36*
X73681Y1070866D02*
Y983819D01*
X404528D01*
Y1034409D01*
X368071Y1070866D01*
X73681D01*
G37*
X511850D02*
G36*
X511850Y1070866D02*
X541339Y1041378D01*
G75*
G02*
X546260Y1029528I-11807J-11850D01*
G01*
Y983819D01*
X581350D01*
G75*
G02*
X589016Y1000390I29319J-3504D01*
G01*
Y1006339D01*
G75*
G02*
X595358Y1021650I21661J-4D01*
G01*
X644575Y1070866D01*
X511850D01*
G37*
X633720Y998768D02*
G36*
X633720Y998768D02*
G75*
G02*
X639988Y983819I-23051J-18453D01*
G01*
X730157D01*
Y1019213D01*
X797402D01*
Y983819D01*
X809055D01*
Y1013780D01*
X822835D01*
Y1039370D01*
X813622D01*
Y1049213D01*
X684165D01*
X633720Y998768D01*
G37*
X866142Y1039370D02*
G36*
X866142Y1039370D02*
Y1013780D01*
X879921D01*
Y1006890D01*
X907480D01*
Y1013780D01*
X978346D01*
Y983819D01*
X2768839D01*
Y1070866D01*
X952283D01*
Y1037244D01*
X881496D01*
Y1070866D01*
X880157D01*
Y1039370D01*
X866142D01*
G37*
X73681Y1131890D02*
G36*
X73681Y1131890D02*
Y1070866D01*
X368071D01*
X362205Y1076732D01*
G75*
G02*
X357283Y1088583I11807J11850D01*
G01*
Y1131890D01*
X352835D01*
G75*
G02*
X269213I-41811J0D01*
G01*
X73681D01*
G37*
X502953Y1087598D02*
G36*
X502953Y1087598D02*
Y1079764D01*
X511850Y1070866D01*
X644575D01*
X659886Y1086177D01*
G75*
G02*
X675220Y1092520I15319J-15331D01*
G01*
X813622D01*
Y1102362D01*
X880157D01*
Y1070866D01*
X881496D01*
Y1104488D01*
X952283D01*
Y1070866D01*
X2768839D01*
Y1131890D01*
X2738646D01*
G75*
G02*
X2733937Y1126264I-33945J23626D01*
G01*
X2710350Y1102677D01*
G75*
G02*
X2681102Y1090551I-29256J29232D01*
G01*
X2631122D01*
G75*
G02*
X2579724Y1131890I-9075J41339D01*
G01*
X2564370D01*
G75*
G02*
X2479724I-42323J0D01*
G01*
X579724D01*
Y1087598D01*
X502953D01*
G37*
X73681Y1231890D02*
G36*
X73681Y1231890D02*
Y1131890D01*
X269213D01*
G75*
G02*
Y1131894I75193J4D01*
G01*
G75*
G02*
X269685Y1138157I41772J0D01*
G01*
Y1231890D01*
X73681D01*
G37*
X352362D02*
G36*
X352362Y1231890D02*
Y1138157D01*
G75*
G02*
X352835Y1131894I-41299J-6264D01*
G01*
G75*
G02*
Y1131890I-75193J0D01*
G01*
X357283D01*
Y1231890D01*
X352362D01*
G37*
X502953Y1201776D02*
G36*
X502953Y1201776D02*
Y1176181D01*
X579724D01*
Y1131890D01*
X2479724D01*
G75*
G02*
X2564370I42323J0D01*
G01*
X2579724D01*
G75*
G02*
X2631122Y1173228I42323J0D01*
G01*
X2663386D01*
Y1215555D01*
G75*
G02*
X2577598Y1231890I-41339J16335D01*
G01*
X2564370D01*
G75*
G02*
X2479724I-42323J0D01*
G01*
X579724D01*
G75*
G02*
X502953Y1201776I-44291J0D01*
G01*
G37*
X2746063Y1155512D02*
G36*
X2746063Y1155512D02*
G75*
G02*
X2738646Y1131890I-41362J12D01*
G01*
X2768839D01*
Y1231890D01*
X2746063D01*
Y1155512D01*
G37*
X73681Y1371555D02*
G36*
X73681Y1371555D02*
Y1231890D01*
X269685D01*
Y1371555D01*
X73681D01*
G37*
X352362D02*
G36*
X352362Y1371555D02*
Y1231890D01*
X357283D01*
Y1370472D01*
G75*
G02*
X357319Y1371555I16752J-8D01*
G01*
X352362D01*
G37*
X479728Y1331890D02*
G36*
X479728Y1331890D02*
G75*
G02*
X476264Y1314724I-44276J4D01*
G01*
X498031Y1292953D01*
G75*
G02*
X502953Y1281102I-11807J-11850D01*
G01*
Y1262004D01*
G75*
G02*
X579724Y1231890I32480J-30114D01*
G01*
X2479724D01*
G75*
G02*
X2564370I42323J0D01*
G01*
X2577598D01*
G75*
G02*
X2663386Y1248224I44449J0D01*
G01*
Y1322815D01*
G75*
G02*
X2579724Y1331890I-41339J9075D01*
G01*
G75*
G02*
X2582728Y1347547I42413J-20D01*
G01*
X2566299Y1363976D01*
X2549646D01*
G75*
G02*
X2564370Y1331890I-27606J-32091D01*
G01*
G75*
G02*
X2479724I-42323J0D01*
G01*
G75*
G02*
X2494449Y1363976I42331J-4D01*
G01*
X565965D01*
G75*
G02*
X579724Y1331890I-30547J-32094D01*
G01*
G75*
G02*
X491142I-44291J0D01*
G01*
G75*
G02*
X504902Y1363976I44307J-8D01*
G01*
X490000D01*
X475906Y1349882D01*
G75*
G02*
X479728Y1331890I-40449J-17996D01*
G01*
G37*
X2746063Y1371555D02*
G36*
X2746063Y1371555D02*
Y1231890D01*
X2768839D01*
Y1371555D01*
X2746063D01*
G37*
X73681Y1531890D02*
G36*
X73681Y1531890D02*
Y1371555D01*
X269685D01*
Y1531890D01*
X73681D01*
G37*
X352362D02*
G36*
X352362Y1531890D02*
Y1371555D01*
X357319D01*
G75*
G02*
X362205Y1382323I16689J-1079D01*
G01*
X394602Y1414724D01*
G75*
G02*
X391142Y1431890I40827J17161D01*
G01*
G75*
G02*
X451476Y1473173I44291J0D01*
G01*
X472402Y1494094D01*
G75*
G02*
X484252Y1499016I11850J-11803D01*
G01*
X505752D01*
G75*
G02*
X491142Y1531890I29693J32882D01*
G01*
X479724D01*
G75*
G02*
X391142I-44291J0D01*
G01*
X352362D01*
G37*
X2564370Y1531878D02*
G36*
X2564370Y1531878D02*
G75*
G02*
X2548705Y1499016I-42303J0D01*
G01*
X2573622D01*
G75*
G02*
X2585472Y1494094I0J-16724D01*
G01*
X2607819Y1471748D01*
G75*
G02*
X2663386Y1440965I14228J-39862D01*
G01*
Y1522815D01*
G75*
G02*
X2579724Y1531890I-41339J9075D01*
G01*
X2564370D01*
G75*
G02*
Y1531878I-48339J-4D01*
G01*
G37*
X2746063Y1531890D02*
G36*
X2746063Y1531890D02*
Y1371555D01*
X2768839D01*
Y1531890D01*
X2746063D01*
G37*
X73681Y1631890D02*
G36*
X73681Y1631890D02*
Y1531890D01*
X269685D01*
Y1631890D01*
X73681D01*
G37*
X352362D02*
G36*
X352362Y1631890D02*
Y1531890D01*
X391142D01*
G75*
G02*
X479724I44291J0D01*
G01*
X491142D01*
G75*
G02*
X576441Y1548622I44291J-4D01*
G01*
X2483173D01*
G75*
G02*
X2564370Y1531890I38874J-16732D01*
G01*
X2579724D01*
G75*
G02*
X2663386Y1540965I42323J0D01*
G01*
Y1622815D01*
G75*
G02*
X2579724Y1631890I-41339J9075D01*
G01*
X2564370D01*
G75*
G02*
X2512972Y1590551I-42323J0D01*
G01*
X551335D01*
G75*
G02*
X491142Y1631886I-15906J41335D01*
G01*
G75*
G02*
Y1631890I75193J4D01*
G01*
X479724D01*
G75*
G02*
X391142I-44291J0D01*
G01*
X352362D01*
G37*
X2746063D02*
G36*
X2746063Y1631890D02*
Y1531890D01*
X2768839D01*
Y1631890D01*
X2746063D01*
G37*
X73681Y2453189D02*
G36*
X73681Y2453189D02*
Y1631890D01*
X269685D01*
Y2202756D01*
G75*
G02*
X281811Y2232004I41358J-8D01*
G01*
X336894Y2287087D01*
G75*
G02*
X366142Y2299213I29256J-29232D01*
G01*
X1647638D01*
Y2453189D01*
X1202913D01*
Y2417795D01*
X1135669D01*
Y2453189D01*
X304720D01*
G75*
G02*
X254335I-25193J70433D01*
G01*
X73681D01*
G37*
X352362Y2185634D02*
G36*
X352362Y2185634D02*
Y1631890D01*
X391142D01*
G75*
G02*
X479724I44291J0D01*
G01*
X491142D01*
G75*
G02*
Y1631894I75193J4D01*
G01*
G75*
G02*
X551335Y1673228I44287J0D01*
G01*
X2512972D01*
G75*
G02*
X2564370Y1631890I9075J-41339D01*
G01*
X2579724D01*
G75*
G02*
X2663386Y1640965I42323J0D01*
G01*
Y2169886D01*
X2616736Y2216535D01*
X383264D01*
X352362Y2185634D01*
G37*
X1690945Y2453189D02*
G36*
X1690945Y2453189D02*
Y2299213D01*
X2633858D01*
G75*
G02*
X2663106Y2287087I-8J-41358D01*
G01*
X2733937Y2216256D01*
G75*
G02*
X2746063Y2187008I-29232J-29256D01*
G01*
Y1631890D01*
X2768839D01*
Y2453189D01*
X2588185D01*
G75*
G02*
X2537799I-25193J70433D01*
G01*
X1690945D01*
G37*
X73681Y2523622D02*
G36*
X73681Y2523622D02*
Y2453189D01*
X254335D01*
G75*
G02*
X204724Y2523622I25193J70433D01*
G01*
X73681D01*
G37*
X354331D02*
G36*
X354331Y2523622D02*
G75*
G02*
X304720Y2453189I-74803J0D01*
G01*
X1135669D01*
Y2488583D01*
X1202913D01*
Y2453189D01*
X1647638D01*
Y2482913D01*
X1637795D01*
Y2523622D01*
X1200787D01*
Y2489921D01*
X1137795D01*
Y2523622D01*
X354331D01*
G37*
X1690945Y2482913D02*
G36*
X1690945Y2482913D02*
Y2453189D01*
X2537799D01*
G75*
G02*
X2488189Y2523622I25193J70433D01*
G01*
X1700787D01*
Y2482913D01*
X1690945D01*
G37*
X2637795Y2523622D02*
G36*
X2637795Y2523622D02*
G75*
G02*
X2588185Y2453189I-74803J0D01*
G01*
X2768839D01*
Y2523622D01*
X2637795D01*
G37*
X73681Y2693776D02*
G36*
X73681Y2693776D02*
Y2523622D01*
X204724D01*
G75*
G02*
X354331I74803J0D01*
G01*
X1137795D01*
Y2556457D01*
X1152559D01*
Y2582642D01*
Y2582669D01*
Y2582677D01*
G75*
G02*
X1157461Y2594508I16756J-12D01*
G01*
X1179114Y2616161D01*
G75*
G02*
X1190980Y2621063I11835J-11839D01*
G01*
X1311024D01*
Y2637795D01*
X1393701D01*
Y2608268D01*
X1448819D01*
Y2637795D01*
X1531496D01*
Y2621063D01*
X1580673D01*
G75*
G02*
X1592539Y2616161I31J-16740D01*
G01*
X1605787Y2602913D01*
X1637795D01*
Y2619449D01*
X1700787D01*
Y2552913D01*
X1683602D01*
Y2549449D01*
X1700787D01*
Y2523622D01*
X2488189D01*
G75*
G02*
X2637795I74803J0D01*
G01*
X2768839D01*
Y2693776D01*
X2733146Y2729469D01*
X109374D01*
X73681Y2693776D01*
G37*
X1186024Y2575748D02*
G36*
X1186024Y2575748D02*
Y2556457D01*
X1200787D01*
Y2523622D01*
X1637795D01*
Y2549449D01*
X1654980D01*
Y2552913D01*
X1637795D01*
Y2569449D01*
X1598894D01*
G75*
G02*
X1587028Y2574350I-31J16740D01*
G01*
X1573780Y2587598D01*
X1531496D01*
Y2570866D01*
X1450787D01*
Y2549213D01*
X1391732D01*
Y2570866D01*
X1311024D01*
Y2587598D01*
X1197874D01*
X1186024Y2575748D01*
G37*
X385827Y492126D02*
X700787D01*
X434055Y423858D02*
Y401575D01*
X497028D01*
Y405512D01*
X578720D01*
Y330866D01*
X580846D01*
Y285276D01*
X494902D01*
Y316929D01*
X486260D01*
X477362Y308031D01*
Y144724D01*
X483307Y138780D01*
X1138740D01*
X1154134Y154173D01*
Y159780D01*
G75*
G02*
X1143028Y235236I16732J41008D01*
G01*
X1115157D01*
Y156496D01*
X1026575D01*
Y245079D01*
X1054161D01*
G75*
G02*
X1059055Y255945I16705J-988D01*
G01*
X1065906Y262795D01*
X877953D01*
G75*
G02*
X866102Y267717I4J16732D01*
G01*
X842480Y291339D01*
X810059D01*
Y287402D01*
X728366D01*
Y342520D01*
X676181D01*
G75*
G02*
X664331Y347441I4J16732D01*
G01*
X649606Y362165D01*
G75*
G02*
X644685Y374016I11811J11854D01*
G01*
Y423858D01*
X632047D01*
Y421732D01*
X564803D01*
Y476378D01*
X513937D01*
Y421732D01*
X446693D01*
Y423858D01*
X434055D01*
G36*
X434055Y423858D02*
Y401575D01*
X497028D01*
Y405512D01*
X578720D01*
Y330866D01*
X580846D01*
Y285276D01*
X494902D01*
Y316929D01*
X486260D01*
X477362Y308031D01*
Y144724D01*
X483307Y138780D01*
X1138740D01*
X1154134Y154173D01*
Y159780D01*
G75*
G02*
X1143028Y235236I16732J41008D01*
G01*
X1115157D01*
Y156496D01*
X1026575D01*
Y245079D01*
X1054161D01*
G75*
G02*
X1059055Y255945I16705J-988D01*
G01*
X1065906Y262795D01*
X877953D01*
G75*
G02*
X866102Y267717I4J16732D01*
G01*
X842480Y291339D01*
X810059D01*
Y287402D01*
X728366D01*
Y342520D01*
X676181D01*
G75*
G02*
X664331Y347441I4J16732D01*
G01*
X649606Y362165D01*
G75*
G02*
X644685Y374016I11811J11854D01*
G01*
Y423858D01*
X632047D01*
Y421732D01*
X564803D01*
Y476378D01*
X513937D01*
Y421732D01*
X446693D01*
Y423858D01*
X434055D01*
G37*
D02*
D11*
X218563Y794291D02*
X198563D01*
X218563Y819882D02*
X198563D01*
X242598Y713661D02*
Y693661D01*
X266634Y717520D02*
X286634D01*
X266634Y794291D02*
X286634D01*
X266634Y819882D02*
X286634D01*
X480315Y440669D02*
Y420669D01*
X495000Y457126D02*
X515000D01*
X513839Y308071D02*
X493839D01*
X537874Y304213D02*
Y284213D01*
X561909Y308071D02*
X581909D01*
X583740Y457126D02*
X563740D01*
X598425Y440669D02*
Y420669D01*
X680669Y760906D02*
Y740906D01*
Y853268D02*
Y873268D01*
X697126Y775591D02*
X717126D01*
X697126Y838583D02*
X717126D01*
X747630Y967669D02*
X729094Y949134D01*
X747630Y999969D02*
X729094Y1018504D01*
X779929Y967669D02*
X798465Y949134D01*
X779929Y999969D02*
X798465Y1018504D01*
X900740Y1054717D02*
X882205Y1036181D01*
X900740Y1087016D02*
X882205Y1105551D01*
X924291Y952756D02*
X904291D01*
X933039Y1054717D02*
X951575Y1036181D01*
X933039Y1087016D02*
X951575Y1105551D01*
X936606Y558220D02*
X918071Y539685D01*
X936606Y590520D02*
X918071Y609055D01*
X961535Y952756D02*
X981535D01*
X968906Y558220D02*
X987441Y539685D01*
X968906Y590520D02*
X987441Y609055D01*
X1153142Y2437039D02*
X1134606Y2418504D01*
X1153142Y2469339D02*
X1134606Y2487874D01*
X1185441Y2437039D02*
X1203976Y2418504D01*
X1185441Y2469339D02*
X1203976Y2487874D01*
X1543386Y200787D02*
X1523386D01*
X1570866Y173307D02*
Y153307D01*
Y228268D02*
Y248268D01*
X1598346Y200787D02*
X1618346D01*
X1940543Y255071D02*
X1922008Y236535D01*
X1940543Y287370D02*
X1922008Y305906D01*
X1972843Y255071D02*
X1991378Y236535D01*
X1972843Y287370D02*
X1991378Y305906D01*
X2604008Y1213850D02*
X2589866Y1199709D01*
X2604008Y1249929D02*
X2589866Y1264071D01*
X2640087Y1213850D02*
X2654228Y1199709D01*
X2640087Y1249929D02*
X2654228Y1264071D01*
D02*
D12*
X157480Y845472D03*
X224409Y964567D03*
X242520Y680709D03*
X330709Y775591D03*
Y838583D03*
X332677Y586614D03*
X468504Y980315D03*
X538189Y456693D03*
X539370Y586614D03*
X610669Y980315D03*
X618110Y326772D03*
X633858Y669291D03*
Y1303150D03*
Y1850394D03*
Y2169291D03*
X681102Y889764D03*
X724409Y452756D03*
X763780Y1031496D03*
X905512Y452756D03*
X952756Y629921D03*
X976378Y1070866D03*
X996063Y952756D03*
X1027559Y669291D03*
Y988189D03*
Y1303150D03*
Y1850394D03*
Y2169291D03*
Y2562992D03*
X1169291Y2393701D03*
X1421260Y669291D03*
Y988189D03*
Y1303150D03*
X1814961Y669291D03*
Y988189D03*
Y1303150D03*
Y1850394D03*
Y2169291D03*
Y2562992D03*
X2208661Y669291D03*
Y988189D03*
Y1303150D03*
Y1850394D03*
Y2169291D03*
Y2562992D03*
D02*
D14*
X185039Y896654D02*
Y925197D01*
X224409Y964567D01*
X242598Y717520D02*
Y680787D01*
X242520Y680709D01*
X242598Y794291D02*
X312008D01*
X330709Y775591D01*
X242598Y819882D02*
X312008D01*
X330709Y838583D01*
X242598Y845472D02*
X157480D01*
X242598Y871063D02*
X185039D01*
Y896654D01*
X242598D02*
X185039D01*
X332677Y586614D02*
X208661D01*
X188976Y606299D01*
Y728346D01*
X203740Y743110D01*
X242598D01*
X417323Y457126D02*
Y384843D01*
Y527126D02*
X480315D01*
X435433Y1331890D02*
Y1330709D01*
X433071D01*
X483071Y1380709D01*
X2573228D01*
X2622047Y1331890D01*
X435433Y1431890D02*
Y1433465D01*
X484252Y1482283D01*
X2573622D01*
X2622047Y1433858D01*
Y1431890D01*
X473937Y717520D02*
X745079D01*
X763780Y736220D01*
Y913819D01*
X473937Y743110D02*
X428150D01*
X417323Y732283D01*
Y527126D01*
X473937Y768701D02*
X390748D01*
X370079Y748031D01*
Y507874D01*
X385827Y492126D01*
X473937Y871063D02*
X520669D01*
X529528Y879921D01*
Y1029528D01*
X486220Y1072835D01*
Y1281102D01*
X435433Y1331890D01*
X473937Y896654D02*
X437008D01*
X421260Y912402D01*
Y1041339D01*
X374016Y1088583D01*
Y1370472D01*
X435433Y1431890D01*
X535433D02*
X2522047D01*
X535433Y1531890D02*
X2522047D01*
X537874Y333661D02*
X479331D01*
X460630Y314961D01*
Y137795D01*
X476378Y122047D01*
X1145669D01*
X1170866Y147244D01*
Y200787D01*
X537874Y359252D02*
X424213D01*
X417323Y366142D01*
Y384843D01*
X537874D02*
X417323D01*
X539370Y586614D02*
X584646D01*
X598425Y572835D01*
Y527126D01*
X661417Y457126D02*
Y374016D01*
X676181Y359252D01*
X769213D01*
X661417Y527126D02*
X598425D01*
X700787Y492126D02*
X713031Y504370D01*
X952756D01*
X769213Y308071D02*
X849409D01*
X877953Y279528D01*
X1243307D01*
X1270866Y251969D01*
Y200787D01*
X769213Y359252D02*
X829724D01*
X834646Y354331D01*
Y338583D01*
X829724Y333661D01*
X769213D01*
X844488Y915354D02*
X765315D01*
X763780Y913819D01*
X942913Y990157D02*
X844488D01*
X952756Y428701D02*
Y504370D01*
X1070866Y200787D02*
Y244094D01*
X1078740Y251969D01*
X1212598D01*
X1220472Y244094D01*
Y153543D01*
X1232283Y141732D01*
X1309055D01*
X1320866Y153543D01*
Y275591D01*
X1277559Y318898D01*
X964567D01*
X952756Y330709D01*
Y358701D01*
X1169291Y2523189D02*
Y2582677D01*
X1190945Y2604331D01*
X1352362D01*
X1490157D02*
X1580709D01*
X1598858Y2586181D01*
X1669291D01*
D02*
D15*
X535433Y1131890D03*
X1070866Y200787D03*
D02*
D16*
X435433Y1131890D03*
Y1231890D03*
Y1331890D03*
Y1431890D03*
Y1531890D03*
Y1631890D03*
X535433Y1231890D03*
Y1331890D03*
Y1431890D03*
Y1531890D03*
Y1631890D03*
X1170866Y200787D03*
X1270866D03*
X1370866D03*
X1470866D03*
X1570866D03*
X1670866D03*
X1770866D03*
D02*
D17*
X2522047Y1131890D03*
Y1231890D03*
Y1331890D03*
Y1431890D03*
Y1531890D03*
Y1631890D03*
X2622047Y1131890D03*
Y1231890D03*
Y1331890D03*
Y1431890D03*
Y1531890D03*
Y1631890D03*
D02*
D26*
X1669291Y2526181D02*
Y2576181D01*
D02*
D73*
X435433Y1131890D02*
Y1076378D01*
X468504Y1043307D01*
Y980315D01*
X480315Y457126D02*
X598425D01*
X610669Y775591D02*
Y838583D01*
Y980315D01*
X680669Y775591D02*
Y838583D01*
Y889331D01*
X681102Y889764D01*
X763780Y983819D02*
Y1031496D01*
X783898Y452756D02*
X724409D01*
X844488Y990157D02*
Y1068465D01*
X846890Y1070866D01*
X675197D01*
X610669Y1006339D01*
Y980315D01*
X853898Y452756D02*
X905512D01*
X916890Y1070866D02*
X976378D01*
X942913Y952756D02*
X996063D01*
X952756Y574370D02*
Y629921D01*
X1169291Y2453189D02*
Y2393701D01*
X1669291Y2516181D02*
Y2257874D01*
X1670866Y200787D02*
X1770866D01*
X1956260D01*
X1956693Y201220D01*
Y271220D02*
X1633425D01*
X1570866Y208661D01*
Y200787D01*
D02*
D75*
X417323Y457126D03*
Y527126D03*
X480315Y457126D03*
Y527126D03*
X598425Y457126D03*
Y527126D03*
X661417Y457126D03*
Y527126D03*
X763780Y913819D03*
Y983819D03*
X952756Y358701D03*
Y428701D03*
Y504370D03*
Y574370D03*
X1169291Y2453189D03*
Y2523189D03*
X1669291Y2516181D03*
Y2586181D03*
X1956693Y201220D03*
Y271220D03*
D02*
D81*
X610669Y775591D03*
Y838583D03*
X680669Y775591D03*
Y838583D03*
X783898Y452756D03*
X846890Y1070866D03*
X853898Y452756D03*
X916890Y1070866D03*
D02*
D99*
X473937Y794291D02*
X536417D01*
X555118Y775591D01*
X610669D01*
X473937Y819882D02*
X536417D01*
X555118Y838583D01*
X610669D01*
X537874Y308071D02*
X599409D01*
X618110Y326772D01*
X769213Y384843D02*
X841102D01*
X853898Y397638D01*
Y452756D01*
D02*
D100*
X311024Y1131890D02*
Y2202756D01*
X366142Y2257874D01*
X1669291D01*
X535433Y1631890D02*
X2522047D01*
X1669291Y2257874D02*
X2633858D01*
X2704724Y2187008D01*
Y1155512D01*
X2681102Y1131890D01*
X2622047D01*
D02*
D101*
X311024D03*
D02*
D102*
X1352362Y2604331D03*
X1490157D03*
D02*
D103*
X1421260Y2578740D03*
D02*
D104*
X242598Y717520D03*
Y743110D03*
Y768701D03*
Y794291D03*
Y819882D03*
Y845472D03*
Y871063D03*
Y896654D03*
X473937Y717520D03*
Y743110D03*
Y768701D03*
Y794291D03*
Y819882D03*
Y845472D03*
Y871063D03*
Y896654D03*
X537874Y308071D03*
Y333661D03*
Y359252D03*
Y384843D03*
X769213Y308071D03*
Y333661D03*
Y359252D03*
Y384843D03*
D02*
D105*
X844488Y915354D03*
Y990157D03*
X942913Y915354D03*
Y952756D03*
Y990157D03*
D02*
D115*
X1421260Y1915157D03*
X0Y0D02*
M02*
