G04 DesignSpark PCB PRO Gerber Version 10.0 Build 5299*
G04 #@! TF.Part,Single*
G04 #@! TF.FileFunction,Soldermask,Top*
G04 #@! TF.FilePolarity,Negative*
%FSLAX35Y35*%
%MOIN*%
G04 #@! TA.AperFunction,SMDPad,CuDef*
%ADD89R,0.05811X0.01776*%
%ADD86R,0.03941X0.04295*%
%ADD90R,0.04728X0.02366*%
%ADD91R,0.04295X0.03941*%
%ADD87R,0.05909X0.04335*%
%ADD88R,0.03547X0.03547*%
G04 #@! TA.AperFunction,ComponentPad*
%ADD84R,0.06500X0.06500*%
%ADD83C,0.06106*%
%ADD85C,0.06500*%
G04 #@! TA.AperFunction,WasherPad*
%ADD82C,0.12602*%
G04 #@! TA.AperFunction,ComponentPad*
%ADD92C,0.39374*%
G04 #@! TD.AperFunction*
X0Y0D02*
D02*
D82*
X27953Y24016D03*
Y252362D03*
X256299Y24016D03*
Y252362D03*
D02*
D83*
X252205Y113189D03*
Y123189D03*
Y133189D03*
Y143189D03*
Y153189D03*
Y163189D03*
X262205Y113189D03*
Y123189D03*
Y133189D03*
Y143189D03*
Y153189D03*
Y163189D03*
D02*
D84*
X53543Y113189D03*
X107087Y20079D03*
D02*
D85*
X43543Y113189D03*
Y123189D03*
Y133189D03*
Y143189D03*
Y153189D03*
Y163189D03*
X53543Y123189D03*
Y133189D03*
Y143189D03*
Y153189D03*
Y163189D03*
X117087Y20079D03*
X127087D03*
X137087D03*
X147087D03*
X157087D03*
X167087D03*
X177087D03*
D02*
D86*
X41732Y45713D03*
Y52713D03*
X48031Y45713D03*
Y52713D03*
X59843Y45713D03*
Y52713D03*
X66142Y45713D03*
Y52713D03*
X76378Y91382D03*
Y98382D03*
X95276Y35870D03*
Y42870D03*
Y50437D03*
Y57437D03*
X116929Y245319D03*
Y252319D03*
X166929Y251618D03*
Y258618D03*
X195669Y20122D03*
Y27122D03*
D02*
D87*
X135236Y260433D03*
X149016D03*
D02*
D88*
X142126Y257874D03*
D02*
D89*
X24260Y71752D03*
Y74311D03*
Y76870D03*
Y79429D03*
Y81988D03*
Y84547D03*
Y87106D03*
Y89665D03*
X47394Y71752D03*
Y74311D03*
Y76870D03*
Y79429D03*
Y81988D03*
Y84547D03*
Y87106D03*
Y89665D03*
X53787Y30807D03*
Y33366D03*
Y35925D03*
Y38484D03*
X76921Y30807D03*
Y33366D03*
Y35925D03*
Y38484D03*
D02*
D90*
X84449Y91535D03*
Y99016D03*
X94291Y91535D03*
Y95276D03*
Y99016D03*
D02*
D91*
X61067Y77559D03*
Y83858D03*
X68067Y77559D03*
Y83858D03*
X78390Y45276D03*
X84689Y107087D03*
X85390Y45276D03*
X91689Y107087D03*
D02*
D92*
X142126Y191516D03*
X0Y0D02*
M02*
