G04 DesignSpark PCB PRO Gerber Version 10.0 Build 5299*
G04 #@! TF.Part,Single*
G04 #@! TF.FileFunction,Soldermask,Bot*
G04 #@! TF.FilePolarity,Negative*
%FSLAX36Y36*%
%MOIN*%
G04 #@! TA.AperFunction,ComponentPad*
%ADD20R,0.07096X0.07096*%
G04 #@! TA.AperFunction,ViaPad*
%ADD70C,0.04143*%
%ADD114C,0.06600*%
G04 #@! TA.AperFunction,ComponentPad*
%ADD22C,0.06702*%
%ADD21C,0.07096*%
G04 #@! TA.AperFunction,WasherPad*
%ADD71C,0.13198*%
G04 #@! TA.AperFunction,ComponentPad*
%ADD117C,0.39970*%
G04 #@! TD.AperFunction*
X0Y0D02*
D02*
D70*
X157480Y845472D03*
X224409Y964567D03*
X242520Y680709D03*
X330709Y775591D03*
Y838583D03*
X332677Y586614D03*
X468504Y980315D03*
X538189Y456693D03*
X539370Y586614D03*
X610669Y980315D03*
X618110Y326772D03*
X633858Y669291D03*
Y1303150D03*
Y1850394D03*
Y2169291D03*
X681102Y889764D03*
X724409Y452756D03*
X763780Y1031496D03*
X905512Y452756D03*
X952756Y629921D03*
X976378Y1070866D03*
X996063Y952756D03*
X1027559Y669291D03*
Y988189D03*
Y1303150D03*
Y1850394D03*
Y2169291D03*
Y2562992D03*
X1169291Y2393701D03*
X1421260Y669291D03*
Y988189D03*
Y1303150D03*
X1814961Y669291D03*
Y988189D03*
Y1303150D03*
Y1850394D03*
Y2169291D03*
Y2562992D03*
X2208661Y669291D03*
Y988189D03*
Y1303150D03*
Y1850394D03*
Y2169291D03*
Y2562992D03*
D02*
D71*
X279528Y240157D03*
Y2523622D03*
X2562992Y240157D03*
Y2523622D03*
D02*
D20*
X535433Y1131890D03*
X1070866Y200787D03*
D02*
D21*
X435433Y1131890D03*
Y1231890D03*
Y1331890D03*
Y1431890D03*
Y1531890D03*
Y1631890D03*
X535433Y1231890D03*
Y1331890D03*
Y1431890D03*
Y1531890D03*
Y1631890D03*
X1170866Y200787D03*
X1270866D03*
X1370866D03*
X1470866D03*
X1570866D03*
X1670866D03*
X1770866D03*
D02*
D22*
X2522047Y1131890D03*
Y1231890D03*
Y1331890D03*
Y1431890D03*
Y1531890D03*
Y1631890D03*
X2622047Y1131890D03*
Y1231890D03*
Y1331890D03*
Y1431890D03*
Y1531890D03*
Y1631890D03*
D02*
D114*
X311024Y1131890D03*
D02*
D117*
X1421260Y1915157D03*
X0Y0D02*
M02*
