G04 DesignSpark PCB PRO Gerber Version 10.0 Build 5299*
G04 #@! TF.Part,Single*
G04 #@! TF.FileFunction,Copper,L2,Bot*
G04 #@! TF.FilePolarity,Positive*
%FSLAX35Y35*%
%MOIN*%
%ADD10C,0.00787*%
%ADD17C,0.00984*%
%ADD11C,0.01000*%
%ADD14C,0.01969*%
G04 #@! TA.AperFunction,ViaPad*
%ADD12C,0.03543X0.01969*%
G04 #@! TD.AperFunction*
%ADD13C,0.03937*%
%ADD15C,0.05906*%
G04 #@! TA.AperFunction,ViaPad*
%ADD16C,0.06000X0.03500*%
G04 #@! TA.AperFunction,ComponentPad*
%ADD18C,0.06102X0.04094*%
%ADD19R,0.06496X0.06496X0.04331*%
%ADD70C,0.06496X0.04331*%
%ADD71C,0.39370X0.25000*%
G04 #@! TD.AperFunction*
X0Y0D02*
D02*
D10*
X6974Y268984D02*
Y7394D01*
X11331Y3037D01*
X272921D01*
X277278Y7394D01*
Y268984D01*
X272921Y273341D01*
X11331D01*
X6974Y268984D01*
X180236Y23193D02*
G75*
G02*
X177087Y15650I-3150J-3114D01*
G01*
G75*
G02*
X173937Y23193I0J4429D01*
G01*
Y44365D01*
X171057Y47244D01*
X92752D01*
G75*
G02*
X93504Y45276I-2201J-1969D01*
G01*
G75*
G02*
X87598I-2953J0D01*
G01*
G75*
G02*
X88350Y47244I2953J0D01*
G01*
X23622D01*
G75*
G02*
X21392Y48169I0J3150D01*
G01*
X13524Y56038D01*
G75*
G02*
X12598Y58268I2224J2230D01*
G01*
Y106299D01*
G75*
G02*
X13524Y108529I3150J0D01*
G01*
X18517Y113523D01*
G75*
G02*
X22638Y117323I4120J-334D01*
G01*
X30476D01*
G75*
G02*
X31729I627J-4134D01*
G01*
X41953D01*
G75*
G02*
X47972Y113189I1590J-4134D01*
G01*
G75*
G02*
X41953Y109055I-4429J0D01*
G01*
X31729D01*
G75*
G02*
X30476I-627J4134D01*
G01*
X22958D01*
X18898Y104994D01*
Y59572D01*
X24927Y53543D01*
X172358D01*
G75*
G02*
X174589Y52621I4J-3150D01*
G01*
X179314Y47896D01*
G75*
G02*
X180236Y45669I-2227J-2227D01*
G01*
G75*
G02*
Y45668I-1327J0D01*
G01*
G75*
G02*
Y45665I-1195J-2D01*
G01*
Y23193D01*
X59059Y100197D02*
G75*
G02*
X64020Y98031I2007J-2165D01*
G01*
G75*
G02*
X59059Y95866I-2953J0D01*
G01*
X48858D01*
G75*
G02*
X43898Y98031I-2007J2165D01*
G01*
G75*
G02*
X48858Y100197I2953J0D01*
G01*
X59059D01*
X51504Y60335D02*
G75*
G02*
X56890Y58661I2433J-1673D01*
G01*
G75*
G02*
X51504Y56988I-2953J0D01*
G01*
X35701D01*
G75*
G02*
X30315Y58661I-2433J1673D01*
G01*
G75*
G02*
X35701Y60335I2953J0D01*
G01*
X51504D01*
X102657Y24508D02*
X111516D01*
Y15650D01*
X102657D01*
Y24508D01*
X112657Y20079D02*
G75*
G02*
X121516I4429J0D01*
G01*
G75*
G02*
X112657I-4429J0D01*
G01*
X122657D02*
G75*
G02*
X131516I4429J0D01*
G01*
G75*
G02*
X122657I-4429J0D01*
G01*
X132657D02*
G75*
G02*
X141516I4429J0D01*
G01*
G75*
G02*
X132657I-4429J0D01*
G01*
X142657D02*
G75*
G02*
X151516I4429J0D01*
G01*
G75*
G02*
X142657I-4429J0D01*
G01*
X152445D02*
G75*
G02*
X161728I4642J0D01*
G01*
G75*
G02*
X152445I-4642J0D01*
G01*
X162657D02*
G75*
G02*
X171516I4429J0D01*
G01*
G75*
G02*
X162657I-4429J0D01*
G01*
X20472Y24016D02*
G75*
G02*
X35433I7480J0D01*
G01*
G75*
G02*
X20472I-7480J0D01*
G01*
Y252362D02*
G75*
G02*
X35433I7480J0D01*
G01*
G75*
G02*
X20472I-7480J0D01*
G01*
X38902Y123189D02*
G75*
G02*
X48185I4642J0D01*
G01*
G75*
G02*
X38902I-4642J0D01*
G01*
X39114Y133189D02*
G75*
G02*
X47972I4429J0D01*
G01*
G75*
G02*
X39114I-4429J0D01*
G01*
Y143189D02*
G75*
G02*
X47972I4429J0D01*
G01*
G75*
G02*
X39114I-4429J0D01*
G01*
Y153189D02*
G75*
G02*
X47972I4429J0D01*
G01*
G75*
G02*
X39114I-4429J0D01*
G01*
Y163189D02*
G75*
G02*
X47972I4429J0D01*
G01*
G75*
G02*
X39114I-4429J0D01*
G01*
X49114Y117618D02*
X57972D01*
Y108760D01*
X49114D01*
Y117618D01*
Y123189D02*
G75*
G02*
X57972I4429J0D01*
G01*
G75*
G02*
X49114I-4429J0D01*
G01*
Y133189D02*
G75*
G02*
X57972I4429J0D01*
G01*
G75*
G02*
X49114I-4429J0D01*
G01*
Y143189D02*
G75*
G02*
X57972I4429J0D01*
G01*
G75*
G02*
X49114I-4429J0D01*
G01*
Y153189D02*
G75*
G02*
X57972I4429J0D01*
G01*
G75*
G02*
X49114I-4429J0D01*
G01*
Y163189D02*
G75*
G02*
X57972I4429J0D01*
G01*
G75*
G02*
X49114I-4429J0D01*
G01*
X247972Y113189D02*
G75*
G02*
X256437I4232J0D01*
G01*
G75*
G02*
X247972I-4232J0D01*
G01*
X248819Y24016D02*
G75*
G02*
X263780I7480J0D01*
G01*
G75*
G02*
X248819I-7480J0D01*
G01*
X247972Y123189D02*
G75*
G02*
X256437I4232J0D01*
G01*
G75*
G02*
X247972I-4232J0D01*
G01*
Y133189D02*
G75*
G02*
X256437I4232J0D01*
G01*
G75*
G02*
X247972I-4232J0D01*
G01*
Y143189D02*
G75*
G02*
X256437I4232J0D01*
G01*
G75*
G02*
X247972I-4232J0D01*
G01*
Y153189D02*
G75*
G02*
X256437I4232J0D01*
G01*
G75*
G02*
X247972I-4232J0D01*
G01*
Y163189D02*
G75*
G02*
X256437I4232J0D01*
G01*
G75*
G02*
X247972I-4232J0D01*
G01*
X248819Y252362D02*
G75*
G02*
X263780I7480J0D01*
G01*
G75*
G02*
X248819I-7480J0D01*
G01*
X257760Y123189D02*
G75*
G02*
X266650I4445J0D01*
G01*
G75*
G02*
X257760I-4445J0D01*
G01*
X257972Y113189D02*
G75*
G02*
X266437I4232J0D01*
G01*
G75*
G02*
X257972I-4232J0D01*
G01*
Y133189D02*
G75*
G02*
X266437I4232J0D01*
G01*
G75*
G02*
X257972I-4232J0D01*
G01*
Y143189D02*
G75*
G02*
X266437I4232J0D01*
G01*
G75*
G02*
X257972I-4232J0D01*
G01*
Y153189D02*
G75*
G02*
X266437I4232J0D01*
G01*
G75*
G02*
X257972I-4232J0D01*
G01*
Y163189D02*
G75*
G02*
X266437I4232J0D01*
G01*
G75*
G02*
X257972I-4232J0D01*
G01*
X7368Y20079D02*
G36*
X7368Y20079D02*
Y7000D01*
X10937Y3431D01*
X273315D01*
X276884Y7000D01*
Y20079D01*
X262659D01*
G75*
G02*
X249939I-6360J3937D01*
G01*
X181516D01*
G75*
G02*
X177087Y15650I-4429J0D01*
G01*
G75*
G02*
X172657Y20079I0J4429D01*
G01*
X171516D01*
G75*
G02*
X162657I-4429J0D01*
G01*
X161728D01*
G75*
G02*
X152445I-4642J0D01*
G01*
X151516D01*
G75*
G02*
X142657I-4429J0D01*
G01*
X141516D01*
G75*
G02*
X132657I-4429J0D01*
G01*
X131516D01*
G75*
G02*
X122657I-4429J0D01*
G01*
X121516D01*
G75*
G02*
X112657I-4429J0D01*
G01*
X111516D01*
Y15650D01*
X102657D01*
Y20079D01*
X34313D01*
G75*
G02*
X21593I-6360J3937D01*
G01*
X7368D01*
G37*
Y58661D02*
G36*
X7368Y58661D02*
Y20079D01*
X21593D01*
G75*
G02*
X20472Y24016I6361J3937D01*
G01*
G75*
G02*
X35433I7480J0D01*
G01*
G75*
G02*
X34313Y20079I-7481J0D01*
G01*
X102657D01*
Y24508D01*
X111516D01*
Y20079D01*
X112657D01*
G75*
G02*
X121516I4429J0D01*
G01*
X122657D01*
G75*
G02*
X131516I4429J0D01*
G01*
X132657D01*
G75*
G02*
X141516I4429J0D01*
G01*
X142657D01*
G75*
G02*
X151516I4429J0D01*
G01*
X152445D01*
G75*
G02*
X161728I4642J0D01*
G01*
X162657D01*
G75*
G02*
X171516I4429J0D01*
G01*
X172657D01*
Y20079D01*
G75*
G02*
X173937Y23193I4430J0D01*
G01*
Y44365D01*
X171057Y47244D01*
X92752D01*
G75*
G02*
X93504Y45276I-2202J-1969D01*
G01*
G75*
G02*
X87598I-2953J0D01*
G01*
G75*
G02*
X88350Y47244I2954J-1D01*
G01*
X23622D01*
G75*
G02*
X21392Y48169I0J3151D01*
G01*
X13524Y56038D01*
G75*
G02*
X12598Y58268I2226J2230D01*
G01*
Y58661D01*
X7368D01*
G37*
X19809D02*
G36*
X19809Y58661D02*
X24927Y53543D01*
X172358D01*
G75*
G02*
X174589Y52621I4J-3152D01*
G01*
X179314Y47896D01*
G75*
G02*
X180236Y45670I-2227J-2227D01*
G01*
Y45669D01*
Y45668D01*
Y45665D01*
Y23193D01*
G75*
G02*
X181516Y20079I-3150J-3114D01*
G01*
X249939D01*
G75*
G02*
X248819Y24016I6361J3937D01*
G01*
G75*
G02*
X263780I7480J0D01*
G01*
G75*
G02*
X262659Y20079I-7481J0D01*
G01*
X276884D01*
Y58661D01*
X56890D01*
G75*
G02*
X51504Y56988I-2953J0D01*
G01*
X35701D01*
G75*
G02*
X30315Y58661I-2433J1674D01*
G01*
X19809D01*
G37*
X7368Y66634D02*
G36*
X7368Y66634D02*
Y58661D01*
X12598D01*
Y66634D01*
X7368D01*
G37*
X18898D02*
G36*
X18898Y66634D02*
Y59572D01*
X19809Y58661D01*
X30315D01*
G75*
G02*
X35701Y60335I2953J0D01*
G01*
X51504D01*
G75*
G02*
X56890Y58661I2433J-1674D01*
G01*
X276884D01*
Y66634D01*
X18898D01*
G37*
X7368Y98031D02*
G36*
X7368Y98031D02*
Y66634D01*
X12598D01*
Y98031D01*
X7368D01*
G37*
X18898D02*
G36*
X18898Y98031D02*
Y66634D01*
X276884D01*
Y98031D01*
X64020D01*
Y98031D01*
G75*
G02*
X59059Y95866I-2953J0D01*
G01*
X48858D01*
G75*
G02*
X43898Y98031I-2007J2165D01*
G01*
Y98031D01*
X18898D01*
G37*
X7368Y113189D02*
G36*
X7368Y113189D02*
Y98031D01*
X12598D01*
Y106299D01*
G75*
G02*
X13524Y108529I3151J0D01*
G01*
X18183Y113189D01*
X7368D01*
G37*
X18898Y104994D02*
G36*
X18898Y104994D02*
Y98031D01*
X43898D01*
Y98032D01*
G75*
G02*
X48858Y100197I2953J0D01*
G01*
X59059D01*
G75*
G02*
X64020Y98032I2007J-2165D01*
G01*
Y98031D01*
X276884D01*
Y113189D01*
X266437D01*
G75*
G02*
X257972I-4232J0D01*
G01*
X256437D01*
G75*
G02*
X247972I-4232J0D01*
G01*
X57972D01*
Y108760D01*
X49114D01*
Y113189D01*
X47972D01*
Y113189D01*
G75*
G02*
X41953Y109055I-4429J0D01*
G01*
X31729D01*
G75*
G02*
X30476I-627J4134D01*
G01*
X22958D01*
X18898Y104994D01*
G37*
X7368Y123189D02*
G36*
X7368Y123189D02*
Y113189D01*
X18183D01*
X18517Y113523D01*
G75*
G02*
X22638Y117323I4120J-333D01*
G01*
X30476D01*
G75*
G02*
X31729I627J-4134D01*
G01*
X41953D01*
G75*
G02*
X47972Y113189I1591J-4133D01*
G01*
Y113189D01*
X49114D01*
Y117618D01*
X57972D01*
Y113189D01*
X247972D01*
G75*
G02*
X256437I4232J0D01*
G01*
X257972D01*
G75*
G02*
X266437I4232J0D01*
G01*
X276884D01*
Y123189D01*
X266650D01*
G75*
G02*
X257760I-4445J0D01*
G01*
X256437D01*
G75*
G02*
X247972I-4232J0D01*
G01*
X57972D01*
G75*
G02*
X49114I-4429J0D01*
G01*
X48185D01*
G75*
G02*
X38902I-4642J0D01*
G01*
X7368D01*
G37*
Y133189D02*
G36*
X7368Y133189D02*
Y123189D01*
X38902D01*
G75*
G02*
X48185I4642J0D01*
G01*
X49114D01*
G75*
G02*
X57972I4429J0D01*
G01*
X247972D01*
G75*
G02*
X256437I4232J0D01*
G01*
X257760D01*
G75*
G02*
X266650I4445J0D01*
G01*
X276884D01*
Y133189D01*
X266437D01*
G75*
G02*
X257972I-4232J0D01*
G01*
X256437D01*
G75*
G02*
X247972I-4232J0D01*
G01*
X57972D01*
G75*
G02*
X49114I-4429J0D01*
G01*
X47972D01*
G75*
G02*
X39114I-4429J0D01*
G01*
X7368D01*
G37*
Y143189D02*
G36*
X7368Y143189D02*
Y133189D01*
X39114D01*
G75*
G02*
X47972I4429J0D01*
G01*
X49114D01*
G75*
G02*
X57972I4429J0D01*
G01*
X247972D01*
G75*
G02*
X256437I4232J0D01*
G01*
X257972D01*
G75*
G02*
X266437I4232J0D01*
G01*
X276884D01*
Y143189D01*
X266437D01*
G75*
G02*
X257972I-4232J0D01*
G01*
X256437D01*
G75*
G02*
X247972I-4232J0D01*
G01*
X57972D01*
G75*
G02*
X49114I-4429J0D01*
G01*
X47972D01*
G75*
G02*
X39114I-4429J0D01*
G01*
X7368D01*
G37*
Y153189D02*
G36*
X7368Y153189D02*
Y143189D01*
X39114D01*
G75*
G02*
X47972I4429J0D01*
G01*
X49114D01*
G75*
G02*
X57972I4429J0D01*
G01*
X247972D01*
G75*
G02*
X256437I4232J0D01*
G01*
X257972D01*
G75*
G02*
X266437I4232J0D01*
G01*
X276884D01*
Y153189D01*
X266437D01*
G75*
G02*
X257972I-4232J0D01*
G01*
X256437D01*
G75*
G02*
X247972I-4232J0D01*
G01*
X57972D01*
G75*
G02*
X49114I-4429J0D01*
G01*
X47972D01*
G75*
G02*
X39114I-4429J0D01*
G01*
X7368D01*
G37*
Y163189D02*
G36*
X7368Y163189D02*
Y153189D01*
X39114D01*
G75*
G02*
X47972I4429J0D01*
G01*
X49114D01*
G75*
G02*
X57972I4429J0D01*
G01*
X247972D01*
G75*
G02*
X256437I4232J0D01*
G01*
X257972D01*
G75*
G02*
X266437I4232J0D01*
G01*
X276884D01*
Y163189D01*
X266437D01*
G75*
G02*
X257972I-4232J0D01*
G01*
X256437D01*
G75*
G02*
X247972I-4232J0D01*
G01*
X57972D01*
G75*
G02*
X49114I-4429J0D01*
G01*
X47972D01*
G75*
G02*
X39114I-4429J0D01*
G01*
X7368D01*
G37*
Y252362D02*
G36*
X7368Y252362D02*
Y163189D01*
X39114D01*
G75*
G02*
X47972I4429J0D01*
G01*
X49114D01*
G75*
G02*
X57972I4429J0D01*
G01*
X247972D01*
G75*
G02*
X256437I4232J0D01*
G01*
X257972D01*
G75*
G02*
X266437I4232J0D01*
G01*
X276884D01*
Y252362D01*
X263780D01*
G75*
G02*
X248819I-7480J0D01*
G01*
X35433D01*
G75*
G02*
X20472I-7480J0D01*
G01*
X7368D01*
G37*
Y269378D02*
G36*
X7368Y269378D02*
Y252362D01*
X20472D01*
G75*
G02*
X35433I7480J0D01*
G01*
X248819D01*
G75*
G02*
X263780I7480J0D01*
G01*
X276884D01*
Y269378D01*
X273315Y272947D01*
X10937D01*
X7368Y269378D01*
G37*
D02*
D11*
X40795Y123189D02*
X38795D01*
X43543Y120441D02*
Y118441D01*
Y125937D02*
Y127937D01*
X46291Y123189D02*
X48291D01*
X154339Y20079D02*
X152339D01*
X157087Y17331D02*
Y15331D01*
Y22827D02*
Y24827D01*
X159835Y20079D02*
X161835D01*
X259654Y123189D02*
X257654D01*
X262205Y120638D02*
Y118638D01*
Y125740D02*
Y127740D01*
X264756Y123189D02*
X266756D01*
D02*
D12*
X15748Y84547D03*
X22441Y96457D03*
X24252Y68071D03*
X33071Y77559D03*
Y83858D03*
X33268Y58661D03*
X46850Y98031D03*
X53819Y45669D03*
X53937Y58661D03*
X61067Y98031D03*
X61811Y32677D03*
X63386Y66929D03*
Y130315D03*
Y185039D03*
Y216929D03*
X68110Y88976D03*
X72441Y45276D03*
X76378Y103150D03*
X90551Y45276D03*
X95276Y62992D03*
X97638Y107087D03*
X99606Y95276D03*
X102756Y66929D03*
Y98819D03*
Y130315D03*
Y185039D03*
Y216929D03*
Y256299D03*
X116929Y239370D03*
X142126Y66929D03*
Y98819D03*
Y130315D03*
X181496Y66929D03*
Y98819D03*
Y130315D03*
Y185039D03*
Y216929D03*
Y256299D03*
X220866Y66929D03*
Y98819D03*
Y130315D03*
Y185039D03*
Y216929D03*
Y256299D03*
D02*
D13*
X15748Y84547D02*
Y58268D01*
X23622Y50394D01*
X90551D01*
X15748Y94488D02*
Y84547D01*
X22638Y113189D02*
X15748Y106299D01*
Y94488D01*
X90551Y50394D02*
X172362D01*
X177087Y45669D01*
Y20079D01*
D02*
D14*
X46850Y98031D02*
X61067D01*
X90551Y45276D02*
Y50394D01*
D02*
D15*
X43543Y113189D02*
X22638D01*
D02*
D16*
X31102D03*
D02*
D17*
X52461Y58661D02*
X34744D01*
D02*
D18*
X252205Y113189D03*
Y123189D03*
Y133189D03*
Y143189D03*
Y153189D03*
Y163189D03*
X262205Y113189D03*
Y123189D03*
Y133189D03*
Y143189D03*
Y153189D03*
Y163189D03*
D02*
D19*
X53543Y113189D03*
X107087Y20079D03*
D02*
D70*
X43543Y113189D03*
Y123189D03*
Y133189D03*
Y143189D03*
Y153189D03*
Y163189D03*
X53543Y123189D03*
Y133189D03*
Y143189D03*
Y153189D03*
Y163189D03*
X117087Y20079D03*
X127087D03*
X137087D03*
X147087D03*
X157087D03*
X167087D03*
X177087D03*
D02*
D71*
X142126Y191516D03*
X0Y0D02*
M02*
