G04 DesignSpark PCB PRO Gerber Version 10.0 Build 5299*
G04 #@! TF.Part,Single*
G04 #@! TF.FileFunction,Paste,Top*
G04 #@! TF.FilePolarity,Positive*
%FSLAX35Y35*%
%MOIN*%
G04 #@! TA.AperFunction,SMDPad,CuDef*
%ADD96R,0.05630X0.01594*%
%ADD97R,0.04488X0.02126*%
%ADD93R,0.03543X0.03898*%
%ADD98R,0.03898X0.03543*%
%ADD94R,0.05472X0.03898*%
%ADD95R,0.03189X0.03189*%
G04 #@! TD.AperFunction*
X0Y0D02*
D02*
D93*
X41732Y45713D03*
Y52713D03*
X48031Y45713D03*
Y52713D03*
X59843Y45713D03*
Y52713D03*
X66142Y45713D03*
Y52713D03*
X76378Y91382D03*
Y98382D03*
X95276Y35870D03*
Y42870D03*
Y50437D03*
Y57437D03*
X116929Y245319D03*
Y252319D03*
X166929Y251618D03*
Y258618D03*
X195669Y20122D03*
Y27122D03*
D02*
D94*
X135236Y260433D03*
X149016D03*
D02*
D95*
X142126Y257874D03*
D02*
D96*
X24260Y71752D03*
Y74311D03*
Y76870D03*
Y79429D03*
Y81988D03*
Y84547D03*
Y87106D03*
Y89665D03*
X47394Y71752D03*
Y74311D03*
Y76870D03*
Y79429D03*
Y81988D03*
Y84547D03*
Y87106D03*
Y89665D03*
X53787Y30807D03*
Y33366D03*
Y35925D03*
Y38484D03*
X76921Y30807D03*
Y33366D03*
Y35925D03*
Y38484D03*
D02*
D97*
X84449Y91535D03*
Y99016D03*
X94291Y91535D03*
Y95276D03*
Y99016D03*
D02*
D98*
X61067Y77559D03*
Y83858D03*
X68067Y77559D03*
Y83858D03*
X78390Y45276D03*
X84689Y107087D03*
X85390Y45276D03*
X91689Y107087D03*
X0Y0D02*
M02*
