G04 DesignSpark PCB PRO Gerber Version 10.0 Build 5299*
G04 #@! TF.Part,Single*
G04 #@! TF.FileFunction,Paste,Top*
G04 #@! TF.FilePolarity,Positive*
%FSLAX36Y36*%
%MOIN*%
G04 #@! TA.AperFunction,SMDPad,CuDef*
%ADD154R,0.01417X0.03386*%
%ADD151R,0.03386X0.01417*%
%ADD155R,0.04154X0.01594*%
%ADD150R,0.05433X0.01594*%
%ADD152R,0.02126X0.05866*%
%ADD97R,0.03543X0.03898*%
%ADD153R,0.04252X0.06614*%
%ADD98R,0.03898X0.03543*%
G04 #@! TD.AperFunction*
X0Y0D02*
D02*
D97*
X192913Y646102D03*
Y716102D03*
Y776024D03*
Y846024D03*
X685039Y1587047D03*
Y1657047D03*
X751969Y846890D03*
Y916890D03*
X807087Y1587047D03*
Y1657047D03*
X818898Y846890D03*
Y916890D03*
X830709Y1779961D03*
Y1849961D03*
X940945Y1779961D03*
Y1849961D03*
D02*
D98*
X409882Y917323D03*
X479882D03*
X539803D03*
X609803D03*
D02*
D150*
X684567Y1426181D03*
Y1451772D03*
Y1477362D03*
Y1502953D03*
X858740Y1426181D03*
Y1451772D03*
Y1477362D03*
Y1502953D03*
D02*
D151*
X610236Y755906D03*
Y795276D03*
X673228Y775591D03*
D02*
D152*
X681102Y2509409D03*
X720472D03*
X759843D03*
X799213D03*
D02*
D153*
X629921Y2661969D03*
X850394D03*
D02*
D154*
X870079Y1594488D03*
X889764Y1657480D03*
X909449Y1594488D03*
D02*
D155*
X312992Y760827D03*
Y786417D03*
Y812008D03*
Y837598D03*
X466535Y760827D03*
Y786417D03*
Y812008D03*
Y837598D03*
X0Y0D02*
M02*
