G04 DesignSpark PCB PRO Gerber Version 10.0 Build 5299*
G04 #@! TF.Part,Single*
G04 #@! TF.FileFunction,Copper,L2,Bot*
G04 #@! TF.FilePolarity,Positive*
%FSLAX35Y35*%
%MOIN*%
G04 #@! TA.AperFunction,ComponentPad*
%ADD114R,0.06000X0.06000*%
%ADD21R,0.06496X0.06496*%
G04 #@! TD.AperFunction*
%ADD18C,0.00787*%
%ADD75C,0.00984*%
%ADD19C,0.01000*%
G04 #@! TA.AperFunction,ViaPad*
%ADD70C,0.03543*%
G04 #@! TD.AperFunction*
%ADD76C,0.03937*%
G04 #@! TA.AperFunction,ComponentPad*
%ADD110C,0.05512*%
%ADD20C,0.06102*%
%ADD22C,0.06496*%
G04 #@! TD.AperFunction*
X0Y0D02*
D02*
D18*
X6974Y268984D02*
Y7394D01*
X11331Y3037D01*
X135126D01*
X139482Y7394D01*
Y268984D01*
X135126Y273341D01*
X11331D01*
X6974Y268984D01*
X20472Y24016D02*
G75*
G02*
X35433I7480J0D01*
G01*
G75*
G02*
X20472I-7480J0D01*
G01*
Y252362D02*
G75*
G02*
X35433I7480J0D01*
G01*
G75*
G02*
X20472I-7480J0D01*
G01*
X111417Y63630D02*
X112449D01*
Y55268D01*
X104087D01*
Y63630D01*
X105118D01*
Y92593D01*
X97908Y99803D01*
X47244D01*
G75*
G02*
X45014Y100728I0J3150D01*
G01*
X41319Y104424D01*
G75*
G02*
X40394Y106654I2224J2230D01*
G01*
Y110039D01*
X37603D01*
G75*
G02*
X35371Y110962I-4J3150D01*
G01*
X33009Y113324D01*
G75*
G02*
X32087Y115551I2227J2227D01*
G01*
G75*
G02*
Y115552I1327J1D01*
G01*
G75*
G02*
Y115556I1195J2D01*
G01*
Y115650D01*
X28252D01*
X26476Y113874D01*
Y85110D01*
G75*
G02*
Y80244I-1673J-2433D01*
G01*
Y67000D01*
G75*
G02*
X27756Y64567I-1673J-2433D01*
G01*
G75*
G02*
X21850I-2953J0D01*
G01*
G75*
G02*
X23130Y67000I2953J0D01*
G01*
Y80244D01*
G75*
G02*
Y85110I1673J2433D01*
G01*
Y114563D01*
G75*
G02*
Y114566I793J2D01*
G01*
G75*
G02*
Y114567I683J0D01*
G01*
G75*
G02*
X23620Y115750I1673J0D01*
G01*
X26376Y118506D01*
G75*
G02*
X27563Y118996I1183J-1183D01*
G01*
X32087D01*
Y167712D01*
G75*
G02*
Y167715I1211J2D01*
G01*
G75*
G02*
Y167717I1410J1D01*
G01*
G75*
G02*
X33009Y169944I3150J0D01*
G01*
X36552Y173487D01*
G75*
G02*
X38784Y174409I2227J-2227D01*
G01*
X71452D01*
G75*
G02*
X73181Y173895I4J-3149D01*
G01*
X85799Y186513D01*
G75*
G02*
X86356Y187267I2783J-1474D01*
G01*
X89764Y190675D01*
Y204533D01*
G75*
G02*
X82174Y205772I-3543J2160D01*
G01*
G75*
G02*
X74409Y206693I-3828J921D01*
G01*
G75*
G02*
X82174Y207614I3937J0D01*
G01*
G75*
G02*
X89764Y208853I4046J-921D01*
G01*
Y223498D01*
X74544Y238718D01*
G75*
G02*
X78999Y243172I2227J2227D01*
G01*
X95138Y227033D01*
G75*
G02*
X96063Y224803I-2224J-2230D01*
G01*
Y189370D01*
G75*
G02*
X95138Y187140I-3150J0D01*
G01*
X91366Y183369D01*
G75*
G02*
X90810Y182615I-2783J1474D01*
G01*
X77514Y169320D01*
G75*
G02*
X77756Y168110I-2908J-1210D01*
G01*
Y158661D01*
G75*
G02*
X71457I-3150J0D01*
G01*
Y166806D01*
X71006Y167257D01*
G75*
G02*
X71001Y167261I2106J2321D01*
G01*
X70152Y168110D01*
X40084D01*
X38386Y166412D01*
Y116856D01*
X38903Y116339D01*
X40429D01*
G75*
G02*
X46693Y110075I3114J-3150D01*
G01*
Y107958D01*
X48549Y106102D01*
X98302D01*
X98425Y106226D01*
Y110598D01*
G75*
G02*
X97539Y113189I3346J2591D01*
G01*
G75*
G02*
X106004I4232J0D01*
G01*
G75*
G02*
X104724Y110157I-4232J0D01*
G01*
Y104921D01*
G75*
G02*
X103863Y102757I-3150J0D01*
G01*
X110492Y96128D01*
G75*
G02*
X111417Y93898I-2224J-2230D01*
G01*
Y63630D01*
X66535Y206693D02*
G75*
G02*
X74409I3937J0D01*
G01*
G75*
G02*
X66535I-3937J0D01*
G01*
X58661D02*
G75*
G02*
X66535I3937J0D01*
G01*
G75*
G02*
X58661I-3937J0D01*
G01*
X49114Y117618D02*
X57972D01*
Y108760D01*
X49114D01*
Y117618D01*
Y123189D02*
G75*
G02*
X57972I4429J0D01*
G01*
G75*
G02*
X49114I-4429J0D01*
G01*
Y133189D02*
G75*
G02*
X57972I4429J0D01*
G01*
G75*
G02*
X49114I-4429J0D01*
G01*
Y143189D02*
G75*
G02*
X57972I4429J0D01*
G01*
G75*
G02*
X49114I-4429J0D01*
G01*
Y153189D02*
G75*
G02*
X57972I4429J0D01*
G01*
G75*
G02*
X49114I-4429J0D01*
G01*
Y163189D02*
G75*
G02*
X57972I4429J0D01*
G01*
G75*
G02*
X49114I-4429J0D01*
G01*
X38902Y123189D02*
G75*
G02*
X48185I4642J0D01*
G01*
G75*
G02*
X38902I-4642J0D01*
G01*
X39114Y133189D02*
G75*
G02*
X47972I4429J0D01*
G01*
G75*
G02*
X39114I-4429J0D01*
G01*
Y143189D02*
G75*
G02*
X47972I4429J0D01*
G01*
G75*
G02*
X39114I-4429J0D01*
G01*
Y153189D02*
G75*
G02*
X47972I4429J0D01*
G01*
G75*
G02*
X39114I-4429J0D01*
G01*
Y163189D02*
G75*
G02*
X47972I4429J0D01*
G01*
G75*
G02*
X39114I-4429J0D01*
G01*
X111024Y24016D02*
G75*
G02*
X125984I7480J0D01*
G01*
G75*
G02*
X111024I-7480J0D01*
G01*
X57480Y59449D02*
G75*
G02*
X65354I3937J0D01*
G01*
G75*
G02*
X57480I-3937J0D01*
G01*
X65354D02*
G75*
G02*
X73228I3937J0D01*
G01*
G75*
G02*
X65354I-3937J0D01*
G01*
X80993Y60370D02*
G75*
G02*
X89189Y59449I4046J-921D01*
G01*
G75*
G02*
X80993Y58528I-4150J0D01*
G01*
G75*
G02*
X73228Y59449I-3828J921D01*
G01*
G75*
G02*
X80993Y60370I3937J0D01*
G01*
X97327Y123189D02*
G75*
G02*
X106217I4445J0D01*
G01*
G75*
G02*
X97327I-4445J0D01*
G01*
X97539Y133189D02*
G75*
G02*
X106004I4232J0D01*
G01*
G75*
G02*
X97539I-4232J0D01*
G01*
Y143189D02*
G75*
G02*
X106004I4232J0D01*
G01*
G75*
G02*
X97539I-4232J0D01*
G01*
Y153189D02*
G75*
G02*
X106004I4232J0D01*
G01*
G75*
G02*
X97539I-4232J0D01*
G01*
Y163189D02*
G75*
G02*
X106004I4232J0D01*
G01*
G75*
G02*
X97539I-4232J0D01*
G01*
X111024Y252362D02*
G75*
G02*
X125984I7480J0D01*
G01*
G75*
G02*
X111024I-7480J0D01*
G01*
X114087Y63630D02*
X122449D01*
Y55268D01*
X114087D01*
Y63630D01*
X124087D02*
X132449D01*
Y55268D01*
X124087D01*
Y63630D01*
X7368Y24016D02*
G36*
X7368Y24016D02*
Y7000D01*
X10937Y3431D01*
X135519D01*
X139089Y7000D01*
Y24016D01*
X125984D01*
G75*
G02*
X111024I-7480J0D01*
G01*
X35433D01*
G75*
G02*
X20472I-7480J0D01*
G01*
X7368D01*
G37*
Y59449D02*
G36*
X7368Y59449D02*
Y24016D01*
X20472D01*
G75*
G02*
X35433I7480J0D01*
G01*
X111024D01*
G75*
G02*
X125984I7480J0D01*
G01*
X139089D01*
Y59449D01*
X132449D01*
Y55268D01*
X124087D01*
Y59449D01*
X122449D01*
Y55268D01*
X114087D01*
Y59449D01*
X112449D01*
Y55268D01*
X104087D01*
Y59449D01*
X89189D01*
G75*
G02*
X80993Y58528I-4150J0D01*
G01*
G75*
G02*
X73228Y59449I-3828J921D01*
G01*
G75*
G02*
X65354I-3937J0D01*
G01*
G75*
G02*
X57480I-3937J0D01*
G01*
X7368D01*
G37*
Y113189D02*
G36*
X7368Y113189D02*
Y59449D01*
X57480D01*
G75*
G02*
X65354I3937J0D01*
G01*
G75*
G02*
X73228Y59449I3937J0D01*
G01*
G75*
G02*
X80993Y60370I3937J0D01*
G01*
G75*
G02*
X89189Y59449I4046J-921D01*
G01*
X104087D01*
Y63630D01*
X105118D01*
Y92593D01*
X97908Y99803D01*
X47244D01*
G75*
G02*
X45014Y100728I0J3151D01*
G01*
X41319Y104424D01*
G75*
G02*
X40394Y106654I2226J2230D01*
G01*
Y110039D01*
X37603D01*
G75*
G02*
X35371Y110962I-4J3152D01*
G01*
X33144Y113189D01*
X26476D01*
Y85110D01*
G75*
G02*
X27756Y82677I-1674J-2433D01*
G01*
G75*
G02*
X26476Y80244I-2953J0D01*
G01*
Y67000D01*
G75*
G02*
X27756Y64567I-1674J-2433D01*
G01*
G75*
G02*
X21850I-2953J0D01*
G01*
G75*
G02*
X23130Y67000I2953J0D01*
G01*
Y80244D01*
G75*
G02*
X21850Y82677I1674J2433D01*
G01*
G75*
G02*
X23130Y85110I2953J0D01*
G01*
Y113189D01*
X7368D01*
G37*
X46693Y110075D02*
G36*
X46693Y110075D02*
Y107958D01*
X48549Y106102D01*
X98302D01*
X98425Y106226D01*
Y110598D01*
G75*
G02*
X97539Y113189I3345J2591D01*
G01*
Y113189D01*
X57972D01*
Y108760D01*
X49114D01*
Y113189D01*
X47972D01*
G75*
G02*
X46693Y110075I-4430J0D01*
G01*
G37*
X104724Y110157D02*
G36*
X104724Y110157D02*
Y104921D01*
Y104921D01*
G75*
G02*
X103863Y102757I-3149J0D01*
G01*
X110492Y96128D01*
G75*
G02*
X111417Y93898I-2226J-2230D01*
G01*
Y63630D01*
X112449D01*
Y59449D01*
X114087D01*
Y63630D01*
X122449D01*
Y59449D01*
X124087D01*
Y63630D01*
X132449D01*
Y59449D01*
X139089D01*
Y113189D01*
X106004D01*
G75*
G02*
X104724Y110157I-4233J1D01*
G01*
G37*
X7368Y123189D02*
G36*
X7368Y123189D02*
Y113189D01*
X23130D01*
Y114563D01*
Y114566D01*
Y114567D01*
G75*
G02*
X23620Y115750I1676J-1D01*
G01*
X26376Y118506D01*
G75*
G02*
X27563Y118996I1183J-1184D01*
G01*
X32087D01*
Y123189D01*
X7368D01*
G37*
X26476Y113874D02*
G36*
X26476Y113874D02*
Y113189D01*
X33144D01*
X33009Y113324D01*
G75*
G02*
X32087Y115551I2227J2227D01*
G01*
Y115551D01*
Y115552D01*
Y115556D01*
Y115650D01*
X28252D01*
X26476Y113874D01*
G37*
X38386Y123189D02*
G36*
X38386Y123189D02*
Y116856D01*
X38903Y116339D01*
X40429D01*
G75*
G02*
X47972Y113189I3114J-3150D01*
G01*
X49114D01*
Y117618D01*
X57972D01*
Y113189D01*
X97539D01*
G75*
G02*
X106004I4232J0D01*
G01*
X139089D01*
Y123189D01*
X106217D01*
G75*
G02*
X97327I-4445J0D01*
G01*
X57972D01*
G75*
G02*
X49114I-4429J0D01*
G01*
X48185D01*
G75*
G02*
X38902I-4642J0D01*
G01*
X38386D01*
G37*
X7368Y133189D02*
G36*
X7368Y133189D02*
Y123189D01*
X32087D01*
Y133189D01*
X7368D01*
G37*
X38386D02*
G36*
X38386Y133189D02*
Y123189D01*
X38902D01*
G75*
G02*
X48185I4642J0D01*
G01*
X49114D01*
G75*
G02*
X57972I4429J0D01*
G01*
X97327D01*
G75*
G02*
X106217I4445J0D01*
G01*
X139089D01*
Y133189D01*
X106004D01*
G75*
G02*
X97539I-4232J0D01*
G01*
X57972D01*
G75*
G02*
X49114I-4429J0D01*
G01*
X47972D01*
G75*
G02*
X39114I-4429J0D01*
G01*
X38386D01*
G37*
X7368Y143189D02*
G36*
X7368Y143189D02*
Y133189D01*
X32087D01*
Y143189D01*
X7368D01*
G37*
X38386D02*
G36*
X38386Y143189D02*
Y133189D01*
X39114D01*
G75*
G02*
X47972I4429J0D01*
G01*
X49114D01*
G75*
G02*
X57972I4429J0D01*
G01*
X97539D01*
G75*
G02*
X106004I4232J0D01*
G01*
X139089D01*
Y143189D01*
X106004D01*
G75*
G02*
X97539I-4232J0D01*
G01*
X57972D01*
G75*
G02*
X49114I-4429J0D01*
G01*
X47972D01*
G75*
G02*
X39114I-4429J0D01*
G01*
X38386D01*
G37*
X7368Y149681D02*
G36*
X7368Y149681D02*
Y143189D01*
X32087D01*
Y149681D01*
X7368D01*
G37*
X38386D02*
G36*
X38386Y149681D02*
Y143189D01*
X39114D01*
G75*
G02*
X47972I4429J0D01*
G01*
X49114D01*
G75*
G02*
X57972I4429J0D01*
G01*
X97539D01*
G75*
G02*
X106004I4232J0D01*
G01*
X139089D01*
Y149681D01*
X104140D01*
G75*
G02*
X99404I-2368J3508D01*
G01*
X56247D01*
G75*
G02*
X50839I-2704J3508D01*
G01*
X46247D01*
G75*
G02*
X40839I-2704J3508D01*
G01*
X38386D01*
G37*
X7368Y163189D02*
G36*
X7368Y163189D02*
Y149681D01*
X32087D01*
Y163189D01*
X7368D01*
G37*
X38386D02*
G36*
X38386Y163189D02*
Y149681D01*
X40839D01*
G75*
G02*
X39114Y153189I2704J3508D01*
G01*
G75*
G02*
X47972I4429J0D01*
G01*
G75*
G02*
X46247Y149681I-4429J0D01*
G01*
X50839D01*
G75*
G02*
X49114Y153189I2704J3508D01*
G01*
G75*
G02*
X57972I4429J0D01*
G01*
G75*
G02*
X56247Y149681I-4429J0D01*
G01*
X99404D01*
G75*
G02*
X97539Y153189I2368J3508D01*
G01*
G75*
G02*
X106004I4232J0D01*
G01*
G75*
G02*
X104140Y149681I-4232J0D01*
G01*
X139089D01*
Y163189D01*
X106004D01*
G75*
G02*
X97539I-4232J0D01*
G01*
X77756D01*
Y158661D01*
G75*
G02*
X71457I-3150J0D01*
G01*
Y163189D01*
X57972D01*
G75*
G02*
X49114I-4429J0D01*
G01*
X47972D01*
G75*
G02*
X39114I-4429J0D01*
G01*
X38386D01*
G37*
X7368Y206693D02*
G36*
X7368Y206693D02*
Y163189D01*
X32087D01*
Y167712D01*
Y167715D01*
Y167717D01*
G75*
G02*
X33009Y169944I3151J0D01*
G01*
X36552Y173487D01*
G75*
G02*
X38784Y174409I2228J-2229D01*
G01*
X71452D01*
G75*
G02*
X73181Y173895I4J-3150D01*
G01*
X85799Y186513D01*
G75*
G02*
X86356Y187267I2788J-1478D01*
G01*
X89764Y190675D01*
Y204533D01*
G75*
G02*
X82174Y205772I-3543J2159D01*
G01*
G75*
G02*
X74409Y206693I-3828J921D01*
G01*
G75*
G02*
X66535I-3937J0D01*
G01*
G75*
G02*
X58661I-3937J0D01*
G01*
X7368D01*
G37*
X38386Y166412D02*
G36*
X38386Y166412D02*
Y163189D01*
X39114D01*
G75*
G02*
X47972I4429J0D01*
G01*
X49114D01*
G75*
G02*
X57972I4429J0D01*
G01*
X71457D01*
Y166806D01*
X71006Y167257D01*
G75*
G03*
X71001Y167261I-24J-22D01*
G01*
X70152Y168110D01*
X40084D01*
X38386Y166412D01*
G37*
X77756Y168110D02*
G36*
X77756Y168110D02*
Y163189D01*
X97539D01*
G75*
G02*
X106004I4232J0D01*
G01*
X139089D01*
Y206693D01*
X96063D01*
Y189370D01*
G75*
G02*
X95138Y187140I-3151J0D01*
G01*
X91366Y183369D01*
G75*
G02*
X90810Y182615I-2788J1478D01*
G01*
X77514Y169320D01*
G75*
G02*
X77756Y168110I-2906J-1210D01*
G01*
G37*
X7368Y252362D02*
G36*
X7368Y252362D02*
Y206693D01*
X58661D01*
G75*
G02*
X66535I3937J0D01*
G01*
G75*
G02*
X74409Y206693I3937J0D01*
G01*
G75*
G02*
X82174Y207614I3937J0D01*
G01*
G75*
G02*
X89764Y208853I4046J-920D01*
G01*
Y223498D01*
X74544Y238718D01*
G75*
G02*
X73622Y240945I2227J2227D01*
G01*
G75*
G02*
X78999Y243172I3150J0D01*
G01*
X95138Y227033D01*
G75*
G02*
X96063Y224803I-2226J-2230D01*
G01*
Y206693D01*
X139089D01*
Y252362D01*
X125984D01*
G75*
G02*
X111024I-7480J0D01*
G01*
X35433D01*
G75*
G02*
X20472I-7480J0D01*
G01*
X7368D01*
G37*
Y269378D02*
G36*
X7368Y269378D02*
Y252362D01*
X20472D01*
G75*
G02*
X35433I7480J0D01*
G01*
X111024D01*
G75*
G02*
X125984I7480J0D01*
G01*
X139089D01*
Y269378D01*
X135519Y272947D01*
X10937D01*
X7368Y269378D01*
G37*
D02*
D19*
X40795Y123189D02*
X38795D01*
X43543Y120441D02*
Y118441D01*
Y125937D02*
Y127937D01*
X46291Y123189D02*
X48291D01*
X83444Y57854D02*
X82030Y56439D01*
X83444Y61044D02*
X82030Y62458D01*
X84625Y205098D02*
X83211Y203683D01*
X84625Y208288D02*
X83211Y209702D01*
X86635Y57854D02*
X88049Y56439D01*
X86635Y61044D02*
X88049Y62458D01*
X87816Y205098D02*
X89230Y203683D01*
X87816Y208288D02*
X89230Y209702D01*
X99220Y123189D02*
X97220D01*
X101772Y120638D02*
Y118638D01*
Y125740D02*
Y127740D01*
X104323Y123189D02*
X106323D01*
D02*
D70*
X21654Y90551D03*
X24803Y64567D03*
Y82677D03*
X34252Y93701D03*
X37795Y59055D03*
X68504Y137008D03*
X72835Y79134D03*
X74606Y158661D03*
X76772Y240945D03*
X77165Y108661D03*
Y126378D03*
X81102Y170866D03*
X82283Y242913D03*
X88583Y185039D03*
X88976Y173425D03*
X96850Y59449D03*
X112598Y123228D03*
D02*
D20*
X101772Y113189D03*
Y123189D03*
Y133189D03*
Y143189D03*
Y153189D03*
Y163189D03*
D02*
D21*
X53543Y113189D03*
D02*
D22*
X43543D03*
Y123189D03*
Y133189D03*
Y143189D03*
Y153189D03*
Y163189D03*
X53543Y123189D03*
Y133189D03*
Y143189D03*
Y153189D03*
Y163189D03*
D02*
D75*
X24803Y82677D02*
Y64567D01*
Y82677D02*
Y114567D01*
X27559Y117323D01*
X34843D01*
X35236Y117717D01*
X88583Y185039D02*
Y184843D01*
D02*
D76*
X35236Y117717D02*
Y167717D01*
X38780Y171260D01*
X71457D01*
X73228Y169488D01*
X43543Y113189D02*
X37598D01*
X35236Y115551D01*
Y117717D01*
X43543Y113189D02*
Y106654D01*
X47244Y102953D01*
X99213D01*
X73228Y169488D02*
X74606Y168110D01*
Y158661D01*
X76772Y240945D02*
X92913Y224803D01*
Y189370D01*
X88583Y185039D01*
Y184843D02*
X73228Y169488D01*
X99213Y102953D02*
X99606D01*
X101575Y104921D01*
Y112992D01*
X101772Y113189D01*
X108268Y59449D02*
Y93898D01*
X99213Y102953D01*
D02*
D110*
X61417Y59449D03*
X62598Y206693D03*
X69291Y59449D03*
X70472Y206693D03*
X77165Y59449D03*
X78346Y206693D03*
X85039Y59449D03*
X86220Y206693D03*
D02*
D114*
X108268Y59449D03*
X118268D03*
X128268D03*
X0Y0D02*
M02*
