  0
SECTION
  2
HEADER
  9
$EXTMIN
 10
463.900
 20
464.900
  9
$EXTMAX
 10
540.710
 20
541.262
  9
$LIMMIN
 10
463.900
 20
464.900
  9
$LIMMAX
 10
540.710
 20
541.262
  0
ENDSEC
  0
SECTION
  2
TABLES
  0
TABLE
  2
LAYER
 70
    18
  0
LAYER
  2
0
 70
    64
 62
     7
  6
CONTINUOUS
  0
LAYER
  2
_BOARD
 70
    64
 62
    254
  6
CONTINUOUS
  0
LAYER
  2
_DRILL
 70
    64
 62
    251
  6
CONTINUOUS
  0
ENDTAB
  0
ENDSEC
  0
SECTION
  2
BLOCKS
  0
BLOCK
  8
0
  2
_HOLE
 70
    64
 10
0.000
 20
0.000
  0
CIRCLE
  8
0
 10
0.000
 20
0.000
 40
0.500
  0
ENDBLK
  8
0
  0
ENDSEC
  0
SECTION
  2
ENTITIES
  0
POLYLINE
  8
_BOARD
 66
     1
 62
     3
 10
0.000
 20
0.000
 70
     1
 40
0.000
 41
0.000
  0
VERTEX
  8
_BOARD
 10
491.500
 20
498.600
 40
0.000
 41
0.000
  0
VERTEX
  8
_BOARD
 10
508.500
 20
498.600
  0
VERTEX
  8
_BOARD
 10
508.500
 20
498.600
 40
0.000
 41
0.000
  0
VERTEX
  8
_BOARD
 10
508.500
 20
481.600
  0
VERTEX
  8
_BOARD
 10
508.500
 20
481.600
 40
0.000
 41
0.000
  0
VERTEX
  8
_BOARD
 10
491.500
 20
481.600
  0
VERTEX
  8
_BOARD
 10
491.500
 20
481.600
 40
0.000
 41
0.000
  0
VERTEX
  8
_BOARD
 10
491.500
 20
498.600
 40
0.000
 41
0.000
  0
VERTEX
  8
_BOARD
 10
491.500
 20
498.600
  0
SEQEND
  8
_BOARD
  0
POLYLINE
  8
_BOARD
 66
     1
 62
     3
 10
0.000
 20
0.000
 70
     1
 40
0.000
 41
0.000
  0
VERTEX
  8
_BOARD
 10
465.000
 20
466.500
 40
0.000
 41
0.000
  0
VERTEX
  8
_BOARD
 10
465.000
 20
533.500
  0
VERTEX
  8
_BOARD
 10
465.000
 20
533.500
 40
0.000
 41
0.000
  0
VERTEX
  8
_BOARD
 10
466.500
 20
535.000
  0
VERTEX
  8
_BOARD
 10
466.500
 20
535.000
 40
0.000
 41
0.000
  0
VERTEX
  8
_BOARD
 10
533.500
 20
535.000
  0
VERTEX
  8
_BOARD
 10
533.500
 20
535.000
 40
0.000
 41
0.000
  0
VERTEX
  8
_BOARD
 10
535.000
 20
533.500
  0
VERTEX
  8
_BOARD
 10
535.000
 20
533.500
 40
0.000
 41
0.000
  0
VERTEX
  8
_BOARD
 10
535.000
 20
466.500
  0
VERTEX
  8
_BOARD
 10
535.000
 20
466.500
 40
0.000
 41
0.000
  0
VERTEX
  8
_BOARD
 10
533.500
 20
465.000
  0
VERTEX
  8
_BOARD
 10
533.500
 20
465.000
 40
0.000
 41
0.000
  0
VERTEX
  8
_BOARD
 10
466.500
 20
465.000
  0
VERTEX
  8
_BOARD
 10
466.500
 20
465.000
 40
0.000
 41
0.000
  0
VERTEX
  8
_BOARD
 10
465.000
 20
466.500
 40
0.000
 41
0.000
  0
VERTEX
  8
_BOARD
 10
465.000
 20
466.500
  0
SEQEND
  8
_BOARD
  0
INSERT
  8
_DRILL
  2
_HOLE
 10
492.500
 20
521.000
 41
4.220
 42
4.220
  0
INSERT
  8
_DRILL
  2
_HOLE
 10
510.500
 20
502.000
 41
4.220
 42
4.220
  0
INSERT
  8
_DRILL
  2
_HOLE
 10
474.960
 20
506.350
 41
1.100
 42
1.100
  0
INSERT
  8
_DRILL
  2
_HOLE
 10
477.500
 20
506.350
 41
1.100
 42
1.100
  0
INSERT
  8
_DRILL
  2
_HOLE
 10
474.960
 20
503.810
 41
1.100
 42
1.100
  0
INSERT
  8
_DRILL
  2
_HOLE
 10
477.500
 20
503.810
 41
1.100
 42
1.100
  0
INSERT
  8
_DRILL
  2
_HOLE
 10
474.960
 20
501.270
 41
1.100
 42
1.100
  0
INSERT
  8
_DRILL
  2
_HOLE
 10
477.500
 20
501.270
 41
1.100
 42
1.100
  0
INSERT
  8
_DRILL
  2
_HOLE
 10
474.960
 20
498.730
 41
1.100
 42
1.100
  0
INSERT
  8
_DRILL
  2
_HOLE
 10
477.500
 20
498.730
 41
1.100
 42
1.100
  0
INSERT
  8
_DRILL
  2
_HOLE
 10
474.960
 20
496.190
 41
1.100
 42
1.100
  0
INSERT
  8
_DRILL
  2
_HOLE
 10
477.500
 20
496.190
 41
1.100
 42
1.100
  0
INSERT
  8
_DRILL
  2
_HOLE
 10
474.960
 20
493.650
 41
1.100
 42
1.100
  0
INSERT
  8
_DRILL
  2
_HOLE
 10
477.500
 20
493.650
 41
1.100
 42
1.100
  0
INSERT
  8
_DRILL
  2
_HOLE
 10
527.960
 20
493.650
 41
1.040
 42
1.040
  0
INSERT
  8
_DRILL
  2
_HOLE
 10
530.500
 20
493.650
 41
1.040
 42
1.040
  0
INSERT
  8
_DRILL
  2
_HOLE
 10
527.960
 20
496.190
 41
1.040
 42
1.040
  0
INSERT
  8
_DRILL
  2
_HOLE
 10
530.500
 20
496.190
 41
1.040
 42
1.040
  0
INSERT
  8
_DRILL
  2
_HOLE
 10
527.960
 20
498.730
 41
1.040
 42
1.040
  0
INSERT
  8
_DRILL
  2
_HOLE
 10
530.500
 20
498.730
 41
1.040
 42
1.040
  0
INSERT
  8
_DRILL
  2
_HOLE
 10
527.960
 20
501.270
 41
1.040
 42
1.040
  0
INSERT
  8
_DRILL
  2
_HOLE
 10
530.500
 20
501.270
 41
1.040
 42
1.040
  0
INSERT
  8
_DRILL
  2
_HOLE
 10
527.960
 20
503.810
 41
1.040
 42
1.040
  0
INSERT
  8
_DRILL
  2
_HOLE
 10
530.500
 20
503.810
 41
1.040
 42
1.040
  0
INSERT
  8
_DRILL
  2
_HOLE
 10
527.960
 20
506.350
 41
1.040
 42
1.040
  0
INSERT
  8
_DRILL
  2
_HOLE
 10
530.500
 20
506.350
 41
1.040
 42
1.040
  0
INSERT
  8
_DRILL
  2
_HOLE
 10
529.000
 20
529.000
 41
3.200
 42
3.200
  0
INSERT
  8
_DRILL
  2
_HOLE
 10
471.000
 20
529.000
 41
3.200
 42
3.200
  0
INSERT
  8
_DRILL
  2
_HOLE
 10
529.000
 20
471.000
 41
3.200
 42
3.200
  0
INSERT
  8
_DRILL
  2
_HOLE
 10
471.000
 20
471.000
 41
3.200
 42
3.200
  0
ENDSEC
  0
EOF
