G04 DesignSpark PCB PRO Gerber Version 10.0 Build 5299*
G04 #@! TF.Part,Single*
G04 #@! TF.FileFunction,Soldermask,Bot*
G04 #@! TF.FilePolarity,Negative*
%FSLAX35Y35*%
%MOIN*%
G04 #@! TA.AperFunction,ComponentPad*
%ADD26R,0.07096X0.07096*%
G04 #@! TA.AperFunction,ViaPad*
%ADD23C,0.04143*%
G04 #@! TA.AperFunction,ComponentPad*
%ADD25C,0.06702*%
%ADD27C,0.07096*%
G04 #@! TA.AperFunction,WasherPad*
%ADD24C,0.13198*%
G04 #@! TD.AperFunction*
X0Y0D02*
D02*
D23*
X25984Y165748D03*
X26378Y126378D03*
X31102Y205118D03*
X34252Y13189D03*
Y47638D03*
Y87008D03*
X57874Y58661D03*
Y84646D03*
X59449Y205118D03*
X60236Y244488D03*
X61417Y103150D03*
X64567Y108268D03*
X67717Y58661D03*
X69291Y142520D03*
X77559Y104331D03*
X84055Y91339D03*
X85433Y205118D03*
X86220Y47638D03*
Y126378D03*
Y244488D03*
X98425Y104331D03*
X100787Y142520D03*
X101969Y74803D03*
X111417Y98382D03*
Y205118D03*
X112205Y12598D03*
Y47638D03*
Y87008D03*
X120669Y67323D03*
X122835Y79528D03*
X125591Y171654D03*
D02*
D24*
X27953Y24016D03*
Y252362D03*
X118504Y24016D03*
Y252362D03*
D02*
D25*
X115591Y113189D03*
Y123189D03*
Y133189D03*
Y143189D03*
Y153189D03*
Y163189D03*
X125591Y113189D03*
Y123189D03*
Y133189D03*
Y143189D03*
Y153189D03*
Y163189D03*
D02*
D26*
X53543Y113189D03*
D02*
D27*
X43543D03*
Y123189D03*
Y133189D03*
Y143189D03*
Y153189D03*
Y163189D03*
X53543Y123189D03*
Y133189D03*
Y143189D03*
Y153189D03*
Y163189D03*
X0Y0D02*
M02*
