G04 DesignSpark PCB PRO Gerber Version 10.0 Build 5299*
G04 #@! TF.Part,Single*
G04 #@! TF.FileFunction,Other,ESDK-THV - Mechanical*
G04 #@! TF.FilePolarity,Positive*
%FSLAX35Y35*%
%MOIN*%
%ADD139C,0.00197*%
%ADD119C,0.00500*%
%ADD121C,0.00787*%
G04 #@! TD.AperFunction*
X0Y0D02*
D02*
D119*
X51575Y83465D02*
X53937D01*
X55906Y81102D01*
X54724D02*
X54331D01*
X55906D02*
X54724D01*
X55906D02*
Y82677D01*
D02*
D121*
X67913Y79921D02*
X72835D01*
Y54331D01*
X53150D01*
Y79921D01*
X58071D01*
D02*
D139*
X49850Y46929D02*
X50162Y47085D01*
X50319Y47398D01*
Y48023D01*
X50162Y48335D01*
X49850Y48492D01*
X49537Y48335D01*
X49381Y48023D01*
Y47398D01*
X49225Y47085D01*
X48912Y46929D01*
X48600Y47085D01*
X48444Y47398D01*
Y48023D01*
X48600Y48335D01*
X48912Y48492D01*
X48444Y49429D02*
X50319D01*
Y50992D01*
X49694Y51929D02*
X49069D01*
X48756Y52085D01*
X48600Y52242D01*
X48444Y52554D01*
Y52867D01*
X48600Y53179D01*
X48756Y53335D01*
X49069Y53492D01*
X49694D01*
X50006Y53335D01*
X50162Y53179D01*
X50319Y52867D01*
Y52554D01*
X50162Y52242D01*
X50006Y52085D01*
X49694Y51929D01*
X50319Y55210D02*
X48444D01*
Y54429D02*
Y55992D01*
Y59429D02*
X50319Y59585D01*
X49381Y60210D01*
X50319Y60835D01*
X48444Y60992D01*
X50319Y62398D02*
Y63023D01*
Y62710D02*
X48444D01*
Y62398D02*
Y63023D01*
X50319Y64429D02*
X48444D01*
Y65367D01*
X48600Y65679D01*
X48756Y65835D01*
X49069Y65992D01*
X49694D01*
X50006Y65835D01*
X50162Y65679D01*
X50319Y65367D01*
Y64429D01*
Y67710D02*
X48444D01*
Y66929D02*
Y68492D01*
X50319Y69429D02*
X48444D01*
X49381D02*
Y70992D01*
X50319D02*
X48444D01*
X50162Y74585D02*
X50319Y74898D01*
Y75210D01*
X50162Y75523D01*
X49850Y75679D01*
X48912D01*
X48600Y75523D01*
X48444Y75210D01*
Y74898D01*
X48600Y74585D01*
X48912Y74429D01*
X49850D01*
X50162Y74585D01*
X48600Y75523D01*
X50319Y77085D02*
X50162Y77242D01*
X50006Y77085D01*
X50162Y76929D01*
X50319Y77085D01*
X49850Y79429D02*
X49537Y79585D01*
X49381Y79898D01*
Y80210D01*
X49537Y80523D01*
X49850Y80679D01*
X50162Y80523D01*
X50319Y80210D01*
Y79898D01*
X50162Y79585D01*
X49850Y79429D01*
X49381D01*
X48912Y79585D01*
X48600Y79898D01*
X48444Y80210D01*
X50319Y81929D02*
X48444D01*
X49381Y82710D01*
X48444Y83492D01*
X50319D01*
Y84429D02*
X48444D01*
X49381Y85210D01*
X48444Y85992D01*
X50319D01*
X0Y0D02*
M02*
