G04 DesignSpark PCB PRO Gerber Version 10.0 Build 5299*
G04 #@! TF.Part,Single*
G04 #@! TF.FileFunction,Copper,L1,Top*
G04 #@! TF.FilePolarity,Positive*
%FSLAX35Y35*%
%MOIN*%
G04 #@! TA.AperFunction,SMDPad,CuDef*
%ADD147R,0.01181X0.03150*%
%ADD132R,0.03937X0.04291*%
%ADD150R,0.05315X0.06850*%
%ADD146R,0.03543X0.03543*%
G04 #@! TA.AperFunction,ComponentPad*
%ADD143R,0.06496X0.06496*%
G04 #@! TD.AperFunction*
%ADD119C,0.00500*%
%ADD121C,0.00787*%
%ADD124C,0.00984*%
%ADD122C,0.01000*%
%ADD126C,0.01969*%
G04 #@! TA.AperFunction,ViaPad*
%ADD125C,0.03543*%
G04 #@! TD.AperFunction*
%ADD142C,0.03937*%
G04 #@! TA.AperFunction,ComponentPad*
%ADD128C,0.06102*%
%ADD144C,0.06496*%
G04 #@! TA.AperFunction,SMDPad,CuDef*
%ADD149R,0.02953X0.01772*%
%ADD133R,0.04291X0.03937*%
%ADD145R,0.05906X0.04331*%
%ADD148R,0.07480X0.04724*%
G04 #@! TD.AperFunction*
X0Y0D02*
D02*
D119*
X85965Y250787D02*
X80965D01*
D02*
D121*
X9974Y267741D02*
Y8637D01*
X12574Y6037D01*
X133883D01*
X136482Y8637D01*
Y48704D01*
G75*
G02*
X135689Y47376I-3018J902D01*
G01*
X126639Y38327D01*
G75*
G02*
X124409Y37402I-2230J2224D01*
G01*
X29921D01*
G75*
G02*
X27691Y38327I0J3150D01*
G01*
X23760Y42258D01*
G75*
G02*
X22835Y44488I2224J2230D01*
G01*
Y94882D01*
G75*
G02*
X23760Y97112I3150J0D01*
G01*
X27691Y101043D01*
G75*
G02*
X29921Y101969I2230J-2224D01*
G01*
X40394D01*
Y110075D01*
G75*
G02*
X39312Y111880I3150J3115D01*
G01*
G75*
G02*
X39169Y112008I1045J1307D01*
G01*
X34252Y116925D01*
G75*
G02*
X33760Y118110I1181J1185D01*
G01*
Y232677D01*
G75*
G02*
X34252Y233862I1673J0D01*
G01*
X42122Y241732D01*
G75*
G02*
X43307Y242224I1185J-1181D01*
G01*
X89858D01*
X91240Y243606D01*
Y248520D01*
X90646Y249114D01*
X90291D01*
Y247638D01*
X83638D01*
Y249356D01*
X83291D01*
Y247638D01*
X76638D01*
Y253937D01*
X78291D01*
Y257874D01*
X76181D01*
Y255709D01*
X70276D01*
Y257874D01*
X67772D01*
Y254331D01*
X69425D01*
Y248031D01*
X62772D01*
Y254331D01*
X64425D01*
Y257874D01*
X62205D01*
Y264567D01*
X70472D01*
Y261614D01*
X75984D01*
Y264567D01*
X84252D01*
Y257874D01*
X81638D01*
Y253937D01*
X83291D01*
Y252219D01*
X83638D01*
Y253937D01*
X90291D01*
Y252461D01*
X91335D01*
G75*
G02*
X92522Y251970I3J-1673D01*
G01*
X94096Y250396D01*
G75*
G02*
X94587Y249213I-1183J-1183D01*
G01*
G75*
G02*
Y249212I-683J0D01*
G01*
G75*
G02*
Y249209I-793J-1D01*
G01*
Y242913D01*
G75*
G02*
X94094Y241728I-1673J0D01*
G01*
X91736Y239370D01*
G75*
G02*
X90551Y238878I-1185J1181D01*
G01*
X44000D01*
X37106Y231984D01*
Y138546D01*
X39646Y141085D01*
G75*
G02*
X45370Y147224I3898J2104D01*
G01*
X47555Y149409D01*
G75*
G02*
X48740Y149902I1185J-1181D01*
G01*
X50575D01*
G75*
G02*
X49114Y153189I2968J3287D01*
G01*
G75*
G02*
X57644Y154862I4429J0D01*
G01*
X111703D01*
G75*
G02*
X119823Y153189I3887J-1673D01*
G01*
G75*
G02*
X118256Y149902I-4232J0D01*
G01*
X120866D01*
G75*
G02*
X122051Y149409I0J-1673D01*
G01*
X124256Y147205D01*
G75*
G02*
X129519Y144764I1335J-4016D01*
G01*
X130706D01*
G75*
G02*
X131822Y144302I2J-1575D01*
G01*
X133397Y142728D01*
G75*
G02*
X133858Y141614I-1113J-1114D01*
G01*
Y129724D01*
G75*
G02*
X133397Y128611I-1575J0D01*
G01*
X131822Y127036D01*
G75*
G02*
X130706Y126575I-1114J1113D01*
G01*
X128470D01*
G75*
G02*
X130035Y123189I-2880J-3386D01*
G01*
G75*
G02*
X122047Y120506I-4445J0D01*
G01*
Y115504D01*
G75*
G02*
X128418Y116339I3543J-2315D01*
G01*
X130704D01*
G75*
G02*
X132936Y115416I4J-3150D01*
G01*
X135692Y112660D01*
G75*
G02*
X136482Y111335I-2227J-2227D01*
G01*
Y267741D01*
X133883Y270341D01*
X12574D01*
X9974Y267741D01*
X20472Y24016D02*
G75*
G02*
X35433I7480J0D01*
G01*
G75*
G02*
X20472I-7480J0D01*
G01*
Y252362D02*
G75*
G02*
X35433I7480J0D01*
G01*
G75*
G02*
X20472I-7480J0D01*
G01*
X55559Y254543D02*
X62638D01*
Y247819D01*
X55559D01*
Y254543D01*
X111024Y252362D02*
G75*
G02*
X125984I7480J0D01*
G01*
G75*
G02*
X111024I-7480J0D01*
G01*
X121358Y153189D02*
G75*
G02*
X129823I4232J0D01*
G01*
G75*
G02*
X121358I-4232J0D01*
G01*
Y163189D02*
G75*
G02*
X129823I4232J0D01*
G01*
G75*
G02*
X121358I-4232J0D01*
G01*
X111024Y24016D02*
G75*
G02*
X125984I7480J0D01*
G01*
G75*
G02*
X111024I-7480J0D01*
G01*
X112763Y166339D02*
G75*
G02*
X119823Y163189I2827J-3150D01*
G01*
G75*
G02*
X112763Y160039I-4232J0D01*
G01*
X56657D01*
G75*
G02*
X49114Y163189I-3114J3150D01*
G01*
G75*
G02*
X56657Y166339I4429J0D01*
G01*
X112763D01*
X39114Y153189D02*
G75*
G02*
X47972I4429J0D01*
G01*
G75*
G02*
X39114I-4429J0D01*
G01*
Y163189D02*
G75*
G02*
X47972I4429J0D01*
G01*
G75*
G02*
X39114I-4429J0D01*
G01*
X10368Y24016D02*
G36*
X10368Y24016D02*
Y8243D01*
X12180Y6431D01*
X134276D01*
X136089Y8243D01*
Y24016D01*
X125984D01*
G75*
G02*
X111024I-7480J0D01*
G01*
X35433D01*
G75*
G02*
X20472I-7480J0D01*
G01*
X10368D01*
G37*
Y153189D02*
G36*
X10368Y153189D02*
Y24016D01*
X20472D01*
G75*
G02*
X35433I7480J0D01*
G01*
X111024D01*
G75*
G02*
X125984I7480J0D01*
G01*
X136089D01*
Y47864D01*
G75*
G02*
X135689Y47376I-2623J1741D01*
G01*
X126639Y38327D01*
G75*
G02*
X124409Y37402I-2230J2226D01*
G01*
X29921D01*
G75*
G02*
X27691Y38327I0J3151D01*
G01*
X23760Y42258D01*
G75*
G02*
X22835Y44488I2226J2230D01*
G01*
Y94882D01*
G75*
G02*
X23760Y97112I3151J0D01*
G01*
X27691Y101043D01*
G75*
G02*
X29921Y101969I2230J-2226D01*
G01*
X40394D01*
Y110075D01*
G75*
G02*
X39312Y111880I3153J3116D01*
G01*
G75*
G02*
X39169Y112008I974J1229D01*
G01*
X34252Y116925D01*
G75*
G02*
X33760Y118110I1181J1185D01*
G01*
Y153189D01*
X10368D01*
G37*
X37106D02*
G36*
X37106Y153189D02*
Y138546D01*
X39646Y141085D01*
G75*
G02*
X39114Y143189I3898J2104D01*
G01*
G75*
G02*
X45370Y147224I4429J0D01*
G01*
X47555Y149409D01*
G75*
G02*
X48740Y149902I1185J-1180D01*
G01*
X50575D01*
G75*
G02*
X49114Y153189I2969J3288D01*
G01*
X47972D01*
G75*
G02*
X39114I-4429J0D01*
G01*
X37106D01*
G37*
X119823Y153188D02*
G36*
X119823Y153188D02*
G75*
G02*
X118256Y149902I-4230J0D01*
G01*
X120866D01*
G75*
G02*
X122051Y149409I0J-1672D01*
G01*
X124256Y147205D01*
G75*
G02*
X129519Y144764I1335J-4016D01*
G01*
X130706D01*
G75*
G02*
X131822Y144302I2J-1576D01*
G01*
X133397Y142728D01*
G75*
G02*
X133858Y141614I-1114J-1114D01*
G01*
Y129724D01*
G75*
G02*
X133397Y128611I-1575J0D01*
G01*
X131822Y127036D01*
G75*
G02*
X130706Y126575I-1114J1115D01*
G01*
X128470D01*
G75*
G02*
X130035Y123189I-2881J-3386D01*
G01*
G75*
G02*
X122047Y120506I-4445J0D01*
G01*
Y115504D01*
G75*
G02*
X128418Y116339I3543J-2315D01*
G01*
X130704D01*
G75*
G02*
X132936Y115416I4J-3152D01*
G01*
X135692Y112660D01*
G75*
G02*
X136089Y112175I-2229J-2229D01*
G01*
Y153189D01*
X129823D01*
G75*
G02*
X121358I-4232J0D01*
G01*
X119823D01*
G75*
G02*
Y153188I-4834J0D01*
G01*
G37*
X10368Y163189D02*
G36*
X10368Y163189D02*
Y153189D01*
X33760D01*
Y163189D01*
X10368D01*
G37*
X37106D02*
G36*
X37106Y163189D02*
Y153189D01*
X39114D01*
G75*
G02*
X47972I4429J0D01*
G01*
X49114D01*
G75*
G02*
X57644Y154862I4429J0D01*
G01*
X111703D01*
G75*
G02*
X119823Y153189I3887J-1673D01*
G01*
X121358D01*
G75*
G02*
X129823I4232J0D01*
G01*
X136089D01*
Y163189D01*
X129823D01*
G75*
G02*
X121358I-4232J0D01*
G01*
X119823D01*
G75*
G02*
X112763Y160039I-4232J0D01*
G01*
X56657D01*
G75*
G02*
X49114Y163189I-3114J3150D01*
G01*
X47972D01*
G75*
G02*
X39114I-4429J0D01*
G01*
X37106D01*
G37*
X10368Y252362D02*
G36*
X10368Y252362D02*
Y163189D01*
X33760D01*
Y232677D01*
G75*
G02*
X34252Y233862I1673J0D01*
G01*
X42122Y241732D01*
G75*
G02*
X43307Y242224I1185J-1180D01*
G01*
X89858D01*
X91240Y243606D01*
Y248520D01*
X90646Y249114D01*
X90291D01*
Y247638D01*
X83638D01*
Y249356D01*
X83291D01*
Y247638D01*
X76638D01*
Y252362D01*
X69425D01*
Y248031D01*
X62772D01*
Y252362D01*
X62638D01*
Y247819D01*
X55559D01*
Y252362D01*
X35433D01*
G75*
G02*
X20472I-7480J0D01*
G01*
X10368D01*
G37*
X37106Y231984D02*
G36*
X37106Y231984D02*
Y163189D01*
X39114D01*
G75*
G02*
X47972I4429J0D01*
G01*
X49114D01*
G75*
G02*
X56657Y166339I4430J0D01*
G01*
X112763D01*
G75*
G02*
X119823Y163189I2827J-3150D01*
G01*
X121358D01*
G75*
G02*
X129823I4232J0D01*
G01*
X136089D01*
Y252362D01*
X125984D01*
G75*
G02*
X111024I-7480J0D01*
G01*
X91904D01*
G75*
G02*
X92522Y251970I-565J-1576D01*
G01*
X94096Y250396D01*
G75*
G02*
X94587Y249213I-1185J-1184D01*
G01*
Y249212D01*
Y249209D01*
Y242913D01*
G75*
G02*
X94094Y241728I-1673J0D01*
G01*
X91736Y239370D01*
G75*
G02*
X90551Y238878I-1185J1180D01*
G01*
X44000D01*
X37106Y231984D01*
G37*
X83291Y252362D02*
G36*
X83291Y252362D02*
Y252219D01*
X83638D01*
Y252362D01*
X83291D01*
G37*
X10368Y268135D02*
G36*
X10368Y268135D02*
Y252362D01*
X20472D01*
G75*
G02*
X35433I7480J0D01*
G01*
X55559D01*
Y254543D01*
X62638D01*
Y252362D01*
X62772D01*
Y254331D01*
X64425D01*
Y257874D01*
X62205D01*
Y264567D01*
X70472D01*
Y261614D01*
X75984D01*
Y264567D01*
X84252D01*
Y257874D01*
X81638D01*
Y253937D01*
X83291D01*
Y252362D01*
X83638D01*
Y253937D01*
X90291D01*
Y252461D01*
X91335D01*
G75*
G02*
X91904Y252362I3J-1674D01*
G01*
X111024D01*
G75*
G02*
X125984I7480J0D01*
G01*
X136089D01*
Y268135D01*
X134276Y269947D01*
X12180D01*
X10368Y268135D01*
G37*
X67772Y257874D02*
G36*
X67772Y257874D02*
Y254331D01*
X69425D01*
Y252362D01*
X76638D01*
Y253937D01*
X78291D01*
Y257874D01*
X76181D01*
Y255709D01*
X70276D01*
Y257874D01*
X67772D01*
G37*
X29134Y93577D02*
Y45793D01*
X31226Y43701D01*
X123105D01*
X130315Y50911D01*
Y71850D01*
X109558D01*
X109295Y71587D01*
Y70472D01*
X110457D01*
Y64173D01*
X103803D01*
Y65650D01*
X98819D01*
G75*
G02*
X97634Y66142I0J1673D01*
G01*
X96157Y67618D01*
X92043D01*
Y63862D01*
X86303D01*
Y64472D01*
X81988D01*
Y64075D01*
X76673D01*
Y64646D01*
G75*
G02*
X76049Y65031I493J1496D01*
G01*
X75267Y65813D01*
G75*
G02*
X74803Y66929I1111J1116D01*
G01*
Y80709D01*
G75*
G02*
X75265Y81822I1575J0D01*
G01*
X77233Y83791D01*
G75*
G02*
X78349Y84252I1114J-1113D01*
G01*
X90551D01*
Y125787D01*
G75*
G02*
X91013Y126901I1575J0D01*
G01*
X93375Y129263D01*
G75*
G02*
X94491Y129724I1114J-1113D01*
G01*
X113160D01*
G75*
G02*
X112974Y136516I2431J3465D01*
G01*
X56467D01*
G75*
G02*
X56533Y129921I-2924J-3327D01*
G01*
X68305D01*
G75*
G02*
X69420Y129460I2J-1575D01*
G01*
X71192Y127688D01*
G75*
G02*
X71654Y126575I-1113J-1114D01*
G01*
Y104724D01*
G75*
G02*
X71192Y103611I-1575J0D01*
G01*
X69617Y102036D01*
G75*
G02*
X69139Y101709I-1114J1113D01*
G01*
X74016D01*
Y95055D01*
X67717D01*
Y96850D01*
X65219D01*
X64567Y96198D01*
Y92004D01*
X65044Y92468D01*
G75*
G02*
X66130Y92913I1098J-1129D01*
G01*
X67717Y92928D01*
Y94709D01*
X74016D01*
Y93547D01*
X74409D01*
Y94709D01*
X80709D01*
Y93504D01*
X82048D01*
G75*
G02*
X87008Y91339I2007J-2165D01*
G01*
G75*
G02*
X82048Y89173I-2953J0D01*
G01*
X80709D01*
Y88055D01*
X74409D01*
Y89217D01*
X74016D01*
Y88055D01*
X67717D01*
Y89778D01*
X66787Y89770D01*
X66142Y89142D01*
Y80709D01*
X73622D01*
Y53543D01*
X52362D01*
Y80709D01*
X61417D01*
Y96850D01*
G75*
G02*
X61879Y97964I1575J0D01*
G01*
X63454Y99539D01*
G75*
G02*
X64569Y100000I1114J-1113D01*
G01*
X67717D01*
Y101575D01*
X63915D01*
G75*
G02*
X58465Y103150I-2498J1575D01*
G01*
G75*
G02*
X63915Y104724I2953J0D01*
G01*
X67852D01*
X68504Y105377D01*
Y125922D01*
X67655Y126772D01*
X56148D01*
G75*
G02*
X56252Y119685I-2604J-3583D01*
G01*
X62202D01*
G75*
G02*
X63318Y119224I2J-1575D01*
G01*
X65680Y116861D01*
G75*
G02*
X66142Y115748I-1113J-1114D01*
G01*
Y110765D01*
G75*
G02*
X67520Y108268I-1575J-2498D01*
G01*
G75*
G02*
X61614I-2953J0D01*
G01*
G75*
G02*
X62992Y110765I2953J0D01*
G01*
Y115096D01*
X61552Y116535D01*
X57972D01*
Y108760D01*
X49114D01*
Y116535D01*
X46445D01*
G75*
G02*
X46693Y110075I-2902J-3346D01*
G01*
Y100634D01*
G75*
G02*
Y100631I-1211J-2D01*
G01*
G75*
G02*
Y100630I-1410J0D01*
G01*
G75*
G02*
X45770Y98403I-3150J0D01*
G01*
X43959Y96592D01*
G75*
G02*
X41728Y95669I-2227J2227D01*
G01*
X31226D01*
X29134Y93577D01*
X110591Y70685D02*
X117669D01*
Y63961D01*
X110591D01*
Y70685D01*
X74197Y101921D02*
X80921D01*
Y94843D01*
X74197D01*
Y101921D01*
X29528Y67323D02*
G36*
X29528Y67323D02*
Y45399D01*
X30832Y44094D01*
X123498D01*
X129921Y50517D01*
Y67323D01*
X117669D01*
Y63961D01*
X110591D01*
Y67323D01*
X110457D01*
Y64173D01*
X103803D01*
Y65650D01*
X98819D01*
G75*
G02*
X97634Y66142I0J1672D01*
G01*
X96453Y67323D01*
X92043D01*
Y63862D01*
X86303D01*
Y64472D01*
X81988D01*
Y64075D01*
X76673D01*
Y64646D01*
G75*
G02*
X76049Y65031I490J1493D01*
G01*
X75267Y65813D01*
G75*
G02*
X74803Y66929I1110J1116D01*
G01*
Y66929D01*
Y67323D01*
X73622D01*
Y53543D01*
X52362D01*
Y67323D01*
X29528D01*
G37*
Y93971D02*
G36*
X29528Y93971D02*
Y67323D01*
X52362D01*
Y80709D01*
X61417D01*
Y96850D01*
G75*
G02*
X61879Y97964I1575J0D01*
G01*
X62297Y98382D01*
X45750D01*
X43959Y96592D01*
G75*
G02*
X41728Y95669I-2228J2229D01*
G01*
X31226D01*
X29528Y93971D01*
G37*
X64567Y96198D02*
G36*
X64567Y96198D02*
Y92004D01*
X65044Y92468D01*
G75*
G02*
X66130Y92913I1097J-1128D01*
G01*
X67717Y92928D01*
Y94709D01*
X74016D01*
Y93547D01*
X74409D01*
Y94709D01*
X80709D01*
Y93504D01*
X82048D01*
G75*
G02*
X87008Y91339I2007J-2165D01*
G01*
Y91339D01*
Y91338D01*
G75*
G02*
X82048Y89173I-2953J0D01*
G01*
X80709D01*
Y88055D01*
X74409D01*
Y89217D01*
X74016D01*
Y88055D01*
X67717D01*
Y89778D01*
X66787Y89770D01*
X66142Y89142D01*
Y80709D01*
X73622D01*
Y67323D01*
X74803D01*
Y80709D01*
G75*
G02*
X75265Y81822I1575J0D01*
G01*
X77233Y83791D01*
G75*
G02*
X78349Y84252I1114J-1115D01*
G01*
X90551D01*
Y98382D01*
X80921D01*
Y94843D01*
X74197D01*
Y98382D01*
X74016D01*
Y95055D01*
X67717D01*
Y96850D01*
X65219D01*
X64567Y96198D01*
G37*
X92043Y67618D02*
G36*
X92043Y67618D02*
Y67323D01*
X96453D01*
X96157Y67618D01*
X92043D01*
G37*
X109295Y71587D02*
G36*
X109295Y71587D02*
Y70472D01*
X110457D01*
Y67323D01*
X110591D01*
Y70685D01*
X117669D01*
Y67323D01*
X129921D01*
Y71850D01*
X109558D01*
X109295Y71587D01*
G37*
X45770Y98403D02*
G36*
X45770Y98403D02*
X45750Y98382D01*
X62297D01*
X63454Y99539D01*
G75*
G02*
X64569Y100000I1114J-1115D01*
G01*
X67717D01*
Y101575D01*
X63915D01*
G75*
G02*
X58465Y103150I-2498J1575D01*
G01*
G75*
G02*
X63915Y104724I2953J0D01*
G01*
X67852D01*
X68504Y105377D01*
Y125922D01*
X67655Y126772D01*
X56148D01*
G75*
G02*
X57972Y123189I-2604J-3583D01*
G01*
G75*
G02*
X56252Y119685I-4429J0D01*
G01*
X62202D01*
G75*
G02*
X63318Y119224I2J-1576D01*
G01*
X65680Y116861D01*
G75*
G02*
X66142Y115748I-1114J-1114D01*
G01*
Y110765D01*
G75*
G02*
X67520Y108268I-1574J-2497D01*
G01*
Y108268D01*
G75*
G02*
X61614I-2953J0D01*
G01*
Y108268D01*
G75*
G02*
X62992Y110765I2952J0D01*
G01*
Y115096D01*
X61552Y116535D01*
X57972D01*
Y108760D01*
X49114D01*
Y116535D01*
X46445D01*
G75*
G02*
X47972Y113189I-2902J-3346D01*
G01*
G75*
G02*
X46693Y110075I-4429J0D01*
G01*
Y100634D01*
Y100631D01*
Y100630D01*
G75*
G02*
X45770Y98403I-3151J0D01*
G01*
G37*
X57972Y133189D02*
G36*
X57972Y133189D02*
G75*
G02*
X56533Y129921I-4430J0D01*
G01*
X68305D01*
G75*
G02*
X69420Y129460I2J-1576D01*
G01*
X71192Y127688D01*
G75*
G02*
X71654Y126575I-1114J-1114D01*
G01*
Y104724D01*
G75*
G02*
X71192Y103611I-1575J0D01*
G01*
X69617Y102036D01*
G75*
G02*
X69139Y101709I-1115J1114D01*
G01*
X74016D01*
Y98382D01*
X74197D01*
Y101921D01*
X80921D01*
Y98382D01*
X90551D01*
Y125787D01*
G75*
G02*
X91013Y126901I1575J0D01*
G01*
X93375Y129263D01*
G75*
G02*
X94491Y129724I1114J-1115D01*
G01*
X113160D01*
G75*
G02*
X111358Y133189I2431J3465D01*
G01*
G75*
G02*
X112539Y136122I4232J0D01*
G01*
X56862D01*
G75*
G02*
X57972Y133189I-3319J-2933D01*
G01*
G37*
X43543Y143189D02*
Y142756D01*
X37795Y137008D01*
Y119685D01*
X39370Y118110D01*
X62205D01*
X64567Y115748D01*
Y108268D01*
X53543Y143189D02*
X56417Y146063D01*
X112717D01*
X115591Y143189D01*
X57778Y144488D02*
G75*
G02*
X56467Y139862I-4234J-1299D01*
G01*
X112974D01*
G75*
G02*
X111563Y144488I2616J3327D01*
G01*
X57778D01*
G36*
X57778Y144488D02*
G75*
G02*
X56467Y139862I-4234J-1299D01*
G01*
X112974D01*
G75*
G02*
X111563Y144488I2616J3327D01*
G01*
X57778D01*
G37*
X57874Y84646D02*
X60630D01*
X61417Y83858D01*
Y76575D01*
X60039Y64567D02*
Y60827D01*
X57874Y58661D01*
X61417Y76575D02*
X60039Y75197D01*
Y74016D01*
X61417Y103150D02*
X68504D01*
X70079Y104724D01*
Y126575D01*
X68307Y128346D01*
X48425D01*
X43386Y133386D01*
X43543D01*
Y133189D01*
X62008Y64567D02*
Y66339D01*
X62992Y69291D01*
X62008Y74016D02*
Y75984D01*
X61417Y76575D01*
X62008Y74016D02*
Y68307D01*
X62992Y69291D01*
X65945Y64567D02*
Y60433D01*
X67717Y58661D01*
X70866Y91382D02*
X66142Y91339D01*
X64567Y89807D01*
Y78543D01*
X65945Y77165D01*
Y74016D01*
X70866Y98382D02*
X68461D01*
X68417Y98425D01*
X64567D01*
X62992Y96850D01*
Y77756D01*
X63976Y76772D01*
Y74016D01*
X79331Y69291D02*
X84252D01*
X89173Y66142D02*
X87402D01*
X84252Y69291D01*
X93701Y83465D02*
G75*
G02*
X93270Y82382I-1575J0D01*
G01*
X94976D01*
X96752Y84157D01*
Y88055D01*
X95276D01*
Y94709D01*
X101575D01*
Y93055D01*
X102756D01*
Y94709D01*
X109055D01*
Y88055D01*
X102756D01*
Y89709D01*
X101575D01*
Y88055D01*
X100098D01*
Y83468D01*
G75*
G02*
Y83465I-793J-1D01*
G01*
G75*
G02*
X99902Y82677I-1673J-1D01*
G01*
X117458D01*
X118898Y84117D01*
Y110548D01*
G75*
G02*
X111358Y113189I-3307J2641D01*
G01*
G75*
G02*
X118898Y115830I4232J0D01*
G01*
Y120548D01*
G75*
G02*
X111358Y123189I-3307J2641D01*
G01*
G75*
G02*
X113051Y126575I4232J0D01*
G01*
X95141D01*
X93701Y125135D01*
Y83465D01*
X109410Y100547D02*
G75*
G02*
X114370Y98382I2007J-2165D01*
G01*
G75*
G02*
X109410Y96217I-2953J0D01*
G01*
X109055D01*
Y95055D01*
X102756D01*
Y101709D01*
X109055D01*
Y100547D01*
X109410D01*
X95063Y101921D02*
X101787D01*
Y94843D01*
X95063D01*
Y101921D01*
X93663Y83124D02*
G36*
X93663Y83124D02*
Y82776D01*
X95370D01*
X96752Y84157D01*
Y88055D01*
X95276D01*
Y94709D01*
X101575D01*
Y93055D01*
X102756D01*
Y94709D01*
X109055D01*
Y88055D01*
X102756D01*
Y89709D01*
X101575D01*
Y88055D01*
X100098D01*
Y83468D01*
Y83465D01*
Y83465D01*
G75*
G02*
X99950Y82776I-1674J0D01*
G01*
X117556D01*
X118504Y83723D01*
Y98382D01*
X114370D01*
Y98381D01*
G75*
G02*
X109410Y96217I-2953J0D01*
G01*
X109055D01*
Y95055D01*
X102756D01*
Y98382D01*
X101787D01*
Y94843D01*
X95063D01*
Y98382D01*
X93701D01*
Y83465D01*
G75*
G02*
X93663Y83124I-1576J0D01*
G01*
G37*
X93701Y125135D02*
G36*
X93701Y125135D02*
Y98382D01*
X95063D01*
Y101921D01*
X101787D01*
Y98382D01*
X102756D01*
Y101709D01*
X109055D01*
Y100547D01*
X109410D01*
G75*
G02*
X114370Y98382I2007J-2165D01*
G01*
Y98382D01*
X118504D01*
Y110119D01*
G75*
G02*
X111358Y113189I-2913J3070D01*
G01*
G75*
G02*
X118504Y116259I4232J0D01*
G01*
Y120119D01*
G75*
G02*
X111358Y123189I-2913J3070D01*
G01*
Y123189D01*
G75*
G02*
X112597Y126181I4231J0D01*
G01*
X94747D01*
X93701Y125135D01*
G37*
X96389Y71328D02*
G75*
G02*
X95824Y70965I-1114J1113D01*
G01*
X96850D01*
G75*
G02*
X98035Y70472I0J-1673D01*
G01*
X99512Y68996D01*
X103803D01*
Y70472D01*
X104965D01*
Y72484D01*
G75*
G02*
X105599Y74015I2165J0D01*
G01*
X107130Y75547D01*
G75*
G02*
X108664Y76181I1531J-1531D01*
G01*
X130315D01*
Y109128D01*
X129404Y110039D01*
X128418D01*
G75*
G02*
X122047Y110874I-2827J3150D01*
G01*
Y83465D01*
G75*
G02*
X121586Y82351I-1575J0D01*
G01*
X119224Y79989D01*
G75*
G02*
X118108Y79528I-1114J1113D01*
G01*
X100259D01*
X97244Y76513D01*
Y72835D01*
G75*
G02*
X96783Y71721I-1575J0D01*
G01*
X96389Y71328D01*
G36*
X96389Y71328D02*
G75*
G02*
X95824Y70965I-1114J1113D01*
G01*
X96850D01*
G75*
G02*
X98035Y70472I0J-1673D01*
G01*
X99512Y68996D01*
X103803D01*
Y70472D01*
X104965D01*
Y72484D01*
G75*
G02*
X105599Y74015I2165J0D01*
G01*
X107130Y75547D01*
G75*
G02*
X108664Y76181I1531J-1531D01*
G01*
X130315D01*
Y109128D01*
X129404Y110039D01*
X128418D01*
G75*
G02*
X122047Y110874I-2827J3150D01*
G01*
Y83465D01*
G75*
G02*
X121586Y82351I-1575J0D01*
G01*
X119224Y79989D01*
G75*
G02*
X118108Y79528I-1114J1113D01*
G01*
X100259D01*
X97244Y76513D01*
Y72835D01*
G75*
G02*
X96783Y71721I-1575J0D01*
G01*
X96389Y71328D01*
G37*
X125591Y133189D02*
X121378D01*
X120472Y132283D01*
Y130118D01*
X118504Y128150D01*
X94488D01*
X92126Y125787D01*
Y83465D01*
X91339Y82677D01*
X78346D01*
X76378Y80709D01*
Y66929D01*
X77165Y66142D01*
X79331D01*
X125591Y143189D02*
X130709D01*
X132283Y141614D01*
Y129724D01*
X130709Y128150D01*
X122244D01*
X120472Y126378D01*
Y83465D01*
X118110Y81102D01*
X99606D01*
X95669Y77165D01*
Y72835D01*
X95276Y72441D01*
X89173D01*
D02*
D122*
X57483Y249566D02*
X55630Y247713D01*
X57483Y252796D02*
X55630Y254650D01*
X60713Y249566D02*
X62567Y247713D01*
X60713Y252796D02*
X62567Y254650D01*
X75944Y96767D02*
X74091Y94913D01*
X75944Y99997D02*
X74091Y101850D01*
X79174Y96767D02*
X81028Y94913D01*
X79174Y99997D02*
X81028Y101850D01*
X89173Y65756D02*
Y63756D01*
X90150Y66142D02*
X92150D01*
X96810Y96767D02*
X94957Y94913D01*
X96810Y99997D02*
X94957Y101850D01*
X100040Y96767D02*
X101894Y94913D01*
X100040Y99997D02*
X101894Y101850D01*
X112515Y65708D02*
X110661Y63854D01*
X112515Y68938D02*
X110661Y70791D01*
X115745Y65708D02*
X117598Y63854D01*
X115745Y68938D02*
X117598Y70791D01*
X123787Y121385D02*
X122372Y119971D01*
X127394Y121385D02*
X128809Y119971D01*
X127394Y124993D02*
X128809Y126407D01*
D02*
D124*
X43543Y113189D02*
X40354D01*
X35433Y118110D01*
Y232677D01*
X43307Y240551D01*
X90551D01*
X92913Y242913D01*
Y249213D01*
X91339Y250787D01*
X86965D01*
X43543Y133189D02*
X43307D01*
X48307Y138189D01*
X120591D01*
X125591Y133189D01*
X43543Y143189D02*
X43701D01*
X48740Y148228D01*
X120866D01*
X125906Y143189D01*
X125591D01*
X53543Y153189D02*
X115591D01*
X66098Y251181D02*
Y260980D01*
X66339Y261220D01*
X79331Y72441D02*
Y77362D01*
X82677Y80709D01*
X95669D01*
X98425Y83465D01*
Y91382D01*
X79965Y250787D02*
Y261067D01*
X80118Y261220D01*
X89173Y69291D02*
X96850D01*
X98819Y67323D01*
X107130D01*
X105906Y91382D02*
X98425D01*
D02*
D125*
X25984Y165748D03*
X26378Y126378D03*
X31102Y205118D03*
X34252Y13189D03*
Y47638D03*
Y87008D03*
X57874Y58661D03*
Y84646D03*
X59449Y205118D03*
X60236Y244488D03*
X61417Y103150D03*
X64567Y108268D03*
X67717Y58661D03*
X69291Y142520D03*
X77559Y104331D03*
X84055Y91339D03*
X85433Y205118D03*
X86220Y47638D03*
Y126378D03*
Y244488D03*
X98425Y104331D03*
X100787Y142520D03*
X101969Y74803D03*
X111417Y98382D03*
Y205118D03*
X112205Y12598D03*
Y47638D03*
Y87008D03*
X120669Y67323D03*
X122835Y79528D03*
X125591Y171654D03*
D02*
D126*
X77559Y91382D02*
X70866D01*
X77559Y98382D02*
Y104331D01*
X84055Y91339D02*
X77602D01*
X77559Y91382D01*
X98425Y98382D02*
Y104331D01*
X105906Y98382D02*
X111417D01*
X107130Y67323D02*
Y72484D01*
X108661Y74016D01*
X133465D01*
X114130Y67323D02*
X120669D01*
D02*
D128*
X115591Y113189D03*
Y123189D03*
Y133189D03*
Y143189D03*
Y153189D03*
Y163189D03*
X125591Y113189D03*
Y123189D03*
Y133189D03*
Y143189D03*
Y153189D03*
Y163189D03*
D02*
D132*
X70866Y91382D03*
Y98382D03*
X77559Y91382D03*
Y98382D03*
X98425Y91382D03*
Y98382D03*
X105906Y91382D03*
Y98382D03*
D02*
D133*
X59098Y251181D03*
X66098D03*
X79965Y250787D03*
X86965D03*
X107130Y67323D03*
X114130D03*
D02*
D142*
X43543Y113189D02*
Y100630D01*
X41732Y98819D01*
X29921D01*
X25984Y94882D01*
Y44488D01*
X29921Y40551D01*
X124409D01*
X133465Y49606D01*
Y74016D01*
X53543Y163189D02*
X115591D01*
X133465Y74016D02*
Y110433D01*
X130709Y113189D01*
X125591D01*
D02*
D143*
X53543D03*
D02*
D144*
X43543D03*
Y123189D03*
Y133189D03*
Y143189D03*
Y153189D03*
Y163189D03*
X53543Y123189D03*
Y133189D03*
Y143189D03*
Y153189D03*
Y163189D03*
D02*
D145*
X66339Y261220D03*
X80118D03*
D02*
D146*
X73228Y258661D03*
D02*
D147*
X60039Y64567D03*
Y74016D03*
X62008Y64567D03*
Y74016D03*
X63976Y64567D03*
Y74016D03*
X65945Y64567D03*
Y74016D03*
D02*
D148*
X62992Y69291D03*
D02*
D149*
X79331Y66142D03*
Y69291D03*
Y72441D03*
X89173Y66142D03*
Y69291D03*
Y72441D03*
D02*
D150*
X84252Y69291D03*
X0Y0D02*
M02*
