G05
M48
;#@! TF.GenerationSoftware,DesignSpark,DesignSpark PCB PRO,10.0.5299
;#@! TF.CreationDate,2021-10-19T14:22:40+00:00*
;#@! TF.FileFunction,Plated,1,4,Buried
;FILE_FORMAT=3:5
;TYPE=PLATED
INCH,TZ
FMAT,2
T1C000.01969
T2C000.04016
%
T001
X0.17035Y0.67717
X0.20579Y1.29134
X0.22547Y0.11811
X0.22547Y0.27559
X0.24122Y1.07874
X0.30028Y0.32677
X0.30028Y1.20079
X0.30421Y1.57087
X0.30815Y1.96457
X0.37508Y0.11811
X0.37508Y0.27559
X0.39870Y0.61417
X0.41445Y0.96457
X0.43020Y0.14173
X0.43020Y0.25197
X0.43413Y1.32283
X0.43807Y0.66535
X0.43807Y0.89370
X0.61130Y1.10630
X0.64279Y0.14173
X0.64279Y0.26378
X0.64279Y0.33465
X0.64279Y0.39764
X0.64279Y0.45276
X0.65460Y0.51969
X0.65854Y1.30315
X0.69398Y0.76772
X0.69791Y0.14567
X0.76878Y0.14567
X0.76878Y0.25984
X0.76878Y0.34252
X0.77665Y1.71654
X0.78496Y1.57874
X0.82389Y0.20079
X0.82389Y0.39764
X0.82389Y0.45669
X0.82389Y0.50788
X0.82783Y1.97244
X0.88295Y0.52363
X0.88295Y1.29134
X0.91445Y1.44094
X0.91838Y0.57481
X0.92232Y1.20866
X0.93020Y1.14567
X0.93020Y1.85433
X0.96563Y1.55906
X0.98969Y2.08661
X1.01287Y0.71654
X1.04394Y1.03937
X1.06012Y1.88976
X1.08374Y0.68504
X1.08768Y1.12992
X1.12311Y2.01575
X1.13885Y2.28347
X1.13885Y2.33859
X1.13885Y2.39370
X1.16642Y2.18898
X1.18216Y0.65355
X1.19398Y2.00000
X1.22153Y0.47638
X1.23728Y0.98031
X1.25697Y1.57874
X1.25697Y2.12598
X1.39476Y0.70079
X1.39476Y0.76772
X1.48925Y1.67323
X1.50894Y1.90157
X1.56405Y0.14174
X1.57193Y1.72441
X1.57193Y2.24803
X1.57193Y2.33858
X1.57193Y2.42913
X1.61524Y1.18504
X1.61524Y1.57874
X1.64280Y1.85039
X1.72941Y1.36221
X1.74122Y1.88976
X1.76091Y2.29134
X1.76484Y0.52363
X1.76484Y0.90158
X1.77271Y0.72441
X1.80028Y1.69685
X1.81602Y0.90551
X1.88689Y0.56693
X1.91839Y1.73622
X2.00894Y1.18504
X2.00894Y1.97244
X2.09555Y2.20079
X2.09555Y2.43701
X2.11720Y0.99607
X2.13098Y2.08268
X2.15854Y0.84646
X2.17823Y1.03150
X2.21563Y0.88976
X2.24516Y1.52362
X2.24516Y1.65748
X2.24516Y1.78346
X2.26090Y0.50000
X2.27665Y2.16142
X2.31602Y2.12205
X2.36618Y0.74410
X2.40264Y0.79134
X2.40264Y1.57874
X2.41051Y0.64961
X2.41445Y1.21654
X2.43807Y1.75591
X2.44201Y1.04724
X2.44201Y1.10630
X2.44201Y1.97244
X2.44201Y2.36614
X2.46563Y0.65355
X2.47744Y0.59843
X2.53256Y0.61811
X2.53256Y0.81890
X2.65460Y0.53937
X2.65854Y0.14174
X2.70185Y1.82678
X2.79634Y0.79134
X2.79634Y1.18504
X2.79634Y1.57874
X2.79634Y2.36614
X2.80421Y0.12993
X2.83177Y1.96851
X2.99712Y0.54725
X3.04437Y0.21260
X3.17035Y0.51575
X3.17035Y0.79134
X3.17035Y1.18504
X3.17035Y1.57874
X3.17035Y1.97244
X3.17035Y2.36614
X3.46957Y1.04331
X3.46957Y1.14173
X3.46957Y1.18898
X3.47350Y1.61024
X3.52075Y0.38583
X3.58374Y1.97244
X3.58374Y2.36614
X3.58768Y1.62992
X3.62311Y1.03150
X3.64280Y1.25197
X3.66642Y1.65354
X3.67429Y0.33858
X3.67823Y0.71654
T002
X1.16618Y0.28859
X1.16618Y0.38859
X1.26618Y0.28859
X1.26618Y0.38859
X1.36618Y0.28859
X1.36618Y0.38859
X1.46618Y0.28859
X1.46618Y0.38859
X1.56618Y0.28859
X1.56618Y0.38859
X1.66618Y0.28859
X1.66618Y0.38859
X1.76618Y0.28859
X1.76618Y0.38859
X1.86618Y0.28859
X1.86618Y0.38859
X1.96618Y0.28859
X1.96618Y0.38859
X2.06618Y0.28859
X2.06618Y0.38859
X2.16618Y0.28859
X2.16618Y0.38859
X2.26618Y0.28859
X2.26618Y0.38859
X2.36618Y0.28859
X2.36618Y0.38859
X2.46618Y0.28859
X2.46618Y0.38859
X2.56618Y0.28859
X2.56618Y0.38859
X2.66618Y0.28859
X2.66618Y0.38859
X2.76618Y0.28859
X2.76618Y0.38859
X2.86618Y0.28859
X2.86618Y0.38859
X2.96618Y0.28859
X2.96618Y0.38859
X3.06618Y0.28859
X3.06618Y0.38859
M30
