G04 DesignSpark PCB PRO Gerber Version 10.0 Build 5299*
G04 #@! TF.Part,Single*
G04 #@! TF.FileFunction,Soldermask,Bot*
G04 #@! TF.FilePolarity,Negative*
%FSLAX35Y35*%
%MOIN*%
G04 #@! TA.AperFunction,SMDPad,CuDef*
%ADD77R,0.02969X0.05232*%
%ADD16R,0.03559X0.05724*%
%ADD14R,0.04150X0.08087*%
%ADD18R,0.04937X0.05291*%
%ADD22R,0.07300X0.11200*%
%ADD72R,0.08874X0.09583*%
%ADD76R,0.04150X0.04150*%
%ADD79R,0.16748X0.16748*%
G04 #@! TA.AperFunction,ComponentPad*
%ADD29C,0.02280*%
G04 #@! TA.AperFunction,ViaPad*
%ADD10C,0.04543*%
G04 #@! TA.AperFunction,WasherPad*
%ADD11C,0.04937*%
G04 #@! TA.AperFunction,SMDPad,CuDef*
%ADD15C,0.05724*%
G04 #@! TA.AperFunction,ComponentPad*
%ADD13C,0.07102*%
G04 #@! TA.AperFunction,WasherPad*
%ADD12C,0.13598*%
G04 #@! TA.AperFunction,SMDPad,CuDef*
%ADD28R,0.05528X0.02181*%
%ADD21R,0.06118X0.02181*%
%ADD71R,0.06118X0.03362*%
%ADD23R,0.05724X0.03559*%
%ADD24R,0.07004X0.03559*%
%ADD26R,0.06118X0.04150*%
%ADD75R,0.12063X0.04465*%
%ADD70R,0.05134X0.04937*%
%ADD17R,0.05291X0.04937*%
%ADD19R,0.09661X0.05134*%
%ADD25R,0.08480X0.05331*%
%ADD73R,0.07299X0.05724*%
%ADD20R,0.09661X0.08087*%
%ADD27R,0.12811X0.09268*%
%ADD74R,0.13992X0.13992*%
%ADD78R,0.15173X0.14780*%
G04 #@! TD.AperFunction*
X0Y0D02*
D02*
D10*
X17035Y67717D03*
X20579Y129134D03*
X22547Y11811D03*
Y27559D03*
X24122Y107874D03*
X30028Y32677D03*
Y120079D03*
X30421Y157087D03*
X30815Y196457D03*
X37508Y11811D03*
Y27559D03*
X39870Y61417D03*
X41445Y96457D03*
X43020Y14173D03*
Y25197D03*
X43413Y132283D03*
X43807Y66535D03*
Y89370D03*
X61130Y110630D03*
X64279Y14173D03*
Y26378D03*
Y33465D03*
Y39764D03*
Y45276D03*
X65460Y51969D03*
X65854Y130315D03*
X69398Y76772D03*
X69791Y14567D03*
X76878D03*
Y25984D03*
Y34252D03*
X77665Y171654D03*
X78496Y157874D03*
X82389Y20079D03*
Y39764D03*
Y45669D03*
Y50788D03*
X82783Y197244D03*
X88295Y52363D03*
X88295Y129134D03*
X91445Y144094D03*
X91838Y57481D03*
X92232Y120866D03*
X93020Y114567D03*
Y185433D03*
X96563Y155906D03*
X98969Y208661D03*
X101287Y71654D03*
X104394Y103937D03*
X106012Y188976D03*
X108374Y68504D03*
X108768Y112992D03*
X112311Y201575D03*
X113885Y228347D03*
Y233859D03*
Y239370D03*
X116642Y218898D03*
X118216Y65355D03*
X119398Y200000D03*
X122153Y47638D03*
X123728Y98031D03*
X125697Y157874D03*
Y212598D03*
X139476Y70079D03*
Y76772D03*
X148925Y167323D03*
X150894Y190157D03*
X156405Y14174D03*
X157193Y172441D03*
Y224803D03*
Y233858D03*
Y242913D03*
X161524Y118504D03*
Y157874D03*
X164280Y185039D03*
X172941Y136221D03*
X174122Y188976D03*
X176091Y229134D03*
X176484Y52363D03*
Y90158D03*
X177271Y72441D03*
X180028Y169685D03*
X181602Y90551D03*
X188689Y56693D03*
X191839Y173622D03*
X200894Y118504D03*
Y197244D03*
X209555Y220079D03*
Y243701D03*
X211720Y99607D03*
X213098Y208268D03*
X215854Y84646D03*
X217823Y103150D03*
X221563Y88976D03*
X224516Y152362D03*
Y165748D03*
Y178346D03*
X226090Y50000D03*
X227665Y216142D03*
X231602Y212205D03*
X236618Y74410D03*
X240264Y79134D03*
Y157874D03*
X241051Y64961D03*
X241445Y121654D03*
X243807Y175591D03*
X244201Y104724D03*
Y110630D03*
Y197244D03*
Y236614D03*
X246563Y65355D03*
X247744Y59843D03*
X253256Y61811D03*
Y81890D03*
X265460Y53937D03*
X265854Y14174D03*
X270185Y182678D03*
X279634Y79134D03*
Y118504D03*
Y157874D03*
Y236614D03*
X280421Y12993D03*
X283177Y196851D03*
X299712Y54725D03*
X304437Y21260D03*
X317035Y51575D03*
X317035Y79134D03*
Y118504D03*
Y157874D03*
Y197244D03*
Y236614D03*
X346957Y104331D03*
Y114173D03*
Y118898D03*
X347350Y161024D03*
X352075Y38583D03*
X358374Y197244D03*
Y236614D03*
X358768Y162992D03*
X362311Y103150D03*
X364280Y125197D03*
X366642Y165354D03*
X367429Y33858D03*
X367823Y71654D03*
D02*
D11*
X60933Y49409D03*
X60933Y242717D03*
X329831Y49409D03*
D02*
D12*
X21759Y242520D03*
X339476Y18110D03*
D02*
D13*
X116618Y28859D03*
Y38859D03*
X126618Y28859D03*
Y38859D03*
X136618Y28859D03*
Y38859D03*
X146618Y28859D03*
Y38859D03*
X156618Y28859D03*
Y38859D03*
X166618Y28859D03*
Y38859D03*
X176618Y28859D03*
Y38859D03*
X186618Y28859D03*
Y38859D03*
X196618Y28859D03*
Y38859D03*
X206618Y28859D03*
Y38859D03*
X216618Y28859D03*
Y38859D03*
X226618Y28859D03*
Y38859D03*
X236618Y28859D03*
Y38859D03*
X246618Y28859D03*
Y38859D03*
X256618Y28859D03*
Y38859D03*
X266618Y28859D03*
Y38859D03*
X276618Y28859D03*
Y38859D03*
X286618Y28859D03*
Y38859D03*
X296618Y28859D03*
Y38859D03*
X306618Y28859D03*
Y38859D03*
D02*
D14*
X57193Y64370D03*
Y102559D03*
X61524Y64370D03*
Y102559D03*
X65854Y64370D03*
Y102559D03*
X70185Y64370D03*
Y102559D03*
X74516Y64370D03*
Y102559D03*
X78846Y64370D03*
Y102559D03*
X83177Y64370D03*
Y102559D03*
X87508Y64370D03*
Y102559D03*
X91839Y64370D03*
Y102559D03*
D02*
D15*
X80815Y131102D03*
X98138D03*
X118216Y194489D03*
X146563Y77166D03*
X156799Y87402D03*
X170972Y72441D03*
X184358Y201181D03*
D02*
D16*
X70736Y122638D03*
X74516Y114370D03*
X78295Y122638D03*
X97902D03*
X101681Y114370D03*
X105461Y122638D03*
D02*
D17*
X28102Y126772D03*
Y134252D03*
X35102Y126772D03*
Y134252D03*
X69834Y20079D03*
Y39764D03*
X76834Y20079D03*
Y39764D03*
X78496Y144094D03*
Y150787D03*
X85496Y144094D03*
Y150787D03*
X98969Y194882D03*
Y201575D03*
X105969Y194882D03*
Y201575D03*
X111567Y97638D03*
Y103937D03*
X118567Y97638D03*
Y103937D03*
X125346Y70079D03*
Y76772D03*
X132346Y70079D03*
Y76772D03*
X135189Y167323D03*
X142189D03*
X163535Y224803D03*
Y233858D03*
X170535Y224803D03*
Y233858D03*
X207039Y197244D03*
X214039D03*
D02*
D18*
X36327Y109886D03*
Y116886D03*
X43413Y109886D03*
Y116886D03*
X53649Y19729D03*
Y26729D03*
Y34689D03*
Y41689D03*
X69791Y26421D03*
Y33421D03*
X157193Y177996D03*
Y184996D03*
X169004Y194138D03*
Y201138D03*
X172941Y142957D03*
Y149957D03*
X246563Y70516D03*
Y77516D03*
X253256Y67717D03*
Y74717D03*
D02*
D19*
X30028Y11811D03*
Y27559D03*
D02*
D70*
X36031Y19685D03*
D02*
D71*
X219791Y208268D03*
Y212205D03*
Y216142D03*
Y220079D03*
Y224016D03*
Y227953D03*
D02*
D20*
X232587Y198819D03*
Y237402D03*
X273886Y196850D03*
X274122Y95276D03*
D02*
D21*
X261327Y102756D03*
Y104724D03*
Y106693D03*
Y108661D03*
Y110630D03*
Y112598D03*
Y114567D03*
Y116535D03*
Y118504D03*
Y120472D03*
Y122441D03*
Y124409D03*
Y126378D03*
Y128346D03*
Y130315D03*
Y132283D03*
Y134252D03*
Y136220D03*
Y138189D03*
Y140157D03*
Y142126D03*
Y144094D03*
Y146063D03*
Y148031D03*
Y150000D03*
Y151969D03*
Y153937D03*
Y155906D03*
Y157874D03*
Y159843D03*
Y161811D03*
Y163780D03*
Y165748D03*
Y167717D03*
Y169685D03*
Y171654D03*
Y173622D03*
Y175591D03*
Y177559D03*
Y179528D03*
Y181496D03*
Y183465D03*
Y185433D03*
Y187402D03*
Y189370D03*
D02*
D22*
X202855Y146063D03*
Y159055D03*
Y172047D03*
Y185039D03*
X216255Y146063D03*
Y159055D03*
Y172047D03*
Y185039D03*
D02*
D23*
X182587Y155276D03*
Y162835D03*
Y181260D03*
Y188819D03*
X190854Y159055D03*
Y185039D03*
D02*
D24*
X105965Y167303D03*
Y172303D03*
Y177303D03*
Y182303D03*
X127319Y167303D03*
Y172303D03*
Y177303D03*
Y182303D03*
X135886Y197224D03*
Y202224D03*
Y207224D03*
Y212224D03*
X157240Y197224D03*
Y202224D03*
Y207224D03*
Y212224D03*
D02*
D25*
X93413Y162402D03*
Y172244D03*
D02*
D26*
X352634Y89469D03*
Y94390D03*
Y99311D03*
Y104232D03*
Y109154D03*
Y114075D03*
Y118996D03*
Y123917D03*
D02*
D27*
X363461Y79429D03*
Y133957D03*
D02*
D28*
X33091Y62795D03*
Y63976D03*
Y65945D03*
Y67126D03*
Y69094D03*
Y71063D03*
Y73031D03*
Y75000D03*
Y76969D03*
Y78937D03*
Y80906D03*
Y82874D03*
Y84843D03*
Y86024D03*
Y87992D03*
Y89173D03*
D02*
D29*
X28858Y64606D03*
Y87362D03*
D02*
D72*
X15354Y55866D03*
Y96102D03*
X30827Y55866D03*
Y96102D03*
D02*
D73*
X149691Y224787D03*
Y233842D03*
Y242897D03*
D02*
D74*
X124494Y233842D03*
D02*
D75*
X362705Y143169D03*
Y156043D03*
X363886Y45531D03*
Y58406D03*
D02*
D76*
X350500Y143701D03*
Y152363D03*
D02*
D77*
X351681Y56890D03*
Y65945D03*
D02*
D78*
X41838Y155315D03*
Y216339D03*
D02*
D79*
Y185827D03*
X0Y0D02*
M02*
