G04 DesignSpark PCB PRO Gerber Version 10.0 Build 5299*
G04 #@! TF.Part,Single*
G04 #@! TF.FileFunction,Paste,Top*
G04 #@! TF.FilePolarity,Positive*
%FSLAX35Y35*%
%MOIN*%
G04 #@! TA.AperFunction,SMDPad,CuDef*
%ADD113R,0.05394X0.01063*%
%ADD108R,0.02126X0.04488*%
%ADD111R,0.02835X0.04213*%
%ADD114R,0.03543X0.03898*%
%ADD109R,0.04950X0.05450*%
%ADD118R,0.03012X0.03012*%
%ADD116R,0.03189X0.03189*%
%ADD119R,0.03366X0.03366*%
%ADD115R,0.05315X0.05315*%
%ADD112R,0.03898X0.03543*%
%ADD117R,0.10598X0.04181*%
%ADD110R,0.18012X0.07972*%
G04 #@! TD.AperFunction*
X0Y0D02*
D02*
D108*
X40354Y200197D03*
Y210039D03*
X44094D03*
X47835Y200197D03*
Y210039D03*
D02*
D109*
X42126Y219909D03*
Y228909D03*
X55118Y196287D03*
Y205287D03*
D02*
D110*
X70079Y200000D03*
Y215748D03*
D02*
D111*
X55118Y215157D03*
Y228937D03*
D02*
D112*
X26815Y205118D03*
Y211811D03*
X33815Y205118D03*
Y211811D03*
X33902Y193307D03*
X36657Y70846D03*
X40902Y193307D03*
X43657Y70846D03*
X54374Y94488D03*
X57917Y79921D03*
X61374Y94488D03*
X64917Y79921D03*
X67366Y94488D03*
X74366D03*
X80358D03*
X87358D03*
D02*
D113*
X52681Y62972D03*
Y64941D03*
Y66909D03*
Y68878D03*
Y70846D03*
X70004Y62972D03*
Y64941D03*
Y66909D03*
Y68878D03*
Y70846D03*
D02*
D114*
X66142Y243744D03*
Y250744D03*
X80315Y243744D03*
Y250744D03*
X84646Y48448D03*
Y55448D03*
Y61441D03*
Y68441D03*
Y74433D03*
Y81433D03*
X119685Y187445D03*
Y194445D03*
D02*
D115*
X66339Y260236D03*
X80118D03*
D02*
D116*
X73228Y257677D03*
D02*
D117*
X100787Y177618D03*
Y189311D03*
D02*
D118*
X76181Y181496D03*
X79921Y173622D03*
X83661Y181496D03*
X98228Y104331D03*
X101969Y96457D03*
X105709Y104331D03*
D02*
D119*
X113583Y179921D03*
X119488D03*
X0Y0D02*
M02*
