G04 DesignSpark PCB PRO Gerber Version 10.0 Build 5299*
G04 #@! TF.Part,Single*
G04 #@! TF.FileFunction,Soldermask,Top*
G04 #@! TF.FilePolarity,Negative*
%FSLAX35Y35*%
%MOIN*%
G04 #@! TA.AperFunction,SMDPad,CuDef*
%ADD94R,0.03362X0.05724*%
%ADD97R,0.04150X0.05528*%
%ADD102R,0.04937X0.05291*%
%ADD95R,0.06500X0.07000*%
%ADD106R,0.04346X0.04346*%
%ADD104R,0.04543X0.04543*%
%ADD107R,0.04740X0.04740*%
%ADD103R,0.06906X0.06906*%
G04 #@! TA.AperFunction,ComponentPad*
%ADD92R,0.07496X0.07496*%
%ADD99C,0.06130*%
%ADD93C,0.07496*%
%ADD100C,0.07594*%
G04 #@! TA.AperFunction,WasherPad*
%ADD91C,0.13598*%
G04 #@! TA.AperFunction,SMDPad,CuDef*
%ADD101R,0.06512X0.02181*%
%ADD98R,0.05291X0.04937*%
%ADD105R,0.12063X0.05646*%
%ADD96R,0.19898X0.09858*%
G04 #@! TD.AperFunction*
X0Y0D02*
D02*
D91*
X27953Y24016D03*
Y252362D03*
X118504Y24016D03*
Y252362D03*
D02*
D92*
X53543Y113189D03*
D02*
D93*
X43543D03*
Y123189D03*
Y133189D03*
Y143189D03*
Y153189D03*
Y163189D03*
X53543Y123189D03*
Y133189D03*
Y143189D03*
Y153189D03*
Y163189D03*
D02*
D94*
X40354Y200197D03*
Y210039D03*
X44094D03*
X47835Y200197D03*
Y210039D03*
D02*
D95*
X42126Y219909D03*
Y228909D03*
X55118Y196287D03*
Y205287D03*
D02*
D96*
X70079Y200000D03*
Y215748D03*
D02*
D97*
X55118Y215157D03*
Y228937D03*
D02*
D98*
X26815Y205118D03*
Y211811D03*
X33815Y205118D03*
Y211811D03*
X33902Y193307D03*
X36657Y70846D03*
X40902Y193307D03*
X43657Y70846D03*
X54374Y94488D03*
X57917Y79921D03*
X61374Y94488D03*
X64917Y79921D03*
X67366Y94488D03*
X74366D03*
X80358D03*
X87358D03*
D02*
D99*
X75827Y126260D03*
Y136260D03*
Y146260D03*
Y156260D03*
X85827Y121260D03*
Y131260D03*
Y141260D03*
Y151260D03*
D02*
D100*
X110827Y116256D03*
Y161264D03*
D02*
D101*
X52681Y62972D03*
Y64941D03*
Y66909D03*
Y68878D03*
Y70846D03*
X70004Y62972D03*
Y64941D03*
Y66909D03*
Y68878D03*
Y70846D03*
D02*
D102*
X66142Y243744D03*
Y250744D03*
X80315Y243744D03*
Y250744D03*
X84646Y48448D03*
Y55448D03*
Y61441D03*
Y68441D03*
Y74433D03*
Y81433D03*
X119685Y187445D03*
Y194445D03*
D02*
D103*
X66339Y260236D03*
X80118D03*
D02*
D104*
X73228Y257677D03*
D02*
D105*
X100787Y177618D03*
Y189311D03*
D02*
D106*
X76181Y181496D03*
X79921Y173622D03*
X83661Y181496D03*
X98228Y104331D03*
X101969Y96457D03*
X105709Y104331D03*
D02*
D107*
X113583Y179921D03*
X119488D03*
X0Y0D02*
M02*
