G04 DesignSpark PCB PRO Gerber Version 10.0 Build 5299*
G04 #@! TF.Part,Single*
G04 #@! TF.FileFunction,Copper,L2,Bot*
G04 #@! TF.FilePolarity,Positive*
%FSLAX35Y35*%
%MOIN*%
G04 #@! TA.AperFunction,ComponentPad*
%ADD76R,0.06496X0.06496*%
G04 #@! TD.AperFunction*
%ADD10C,0.00787*%
G04 #@! TA.AperFunction,ViaPad*
%ADD74C,0.03200*%
G04 #@! TD.AperFunction*
%ADD13C,0.03937*%
G04 #@! TA.AperFunction,ComponentPad*
%ADD83C,0.05130*%
%ADD77C,0.06496*%
G04 #@! TD.AperFunction*
X0Y0D02*
D02*
D10*
X6974Y268984D02*
Y7394D01*
X11331Y3037D01*
X135126D01*
X139482Y7394D01*
Y268984D01*
X135126Y273341D01*
X11331D01*
X6974Y268984D01*
X20472Y24016D02*
G75*
G02*
X35433I7480J0D01*
G01*
G75*
G02*
X20472I-7480J0D01*
G01*
Y252362D02*
G75*
G02*
X35433I7480J0D01*
G01*
G75*
G02*
X20472I-7480J0D01*
G01*
X84646Y90945D02*
G75*
G02*
Y84646I0J-3150D01*
G01*
X31496D01*
G75*
G02*
X29266Y85571I0J3150D01*
G01*
X22579Y92258D01*
G75*
G02*
X21654Y94488I2224J2230D01*
G01*
Y169287D01*
G75*
G02*
Y169290I1211J2D01*
G01*
G75*
G02*
Y169291I1410J1D01*
G01*
G75*
G02*
X22576Y171519I3150J0D01*
G01*
X24938Y173881D01*
G75*
G02*
X27170Y174803I2227J-2227D01*
G01*
X50783D01*
G75*
G02*
X53015Y173881I4J-3150D01*
G01*
X55770Y171125D01*
G75*
G02*
X56693Y168898I-2227J-2227D01*
G01*
G75*
G02*
Y168896I-1327J0D01*
G01*
G75*
G02*
Y168893I-1195J-2D01*
G01*
Y166303D01*
G75*
G02*
X57972Y163189I-3150J-3114D01*
G01*
G75*
G02*
X49114I-4429J0D01*
G01*
G75*
G02*
X50394Y166303I4430J0D01*
G01*
Y167593D01*
X49483Y168504D01*
X28470D01*
X27953Y167987D01*
Y95793D01*
X32801Y90945D01*
X84646D01*
X39114Y113189D02*
G75*
G02*
X47972I4429J0D01*
G01*
G75*
G02*
X39114I-4429J0D01*
G01*
Y133189D02*
G75*
G02*
X47972I4429J0D01*
G01*
G75*
G02*
X39114I-4429J0D01*
G01*
Y143189D02*
G75*
G02*
X47972I4429J0D01*
G01*
G75*
G02*
X39114I-4429J0D01*
G01*
Y153189D02*
G75*
G02*
X47972I4429J0D01*
G01*
G75*
G02*
X39114I-4429J0D01*
G01*
Y163189D02*
G75*
G02*
X47972I4429J0D01*
G01*
G75*
G02*
X39114I-4429J0D01*
G01*
X49114Y117618D02*
X57972D01*
Y108760D01*
X49114D01*
Y117618D01*
Y123189D02*
G75*
G02*
X57972I4429J0D01*
G01*
G75*
G02*
X49114I-4429J0D01*
G01*
Y133189D02*
G75*
G02*
X57972I4429J0D01*
G01*
G75*
G02*
X49114I-4429J0D01*
G01*
Y143189D02*
G75*
G02*
X57972I4429J0D01*
G01*
G75*
G02*
X49114I-4429J0D01*
G01*
Y153189D02*
G75*
G02*
X57972I4429J0D01*
G01*
G75*
G02*
X49114I-4429J0D01*
G01*
X72081Y126260D02*
G75*
G02*
X79573I3746J0D01*
G01*
G75*
G02*
X72081I-3746J0D01*
G01*
Y136260D02*
G75*
G02*
X79573I3746J0D01*
G01*
G75*
G02*
X72081I-3746J0D01*
G01*
Y146260D02*
G75*
G02*
X79573I3746J0D01*
G01*
G75*
G02*
X72081I-3746J0D01*
G01*
Y156260D02*
G75*
G02*
X79573I3746J0D01*
G01*
G75*
G02*
X72081I-3746J0D01*
G01*
X82081Y121260D02*
G75*
G02*
X89573I3746J0D01*
G01*
G75*
G02*
X82081I-3746J0D01*
G01*
Y131260D02*
G75*
G02*
X89573I3746J0D01*
G01*
G75*
G02*
X82081I-3746J0D01*
G01*
Y151260D02*
G75*
G02*
X89573I3746J0D01*
G01*
G75*
G02*
X82081I-3746J0D01*
G01*
X103051Y116256D02*
G75*
G02*
X118602I7776J0D01*
G01*
G75*
G02*
X103051I-7776J0D01*
G01*
X111024Y24016D02*
G75*
G02*
X125984I7480J0D01*
G01*
G75*
G02*
X111024I-7480J0D01*
G01*
X103051Y161264D02*
G75*
G02*
X118602I7776J0D01*
G01*
G75*
G02*
X103051I-7776J0D01*
G01*
X111024Y252362D02*
G75*
G02*
X125984I7480J0D01*
G01*
G75*
G02*
X111024I-7480J0D01*
G01*
X7368Y24016D02*
G36*
X7368Y24016D02*
Y7000D01*
X10937Y3431D01*
X135519D01*
X139089Y7000D01*
Y24016D01*
X125984D01*
G75*
G02*
X111024I-7480J0D01*
G01*
X35433D01*
G75*
G02*
X20472I-7480J0D01*
G01*
X7368D01*
G37*
Y113189D02*
G36*
X7368Y113189D02*
Y24016D01*
X20472D01*
G75*
G02*
X35433I7480J0D01*
G01*
X111024D01*
G75*
G02*
X125984I7480J0D01*
G01*
X139089D01*
Y113189D01*
X117972D01*
G75*
G02*
X103681I-7145J3067D01*
G01*
X57972D01*
Y108760D01*
X49114D01*
Y113189D01*
X47972D01*
G75*
G02*
X39114I-4429J0D01*
G01*
X27953D01*
Y95793D01*
X32801Y90945D01*
X84646D01*
G75*
G02*
X87795Y87795I0J-3150D01*
G01*
G75*
G02*
X84646Y84646I-3150J0D01*
G01*
X31496D01*
G75*
G02*
X29266Y85571I0J3151D01*
G01*
X22579Y92258D01*
G75*
G02*
X21654Y94488I2226J2230D01*
G01*
Y113189D01*
X7368D01*
G37*
Y123189D02*
G36*
X7368Y123189D02*
Y113189D01*
X21654D01*
Y123189D01*
X7368D01*
G37*
X27953D02*
G36*
X27953Y123189D02*
Y113189D01*
X39114D01*
G75*
G02*
X47972I4429J0D01*
G01*
X49114D01*
Y117618D01*
X57972D01*
Y113189D01*
X103681D01*
G75*
G02*
X103051Y116256I7145J3067D01*
G01*
G75*
G02*
X107307Y123189I7776J0D01*
G01*
X89038D01*
G75*
G02*
X89573Y121260I-3211J-1930D01*
G01*
G75*
G02*
X82081I-3746J0D01*
G01*
G75*
G02*
X82616Y123189I3746J0D01*
G01*
X77972D01*
G75*
G02*
X73681I-2145J3071D01*
G01*
X57972D01*
G75*
G02*
X49114I-4429J0D01*
G01*
X27953D01*
G37*
X118602Y116256D02*
G36*
X118602Y116256D02*
G75*
G02*
X117972Y113189I-7776J0D01*
G01*
X139089D01*
Y123189D01*
X114347D01*
G75*
G02*
X118602Y116256I-3520J-6933D01*
G01*
G37*
X7368Y129724D02*
G36*
X7368Y129724D02*
Y123189D01*
X21654D01*
Y129724D01*
X7368D01*
G37*
X27953D02*
G36*
X27953Y129724D02*
Y123189D01*
X49114D01*
G75*
G02*
X57972I4429J0D01*
G01*
X73681D01*
G75*
G02*
X72081Y126260I2145J3071D01*
G01*
G75*
G02*
X74402Y129724I3746J0D01*
G01*
X56303D01*
G75*
G02*
X50784I-2759J3465D01*
G01*
X46303D01*
G75*
G02*
X40784I-2759J3465D01*
G01*
X27953D01*
G37*
X79573Y126260D02*
G36*
X79573Y126260D02*
G75*
G02*
X77972Y123189I-3746J0D01*
G01*
X82616D01*
G75*
G02*
X89038I3211J-1929D01*
G01*
X107307D01*
G75*
G02*
X114347I3520J-6933D01*
G01*
X139089D01*
Y129724D01*
X89244D01*
G75*
G02*
X82410I-3417J1535D01*
G01*
X77252D01*
G75*
G02*
X79573Y126260I-1425J-3465D01*
G01*
G37*
X7368Y136260D02*
G36*
X7368Y136260D02*
Y129724D01*
X21654D01*
Y136260D01*
X7368D01*
G37*
X27953D02*
G36*
X27953Y136260D02*
Y129724D01*
X40784D01*
G75*
G02*
X39114Y133189I2759J3465D01*
G01*
G75*
G02*
X40352Y136260I4429J0D01*
G01*
X27953D01*
G37*
X47972Y133189D02*
G36*
X47972Y133189D02*
G75*
G02*
X46303Y129724I-4429J0D01*
G01*
X50784D01*
G75*
G02*
X49114Y133189I2759J3465D01*
G01*
G75*
G02*
X50352Y136260I4429J0D01*
G01*
X46735D01*
G75*
G02*
X47972Y133189I-3192J-3071D01*
G01*
G37*
X57972D02*
G36*
X57972Y133189D02*
G75*
G02*
X56303Y129724I-4429J0D01*
G01*
X74402D01*
G75*
G02*
X77252I1425J-3465D01*
G01*
X82410D01*
G75*
G02*
X82081Y131260I3417J1535D01*
G01*
G75*
G02*
X89573I3746J0D01*
G01*
G75*
G02*
X89244Y129724I-3746J0D01*
G01*
X139089D01*
Y136260D01*
X79573D01*
G75*
G02*
X72081I-3746J0D01*
G01*
X56735D01*
G75*
G02*
X57972Y133189I-3192J-3071D01*
G01*
G37*
X7368Y143189D02*
G36*
X7368Y143189D02*
Y136260D01*
X21654D01*
Y143189D01*
X7368D01*
G37*
X27953D02*
G36*
X27953Y143189D02*
Y136260D01*
X40352D01*
G75*
G02*
X46735I3192J-3071D01*
G01*
X50352D01*
G75*
G02*
X56735I3192J-3071D01*
G01*
X72081D01*
G75*
G02*
X79573I3746J0D01*
G01*
X139089D01*
Y143189D01*
X77972D01*
G75*
G02*
X73681I-2145J3071D01*
G01*
X57972D01*
G75*
G02*
X49114I-4429J0D01*
G01*
X47972D01*
G75*
G02*
X39114I-4429J0D01*
G01*
X27953D01*
G37*
X7368Y153189D02*
G36*
X7368Y153189D02*
Y143189D01*
X21654D01*
Y153189D01*
X7368D01*
G37*
X27953D02*
G36*
X27953Y153189D02*
Y143189D01*
X39114D01*
G75*
G02*
X47972I4429J0D01*
G01*
X49114D01*
G75*
G02*
X57972I4429J0D01*
G01*
X73681D01*
G75*
G02*
X72081Y146260I2145J3071D01*
G01*
G75*
G02*
X79573I3746J0D01*
G01*
G75*
G02*
X77972Y143189I-3746J0D01*
G01*
X139089D01*
Y153189D01*
X89038D01*
G75*
G02*
X89573Y151260I-3211J-1930D01*
G01*
G75*
G02*
X82081I-3746J0D01*
G01*
G75*
G02*
X82616Y153189I3746J0D01*
G01*
X77972D01*
G75*
G02*
X73681I-2145J3071D01*
G01*
X57972D01*
G75*
G02*
X49114I-4429J0D01*
G01*
X47972D01*
G75*
G02*
X39114I-4429J0D01*
G01*
X27953D01*
G37*
X7368Y163189D02*
G36*
X7368Y163189D02*
Y153189D01*
X21654D01*
Y163189D01*
X7368D01*
G37*
X27953D02*
G36*
X27953Y163189D02*
Y153189D01*
X39114D01*
G75*
G02*
X47972I4429J0D01*
G01*
X49114D01*
G75*
G02*
X57972I4429J0D01*
G01*
X73681D01*
G75*
G02*
X72081Y156260I2145J3071D01*
G01*
G75*
G02*
X79573I3746J0D01*
G01*
G75*
G02*
X77972Y153189I-3746J0D01*
G01*
X82616D01*
G75*
G02*
X89038I3211J-1929D01*
G01*
X139089D01*
Y163189D01*
X118360D01*
G75*
G02*
X118602Y161264I-7533J-1925D01*
G01*
G75*
G02*
X103051I-7776J0D01*
G01*
G75*
G02*
X103293Y163189I7776J0D01*
G01*
X57972D01*
G75*
G02*
X49114I-4429J0D01*
G01*
X47972D01*
G75*
G02*
X39114I-4429J0D01*
G01*
X27953D01*
G37*
X7368Y252362D02*
G36*
X7368Y252362D02*
Y163189D01*
X21654D01*
Y169287D01*
Y169290D01*
Y169291D01*
G75*
G02*
X22576Y171519I3151J0D01*
G01*
X24938Y173881D01*
G75*
G02*
X27170Y174803I2228J-2229D01*
G01*
X50783D01*
G75*
G02*
X53015Y173881I4J-3152D01*
G01*
X55770Y171125D01*
G75*
G02*
X56693Y168898I-2227J-2227D01*
G01*
Y168898D01*
Y168896D01*
Y168893D01*
Y166303D01*
G75*
G02*
X57972Y163189I-3149J-3114D01*
G01*
Y163189D01*
X103293D01*
G75*
G02*
X118360I7533J-1925D01*
G01*
X139089D01*
Y252362D01*
X125984D01*
G75*
G02*
X111024I-7480J0D01*
G01*
X35433D01*
G75*
G02*
X20472I-7480J0D01*
G01*
X7368D01*
G37*
X27953Y167987D02*
G36*
X27953Y167987D02*
Y163189D01*
X39114D01*
G75*
G02*
X47972I4429J0D01*
G01*
X49114D01*
Y163189D01*
G75*
G02*
X50394Y166303I4428J0D01*
G01*
Y167593D01*
X49483Y168504D01*
X28470D01*
X27953Y167987D01*
G37*
X7368Y269378D02*
G36*
X7368Y269378D02*
Y252362D01*
X20472D01*
G75*
G02*
X35433I7480J0D01*
G01*
X111024D01*
G75*
G02*
X125984I7480J0D01*
G01*
X139089D01*
Y269378D01*
X135519Y272947D01*
X10937D01*
X7368Y269378D01*
G37*
D02*
D13*
X53543Y163189D02*
Y168898D01*
X50787Y171654D01*
X27165D01*
X24803Y169291D01*
Y94488D01*
X31496Y87795D01*
X61417D01*
X84646D01*
D02*
D74*
X16535Y59449D03*
Y83071D03*
Y102756D03*
Y138189D03*
Y173622D03*
X31890Y70866D03*
X37795Y59449D03*
Y83071D03*
Y102756D03*
Y138189D03*
Y178346D03*
X40945Y188189D03*
X45669Y61417D03*
X52756Y79921D03*
X54331Y87795D03*
X61417Y20079D03*
Y87795D03*
Y187008D03*
X66142Y238976D03*
X66535Y74803D03*
X69685Y173622D03*
X72047Y82677D03*
X79921Y48425D03*
Y168110D03*
X82677Y187008D03*
X84646Y87795D03*
Y199213D03*
Y220472D03*
X85039Y20079D03*
X90945Y173622D03*
X92520Y94488D03*
X101969Y92520D03*
X111024Y59449D03*
Y83071D03*
Y102756D03*
Y138189D03*
X119685Y199606D03*
X132283Y59449D03*
Y83071D03*
Y102756D03*
Y138189D03*
D02*
D76*
X53543Y113189D03*
D02*
D77*
X43543D03*
Y123189D03*
Y133189D03*
Y143189D03*
Y153189D03*
Y163189D03*
X53543Y123189D03*
Y133189D03*
Y143189D03*
Y153189D03*
Y163189D03*
D02*
D83*
X75827Y126260D03*
Y136260D03*
Y146260D03*
Y156260D03*
X85827Y121260D03*
Y131260D03*
Y141260D03*
Y151260D03*
X0Y0D02*
M02*
