G04 DesignSpark PCB PRO Gerber Version 10.0 Build 5299*
G04 #@! TF.Part,Single*
G04 #@! TF.FileFunction,Drillmap*
G04 #@! TF.FilePolarity,Positive*
%FSLAX35Y35*%
%MOIN*%
%ADD28C,0.00500*%
G04 #@! TA.AperFunction,ViaPad*
%ADD27C,0.10000*%
G04 #@! TD.AperFunction*
X0Y0D02*
D02*
D27*
X16535Y59449D03*
Y83071D03*
Y102756D03*
Y138189D03*
Y173622D03*
X27953Y24016D03*
Y252362D03*
X31890Y70866D03*
X37795Y59449D03*
Y83071D03*
Y102756D03*
Y138189D03*
Y178346D03*
X40945Y188189D03*
X43543Y113189D03*
Y123189D03*
Y133189D03*
Y143189D03*
Y153189D03*
Y163189D03*
X45669Y61417D03*
X52756Y79921D03*
X53543Y113189D03*
Y123189D03*
Y133189D03*
Y143189D03*
Y153189D03*
Y163189D03*
X54331Y87795D03*
X61417Y20079D03*
Y87795D03*
Y187008D03*
X66142Y238976D03*
X66535Y74803D03*
X69685Y173622D03*
X72047Y82677D03*
X75827Y126260D03*
Y136260D03*
Y146260D03*
Y156260D03*
X79921Y48425D03*
Y168110D03*
X82677Y187008D03*
X84646Y87795D03*
Y199213D03*
Y220472D03*
X85039Y20079D03*
X85827Y121260D03*
Y131260D03*
Y141260D03*
Y151260D03*
X90945Y173622D03*
X92520Y94488D03*
X101969Y92520D03*
X110827Y116256D03*
Y161264D03*
X111024Y59449D03*
Y83071D03*
Y102756D03*
Y138189D03*
X118504Y24016D03*
Y252362D03*
X119685Y199606D03*
X132283Y59449D03*
Y83071D03*
Y102756D03*
Y138189D03*
D02*
D28*
X26535Y65386D02*
X28098Y69136D01*
X29661Y65386D01*
X27161Y66949D02*
X29035D01*
X26535Y89008D02*
X28098Y92758D01*
X29661Y89008D01*
X27161Y90571D02*
X29035D01*
X26535Y108693D02*
X28098Y112443D01*
X29661Y108693D01*
X27161Y110256D02*
X29035D01*
X26535Y144126D02*
X28098Y147876D01*
X29661Y144126D01*
X27161Y145689D02*
X29035D01*
X26535Y179559D02*
X28098Y183309D01*
X29661Y179559D01*
X27161Y181122D02*
X29035D01*
X40140Y31828D02*
X40765Y31516D01*
X41078Y30891D01*
X40765Y30266D01*
X40140Y29953D01*
X37953D01*
Y33703D01*
X40140D01*
X40765Y33391D01*
X41078Y32766D01*
X40765Y32141D01*
X40140Y31828D01*
X37953D01*
X40140Y260175D02*
X40765Y259862D01*
X41078Y259237D01*
X40765Y258612D01*
X40140Y258300D01*
X37953D01*
Y262050D01*
X40140D01*
X40765Y261737D01*
X41078Y261112D01*
X40765Y260487D01*
X40140Y260175D01*
X37953D01*
X41890Y76804D02*
X43452Y80554D01*
X45015Y76804D01*
X42515Y78366D02*
X44390D01*
X47795Y65386D02*
X49358Y69136D01*
X50920Y65386D01*
X48420Y66949D02*
X50295D01*
X47795Y89008D02*
X49358Y92758D01*
X50920Y89008D01*
X48420Y90571D02*
X50295D01*
X47795Y108693D02*
X49358Y112443D01*
X50920Y108693D01*
X48420Y110256D02*
X50295D01*
X47795Y144126D02*
X49358Y147876D01*
X50920Y144126D01*
X48420Y145689D02*
X50295D01*
X47795Y184284D02*
X49358Y188034D01*
X50920Y184284D01*
X48420Y185846D02*
X50295D01*
X50945Y194126D02*
X52507Y197876D01*
X54070Y194126D01*
X51570Y195689D02*
X53445D01*
X56669Y119752D02*
X56356Y119439D01*
X55731Y119126D01*
X54793D01*
X54169Y119439D01*
X53856Y119752D01*
X53543Y120376D01*
Y121626D01*
X53856Y122252D01*
X54169Y122564D01*
X54793Y122876D01*
X55731D01*
X56356Y122564D01*
X56669Y122252D01*
Y129752D02*
X56356Y129439D01*
X55731Y129126D01*
X54793D01*
X54169Y129439D01*
X53856Y129752D01*
X53543Y130376D01*
Y131626D01*
X53856Y132252D01*
X54169Y132564D01*
X54793Y132876D01*
X55731D01*
X56356Y132564D01*
X56669Y132252D01*
Y139752D02*
X56356Y139439D01*
X55731Y139126D01*
X54793D01*
X54169Y139439D01*
X53856Y139752D01*
X53543Y140376D01*
Y141626D01*
X53856Y142252D01*
X54169Y142564D01*
X54793Y142876D01*
X55731D01*
X56356Y142564D01*
X56669Y142252D01*
Y149752D02*
X56356Y149439D01*
X55731Y149126D01*
X54793D01*
X54169Y149439D01*
X53856Y149752D01*
X53543Y150376D01*
Y151626D01*
X53856Y152252D01*
X54169Y152564D01*
X54793Y152876D01*
X55731D01*
X56356Y152564D01*
X56669Y152252D01*
Y159752D02*
X56356Y159439D01*
X55731Y159126D01*
X54793D01*
X54169Y159439D01*
X53856Y159752D01*
X53543Y160376D01*
Y161626D01*
X53856Y162252D01*
X54169Y162564D01*
X54793Y162876D01*
X55731D01*
X56356Y162564D01*
X56669Y162252D01*
Y169752D02*
X56356Y169439D01*
X55731Y169126D01*
X54793D01*
X54169Y169439D01*
X53856Y169752D01*
X53543Y170376D01*
Y171626D01*
X53856Y172252D01*
X54169Y172564D01*
X54793Y172876D01*
X55731D01*
X56356Y172564D01*
X56669Y172252D01*
X55669Y67355D02*
X57232Y71105D01*
X58794Y67355D01*
X56294Y68917D02*
X58169D01*
X62756Y85859D02*
X64319Y89609D01*
X65881Y85859D01*
X63381Y87421D02*
X65256D01*
X66669Y119752D02*
X66356Y119439D01*
X65731Y119126D01*
X64793D01*
X64169Y119439D01*
X63856Y119752D01*
X63543Y120376D01*
Y121626D01*
X63856Y122252D01*
X64169Y122564D01*
X64793Y122876D01*
X65731D01*
X66356Y122564D01*
X66669Y122252D01*
Y129752D02*
X66356Y129439D01*
X65731Y129126D01*
X64793D01*
X64169Y129439D01*
X63856Y129752D01*
X63543Y130376D01*
Y131626D01*
X63856Y132252D01*
X64169Y132564D01*
X64793Y132876D01*
X65731D01*
X66356Y132564D01*
X66669Y132252D01*
Y139752D02*
X66356Y139439D01*
X65731Y139126D01*
X64793D01*
X64169Y139439D01*
X63856Y139752D01*
X63543Y140376D01*
Y141626D01*
X63856Y142252D01*
X64169Y142564D01*
X64793Y142876D01*
X65731D01*
X66356Y142564D01*
X66669Y142252D01*
Y149752D02*
X66356Y149439D01*
X65731Y149126D01*
X64793D01*
X64169Y149439D01*
X63856Y149752D01*
X63543Y150376D01*
Y151626D01*
X63856Y152252D01*
X64169Y152564D01*
X64793Y152876D01*
X65731D01*
X66356Y152564D01*
X66669Y152252D01*
Y159752D02*
X66356Y159439D01*
X65731Y159126D01*
X64793D01*
X64169Y159439D01*
X63856Y159752D01*
X63543Y160376D01*
Y161626D01*
X63856Y162252D01*
X64169Y162564D01*
X64793Y162876D01*
X65731D01*
X66356Y162564D01*
X66669Y162252D01*
Y169752D02*
X66356Y169439D01*
X65731Y169126D01*
X64793D01*
X64169Y169439D01*
X63856Y169752D01*
X63543Y170376D01*
Y171626D01*
X63856Y172252D01*
X64169Y172564D01*
X64793Y172876D01*
X65731D01*
X66356Y172564D01*
X66669Y172252D01*
X64331Y93733D02*
X65893Y97483D01*
X67456Y93733D01*
X64956Y95295D02*
X66831D01*
X71417Y26016D02*
X72980Y29766D01*
X74543Y26016D01*
X72043Y27579D02*
X73917D01*
X71417Y93733D02*
X72980Y97483D01*
X74543Y93733D01*
X72043Y95295D02*
X73917D01*
X71417Y192945D02*
X72980Y196695D01*
X74543Y192945D01*
X72043Y194508D02*
X73917D01*
X76142Y244914D02*
X77704Y248664D01*
X79267Y244914D01*
X76767Y246476D02*
X78642D01*
X76535Y80741D02*
X78098Y84491D01*
X79661Y80741D01*
X77161Y82303D02*
X79035D01*
X79685Y179559D02*
X81248Y183309D01*
X82810Y179559D01*
X80310Y181122D02*
X82185D01*
X82047Y88615D02*
X83610Y92365D01*
X85172Y88615D01*
X82672Y90177D02*
X84547D01*
X85827Y132197D02*
Y135947D01*
X87702D01*
X88327Y135635D01*
X88639Y135322D01*
X88952Y134697D01*
Y133447D01*
X88639Y132822D01*
X88327Y132510D01*
X87702Y132197D01*
X85827D01*
Y142197D02*
Y145947D01*
X87702D01*
X88327Y145635D01*
X88639Y145322D01*
X88952Y144697D01*
Y143447D01*
X88639Y142822D01*
X88327Y142510D01*
X87702Y142197D01*
X85827D01*
Y152197D02*
Y155947D01*
X87702D01*
X88327Y155635D01*
X88639Y155322D01*
X88952Y154697D01*
Y153447D01*
X88639Y152822D01*
X88327Y152510D01*
X87702Y152197D01*
X85827D01*
Y162197D02*
Y165947D01*
X87702D01*
X88327Y165635D01*
X88639Y165322D01*
X88952Y164697D01*
Y163447D01*
X88639Y162822D01*
X88327Y162510D01*
X87702Y162197D01*
X85827D01*
X89921Y54363D02*
X91484Y58113D01*
X93046Y54363D01*
X90546Y55925D02*
X92421D01*
X89921Y174048D02*
X91484Y177798D01*
X93046Y174048D01*
X90546Y175610D02*
X92421D01*
X92677Y192945D02*
X94240Y196695D01*
X95802Y192945D01*
X93302Y194508D02*
X95177D01*
X94646Y93733D02*
X96208Y97483D01*
X97771Y93733D01*
X95271Y95295D02*
X97146D01*
X94646Y205150D02*
X96208Y208900D01*
X97771Y205150D01*
X95271Y206713D02*
X97146D01*
X94646Y226410D02*
X96208Y230160D01*
X97771Y226410D01*
X95271Y227972D02*
X97146D01*
X95039Y26016D02*
X96602Y29766D01*
X98165Y26016D01*
X95665Y27579D02*
X97539D01*
X95827Y127197D02*
Y130947D01*
X97702D01*
X98327Y130635D01*
X98639Y130322D01*
X98952Y129697D01*
Y128447D01*
X98639Y127822D01*
X98327Y127510D01*
X97702Y127197D01*
X95827D01*
Y137197D02*
Y140947D01*
X97702D01*
X98327Y140635D01*
X98639Y140322D01*
X98952Y139697D01*
Y138447D01*
X98639Y137822D01*
X98327Y137510D01*
X97702Y137197D01*
X95827D01*
Y147197D02*
Y150947D01*
X97702D01*
X98327Y150635D01*
X98639Y150322D01*
X98952Y149697D01*
Y148447D01*
X98639Y147822D01*
X98327Y147510D01*
X97702Y147197D01*
X95827D01*
Y157197D02*
Y160947D01*
X97702D01*
X98327Y160635D01*
X98639Y160322D01*
X98952Y159697D01*
Y158447D01*
X98639Y157822D01*
X98327Y157510D01*
X97702Y157197D01*
X95827D01*
X100945Y179559D02*
X102507Y183309D01*
X104070Y179559D01*
X101570Y181122D02*
X103445D01*
X102520Y100426D02*
X104082Y104176D01*
X105645Y100426D01*
X103145Y101988D02*
X105020D01*
X111969Y98457D02*
X113531Y102207D01*
X115094Y98457D01*
X112594Y100020D02*
X114469D01*
X120827Y122193D02*
Y125943D01*
X123952D01*
X123327Y124069D02*
X120827D01*
Y122193D02*
X123952D01*
X120827Y167201D02*
Y170951D01*
X123952D01*
X123327Y169076D02*
X120827D01*
Y167201D02*
X123952D01*
X121024Y65386D02*
X122586Y69136D01*
X124149Y65386D01*
X121649Y66949D02*
X123524D01*
X121024Y89008D02*
X122586Y92758D01*
X124149Y89008D01*
X121649Y90571D02*
X123524D01*
X121024Y108693D02*
X122586Y112443D01*
X124149Y108693D01*
X121649Y110256D02*
X123524D01*
X121024Y144126D02*
X122586Y147876D01*
X124149Y144126D01*
X121649Y145689D02*
X123524D01*
X130691Y31828D02*
X131317Y31516D01*
X131629Y30891D01*
X131317Y30266D01*
X130691Y29953D01*
X128504D01*
Y33703D01*
X130691D01*
X131317Y33391D01*
X131629Y32766D01*
X131317Y32141D01*
X130691Y31828D01*
X128504D01*
X130691Y260175D02*
X131317Y259862D01*
X131629Y259237D01*
X131317Y258612D01*
X130691Y258300D01*
X128504D01*
Y262050D01*
X130691D01*
X131317Y261737D01*
X131629Y261112D01*
X131317Y260487D01*
X130691Y260175D01*
X128504D01*
X129685Y205544D02*
X131248Y209294D01*
X132810Y205544D01*
X130310Y207106D02*
X132185D01*
X142283Y65386D02*
X143846Y69136D01*
X145409Y65386D01*
X142909Y66949D02*
X144783D01*
X142283Y89008D02*
X143846Y92758D01*
X145409Y89008D01*
X142909Y90571D02*
X144783D01*
X142283Y108693D02*
X143846Y112443D01*
X145409Y108693D01*
X142909Y110256D02*
X144783D01*
X142283Y144126D02*
X143846Y147876D01*
X145409Y144126D01*
X142909Y145689D02*
X144783D01*
X0Y0D02*
M02*
