G05
M48
;#@! TF.GenerationSoftware,DesignSpark,DesignSpark PCB PRO,10.0.5344
;#@! TF.CreationDate,2023-01-09T14:32:32+00:00*
;#@! TF.FileFunction,Plated,1,2,PTH
;FILE_FORMAT=3:5
;TYPE=PLATED
INCH,TZ
FMAT,2
T1C000.01969
T2C000.03150
T3C000.04094
%
T001
X0.25841Y0.13636
X0.25841Y0.45526
X0.25841Y0.73085
X0.25841Y1.00644
X0.25841Y2.14423
X0.25841Y2.38439
X0.25841Y2.62061
X0.33715Y1.99856
X0.44344Y1.05368
X0.45919Y2.26234
X0.46707Y1.89719
X0.49463Y2.09305
X0.61667Y2.17573
X0.63636Y0.13636
X0.63636Y0.45526
X0.63636Y0.73085
X0.63636Y2.38439
X0.63636Y2.62061
X0.64030Y1.00644
T002
X0.43163Y0.64030
X0.43163Y0.71904
X0.43163Y0.79778
X0.43163Y0.87652
T003
X0.44581Y1.12848
X0.44581Y1.22848
X0.44581Y1.32848
X0.44581Y1.42848
X0.44581Y1.52848
X0.44581Y1.62848
X0.54581Y1.12848
X0.54581Y1.22848
X0.54581Y1.32848
X0.54581Y1.42848
X0.54581Y1.52848
X0.54581Y1.62848
M30
