G04 DesignSpark PCB PRO Gerber Version 10.0 Build 5299*
G04 #@! TF.Part,Single*
G04 #@! TF.FileFunction,Soldermask,Top*
G04 #@! TF.FilePolarity,Negative*
%FSLAX35Y35*%
%MOIN*%
G04 #@! TA.AperFunction,SMDPad,CuDef*
%ADD19R,0.04937X0.05291*%
G04 #@! TA.AperFunction,ComponentPad*
%ADD134C,0.06512*%
%ADD14C,0.07102*%
G04 #@! TA.AperFunction,WasherPad*
%ADD13C,0.13598*%
G04 #@! TA.AperFunction,SMDPad,CuDef*
%ADD27R,0.06118X0.04150*%
%ADD18R,0.05291X0.04937*%
%ADD28R,0.12811X0.09268*%
G04 #@! TD.AperFunction*
X0Y0D02*
D02*
D13*
X47494Y23872D03*
Y252219D03*
D02*
D14*
X44581Y112848D03*
Y122848D03*
Y132848D03*
Y142848D03*
Y152848D03*
Y162848D03*
X54581Y112848D03*
Y122848D03*
Y132848D03*
Y142848D03*
Y152848D03*
Y162848D03*
D02*
D18*
X12104Y249069D03*
Y256156D03*
X19104Y249069D03*
Y256156D03*
D02*
D19*
X51825Y224703D03*
Y231703D03*
X58124Y224703D03*
Y231703D03*
D02*
D27*
X41620Y184797D03*
Y189719D03*
Y194640D03*
Y199561D03*
Y204482D03*
Y209404D03*
Y214325D03*
Y219246D03*
D02*
D28*
X30793Y174758D03*
Y229285D03*
D02*
D134*
X43163Y64030D03*
Y71904D03*
Y79778D03*
Y87652D03*
X0Y0D02*
M02*
