G04 DesignSpark PCB PRO Gerber Version 10.0 Build 5299*
G04 #@! TF.Part,Single*
G04 #@! TF.FileFunction,Paste,Top*
G04 #@! TF.FilePolarity,Positive*
%FSLAX36Y36*%
%MOIN*%
G04 #@! TA.AperFunction,SMDPad,CuDef*
%ADD141R,0.01063X0.05394*%
%ADD102R,0.02835X0.04213*%
%ADD146R,0.03118X0.10717*%
%ADD105R,0.03543X0.03898*%
%ADD147R,0.04252X0.05827*%
%ADD100R,0.04950X0.05450*%
%ADD143R,0.05669X0.15118*%
%ADD145R,0.07972X0.18012*%
%ADD148R,0.11693X0.11693*%
%ADD109R,0.03012X0.03012*%
%ADD110R,0.03366X0.03366*%
%ADD150R,0.03386X0.01417*%
%ADD142R,0.04685X0.02126*%
%ADD144R,0.04213X0.02835*%
%ADD103R,0.03898X0.03543*%
%ADD149R,0.05450X0.04950*%
G04 #@! TD.AperFunction*
X0Y0D02*
D02*
D100*
X917323Y1781772D03*
Y1871772D03*
X996063Y1781772D03*
Y1871772D03*
D02*
D102*
X1035433Y2285433D03*
Y2423228D03*
D02*
D103*
X539803Y2401575D03*
X609803D03*
X642165Y2192913D03*
X712165D03*
X862638Y2374016D03*
X932638D03*
D02*
D105*
X381890Y602795D03*
Y672795D03*
Y732717D03*
Y802717D03*
X700787Y2504370D03*
Y2574370D03*
X803150Y2374449D03*
Y2444449D03*
X814961Y701220D03*
Y771220D03*
X826772Y988622D03*
Y1058622D03*
Y1118543D03*
Y1188543D03*
Y1248465D03*
Y1318465D03*
X897638Y701220D03*
Y771220D03*
X944882Y1067362D03*
Y1137362D03*
Y1197283D03*
Y1267283D03*
Y1327205D03*
Y1397205D03*
X1259843Y378386D03*
Y448386D03*
X1334646Y527992D03*
Y597992D03*
Y657913D03*
Y727913D03*
Y2031929D03*
Y2101929D03*
Y2161850D03*
Y2231850D03*
D02*
D109*
X415354Y988189D03*
X452756Y909449D03*
X490157Y988189D03*
X838583Y1478346D03*
Y1553150D03*
X917323Y1515748D03*
D02*
D110*
X702756Y2641732D03*
X761811D03*
D02*
D141*
X452756Y618110D03*
Y791339D03*
X472441Y618110D03*
Y791339D03*
X492126Y618110D03*
Y791339D03*
X511811Y618110D03*
Y791339D03*
X531496Y618110D03*
Y791339D03*
D02*
D142*
X627953Y2261811D03*
Y2299213D03*
Y2336614D03*
X726378Y2261811D03*
Y2299213D03*
Y2336614D03*
D02*
D143*
X397638Y1984252D03*
Y2228346D03*
D02*
D144*
X627953Y2118110D03*
X765748D03*
X797244Y2224409D03*
X935039D03*
D02*
D145*
X649606Y1964567D03*
X807087D03*
D02*
D146*
X1097047Y1866142D03*
X1225787D03*
D02*
D147*
X1027724Y586835D03*
X1118276D03*
X1208827D03*
D02*
D148*
X1118276Y838803D03*
D02*
D149*
X1163661Y960630D03*
X1253661D03*
D02*
D150*
X657480Y637795D03*
X720472Y618110D03*
Y657480D03*
X0Y0D02*
M02*
