G04 DesignSpark PCB PRO Gerber Version 10.0 Build 5299*
G04 #@! TF.Part,Single*
G04 #@! TF.FileFunction,Drillmap*
G04 #@! TF.FilePolarity,Positive*
%FSLAX36Y36*%
%MOIN*%
%ADD17C,0.00500*%
G04 #@! TA.AperFunction,ViaPad*
%ADD16C,0.10000*%
G04 #@! TD.AperFunction*
X0Y0D02*
D02*
D16*
X181102Y429134D03*
Y688976D03*
Y948819D03*
Y1208661D03*
X216535Y1811024D03*
X279528Y240157D03*
Y2523622D03*
X330709Y673228D03*
Y732283D03*
X334646Y161417D03*
X356299Y1155079D03*
Y1605157D03*
X358268Y1767717D03*
X393701Y1370079D03*
X397638Y1881890D03*
Y2106299D03*
X452756Y1039370D03*
X492126Y1350394D03*
X531496Y692913D03*
X594488Y161417D03*
X598425Y618110D03*
X602362Y2503937D03*
X606299Y1255118D03*
Y1355118D03*
Y1455118D03*
Y1555118D03*
X653543Y1751969D03*
X706299Y1205118D03*
Y1305118D03*
Y1405118D03*
Y1505118D03*
X771654Y988189D03*
X818898Y2118110D03*
X854331Y161417D03*
Y2299213D03*
Y2444882D03*
X889764Y1397205D03*
X917323Y1720472D03*
X944882Y1015748D03*
X960630Y1649606D03*
X968504Y1515748D03*
X996063Y1720472D03*
X1027559Y523622D03*
X1043307Y2653543D03*
X1102362Y960630D03*
X1114173Y161417D03*
X1155906Y1131890D03*
Y1231890D03*
Y1331890D03*
Y1431890D03*
Y1531890D03*
Y1631890D03*
X1185039Y240157D03*
Y2523622D03*
X1208661Y669291D03*
X1225787Y1765157D03*
X1255906Y1131890D03*
Y1231890D03*
Y1331890D03*
Y1431890D03*
Y1531890D03*
Y1631890D03*
X1311024Y377953D03*
X1334646Y2283465D03*
D02*
D17*
X281102Y488508D02*
X296728Y526008D01*
X312354Y488508D01*
X287354Y504134D02*
X306102D01*
X281102Y748350D02*
X296728Y785850D01*
X312354Y748350D01*
X287354Y763976D02*
X306102D01*
X281102Y1008193D02*
X296728Y1045693D01*
X312354Y1008193D01*
X287354Y1023819D02*
X306102D01*
X281102Y1268035D02*
X296728Y1305535D01*
X312354Y1268035D01*
X287354Y1283661D02*
X306102D01*
X316535Y1870398D02*
X332161Y1907898D01*
X347787Y1870398D01*
X322787Y1886024D02*
X341535D01*
X379528Y299531D02*
Y337031D01*
X410780D01*
X404528Y318283D02*
X379528D01*
Y2582996D02*
Y2620496D01*
X410780D01*
X404528Y2601748D02*
X379528D01*
X430709Y732602D02*
X446335Y770102D01*
X461961Y732602D01*
X436961Y748228D02*
X455709D01*
X430709Y791657D02*
X446335Y829157D01*
X461961Y791657D01*
X436961Y807283D02*
X455709D01*
X434646Y220791D02*
X450272Y258291D01*
X465898Y220791D01*
X440898Y236417D02*
X459646D01*
X456299Y1214453D02*
Y1251953D01*
X478173D01*
X484425Y1248831D01*
X487551Y1242579D01*
X484425Y1236331D01*
X478173Y1233205D01*
X456299D01*
Y1664531D02*
Y1702031D01*
X478173D01*
X484425Y1698909D01*
X487551Y1692657D01*
X484425Y1686409D01*
X478173Y1683283D01*
X456299D01*
X458268Y1827091D02*
X473894Y1864591D01*
X489520Y1827091D01*
X464520Y1842717D02*
X483268D01*
X493701Y1429453D02*
X509327Y1466953D01*
X524953Y1429453D01*
X499953Y1445079D02*
X518701D01*
X497638Y1941264D02*
X513264Y1978764D01*
X528890Y1941264D01*
X503890Y1956890D02*
X522638D01*
X497638Y2165673D02*
X513264Y2203173D01*
X528890Y2165673D01*
X503890Y2181299D02*
X522638D01*
X552756Y1098744D02*
X568382Y1136244D01*
X584008Y1098744D01*
X559008Y1114370D02*
X577756D01*
X592126Y1409768D02*
X607752Y1447268D01*
X623378Y1409768D01*
X598378Y1425394D02*
X617126D01*
X631496Y752287D02*
X647122Y789787D01*
X662748Y752287D01*
X637748Y767913D02*
X656496D01*
X694488Y220791D02*
X710114Y258291D01*
X725740Y220791D01*
X700740Y236417D02*
X719488D01*
X698425Y677484D02*
X714051Y714984D01*
X729677Y677484D01*
X704677Y693110D02*
X723425D01*
X702362Y2563311D02*
X717988Y2600811D01*
X733614Y2563311D01*
X708614Y2578937D02*
X727362D01*
X706299Y1326992D02*
Y1339492D01*
X709425Y1345744D01*
X712551Y1348870D01*
X718799Y1351992D01*
X725051D01*
X731299Y1348870D01*
X734425Y1345744D01*
X737551Y1339492D01*
Y1326992D01*
X734425Y1320744D01*
X731299Y1317618D01*
X725051Y1314492D01*
X718799D01*
X712551Y1317618D01*
X709425Y1320744D01*
X706299Y1326992D01*
Y1426992D02*
Y1439492D01*
X709425Y1445744D01*
X712551Y1448870D01*
X718799Y1451992D01*
X725051D01*
X731299Y1448870D01*
X734425Y1445744D01*
X737551Y1439492D01*
Y1426992D01*
X734425Y1420744D01*
X731299Y1417618D01*
X725051Y1414492D01*
X718799D01*
X712551Y1417618D01*
X709425Y1420744D01*
X706299Y1426992D01*
Y1526992D02*
Y1539492D01*
X709425Y1545744D01*
X712551Y1548870D01*
X718799Y1551992D01*
X725051D01*
X731299Y1548870D01*
X734425Y1545744D01*
X737551Y1539492D01*
Y1526992D01*
X734425Y1520744D01*
X731299Y1517618D01*
X725051Y1514492D01*
X718799D01*
X712551Y1517618D01*
X709425Y1520744D01*
X706299Y1526992D01*
Y1626992D02*
Y1639492D01*
X709425Y1645744D01*
X712551Y1648870D01*
X718799Y1651992D01*
X725051D01*
X731299Y1648870D01*
X734425Y1645744D01*
X737551Y1639492D01*
Y1626992D01*
X734425Y1620744D01*
X731299Y1617618D01*
X725051Y1614492D01*
X718799D01*
X712551Y1617618D01*
X709425Y1620744D01*
X706299Y1626992D01*
X753543Y1811343D02*
X769169Y1848843D01*
X784795Y1811343D01*
X759795Y1826969D02*
X778543D01*
X806299Y1276992D02*
Y1289492D01*
X809425Y1295744D01*
X812551Y1298870D01*
X818799Y1301992D01*
X825051D01*
X831299Y1298870D01*
X834425Y1295744D01*
X837551Y1289492D01*
Y1276992D01*
X834425Y1270744D01*
X831299Y1267618D01*
X825051Y1264492D01*
X818799D01*
X812551Y1267618D01*
X809425Y1270744D01*
X806299Y1276992D01*
Y1376992D02*
Y1389492D01*
X809425Y1395744D01*
X812551Y1398870D01*
X818799Y1401992D01*
X825051D01*
X831299Y1398870D01*
X834425Y1395744D01*
X837551Y1389492D01*
Y1376992D01*
X834425Y1370744D01*
X831299Y1367618D01*
X825051Y1364492D01*
X818799D01*
X812551Y1367618D01*
X809425Y1370744D01*
X806299Y1376992D01*
Y1476992D02*
Y1489492D01*
X809425Y1495744D01*
X812551Y1498870D01*
X818799Y1501992D01*
X825051D01*
X831299Y1498870D01*
X834425Y1495744D01*
X837551Y1489492D01*
Y1476992D01*
X834425Y1470744D01*
X831299Y1467618D01*
X825051Y1464492D01*
X818799D01*
X812551Y1467618D01*
X809425Y1470744D01*
X806299Y1476992D01*
Y1576992D02*
Y1589492D01*
X809425Y1595744D01*
X812551Y1598870D01*
X818799Y1601992D01*
X825051D01*
X831299Y1598870D01*
X834425Y1595744D01*
X837551Y1589492D01*
Y1576992D01*
X834425Y1570744D01*
X831299Y1567618D01*
X825051Y1564492D01*
X818799D01*
X812551Y1567618D01*
X809425Y1570744D01*
X806299Y1576992D01*
X871654Y1047563D02*
X887280Y1085063D01*
X902906Y1047563D01*
X877906Y1063189D02*
X896654D01*
X918898Y2177484D02*
X934524Y2214984D01*
X950150Y2177484D01*
X925150Y2193110D02*
X943898D01*
X954331Y220791D02*
X969957Y258291D01*
X985583Y220791D01*
X960583Y236417D02*
X979331D01*
X954331Y2358587D02*
X969957Y2396087D01*
X985583Y2358587D01*
X960583Y2374213D02*
X979331D01*
X954331Y2504256D02*
X969957Y2541756D01*
X985583Y2504256D01*
X960583Y2519882D02*
X979331D01*
X989764Y1456579D02*
X1005390Y1494079D01*
X1021016Y1456579D01*
X996016Y1472205D02*
X1014764D01*
X1017323Y1779846D02*
X1032949Y1817346D01*
X1048575Y1779846D01*
X1023575Y1795472D02*
X1042323D01*
X1044882Y1075122D02*
X1060508Y1112622D01*
X1076134Y1075122D01*
X1051134Y1090748D02*
X1069882D01*
X1060630Y1708980D02*
X1076256Y1746480D01*
X1091882Y1708980D01*
X1066882Y1724606D02*
X1085630D01*
X1068504Y1575122D02*
X1084130Y1612622D01*
X1099756Y1575122D01*
X1074756Y1590748D02*
X1093504D01*
X1096063Y1779846D02*
X1111689Y1817346D01*
X1127315Y1779846D01*
X1102315Y1795472D02*
X1121063D01*
X1127559Y582996D02*
X1143185Y620496D01*
X1158811Y582996D01*
X1133811Y598622D02*
X1152559D01*
X1143307Y2712917D02*
X1158933Y2750417D01*
X1174559Y2712917D01*
X1149559Y2728543D02*
X1168307D01*
X1202362Y1020004D02*
X1217988Y1057504D01*
X1233614Y1020004D01*
X1208614Y1035630D02*
X1227362D01*
X1214173Y220791D02*
X1229799Y258291D01*
X1245425Y220791D01*
X1220425Y236417D02*
X1239173D01*
X1277780Y1206890D02*
X1287157D01*
Y1203764D01*
X1284031Y1197516D01*
X1280906Y1194390D01*
X1274657Y1191264D01*
X1268406D01*
X1262157Y1194390D01*
X1259031Y1197516D01*
X1255906Y1203764D01*
Y1216264D01*
X1259031Y1222516D01*
X1262157Y1225642D01*
X1268406Y1228764D01*
X1274657D01*
X1280906Y1225642D01*
X1284031Y1222516D01*
X1287157Y1216264D01*
X1277780Y1306890D02*
X1287157D01*
Y1303764D01*
X1284031Y1297516D01*
X1280906Y1294390D01*
X1274657Y1291264D01*
X1268406D01*
X1262157Y1294390D01*
X1259031Y1297516D01*
X1255906Y1303764D01*
Y1316264D01*
X1259031Y1322516D01*
X1262157Y1325642D01*
X1268406Y1328764D01*
X1274657D01*
X1280906Y1325642D01*
X1284031Y1322516D01*
X1287157Y1316264D01*
X1277780Y1406890D02*
X1287157D01*
Y1403764D01*
X1284031Y1397516D01*
X1280906Y1394390D01*
X1274657Y1391264D01*
X1268406D01*
X1262157Y1394390D01*
X1259031Y1397516D01*
X1255906Y1403764D01*
Y1416264D01*
X1259031Y1422516D01*
X1262157Y1425642D01*
X1268406Y1428764D01*
X1274657D01*
X1280906Y1425642D01*
X1284031Y1422516D01*
X1287157Y1416264D01*
X1277780Y1506890D02*
X1287157D01*
Y1503764D01*
X1284031Y1497516D01*
X1280906Y1494390D01*
X1274657Y1491264D01*
X1268406D01*
X1262157Y1494390D01*
X1259031Y1497516D01*
X1255906Y1503764D01*
Y1516264D01*
X1259031Y1522516D01*
X1262157Y1525642D01*
X1268406Y1528764D01*
X1274657D01*
X1280906Y1525642D01*
X1284031Y1522516D01*
X1287157Y1516264D01*
X1277780Y1606890D02*
X1287157D01*
Y1603764D01*
X1284031Y1597516D01*
X1280906Y1594390D01*
X1274657Y1591264D01*
X1268406D01*
X1262157Y1594390D01*
X1259031Y1597516D01*
X1255906Y1603764D01*
Y1616264D01*
X1259031Y1622516D01*
X1262157Y1625642D01*
X1268406Y1628764D01*
X1274657D01*
X1280906Y1625642D01*
X1284031Y1622516D01*
X1287157Y1616264D01*
X1277780Y1706890D02*
X1287157D01*
Y1703764D01*
X1284031Y1697516D01*
X1280906Y1694390D01*
X1274657Y1691264D01*
X1268406D01*
X1262157Y1694390D01*
X1259031Y1697516D01*
X1255906Y1703764D01*
Y1716264D01*
X1259031Y1722516D01*
X1262157Y1725642D01*
X1268406Y1728764D01*
X1274657D01*
X1280906Y1725642D01*
X1284031Y1722516D01*
X1287157Y1716264D01*
X1285039Y299531D02*
Y337031D01*
X1316291D01*
X1310039Y318283D02*
X1285039D01*
Y2582996D02*
Y2620496D01*
X1316291D01*
X1310039Y2601748D02*
X1285039D01*
X1308661Y728665D02*
Y766165D01*
Y747417D02*
X1318035D01*
X1339913Y766165D01*
X1318035Y747417D02*
X1339913Y728665D01*
X1325787Y1824531D02*
Y1862031D01*
Y1843283D02*
X1335161D01*
X1357039Y1862031D01*
X1335161Y1843283D02*
X1357039Y1824531D01*
X1377780Y1206890D02*
X1387157D01*
Y1203764D01*
X1384031Y1197516D01*
X1380906Y1194390D01*
X1374657Y1191264D01*
X1368406D01*
X1362157Y1194390D01*
X1359031Y1197516D01*
X1355906Y1203764D01*
Y1216264D01*
X1359031Y1222516D01*
X1362157Y1225642D01*
X1368406Y1228764D01*
X1374657D01*
X1380906Y1225642D01*
X1384031Y1222516D01*
X1387157Y1216264D01*
X1377780Y1306890D02*
X1387157D01*
Y1303764D01*
X1384031Y1297516D01*
X1380906Y1294390D01*
X1374657Y1291264D01*
X1368406D01*
X1362157Y1294390D01*
X1359031Y1297516D01*
X1355906Y1303764D01*
Y1316264D01*
X1359031Y1322516D01*
X1362157Y1325642D01*
X1368406Y1328764D01*
X1374657D01*
X1380906Y1325642D01*
X1384031Y1322516D01*
X1387157Y1316264D01*
X1377780Y1406890D02*
X1387157D01*
Y1403764D01*
X1384031Y1397516D01*
X1380906Y1394390D01*
X1374657Y1391264D01*
X1368406D01*
X1362157Y1394390D01*
X1359031Y1397516D01*
X1355906Y1403764D01*
Y1416264D01*
X1359031Y1422516D01*
X1362157Y1425642D01*
X1368406Y1428764D01*
X1374657D01*
X1380906Y1425642D01*
X1384031Y1422516D01*
X1387157Y1416264D01*
X1377780Y1506890D02*
X1387157D01*
Y1503764D01*
X1384031Y1497516D01*
X1380906Y1494390D01*
X1374657Y1491264D01*
X1368406D01*
X1362157Y1494390D01*
X1359031Y1497516D01*
X1355906Y1503764D01*
Y1516264D01*
X1359031Y1522516D01*
X1362157Y1525642D01*
X1368406Y1528764D01*
X1374657D01*
X1380906Y1525642D01*
X1384031Y1522516D01*
X1387157Y1516264D01*
X1377780Y1606890D02*
X1387157D01*
Y1603764D01*
X1384031Y1597516D01*
X1380906Y1594390D01*
X1374657Y1591264D01*
X1368406D01*
X1362157Y1594390D01*
X1359031Y1597516D01*
X1355906Y1603764D01*
Y1616264D01*
X1359031Y1622516D01*
X1362157Y1625642D01*
X1368406Y1628764D01*
X1374657D01*
X1380906Y1625642D01*
X1384031Y1622516D01*
X1387157Y1616264D01*
X1377780Y1706890D02*
X1387157D01*
Y1703764D01*
X1384031Y1697516D01*
X1380906Y1694390D01*
X1374657Y1691264D01*
X1368406D01*
X1362157Y1694390D01*
X1359031Y1697516D01*
X1355906Y1703764D01*
Y1716264D01*
X1359031Y1722516D01*
X1362157Y1725642D01*
X1368406Y1728764D01*
X1374657D01*
X1380906Y1725642D01*
X1384031Y1722516D01*
X1387157Y1716264D01*
X1411024Y437327D02*
X1426650Y474827D01*
X1442276Y437327D01*
X1417276Y452953D02*
X1436024D01*
X1434646Y2342839D02*
X1450272Y2380339D01*
X1465898Y2342839D01*
X1440898Y2358465D02*
X1459646D01*
X0Y0D02*
M02*
