G04 DesignSpark PCB PRO Gerber Version 10.0 Build 5299*
G04 #@! TF.Part,Single*
G04 #@! TF.FileFunction,Legend,Top*
G04 #@! TF.FilePolarity,Positive*
%FSLAX35Y35*%
%MOIN*%
%ADD72C,0.00100*%
%ADD126C,0.00197*%
%ADD29C,0.00394*%
%ADD28C,0.00500*%
%ADD10C,0.00787*%
G04 #@! TD.AperFunction*
X0Y0D02*
D02*
D10*
X31890Y226969D02*
X23425Y220472D01*
Y194291D01*
X31890D01*
X43307Y59055D02*
Y64567D01*
Y65945D02*
Y75000D01*
X55118D01*
Y65945D01*
X43307D01*
X47638Y226969D02*
X56102Y220472D01*
Y194291D01*
X47638D01*
X60531Y214961D02*
X74980D01*
X61417Y219685D02*
X59843D01*
X53937Y225591D01*
Y229134D01*
X62992Y186614D02*
X82677D01*
X64390Y208661D02*
X74980D01*
X68799Y224213D02*
X66634D01*
Y235630D01*
X68799D01*
Y224213D01*
X73819Y60039D02*
X70276D01*
X75098Y223622D02*
X70177D01*
X76181Y267421D02*
X67028D01*
Y260925D01*
X76181D01*
X77461Y225591D02*
X91909D01*
X81319Y219291D02*
X91909D01*
X82677Y206299D02*
X62992D01*
X100394Y240728D02*
Y230138D01*
X106693Y244587D02*
Y230138D01*
X116142Y191291D02*
Y181937D01*
X125591Y167913D02*
G75*
G02*
Y167520I0J-197D01*
G01*
Y167913D02*
G75*
G02*
Y167520I0J-197D01*
G01*
G75*
G02*
Y167913I0J197D01*
G01*
D02*
D28*
X21260Y103137D02*
X21572Y102825D01*
X22197Y102512D01*
X22822Y102825D01*
X23135Y103137D01*
Y106262D01*
X23760D01*
X23135D02*
X21885D01*
X26885Y102512D02*
X28135D01*
X27510D02*
Y106262D01*
X26885Y105637D01*
X24803Y7699D02*
Y8012D01*
X25116Y8949D01*
X25428Y9262D01*
X26053Y9574D01*
X26678D01*
X27303Y9262D01*
X27616Y8949D01*
X27928Y8012D01*
Y7699D01*
X27616Y7074D01*
X27303Y6762D01*
X26678Y6449D01*
X26053D01*
X25428Y6762D01*
X25116Y7074D01*
X24803Y7699D01*
X26991D02*
X26366Y7387D01*
X25741Y7699D01*
Y8324D01*
X26366Y8637D01*
X26991Y8324D01*
X34803Y6449D02*
Y10199D01*
X36991D01*
X37616Y9887D01*
X37928Y9262D01*
X37616Y8637D01*
X36991Y8324D01*
X34803D01*
X36991D02*
X37928Y6449D01*
X39803Y7387D02*
X40116Y6762D01*
X40741Y6449D01*
X41991D01*
X42616Y6762D01*
X42928Y7387D01*
X42616Y8012D01*
X41991Y8324D01*
X40741D01*
X40116Y8637D01*
X39803Y9262D01*
X40116Y9887D01*
X40741Y10199D01*
X41991D01*
X42616Y9887D01*
X42928Y9262D01*
X52928Y7074D02*
X52616Y6762D01*
X51991Y6449D01*
X51053D01*
X50428Y6762D01*
X50116Y7074D01*
X49803Y7699D01*
Y8949D01*
X50116Y9574D01*
X50428Y9887D01*
X51053Y10199D01*
X51991D01*
X52616Y9887D01*
X52928Y9574D01*
X54803Y7387D02*
X55116Y6762D01*
X55741Y6449D01*
X56366D01*
X56991Y6762D01*
X57303Y7387D01*
Y8012D01*
X56991Y8637D01*
X56366Y8949D01*
X55741D01*
X55116Y8637D01*
X54803Y8012D01*
Y7387D01*
X59803Y6449D02*
Y8949D01*
Y8637D02*
X60116Y8949D01*
X60741D01*
X61053Y8637D01*
Y7699D01*
Y8637D02*
X61366Y8949D01*
X61991D01*
X62303Y8637D01*
Y6449D01*
X64803Y8949D02*
Y5512D01*
Y7387D02*
X65116Y6762D01*
X65741Y6449D01*
X66366D01*
X66991Y6762D01*
X67303Y7387D01*
Y8012D01*
X66991Y8637D01*
X66366Y8949D01*
X65741D01*
X65116Y8637D01*
X64803Y8012D01*
Y7387D01*
X69803D02*
X70116Y6762D01*
X70741Y6449D01*
X71366D01*
X71991Y6762D01*
X72303Y7387D01*
Y8012D01*
X71991Y8637D01*
X71366Y8949D01*
X70741D01*
X70116Y8637D01*
X69803Y8012D01*
Y7387D01*
X74803Y6449D02*
Y8949D01*
Y8012D02*
X75116Y8637D01*
X75741Y8949D01*
X76366D01*
X76991Y8637D01*
X77303Y8012D01*
Y6449D01*
X82303Y6762D02*
X81991Y6449D01*
X81366D01*
X80741D01*
X80116Y6762D01*
X79803Y7387D01*
Y8324D01*
X80116Y8637D01*
X80741Y8949D01*
X81366D01*
X81991Y8637D01*
X82303Y8324D01*
Y8012D01*
X81991Y7699D01*
X81366Y7387D01*
X80741D01*
X80116Y7699D01*
X79803Y8012D01*
X84803Y6449D02*
Y8949D01*
Y8012D02*
X85116Y8637D01*
X85741Y8949D01*
X86366D01*
X86991Y8637D01*
X87303Y8012D01*
Y6449D01*
X90324Y8949D02*
X91782D01*
X91053Y9574D02*
Y6762D01*
X91366Y6449D01*
X91678D01*
X91991Y6762D01*
X94803D02*
X95428Y6449D01*
X96678D01*
X97303Y6762D01*
Y7387D01*
X96678Y7699D01*
X95428D01*
X94803Y8012D01*
Y8637D01*
X95428Y8949D01*
X96678D01*
X97303Y8637D01*
X107303Y6449D02*
X104803D01*
X106991Y8637D01*
X107303Y9262D01*
X106991Y9887D01*
X106366Y10199D01*
X105428D01*
X104803Y9887D01*
X110116Y6762D02*
X110741Y6449D01*
X111366D01*
X111991Y6762D01*
X112303Y7387D01*
Y9262D01*
X111991Y9887D01*
X111366Y10199D01*
X110741D01*
X110116Y9887D01*
X109803Y9262D01*
Y7387D01*
X110116Y6762D01*
X111991Y9887D01*
X117303Y6449D02*
X114803D01*
X116991Y8637D01*
X117303Y9262D01*
X116991Y9887D01*
X116366Y10199D01*
X115428D01*
X114803Y9887D01*
X120116Y6762D02*
X120741Y6449D01*
X121366D01*
X121991Y6762D01*
X122303Y7387D01*
X121991Y8012D01*
X121366Y8324D01*
X120741D01*
X121366D02*
X121991Y8637D01*
X122303Y9262D01*
X121991Y9887D01*
X121366Y10199D01*
X120741D01*
X120116Y9887D01*
X31484Y61835D02*
X31171Y62148D01*
X30859Y62773D01*
Y63711D01*
X31171Y64335D01*
X31484Y64648D01*
X32109Y64961D01*
X33359D01*
X33984Y64648D01*
X34296Y64335D01*
X34609Y63711D01*
Y62773D01*
X34296Y62148D01*
X33984Y61835D01*
X30859Y58398D02*
X34609D01*
X32109Y59961D01*
Y57461D01*
X31484Y79158D02*
X31171Y79471D01*
X30859Y80096D01*
Y81033D01*
X31171Y81658D01*
X31484Y81971D01*
X32109Y82283D01*
X33359D01*
X33984Y81971D01*
X34296Y81658D01*
X34609Y81033D01*
Y80096D01*
X34296Y79471D01*
X33984Y79158D01*
X31171Y77283D02*
X30859Y76658D01*
Y75721D01*
X31171Y75096D01*
X31796Y74783D01*
X32109D01*
X32734Y75096D01*
X33046Y75721D01*
Y77283D01*
X34609D01*
Y74783D01*
X32958Y113148D02*
X33583Y116898D01*
X34833D02*
X34208Y113148D01*
X35145Y114086D02*
X32333D01*
X32645Y115961D02*
X35458D01*
X37958Y113148D02*
X39208D01*
X38583D02*
Y116898D01*
X37958Y116273D01*
X42645Y113461D02*
X43270Y113148D01*
X43895D01*
X44520Y113461D01*
X44833Y114086D01*
Y115961D01*
X44520Y116586D01*
X43895Y116898D01*
X43270D01*
X42645Y116586D01*
X42333Y115961D01*
Y114086D01*
X42645Y113461D01*
X44520Y116586D01*
X32958Y158156D02*
X33583Y161906D01*
X34833D02*
X34208Y158156D01*
X35145Y159094D02*
X32333D01*
X32645Y160969D02*
X35458D01*
X38270Y158156D02*
X38895Y158469D01*
X39520Y159094D01*
X39833Y160031D01*
Y160969D01*
X39520Y161594D01*
X38895Y161906D01*
X38270D01*
X37645Y161594D01*
X37333Y160969D01*
X37645Y160344D01*
X38270Y160031D01*
X38895D01*
X39520Y160344D01*
X39833Y160969D01*
X33002Y54467D02*
X32376Y54780D01*
X32064Y55404D01*
X32376Y56030D01*
X33002Y56342D01*
X35189D01*
Y52592D01*
X33002D01*
X32376Y52904D01*
X32064Y53530D01*
X32376Y54154D01*
X33002Y54467D01*
X35189D01*
Y63342D02*
X33626Y59592D01*
X32064Y63342D01*
X34564Y61780D02*
X32689D01*
X35539Y82922D02*
X40839D01*
Y70622D01*
X35539D01*
Y82922D01*
X38489Y20622D02*
X37864D01*
Y24372D01*
X38489D01*
X41614Y21872D02*
Y23122D01*
X41927Y23748D01*
X42239Y24060D01*
X42864Y24372D01*
X43489D01*
X44114Y24060D01*
X44427Y23748D01*
X44739Y23122D01*
Y21872D01*
X44427Y21248D01*
X44114Y20935D01*
X43489Y20622D01*
X42864D01*
X42239Y20935D01*
X41927Y21248D01*
X41614Y21872D01*
X46614Y21560D02*
X46927Y20935D01*
X47552Y20622D01*
X48802D01*
X49427Y20935D01*
X49739Y21560D01*
X49427Y22185D01*
X48802Y22498D01*
X47552D01*
X46927Y22810D01*
X46614Y23435D01*
X46927Y24060D01*
X47552Y24372D01*
X48802D01*
X49427Y24060D01*
X49739Y23435D01*
X51614Y20622D02*
Y24372D01*
Y22498D02*
X54739D01*
Y20622D02*
Y24372D01*
X56614D02*
X56927Y20622D01*
X58177Y22498D01*
X59427Y20622D01*
X59739Y24372D01*
X62239Y20622D02*
X62864D01*
Y24372D01*
X62239D01*
X71614D02*
Y21560D01*
X71927Y20935D01*
X72552Y20622D01*
X73802D01*
X74427Y20935D01*
X74739Y21560D01*
Y24372D01*
X76614Y20622D02*
Y24372D01*
Y22498D02*
X77552D01*
X79739Y24372D01*
X77552Y22498D02*
X79739Y20622D01*
X81927Y20935D02*
X82552Y20622D01*
X83177D01*
X83802Y20935D01*
X84114Y21560D01*
Y23435D01*
X83802Y24060D01*
X83177Y24372D01*
X82552D01*
X81927Y24060D01*
X81614Y23435D01*
Y21560D01*
X81927Y20935D01*
X83802Y24060D01*
X86927Y20935D02*
X87552Y20622D01*
X88177D01*
X88802Y20935D01*
X89114Y21560D01*
Y23435D01*
X88802Y24060D01*
X88177Y24372D01*
X87552D01*
X86927Y24060D01*
X86614Y23435D01*
Y21560D01*
X86927Y20935D01*
X88802Y24060D01*
X91927Y20935D02*
X92552Y20622D01*
X93177D01*
X93802Y20935D01*
X94114Y21560D01*
Y23435D01*
X93802Y24060D01*
X93177Y24372D01*
X92552D01*
X91927Y24060D01*
X91614Y23435D01*
Y21560D01*
X91927Y20935D01*
X93802Y24060D01*
X96927Y20935D02*
X97552Y20622D01*
X98177D01*
X98802Y20935D01*
X99114Y21560D01*
Y23435D01*
X98802Y24060D01*
X98177Y24372D01*
X97552D01*
X96927Y24060D01*
X96614Y23435D01*
Y21560D01*
X96927Y20935D01*
X98802Y24060D01*
X103177Y20622D02*
Y24372D01*
X101614Y21872D01*
X104114D01*
X106614Y20935D02*
X107239Y20622D01*
X108177D01*
X108802Y20935D01*
X109114Y21560D01*
Y21872D01*
X108802Y22498D01*
X108177Y22810D01*
X106614D01*
Y24372D01*
X109114D01*
X39114Y196213D02*
X36614D01*
X38802Y198401D01*
X39114Y199026D01*
X38802Y199651D01*
X38177Y199963D01*
X37239D01*
X36614Y199651D01*
X37239Y220622D02*
X38489D01*
X37864D02*
Y224372D01*
X37239Y223748D01*
X37402Y28103D02*
Y31853D01*
X40527D01*
X39902Y29978D02*
X37402D01*
Y28103D02*
X40527D01*
X42402Y29041D02*
X42714Y28415D01*
X43339Y28103D01*
X44589D01*
X45214Y28415D01*
X45527Y29041D01*
X45214Y29665D01*
X44589Y29978D01*
X43339D01*
X42714Y30291D01*
X42402Y30915D01*
X42714Y31541D01*
X43339Y31853D01*
X44589D01*
X45214Y31541D01*
X45527Y30915D01*
X47402Y28103D02*
Y31853D01*
X49277D01*
X49902Y31541D01*
X50214Y31228D01*
X50527Y30603D01*
Y29353D01*
X50214Y28728D01*
X49902Y28415D01*
X49277Y28103D01*
X47402D01*
X52402D02*
Y31853D01*
Y29978D02*
X53339D01*
X55527Y31853D01*
X53339Y29978D02*
X55527Y28103D01*
X57402Y29353D02*
X59902D01*
X65527Y28728D02*
X65214Y28415D01*
X64589Y28103D01*
X63652D01*
X63027Y28415D01*
X62714Y28728D01*
X62402Y29353D01*
Y30603D01*
X62714Y31228D01*
X63027Y31541D01*
X63652Y31853D01*
X64589D01*
X65214Y31541D01*
X65527Y31228D01*
X67402Y28103D02*
Y31853D01*
X69589D01*
X70214Y31541D01*
X70527Y30915D01*
X70214Y30291D01*
X69589Y29978D01*
X67402D01*
X69589D02*
X70527Y28103D01*
X72402D02*
Y31853D01*
X75527D01*
X74902Y29978D02*
X72402D01*
Y28103D02*
X75527D01*
X77402Y29353D02*
X79902D01*
X84589Y29978D02*
X85214Y29665D01*
X85527Y29041D01*
X85214Y28415D01*
X84589Y28103D01*
X82402D01*
Y31853D01*
X84589D01*
X85214Y31541D01*
X85527Y30915D01*
X85214Y30291D01*
X84589Y29978D01*
X82402D01*
X92402Y30603D02*
X93652Y28103D01*
X94902Y30603D01*
X98027Y28103D02*
X99277D01*
X98652D02*
Y31853D01*
X98027Y31228D01*
X102714Y28103D02*
X103027Y28415D01*
X102714Y28728D01*
X102402Y28415D01*
X102714Y28103D01*
X107714Y28415D02*
X108339Y28103D01*
X108964D01*
X109589Y28415D01*
X109902Y29041D01*
Y30915D01*
X109589Y31541D01*
X108964Y31853D01*
X108339D01*
X107714Y31541D01*
X107402Y30915D01*
Y29041D01*
X107714Y28415D01*
X109589Y31541D01*
X35689Y59342D02*
X38189D01*
X36002Y57154D01*
X35689Y56530D01*
X36002Y55904D01*
X36626Y55592D01*
X37564D01*
X38189Y55904D01*
X37564Y66342D02*
X36314D01*
X36939D02*
Y62592D01*
X37564Y63217D01*
X38814Y74209D02*
X40064D01*
X39439D02*
Y77959D01*
X38814Y77334D01*
X40689Y81209D02*
X38189D01*
X40376Y83397D01*
X40689Y84022D01*
X40376Y84647D01*
X39752Y84959D01*
X38814D01*
X38189Y84647D01*
X37362Y99555D02*
X39862D01*
X37675Y97367D01*
X37362Y96742D01*
X37675Y96117D01*
X38300Y95805D01*
X39237D01*
X39862Y96117D01*
X40839Y57630D02*
X35539D01*
Y69930D01*
X40839D01*
Y57630D01*
X41189Y77209D02*
X42752Y80959D01*
X44314Y77209D01*
X41814Y78772D02*
X43689D01*
X43376Y86084D02*
X44002Y85772D01*
X44314Y85147D01*
X44002Y84522D01*
X43376Y84209D01*
X41189D01*
Y87959D01*
X43376D01*
X44002Y87647D01*
X44314Y87022D01*
X44002Y86397D01*
X43376Y86084D01*
X41189D01*
X43290Y91368D02*
X42665Y91681D01*
X42040D01*
X41415Y91368D01*
X41102Y90743D01*
X41415Y90118D01*
X42040Y89806D01*
X42665D01*
X42040D02*
X41415Y89493D01*
X41102Y88868D01*
X41415Y88243D01*
X42040Y87931D01*
X42665D01*
X43290Y88243D01*
X45241Y61464D02*
X43991D01*
X44616D02*
Y57714D01*
X45241Y58339D01*
Y78787D02*
X43991D01*
X44616D02*
Y75037D01*
X45241Y75662D01*
X40554Y78474D02*
X39929Y78787D01*
X39304D01*
X38679Y78474D01*
X38366Y77849D01*
Y75974D01*
X38679Y75349D01*
X39304Y75037D01*
X39929D01*
X40554Y75349D01*
X40866Y75974D01*
Y77849D01*
X40554Y78474D01*
X38679Y75349D01*
X46717Y99555D02*
X45467D01*
X46093D02*
Y95805D01*
X46717Y96430D01*
X45335Y61464D02*
X47835D01*
X45647Y59276D01*
X45335Y58652D01*
X45647Y58026D01*
X46272Y57714D01*
X47209D01*
X47835Y58026D01*
X46897Y78787D02*
X46272Y78474D01*
X45647Y77849D01*
X45335Y76912D01*
Y75974D01*
X45647Y75349D01*
X46272Y75037D01*
X46897D01*
X47522Y75349D01*
X47835Y75974D01*
X47522Y76599D01*
X46897Y76912D01*
X46272D01*
X45647Y76599D01*
X45335Y75974D01*
X51157Y189358D02*
X50844Y189045D01*
X50219Y188733D01*
X49281D01*
X48657Y189045D01*
X48344Y189358D01*
X48031Y189983D01*
Y191233D01*
X48344Y191858D01*
X48657Y192170D01*
X49281Y192483D01*
X50219D01*
X50844Y192170D01*
X51157Y191858D01*
X53657Y188733D02*
X54907D01*
X54281D02*
Y192483D01*
X53657Y191858D01*
X49491Y61152D02*
X48866Y61464D01*
X48241D01*
X47616Y61152D01*
X47303Y60526D01*
X47616Y59902D01*
X48241Y59589D01*
X48866D01*
X48241D02*
X47616Y59276D01*
X47303Y58652D01*
X47616Y58026D01*
X48241Y57714D01*
X48866D01*
X49491Y58026D01*
X48866Y76912D02*
X48241D01*
X47616Y76599D01*
X47303Y75974D01*
X47616Y75349D01*
X48241Y75037D01*
X48866D01*
X49491Y75349D01*
X49803Y75974D01*
X49491Y76599D01*
X48866Y76912D01*
X49491Y77224D01*
X49803Y77849D01*
X49491Y78474D01*
X48866Y78787D01*
X48241D01*
X47616Y78474D01*
X47303Y77849D01*
X47616Y77224D01*
X48241Y76912D01*
X53125Y230696D02*
X52813Y230384D01*
X52187Y230071D01*
X51250D01*
X50625Y230384D01*
X50313Y230696D01*
X50000Y231321D01*
Y232571D01*
X50313Y233196D01*
X50625Y233509D01*
X51250Y233821D01*
X52187D01*
X52813Y233509D01*
X53125Y233196D01*
X57500Y230071D02*
X55000D01*
X57187Y232259D01*
X57500Y232884D01*
X57187Y233509D01*
X56563Y233821D01*
X55625D01*
X55000Y233509D01*
X48168Y245345D02*
X48480Y245970D01*
X49105Y246283D01*
X49730Y245970D01*
X50043Y245345D01*
Y243157D01*
X46293D01*
Y245345D01*
X46605Y245970D01*
X47230Y246283D01*
X47855Y245970D01*
X48168Y245345D01*
Y243157D01*
X51330Y237507D02*
Y242807D01*
X63630D01*
Y237507D01*
X51330D01*
X50209Y61464D02*
Y57714D01*
X51772Y60214D01*
X49272D01*
X51772Y78787D02*
X49272Y75037D01*
X51772D01*
X53740Y61152D02*
X53115Y61464D01*
X52178D01*
X51553Y61152D01*
X51240Y60526D01*
Y60214D01*
X51553Y59589D01*
X52178Y59276D01*
X53740D01*
Y57714D01*
X51240D01*
X53740Y77849D02*
X53428Y77224D01*
X52803Y76912D01*
X52178D01*
X51553Y77224D01*
X51240Y77849D01*
X51553Y78474D01*
X52178Y78787D01*
X52803D01*
X53428Y78474D01*
X53740Y77849D01*
Y76912D01*
X53428Y75974D01*
X52803Y75349D01*
X52178Y75037D01*
X53937Y243851D02*
Y247601D01*
X56124D01*
X56750Y247289D01*
X57062Y246663D01*
X56750Y246039D01*
X56124Y245726D01*
X53937D01*
X56124D02*
X57062Y243851D01*
X59562D02*
X60812D01*
X60187D02*
Y247601D01*
X59562Y246976D01*
X53043Y242657D02*
Y240157D01*
X50855Y242345D01*
X50230Y242657D01*
X49605Y242345D01*
X49293Y241720D01*
Y240783D01*
X49605Y240157D01*
X56056Y99213D02*
X59806D01*
Y97337D01*
X59493Y96713D01*
X59181Y96400D01*
X58556Y96087D01*
X57306D01*
X56681Y96400D01*
X56368Y96713D01*
X56056Y97337D01*
Y99213D01*
Y91713D02*
Y94213D01*
X58243Y92025D01*
X58868Y91713D01*
X59493Y92025D01*
X59806Y92650D01*
Y93587D01*
X59493Y94213D01*
X57630Y75441D02*
Y74191D01*
Y74815D02*
X61380D01*
Y75441D02*
Y74191D01*
X58256Y68253D02*
X57943Y68565D01*
X57630Y69191D01*
Y70128D01*
X57943Y70753D01*
X58256Y71065D01*
X58880Y71378D01*
X60130D01*
X60756Y71065D01*
X61068Y70753D01*
X61380Y70128D01*
Y69191D01*
X61068Y68565D01*
X60756Y68253D01*
X57630Y65753D02*
Y64503D01*
Y65128D02*
X61380D01*
X60756Y65753D01*
X57043Y243157D02*
X53293Y244720D01*
X57043Y246283D01*
X55480Y243783D02*
Y245657D01*
X58065Y123884D02*
X60565Y127634D01*
X58065D01*
Y134197D02*
X58690Y133884D01*
X59628D01*
X60252Y134197D01*
X60565Y134822D01*
Y135134D01*
X60252Y135759D01*
X59628Y136072D01*
X58065D01*
Y137634D01*
X60565D01*
X58378Y144197D02*
X59002Y143884D01*
X59628D01*
X60252Y144197D01*
X60565Y144822D01*
X60252Y145447D01*
X59628Y145759D01*
X59002D01*
X59628D02*
X60252Y146072D01*
X60565Y146697D01*
X60252Y147322D01*
X59628Y147634D01*
X59002D01*
X58378Y147322D01*
X58690Y153884D02*
X59940D01*
X59315D02*
Y157634D01*
X58690Y157009D01*
X58031Y199948D02*
X60531D01*
X58344Y197761D01*
X58031Y197136D01*
X58344Y196511D01*
X58969Y196198D01*
X59906D01*
X60531Y196511D01*
X60043Y240783D02*
Y242033D01*
Y241407D02*
X56293D01*
X56918Y240783D01*
X58404Y224479D02*
X58717Y225104D01*
X59341Y225417D01*
X59967Y225104D01*
X60279Y224479D01*
Y222291D01*
X56529D01*
Y224479D01*
X56841Y225104D01*
X57467Y225417D01*
X58091Y225104D01*
X58404Y224479D01*
Y222291D01*
X62355Y259843D02*
X66105D01*
Y257655D01*
X65793Y257030D01*
X65167Y256717D01*
X64543Y257030D01*
X64230Y257655D01*
Y259843D01*
Y257655D02*
X62355Y256717D01*
Y254217D02*
Y252967D01*
Y253593D02*
X66105D01*
X65480Y254217D01*
X62667Y249530D02*
X62355Y248905D01*
Y248280D01*
X62667Y247655D01*
X63293Y247343D01*
X65167D01*
X65793Y247655D01*
X66105Y248280D01*
Y248905D01*
X65793Y249530D01*
X65167Y249843D01*
X63293D01*
X62667Y249530D01*
X65793Y247655D01*
X61567Y216641D02*
Y221941D01*
X73867D01*
Y216641D01*
X61567D01*
X63489Y227362D02*
X64114Y227050D01*
X64427Y226425D01*
Y225800D01*
X64114Y225175D01*
X63489Y224862D01*
X62864Y225175D01*
X62552Y225800D01*
Y226425D01*
X62864Y227050D01*
X63489Y227362D01*
X64427D01*
X65364Y227050D01*
X65989Y226425D01*
X66302Y225800D01*
X62864Y231102D02*
X62552Y230477D01*
Y229540D01*
X62864Y228915D01*
X63489Y228602D01*
X63802D01*
X64427Y228915D01*
X64739Y229540D01*
Y231102D01*
X66302D01*
Y228602D01*
X62552Y233280D02*
X66302D01*
X63802Y234843D01*
Y232343D01*
X63386Y184215D02*
Y180465D01*
X66511D01*
X69011D02*
X70261D01*
X69636D02*
Y184215D01*
X69011Y183590D01*
X65111Y237552D02*
X66361D01*
X65736D02*
Y241302D01*
X65111D02*
X66361D01*
X72298Y238177D02*
X71986Y237864D01*
X71361Y237552D01*
X70423D01*
X69798Y237864D01*
X69486Y238177D01*
X69173Y238802D01*
Y240052D01*
X69486Y240677D01*
X69798Y240989D01*
X70423Y241302D01*
X71361D01*
X71986Y240989D01*
X72298Y240677D01*
X76673Y237552D02*
X74173D01*
X76361Y239739D01*
X76673Y240364D01*
X76361Y240989D01*
X75736Y241302D01*
X74798D01*
X74173Y240989D01*
X63279Y221791D02*
Y219291D01*
X61091Y221479D01*
X60467Y221791D01*
X59841Y221479D01*
X59529Y220854D01*
Y219917D01*
X59841Y219291D01*
X63433Y210861D02*
Y212111D01*
Y211486D02*
X59683D01*
X60307Y210861D01*
X66211Y64254D02*
X65898Y63630D01*
Y63004D01*
X66211Y62380D01*
X66836Y62067D01*
X67461Y62380D01*
X67773Y63004D01*
Y63630D01*
Y63004D02*
X68086Y62380D01*
X68711Y62067D01*
X69336Y62380D01*
X69648Y63004D01*
Y63630D01*
X69336Y64254D01*
X64961Y69048D02*
Y72798D01*
X66836D01*
X67461Y72485D01*
X67773Y72173D01*
X68086Y71548D01*
Y70298D01*
X67773Y69673D01*
X67461Y69360D01*
X66836Y69048D01*
X64961D01*
X69961Y69360D02*
X70586Y69048D01*
X71523D01*
X72148Y69360D01*
X72461Y69985D01*
Y70298D01*
X72148Y70923D01*
X71523Y71235D01*
X69961D01*
Y72798D01*
X72461D01*
X67429Y260087D02*
X72729D01*
Y247787D01*
X67429D01*
Y260087D01*
X69002Y120759D02*
X69628D01*
X70252Y121072D01*
X70565Y121697D01*
X70252Y122322D01*
X69628Y122634D01*
X69002D01*
X68378Y122322D01*
X68065Y121697D01*
X68378Y121072D01*
X69002Y120759D01*
X68378Y120447D01*
X68065Y119822D01*
X68378Y119197D01*
X69002Y118884D01*
X69628D01*
X70252Y119197D01*
X70565Y119822D01*
X70252Y120447D01*
X69628Y120759D01*
X68065Y129822D02*
X68378Y130447D01*
X69002Y130759D01*
X69628D01*
X70252Y130447D01*
X70565Y129822D01*
X70252Y129197D01*
X69628Y128884D01*
X69002D01*
X68378Y129197D01*
X68065Y129822D01*
Y130759D01*
X68378Y131697D01*
X69002Y132322D01*
X69628Y132634D01*
Y138884D02*
Y142634D01*
X68065Y140134D01*
X70565D01*
Y148884D02*
X68065D01*
X70252Y151072D01*
X70565Y151697D01*
X70252Y152322D01*
X69628Y152634D01*
X68690D01*
X68065Y152322D01*
X67279Y222291D02*
X63529Y223854D01*
X67279Y225417D01*
X65717Y222917D02*
Y224791D01*
X70704Y251374D02*
X71954D01*
X71329D02*
Y255124D01*
X70704Y254500D01*
X72579Y258374D02*
X70079D01*
X72266Y260562D01*
X72579Y261187D01*
X72266Y261812D01*
X71641Y262124D01*
X70704D01*
X70079Y261812D01*
X70279Y219917D02*
Y221167D01*
Y220541D02*
X66529D01*
X67154Y219917D01*
X72197Y61973D02*
Y60723D01*
Y61348D02*
X75947D01*
X75322Y61973D01*
X72197Y64035D02*
Y66535D01*
X74385Y64348D01*
X75010Y64035D01*
X75635Y64348D01*
X75947Y64973D01*
Y65910D01*
X75635Y66535D01*
X72394Y226737D02*
Y225487D01*
Y226112D02*
X76144D01*
X75519Y226737D01*
X72394Y228602D02*
Y231102D01*
X74582Y228915D01*
X75207Y228602D01*
X75832Y228915D01*
X76144Y229540D01*
Y230477D01*
X75832Y231102D01*
X72707Y234530D02*
X72394Y233905D01*
Y233280D01*
X72707Y232655D01*
X73332Y232343D01*
X73957Y232655D01*
X74269Y233280D01*
Y233905D01*
Y233280D02*
X74582Y232655D01*
X75207Y232343D01*
X75832Y232655D01*
X76144Y233280D01*
Y233905D01*
X75832Y234530D01*
X71208Y262928D02*
Y264178D01*
Y263553D02*
X67458D01*
X68083Y262928D01*
X73079Y254374D02*
X74641Y258124D01*
X76204Y254374D01*
X73704Y255937D02*
X75579D01*
X75266Y263250D02*
X75891Y262937D01*
X76204Y262312D01*
X75891Y261687D01*
X75266Y261374D01*
X73079D01*
Y265124D01*
X75266D01*
X75891Y264812D01*
X76204Y264187D01*
X75891Y263562D01*
X75266Y263250D01*
X73079D01*
X75984Y214323D02*
Y218073D01*
X77859D01*
X78484Y217761D01*
X78797Y217448D01*
X79109Y216823D01*
Y215573D01*
X78797Y214948D01*
X78484Y214636D01*
X77859Y214323D01*
X75984D01*
X81297Y214636D02*
X81922Y214323D01*
X82547D01*
X83172Y214636D01*
X83484Y215261D01*
X83172Y215886D01*
X82547Y216198D01*
X81922D01*
X82547D02*
X83172Y216511D01*
X83484Y217136D01*
X83172Y217761D01*
X82547Y218073D01*
X81922D01*
X81297Y217761D01*
X75654Y199948D02*
X74404D01*
X75030D02*
Y196198D01*
X75654Y196823D01*
X78496Y255512D02*
X82246D01*
Y253324D01*
X81934Y252699D01*
X81309Y252387D01*
X80684Y252699D01*
X80372Y253324D01*
Y255512D01*
Y253324D02*
X78496Y252387D01*
Y248012D02*
Y250512D01*
X80684Y248324D01*
X81309Y248012D01*
X81934Y248324D01*
X82246Y248949D01*
Y249887D01*
X81934Y250512D01*
X77665Y247095D02*
X82965D01*
Y234795D01*
X77665D01*
Y247095D01*
X77114Y264803D02*
Y262303D01*
X74926Y264491D01*
X74301Y264803D01*
X73676Y264491D01*
X73364Y263866D01*
Y262928D01*
X73676Y262303D01*
X77212Y212736D02*
Y210236D01*
X75024Y212424D01*
X74400Y212736D01*
X73774Y212424D01*
X73462Y211799D01*
Y210861D01*
X73774Y210236D01*
X79678Y93307D02*
X83428D01*
Y91120D01*
X83115Y90494D01*
X82490Y90182D01*
X81865Y90494D01*
X81553Y91120D01*
Y93307D01*
Y91120D02*
X79678Y90182D01*
Y87682D02*
Y86432D01*
Y87057D02*
X83428D01*
X82803Y87682D01*
X79678Y81744D02*
X83428D01*
X80928Y83307D01*
Y80807D01*
X78846Y79772D02*
X84146D01*
Y67472D01*
X78846D01*
Y79772D01*
X80027Y108512D02*
X85327D01*
Y96212D01*
X80027D01*
Y108512D01*
Y121504D02*
X85327D01*
Y109204D01*
X80027D01*
Y121504D01*
Y134496D02*
X85327D01*
Y122196D01*
X80027D01*
Y134496D01*
X80940Y238382D02*
X82190D01*
X81565D02*
Y242132D01*
X80940Y241507D01*
X82815Y245382D02*
X80315D01*
X82502Y247570D01*
X82815Y248195D01*
X82502Y248820D01*
X81878Y249132D01*
X80940D01*
X80315Y248820D01*
Y265711D02*
Y261961D01*
X83440D01*
X85315D02*
Y265711D01*
X88440D01*
X87815Y263836D02*
X85315D01*
Y261961D02*
X88440D01*
X90315D02*
Y265711D01*
X92190D01*
X92815Y265399D01*
X93128Y265086D01*
X93440Y264461D01*
Y263211D01*
X93128Y262586D01*
X92815Y262274D01*
X92190Y261961D01*
X90315D01*
X97815D02*
X95315D01*
X97502Y264149D01*
X97815Y264774D01*
X97502Y265399D01*
X96878Y265711D01*
X95940D01*
X95315Y265399D01*
X80362Y221491D02*
Y222741D01*
Y222116D02*
X76612D01*
X77237Y221491D01*
X82121Y71059D02*
X83371D01*
X82746D02*
Y74809D01*
X82121Y74185D01*
X83996Y78059D02*
X81496D01*
X83683Y80247D01*
X83996Y80872D01*
X83683Y81497D01*
X83059Y81809D01*
X82121D01*
X81496Y81497D01*
X83122Y143661D02*
Y146161D01*
X85310Y143974D01*
X85935Y143661D01*
X86560Y143974D01*
X86872Y144599D01*
Y145536D01*
X86560Y146161D01*
X83122Y153017D02*
Y151767D01*
Y152392D02*
X86872D01*
X86248Y153017D01*
X83846Y179158D02*
X83533Y179471D01*
X83221Y180096D01*
Y181033D01*
X83533Y181658D01*
X83846Y181971D01*
X84471Y182283D01*
X85721D01*
X86346Y181971D01*
X86659Y181658D01*
X86971Y181033D01*
Y180096D01*
X86659Y179471D01*
X86346Y179158D01*
X83533Y176971D02*
X83221Y176346D01*
Y175721D01*
X83533Y175096D01*
X84159Y174783D01*
X84783Y175096D01*
X85096Y175721D01*
Y176346D01*
Y175721D02*
X85409Y175096D01*
X86033Y174783D01*
X86659Y175096D01*
X86971Y175721D01*
Y176346D01*
X86659Y176971D01*
X83302Y99800D02*
X84552D01*
X83927D02*
Y103550D01*
X83302Y102925D01*
X85177Y106800D02*
X82677D01*
X84865Y108987D01*
X85177Y109612D01*
X84865Y110237D01*
X84240Y110550D01*
X83302D01*
X82677Y110237D01*
X83302Y112792D02*
X84552D01*
X83927D02*
Y116542D01*
X83302Y115917D01*
X85177Y119792D02*
X82677D01*
X84865Y121980D01*
X85177Y122604D01*
X84865Y123230D01*
X84240Y123542D01*
X83302D01*
X82677Y123230D01*
X83302Y125784D02*
X84552D01*
X83927D02*
Y129534D01*
X83302Y128909D01*
X85177Y132784D02*
X82677D01*
X84865Y134972D01*
X85177Y135596D01*
X84865Y136222D01*
X84240Y136534D01*
X83302D01*
X82677Y136222D01*
X83071Y158418D02*
Y162168D01*
X84946D01*
X85571Y161856D01*
X85883Y161543D01*
X86196Y160918D01*
Y159668D01*
X85883Y159043D01*
X85571Y158730D01*
X84946Y158418D01*
X83071D01*
X88696D02*
X89946D01*
X89321D02*
Y162168D01*
X88696Y161543D01*
X83315Y241382D02*
X84878Y245132D01*
X86440Y241382D01*
X83940Y242945D02*
X85815D01*
X85502Y250257D02*
X86128Y249945D01*
X86440Y249320D01*
X86128Y248695D01*
X85502Y248382D01*
X83315D01*
Y252132D01*
X85502D01*
X86128Y251820D01*
X86440Y251195D01*
X86128Y250570D01*
X85502Y250257D01*
X83315D01*
X84496Y74059D02*
X86059Y77809D01*
X87621Y74059D01*
X85121Y75622D02*
X86996D01*
X86683Y82935D02*
X87309Y82622D01*
X87621Y81997D01*
X87309Y81372D01*
X86683Y81059D01*
X84496D01*
Y84809D01*
X86683D01*
X87309Y84497D01*
X87621Y83872D01*
X87309Y83247D01*
X86683Y82935D01*
X84496D01*
X85977Y119291D02*
X89727D01*
Y117104D01*
X89415Y116479D01*
X88789Y116166D01*
X88165Y116479D01*
X87852Y117104D01*
Y119291D01*
Y117104D02*
X85977Y116166D01*
Y112729D02*
X89727D01*
X87227Y114291D01*
Y111791D01*
X85977Y131890D02*
X89727D01*
Y129702D01*
X89415Y129077D01*
X88789Y128765D01*
X88165Y129077D01*
X87852Y129702D01*
Y131890D01*
Y129702D02*
X85977Y128765D01*
X86289Y126577D02*
X85977Y125952D01*
Y125327D01*
X86289Y124702D01*
X86915Y124390D01*
X87539Y124702D01*
X87852Y125327D01*
Y125952D01*
Y125327D02*
X88165Y124702D01*
X88789Y124390D01*
X89415Y124702D01*
X89727Y125327D01*
Y125952D01*
X89415Y126577D01*
X86370Y105906D02*
X90120D01*
Y103718D01*
X89808Y103093D01*
X89183Y102780D01*
X88558Y103093D01*
X88246Y103718D01*
Y105906D01*
Y103718D02*
X86370Y102780D01*
X86683Y100906D02*
X86370Y100280D01*
Y99343D01*
X86683Y98718D01*
X87308Y98406D01*
X87620D01*
X88246Y98718D01*
X88558Y99343D01*
Y100906D01*
X90120D01*
Y98406D01*
X85677Y102800D02*
X87240Y106550D01*
X88802Y102800D01*
X86302Y104362D02*
X88177D01*
X87865Y111675D02*
X88490Y111362D01*
X88802Y110737D01*
X88490Y110112D01*
X87865Y109800D01*
X85677D01*
Y113550D01*
X87865D01*
X88490Y113237D01*
X88802Y112612D01*
X88490Y111987D01*
X87865Y111675D01*
X85677D01*
Y115792D02*
X87240Y119542D01*
X88802Y115792D01*
X86302Y117354D02*
X88177D01*
X87865Y124667D02*
X88490Y124354D01*
X88802Y123730D01*
X88490Y123104D01*
X87865Y122792D01*
X85677D01*
Y126542D01*
X87865D01*
X88490Y126230D01*
X88802Y125604D01*
X88490Y124980D01*
X87865Y124667D01*
X85677D01*
Y128784D02*
X87240Y132534D01*
X88802Y128784D01*
X86302Y130346D02*
X88177D01*
X87865Y137659D02*
X88490Y137346D01*
X88802Y136722D01*
X88490Y136096D01*
X87865Y135784D01*
X85677D01*
Y139534D01*
X87865D01*
X88490Y139222D01*
X88802Y138596D01*
X88490Y137972D01*
X87865Y137659D01*
X85677D01*
X87201Y236776D02*
Y235526D01*
Y236152D02*
X90951D01*
X90326Y236776D01*
X87945Y93307D02*
X91695D01*
Y91120D01*
X91383Y90494D01*
X90758Y90182D01*
X90133Y90494D01*
X89820Y91120D01*
Y93307D01*
Y91120D02*
X87945Y90182D01*
Y87682D02*
Y86432D01*
Y87057D02*
X91695D01*
X91070Y87682D01*
X88258Y82994D02*
X87945Y82370D01*
Y81744D01*
X88258Y81120D01*
X88883Y80807D01*
X89508Y81120D01*
X89820Y81744D01*
Y82370D01*
Y81744D02*
X90133Y81120D01*
X90758Y80807D01*
X91383Y81120D01*
X91695Y81744D01*
Y82370D01*
X91383Y82994D01*
X87114Y79772D02*
X92414D01*
Y67472D01*
X87114D01*
Y79772D01*
X88583Y226528D02*
Y230278D01*
X90458D01*
X91083Y229966D01*
X91395Y229653D01*
X91708Y229028D01*
Y227778D01*
X91395Y227153D01*
X91083Y226841D01*
X90458Y226528D01*
X88583D01*
X95145D02*
Y230278D01*
X93583Y227778D01*
X96083D01*
X90201Y234402D02*
X93951Y232839D01*
X90201Y231276D01*
X91764Y233776D02*
Y231902D01*
X90389Y71059D02*
X91639D01*
X91014D02*
Y74809D01*
X90389Y74185D01*
X92264Y78059D02*
X89764D01*
X91951Y80247D01*
X92264Y80872D01*
X91951Y81497D01*
X91326Y81809D01*
X90389D01*
X89764Y81497D01*
Y241095D02*
Y244845D01*
X91951D01*
X92576Y244533D01*
X92889Y243907D01*
X92576Y243283D01*
X91951Y242970D01*
X89764D01*
X91951D02*
X92889Y241095D01*
X95701D02*
X96326Y241407D01*
X96951Y242033D01*
X97264Y242970D01*
Y243907D01*
X96951Y244533D01*
X96326Y244845D01*
X95701D01*
X95076Y244533D01*
X94764Y243907D01*
X95076Y243283D01*
X95701Y242970D01*
X96326D01*
X96951Y243283D01*
X97264Y243907D01*
X91309Y149589D02*
X90996Y148964D01*
Y148339D01*
X91309Y147714D01*
X91934Y147402D01*
X92559Y147714D01*
X92872Y148339D01*
Y148964D01*
Y148339D02*
X93184Y147714D01*
X93809Y147402D01*
X94434Y147714D01*
X94746Y148339D01*
Y148964D01*
X94434Y149589D01*
X91838Y116386D02*
X97138D01*
Y104086D01*
X91838D01*
Y116386D01*
Y129378D02*
X97138D01*
Y117078D01*
X91838D01*
Y129378D01*
Y142370D02*
X97138D01*
Y130070D01*
X91838D01*
Y142370D01*
X92764Y74059D02*
X94326Y77809D01*
X95889Y74059D01*
X93389Y75622D02*
X95264D01*
X94951Y82935D02*
X95576Y82622D01*
X95889Y81997D01*
X95576Y81372D01*
X94951Y81059D01*
X92764D01*
Y84809D01*
X94951D01*
X95576Y84497D01*
X95889Y83872D01*
X95576Y83247D01*
X94951Y82935D01*
X92764D01*
X94201Y234902D02*
Y237402D01*
X96389Y235214D01*
X97014Y234902D01*
X97639Y235214D01*
X97951Y235839D01*
Y236776D01*
X97639Y237402D01*
X94232Y172240D02*
X92670Y168490D01*
X91107Y172240D01*
X93607Y170677D02*
X91732D01*
X92045Y179365D02*
X91420Y179677D01*
X91107Y180302D01*
X91420Y180927D01*
X92045Y181240D01*
X94232D01*
Y177490D01*
X92045D01*
X91420Y177802D01*
X91107Y178427D01*
X91420Y179052D01*
X92045Y179365D01*
X94232D01*
X93607Y187240D02*
X92357D01*
X92982D02*
Y183490D01*
X93607Y184115D01*
X91732Y196240D02*
X94232D01*
X92045Y194052D01*
X91732Y193427D01*
X92045Y192802D01*
X92670Y192490D01*
X93607D01*
X94232Y192802D01*
X95113Y107674D02*
X96363D01*
X95738D02*
Y111424D01*
X95113Y110799D01*
X96988Y114674D02*
X94488D01*
X96676Y116861D01*
X96988Y117486D01*
X96676Y118111D01*
X96051Y118424D01*
X95113D01*
X94488Y118111D01*
X95113Y120666D02*
X96363D01*
X95738D02*
Y124416D01*
X95113Y123791D01*
X96988Y127666D02*
X94488D01*
X96676Y129854D01*
X96988Y130478D01*
X96676Y131104D01*
X96051Y131416D01*
X95113D01*
X94488Y131104D01*
X95113Y133658D02*
X96363D01*
X95738D02*
Y137408D01*
X95113Y136783D01*
X96988Y140658D02*
X94488D01*
X96676Y142846D01*
X96988Y143470D01*
X96676Y144096D01*
X96051Y144408D01*
X95113D01*
X94488Y144096D01*
X94141Y223366D02*
Y220866D01*
X91954Y223054D01*
X91329Y223366D01*
X90704Y223054D01*
X90391Y222429D01*
Y221491D01*
X90704Y220866D01*
X95232Y174677D02*
Y190677D01*
X88232D01*
Y174677D01*
X95232D01*
X95914Y240052D02*
Y234752D01*
X83614D01*
Y240052D01*
X95914D01*
X99076Y232214D02*
X98764Y231589D01*
X98139Y231276D01*
X97514Y231589D01*
X97201Y232214D01*
Y234402D01*
X100951D01*
Y232214D01*
X100639Y231589D01*
X100014Y231276D01*
X99389Y231589D01*
X99076Y232214D01*
Y234402D01*
X98181Y114173D02*
X101931D01*
Y111986D01*
X101619Y111361D01*
X100994Y111048D01*
X100369Y111361D01*
X100057Y111986D01*
Y114173D01*
Y111986D02*
X98181Y111048D01*
X100057Y108236D02*
Y107611D01*
X100369Y106986D01*
X100994Y106673D01*
X101619Y106986D01*
X101931Y107611D01*
Y108236D01*
X101619Y108861D01*
X100994Y109173D01*
X100369Y108861D01*
X100057Y108236D01*
X99744Y108861D01*
X99119Y109173D01*
X98494Y108861D01*
X98181Y108236D01*
Y107611D01*
X98494Y106986D01*
X99119Y106673D01*
X99744Y106986D01*
X100057Y107611D01*
X98181Y125984D02*
X101931D01*
Y123797D01*
X101619Y123172D01*
X100994Y122859D01*
X100369Y123172D01*
X100057Y123797D01*
Y125984D01*
Y123797D02*
X98181Y122859D01*
Y120984D02*
X101931Y118484D01*
Y120984D01*
X98181Y139764D02*
X101931D01*
Y137576D01*
X101619Y136951D01*
X100994Y136639D01*
X100369Y136951D01*
X100057Y137576D01*
Y139764D01*
Y137576D02*
X98181Y136639D01*
X99119Y134764D02*
X99744Y134451D01*
X100057Y133826D01*
Y133201D01*
X99744Y132576D01*
X99119Y132264D01*
X98494Y132576D01*
X98181Y133201D01*
Y133826D01*
X98494Y134451D01*
X99119Y134764D01*
X100057D01*
X100994Y134451D01*
X101619Y133826D01*
X101931Y133201D01*
X97488Y110674D02*
X99051Y114424D01*
X100613Y110674D01*
X98113Y112236D02*
X99988D01*
X99676Y119549D02*
X100301Y119236D01*
X100613Y118611D01*
X100301Y117986D01*
X99676Y117674D01*
X97488D01*
Y121424D01*
X99676D01*
X100301Y121111D01*
X100613Y120486D01*
X100301Y119861D01*
X99676Y119549D01*
X97488D01*
Y123666D02*
X99051Y127416D01*
X100613Y123666D01*
X98113Y125228D02*
X99988D01*
X99676Y132541D02*
X100301Y132228D01*
X100613Y131604D01*
X100301Y130978D01*
X99676Y130666D01*
X97488D01*
Y134416D01*
X99676D01*
X100301Y134104D01*
X100613Y133478D01*
X100301Y132854D01*
X99676Y132541D01*
X97488D01*
Y136658D02*
X99051Y140408D01*
X100613Y136658D01*
X98113Y138220D02*
X99988D01*
X99676Y145533D02*
X100301Y145220D01*
X100613Y144596D01*
X100301Y143970D01*
X99676Y143658D01*
X97488D01*
Y147408D01*
X99676D01*
X100301Y147096D01*
X100613Y146470D01*
X100301Y145846D01*
X99676Y145533D01*
X97488D01*
X99606Y77165D02*
Y54724D01*
X124016D01*
X99606Y77165D02*
X104331D01*
Y91339D01*
X104469Y227906D02*
X101969D01*
X104156Y230094D01*
X104469Y230719D01*
X104156Y231344D01*
X103531Y231656D01*
X102594D01*
X101969Y231344D01*
X102594Y241685D02*
X103844D01*
X103219D02*
Y245435D01*
X102594Y244811D01*
X102106Y172240D02*
X100544Y168490D01*
X98981Y172240D01*
X101481Y170677D02*
X99606D01*
X99919Y179365D02*
X99294Y179677D01*
X98981Y180302D01*
X99294Y180927D01*
X99919Y181240D01*
X102106D01*
Y177490D01*
X99919D01*
X99294Y177802D01*
X98981Y178427D01*
X99294Y179052D01*
X99919Y179365D01*
X102106D01*
X101481Y187240D02*
X100231D01*
X100856D02*
Y183490D01*
X101481Y184115D01*
X99606Y196240D02*
X102106D01*
X99919Y194052D01*
X99606Y193427D01*
X99919Y192802D01*
X100544Y192490D01*
X101481D01*
X102106Y192802D01*
X103106Y174677D02*
Y190677D01*
X96106D01*
Y174677D01*
X103106D01*
X104712Y176796D02*
X104400Y177109D01*
X104087Y177734D01*
Y178671D01*
X104400Y179296D01*
X104712Y179609D01*
X105337Y179921D01*
X106587D01*
X107212Y179609D01*
X107525Y179296D01*
X107837Y178671D01*
Y177734D01*
X107525Y177109D01*
X107212Y176796D01*
X105025Y174921D02*
X105650Y174609D01*
X105962Y173984D01*
Y173359D01*
X105650Y172734D01*
X105025Y172421D01*
X104400Y172734D01*
X104087Y173359D01*
Y173984D01*
X104400Y174609D01*
X105025Y174921D01*
X105962D01*
X106900Y174609D01*
X107525Y173984D01*
X107837Y173359D01*
X104498Y58521D02*
X105748D01*
X105122D02*
Y62271D01*
X104498Y61646D01*
X106060Y66083D02*
X106998D01*
Y65771D01*
X106685Y65146D01*
X106372Y64833D01*
X105748Y64521D01*
X105122D01*
X104498Y64833D01*
X104185Y65146D01*
X103872Y65771D01*
Y67021D01*
X104185Y67646D01*
X104498Y67959D01*
X105122Y68271D01*
X105748D01*
X106372Y67959D01*
X106685Y67646D01*
X106998Y67021D01*
X108872Y64521D02*
Y68271D01*
X111998Y64521D01*
Y68271D01*
X113872Y64521D02*
Y68271D01*
X115748D01*
X116372Y67959D01*
X116685Y67646D01*
X116998Y67021D01*
Y65771D01*
X116685Y65146D01*
X116372Y64833D01*
X115748Y64521D01*
X113872D01*
X112168Y239370D02*
Y236245D01*
X108418Y239370D01*
Y236245D01*
Y233745D02*
Y232495D01*
Y233120D02*
X112168D01*
X111543Y233745D01*
X110429Y93563D02*
X106679Y95126D01*
X110429Y96688D01*
X108866Y94188D02*
Y96063D01*
X112062Y185819D02*
X113312D01*
X112687D02*
Y189569D01*
X112062Y188944D01*
X112866Y92563D02*
X128866D01*
Y99563D01*
X112866D01*
Y92563D01*
X115428Y58521D02*
X112928D01*
X115115Y60709D01*
X115428Y61333D01*
X115115Y61959D01*
X114490Y62271D01*
X113553D01*
X112928Y61959D01*
Y68271D02*
X114490Y64521D01*
X116053Y68271D01*
X117928Y65459D02*
X118240Y64833D01*
X118865Y64521D01*
X119490D01*
X120115Y64833D01*
X120428Y65459D01*
Y66083D01*
X120115Y66709D01*
X119490Y67021D01*
X118865D01*
X118240Y66709D01*
X117928Y66083D01*
Y65459D01*
X122928Y67021D02*
Y65459D01*
X123240Y64833D01*
X123865Y64521D01*
X124490D01*
X125115Y64833D01*
X125428Y65459D01*
Y67021D02*
Y64521D01*
X128448Y67021D02*
X129907D01*
X129178Y67646D02*
Y64833D01*
X129490Y64521D01*
X129803D01*
X130115Y64833D01*
X114490Y83718D02*
Y87468D01*
X112928Y84968D01*
X115428D01*
X112928Y93468D02*
X114490Y89718D01*
X116053Y93468D01*
X117928Y90656D02*
X118240Y90030D01*
X118865Y89718D01*
X119490D01*
X120115Y90030D01*
X120428Y90656D01*
Y91280D01*
X120115Y91906D01*
X119490Y92218D01*
X118865D01*
X118240Y91906D01*
X117928Y91280D01*
Y90656D01*
X122928Y92218D02*
Y90656D01*
X123240Y90030D01*
X123865Y89718D01*
X124490D01*
X125115Y90030D01*
X125428Y90656D01*
Y92218D02*
Y89718D01*
X128448Y92218D02*
X129907D01*
X129178Y92843D02*
Y90030D01*
X129490Y89718D01*
X129803D01*
X130115Y90030D01*
X116511Y101563D02*
X116198Y101250D01*
X115573Y100937D01*
X114636D01*
X114011Y101250D01*
X113698Y101563D01*
X113386Y102187D01*
Y103437D01*
X113698Y104063D01*
X114011Y104375D01*
X114636Y104687D01*
X115573D01*
X116198Y104375D01*
X116511Y104063D01*
X118386Y100937D02*
X120886Y104687D01*
X118386D01*
X119291Y91339D02*
X104331D01*
X121016Y90401D02*
Y89151D01*
Y89776D02*
X124766D01*
Y90401D02*
Y89151D01*
X121641Y83213D02*
X121329Y83526D01*
X121016Y84151D01*
Y85089D01*
X121329Y85713D01*
X121641Y86026D01*
X122266Y86339D01*
X123516D01*
X124141Y86026D01*
X124454Y85713D01*
X124766Y85089D01*
Y84151D01*
X124454Y83526D01*
X124141Y83213D01*
X121016Y79776D02*
X124766D01*
X122266Y81339D01*
Y78839D01*
X117554Y95750D02*
X117866Y96376D01*
X118491Y96688D01*
X119116Y96376D01*
X119429Y95750D01*
Y93563D01*
X115679D01*
Y95750D01*
X115991Y96376D01*
X116616Y96688D01*
X117241Y96376D01*
X117554Y95750D01*
Y93563D01*
X122295Y58833D02*
X122920Y58521D01*
X123545D01*
X124170Y58833D01*
X124483Y59459D01*
X124170Y60083D01*
X123545Y60396D01*
X122920D01*
X123545D02*
X124170Y60709D01*
X124483Y61333D01*
X124170Y61959D01*
X123545Y62271D01*
X122920D01*
X122295Y61959D01*
X121983Y68271D02*
X123545Y64521D01*
X125108Y68271D01*
X128233Y64521D02*
Y67021D01*
Y67959D02*
X131983Y64521D02*
Y67021D01*
Y66083D02*
X132295Y66709D01*
X132920Y67021D01*
X133545D01*
X134170Y66709D01*
X134483Y66083D01*
Y64521D01*
X123334Y47489D02*
X128634D01*
Y35189D01*
X123334D01*
Y47489D01*
X124016Y54724D02*
Y77165D01*
X119291D01*
Y91339D01*
X124953Y237795D02*
X128703D01*
Y235608D01*
X128391Y234983D01*
X127766Y234670D01*
X127141Y234983D01*
X126828Y235608D01*
Y237795D01*
Y235608D02*
X124953Y234670D01*
Y232170D02*
Y230920D01*
Y231545D02*
X128703D01*
X128078Y232170D01*
X124953Y225295D02*
Y227795D01*
X127141Y225608D01*
X127766Y225295D01*
X128391Y225608D01*
X128703Y226233D01*
Y227170D01*
X128391Y227795D01*
X126811Y185819D02*
X124311D01*
X126498Y188007D01*
X126811Y188632D01*
X126498Y189257D01*
X125874Y189569D01*
X124936D01*
X124311Y189257D01*
X129491Y80709D02*
X125741D01*
Y77583D01*
Y75709D02*
X129491D01*
Y72583D01*
X127616Y73209D02*
Y75709D01*
X125741D02*
Y72583D01*
Y70709D02*
X129491D01*
Y68833D01*
X129178Y68209D01*
X128866Y67896D01*
X128241Y67583D01*
X126991D01*
X126366Y67896D01*
X126053Y68209D01*
X125741Y68833D01*
Y70709D01*
Y65083D02*
Y63833D01*
Y64459D02*
X129491D01*
X128866Y65083D01*
X126134Y60630D02*
X129884D01*
Y58443D01*
X129572Y57817D01*
X128947Y57505D01*
X128322Y57817D01*
X128009Y58443D01*
Y60630D01*
Y58443D02*
X126134Y57505D01*
Y55005D02*
Y53755D01*
Y54380D02*
X129884D01*
X129259Y55005D01*
X126134Y50005D02*
Y48755D01*
Y49380D02*
X129884D01*
X129259Y50005D01*
X126134Y189764D02*
X129884D01*
Y186639D01*
X128009Y187264D02*
Y189764D01*
X127072Y184764D02*
X126447Y184451D01*
X126134Y183826D01*
Y182576D01*
X126447Y181951D01*
X127072Y181639D01*
X127697Y181951D01*
X128009Y182576D01*
Y183826D01*
X128322Y184451D01*
X128947Y184764D01*
X129572Y184451D01*
X129884Y183826D01*
Y182576D01*
X129572Y181951D01*
X128947Y181639D01*
X126134Y179139D02*
Y177889D01*
Y178514D02*
X129884D01*
X129259Y179139D01*
X126609Y38776D02*
X127859D01*
X127234D02*
Y42526D01*
X126609Y41901D01*
X128484Y45776D02*
X125984D01*
X128172Y47964D01*
X128484Y48589D01*
X128172Y49214D01*
X127547Y49526D01*
X126609D01*
X125984Y49214D01*
X125429Y94188D02*
Y95438D01*
Y94813D02*
X121679D01*
X122304Y94188D01*
X128984Y41776D02*
X130547Y45526D01*
X132109Y41776D01*
X129609Y43339D02*
X131484D01*
X131172Y50651D02*
X131797Y50339D01*
X132109Y49714D01*
X131797Y49089D01*
X131172Y48776D01*
X128984D01*
Y52526D01*
X131172D01*
X131797Y52214D01*
X132109Y51589D01*
X131797Y50964D01*
X131172Y50651D01*
X128984D01*
X130315Y171248D02*
X130628Y170935D01*
X131252Y170622D01*
X131878Y170935D01*
X132190Y171248D01*
Y174372D01*
X132815D01*
X132190D02*
X130940D01*
X137815Y170622D02*
X135315D01*
X137502Y172810D01*
X137815Y173435D01*
X137502Y174060D01*
X136878Y174372D01*
X135940D01*
X135315Y174060D01*
X128277Y46987D02*
X127652Y47299D01*
X127339Y47924D01*
X127652Y48549D01*
X128277Y48862D01*
X130465D01*
Y45112D01*
X128277D01*
X127652Y45424D01*
X127339Y46049D01*
X127652Y46674D01*
X128277Y46987D01*
X130465D01*
Y55862D02*
X128902Y52112D01*
X127339Y55862D01*
X129839Y54299D02*
X127965D01*
X130465Y61854D02*
Y58104D01*
Y59979D02*
X129527D01*
X127339Y58104D01*
X129527Y59979D02*
X127339Y61854D01*
X130465Y68854D02*
X128902Y65104D01*
X127339Y68854D01*
X129839Y67291D02*
X127965D01*
X130815Y212843D02*
X136115D01*
Y200543D01*
X130815D01*
Y212843D01*
Y225835D02*
X136115D01*
Y213535D01*
X130815D01*
Y225835D01*
X135790Y199606D02*
X132040D01*
Y196481D01*
Y194606D02*
X135790D01*
Y191481D01*
X133915Y192106D02*
Y194606D01*
X132040D02*
Y191481D01*
Y189606D02*
X135790D01*
Y187731D01*
X135478Y187106D01*
X135165Y186794D01*
X134540Y186481D01*
X133290D01*
X132665Y186794D01*
X132352Y187106D01*
X132040Y187731D01*
Y189606D01*
X132352Y184294D02*
X132040Y183669D01*
Y183044D01*
X132352Y182419D01*
X132978Y182106D01*
X133602Y182419D01*
X133915Y183044D01*
Y183669D01*
Y183044D02*
X134228Y182419D01*
X134852Y182106D01*
X135478Y182419D01*
X135790Y183044D01*
Y183669D01*
X135478Y184294D01*
X132215Y207443D02*
X134715D01*
X132465Y205943D02*
X133465Y207193D01*
X134465Y205943D01*
X132465D01*
X130965Y51862D02*
X133465D01*
X131277Y49674D01*
X130965Y49049D01*
X131277Y48424D01*
X131902Y48112D01*
X132839D01*
X133465Y48424D01*
X132839Y58862D02*
X131589D01*
X132215D02*
Y55112D01*
X132839Y55737D01*
X130965Y64854D02*
X133465D01*
X131277Y62666D01*
X130965Y62041D01*
X131277Y61416D01*
X131902Y61104D01*
X132839D01*
X133465Y61416D01*
X132839Y71854D02*
X131589D01*
X132215D02*
Y68104D01*
X132839Y68729D01*
X134090Y204130D02*
X135340D01*
X134715D02*
Y207880D01*
X134090Y207256D01*
X135965Y211130D02*
X133465D01*
X135652Y213318D01*
X135965Y213943D01*
X135652Y214568D01*
X135027Y214880D01*
X134090D01*
X133465Y214568D01*
X134090Y217122D02*
X135340D01*
X134715D02*
Y220872D01*
X134090Y220248D01*
X135965Y224122D02*
X133465D01*
X135652Y226310D01*
X135965Y226935D01*
X135652Y227560D01*
X135027Y227872D01*
X134090D01*
X133465Y227560D01*
X132689Y48007D02*
X133002Y47694D01*
X133315Y47069D01*
Y46132D01*
X133002Y45507D01*
X132689Y45194D01*
X132065Y44882D01*
X130815D01*
X130189Y45194D01*
X129877Y45507D01*
X129565Y46132D01*
Y47069D01*
X129877Y47694D01*
X130189Y48007D01*
X133315Y50507D02*
Y51757D01*
Y51132D02*
X129565D01*
X130189Y50507D01*
X133315Y55507D02*
Y56757D01*
Y56132D02*
X129565D01*
X130189Y55507D01*
X134465Y70041D02*
X133465Y68791D01*
X132465Y70041D01*
X134465D01*
X134715Y68541D02*
X132215D01*
X134429Y96063D02*
Y93563D01*
X132241Y95750D01*
X131616Y96063D01*
X130991Y95750D01*
X130679Y95126D01*
Y94188D01*
X130991Y93563D01*
X136115Y50149D02*
X130815D01*
Y62449D01*
X136115D01*
Y50149D01*
Y63141D02*
X130815D01*
Y75441D01*
X136115D01*
Y63141D01*
X136465Y207130D02*
X138027Y210880D01*
X139590Y207130D01*
X137090Y208693D02*
X138965D01*
X136465Y214130D02*
Y217880D01*
Y216006D02*
X137402D01*
X139590Y217880D01*
X137402Y216006D02*
X139590Y214130D01*
X136465Y220122D02*
X138027Y223872D01*
X139590Y220122D01*
X137090Y221685D02*
X138965D01*
X138652Y228998D02*
X139277Y228685D01*
X139590Y228060D01*
X139277Y227435D01*
X138652Y227122D01*
X136465D01*
Y230872D01*
X138652D01*
X139277Y230560D01*
X139590Y229935D01*
X139277Y229310D01*
X138652Y228998D01*
X136465D01*
D02*
D29*
X28228Y168012D02*
X4606D01*
Y108012D01*
X28228D01*
X40551Y92323D02*
X39528D01*
Y95669D01*
X42008Y168012D02*
X75472D01*
Y108012D01*
X42008D01*
X49213Y101575D02*
Y101969D02*
G75*
G03*
Y101575I0J-197D01*
G01*
Y101969D02*
G75*
G02*
Y101575I0J-197D01*
G01*
X51024Y95669D02*
Y92323D01*
X50000D01*
X80709Y155512D02*
G75*
G03*
X81102I197J0D01*
G01*
X80709D02*
G75*
G02*
X81102I197J0D01*
G01*
X87008Y157323D02*
X90354D01*
Y156299D01*
Y146850D02*
Y145827D01*
X87008D01*
X129429Y169193D02*
X160965D01*
Y107185D01*
X129429D01*
D02*
D72*
X27953Y51676D02*
Y33465D01*
X46163D01*
Y51676D01*
X27953D01*
X43487Y43005D02*
X43636Y42839D01*
X43763Y42665D01*
X43867Y42478D01*
X43950Y42277D01*
X44014Y42059D01*
X44057Y41821D01*
X44083Y41561D01*
X44092Y41276D01*
Y39957D01*
X44084Y39683D01*
X44057Y39426D01*
X44009Y39183D01*
X43943Y38957D01*
X43857Y38747D01*
X43753Y38554D01*
X43631Y38378D01*
X43490Y38219D01*
X43331Y38077D01*
X43156Y37955D01*
X42963Y37850D01*
X42753Y37764D01*
X42526Y37698D01*
X42284Y37651D01*
X42026Y37624D01*
X41752Y37617D01*
X35251D01*
X35098Y37635D01*
X34962Y37687D01*
X34850Y37770D01*
X34763Y37882D01*
X32869Y41250D01*
X32774Y41424D01*
X32697Y41611D01*
X32643Y41808D01*
X32611Y42010D01*
X32607Y42211D01*
X32631Y42409D01*
X32686Y42598D01*
X32776Y42772D01*
X32931Y42969D01*
X33107Y43106D01*
X33302Y43194D01*
X33512Y43244D01*
X33735Y43263D01*
X33968Y43268D01*
X34451Y43265D01*
X34560Y43272D01*
X34656Y43295D01*
X34738Y43332D01*
X34806Y43385D01*
X34858Y43451D01*
X34896Y43532D01*
X34919Y43628D01*
X34926Y43738D01*
Y45006D01*
X34919Y45118D01*
X34897Y45211D01*
X34859Y45291D01*
X34804Y45359D01*
X34736Y45413D01*
X34656Y45450D01*
X34561Y45472D01*
X34451Y45480D01*
X32180D01*
Y37618D01*
X30081D01*
Y47550D01*
X34662D01*
X34945Y47541D01*
X35206Y47513D01*
X35445Y47468D01*
X35665Y47402D01*
X35868Y47317D01*
X36056Y47210D01*
X36231Y47082D01*
X36396Y46933D01*
X36545Y46768D01*
X36672Y46593D01*
X36776Y46407D01*
X36860Y46206D01*
X36923Y45988D01*
X36967Y45750D01*
X36993Y45490D01*
X37001Y45205D01*
Y43475D01*
X36997Y43245D01*
X36975Y43027D01*
X36937Y42824D01*
X36881Y42632D01*
X36809Y42456D01*
X36722Y42293D01*
X36619Y42144D01*
X36501Y42009D01*
X36368Y41889D01*
X36220Y41783D01*
X36059Y41694D01*
X35885Y41619D01*
X35697Y41560D01*
X35496Y41517D01*
X35283Y41489D01*
X35058Y41479D01*
X36152Y39681D01*
X41525D01*
X41637Y39689D01*
X41731Y39710D01*
X41810Y39749D01*
X41878Y39804D01*
X41931Y39871D01*
X41969Y39952D01*
X41991Y40047D01*
X41999Y40157D01*
Y41149D01*
X41992Y41259D01*
X41969Y41355D01*
X41931Y41437D01*
X41878Y41504D01*
X41811Y41556D01*
X41729Y41594D01*
X41633Y41617D01*
X41523Y41624D01*
X39745D01*
X39473Y41632D01*
X39223Y41658D01*
X38994Y41701D01*
X38783Y41764D01*
X38588Y41845D01*
X38407Y41946D01*
X38239Y42068D01*
X38081Y42210D01*
X37938Y42369D01*
X37817Y42537D01*
X37716Y42716D01*
X37636Y42908D01*
X37576Y43117D01*
X37533Y43344D01*
X37509Y43594D01*
X37500Y43866D01*
Y45211D01*
X37507Y45486D01*
X37534Y45744D01*
X37581Y45986D01*
X37647Y46213D01*
X37733Y46421D01*
X37837Y46615D01*
X37961Y46790D01*
X38102Y46949D01*
X38261Y47089D01*
X38437Y47213D01*
X38630Y47317D01*
X38841Y47401D01*
X39067Y47468D01*
X39309Y47516D01*
X39567Y47543D01*
X39840Y47550D01*
X43880D01*
Y45480D01*
X40052D01*
X39943Y45472D01*
X39847Y45450D01*
X39765Y45413D01*
X39698Y45360D01*
X39645Y45294D01*
X39607Y45211D01*
X39584Y45116D01*
X39577Y45006D01*
Y44090D01*
X39584Y43980D01*
X39607Y43885D01*
X39645Y43804D01*
X39698Y43736D01*
X39765Y43683D01*
X39847Y43646D01*
X39943Y43624D01*
X40052Y43616D01*
X41744D01*
X42028Y43607D01*
X42289Y43580D01*
X42530Y43536D01*
X42751Y43470D01*
X42956Y43386D01*
X43145Y43280D01*
X43322Y43154D01*
X43487Y43005D01*
X28003Y42583D02*
G36*
X28003Y42583D02*
Y33515D01*
X46113D01*
Y42583D01*
X43808D01*
X43867Y42478D01*
X43950Y42277D01*
X44014Y42059D01*
X44057Y41821D01*
X44083Y41561D01*
X44092Y41276D01*
Y39957D01*
X44084Y39683D01*
X44057Y39426D01*
X44009Y39183D01*
X43943Y38957D01*
X43857Y38747D01*
X43753Y38554D01*
X43631Y38378D01*
X43490Y38219D01*
X43331Y38077D01*
X43156Y37955D01*
X42963Y37850D01*
X42753Y37764D01*
X42526Y37698D01*
X42284Y37651D01*
X42026Y37624D01*
X41752Y37617D01*
X35251D01*
X35098Y37635D01*
X34962Y37687D01*
X34850Y37770D01*
X34763Y37882D01*
X32869Y41250D01*
X32774Y41424D01*
X32697Y41611D01*
X32643Y41808D01*
X32611Y42010D01*
X32607Y42211D01*
X32631Y42409D01*
X32682Y42583D01*
X32180D01*
Y37618D01*
X30081D01*
Y42583D01*
X28003D01*
G37*
X35283Y41489D02*
G36*
X35283Y41489D02*
X35058Y41479D01*
X36152Y39681D01*
X41525D01*
X41637Y39689D01*
X41731Y39710D01*
X41810Y39749D01*
X41878Y39804D01*
X41931Y39871D01*
X41969Y39952D01*
X41991Y40047D01*
X41999Y40157D01*
Y41149D01*
X41992Y41259D01*
X41969Y41355D01*
X41931Y41437D01*
X41878Y41504D01*
X41811Y41556D01*
X41729Y41594D01*
X41633Y41617D01*
X41523Y41624D01*
X39745D01*
X39473Y41632D01*
X39223Y41658D01*
X38994Y41701D01*
X38783Y41764D01*
X38588Y41845D01*
X38407Y41946D01*
X38239Y42068D01*
X38081Y42210D01*
X37938Y42369D01*
X37817Y42537D01*
X37791Y42583D01*
X36861D01*
X36809Y42456D01*
X36722Y42293D01*
X36619Y42144D01*
X36501Y42009D01*
X36368Y41889D01*
X36220Y41783D01*
X36059Y41694D01*
X35885Y41619D01*
X35697Y41560D01*
X35496Y41517D01*
X35283Y41489D01*
G37*
X28003Y51626D02*
G36*
X28003Y51626D02*
Y42583D01*
X30081D01*
Y47550D01*
X34662D01*
X34945Y47541D01*
X35206Y47513D01*
X35445Y47468D01*
X35665Y47402D01*
X35868Y47317D01*
X36056Y47210D01*
X36231Y47082D01*
X36396Y46933D01*
X36545Y46768D01*
X36672Y46593D01*
X36776Y46407D01*
X36860Y46206D01*
X36923Y45988D01*
X36967Y45750D01*
X36993Y45490D01*
X37001Y45205D01*
Y43475D01*
X36997Y43245D01*
X36975Y43027D01*
X36937Y42824D01*
X36881Y42632D01*
X36861Y42583D01*
X37791D01*
X37716Y42716D01*
X37636Y42908D01*
X37576Y43117D01*
X37533Y43344D01*
X37509Y43594D01*
X37500Y43866D01*
Y45211D01*
X37507Y45486D01*
X37534Y45744D01*
X37581Y45986D01*
X37647Y46213D01*
X37733Y46421D01*
X37837Y46615D01*
X37961Y46790D01*
X38102Y46949D01*
X38261Y47089D01*
X38437Y47213D01*
X38630Y47317D01*
X38841Y47401D01*
X39067Y47468D01*
X39309Y47516D01*
X39567Y47543D01*
X39840Y47550D01*
X43880D01*
Y45480D01*
X40052D01*
X39943Y45472D01*
X39847Y45450D01*
X39765Y45413D01*
X39698Y45360D01*
X39645Y45294D01*
X39607Y45211D01*
X39584Y45116D01*
X39577Y45006D01*
Y44090D01*
X39584Y43980D01*
X39607Y43885D01*
X39645Y43804D01*
X39698Y43736D01*
X39765Y43683D01*
X39847Y43646D01*
X39943Y43624D01*
X40052Y43616D01*
X41744D01*
X42028Y43607D01*
X42289Y43580D01*
X42530Y43536D01*
X42751Y43470D01*
X42956Y43386D01*
X43145Y43280D01*
X43322Y43154D01*
X43487Y43005D01*
X43636Y42839D01*
X43763Y42665D01*
X43808Y42583D01*
X46113D01*
Y51626D01*
X28003D01*
G37*
X32180Y45480D02*
G36*
X32180Y45480D02*
Y42583D01*
X32682D01*
X32686Y42598D01*
X32776Y42772D01*
X32931Y42969D01*
X33107Y43106D01*
X33302Y43194D01*
X33512Y43244D01*
X33735Y43263D01*
X33968Y43268D01*
X34451Y43265D01*
X34560Y43272D01*
X34656Y43295D01*
X34738Y43332D01*
X34806Y43385D01*
X34858Y43451D01*
X34896Y43532D01*
X34919Y43628D01*
X34926Y43738D01*
Y45006D01*
X34919Y45118D01*
X34897Y45211D01*
X34859Y45291D01*
X34804Y45359D01*
X34736Y45413D01*
X34656Y45450D01*
X34561Y45472D01*
X34451Y45480D01*
X32180D01*
G37*
X48447Y47550D02*
Y37618D01*
X50985D01*
X51445Y37629D01*
X51864Y37663D01*
X52243Y37720D01*
X52584Y37801D01*
X52889Y37908D01*
X53159Y38038D01*
X53396Y38194D01*
X53602Y38375D01*
X53778Y38582D01*
X53925Y38816D01*
X54045Y39077D01*
X54139Y39366D01*
X54211Y39682D01*
X54259Y40028D01*
X54287Y40402D01*
X54296Y40806D01*
Y44411D01*
X54287Y44810D01*
X54259Y45179D01*
X54210Y45520D01*
X54139Y45832D01*
X54044Y46117D01*
X53923Y46374D01*
X53776Y46605D01*
X53599Y46808D01*
X53392Y46986D01*
X53154Y47139D01*
X52881Y47267D01*
X52574Y47370D01*
X52230Y47449D01*
X51847Y47506D01*
X51425Y47539D01*
X50961Y47550D01*
X48447D01*
X50985Y39138D02*
X50642D01*
Y46017D01*
X50973D01*
X51297Y46000D01*
X51549Y45948D01*
X51737Y45859D01*
X51870Y45730D01*
X51958Y45561D01*
X52009Y45350D01*
X52034Y45094D01*
X52040Y44791D01*
Y40463D01*
X52035Y40148D01*
X52015Y39878D01*
X51968Y39650D01*
X51885Y39465D01*
X51827Y39388D01*
X51756Y39321D01*
X51670Y39265D01*
X51569Y39219D01*
X51316Y39158D01*
X50985Y39138D01*
X48497Y42578D02*
G36*
X48497Y42578D02*
Y37668D01*
X51900D01*
X52243Y37720D01*
X52584Y37801D01*
X52889Y37908D01*
X53159Y38038D01*
X53396Y38194D01*
X53602Y38375D01*
X53778Y38582D01*
X53925Y38816D01*
X54045Y39077D01*
X54139Y39366D01*
X54211Y39682D01*
X54246Y39936D01*
Y42578D01*
X52040D01*
Y40463D01*
X52035Y40148D01*
X52015Y39878D01*
X51968Y39650D01*
X51885Y39465D01*
X51827Y39388D01*
X51756Y39321D01*
X51670Y39265D01*
X51569Y39219D01*
X51316Y39158D01*
X50985Y39138D01*
X50642D01*
Y42578D01*
X48497D01*
G37*
Y47500D02*
G36*
X48497Y47500D02*
Y42578D01*
X50642D01*
Y46017D01*
X50973D01*
X51297Y46000D01*
X51549Y45948D01*
X51737Y45859D01*
X51870Y45730D01*
X51958Y45561D01*
X52009Y45350D01*
X52034Y45094D01*
X52040Y44791D01*
Y42578D01*
X54246D01*
Y45269D01*
X54210Y45520D01*
X54139Y45832D01*
X54044Y46117D01*
X53923Y46374D01*
X53776Y46605D01*
X53599Y46808D01*
X53392Y46986D01*
X53154Y47139D01*
X52881Y47267D01*
X52574Y47370D01*
X52230Y47449D01*
X51884Y47500D01*
X48497D01*
G37*
X55143Y47550D02*
X59606D01*
Y46054D01*
X57337D01*
Y43589D01*
X59067D01*
Y42069D01*
X57337D01*
Y39101D01*
X59631D01*
Y37618D01*
X55143D01*
Y47550D01*
G36*
X55143Y47550D02*
X59606D01*
Y46054D01*
X57337D01*
Y43589D01*
X59067D01*
Y42069D01*
X57337D01*
Y39101D01*
X59631D01*
Y37618D01*
X55143D01*
Y47550D01*
G37*
X59913Y40621D02*
X61789Y40904D01*
X61811Y40458D01*
X61858Y40085D01*
X61930Y39779D01*
X62026Y39538D01*
X62148Y39357D01*
X62294Y39232D01*
X62465Y39161D01*
X62659Y39138D01*
X62813Y39155D01*
X62937Y39202D01*
X63033Y39277D01*
X63106Y39371D01*
X63156Y39481D01*
X63189Y39604D01*
X63211Y39861D01*
X63192Y40155D01*
X63135Y40422D01*
X63044Y40668D01*
X62919Y40898D01*
X62762Y41116D01*
X62575Y41327D01*
X62361Y41537D01*
X62120Y41750D01*
X61261Y42498D01*
X60986Y42743D01*
X60732Y43002D01*
X60505Y43280D01*
X60308Y43580D01*
X60147Y43907D01*
X60027Y44263D01*
X59951Y44656D01*
X59925Y45086D01*
X59937Y45391D01*
X59974Y45679D01*
X60035Y45949D01*
X60119Y46200D01*
X60225Y46432D01*
X60353Y46646D01*
X60503Y46840D01*
X60673Y47015D01*
X60863Y47170D01*
X61073Y47306D01*
X61302Y47420D01*
X61549Y47515D01*
X61814Y47589D01*
X62096Y47643D01*
X62394Y47675D01*
X62709Y47685D01*
X63085Y47666D01*
X63422Y47611D01*
X63720Y47525D01*
X63983Y47408D01*
X64213Y47266D01*
X64411Y47100D01*
X64580Y46913D01*
X64723Y46711D01*
X64841Y46496D01*
X64937Y46269D01*
X65013Y46035D01*
X65071Y45797D01*
X65144Y45320D01*
X65173Y44865D01*
X63285Y44631D01*
X63252Y45230D01*
X63217Y45478D01*
X63162Y45686D01*
X63082Y45854D01*
X62971Y45977D01*
X62824Y46052D01*
X62635Y46079D01*
X62493Y46059D01*
X62372Y46006D01*
X62271Y45925D01*
X62189Y45821D01*
X62126Y45701D01*
X62081Y45571D01*
X62055Y45438D01*
X62046Y45306D01*
X62064Y45046D01*
X62115Y44811D01*
X62197Y44599D01*
X62309Y44404D01*
X62447Y44218D01*
X62610Y44039D01*
X63003Y43675D01*
X63824Y42951D01*
X64137Y42669D01*
X64428Y42369D01*
X64691Y42048D01*
X64919Y41701D01*
X65107Y41325D01*
X65249Y40914D01*
X65338Y40464D01*
X65370Y39972D01*
X65358Y39711D01*
X65323Y39459D01*
X65265Y39217D01*
X65186Y38986D01*
X65085Y38767D01*
X64964Y38560D01*
X64823Y38369D01*
X64663Y38193D01*
X64484Y38032D01*
X64287Y37890D01*
X64074Y37767D01*
X63843Y37663D01*
X63597Y37580D01*
X63336Y37520D01*
X63060Y37482D01*
X62770Y37470D01*
X62430Y37481D01*
X62111Y37515D01*
X61816Y37572D01*
X61542Y37652D01*
X61291Y37757D01*
X61061Y37886D01*
X60852Y38039D01*
X60665Y38218D01*
X60499Y38424D01*
X60354Y38655D01*
X60230Y38913D01*
X60126Y39198D01*
X60043Y39511D01*
X59980Y39852D01*
X59936Y40222D01*
X59913Y40621D01*
G36*
X59913Y40621D02*
X61789Y40904D01*
X61811Y40458D01*
X61858Y40085D01*
X61930Y39779D01*
X62026Y39538D01*
X62148Y39357D01*
X62294Y39232D01*
X62465Y39161D01*
X62659Y39138D01*
X62813Y39155D01*
X62937Y39202D01*
X63033Y39277D01*
X63106Y39371D01*
X63156Y39481D01*
X63189Y39604D01*
X63211Y39861D01*
X63192Y40155D01*
X63135Y40422D01*
X63044Y40668D01*
X62919Y40898D01*
X62762Y41116D01*
X62575Y41327D01*
X62361Y41537D01*
X62120Y41750D01*
X61261Y42498D01*
X60986Y42743D01*
X60732Y43002D01*
X60505Y43280D01*
X60308Y43580D01*
X60147Y43907D01*
X60027Y44263D01*
X59951Y44656D01*
X59925Y45086D01*
X59937Y45391D01*
X59974Y45679D01*
X60035Y45949D01*
X60119Y46200D01*
X60225Y46432D01*
X60353Y46646D01*
X60503Y46840D01*
X60673Y47015D01*
X60863Y47170D01*
X61073Y47306D01*
X61302Y47420D01*
X61549Y47515D01*
X61814Y47589D01*
X62096Y47643D01*
X62394Y47675D01*
X62709Y47685D01*
X63085Y47666D01*
X63422Y47611D01*
X63720Y47525D01*
X63983Y47408D01*
X64213Y47266D01*
X64411Y47100D01*
X64580Y46913D01*
X64723Y46711D01*
X64841Y46496D01*
X64937Y46269D01*
X65013Y46035D01*
X65071Y45797D01*
X65144Y45320D01*
X65173Y44865D01*
X63285Y44631D01*
X63252Y45230D01*
X63217Y45478D01*
X63162Y45686D01*
X63082Y45854D01*
X62971Y45977D01*
X62824Y46052D01*
X62635Y46079D01*
X62493Y46059D01*
X62372Y46006D01*
X62271Y45925D01*
X62189Y45821D01*
X62126Y45701D01*
X62081Y45571D01*
X62055Y45438D01*
X62046Y45306D01*
X62064Y45046D01*
X62115Y44811D01*
X62197Y44599D01*
X62309Y44404D01*
X62447Y44218D01*
X62610Y44039D01*
X63003Y43675D01*
X63824Y42951D01*
X64137Y42669D01*
X64428Y42369D01*
X64691Y42048D01*
X64919Y41701D01*
X65107Y41325D01*
X65249Y40914D01*
X65338Y40464D01*
X65370Y39972D01*
X65358Y39711D01*
X65323Y39459D01*
X65265Y39217D01*
X65186Y38986D01*
X65085Y38767D01*
X64964Y38560D01*
X64823Y38369D01*
X64663Y38193D01*
X64484Y38032D01*
X64287Y37890D01*
X64074Y37767D01*
X63843Y37663D01*
X63597Y37580D01*
X63336Y37520D01*
X63060Y37482D01*
X62770Y37470D01*
X62430Y37481D01*
X62111Y37515D01*
X61816Y37572D01*
X61542Y37652D01*
X61291Y37757D01*
X61061Y37886D01*
X60852Y38039D01*
X60665Y38218D01*
X60499Y38424D01*
X60354Y38655D01*
X60230Y38913D01*
X60126Y39198D01*
X60043Y39511D01*
X59980Y39852D01*
X59936Y40222D01*
X59913Y40621D01*
G37*
X65958Y47550D02*
X68153D01*
Y37618D01*
X65958D01*
Y47550D01*
G36*
X65958Y47550D02*
X68153D01*
Y37618D01*
X65958D01*
Y47550D01*
G37*
X73139Y42768D02*
X71902Y41479D01*
X72935D01*
Y40316D01*
X72926Y40066D01*
X72896Y39829D01*
X72841Y39611D01*
X72759Y39418D01*
X72644Y39257D01*
X72495Y39133D01*
X72307Y39056D01*
X72077Y39028D01*
X71848Y39055D01*
X71664Y39130D01*
X71520Y39249D01*
X71413Y39406D01*
X71337Y39595D01*
X71289Y39809D01*
X71263Y40043D01*
X71255Y40290D01*
Y44889D01*
X71274Y45338D01*
X71308Y45549D01*
X71369Y45740D01*
X71463Y45902D01*
X71597Y46029D01*
X71681Y46076D01*
X71779Y46111D01*
X72016Y46140D01*
X72244Y46115D01*
X72420Y46043D01*
X72550Y45928D01*
X72641Y45780D01*
X72700Y45601D01*
X72733Y45400D01*
X72751Y44950D01*
Y44141D01*
X74897D01*
Y44779D01*
X74889Y45096D01*
X74862Y45400D01*
X74817Y45689D01*
X74752Y45963D01*
X74665Y46219D01*
X74556Y46458D01*
X74424Y46679D01*
X74267Y46880D01*
X74085Y47061D01*
X73875Y47221D01*
X73637Y47359D01*
X73371Y47474D01*
X73074Y47565D01*
X72746Y47631D01*
X72385Y47671D01*
X71991Y47685D01*
X71583Y47669D01*
X71211Y47624D01*
X70874Y47548D01*
X70568Y47444D01*
X70294Y47310D01*
X70051Y47151D01*
X69837Y46965D01*
X69650Y46754D01*
X69490Y46517D01*
X69356Y46257D01*
X69245Y45974D01*
X69157Y45668D01*
X69092Y45340D01*
X69046Y44993D01*
X69020Y44626D01*
X69011Y44239D01*
Y40904D01*
X69019Y40528D01*
X69043Y40168D01*
X69086Y39826D01*
X69147Y39504D01*
X69228Y39200D01*
X69330Y38917D01*
X69453Y38657D01*
X69600Y38419D01*
X69771Y38206D01*
X69967Y38017D01*
X70189Y37855D01*
X70439Y37719D01*
X70717Y37611D01*
X71025Y37533D01*
X71363Y37487D01*
X71733Y37470D01*
X72041Y37489D01*
X72314Y37543D01*
X72553Y37628D01*
X72762Y37744D01*
X72943Y37885D01*
X73097Y38050D01*
X73229Y38236D01*
X73339Y38439D01*
X73463Y37618D01*
X74909D01*
Y42768D01*
X73139D01*
G36*
X73139Y42768D02*
X71902Y41479D01*
X72935D01*
Y40316D01*
X72926Y40066D01*
X72896Y39829D01*
X72841Y39611D01*
X72759Y39418D01*
X72644Y39257D01*
X72495Y39133D01*
X72307Y39056D01*
X72077Y39028D01*
X71848Y39055D01*
X71664Y39130D01*
X71520Y39249D01*
X71413Y39406D01*
X71337Y39595D01*
X71289Y39809D01*
X71263Y40043D01*
X71255Y40290D01*
Y44889D01*
X71274Y45338D01*
X71308Y45549D01*
X71369Y45740D01*
X71463Y45902D01*
X71597Y46029D01*
X71681Y46076D01*
X71779Y46111D01*
X72016Y46140D01*
X72244Y46115D01*
X72420Y46043D01*
X72550Y45928D01*
X72641Y45780D01*
X72700Y45601D01*
X72733Y45400D01*
X72751Y44950D01*
Y44141D01*
X74897D01*
Y44779D01*
X74889Y45096D01*
X74862Y45400D01*
X74817Y45689D01*
X74752Y45963D01*
X74665Y46219D01*
X74556Y46458D01*
X74424Y46679D01*
X74267Y46880D01*
X74085Y47061D01*
X73875Y47221D01*
X73637Y47359D01*
X73371Y47474D01*
X73074Y47565D01*
X72746Y47631D01*
X72385Y47671D01*
X71991Y47685D01*
X71583Y47669D01*
X71211Y47624D01*
X70874Y47548D01*
X70568Y47444D01*
X70294Y47310D01*
X70051Y47151D01*
X69837Y46965D01*
X69650Y46754D01*
X69490Y46517D01*
X69356Y46257D01*
X69245Y45974D01*
X69157Y45668D01*
X69092Y45340D01*
X69046Y44993D01*
X69020Y44626D01*
X69011Y44239D01*
Y40904D01*
X69019Y40528D01*
X69043Y40168D01*
X69086Y39826D01*
X69147Y39504D01*
X69228Y39200D01*
X69330Y38917D01*
X69453Y38657D01*
X69600Y38419D01*
X69771Y38206D01*
X69967Y38017D01*
X70189Y37855D01*
X70439Y37719D01*
X70717Y37611D01*
X71025Y37533D01*
X71363Y37487D01*
X71733Y37470D01*
X72041Y37489D01*
X72314Y37543D01*
X72553Y37628D01*
X72762Y37744D01*
X72943Y37885D01*
X73097Y38050D01*
X73229Y38236D01*
X73339Y38439D01*
X73463Y37618D01*
X74909D01*
Y42768D01*
X73139D01*
G37*
X75793Y47550D02*
X77337D01*
X79373Y42768D01*
Y47550D01*
X81188D01*
Y37618D01*
X79704D01*
X77669Y42768D01*
Y37618D01*
X75793D01*
Y47550D01*
G36*
X75793Y47550D02*
X77337D01*
X79373Y42768D01*
Y47550D01*
X81188D01*
Y37618D01*
X79704D01*
X77669Y42768D01*
Y37618D01*
X75793D01*
Y47550D01*
G37*
X81960Y40621D02*
X83836Y40904D01*
X83858Y40458D01*
X83905Y40085D01*
X83977Y39779D01*
X84074Y39538D01*
X84195Y39357D01*
X84342Y39232D01*
X84512Y39161D01*
X84707Y39138D01*
X84861Y39155D01*
X84985Y39202D01*
X85081Y39277D01*
X85153Y39371D01*
X85204Y39481D01*
X85236Y39604D01*
X85259Y39861D01*
X85239Y40155D01*
X85183Y40422D01*
X85091Y40668D01*
X84966Y40898D01*
X84809Y41116D01*
X84622Y41327D01*
X84408Y41537D01*
X84168Y41750D01*
X83309Y42498D01*
X83033Y42743D01*
X82780Y43002D01*
X82552Y43280D01*
X82356Y43580D01*
X82195Y43907D01*
X82074Y44263D01*
X81999Y44656D01*
X81972Y45086D01*
X81985Y45391D01*
X82022Y45679D01*
X82082Y45949D01*
X82166Y46200D01*
X82272Y46432D01*
X82400Y46646D01*
X82550Y46840D01*
X82720Y47015D01*
X82911Y47170D01*
X83121Y47306D01*
X83350Y47420D01*
X83597Y47515D01*
X83862Y47589D01*
X84144Y47643D01*
X84442Y47675D01*
X84756Y47685D01*
X85133Y47666D01*
X85469Y47611D01*
X85768Y47525D01*
X86031Y47408D01*
X86260Y47266D01*
X86458Y47100D01*
X86628Y46913D01*
X86770Y46711D01*
X86888Y46496D01*
X86984Y46269D01*
X87060Y46035D01*
X87119Y45797D01*
X87191Y45320D01*
X87221Y44865D01*
X85332Y44631D01*
X85300Y45230D01*
X85265Y45478D01*
X85210Y45686D01*
X85130Y45854D01*
X85019Y45977D01*
X84871Y46052D01*
X84682Y46079D01*
X84541Y46059D01*
X84420Y46006D01*
X84319Y45925D01*
X84237Y45821D01*
X84174Y45701D01*
X84129Y45571D01*
X84102Y45438D01*
X84094Y45306D01*
X84111Y45046D01*
X84162Y44811D01*
X84244Y44599D01*
X84356Y44404D01*
X84494Y44218D01*
X84658Y44039D01*
X85050Y43675D01*
X85872Y42951D01*
X86185Y42669D01*
X86476Y42369D01*
X86738Y42048D01*
X86966Y41701D01*
X87154Y41325D01*
X87296Y40914D01*
X87386Y40464D01*
X87417Y39972D01*
X87405Y39711D01*
X87370Y39459D01*
X87313Y39217D01*
X87233Y38986D01*
X87133Y38767D01*
X87011Y38560D01*
X86870Y38369D01*
X86711Y38193D01*
X86531Y38032D01*
X86335Y37890D01*
X86121Y37767D01*
X85891Y37663D01*
X85644Y37580D01*
X85383Y37520D01*
X85107Y37482D01*
X84817Y37470D01*
X84477Y37481D01*
X84159Y37515D01*
X83863Y37572D01*
X83590Y37652D01*
X83338Y37757D01*
X83108Y37886D01*
X82900Y38039D01*
X82713Y38218D01*
X82547Y38424D01*
X82402Y38655D01*
X82278Y38913D01*
X82174Y39198D01*
X82090Y39511D01*
X82027Y39852D01*
X81984Y40222D01*
X81960Y40621D01*
G36*
X81960Y40621D02*
X83836Y40904D01*
X83858Y40458D01*
X83905Y40085D01*
X83977Y39779D01*
X84074Y39538D01*
X84195Y39357D01*
X84342Y39232D01*
X84512Y39161D01*
X84707Y39138D01*
X84861Y39155D01*
X84985Y39202D01*
X85081Y39277D01*
X85153Y39371D01*
X85204Y39481D01*
X85236Y39604D01*
X85259Y39861D01*
X85239Y40155D01*
X85183Y40422D01*
X85091Y40668D01*
X84966Y40898D01*
X84809Y41116D01*
X84622Y41327D01*
X84408Y41537D01*
X84168Y41750D01*
X83309Y42498D01*
X83033Y42743D01*
X82780Y43002D01*
X82552Y43280D01*
X82356Y43580D01*
X82195Y43907D01*
X82074Y44263D01*
X81999Y44656D01*
X81972Y45086D01*
X81985Y45391D01*
X82022Y45679D01*
X82082Y45949D01*
X82166Y46200D01*
X82272Y46432D01*
X82400Y46646D01*
X82550Y46840D01*
X82720Y47015D01*
X82911Y47170D01*
X83121Y47306D01*
X83350Y47420D01*
X83597Y47515D01*
X83862Y47589D01*
X84144Y47643D01*
X84442Y47675D01*
X84756Y47685D01*
X85133Y47666D01*
X85469Y47611D01*
X85768Y47525D01*
X86031Y47408D01*
X86260Y47266D01*
X86458Y47100D01*
X86628Y46913D01*
X86770Y46711D01*
X86888Y46496D01*
X86984Y46269D01*
X87060Y46035D01*
X87119Y45797D01*
X87191Y45320D01*
X87221Y44865D01*
X85332Y44631D01*
X85300Y45230D01*
X85265Y45478D01*
X85210Y45686D01*
X85130Y45854D01*
X85019Y45977D01*
X84871Y46052D01*
X84682Y46079D01*
X84541Y46059D01*
X84420Y46006D01*
X84319Y45925D01*
X84237Y45821D01*
X84174Y45701D01*
X84129Y45571D01*
X84102Y45438D01*
X84094Y45306D01*
X84111Y45046D01*
X84162Y44811D01*
X84244Y44599D01*
X84356Y44404D01*
X84494Y44218D01*
X84658Y44039D01*
X85050Y43675D01*
X85872Y42951D01*
X86185Y42669D01*
X86476Y42369D01*
X86738Y42048D01*
X86966Y41701D01*
X87154Y41325D01*
X87296Y40914D01*
X87386Y40464D01*
X87417Y39972D01*
X87405Y39711D01*
X87370Y39459D01*
X87313Y39217D01*
X87233Y38986D01*
X87133Y38767D01*
X87011Y38560D01*
X86870Y38369D01*
X86711Y38193D01*
X86531Y38032D01*
X86335Y37890D01*
X86121Y37767D01*
X85891Y37663D01*
X85644Y37580D01*
X85383Y37520D01*
X85107Y37482D01*
X84817Y37470D01*
X84477Y37481D01*
X84159Y37515D01*
X83863Y37572D01*
X83590Y37652D01*
X83338Y37757D01*
X83108Y37886D01*
X82900Y38039D01*
X82713Y38218D01*
X82547Y38424D01*
X82402Y38655D01*
X82278Y38913D01*
X82174Y39198D01*
X82090Y39511D01*
X82027Y39852D01*
X81984Y40222D01*
X81960Y40621D01*
G37*
X88239Y47550D02*
Y37618D01*
X90433D01*
Y41836D01*
X91316D01*
X91901Y41864D01*
X92178Y41900D01*
X92443Y41956D01*
X92694Y42031D01*
X92930Y42127D01*
X93150Y42247D01*
X93354Y42393D01*
X93537Y42564D01*
X93701Y42765D01*
X93844Y42996D01*
X93963Y43258D01*
X94059Y43556D01*
X94128Y43888D01*
X94171Y44259D01*
X94186Y44668D01*
X94176Y45004D01*
X94146Y45320D01*
X94097Y45617D01*
X94028Y45895D01*
X93938Y46151D01*
X93828Y46388D01*
X93698Y46605D01*
X93546Y46799D01*
X93374Y46972D01*
X93181Y47124D01*
X92968Y47252D01*
X92732Y47358D01*
X92475Y47441D01*
X92196Y47501D01*
X91896Y47538D01*
X91574Y47550D01*
X88239D01*
X91169Y43368D02*
X90433D01*
Y46005D01*
X91157D01*
X91452Y45980D01*
X91681Y45907D01*
X91852Y45791D01*
X91972Y45636D01*
X92052Y45445D01*
X92098Y45224D01*
X92120Y44976D01*
X92126Y44705D01*
X92118Y44387D01*
X92090Y44113D01*
X92037Y43883D01*
X91951Y43697D01*
X91828Y43552D01*
X91660Y43450D01*
X91443Y43389D01*
X91169Y43368D01*
X88289Y44686D02*
G36*
X88289Y44686D02*
Y37668D01*
X90433D01*
Y41836D01*
X91316D01*
X91901Y41864D01*
X92178Y41900D01*
X92443Y41956D01*
X92694Y42031D01*
X92930Y42127D01*
X93150Y42247D01*
X93354Y42393D01*
X93537Y42564D01*
X93701Y42765D01*
X93844Y42996D01*
X93963Y43258D01*
X94059Y43556D01*
X94128Y43888D01*
X94136Y43953D01*
Y44686D01*
X92125D01*
X92118Y44387D01*
X92090Y44113D01*
X92037Y43883D01*
X91951Y43697D01*
X91828Y43552D01*
X91660Y43450D01*
X91443Y43389D01*
X91169Y43368D01*
X90433D01*
Y44686D01*
X88289D01*
G37*
Y47500D02*
G36*
X88289Y47500D02*
Y44686D01*
X90433D01*
Y46005D01*
X91157D01*
X91452Y45980D01*
X91681Y45907D01*
X91852Y45791D01*
X91972Y45636D01*
X92052Y45445D01*
X92098Y45224D01*
X92120Y44976D01*
X92126Y44705D01*
X92125Y44686D01*
X94136D01*
Y45384D01*
X94097Y45617D01*
X94028Y45895D01*
X93938Y46151D01*
X93828Y46388D01*
X93698Y46605D01*
X93546Y46799D01*
X93374Y46972D01*
X93181Y47124D01*
X92968Y47252D01*
X92732Y47358D01*
X92475Y47441D01*
X92200Y47500D01*
X88289D01*
G37*
X98073Y47550D02*
X95571D01*
X93695Y37618D01*
X95767D01*
X96111Y39715D01*
X96307Y41026D01*
X96834Y44901D01*
X97362Y41026D01*
X96111Y39715D01*
X97570D01*
X97902Y37618D01*
X99925D01*
X98073Y47550D01*
G36*
X98073Y47550D02*
X95571D01*
X93695Y37618D01*
X95767D01*
X96111Y39715D01*
X96307Y41026D01*
X96834Y44901D01*
X97362Y41026D01*
X96111Y39715D01*
X97570D01*
X97902Y37618D01*
X99925D01*
X98073Y47550D01*
G37*
X100439D02*
Y37618D01*
X102634D01*
Y42069D01*
X103260D01*
X104351Y37618D01*
X106620D01*
X105259Y42425D01*
X105593Y42616D01*
X105862Y42839D01*
X106074Y43097D01*
X106233Y43390D01*
X106347Y43718D01*
X106421Y44083D01*
X106461Y44486D01*
X106473Y44926D01*
X106457Y45299D01*
X106413Y45637D01*
X106339Y45943D01*
X106238Y46216D01*
X106110Y46458D01*
X105956Y46672D01*
X105777Y46859D01*
X105573Y47020D01*
X105346Y47156D01*
X105096Y47269D01*
X104825Y47361D01*
X104533Y47433D01*
X104221Y47487D01*
X103890Y47522D01*
X103174Y47550D01*
X100439D01*
X103248Y43331D02*
X102634D01*
Y46079D01*
X103346D01*
X103632Y46056D01*
X103868Y45987D01*
X104057Y45875D01*
X104204Y45721D01*
X104312Y45528D01*
X104384Y45297D01*
X104424Y45030D01*
X104437Y44730D01*
X104424Y44416D01*
X104381Y44139D01*
X104303Y43899D01*
X104187Y43699D01*
X104028Y43541D01*
X103822Y43426D01*
X103563Y43356D01*
X103248Y43331D01*
X100489Y44705D02*
G36*
X100489Y44705D02*
Y37668D01*
X102634D01*
Y42069D01*
X103260D01*
X104339Y37668D01*
X106570D01*
Y37795D01*
X105259Y42425D01*
X105593Y42616D01*
X105862Y42839D01*
X106074Y43097D01*
X106233Y43390D01*
X106347Y43718D01*
X106421Y44083D01*
X106461Y44486D01*
X106467Y44705D01*
X104436D01*
X104424Y44416D01*
X104381Y44139D01*
X104303Y43899D01*
X104187Y43699D01*
X104028Y43541D01*
X103822Y43426D01*
X103563Y43356D01*
X103248Y43331D01*
X102634D01*
Y44705D01*
X100489D01*
G37*
Y47500D02*
G36*
X100489Y47500D02*
Y44705D01*
X102634D01*
Y46079D01*
X103346D01*
X103632Y46056D01*
X103868Y45987D01*
X104057Y45875D01*
X104204Y45721D01*
X104312Y45528D01*
X104384Y45297D01*
X104424Y45030D01*
X104437Y44730D01*
X104436Y44705D01*
X106467D01*
X106473Y44926D01*
X106457Y45299D01*
X106413Y45637D01*
X106339Y45943D01*
X106238Y46216D01*
X106110Y46458D01*
X105956Y46672D01*
X105777Y46859D01*
X105573Y47020D01*
X105346Y47156D01*
X105096Y47269D01*
X104825Y47361D01*
X104533Y47433D01*
X104221Y47487D01*
X104096Y47500D01*
X100489D01*
G37*
X107306Y47550D02*
X109502D01*
Y43491D01*
X111169Y47550D01*
X113315D01*
X111476Y43063D01*
X113401Y37618D01*
X111169D01*
X109734Y42008D01*
X109502Y41615D01*
Y37618D01*
X107306D01*
Y47550D01*
G36*
X107306Y47550D02*
X109502D01*
Y43491D01*
X111169Y47550D01*
X113315D01*
X111476Y43063D01*
X113401Y37618D01*
X111169D01*
X109734Y42008D01*
X109502Y41615D01*
Y37618D01*
X107306D01*
Y47550D01*
G37*
X112504Y43059D02*
X122434Y43060D02*
X122441D01*
X122434D02*
X122441D01*
X122428D01*
X116106Y43551D01*
X118576Y45359D01*
X115494Y44347D01*
X116961Y47559D01*
X112504Y43059D01*
X116961Y38559D01*
X115494Y41771D01*
X118576Y40760D01*
X116106Y42567D01*
X122428Y43059D01*
X122441D01*
Y43060D01*
G36*
X122441Y43060D02*
X122428D01*
X116106Y43551D01*
X118576Y45359D01*
X115494Y44347D01*
X116961Y47559D01*
X112504Y43059D01*
X116961Y38559D01*
X115494Y41771D01*
X118576Y40760D01*
X116106Y42567D01*
X122428Y43059D01*
X122441D01*
Y43060D01*
G37*
D02*
D126*
X39764Y232972D02*
G75*
G03*
Y233169I0J98D01*
G01*
Y232972D02*
G75*
G02*
Y233169I0J98D01*
G01*
X0Y0D02*
M02*
