G05
M48
;#@! TF.GenerationSoftware,DesignSpark,DesignSpark PCB PRO,10.0.5344
;#@! TF.CreationDate,2022-04-04T09:03:48+00:00*
;#@! TF.FileFunction,Plated,1,2,PTH
;FILE_FORMAT=3:5
;TYPE=PLATED
INCH,TZ
FMAT,2
T1C000.01969
T2C000.02992
T3C000.03200
T4C000.04094
T5C000.13189
%
T001
X0.18110Y0.42913
X0.18110Y0.68898
X0.18110Y0.94882
X0.18110Y1.20866
X0.21654Y1.81102
X0.33071Y0.67323
X0.33071Y0.73228
X0.33465Y0.16142
X0.35827Y1.76772
X0.39370Y1.37008
X0.39764Y1.88189
X0.39764Y2.10630
X0.45276Y1.03937
X0.49213Y1.35039
X0.53150Y0.69291
X0.59449Y0.16142
X0.59843Y0.61811
X0.60236Y2.50394
X0.65354Y1.75197
X0.77165Y0.98819
X0.81890Y2.11811
X0.85433Y0.16142
X0.85433Y2.29921
X0.85433Y2.44488
X0.88976Y1.39720
X0.91732Y1.72047
X0.94488Y1.01575
X0.96063Y1.64961
X0.96850Y1.51575
X0.99606Y1.72047
X1.02756Y0.52362
X1.04331Y2.65354
X1.10236Y0.96063
X1.11417Y0.16142
X1.31102Y0.37795
X1.33465Y2.28346
T002
X0.60630Y1.25512
X0.60630Y1.35512
X0.60630Y1.45512
X0.60630Y1.55512
X0.70630Y1.20512
X0.70630Y1.30512
X0.70630Y1.40512
X0.70630Y1.50512
T003
X1.20866Y0.66929
X1.22579Y1.76516
T004
X1.15591Y1.13189
X1.15591Y1.23189
X1.15591Y1.33189
X1.15591Y1.43189
X1.15591Y1.53189
X1.15591Y1.63189
X1.25591Y1.13189
X1.25591Y1.23189
X1.25591Y1.33189
X1.25591Y1.43189
X1.25591Y1.53189
X1.25591Y1.63189
T005
X0.35630Y1.15508
X0.35630Y1.60516
M30
