G04 DesignSpark PCB PRO Gerber Version 10.0 Build 5299*
G04 #@! TF.Part,Single*
G04 #@! TF.FileFunction,Legend,Top*
G04 #@! TF.FilePolarity,Positive*
%FSLAX35Y35*%
%MOIN*%
%ADD116C,0.00197*%
%ADD13C,0.00300*%
%ADD14C,0.00394*%
%ADD10C,0.00500*%
%ADD11C,0.00787*%
%ADD12C,0.00800*%
G04 #@! TD.AperFunction*
X0Y0D02*
D02*
D10*
X21260Y103137D02*
X21572Y102825D01*
X22197Y102512D01*
X22822Y102825D01*
X23135Y103137D01*
Y106262D01*
X23760D01*
X23135D02*
X21885D01*
X26885Y102512D02*
X28135D01*
X27510D02*
Y106262D01*
X26885Y105637D01*
X24803Y7699D02*
Y8012D01*
X25116Y8949D01*
X25428Y9262D01*
X26053Y9574D01*
X26678D01*
X27303Y9262D01*
X27616Y8949D01*
X27928Y8012D01*
Y7699D01*
X27616Y7074D01*
X27303Y6762D01*
X26678Y6449D01*
X26053D01*
X25428Y6762D01*
X25116Y7074D01*
X24803Y7699D01*
X26991D02*
X26366Y7387D01*
X25741Y7699D01*
Y8324D01*
X26366Y8637D01*
X26991Y8324D01*
X34803Y6449D02*
Y10199D01*
X36991D01*
X37616Y9887D01*
X37928Y9262D01*
X37616Y8637D01*
X36991Y8324D01*
X34803D01*
X36991D02*
X37928Y6449D01*
X39803Y7387D02*
X40116Y6762D01*
X40741Y6449D01*
X41991D01*
X42616Y6762D01*
X42928Y7387D01*
X42616Y8012D01*
X41991Y8324D01*
X40741D01*
X40116Y8637D01*
X39803Y9262D01*
X40116Y9887D01*
X40741Y10199D01*
X41991D01*
X42616Y9887D01*
X42928Y9262D01*
X52928Y7074D02*
X52616Y6762D01*
X51991Y6449D01*
X51053D01*
X50428Y6762D01*
X50116Y7074D01*
X49803Y7699D01*
Y8949D01*
X50116Y9574D01*
X50428Y9887D01*
X51053Y10199D01*
X51991D01*
X52616Y9887D01*
X52928Y9574D01*
X54803Y7387D02*
X55116Y6762D01*
X55741Y6449D01*
X56366D01*
X56991Y6762D01*
X57303Y7387D01*
Y8012D01*
X56991Y8637D01*
X56366Y8949D01*
X55741D01*
X55116Y8637D01*
X54803Y8012D01*
Y7387D01*
X59803Y6449D02*
Y8949D01*
Y8637D02*
X60116Y8949D01*
X60741D01*
X61053Y8637D01*
Y7699D01*
Y8637D02*
X61366Y8949D01*
X61991D01*
X62303Y8637D01*
Y6449D01*
X64803Y8949D02*
Y5512D01*
Y7387D02*
X65116Y6762D01*
X65741Y6449D01*
X66366D01*
X66991Y6762D01*
X67303Y7387D01*
Y8012D01*
X66991Y8637D01*
X66366Y8949D01*
X65741D01*
X65116Y8637D01*
X64803Y8012D01*
Y7387D01*
X69803D02*
X70116Y6762D01*
X70741Y6449D01*
X71366D01*
X71991Y6762D01*
X72303Y7387D01*
Y8012D01*
X71991Y8637D01*
X71366Y8949D01*
X70741D01*
X70116Y8637D01*
X69803Y8012D01*
Y7387D01*
X74803Y6449D02*
Y8949D01*
Y8012D02*
X75116Y8637D01*
X75741Y8949D01*
X76366D01*
X76991Y8637D01*
X77303Y8012D01*
Y6449D01*
X82303Y6762D02*
X81991Y6449D01*
X81366D01*
X80741D01*
X80116Y6762D01*
X79803Y7387D01*
Y8324D01*
X80116Y8637D01*
X80741Y8949D01*
X81366D01*
X81991Y8637D01*
X82303Y8324D01*
Y8012D01*
X81991Y7699D01*
X81366Y7387D01*
X80741D01*
X80116Y7699D01*
X79803Y8012D01*
X84803Y6449D02*
Y8949D01*
Y8012D02*
X85116Y8637D01*
X85741Y8949D01*
X86366D01*
X86991Y8637D01*
X87303Y8012D01*
Y6449D01*
X90324Y8949D02*
X91782D01*
X91053Y9574D02*
Y6762D01*
X91366Y6449D01*
X91678D01*
X91991Y6762D01*
X94803D02*
X95428Y6449D01*
X96678D01*
X97303Y6762D01*
Y7387D01*
X96678Y7699D01*
X95428D01*
X94803Y8012D01*
Y8637D01*
X95428Y8949D01*
X96678D01*
X97303Y8637D01*
X107303Y6449D02*
X104803D01*
X106991Y8637D01*
X107303Y9262D01*
X106991Y9887D01*
X106366Y10199D01*
X105428D01*
X104803Y9887D01*
X110116Y6762D02*
X110741Y6449D01*
X111366D01*
X111991Y6762D01*
X112303Y7387D01*
Y9262D01*
X111991Y9887D01*
X111366Y10199D01*
X110741D01*
X110116Y9887D01*
X109803Y9262D01*
Y7387D01*
X110116Y6762D01*
X111991Y9887D01*
X117303Y6449D02*
X114803D01*
X116991Y8637D01*
X117303Y9262D01*
X116991Y9887D01*
X116366Y10199D01*
X115428D01*
X114803Y9887D01*
X122303Y6449D02*
X119803D01*
X121991Y8637D01*
X122303Y9262D01*
X121991Y9887D01*
X121366Y10199D01*
X120428D01*
X119803Y9887D01*
X31484Y61835D02*
X31171Y62148D01*
X30859Y62773D01*
Y63711D01*
X31171Y64335D01*
X31484Y64648D01*
X32109Y64961D01*
X33359D01*
X33984Y64648D01*
X34296Y64335D01*
X34609Y63711D01*
Y62773D01*
X34296Y62148D01*
X33984Y61835D01*
X30859Y58398D02*
X34609D01*
X32109Y59961D01*
Y57461D01*
X31484Y79158D02*
X31171Y79471D01*
X30859Y80096D01*
Y81033D01*
X31171Y81658D01*
X31484Y81971D01*
X32109Y82283D01*
X33359D01*
X33984Y81971D01*
X34296Y81658D01*
X34609Y81033D01*
Y80096D01*
X34296Y79471D01*
X33984Y79158D01*
X31171Y77283D02*
X30859Y76658D01*
Y75721D01*
X31171Y75096D01*
X31796Y74783D01*
X32109D01*
X32734Y75096D01*
X33046Y75721D01*
Y77283D01*
X34609D01*
Y74783D01*
X35539Y82922D02*
X40839D01*
Y70622D01*
X35539D01*
Y82922D01*
X37402Y26134D02*
Y29884D01*
X40527D01*
X39902Y28009D02*
X37402D01*
Y26134D02*
X40527D01*
X42402Y27072D02*
X42714Y26447D01*
X43339Y26134D01*
X44589D01*
X45214Y26447D01*
X45527Y27072D01*
X45214Y27697D01*
X44589Y28009D01*
X43339D01*
X42714Y28322D01*
X42402Y28947D01*
X42714Y29572D01*
X43339Y29884D01*
X44589D01*
X45214Y29572D01*
X45527Y28947D01*
X47402Y26134D02*
Y29884D01*
X49277D01*
X49902Y29572D01*
X50214Y29259D01*
X50527Y28634D01*
Y27384D01*
X50214Y26759D01*
X49902Y26447D01*
X49277Y26134D01*
X47402D01*
X52402D02*
Y29884D01*
Y28009D02*
X53339D01*
X55527Y29884D01*
X53339Y28009D02*
X55527Y26134D01*
X57402Y27384D02*
X59902D01*
X65527Y26759D02*
X65214Y26447D01*
X64589Y26134D01*
X63652D01*
X63027Y26447D01*
X62714Y26759D01*
X62402Y27384D01*
Y28634D01*
X62714Y29259D01*
X63027Y29572D01*
X63652Y29884D01*
X64589D01*
X65214Y29572D01*
X65527Y29259D01*
X67402Y26134D02*
Y29884D01*
X69589D01*
X70214Y29572D01*
X70527Y28947D01*
X70214Y28322D01*
X69589Y28009D01*
X67402D01*
X69589D02*
X70527Y26134D01*
X72402D02*
Y29884D01*
X75527D01*
X74902Y28009D02*
X72402D01*
Y26134D02*
X75527D01*
X77402Y27384D02*
X79902D01*
X84589Y28009D02*
X85214Y27697D01*
X85527Y27072D01*
X85214Y26447D01*
X84589Y26134D01*
X82402D01*
Y29884D01*
X84589D01*
X85214Y29572D01*
X85527Y28947D01*
X85214Y28322D01*
X84589Y28009D01*
X82402D01*
X92402Y28634D02*
X93652Y26134D01*
X94902Y28634D01*
X97714Y26447D02*
X98339Y26134D01*
X98964D01*
X99589Y26447D01*
X99902Y27072D01*
Y28947D01*
X99589Y29572D01*
X98964Y29884D01*
X98339D01*
X97714Y29572D01*
X97402Y28947D01*
Y27072D01*
X97714Y26447D01*
X99589Y29572D01*
X102714Y26134D02*
X103027Y26447D01*
X102714Y26759D01*
X102402Y26447D01*
X102714Y26134D01*
X109902D02*
X107402D01*
X109589Y28322D01*
X109902Y28947D01*
X109589Y29572D01*
X108964Y29884D01*
X108027D01*
X107402Y29572D01*
X40839Y57630D02*
X35539D01*
Y69930D01*
X40839D01*
Y57630D01*
X51157Y189358D02*
X50844Y189045D01*
X50219Y188733D01*
X49281D01*
X48657Y189045D01*
X48344Y189358D01*
X48031Y189983D01*
Y191233D01*
X48344Y191858D01*
X48657Y192170D01*
X49281Y192483D01*
X50219D01*
X50844Y192170D01*
X51157Y191858D01*
X53657Y188733D02*
X54907D01*
X54281D02*
Y192483D01*
X53657Y191858D01*
X53125Y230696D02*
X52813Y230384D01*
X52187Y230071D01*
X51250D01*
X50625Y230384D01*
X50313Y230696D01*
X50000Y231321D01*
Y232571D01*
X50313Y233196D01*
X50625Y233509D01*
X51250Y233821D01*
X52187D01*
X52813Y233509D01*
X53125Y233196D01*
X57500Y230071D02*
X55000D01*
X57187Y232259D01*
X57500Y232884D01*
X57187Y233509D01*
X56563Y233821D01*
X55625D01*
X55000Y233509D01*
X51330Y237507D02*
Y242807D01*
X63630D01*
Y237507D01*
X51330D01*
X53937Y243851D02*
Y247601D01*
X56124D01*
X56750Y247289D01*
X57062Y246663D01*
X56750Y246039D01*
X56124Y245726D01*
X53937D01*
X56124D02*
X57062Y243851D01*
X59562D02*
X60812D01*
X60187D02*
Y247601D01*
X59562Y246976D01*
X56056Y99213D02*
X59806D01*
Y97337D01*
X59493Y96713D01*
X59181Y96400D01*
X58556Y96087D01*
X57306D01*
X56681Y96400D01*
X56368Y96713D01*
X56056Y97337D01*
Y99213D01*
Y91713D02*
Y94213D01*
X58243Y92025D01*
X58868Y91713D01*
X59493Y92025D01*
X59806Y92650D01*
Y93587D01*
X59493Y94213D01*
X57630Y75441D02*
Y74191D01*
Y74815D02*
X61380D01*
Y75441D02*
Y74191D01*
X58256Y68253D02*
X57943Y68565D01*
X57630Y69191D01*
Y70128D01*
X57943Y70753D01*
X58256Y71065D01*
X58880Y71378D01*
X60130D01*
X60756Y71065D01*
X61068Y70753D01*
X61380Y70128D01*
Y69191D01*
X61068Y68565D01*
X60756Y68253D01*
X57630Y65753D02*
Y64503D01*
Y65128D02*
X61380D01*
X60756Y65753D01*
X62355Y259843D02*
X66105D01*
Y257655D01*
X65793Y257030D01*
X65167Y256717D01*
X64543Y257030D01*
X64230Y257655D01*
Y259843D01*
Y257655D02*
X62355Y256717D01*
Y254217D02*
Y252967D01*
Y253593D02*
X66105D01*
X65480Y254217D01*
X62667Y249530D02*
X62355Y248905D01*
Y248280D01*
X62667Y247655D01*
X63293Y247343D01*
X65167D01*
X65793Y247655D01*
X66105Y248280D01*
Y248905D01*
X65793Y249530D01*
X65167Y249843D01*
X63293D01*
X62667Y249530D01*
X65793Y247655D01*
X61567Y216641D02*
Y221941D01*
X73867D01*
Y216641D01*
X61567D01*
X63386Y184215D02*
Y180465D01*
X66511D01*
X69011D02*
X70261D01*
X69636D02*
Y184215D01*
X69011Y183590D01*
X65111Y237552D02*
X66361D01*
X65736D02*
Y241302D01*
X65111D02*
X66361D01*
X72298Y238177D02*
X71986Y237864D01*
X71361Y237552D01*
X70423D01*
X69798Y237864D01*
X69486Y238177D01*
X69173Y238802D01*
Y240052D01*
X69486Y240677D01*
X69798Y240989D01*
X70423Y241302D01*
X71361D01*
X71986Y240989D01*
X72298Y240677D01*
X76673Y237552D02*
X74173D01*
X76361Y239739D01*
X76673Y240364D01*
X76361Y240989D01*
X75736Y241302D01*
X74798D01*
X74173Y240989D01*
X64961Y69048D02*
Y72798D01*
X66836D01*
X67461Y72485D01*
X67773Y72173D01*
X68086Y71548D01*
Y70298D01*
X67773Y69673D01*
X67461Y69360D01*
X66836Y69048D01*
X64961D01*
X69961Y69360D02*
X70586Y69048D01*
X71523D01*
X72148Y69360D01*
X72461Y69985D01*
Y70298D01*
X72148Y70923D01*
X71523Y71235D01*
X69961D01*
Y72798D01*
X72461D01*
X67429Y260087D02*
X72729D01*
Y247787D01*
X67429D01*
Y260087D01*
X75984Y214323D02*
Y218073D01*
X77859D01*
X78484Y217761D01*
X78797Y217448D01*
X79109Y216823D01*
Y215573D01*
X78797Y214948D01*
X78484Y214636D01*
X77859Y214323D01*
X75984D01*
X81297Y214636D02*
X81922Y214323D01*
X82547D01*
X83172Y214636D01*
X83484Y215261D01*
X83172Y215886D01*
X82547Y216198D01*
X81922D01*
X82547D02*
X83172Y216511D01*
X83484Y217136D01*
X83172Y217761D01*
X82547Y218073D01*
X81922D01*
X81297Y217761D01*
X78496Y255512D02*
X82246D01*
Y253324D01*
X81934Y252699D01*
X81309Y252387D01*
X80684Y252699D01*
X80372Y253324D01*
Y255512D01*
Y253324D02*
X78496Y252387D01*
Y248012D02*
Y250512D01*
X80684Y248324D01*
X81309Y248012D01*
X81934Y248324D01*
X82246Y248949D01*
Y249887D01*
X81934Y250512D01*
X77665Y247095D02*
X82965D01*
Y234795D01*
X77665D01*
Y247095D01*
X79678Y93307D02*
X83428D01*
Y91120D01*
X83115Y90494D01*
X82490Y90182D01*
X81865Y90494D01*
X81553Y91120D01*
Y93307D01*
Y91120D02*
X79678Y90182D01*
Y87682D02*
Y86432D01*
Y87057D02*
X83428D01*
X82803Y87682D01*
X79678Y81744D02*
X83428D01*
X80928Y83307D01*
Y80807D01*
X78846Y79772D02*
X84146D01*
Y67472D01*
X78846D01*
Y79772D01*
X80027Y108512D02*
X85327D01*
Y96212D01*
X80027D01*
Y108512D01*
Y121504D02*
X85327D01*
Y109204D01*
X80027D01*
Y121504D01*
Y134496D02*
X85327D01*
Y122196D01*
X80027D01*
Y134496D01*
X80315Y265711D02*
Y261961D01*
X83440D01*
X85315D02*
Y265711D01*
X88440D01*
X87815Y263836D02*
X85315D01*
Y261961D02*
X88440D01*
X90315D02*
Y265711D01*
X92190D01*
X92815Y265399D01*
X93128Y265086D01*
X93440Y264461D01*
Y263211D01*
X93128Y262586D01*
X92815Y262274D01*
X92190Y261961D01*
X90315D01*
X97815D02*
X95315D01*
X97502Y264149D01*
X97815Y264774D01*
X97502Y265399D01*
X96878Y265711D01*
X95940D01*
X95315Y265399D01*
X83846Y179158D02*
X83533Y179471D01*
X83221Y180096D01*
Y181033D01*
X83533Y181658D01*
X83846Y181971D01*
X84471Y182283D01*
X85721D01*
X86346Y181971D01*
X86659Y181658D01*
X86971Y181033D01*
Y180096D01*
X86659Y179471D01*
X86346Y179158D01*
X83533Y176971D02*
X83221Y176346D01*
Y175721D01*
X83533Y175096D01*
X84159Y174783D01*
X84783Y175096D01*
X85096Y175721D01*
Y176346D01*
Y175721D02*
X85409Y175096D01*
X86033Y174783D01*
X86659Y175096D01*
X86971Y175721D01*
Y176346D01*
X86659Y176971D01*
X83071Y158418D02*
Y162168D01*
X84946D01*
X85571Y161856D01*
X85883Y161543D01*
X86196Y160918D01*
Y159668D01*
X85883Y159043D01*
X85571Y158730D01*
X84946Y158418D01*
X83071D01*
X88696D02*
X89946D01*
X89321D02*
Y162168D01*
X88696Y161543D01*
X85977Y119291D02*
X89727D01*
Y117104D01*
X89415Y116479D01*
X88789Y116166D01*
X88165Y116479D01*
X87852Y117104D01*
Y119291D01*
Y117104D02*
X85977Y116166D01*
Y112729D02*
X89727D01*
X87227Y114291D01*
Y111791D01*
X85977Y131890D02*
X89727D01*
Y129702D01*
X89415Y129077D01*
X88789Y128765D01*
X88165Y129077D01*
X87852Y129702D01*
Y131890D01*
Y129702D02*
X85977Y128765D01*
X86289Y126577D02*
X85977Y125952D01*
Y125327D01*
X86289Y124702D01*
X86915Y124390D01*
X87539Y124702D01*
X87852Y125327D01*
Y125952D01*
Y125327D02*
X88165Y124702D01*
X88789Y124390D01*
X89415Y124702D01*
X89727Y125327D01*
Y125952D01*
X89415Y126577D01*
X86370Y105906D02*
X90120D01*
Y103718D01*
X89808Y103093D01*
X89183Y102780D01*
X88558Y103093D01*
X88246Y103718D01*
Y105906D01*
Y103718D02*
X86370Y102780D01*
X86683Y100906D02*
X86370Y100280D01*
Y99343D01*
X86683Y98718D01*
X87308Y98406D01*
X87620D01*
X88246Y98718D01*
X88558Y99343D01*
Y100906D01*
X90120D01*
Y98406D01*
X87945Y93307D02*
X91695D01*
Y91120D01*
X91383Y90494D01*
X90758Y90182D01*
X90133Y90494D01*
X89820Y91120D01*
Y93307D01*
Y91120D02*
X87945Y90182D01*
Y87682D02*
Y86432D01*
Y87057D02*
X91695D01*
X91070Y87682D01*
X88258Y82994D02*
X87945Y82370D01*
Y81744D01*
X88258Y81120D01*
X88883Y80807D01*
X89508Y81120D01*
X89820Y81744D01*
Y82370D01*
Y81744D02*
X90133Y81120D01*
X90758Y80807D01*
X91383Y81120D01*
X91695Y81744D01*
Y82370D01*
X91383Y82994D01*
X87114Y79772D02*
X92414D01*
Y67472D01*
X87114D01*
Y79772D01*
X88583Y226528D02*
Y230278D01*
X90458D01*
X91083Y229966D01*
X91395Y229653D01*
X91708Y229028D01*
Y227778D01*
X91395Y227153D01*
X91083Y226841D01*
X90458Y226528D01*
X88583D01*
X95145D02*
Y230278D01*
X93583Y227778D01*
X96083D01*
X89764Y241095D02*
Y244845D01*
X91951D01*
X92576Y244533D01*
X92889Y243907D01*
X92576Y243283D01*
X91951Y242970D01*
X89764D01*
X91951D02*
X92889Y241095D01*
X95701D02*
X96326Y241407D01*
X96951Y242033D01*
X97264Y242970D01*
Y243907D01*
X96951Y244533D01*
X96326Y244845D01*
X95701D01*
X95076Y244533D01*
X94764Y243907D01*
X95076Y243283D01*
X95701Y242970D01*
X96326D01*
X96951Y243283D01*
X97264Y243907D01*
X91838Y116386D02*
X97138D01*
Y104086D01*
X91838D01*
Y116386D01*
Y129378D02*
X97138D01*
Y117078D01*
X91838D01*
Y129378D01*
Y142370D02*
X97138D01*
Y130070D01*
X91838D01*
Y142370D01*
X95232Y174677D02*
Y190677D01*
X88232D01*
Y174677D01*
X95232D01*
X95914Y240052D02*
Y234752D01*
X83614D01*
Y240052D01*
X95914D01*
X96476Y195396D02*
Y217085D01*
X96551Y217628D01*
X96780Y218021D01*
X97171Y218259D01*
X97731Y218340D01*
X109419D01*
X110364Y218157D01*
X111066Y217668D01*
X111504Y216967D01*
X111654Y216144D01*
Y207554D01*
X111502Y206737D01*
X111086Y206078D01*
X110463Y205618D01*
X109693Y205397D01*
X109027Y205250D01*
X108877Y205088D01*
X108831Y204809D01*
X108873Y204591D01*
X109022Y204446D01*
X109772Y204259D01*
X110165Y204162D01*
X110507Y203951D01*
X110948Y203319D01*
X111811Y201004D01*
X112150Y200391D01*
X112512Y200183D01*
X113106Y200102D01*
X120165D01*
X120737Y200181D01*
X121156Y200406D01*
X121411Y200764D01*
X121499Y201240D01*
Y202102D01*
X121435Y202546D01*
X121224Y202911D01*
X120837Y203167D01*
X120244Y203279D01*
X115969Y203475D01*
X114865Y203760D01*
X113969Y204343D01*
X113365Y205169D01*
X113145Y206181D01*
Y215751D01*
X113307Y216804D01*
X113767Y217550D01*
X114485Y217996D01*
X115420Y218144D01*
X125460D01*
X126059Y218064D01*
X126460Y217830D01*
X126684Y217449D01*
X126754Y216928D01*
Y213712D01*
X126678Y213146D01*
X126435Y212741D01*
X126009Y212498D01*
X125381Y212417D01*
X119930D01*
X119398Y212329D01*
X119033Y212094D01*
X118821Y211756D01*
X118753Y211359D01*
Y210260D01*
X118848Y209858D01*
X119126Y209544D01*
X119581Y209334D01*
X120204Y209241D01*
X124715Y208966D01*
X125674Y208698D01*
X126445Y208089D01*
X126959Y207251D01*
X127146Y206299D01*
Y196455D01*
X127091Y195949D01*
X126934Y195518D01*
X126387Y194871D01*
X125641Y194497D01*
X124832Y194376D01*
X108674D01*
X108114Y194415D01*
X107669Y194572D01*
X107333Y194906D01*
X107105Y195474D01*
X105693Y201240D01*
X105537Y201709D01*
X105296Y202054D01*
X104871Y202265D01*
X104163Y202338D01*
X103676Y202405D01*
X103291Y202612D01*
X103038Y202967D01*
X102947Y203475D01*
Y206495D01*
X103023Y207004D01*
X103256Y207358D01*
X103659Y207565D01*
X104242Y207633D01*
X105026D01*
X105506Y207741D01*
X105835Y208030D01*
X106024Y208443D01*
X106085Y208927D01*
Y211398D01*
X106000Y211867D01*
X105757Y212211D01*
X105374Y212424D01*
X104869Y212496D01*
X102202D01*
Y195513D01*
X102083Y194972D01*
X101781Y194621D01*
X101375Y194433D01*
X100947Y194376D01*
X97692D01*
X97154Y194447D01*
X96775Y194651D01*
X96550Y194972D01*
X96476Y195396D01*
G36*
X96476Y195396D02*
Y217085D01*
X96551Y217628D01*
X96780Y218021D01*
X97171Y218259D01*
X97731Y218340D01*
X109419D01*
X110364Y218157D01*
X111066Y217668D01*
X111504Y216967D01*
X111654Y216144D01*
Y207554D01*
X111502Y206737D01*
X111086Y206078D01*
X110463Y205618D01*
X109693Y205397D01*
X109027Y205250D01*
X108877Y205088D01*
X108831Y204809D01*
X108873Y204591D01*
X109022Y204446D01*
X109772Y204259D01*
X110165Y204162D01*
X110507Y203951D01*
X110948Y203319D01*
X111811Y201004D01*
X112150Y200391D01*
X112512Y200183D01*
X113106Y200102D01*
X120165D01*
X120737Y200181D01*
X121156Y200406D01*
X121411Y200764D01*
X121499Y201240D01*
Y202102D01*
X121435Y202546D01*
X121224Y202911D01*
X120837Y203167D01*
X120244Y203279D01*
X115969Y203475D01*
X114865Y203760D01*
X113969Y204343D01*
X113365Y205169D01*
X113145Y206181D01*
Y215751D01*
X113307Y216804D01*
X113767Y217550D01*
X114485Y217996D01*
X115420Y218144D01*
X125460D01*
X126059Y218064D01*
X126460Y217830D01*
X126684Y217449D01*
X126754Y216928D01*
Y213712D01*
X126678Y213146D01*
X126435Y212741D01*
X126009Y212498D01*
X125381Y212417D01*
X119930D01*
X119398Y212329D01*
X119033Y212094D01*
X118821Y211756D01*
X118753Y211359D01*
Y210260D01*
X118848Y209858D01*
X119126Y209544D01*
X119581Y209334D01*
X120204Y209241D01*
X124715Y208966D01*
X125674Y208698D01*
X126445Y208089D01*
X126959Y207251D01*
X127146Y206299D01*
Y196455D01*
X127091Y195949D01*
X126934Y195518D01*
X126387Y194871D01*
X125641Y194497D01*
X124832Y194376D01*
X108674D01*
X108114Y194415D01*
X107669Y194572D01*
X107333Y194906D01*
X107105Y195474D01*
X105693Y201240D01*
X105537Y201709D01*
X105296Y202054D01*
X104871Y202265D01*
X104163Y202338D01*
X103676Y202405D01*
X103291Y202612D01*
X103038Y202967D01*
X102947Y203475D01*
Y206495D01*
X103023Y207004D01*
X103256Y207358D01*
X103659Y207565D01*
X104242Y207633D01*
X105026D01*
X105506Y207741D01*
X105835Y208030D01*
X106024Y208443D01*
X106085Y208927D01*
Y211398D01*
X106000Y211867D01*
X105757Y212211D01*
X105374Y212424D01*
X104869Y212496D01*
X102202D01*
Y195513D01*
X102083Y194972D01*
X101781Y194621D01*
X101375Y194433D01*
X100947Y194376D01*
X97692D01*
X97154Y194447D01*
X96775Y194651D01*
X96550Y194972D01*
X96476Y195396D01*
G37*
X98181Y114173D02*
X101931D01*
Y111986D01*
X101619Y111361D01*
X100994Y111048D01*
X100369Y111361D01*
X100057Y111986D01*
Y114173D01*
Y111986D02*
X98181Y111048D01*
X100057Y108236D02*
Y107611D01*
X100369Y106986D01*
X100994Y106673D01*
X101619Y106986D01*
X101931Y107611D01*
Y108236D01*
X101619Y108861D01*
X100994Y109173D01*
X100369Y108861D01*
X100057Y108236D01*
X99744Y108861D01*
X99119Y109173D01*
X98494Y108861D01*
X98181Y108236D01*
Y107611D01*
X98494Y106986D01*
X99119Y106673D01*
X99744Y106986D01*
X100057Y107611D01*
X98181Y125984D02*
X101931D01*
Y123797D01*
X101619Y123172D01*
X100994Y122859D01*
X100369Y123172D01*
X100057Y123797D01*
Y125984D01*
Y123797D02*
X98181Y122859D01*
Y120984D02*
X101931Y118484D01*
Y120984D01*
X98181Y139764D02*
X101931D01*
Y137576D01*
X101619Y136951D01*
X100994Y136639D01*
X100369Y136951D01*
X100057Y137576D01*
Y139764D01*
Y137576D02*
X98181Y136639D01*
X99119Y134764D02*
X99744Y134451D01*
X100057Y133826D01*
Y133201D01*
X99744Y132576D01*
X99119Y132264D01*
X98494Y132576D01*
X98181Y133201D01*
Y133826D01*
X98494Y134451D01*
X99119Y134764D01*
X100057D01*
X100994Y134451D01*
X101619Y133826D01*
X101931Y133201D01*
X99606Y77165D02*
Y54724D01*
X124016D01*
X99606Y77165D02*
X104331D01*
Y91339D01*
X103106Y174677D02*
Y190677D01*
X96106D01*
Y174677D01*
X103106D01*
X104712Y176796D02*
X104400Y177109D01*
X104087Y177734D01*
Y178671D01*
X104400Y179296D01*
X104712Y179609D01*
X105337Y179921D01*
X106587D01*
X107212Y179609D01*
X107525Y179296D01*
X107837Y178671D01*
Y177734D01*
X107525Y177109D01*
X107212Y176796D01*
X105025Y174921D02*
X105650Y174609D01*
X105962Y173984D01*
Y173359D01*
X105650Y172734D01*
X105025Y172421D01*
X104400Y172734D01*
X104087Y173359D01*
Y173984D01*
X104400Y174609D01*
X105025Y174921D01*
X105962D01*
X106900Y174609D01*
X107525Y173984D01*
X107837Y173359D01*
X112168Y239370D02*
Y236245D01*
X108418Y239370D01*
Y236245D01*
Y233745D02*
Y232495D01*
Y233120D02*
X112168D01*
X111543Y233745D01*
X112866Y92563D02*
X128866D01*
Y99563D01*
X112866D01*
Y92563D01*
X116511Y101563D02*
X116198Y101250D01*
X115573Y100937D01*
X114636D01*
X114011Y101250D01*
X113698Y101563D01*
X113386Y102187D01*
Y103437D01*
X113698Y104063D01*
X114011Y104375D01*
X114636Y104687D01*
X115573D01*
X116198Y104375D01*
X116511Y104063D01*
X118386Y100937D02*
X120886Y104687D01*
X118386D01*
X119291Y91339D02*
X104331D01*
X121016Y90401D02*
Y89151D01*
Y89776D02*
X124766D01*
Y90401D02*
Y89151D01*
X121641Y83213D02*
X121329Y83526D01*
X121016Y84151D01*
Y85089D01*
X121329Y85713D01*
X121641Y86026D01*
X122266Y86339D01*
X123516D01*
X124141Y86026D01*
X124454Y85713D01*
X124766Y85089D01*
Y84151D01*
X124454Y83526D01*
X124141Y83213D01*
X121016Y79776D02*
X124766D01*
X122266Y81339D01*
Y78839D01*
X123334Y47489D02*
X128634D01*
Y35189D01*
X123334D01*
Y47489D01*
X124016Y54724D02*
Y77165D01*
X119291D01*
Y91339D01*
X124953Y237795D02*
X128703D01*
Y235608D01*
X128391Y234983D01*
X127766Y234670D01*
X127141Y234983D01*
X126828Y235608D01*
Y237795D01*
Y235608D02*
X124953Y234670D01*
Y232170D02*
Y230920D01*
Y231545D02*
X128703D01*
X128078Y232170D01*
X124953Y225295D02*
Y227795D01*
X127141Y225608D01*
X127766Y225295D01*
X128391Y225608D01*
X128703Y226233D01*
Y227170D01*
X128391Y227795D01*
X129491Y80709D02*
X125741D01*
Y77583D01*
Y75709D02*
X129491D01*
Y72583D01*
X127616Y73209D02*
Y75709D01*
X125741D02*
Y72583D01*
Y70709D02*
X129491D01*
Y68833D01*
X129178Y68209D01*
X128866Y67896D01*
X128241Y67583D01*
X126991D01*
X126366Y67896D01*
X126053Y68209D01*
X125741Y68833D01*
Y70709D01*
Y65083D02*
Y63833D01*
Y64459D02*
X129491D01*
X128866Y65083D01*
X126134Y60630D02*
X129884D01*
Y58443D01*
X129572Y57817D01*
X128947Y57505D01*
X128322Y57817D01*
X128009Y58443D01*
Y60630D01*
Y58443D02*
X126134Y57505D01*
Y55005D02*
Y53755D01*
Y54380D02*
X129884D01*
X129259Y55005D01*
X126134Y50005D02*
Y48755D01*
Y49380D02*
X129884D01*
X129259Y50005D01*
X126134Y189764D02*
X129884D01*
Y186639D01*
X128009Y187264D02*
Y189764D01*
X127072Y184764D02*
X126447Y184451D01*
X126134Y183826D01*
Y182576D01*
X126447Y181951D01*
X127072Y181639D01*
X127697Y181951D01*
X128009Y182576D01*
Y183826D01*
X128322Y184451D01*
X128947Y184764D01*
X129572Y184451D01*
X129884Y183826D01*
Y182576D01*
X129572Y181951D01*
X128947Y181639D01*
X126134Y179139D02*
Y177889D01*
Y178514D02*
X129884D01*
X129259Y179139D01*
X130315Y171248D02*
X130628Y170935D01*
X131252Y170622D01*
X131878Y170935D01*
X132190Y171248D01*
Y174372D01*
X132815D01*
X132190D02*
X130940D01*
X137815Y170622D02*
X135315D01*
X137502Y172810D01*
X137815Y173435D01*
X137502Y174060D01*
X136878Y174372D01*
X135940D01*
X135315Y174060D01*
X130815Y212843D02*
X136115D01*
Y200543D01*
X130815D01*
Y212843D01*
Y225835D02*
X136115D01*
Y213535D01*
X130815D01*
Y225835D01*
X135790Y199606D02*
X132040D01*
Y196481D01*
Y194606D02*
X135790D01*
Y191481D01*
X133915Y192106D02*
Y194606D01*
X132040D02*
Y191481D01*
Y189606D02*
X135790D01*
Y187731D01*
X135478Y187106D01*
X135165Y186794D01*
X134540Y186481D01*
X133290D01*
X132665Y186794D01*
X132352Y187106D01*
X132040Y187731D01*
Y189606D01*
X132352Y184294D02*
X132040Y183669D01*
Y183044D01*
X132352Y182419D01*
X132978Y182106D01*
X133602Y182419D01*
X133915Y183044D01*
Y183669D01*
Y183044D02*
X134228Y182419D01*
X134852Y182106D01*
X135478Y182419D01*
X135790Y183044D01*
Y183669D01*
X135478Y184294D01*
X132215Y207443D02*
X134715D01*
X132465Y205943D02*
X133465Y207193D01*
X134465Y205943D01*
X132465D01*
X132689Y48007D02*
X133002Y47694D01*
X133315Y47069D01*
Y46132D01*
X133002Y45507D01*
X132689Y45194D01*
X132065Y44882D01*
X130815D01*
X130189Y45194D01*
X129877Y45507D01*
X129565Y46132D01*
Y47069D01*
X129877Y47694D01*
X130189Y48007D01*
X133315Y50507D02*
Y51757D01*
Y51132D02*
X129565D01*
X130189Y50507D01*
X133315Y55507D02*
Y56757D01*
Y56132D02*
X129565D01*
X130189Y55507D01*
X134465Y70041D02*
X133465Y68791D01*
X132465Y70041D01*
X134465D01*
X134715Y68541D02*
X132215D01*
X136115Y50149D02*
X130815D01*
Y62449D01*
X136115D01*
Y50149D01*
Y63141D02*
X130815D01*
Y75441D01*
X136115D01*
Y63141D01*
D02*
D11*
X31890Y226969D02*
X23425Y220472D01*
Y194291D01*
X31890D01*
X43307Y59055D02*
Y64567D01*
Y65945D02*
Y75000D01*
X55118D01*
Y65945D01*
X43307D01*
X47638Y226969D02*
X56102Y220472D01*
Y194291D01*
X47638D01*
X60531Y214961D02*
X74980D01*
X61417Y219685D02*
X59843D01*
X53937Y225591D01*
Y229134D01*
X62992Y186614D02*
X82677D01*
X64390Y208661D02*
X74980D01*
X68799Y224213D02*
X66634D01*
Y235630D01*
X68799D01*
Y224213D01*
X73819Y60039D02*
X70276D01*
X75098Y223622D02*
X70177D01*
X76181Y267421D02*
X67028D01*
Y260925D01*
X76181D01*
X77461Y225591D02*
X91909D01*
X81319Y219291D02*
X91909D01*
X82677Y206299D02*
X62992D01*
X100394Y240728D02*
Y230138D01*
X106693Y244587D02*
Y230138D01*
X116142Y191291D02*
Y181937D01*
X125591Y167913D02*
G75*
G02*
Y167520I0J-197D01*
G01*
Y167913D02*
G75*
G02*
Y167520I0J-197D01*
G01*
G75*
G02*
Y167913I0J197D01*
G01*
D02*
D12*
X127421Y191738D02*
X128295Y191914D01*
X129009Y192396D01*
X129491Y193109D01*
X129667Y193984D01*
Y218614D01*
X129491Y219489D01*
X129009Y220203D01*
X128295Y220684D01*
X127421Y220861D01*
X96202D01*
X95327Y220684D01*
X94613Y220203D01*
X94131Y219489D01*
X93955Y218614D01*
Y193984D01*
X94131Y193109D01*
X94613Y192396D01*
X95327Y191914D01*
X96202Y191738D01*
X127421D01*
X128974Y218615D02*
X128852Y219219D01*
X128519Y219713D01*
X128026Y220046D01*
X127421Y220168D01*
X96202D01*
X95597Y220046D01*
X95103Y219713D01*
X94770Y219219D01*
X94648Y218615D01*
Y193985D01*
X94770Y193380D01*
X95103Y192886D01*
X95597Y192554D01*
X96202Y192431D01*
X127421D01*
X128026Y192554D01*
X128519Y192886D01*
X128852Y193380D01*
X128974Y193985D01*
Y218615D01*
D02*
D13*
X26990Y34951D02*
Y45377D01*
X29643Y45334D01*
X30000Y45329D01*
X31071Y45305D01*
X31956Y45261D01*
X32502Y45187D01*
X32813Y45100D01*
X32914Y45063D01*
X33267Y44933D01*
X34248Y44324D01*
X35216Y43238D01*
X35806Y41826D01*
X36006Y40538D01*
Y39687D01*
X35824Y38424D01*
X35276Y37068D01*
X34348Y36026D01*
X33379Y35419D01*
X33031Y35280D01*
X32930Y35241D01*
X32617Y35143D01*
X32087Y35063D01*
X31194Y35020D01*
X30071Y34996D01*
X29698Y34991D01*
X26990Y34951D01*
X31638Y37385D02*
X31820Y37435D01*
X32337Y37698D01*
X32844Y38204D01*
X33166Y38917D01*
X33298Y39612D01*
X33311Y39845D01*
X33330Y40198D01*
X33195Y41269D01*
X32667Y42271D01*
X31711Y42865D01*
X30669Y43061D01*
X29724D01*
Y37265D01*
X30463Y37266D01*
X30626D01*
X31113Y37302D01*
X31577Y37369D01*
X31638Y37385D01*
X37052Y34969D02*
Y45358D01*
X42847D01*
Y43067D01*
X41235Y43036D01*
X39622Y43006D01*
X39590Y42214D01*
X39557Y41420D01*
X42739D01*
Y39014D01*
X39558D01*
X39590Y38167D01*
X39622Y37319D01*
X41235Y37289D01*
X42847Y37258D01*
Y34969D01*
X37052D01*
X46100Y34861D02*
X45837Y34928D01*
X45094Y35296D01*
X44308Y35999D01*
X43796Y36905D01*
X43613Y37682D01*
Y38358D01*
X45102D01*
X45655Y38354D01*
X46052Y38325D01*
X46227Y38252D01*
X46282Y38149D01*
X46293Y38113D01*
X46337Y37957D01*
X46560Y37425D01*
X46846Y37126D01*
X46922Y37086D01*
X46996Y37048D01*
X47251Y36985D01*
X47566Y37006D01*
X47850Y37130D01*
X48085Y37334D01*
X48250Y37598D01*
X48330Y37900D01*
X48306Y38219D01*
X48207Y38464D01*
X48159Y38533D01*
X48137Y38564D01*
X47996Y38666D01*
X47668Y38858D01*
X47224Y39087D01*
X46840Y39267D01*
X46710Y39324D01*
X46354Y39480D01*
X45319Y40023D01*
X44424Y40719D01*
X43945Y41495D01*
X43804Y42203D01*
Y42658D01*
X43917Y43317D01*
X44263Y44058D01*
X44850Y44675D01*
X45469Y45080D01*
X45691Y45183D01*
X45792Y45232D01*
X46103Y45365D01*
X46455Y45467D01*
X46863Y45511D01*
X47297Y45520D01*
X47580D01*
X47998Y45509D01*
X48401Y45469D01*
X48733Y45383D01*
X48997Y45279D01*
X49082Y45238D01*
X49267Y45152D01*
X49788Y44811D01*
X50329Y44269D01*
X50698Y43616D01*
X50869Y43051D01*
X50895Y42857D01*
X50969Y42295D01*
X48333D01*
X48207Y42679D01*
X48169Y42790D01*
X47895Y43146D01*
X47450Y43280D01*
X47187D01*
X46840Y43131D01*
X46534Y42772D01*
X46448Y42331D01*
X46571Y42007D01*
X46648Y41938D01*
X46674Y41915D01*
X46833Y41819D01*
X47195Y41619D01*
X47683Y41367D01*
X48103Y41159D01*
X48244Y41091D01*
X48592Y40924D01*
X49609Y40354D01*
X50450Y39656D01*
X50876Y38869D01*
X50992Y38117D01*
Y37866D01*
X50991Y37629D01*
X50882Y36918D01*
X50552Y36140D01*
X49992Y35520D01*
X49406Y35137D01*
X49196Y35043D01*
X49055Y34980D01*
X48572Y34884D01*
X47699Y34791D01*
X46801Y34779D01*
X46268Y34819D01*
X46100Y34861D01*
X51706Y34969D02*
Y45358D01*
X54441D01*
Y34969D01*
X51706D01*
X59263Y34922D02*
X58990Y34996D01*
X58203Y35337D01*
X57260Y35967D01*
X56462Y36791D01*
X55965Y37523D01*
X55836Y37784D01*
X55769Y37919D01*
X55578Y38330D01*
X55434Y38747D01*
X55365Y39203D01*
X55337Y39698D01*
X55332Y39862D01*
X55322Y40101D01*
X55343Y40819D01*
X55461Y41631D01*
X55702Y42352D01*
X55970Y42874D01*
X56076Y43036D01*
X56414Y43557D01*
X57931Y44796D01*
X60296Y45530D01*
X62773Y45204D01*
X64522Y44243D01*
X64965Y43786D01*
X65057Y43691D01*
X65300Y43367D01*
X65648Y42824D01*
X65921Y42309D01*
X66032Y42056D01*
Y41950D01*
X65647Y41888D01*
X64833Y41858D01*
X63091D01*
X62803Y42235D01*
X62680Y42395D01*
X62178Y42772D01*
X61357Y43092D01*
X60467Y43166D01*
X59825Y43053D01*
X59635Y42965D01*
X59504Y42907D01*
X59144Y42657D01*
X58697Y42216D01*
X58333Y41693D01*
X58138Y41280D01*
X58096Y41136D01*
X58030Y40909D01*
X57967Y40188D01*
X58095Y39233D01*
X58452Y38371D01*
X58848Y37838D01*
X59013Y37700D01*
X59213Y37535D01*
X59951Y37202D01*
X60994Y37087D01*
X62005Y37348D01*
X62676Y37780D01*
X62844Y37972D01*
X62927Y38068D01*
X63154Y38372D01*
X63124Y38585D01*
X62656Y38671D01*
X61906Y38686D01*
X60128D01*
Y40873D01*
X66360D01*
Y39772D01*
X66067Y38420D01*
X65245Y36858D01*
X63982Y35652D01*
X62788Y35027D01*
X62365Y34917D01*
X62191Y34872D01*
X61654Y34801D01*
X60809Y34763D01*
X59966Y34804D01*
X59434Y34877D01*
X59263Y34922D01*
X67345Y34969D02*
Y45364D01*
X68514Y45333D01*
X69683Y45302D01*
X71626Y42144D01*
X71816Y41837D01*
X72385Y40914D01*
X73019Y39895D01*
X73459Y39194D01*
X73630Y38928D01*
X73641Y38919D01*
X73662Y39150D01*
X73667Y39826D01*
X73657Y40846D01*
X73639Y41790D01*
X73632Y42104D01*
X73552Y45358D01*
X76094D01*
Y34961D01*
X73742Y35023D01*
X71828Y38078D01*
X69914Y41135D01*
X69857Y34969D01*
X67345D01*
X79856Y34855D02*
X79574Y34916D01*
X78765Y35269D01*
X77922Y35962D01*
X77380Y36873D01*
X77187Y37674D01*
Y38358D01*
X79785D01*
X79853Y37931D01*
X79868Y37836D01*
X79987Y37558D01*
X80235Y37241D01*
X80557Y37020D01*
X80819Y36937D01*
X80985D01*
X81224Y37019D01*
X81505Y37180D01*
X81554Y37220D01*
X81620Y37277D01*
X81822Y37533D01*
X81890Y37835D01*
Y38033D01*
X81828Y38323D01*
X81593Y38641D01*
X81109Y38956D01*
X80507Y39246D01*
X80304Y39334D01*
X79984Y39473D01*
X79054Y39946D01*
X78205Y40538D01*
X77680Y41182D01*
X77442Y41750D01*
X77400Y41946D01*
X77363Y42123D01*
X77343Y42670D01*
X77485Y43358D01*
X77820Y43999D01*
X78198Y44449D01*
X78343Y44576D01*
X78602Y44804D01*
X79566Y45273D01*
X80982Y45509D01*
X82371Y45283D01*
X83282Y44820D01*
X83516Y44593D01*
X83658Y44455D01*
X84130Y43805D01*
X84356Y43067D01*
X84375Y42884D01*
X84436Y42295D01*
X81939D01*
X81723Y42759D01*
X81682Y42846D01*
X81478Y43143D01*
X81228Y43301D01*
X81165Y43318D01*
X81047Y43351D01*
X80657Y43316D01*
X80231Y43078D01*
X79976Y42685D01*
X79944Y42325D01*
X79980Y42220D01*
X79997Y42170D01*
X80098Y42032D01*
X80373Y41815D01*
X80883Y41519D01*
X81501Y41197D01*
X81708Y41092D01*
X82081Y40904D01*
X83167Y40268D01*
X84039Y39509D01*
X84439Y38667D01*
X84506Y37859D01*
X84488Y37593D01*
X84481Y37488D01*
X84388Y36954D01*
X84241Y36496D01*
X84207Y36428D01*
X84148Y36314D01*
X83916Y35997D01*
X83515Y35593D01*
X83050Y35256D01*
X82687Y35065D01*
X82560Y35020D01*
X82420Y34970D01*
X81974Y34886D01*
X81221Y34808D01*
X80462Y34794D01*
X80004Y34824D01*
X79856Y34855D01*
X85609Y34969D02*
Y45382D01*
X88152Y45333D01*
X88495Y45327D01*
X89528Y45300D01*
X90377Y45253D01*
X90901Y45174D01*
X91207Y45083D01*
X91306Y45045D01*
X91494Y44972D01*
X92311Y44404D01*
X92939Y43587D01*
X93033Y43389D01*
X93073Y43304D01*
X93179Y43043D01*
X93266Y42719D01*
X93306Y42332D01*
X93316Y41935D01*
Y41802D01*
X93315Y41672D01*
X93303Y41278D01*
X93261Y40888D01*
X93174Y40558D01*
X93069Y40295D01*
X93030Y40210D01*
X92973Y40089D01*
X92759Y39748D01*
X92406Y39289D01*
X92061Y38937D01*
X91876Y38796D01*
X91771D01*
X91643Y38863D01*
X91254Y39045D01*
X90704Y39315D01*
X90215Y39561D01*
X90054Y39643D01*
X88397Y40491D01*
X89312Y40550D01*
X89440Y40558D01*
X89825Y40593D01*
X90139Y40653D01*
X90346Y40767D01*
X90497Y40911D01*
X90543Y40962D01*
X90603Y41030D01*
X90791Y41340D01*
X90857Y41678D01*
Y41936D01*
X90745Y42372D01*
X90394Y42765D01*
X89776Y42989D01*
X89090Y43061D01*
X88861D01*
X88124Y43061D01*
Y40488D01*
X89703Y39505D01*
X89854Y39411D01*
X90309Y39126D01*
X90739Y38840D01*
X90991Y38633D01*
X91061Y38490D01*
X90945Y38398D01*
X90642Y38340D01*
X90148Y38305D01*
X89633Y38282D01*
X89463Y38275D01*
X88124Y38222D01*
Y34969D01*
X85609D01*
X91767Y34886D02*
X91787Y34935D01*
X91994Y35443D01*
X92276Y36138D01*
X92333Y36280D01*
X92391Y36423D01*
X92654Y37041D01*
X92822Y37399D01*
X92833Y37411D01*
X92843Y37424D01*
X92972Y37378D01*
X93295Y37220D01*
X93753Y36961D01*
X94162Y36715D01*
X94298Y36629D01*
X95683Y35754D01*
X95320Y35641D01*
X95201Y35604D01*
X94844Y35493D01*
X94285Y35320D01*
X93685Y35135D01*
X93091Y34954D01*
X92547Y34790D01*
X92098Y34656D01*
X91791Y34565D01*
X91698Y34530D01*
X91668D01*
X91677Y34635D01*
X91746Y34838D01*
X91767Y34886D01*
X94548Y37326D02*
X94412Y37395D01*
X94007Y37612D01*
X93563Y37866D01*
X93264Y38062D01*
X93154Y38144D01*
Y38254D01*
X93265Y38501D01*
X93569Y39297D01*
X94019Y40439D01*
X94429Y41466D01*
X94568Y41807D01*
X95982Y45302D01*
X96440Y45337D01*
X96897Y45370D01*
X96818Y41619D01*
X96809Y41247D01*
X96781Y40130D01*
X96741Y38848D01*
X96702Y37913D01*
X96678Y37513D01*
X96669Y37457D01*
X96599Y37048D01*
X95507Y38422D01*
X95400Y38558D01*
X95075Y38961D01*
X94706Y39413D01*
X94437Y39730D01*
X94326Y39854D01*
X94311Y39863D01*
X94359Y39687D01*
X94565Y39274D01*
X94623Y39170D01*
X94774Y38898D01*
X95224Y38075D01*
X95656Y37272D01*
X95911Y36780D01*
X95981Y36614D01*
X95976Y36615D01*
X95856Y36673D01*
X95544Y36826D01*
X95092Y37052D01*
X94684Y37257D01*
X94548Y37326D01*
X98637Y37566D02*
X98701Y37682D01*
X99084Y38373D01*
X99452Y39027D01*
X99507Y39124D01*
X99563Y39222D01*
X99780Y39640D01*
X99874Y39875D01*
X99862Y39887D01*
X99793D01*
X99788Y39880D01*
X99783Y39875D01*
X99682Y39749D01*
X99423Y39424D01*
X99049Y38955D01*
X98712Y38531D01*
X98599Y38391D01*
X97447Y36947D01*
X97377Y40141D01*
X97369Y40471D01*
X97344Y41461D01*
X97306Y42693D01*
X97271Y43701D01*
X97248Y44206D01*
X97240Y44345D01*
X97174Y45358D01*
X98137D01*
X99597Y41745D01*
X99738Y41394D01*
X100159Y40339D01*
X100615Y39181D01*
X100916Y38393D01*
X101020Y38099D01*
X101015Y38093D01*
X100996Y38076D01*
X100876Y38015D01*
X100557Y37849D01*
X100118Y37628D01*
X99620Y37380D01*
X99122Y37135D01*
X98685Y36923D01*
X98368Y36774D01*
X98266Y36718D01*
X98233D01*
X98325Y36968D01*
X98572Y37449D01*
X98637Y37566D01*
X100449Y35129D02*
X100270Y35185D01*
X99731Y35357D01*
X99139Y35550D01*
X98730Y35689D01*
X98574Y35746D01*
X98569Y35751D01*
X98658Y35836D01*
X98938Y36033D01*
X99364Y36315D01*
X99759Y36568D01*
X99892Y36650D01*
X100024Y36734D01*
X100424Y36980D01*
X100868Y37245D01*
X101173Y37416D01*
X101291Y37474D01*
X101296Y37468D01*
X101313Y37449D01*
X101365Y37329D01*
X101504Y37006D01*
X101690Y36561D01*
X101898Y36055D01*
X102102Y35547D01*
X102278Y35098D01*
X102403Y34772D01*
X102449Y34662D01*
Y34608D01*
X102425Y34558D01*
X102219Y34586D01*
X101627Y34759D01*
X100743Y35037D01*
X100449Y35129D01*
X102778Y34969D02*
Y38451D01*
X104128Y39280D01*
X104319Y39398D01*
X104900Y39746D01*
X105384Y39993D01*
X105746Y40091D01*
X106053Y40107D01*
X106302D01*
X106743Y40155D01*
X107156Y40244D01*
X107208Y40266D01*
X107335Y40319D01*
X107667Y40607D01*
X107946Y41120D01*
X108019Y41717D01*
X107924Y42176D01*
X107856Y42309D01*
X107794Y42427D01*
X107193Y42860D01*
X106259Y43058D01*
X106031D01*
X105294Y43061D01*
Y40219D01*
X104092Y39616D01*
X103975Y39557D01*
X103621Y39383D01*
X103227Y39191D01*
X102951Y39062D01*
X102864Y39014D01*
X102828D01*
X102813Y39266D01*
X102794Y39950D01*
X102783Y40962D01*
X102778Y41889D01*
Y45380D01*
X105266Y45331D01*
X105686Y45324D01*
X106950Y45274D01*
X108028Y45157D01*
X108729Y44935D01*
X109156Y44669D01*
X109284Y44563D01*
X109544Y44350D01*
X110129Y43471D01*
X110498Y42112D01*
X110369Y40707D01*
X109944Y39733D01*
X109726Y39473D01*
X109655Y39391D01*
X109401Y39181D01*
X108962Y38890D01*
X108522Y38667D01*
X108276Y38577D01*
X108152D01*
X108028Y38492D01*
Y38420D01*
X108130Y38290D01*
X108413Y37903D01*
X108830Y37361D01*
X109211Y36878D01*
X109340Y36718D01*
X109467Y36560D01*
X109850Y36080D01*
X110266Y35548D01*
X110548Y35179D01*
X110652Y35065D01*
Y35018D01*
X110224Y34985D01*
X109455Y34969D01*
X107746D01*
X106622Y36551D01*
X106511Y36707D01*
X106177Y37172D01*
X105797Y37689D01*
X105523Y38050D01*
X105410Y38189D01*
X105396Y38198D01*
X105321Y37794D01*
X105294Y36910D01*
Y34969D01*
X102778D01*
X111417Y34967D02*
Y45358D01*
X114038D01*
X114067Y42992D01*
X114097Y40626D01*
X115573Y42989D01*
X117050Y45352D01*
X118389Y45354D01*
X118573Y45356D01*
X119335Y45341D01*
X119730Y45312D01*
Y45247D01*
X119596Y45080D01*
X119233Y44519D01*
X118696Y43701D01*
X118204Y42960D01*
X118040Y42713D01*
X116350Y40180D01*
X116546Y39898D01*
X116572Y39860D01*
X116742Y39616D01*
X117133Y39057D01*
X117662Y38300D01*
X118119Y37647D01*
X118271Y37429D01*
X118421Y37215D01*
X118872Y36569D01*
X119375Y35844D01*
X119730Y35331D01*
X119869Y35124D01*
X119881Y35105D01*
X119885Y35097D01*
X119849Y35039D01*
X119630Y34997D01*
X119180Y34975D01*
X118633Y34969D01*
X116940D01*
X114097Y39494D01*
X114067Y37231D01*
X114038Y34967D01*
X111417D01*
D02*
D14*
X28228Y168012D02*
X4606D01*
Y108012D01*
X28228D01*
X40551Y92323D02*
X39528D01*
Y95669D01*
X42008Y168012D02*
X75472D01*
Y108012D01*
X42008D01*
X49213Y101575D02*
Y101969D02*
G75*
G03*
Y101575I0J-197D01*
G01*
Y101969D02*
G75*
G02*
Y101575I0J-197D01*
G01*
X51024Y95669D02*
Y92323D01*
X50000D01*
X80709Y155512D02*
G75*
G03*
X81102I197J0D01*
G01*
X80709D02*
G75*
G02*
X81102I197J0D01*
G01*
X87008Y157323D02*
X90354D01*
Y156299D01*
Y146850D02*
Y145827D01*
X87008D01*
X129429Y169193D02*
X160965D01*
Y107185D01*
X129429D01*
D02*
D116*
X39764Y232972D02*
G75*
G03*
Y233169I0J98D01*
G01*
Y232972D02*
G75*
G02*
Y233169I0J98D01*
G01*
X0Y0D02*
M02*
