G04 DesignSpark PCB PRO Gerber Version 10.0 Build 5299*
G04 #@! TF.Part,Single*
G04 #@! TF.FileFunction,Soldermask,Bot*
G04 #@! TF.FilePolarity,Negative*
%FSLAX35Y35*%
%MOIN*%
G04 #@! TA.AperFunction,ViaPad*
%ADD10C,0.04143*%
G04 #@! TA.AperFunction,ComponentPad*
%ADD14C,0.05730*%
G04 #@! TA.AperFunction,ViaPad*
%ADD11C,0.06200*%
G04 #@! TA.AperFunction,ComponentPad*
%ADD13C,0.06702*%
%ADD15C,0.07194*%
G04 #@! TA.AperFunction,WasherPad*
%ADD12C,0.13198*%
G04 #@! TD.AperFunction*
X0Y0D02*
D02*
D10*
X18110Y42913D03*
Y68898D03*
Y94882D03*
Y120866D03*
X21654Y181102D03*
X33071Y67323D03*
Y73228D03*
X33465Y16142D03*
X35827Y176772D03*
X36614Y98819D03*
X39370Y137008D03*
X39764Y188189D03*
Y210630D03*
X45276Y103937D03*
X49213Y135039D03*
X53150Y69291D03*
X53937Y98819D03*
X59449Y16142D03*
X59843Y61811D03*
X60236Y250394D03*
X65354Y175197D03*
X77165Y98819D03*
X81890Y211811D03*
X85433Y16142D03*
Y229921D03*
Y244488D03*
X88976Y139720D03*
X91732Y172047D03*
X94488Y101575D03*
X96063Y164961D03*
X96850Y151575D03*
X99606Y172047D03*
X102756Y52362D03*
X104331Y265354D03*
X110236Y96063D03*
X111417Y16142D03*
X131102Y37795D03*
X133465Y228346D03*
D02*
D11*
X120866Y66929D03*
X122579Y176516D03*
D02*
D12*
X27953Y24016D03*
Y252362D03*
X118504Y24016D03*
Y252362D03*
D02*
D13*
X115591Y113189D03*
Y123189D03*
Y133189D03*
Y143189D03*
Y153189D03*
Y163189D03*
X125591Y113189D03*
Y123189D03*
Y133189D03*
Y143189D03*
Y153189D03*
Y163189D03*
D02*
D14*
X60630Y125512D03*
Y135512D03*
Y145512D03*
Y155512D03*
X70630Y120512D03*
Y130512D03*
Y140512D03*
Y150512D03*
D02*
D15*
X35630Y115508D03*
Y160516D03*
X0Y0D02*
M02*
