G04 DesignSpark PCB PRO Gerber Version 10.0 Build 5299*
G04 #@! TF.Part,Single*
G04 #@! TF.FileFunction,Soldermask,Top*
G04 #@! TF.FilePolarity,Negative*
%FSLAX35Y35*%
%MOIN*%
G04 #@! TA.AperFunction,SMDPad,CuDef*
%ADD85R,0.02181X0.04150*%
%ADD87R,0.04937X0.05291*%
%ADD89R,0.06315X0.07850*%
%ADD84R,0.04543X0.04543*%
G04 #@! TA.AperFunction,ComponentPad*
%ADD80R,0.07496X0.07496*%
%ADD79C,0.07102*%
%ADD81C,0.07496*%
G04 #@! TA.AperFunction,SMDPad,CuDef*
%ADD88R,0.03953X0.02772*%
G04 #@! TA.AperFunction,WasherPad*
%ADD78C,0.13598*%
G04 #@! TA.AperFunction,SMDPad,CuDef*
%ADD82R,0.05291X0.04937*%
%ADD83R,0.06906X0.05331*%
%ADD86R,0.08480X0.05724*%
G04 #@! TD.AperFunction*
X0Y0D02*
D02*
D78*
X27953Y24016D03*
Y252362D03*
X118504Y24016D03*
Y252362D03*
D02*
D79*
X115591Y113189D03*
Y123189D03*
Y133189D03*
Y143189D03*
Y153189D03*
Y163189D03*
X125591Y113189D03*
Y123189D03*
Y133189D03*
Y143189D03*
Y153189D03*
Y163189D03*
D02*
D80*
X53543Y113189D03*
D02*
D81*
X43543D03*
Y123189D03*
Y133189D03*
Y143189D03*
Y153189D03*
Y163189D03*
X53543Y123189D03*
Y133189D03*
Y143189D03*
Y153189D03*
Y163189D03*
D02*
D82*
X59098Y251181D03*
X66098D03*
X79965Y250787D03*
X86965D03*
X107130Y67323D03*
X114130D03*
D02*
D83*
X66339Y261220D03*
X80118D03*
D02*
D84*
X73228Y258661D03*
D02*
D85*
X60039Y64567D03*
Y74016D03*
X62008Y64567D03*
Y74016D03*
X63976Y64567D03*
Y74016D03*
X65945Y64567D03*
Y74016D03*
D02*
D86*
X62992Y69291D03*
D02*
D87*
X70866Y91382D03*
Y98382D03*
X77559Y91382D03*
Y98382D03*
X98425Y91382D03*
Y98382D03*
X105906Y91382D03*
Y98382D03*
D02*
D88*
X79331Y66142D03*
Y69291D03*
Y72441D03*
X89173Y66142D03*
Y69291D03*
Y72441D03*
D02*
D89*
X84252Y69291D03*
X0Y0D02*
M02*
