G05
M48
;#@! TF.GenerationSoftware,DesignSpark,DesignSpark PCB PRO,10.0.5344
;#@! TF.CreationDate,2023-01-09T14:36:02+00:00*
;#@! TF.FileFunction,Plated,1,2,PTH
;FILE_FORMAT=3:5
;TYPE=PLATED
INCH,TZ
FMAT,2
T1C000.01969
T2C000.04094
T3C000.04331
%
T001
X0.25984Y1.65748
X0.26378Y1.26378
X0.31102Y2.05118
X0.34252Y0.13189
X0.34252Y0.47638
X0.34252Y0.87008
X0.57874Y0.58661
X0.57874Y0.84646
X0.59449Y2.05118
X0.60236Y2.44488
X0.61417Y1.03150
X0.64567Y1.08268
X0.67717Y0.58661
X0.69291Y1.42520
X0.77559Y1.04331
X0.84055Y0.91339
X0.85433Y2.05118
X0.86220Y0.47638
X0.86220Y1.26378
X0.86220Y2.44488
X0.98425Y1.04331
X1.00787Y1.42520
X1.01969Y0.74803
X1.11417Y0.98382
X1.11417Y2.05118
X1.12205Y0.12598
X1.12205Y0.47638
X1.12205Y0.87008
X1.20669Y0.67323
X1.22835Y0.79528
X1.25591Y1.71654
T002
X1.15591Y1.13189
X1.15591Y1.23189
X1.15591Y1.33189
X1.15591Y1.43189
X1.15591Y1.53189
X1.15591Y1.63189
X1.25591Y1.13189
X1.25591Y1.23189
X1.25591Y1.33189
X1.25591Y1.43189
X1.25591Y1.53189
X1.25591Y1.63189
T003
X0.43543Y1.13189
X0.43543Y1.23189
X0.43543Y1.33189
X0.43543Y1.43189
X0.43543Y1.53189
X0.43543Y1.63189
X0.53543Y1.13189
X0.53543Y1.23189
X0.53543Y1.33189
X0.53543Y1.43189
X0.53543Y1.53189
X0.53543Y1.63189
M30
