G04 DesignSpark PCB PRO Gerber Version 10.0 Build 5299*
G04 #@! TF.Part,Single*
G04 #@! TF.FileFunction,Legend,Top*
G04 #@! TF.FilePolarity,Positive*
%FSLAX35Y35*%
%MOIN*%
%ADD71C,0.00300*%
%ADD19C,0.00394*%
%ADD16C,0.00500*%
%ADD17C,0.00787*%
%ADD20C,0.00800*%
G04 #@! TD.AperFunction*
X0Y0D02*
D02*
D16*
X49606Y102350D02*
X49919Y102037D01*
X50544Y101725D01*
X51169Y102037D01*
X51481Y102350D01*
Y105475D01*
X52106D01*
X51481D02*
X50231D01*
X57106Y101725D02*
X54606D01*
X56794Y103913D01*
X57106Y104537D01*
X56794Y105163D01*
X56169Y105475D01*
X55231D01*
X54606Y105163D01*
X71063Y24016D02*
X233268D01*
Y186220D01*
X71063D01*
Y24016D01*
X75984Y188339D02*
Y192089D01*
X77547Y190214D01*
X79109Y192089D01*
Y188339D01*
X81609D02*
X82859D01*
X82234D02*
Y192089D01*
X81609Y191464D01*
X111417Y261774D02*
Y258024D01*
X114543D01*
X116417D02*
Y261774D01*
X119543D01*
X118917Y259899D02*
X116417D01*
Y258024D02*
X119543D01*
X121417D02*
Y261774D01*
X123293D01*
X123917Y261462D01*
X124230Y261149D01*
X124543Y260524D01*
Y259274D01*
X124230Y258649D01*
X123917Y258337D01*
X123293Y258024D01*
X121417D01*
X127043D02*
X128293D01*
X127667D02*
Y261774D01*
X127043Y261149D01*
X115111Y240945D02*
X118861D01*
Y238757D01*
X118548Y238132D01*
X117923Y237820D01*
X117298Y238132D01*
X116986Y238757D01*
Y240945D01*
Y238757D02*
X115111Y237820D01*
Y235320D02*
Y234070D01*
Y234695D02*
X118861D01*
X118236Y235320D01*
X119579Y242669D02*
X114279D01*
Y254969D01*
X119579D01*
Y242669D01*
X126791Y224923D02*
Y246613D01*
X126866Y247156D01*
X127095Y247549D01*
X127486Y247787D01*
X128046Y247867D01*
X139734D01*
X140679Y247684D01*
X141381Y247196D01*
X141819Y246494D01*
X141969Y245671D01*
Y237082D01*
X141817Y236265D01*
X141401Y235606D01*
X140778Y235146D01*
X140008Y234924D01*
X139342Y234778D01*
X139192Y234616D01*
X139146Y234336D01*
X139188Y234118D01*
X139337Y233974D01*
X140087Y233787D01*
X140480Y233690D01*
X140822Y233478D01*
X141263Y232846D01*
X142126Y230532D01*
X142465Y229919D01*
X142827Y229710D01*
X143420Y229630D01*
X150480D01*
X151052Y229708D01*
X151470Y229934D01*
X151726Y230292D01*
X151814Y230767D01*
Y231630D01*
X151750Y232073D01*
X151539Y232439D01*
X151152Y232694D01*
X150559Y232807D01*
X146283Y233003D01*
X145180Y233288D01*
X144283Y233870D01*
X143680Y234696D01*
X143460Y235709D01*
Y245279D01*
X143622Y246331D01*
X144082Y247078D01*
X144800Y247524D01*
X145735Y247671D01*
X155775D01*
X156374Y247592D01*
X156775Y247357D01*
X156999Y246976D01*
X157069Y246456D01*
Y243239D01*
X156993Y242673D01*
X156750Y242269D01*
X156324Y242026D01*
X155696Y241945D01*
X150245D01*
X149713Y241857D01*
X149348Y241622D01*
X149136Y241283D01*
X149068Y240886D01*
Y239788D01*
X149163Y239386D01*
X149441Y239072D01*
X149896Y238861D01*
X150519Y238768D01*
X155030Y238494D01*
X155989Y238226D01*
X156760Y237616D01*
X157274Y236778D01*
X157461Y235827D01*
Y225982D01*
X157406Y225476D01*
X157249Y225045D01*
X156702Y224399D01*
X155956Y224024D01*
X155147Y223904D01*
X138989D01*
X138429Y223943D01*
X137983Y224100D01*
X137648Y224433D01*
X137420Y225002D01*
X136008Y230767D01*
X135852Y231237D01*
X135611Y231581D01*
X135186Y231793D01*
X134478Y231865D01*
X133991Y231933D01*
X133606Y232140D01*
X133353Y232494D01*
X133262Y233003D01*
Y236023D01*
X133338Y236531D01*
X133571Y236885D01*
X133974Y237093D01*
X134557Y237160D01*
X135341D01*
X135821Y237269D01*
X136150Y237557D01*
X136339Y237971D01*
X136400Y238454D01*
Y240925D01*
X136315Y241395D01*
X136072Y241739D01*
X135689Y241951D01*
X135184Y242024D01*
X132517D01*
Y225041D01*
X132398Y224499D01*
X132096Y224149D01*
X131690Y223960D01*
X131262Y223904D01*
X128007D01*
X127469Y223975D01*
X127090Y224178D01*
X126865Y224499D01*
X126791Y224923D01*
G36*
X126791Y224923D02*
Y246613D01*
X126866Y247156D01*
X127095Y247549D01*
X127486Y247787D01*
X128046Y247867D01*
X139734D01*
X140679Y247684D01*
X141381Y247196D01*
X141819Y246494D01*
X141969Y245671D01*
Y237082D01*
X141817Y236265D01*
X141401Y235606D01*
X140778Y235146D01*
X140008Y234924D01*
X139342Y234778D01*
X139192Y234616D01*
X139146Y234336D01*
X139188Y234118D01*
X139337Y233974D01*
X140087Y233787D01*
X140480Y233690D01*
X140822Y233478D01*
X141263Y232846D01*
X142126Y230532D01*
X142465Y229919D01*
X142827Y229710D01*
X143420Y229630D01*
X150480D01*
X151052Y229708D01*
X151470Y229934D01*
X151726Y230292D01*
X151814Y230767D01*
Y231630D01*
X151750Y232073D01*
X151539Y232439D01*
X151152Y232694D01*
X150559Y232807D01*
X146283Y233003D01*
X145180Y233288D01*
X144283Y233870D01*
X143680Y234696D01*
X143460Y235709D01*
Y245279D01*
X143622Y246331D01*
X144082Y247078D01*
X144800Y247524D01*
X145735Y247671D01*
X155775D01*
X156374Y247592D01*
X156775Y247357D01*
X156999Y246976D01*
X157069Y246456D01*
Y243239D01*
X156993Y242673D01*
X156750Y242269D01*
X156324Y242026D01*
X155696Y241945D01*
X150245D01*
X149713Y241857D01*
X149348Y241622D01*
X149136Y241283D01*
X149068Y240886D01*
Y239788D01*
X149163Y239386D01*
X149441Y239072D01*
X149896Y238861D01*
X150519Y238768D01*
X155030Y238494D01*
X155989Y238226D01*
X156760Y237616D01*
X157274Y236778D01*
X157461Y235827D01*
Y225982D01*
X157406Y225476D01*
X157249Y225045D01*
X156702Y224399D01*
X155956Y224024D01*
X155147Y223904D01*
X138989D01*
X138429Y223943D01*
X137983Y224100D01*
X137648Y224433D01*
X137420Y225002D01*
X136008Y230767D01*
X135852Y231237D01*
X135611Y231581D01*
X135186Y231793D01*
X134478Y231865D01*
X133991Y231933D01*
X133606Y232140D01*
X133353Y232494D01*
X133262Y233003D01*
Y236023D01*
X133338Y236531D01*
X133571Y236885D01*
X133974Y237093D01*
X134557Y237160D01*
X135341D01*
X135821Y237269D01*
X136150Y237557D01*
X136339Y237971D01*
X136400Y238454D01*
Y240925D01*
X136315Y241395D01*
X136072Y241739D01*
X135689Y241951D01*
X135184Y242024D01*
X132517D01*
Y225041D01*
X132398Y224499D01*
X132096Y224149D01*
X131690Y223960D01*
X131262Y223904D01*
X128007D01*
X127469Y223975D01*
X127090Y224178D01*
X126865Y224499D01*
X126791Y224923D01*
G37*
X61850Y195032D02*
Y198782D01*
X64976D01*
X64350Y196907D02*
X61850D01*
Y195032D02*
X64976D01*
X66850Y195970D02*
X67163Y195344D01*
X67788Y195032D01*
X69038D01*
X69663Y195344D01*
X69976Y195970D01*
X69663Y196594D01*
X69038Y196907D01*
X67788D01*
X67163Y197220D01*
X66850Y197844D01*
X67163Y198470D01*
X67788Y198782D01*
X69038D01*
X69663Y198470D01*
X69976Y197844D01*
X71850Y195032D02*
Y198782D01*
X73726D01*
X74350Y198470D01*
X74663Y198157D01*
X74976Y197532D01*
Y196282D01*
X74663Y195657D01*
X74350Y195344D01*
X73726Y195032D01*
X71850D01*
X76850D02*
Y198782D01*
Y196907D02*
X77788D01*
X79976Y198782D01*
X77788Y196907D02*
X79976Y195032D01*
X81850Y196282D02*
X84350D01*
X86850Y195032D02*
Y198782D01*
X89038D01*
X89663Y198470D01*
X89976Y197844D01*
X89663Y197220D01*
X89038Y196907D01*
X86850D01*
X91850Y195032D02*
Y198782D01*
X93413Y196907D01*
X94976Y198782D01*
Y195032D01*
X99350D02*
X96850D01*
X99038Y197220D01*
X99350Y197844D01*
X99038Y198470D01*
X98413Y198782D01*
X97476D01*
X96850Y198470D01*
X106850Y197532D02*
X108100Y195032D01*
X109350Y197532D01*
X112163Y195344D02*
X112788Y195032D01*
X113413D01*
X114038Y195344D01*
X114350Y195970D01*
Y197844D01*
X114038Y198470D01*
X113413Y198782D01*
X112788D01*
X112163Y198470D01*
X111850Y197844D01*
Y195970D01*
X112163Y195344D01*
X114038Y198470D01*
X117163Y195032D02*
X117476Y195344D01*
X117163Y195657D01*
X116850Y195344D01*
X117163Y195032D01*
X124350D02*
X121850D01*
X124038Y197220D01*
X124350Y197844D01*
X124038Y198470D01*
X123413Y198782D01*
X122476D01*
X121850Y198470D01*
X131850Y196282D02*
Y196594D01*
X132163Y197532D01*
X132476Y197844D01*
X133100Y198157D01*
X133726D01*
X134350Y197844D01*
X134663Y197532D01*
X134976Y196594D01*
Y196282D01*
X134663Y195657D01*
X134350Y195344D01*
X133726Y195032D01*
X133100D01*
X132476Y195344D01*
X132163Y195657D01*
X131850Y196282D01*
X134038D02*
X133413Y195970D01*
X132788Y196282D01*
Y196907D01*
X133413Y197220D01*
X134038Y196907D01*
X141850Y195032D02*
Y198782D01*
X144038D01*
X144663Y198470D01*
X144976Y197844D01*
X144663Y197220D01*
X144038Y196907D01*
X141850D01*
X144038D02*
X144976Y195032D01*
X146850Y195970D02*
X147163Y195344D01*
X147788Y195032D01*
X149038D01*
X149663Y195344D01*
X149976Y195970D01*
X149663Y196594D01*
X149038Y196907D01*
X147788D01*
X147163Y197220D01*
X146850Y197844D01*
X147163Y198470D01*
X147788Y198782D01*
X149038D01*
X149663Y198470D01*
X149976Y197844D01*
X159976Y195657D02*
X159663Y195344D01*
X159038Y195032D01*
X158100D01*
X157476Y195344D01*
X157163Y195657D01*
X156850Y196282D01*
Y197532D01*
X157163Y198157D01*
X157476Y198470D01*
X158100Y198782D01*
X159038D01*
X159663Y198470D01*
X159976Y198157D01*
X161850Y195970D02*
X162163Y195344D01*
X162788Y195032D01*
X163413D01*
X164038Y195344D01*
X164350Y195970D01*
Y196594D01*
X164038Y197220D01*
X163413Y197532D01*
X162788D01*
X162163Y197220D01*
X161850Y196594D01*
Y195970D01*
X166850Y195032D02*
Y197532D01*
Y197220D02*
X167163Y197532D01*
X167788D01*
X168100Y197220D01*
Y196282D01*
Y197220D02*
X168413Y197532D01*
X169038D01*
X169350Y197220D01*
Y195032D01*
X171850Y197532D02*
Y194094D01*
Y195970D02*
X172163Y195344D01*
X172788Y195032D01*
X173413D01*
X174038Y195344D01*
X174350Y195970D01*
Y196594D01*
X174038Y197220D01*
X173413Y197532D01*
X172788D01*
X172163Y197220D01*
X171850Y196594D01*
Y195970D01*
X176850D02*
X177163Y195344D01*
X177788Y195032D01*
X178413D01*
X179038Y195344D01*
X179350Y195970D01*
Y196594D01*
X179038Y197220D01*
X178413Y197532D01*
X177788D01*
X177163Y197220D01*
X176850Y196594D01*
Y195970D01*
X181850Y195032D02*
Y197532D01*
Y196594D02*
X182163Y197220D01*
X182788Y197532D01*
X183413D01*
X184038Y197220D01*
X184350Y196594D01*
Y195032D01*
X189350Y195344D02*
X189038Y195032D01*
X188413D01*
X187788D01*
X187163Y195344D01*
X186850Y195970D01*
Y196907D01*
X187163Y197220D01*
X187788Y197532D01*
X188413D01*
X189038Y197220D01*
X189350Y196907D01*
Y196594D01*
X189038Y196282D01*
X188413Y195970D01*
X187788D01*
X187163Y196282D01*
X186850Y196594D01*
X191850Y195032D02*
Y197532D01*
Y196594D02*
X192163Y197220D01*
X192788Y197532D01*
X193413D01*
X194038Y197220D01*
X194350Y196594D01*
Y195032D01*
X197371Y197532D02*
X198830D01*
X198100Y198157D02*
Y195344D01*
X198413Y195032D01*
X198726D01*
X199038Y195344D01*
X201850D02*
X202476Y195032D01*
X203726D01*
X204350Y195344D01*
Y195970D01*
X203726Y196282D01*
X202476D01*
X201850Y196594D01*
Y197220D01*
X202476Y197532D01*
X203726D01*
X204350Y197220D01*
X214350Y195032D02*
X211850D01*
X214038Y197220D01*
X214350Y197844D01*
X214038Y198470D01*
X213413Y198782D01*
X212476D01*
X211850Y198470D01*
X217163Y195344D02*
X217788Y195032D01*
X218413D01*
X219038Y195344D01*
X219350Y195970D01*
Y197844D01*
X219038Y198470D01*
X218413Y198782D01*
X217788D01*
X217163Y198470D01*
X216850Y197844D01*
Y195970D01*
X217163Y195344D01*
X219038Y198470D01*
X224350Y195032D02*
X221850D01*
X224038Y197220D01*
X224350Y197844D01*
X224038Y198470D01*
X223413Y198782D01*
X222476D01*
X221850Y198470D01*
X227476Y195032D02*
X228726D01*
X228100D02*
Y198782D01*
X227476Y198157D01*
X169579Y248968D02*
X164279D01*
Y261268D01*
X169579D01*
Y248968D01*
X171641Y257505D02*
X171329Y257817D01*
X171016Y258443D01*
Y259380D01*
X171329Y260005D01*
X171641Y260317D01*
X172266Y260630D01*
X173516D01*
X174141Y260317D01*
X174454Y260005D01*
X174766Y259380D01*
Y258443D01*
X174454Y257817D01*
X174141Y257505D01*
X172266Y255630D02*
X173516D01*
X174141Y255317D01*
X174454Y255005D01*
X174766Y254380D01*
Y253755D01*
X174454Y253130D01*
X174141Y252817D01*
X173516Y252505D01*
X172266D01*
X171641Y252817D01*
X171329Y253130D01*
X171016Y253755D01*
Y254380D01*
X171329Y255005D01*
X171641Y255317D01*
X172266Y255630D01*
X171016Y250630D02*
X174766D01*
X171016Y247505D01*
X174766D01*
X171016Y245630D02*
X174766D01*
X171016Y242505D01*
X174766D01*
X171016Y240005D02*
Y238755D01*
Y239380D02*
X174766D01*
X174141Y240005D01*
X214948Y209449D02*
X214636Y209136D01*
X214323Y208511D01*
X214636Y207886D01*
X214948Y207574D01*
X218073D01*
Y206949D01*
Y207574D02*
Y208824D01*
X214636Y204136D02*
X214323Y203511D01*
Y202886D01*
X214636Y202261D01*
X215261Y201949D01*
X215886Y202261D01*
X216198Y202886D01*
Y203511D01*
Y202886D02*
X216511Y202261D01*
X217136Y201949D01*
X217761Y202261D01*
X218073Y202886D01*
Y203511D01*
X217761Y204136D01*
X248425Y171248D02*
X248738Y170935D01*
X249363Y170622D01*
X249988Y170935D01*
X250300Y171248D01*
Y174372D01*
X250925D01*
X250300D02*
X249050D01*
X254050Y170622D02*
X255300D01*
X254675D02*
Y174372D01*
X254050Y173748D01*
D02*
D17*
X27559Y113189D02*
X4567D01*
X27559Y123189D02*
X4567D01*
X27559Y133189D02*
X4567D01*
X27559Y143189D02*
X4567D01*
X27559Y153189D02*
X4567D01*
X27559Y163189D02*
X4567D01*
X53543Y108189D02*
X27559D01*
Y168189D01*
X37559D01*
X130709Y259843D02*
Y260630D02*
G75*
G03*
Y259843I0J-394D01*
G01*
Y260630D02*
G75*
G02*
Y259843I0J-394D01*
G01*
X212205Y231496D02*
Y201969D01*
X198425D01*
Y237402D01*
X207087D01*
X262205Y167913D02*
G75*
G02*
Y167520I0J-197D01*
G01*
Y167913D02*
G75*
G02*
Y167520I0J-197D01*
G01*
G75*
G02*
Y167913I0J197D01*
G01*
D02*
D19*
X140157Y262205D02*
X144094D01*
X266043Y169193D02*
X297579D01*
Y107185D01*
X266043D01*
D02*
D71*
X95888Y201880D02*
Y212306D01*
X98541Y212263D01*
X98897Y212258D01*
X99969Y212234D01*
X100854Y212191D01*
X101400Y212116D01*
X101710Y212030D01*
X101812Y211992D01*
X102164Y211862D01*
X103146Y211253D01*
X104113Y210167D01*
X104704Y208755D01*
X104904Y207467D01*
Y206616D01*
X104722Y205353D01*
X104173Y203997D01*
X103245Y202955D01*
X102276Y202348D01*
X101929Y202209D01*
X101828Y202170D01*
X101515Y202072D01*
X100984Y201992D01*
X100092Y201949D01*
X98969Y201925D01*
X98595Y201920D01*
X95888Y201880D01*
X100535Y204315D02*
X100718Y204365D01*
X101235Y204627D01*
X101742Y205133D01*
X102064Y205846D01*
X102195Y206541D01*
X102208Y206774D01*
X102227Y207128D01*
X102093Y208198D01*
X101564Y209200D01*
X100608Y209794D01*
X99566Y209990D01*
X98622D01*
Y204194D01*
X99361Y204195D01*
X99523D01*
X100010Y204231D01*
X100475Y204298D01*
X100535Y204315D01*
X105949Y201898D02*
Y212287D01*
X111745D01*
Y209996D01*
X110133Y209965D01*
X108520Y209935D01*
X108487Y209143D01*
X108455Y208349D01*
X111636D01*
Y205943D01*
X108456D01*
X108487Y205096D01*
X108520Y204248D01*
X110133Y204218D01*
X111745Y204187D01*
Y201898D01*
X105949D01*
X114997Y201791D02*
X114734Y201857D01*
X113992Y202226D01*
X113206Y202928D01*
X112693Y203834D01*
X112511Y204611D01*
Y205287D01*
X114000D01*
X114553Y205283D01*
X114950Y205254D01*
X115124Y205181D01*
X115180Y205078D01*
X115191Y205042D01*
X115234Y204887D01*
X115457Y204354D01*
X115744Y204055D01*
X115820Y204015D01*
X115894Y203977D01*
X116148Y203914D01*
X116463Y203935D01*
X116747Y204059D01*
X116982Y204263D01*
X117148Y204527D01*
X117228Y204829D01*
X117204Y205148D01*
X117105Y205393D01*
X117057Y205463D01*
X117035Y205493D01*
X116894Y205595D01*
X116566Y205787D01*
X116122Y206016D01*
X115737Y206196D01*
X115608Y206253D01*
X115252Y206409D01*
X114216Y206952D01*
X113322Y207648D01*
X112843Y208424D01*
X112702Y209132D01*
Y209587D01*
X112814Y210246D01*
X113160Y210987D01*
X113748Y211604D01*
X114367Y212009D01*
X114588Y212113D01*
X114690Y212161D01*
X115000Y212294D01*
X115353Y212396D01*
X115761Y212441D01*
X116194Y212449D01*
X116478D01*
X116896Y212439D01*
X117299Y212398D01*
X117631Y212313D01*
X117895Y212208D01*
X117980Y212167D01*
X118165Y212081D01*
X118686Y211740D01*
X119226Y211198D01*
X119596Y210545D01*
X119767Y209980D01*
X119793Y209787D01*
X119866Y209224D01*
X117230D01*
X117104Y209608D01*
X117067Y209719D01*
X116793Y210075D01*
X116348Y210209D01*
X116084D01*
X115737Y210060D01*
X115431Y209701D01*
X115346Y209260D01*
X115469Y208937D01*
X115546Y208867D01*
X115572Y208844D01*
X115731Y208748D01*
X116093Y208548D01*
X116581Y208296D01*
X117001Y208089D01*
X117142Y208020D01*
X117490Y207853D01*
X118507Y207283D01*
X119348Y206585D01*
X119773Y205798D01*
X119889Y205046D01*
Y204795D01*
X119889Y204558D01*
X119780Y203847D01*
X119450Y203069D01*
X118890Y202449D01*
X118304Y202066D01*
X118094Y201972D01*
X117952Y201909D01*
X117470Y201813D01*
X116597Y201720D01*
X115698Y201708D01*
X115166Y201748D01*
X114997Y201791D01*
X120604Y201898D02*
Y212287D01*
X123338D01*
Y201898D01*
X120604D01*
X128161Y201852D02*
X127887Y201925D01*
X127100Y202266D01*
X126157Y202896D01*
X125359Y203720D01*
X124863Y204452D01*
X124734Y204713D01*
X124667Y204848D01*
X124476Y205259D01*
X124332Y205676D01*
X124263Y206132D01*
X124235Y206627D01*
X124230Y206791D01*
X124220Y207030D01*
X124241Y207748D01*
X124359Y208561D01*
X124599Y209281D01*
X124867Y209803D01*
X124973Y209965D01*
X125311Y210486D01*
X126828Y211725D01*
X129194Y212459D01*
X131670Y212133D01*
X133420Y211172D01*
X133863Y210715D01*
X133955Y210620D01*
X134197Y210296D01*
X134546Y209754D01*
X134819Y209238D01*
X134930Y208985D01*
Y208879D01*
X134544Y208817D01*
X133730Y208787D01*
X131989D01*
X131700Y209164D01*
X131578Y209324D01*
X131076Y209701D01*
X130254Y210021D01*
X129365Y210095D01*
X128723Y209982D01*
X128533Y209894D01*
X128401Y209836D01*
X128041Y209586D01*
X127595Y209145D01*
X127231Y208622D01*
X127035Y208209D01*
X126994Y208065D01*
X126928Y207839D01*
X126865Y207117D01*
X126993Y206162D01*
X127350Y205300D01*
X127746Y204767D01*
X127911Y204630D01*
X128111Y204464D01*
X128849Y204131D01*
X129892Y204017D01*
X130903Y204277D01*
X131573Y204709D01*
X131742Y204902D01*
X131824Y204997D01*
X132052Y205301D01*
X132022Y205515D01*
X131554Y205600D01*
X130804Y205615D01*
X129025D01*
Y207802D01*
X135258D01*
Y206701D01*
X134964Y205349D01*
X134143Y203787D01*
X132880Y202581D01*
X131685Y201956D01*
X131263Y201846D01*
X131088Y201801D01*
X130551Y201730D01*
X129707Y201693D01*
X128864Y201733D01*
X128332Y201806D01*
X128161Y201852D01*
X136243Y201898D02*
Y212293D01*
X137412Y212262D01*
X138580Y212231D01*
X140524Y209073D01*
X140713Y208766D01*
X141283Y207843D01*
X141917Y206824D01*
X142357Y206124D01*
X142528Y205857D01*
X142538Y205848D01*
X142559Y206079D01*
X142565Y206756D01*
X142554Y207776D01*
X142537Y208719D01*
X142530Y209033D01*
X142450Y212287D01*
X144991D01*
Y201890D01*
X142640Y201952D01*
X140726Y205007D01*
X138812Y208064D01*
X138754Y201898D01*
X136243D01*
X148754Y201784D02*
X148472Y201845D01*
X147662Y202198D01*
X146820Y202891D01*
X146277Y203802D01*
X146085Y204603D01*
Y205287D01*
X148682D01*
X148751Y204860D01*
X148766Y204765D01*
X148884Y204487D01*
X149133Y204170D01*
X149454Y203949D01*
X149716Y203866D01*
X149883D01*
X150122Y203948D01*
X150403Y204109D01*
X150451Y204149D01*
X150518Y204206D01*
X150720Y204462D01*
X150787Y204764D01*
Y204962D01*
X150726Y205252D01*
X150491Y205570D01*
X150007Y205885D01*
X149404Y206175D01*
X149201Y206263D01*
X148882Y206402D01*
X147952Y206876D01*
X147103Y207467D01*
X146578Y208111D01*
X146339Y208680D01*
X146298Y208876D01*
X146260Y209052D01*
X146241Y209599D01*
X146383Y210287D01*
X146717Y210928D01*
X147095Y211378D01*
X147241Y211505D01*
X147499Y211733D01*
X148463Y212202D01*
X149880Y212439D01*
X151269Y212212D01*
X152180Y211750D01*
X152414Y211522D01*
X152556Y211384D01*
X153028Y210734D01*
X153254Y209996D01*
X153272Y209813D01*
X153333Y209224D01*
X150837D01*
X150621Y209689D01*
X150580Y209775D01*
X150376Y210072D01*
X150125Y210230D01*
X150062Y210247D01*
X149944Y210280D01*
X149555Y210245D01*
X149129Y210007D01*
X148874Y209614D01*
X148841Y209254D01*
X148878Y209149D01*
X148895Y209099D01*
X148995Y208961D01*
X149271Y208744D01*
X149781Y208448D01*
X150398Y208126D01*
X150606Y208021D01*
X150978Y207833D01*
X152065Y207197D01*
X152936Y206439D01*
X153337Y205596D01*
X153404Y204789D01*
X153386Y204522D01*
X153378Y204417D01*
X153285Y203883D01*
X153138Y203425D01*
X153105Y203357D01*
X153046Y203243D01*
X152813Y202926D01*
X152413Y202522D01*
X151947Y202185D01*
X151585Y201994D01*
X151458Y201949D01*
X151317Y201900D01*
X150872Y201815D01*
X150119Y201737D01*
X149359Y201724D01*
X148901Y201754D01*
X148754Y201784D01*
X154506Y201898D02*
Y212311D01*
X157049Y212262D01*
X157393Y212256D01*
X158426Y212229D01*
X159274Y212182D01*
X159799Y212103D01*
X160104Y212013D01*
X160204Y211974D01*
X160392Y211902D01*
X161209Y211333D01*
X161837Y210516D01*
X161931Y210318D01*
X161970Y210233D01*
X162077Y209972D01*
X162164Y209648D01*
X162204Y209261D01*
X162214Y208864D01*
Y208731D01*
X162213Y208601D01*
X162201Y208207D01*
X162158Y207817D01*
X162072Y207487D01*
X161967Y207224D01*
X161928Y207139D01*
X161871Y207019D01*
X161656Y206677D01*
X161304Y206218D01*
X160959Y205866D01*
X160773Y205725D01*
X160669D01*
X160540Y205793D01*
X160151Y205974D01*
X159601Y206244D01*
X159112Y206490D01*
X158951Y206572D01*
X157294Y207420D01*
X158210Y207479D01*
X158338Y207487D01*
X158722Y207522D01*
X159037Y207582D01*
X159244Y207696D01*
X159394Y207840D01*
X159440Y207891D01*
X159501Y207959D01*
X159689Y208269D01*
X159755Y208607D01*
Y208865D01*
X159643Y209301D01*
X159292Y209694D01*
X158673Y209918D01*
X157988Y209990D01*
X157759D01*
X157021Y209991D01*
Y207417D01*
X158601Y206434D01*
X158751Y206341D01*
X159206Y206055D01*
X159637Y205769D01*
X159889Y205562D01*
X159958Y205419D01*
X159843Y205327D01*
X159539Y205269D01*
X159046Y205234D01*
X158531Y205211D01*
X158360Y205204D01*
X157021Y205152D01*
Y201898D01*
X154506D01*
X160664Y201815D02*
X160684Y201865D01*
X160891Y202372D01*
X161173Y203067D01*
X161231Y203209D01*
X161289Y203352D01*
X161552Y203970D01*
X161719Y204328D01*
X161731Y204340D01*
X161741Y204353D01*
X161870Y204307D01*
X162193Y204149D01*
X162650Y203891D01*
X163059Y203644D01*
X163195Y203558D01*
X164580Y202683D01*
X164218Y202570D01*
X164099Y202533D01*
X163742Y202422D01*
X163182Y202249D01*
X162582Y202064D01*
X161988Y201883D01*
X161445Y201719D01*
X160996Y201585D01*
X160689Y201494D01*
X160596Y201459D01*
X160566D01*
X160574Y201564D01*
X160644Y201767D01*
X160664Y201815D01*
X163446Y204255D02*
X163309Y204324D01*
X162905Y204541D01*
X162460Y204795D01*
X162161Y204991D01*
X162051Y205074D01*
Y205183D01*
X162163Y205430D01*
X162467Y206226D01*
X162916Y207368D01*
X163326Y208395D01*
X163465Y208736D01*
X164880Y212231D01*
X165337Y212266D01*
X165794Y212300D01*
X165716Y208548D01*
X165707Y208176D01*
X165678Y207059D01*
X165639Y205778D01*
X165599Y204842D01*
X165576Y204443D01*
X165566Y204386D01*
X165497Y203977D01*
X164405Y205352D01*
X164297Y205487D01*
X163973Y205891D01*
X163603Y206343D01*
X163335Y206659D01*
X163223Y206783D01*
X163209Y206792D01*
X163257Y206616D01*
X163463Y206204D01*
X163521Y206099D01*
X163671Y205827D01*
X164121Y205004D01*
X164554Y204201D01*
X164809Y203709D01*
X164878Y203543D01*
X164873Y203544D01*
X164753Y203602D01*
X164442Y203755D01*
X163990Y203981D01*
X163582Y204186D01*
X163446Y204255D01*
X167534Y204495D02*
X167598Y204611D01*
X167982Y205302D01*
X168349Y205956D01*
X168405Y206053D01*
X168460Y206151D01*
X168677Y206569D01*
X168771Y206804D01*
X168759Y206816D01*
X168690D01*
X168686Y206809D01*
X168680Y206804D01*
X168580Y206678D01*
X168320Y206353D01*
X167946Y205884D01*
X167609Y205460D01*
X167497Y205320D01*
X166345Y203876D01*
X166274Y207070D01*
X166267Y207400D01*
X166241Y208390D01*
X166204Y209622D01*
X166169Y210630D01*
X166146Y211135D01*
X166137Y211274D01*
X166072Y212287D01*
X167035D01*
X168494Y208674D01*
X168635Y208324D01*
X169057Y207269D01*
X169512Y206111D01*
X169813Y205322D01*
X169918Y205028D01*
X169913Y205022D01*
X169894Y205006D01*
X169774Y204944D01*
X169455Y204778D01*
X169016Y204557D01*
X168518Y204309D01*
X168019Y204065D01*
X167582Y203852D01*
X167265Y203704D01*
X167164Y203647D01*
X167131D01*
X167222Y203897D01*
X167469Y204378D01*
X167534Y204495D01*
X169347Y202058D02*
X169167Y202115D01*
X168629Y202286D01*
X168036Y202480D01*
X167627Y202619D01*
X167472Y202675D01*
X167466Y202680D01*
X167556Y202765D01*
X167836Y202962D01*
X168261Y203244D01*
X168657Y203497D01*
X168789Y203580D01*
X168922Y203663D01*
X169322Y203909D01*
X169765Y204174D01*
X170071Y204345D01*
X170188Y204403D01*
X170194Y204397D01*
X170211Y204378D01*
X170262Y204258D01*
X170402Y203935D01*
X170588Y203490D01*
X170796Y202984D01*
X171000Y202476D01*
X171176Y202028D01*
X171300Y201701D01*
X171347Y201591D01*
Y201537D01*
X171322Y201487D01*
X171117Y201515D01*
X170525Y201688D01*
X169641Y201966D01*
X169347Y202058D01*
X171676Y201898D02*
Y205380D01*
X173026Y206209D01*
X173217Y206328D01*
X173798Y206675D01*
X174282Y206922D01*
X174644Y207020D01*
X174950Y207037D01*
X175199D01*
X175641Y207084D01*
X176054Y207174D01*
X176106Y207195D01*
X176233Y207248D01*
X176564Y207537D01*
X176844Y208049D01*
X176917Y208646D01*
X176822Y209106D01*
X176753Y209238D01*
X176692Y209356D01*
X176091Y209789D01*
X175157Y209987D01*
X174929D01*
X174191Y209990D01*
Y207148D01*
X172990Y206545D01*
X172872Y206487D01*
X172519Y206313D01*
X172124Y206120D01*
X171849Y205991D01*
X171761Y205943D01*
X171726D01*
X171710Y206195D01*
X171692Y206879D01*
X171680Y207891D01*
X171676Y208818D01*
Y212309D01*
X174163Y212260D01*
X174584Y212253D01*
X175848Y212204D01*
X176925Y212086D01*
X177627Y211864D01*
X178054Y211598D01*
X178182Y211493D01*
X178442Y211279D01*
X179027Y210400D01*
X179395Y209041D01*
X179266Y207636D01*
X178841Y206662D01*
X178623Y206402D01*
X178553Y206320D01*
X178298Y206110D01*
X177860Y205819D01*
X177420Y205596D01*
X177174Y205506D01*
X177050D01*
X176925Y205421D01*
Y205349D01*
X177028Y205219D01*
X177311Y204832D01*
X177727Y204290D01*
X178109Y203807D01*
X178238Y203647D01*
X178365Y203489D01*
X178747Y203009D01*
X179163Y202478D01*
X179445Y202108D01*
X179549Y201994D01*
Y201947D01*
X179122Y201915D01*
X178353Y201898D01*
X176644D01*
X175520Y203480D01*
X175409Y203636D01*
X175074Y204101D01*
X174695Y204618D01*
X174421Y204979D01*
X174307Y205119D01*
X174294Y205127D01*
X174219Y204724D01*
X174191Y203839D01*
Y201898D01*
X171676D01*
X180315Y201896D02*
Y212287D01*
X182936D01*
X182965Y209921D01*
X182994Y207556D01*
X184470Y209918D01*
X185948Y212281D01*
X187287Y212283D01*
X187470Y212285D01*
X188233Y212270D01*
X188627Y212241D01*
Y212176D01*
X188493Y212009D01*
X188130Y211448D01*
X187593Y210630D01*
X187102Y209889D01*
X186937Y209643D01*
X185248Y207109D01*
X185443Y206827D01*
X185470Y206789D01*
X185640Y206545D01*
X186031Y205986D01*
X186559Y205230D01*
X187017Y204576D01*
X187169Y204358D01*
X187319Y204144D01*
X187769Y203498D01*
X188272Y202773D01*
X188627Y202261D01*
X188767Y202054D01*
X188779Y202034D01*
X188783Y202026D01*
X188746Y201968D01*
X188528Y201926D01*
X188077Y201904D01*
X187530Y201898D01*
X185837D01*
X182994Y206424D01*
X182965Y204161D01*
X182936Y201896D01*
X180315D01*
D02*
D20*
X157736Y221265D02*
X158610Y221442D01*
X159324Y221923D01*
X159806Y222637D01*
X159982Y223511D01*
Y248142D01*
X159806Y249016D01*
X159324Y249730D01*
X158610Y250212D01*
X157736Y250388D01*
X126517D01*
X125642Y250212D01*
X124928Y249730D01*
X124446Y249016D01*
X124270Y248142D01*
Y223511D01*
X124446Y222637D01*
X124928Y221923D01*
X125642Y221442D01*
X126517Y221265D01*
X157736D01*
X159289Y248143D02*
X159167Y248747D01*
X158834Y249241D01*
X158341Y249573D01*
X157736Y249695D01*
X126517D01*
X125912Y249573D01*
X125418Y249241D01*
X125085Y248747D01*
X124963Y248143D01*
Y223512D01*
X125085Y222907D01*
X125418Y222414D01*
X125912Y222081D01*
X126517Y221959D01*
X157736D01*
X158341Y222081D01*
X158834Y222414D01*
X159167Y222907D01*
X159289Y223512D01*
Y248143D01*
X0Y0D02*
M02*
