G04 DesignSpark PCB PRO Gerber Version 10.0 Build 5299*
G04 #@! TF.Part,Single*
G04 #@! TF.FileFunction,Copper,L1,Top*
G04 #@! TF.FilePolarity,Positive*
%FSLAX35Y35*%
%MOIN*%
G04 #@! TA.AperFunction,SMDPad,CuDef*
%ADD81R,0.03150X0.05906*%
%ADD80R,0.03937X0.04291*%
%ADD78R,0.04724X0.06299*%
%ADD79R,0.12992X0.12992*%
%ADD85R,0.03543X0.03543*%
%ADD84R,0.05906X0.05906*%
G04 #@! TA.AperFunction,ComponentPad*
%ADD21R,0.06496X0.06496*%
G04 #@! TA.AperFunction,SMDPad,CuDef*
%ADD83R,0.07087X0.07087*%
G04 #@! TD.AperFunction*
%ADD29C,0.00500*%
%ADD18C,0.00787*%
%ADD75C,0.00984*%
%ADD19C,0.01000*%
G04 #@! TA.AperFunction,ViaPad*
%ADD70C,0.03543*%
G04 #@! TD.AperFunction*
%ADD76C,0.03937*%
G04 #@! TA.AperFunction,ComponentPad*
%ADD20C,0.06102*%
%ADD22C,0.06496*%
G04 #@! TA.AperFunction,SMDPad,CuDef*
%ADD82R,0.05906X0.03150*%
%ADD77R,0.04291X0.03937*%
G04 #@! TD.AperFunction*
X0Y0D02*
D02*
D18*
X6974Y268984D02*
Y7394D01*
X11331Y3037D01*
X135126D01*
X139482Y7394D01*
Y268984D01*
X135126Y273341D01*
X11331D01*
X6974Y268984D01*
X136546Y139578D02*
G75*
G02*
X137008Y138465I-1113J-1114D01*
G01*
Y101969D01*
G75*
G02*
X136546Y100855I-1575J0D01*
G01*
X128740Y93048D01*
Y47244D01*
G75*
G02*
X128279Y46131I-1575J0D01*
G01*
X123554Y41406D01*
G75*
G02*
X122439Y40945I-1114J1113D01*
G01*
X81105D01*
G75*
G02*
X79989Y41406I-2J1575D01*
G01*
X77036Y44359D01*
G75*
G02*
X76575Y45472I1113J1114D01*
G01*
Y49409D01*
X69783D01*
Y44007D01*
G75*
G02*
X70337Y39111I-1673J-2669D01*
G01*
X69156Y37930D01*
G75*
G02*
X66925Y37008I-2227J2227D01*
G01*
X45669D01*
G75*
G02*
X43439Y37933I0J3150D01*
G01*
X31634Y49739D01*
G75*
G02*
X30709Y51969I2224J2230D01*
G01*
Y172317D01*
X28498Y174528D01*
G75*
G02*
X27576Y176755I2227J2227D01*
G01*
G75*
G02*
Y176756I1327J1D01*
G01*
G75*
G02*
Y176759I1195J2D01*
G01*
Y183904D01*
G75*
G02*
X26378Y185433I377J1529D01*
G01*
Y193701D01*
X25425D01*
Y184850D01*
X17913D01*
Y193816D01*
G75*
G02*
X16929Y195276I591J1460D01*
G01*
Y228346D01*
G75*
G02*
X18504Y229921I1575J0D01*
G01*
X47244D01*
G75*
G02*
X48819Y228346I0J-1575D01*
G01*
Y225803D01*
X55465D01*
Y219079D01*
X48819D01*
Y217929D01*
X55465D01*
Y211205D01*
X48819D01*
Y200346D01*
X53756D01*
Y193268D01*
X47031D01*
Y193701D01*
X43323D01*
Y192957D01*
X47244D01*
Y193134D01*
X53543D01*
Y191437D01*
X56000D01*
X57382Y192819D01*
Y231496D01*
G75*
G02*
X57874Y232681I1673J0D01*
G01*
X63382Y238189D01*
G75*
G02*
X64567Y238681I1185J-1181D01*
G01*
X83953D01*
X85291Y240020D01*
Y243701D01*
X83638D01*
Y245419D01*
X83291D01*
Y243701D01*
X76638D01*
Y250000D01*
X78291D01*
Y254134D01*
X76181D01*
Y252756D01*
X70276D01*
Y254134D01*
X68165D01*
Y250000D01*
X69819D01*
Y243701D01*
X63165D01*
Y250000D01*
X64819D01*
Y254134D01*
X62205D01*
Y262402D01*
X70472D01*
Y258661D01*
X75984D01*
Y262402D01*
X84252D01*
Y254134D01*
X81638D01*
Y250000D01*
X83291D01*
Y248281D01*
X83638D01*
Y250000D01*
X90291D01*
Y243701D01*
X88638D01*
Y239327D01*
G75*
G02*
X88146Y238142I-1673J0D01*
G01*
X85831Y235827D01*
G75*
G02*
X84646Y235335I-1185J1181D01*
G01*
X65260D01*
X60728Y230803D01*
Y192126D01*
G75*
G02*
X60236Y190941I-1673J0D01*
G01*
X57878Y188583D01*
G75*
G02*
X56693Y188091I-1185J1181D01*
G01*
X53543D01*
Y186480D01*
X53346D01*
Y185475D01*
X55630Y183191D01*
G75*
G02*
X56496Y181102I-2087J-2089D01*
G01*
Y166490D01*
G75*
G02*
X56657Y166339I-2951J-3304D01*
G01*
X112763D01*
G75*
G02*
X119823Y163189I2827J-3150D01*
G01*
G75*
G02*
X112763Y160039I-4232J0D01*
G01*
X56657D01*
G75*
G02*
X49114Y163189I-3114J3150D01*
G01*
G75*
G02*
X50591Y166490I4429J0D01*
G01*
Y179879D01*
X48307Y182163D01*
G75*
G02*
X47441Y184252I2087J2089D01*
G01*
Y186480D01*
X47244D01*
Y186657D01*
X43323D01*
Y185063D01*
X36236D01*
Y193701D01*
X35039D01*
Y185433D01*
G75*
G02*
X33875Y183913I-1575J0D01*
G01*
Y178060D01*
X36085Y175849D01*
G75*
G02*
X37008Y173622I-2227J-2227D01*
G01*
G75*
G02*
Y173621I-1327J0D01*
G01*
G75*
G02*
Y173618I-1195J-2D01*
G01*
Y94094D01*
X53543D01*
G75*
G02*
X56212Y92618I0J-3150D01*
G01*
X66929D01*
G75*
G02*
X68114Y92126I0J-1673D01*
G01*
X69488Y90752D01*
G75*
G02*
X69980Y89567I-1181J-1185D01*
G01*
Y89173D01*
X85827D01*
Y81890D01*
X93110D01*
Y56693D01*
X85827D01*
Y49409D01*
X84646D01*
Y47896D01*
X85692Y46850D01*
X121001D01*
X122835Y48684D01*
Y94488D01*
G75*
G02*
X123296Y95602I1575J0D01*
G01*
X130709Y103015D01*
Y130962D01*
X130056Y131614D01*
X129519D01*
G75*
G02*
X121358Y133189I-3928J1575D01*
G01*
G75*
G02*
X122073Y135543I4232J0D01*
G01*
X121119Y136496D01*
X118231D01*
G75*
G02*
X119823Y133189I-2641J-3307D01*
G01*
G75*
G02*
X111358I-4232J0D01*
G01*
G75*
G02*
X112950Y136496I4232J0D01*
G01*
X56489D01*
G75*
G02*
X57972Y133189I-2946J-3307D01*
G01*
G75*
G02*
X49114I-4429J0D01*
G01*
G75*
G02*
X50597Y136496I4429J0D01*
G01*
X49747D01*
X47769Y134518D01*
G75*
G02*
X47972Y133189I-4225J-1328D01*
G01*
G75*
G02*
X39114I-4429J0D01*
G01*
G75*
G02*
X45798Y137001I4429J0D01*
G01*
X47981Y139184D01*
G75*
G02*
X49097Y139646I1114J-1113D01*
G01*
X50886D01*
G75*
G02*
X50688Y146575I2657J3543D01*
G01*
X49589D01*
X47709Y144694D01*
G75*
G02*
X47972Y143189I-4165J-1506D01*
G01*
G75*
G02*
X39114I-4429J0D01*
G01*
G75*
G02*
X45647Y147087I4429J0D01*
G01*
X47824Y149263D01*
G75*
G02*
X48939Y149724I1114J-1113D01*
G01*
X50784D01*
G75*
G02*
X49114Y153189I2759J3465D01*
G01*
G75*
G02*
X57644Y154862I4429J0D01*
G01*
X111703D01*
G75*
G02*
X119823Y153189I3887J-1673D01*
G01*
G75*
G02*
X118021Y149724I-4232J0D01*
G01*
X120746D01*
G75*
G02*
X121861Y149263I2J-1575D01*
G01*
X124010Y147115D01*
G75*
G02*
X129519Y144764I1581J-3926D01*
G01*
X130706D01*
G75*
G02*
X131822Y144302I2J-1575D01*
G01*
X136546Y139578D01*
X38902Y123189D02*
G75*
G02*
X48185I4642J0D01*
G01*
G75*
G02*
X38902I-4642J0D01*
G01*
X121358Y113189D02*
G75*
G02*
X129823I4232J0D01*
G01*
G75*
G02*
X128728Y110348I-4232J0D01*
G01*
G75*
G02*
X127815Y108400I-3137J282D01*
G01*
X116009Y96594D01*
G75*
G02*
X113780Y95669I-2230J2224D01*
G01*
X53543D01*
G75*
G02*
X51313Y96594I0J3150D01*
G01*
X41319Y106589D01*
G75*
G02*
X40394Y108819I2224J2230D01*
G01*
Y110075D01*
G75*
G02*
X39114Y113189I3150J3114D01*
G01*
G75*
G02*
X47972I4429J0D01*
G01*
G75*
G02*
X46717Y110100I-4429J0D01*
G01*
X54848Y101969D01*
X112475D01*
X121804Y111298D01*
G75*
G02*
X121358Y113189I3786J1891D01*
G01*
X39114Y153189D02*
G75*
G02*
X47972I4429J0D01*
G01*
G75*
G02*
X39114I-4429J0D01*
G01*
Y163189D02*
G75*
G02*
X47972I4429J0D01*
G01*
G75*
G02*
X39114I-4429J0D01*
G01*
X121146Y123189D02*
G75*
G02*
X130035I4445J0D01*
G01*
G75*
G02*
X121146I-4445J0D01*
G01*
X111358Y113189D02*
G75*
G02*
X119823I4232J0D01*
G01*
G75*
G02*
X111358I-4232J0D01*
G01*
Y123189D02*
G75*
G02*
X119823I4232J0D01*
G01*
G75*
G02*
X111358I-4232J0D01*
G01*
X49114Y117618D02*
X57972D01*
Y108760D01*
X49114D01*
Y117618D01*
Y123189D02*
G75*
G02*
X57972I4429J0D01*
G01*
G75*
G02*
X49114I-4429J0D01*
G01*
X111024Y24016D02*
G75*
G02*
X125984I7480J0D01*
G01*
G75*
G02*
X111024I-7480J0D01*
G01*
X20472D02*
G75*
G02*
X35433I7480J0D01*
G01*
G75*
G02*
X20472I-7480J0D01*
G01*
Y252362D02*
G75*
G02*
X35433I7480J0D01*
G01*
G75*
G02*
X20472I-7480J0D01*
G01*
X55953Y250213D02*
X63031D01*
Y243488D01*
X55953D01*
Y250213D01*
X111024Y252362D02*
G75*
G02*
X125984I7480J0D01*
G01*
G75*
G02*
X111024I-7480J0D01*
G01*
X121358Y153189D02*
G75*
G02*
X129823I4232J0D01*
G01*
G75*
G02*
X121358I-4232J0D01*
G01*
Y163189D02*
G75*
G02*
X129823I4232J0D01*
G01*
G75*
G02*
X121358I-4232J0D01*
G01*
X7368Y24016D02*
G36*
X7368Y24016D02*
Y7000D01*
X10937Y3431D01*
X135519D01*
X139089Y7000D01*
Y24016D01*
X125984D01*
G75*
G02*
X111024I-7480J0D01*
G01*
X35433D01*
G75*
G02*
X20472I-7480J0D01*
G01*
X7368D01*
G37*
Y106644D02*
G36*
X7368Y106644D02*
Y24016D01*
X20472D01*
G75*
G02*
X35433I7480J0D01*
G01*
X111024D01*
G75*
G02*
X125984I7480J0D01*
G01*
X139089D01*
Y106644D01*
X137008D01*
Y101969D01*
G75*
G02*
X136546Y100855I-1575J0D01*
G01*
X128740Y93048D01*
Y47244D01*
G75*
G02*
X128279Y46131I-1575J0D01*
G01*
X123554Y41406D01*
G75*
G02*
X122439Y40945I-1114J1115D01*
G01*
X81105D01*
G75*
G02*
X79989Y41406I-2J1576D01*
G01*
X77036Y44359D01*
G75*
G02*
X76575Y45472I1114J1114D01*
G01*
Y49409D01*
X69783D01*
Y44007D01*
G75*
G02*
X71260Y41339I-1674J-2669D01*
G01*
G75*
G02*
X70337Y39111I-3150J0D01*
G01*
X69156Y37930D01*
G75*
G02*
X66925Y37008I-2228J2229D01*
G01*
X45669D01*
G75*
G02*
X43439Y37933I0J3151D01*
G01*
X31634Y49739D01*
G75*
G02*
X30709Y51969I2226J2230D01*
G01*
Y106644D01*
X7368D01*
G37*
X37008D02*
G36*
X37008Y106644D02*
Y94094D01*
X53543D01*
G75*
G02*
X56212Y92618I0J-3150D01*
G01*
X66929D01*
G75*
G02*
X68114Y92126I0J-1672D01*
G01*
X69488Y90752D01*
G75*
G02*
X69980Y89567I-1181J-1185D01*
G01*
Y89173D01*
X85827D01*
Y81890D01*
X93110D01*
Y56693D01*
X85827D01*
Y49409D01*
X84646D01*
Y47896D01*
X85692Y46850D01*
X121001D01*
X122835Y48684D01*
Y94488D01*
G75*
G02*
X123296Y95602I1575J0D01*
G01*
X130709Y103015D01*
Y106644D01*
X126059D01*
X116009Y96594D01*
G75*
G02*
X113780Y95669I-2230J2226D01*
G01*
X53543D01*
G75*
G02*
X51313Y96594I0J3151D01*
G01*
X41319Y106589D01*
G75*
G02*
X41265Y106644I2227J2233D01*
G01*
X37008D01*
G37*
X50173D02*
G36*
X50173Y106644D02*
X54848Y101969D01*
X112475D01*
X117150Y106644D01*
X50173D01*
G37*
X7368Y113189D02*
G36*
X7368Y113189D02*
Y106644D01*
X30709D01*
Y113189D01*
X7368D01*
G37*
X37008D02*
G36*
X37008Y113189D02*
Y106644D01*
X41265D01*
G75*
G02*
X40394Y108819I2279J2176D01*
G01*
Y110075D01*
G75*
G02*
X39114Y113189I3149J3114D01*
G01*
Y113189D01*
X37008D01*
G37*
X47972D02*
G36*
X47972Y113189D02*
G75*
G02*
X46717Y110100I-4430J1D01*
G01*
X50173Y106644D01*
X117150D01*
X121804Y111298D01*
G75*
G02*
X121358Y113189I3785J1891D01*
G01*
X119823D01*
G75*
G02*
X111358I-4232J0D01*
G01*
X57972D01*
Y108760D01*
X49114D01*
Y113189D01*
X47972D01*
G37*
X127815Y108400D02*
G36*
X127815Y108400D02*
X126059Y106644D01*
X130709D01*
Y113189D01*
X129823D01*
G75*
G02*
X128728Y110348I-4234J1D01*
G01*
G75*
G02*
X127815Y108400I-3140J283D01*
G01*
G37*
X137008Y113189D02*
G36*
X137008Y113189D02*
Y106644D01*
X139089D01*
Y113189D01*
X137008D01*
G37*
X7368Y123189D02*
G36*
X7368Y123189D02*
Y113189D01*
X30709D01*
Y123189D01*
X7368D01*
G37*
X37008D02*
G36*
X37008Y123189D02*
Y113189D01*
X39114D01*
G75*
G02*
X47972I4429J0D01*
G01*
X49114D01*
Y117618D01*
X57972D01*
Y113189D01*
X111358D01*
G75*
G02*
X119823I4232J0D01*
G01*
X121358D01*
G75*
G02*
X129823I4232J0D01*
G01*
X130709D01*
Y123189D01*
X130035D01*
G75*
G02*
X121146I-4445J0D01*
G01*
X119823D01*
G75*
G02*
X111358I-4232J0D01*
G01*
X57972D01*
G75*
G02*
X49114I-4429J0D01*
G01*
X48185D01*
G75*
G02*
X38902I-4642J0D01*
G01*
X37008D01*
G37*
X137008D02*
G36*
X137008Y123189D02*
Y113189D01*
X139089D01*
Y123189D01*
X137008D01*
G37*
X7368Y149705D02*
G36*
X7368Y149705D02*
Y123189D01*
X30709D01*
Y149705D01*
X7368D01*
G37*
X37008D02*
G36*
X37008Y149705D02*
Y123189D01*
X38902D01*
G75*
G02*
X48185I4642J0D01*
G01*
X49114D01*
G75*
G02*
X57972I4429J0D01*
G01*
X111358D01*
G75*
G02*
X119823I4232J0D01*
G01*
X121146D01*
G75*
G02*
X130035I4445J0D01*
G01*
X130709D01*
Y130962D01*
X130056Y131614D01*
X129519D01*
G75*
G02*
X121358Y133189I-3928J1575D01*
G01*
G75*
G02*
X122073Y135543I4235J0D01*
G01*
X121119Y136496D01*
X118231D01*
G75*
G02*
X119823Y133189I-2641J-3307D01*
G01*
G75*
G02*
X111358I-4232J0D01*
G01*
G75*
G02*
X112950Y136496I4232J0D01*
G01*
X56489D01*
G75*
G02*
X57972Y133189I-2946J-3307D01*
G01*
G75*
G02*
X49114I-4429J0D01*
G01*
G75*
G02*
X50597Y136496I4429J0D01*
G01*
X49747D01*
X47769Y134518D01*
G75*
G02*
X47972Y133190I-4219J-1328D01*
G01*
G75*
G02*
Y133189I-4834J0D01*
G01*
G75*
G02*
X39114I-4429J0D01*
G01*
G75*
G02*
X45798Y137001I4429J0D01*
G01*
X47981Y139184D01*
G75*
G02*
X49097Y139646I1114J-1115D01*
G01*
X50886D01*
G75*
G02*
X49114Y143189I2657J3544D01*
G01*
G75*
G02*
X50688Y146575I4429J0D01*
G01*
X49589D01*
X47709Y144694D01*
G75*
G02*
X47972Y143189I-4167J-1506D01*
G01*
G75*
G02*
X39114I-4429J0D01*
G01*
G75*
G02*
X45647Y147087I4429J0D01*
G01*
X47824Y149263D01*
G75*
G02*
X48689Y149705I1114J-1115D01*
G01*
X46278D01*
G75*
G02*
X40809I-2735J3485D01*
G01*
X37008D01*
G37*
X120996D02*
G36*
X120996Y149705D02*
G75*
G02*
X121861Y149263I-248J-1556D01*
G01*
X124010Y147115D01*
G75*
G02*
X129519Y144764I1581J-3926D01*
G01*
X130706D01*
G75*
G02*
X131822Y144302I2J-1576D01*
G01*
X136546Y139578D01*
G75*
G02*
X137008Y138465I-1114J-1114D01*
G01*
Y123189D01*
X139089D01*
Y149705D01*
X127993D01*
G75*
G02*
X123188I-2402J3484D01*
G01*
X120996D01*
G37*
X7368Y163189D02*
G36*
X7368Y163189D02*
Y149705D01*
X30709D01*
Y163189D01*
X7368D01*
G37*
X37008D02*
G36*
X37008Y163189D02*
Y149705D01*
X40809D01*
G75*
G02*
X39114Y153189I2735J3484D01*
G01*
G75*
G02*
X47972I4429J0D01*
G01*
G75*
G02*
X46278Y149705I-4429J0D01*
G01*
X48689D01*
G75*
G02*
X48939Y149724I248J-1558D01*
G01*
X50784D01*
G75*
G02*
X49114Y153189I2761J3465D01*
G01*
G75*
G02*
X57644Y154862I4429J0D01*
G01*
X111703D01*
G75*
G02*
X119823Y153189I3887J-1673D01*
G01*
Y153189D01*
G75*
G02*
X118021Y149724I-4231J0D01*
G01*
X120746D01*
G75*
G02*
X120996Y149705I2J-1578D01*
G01*
X123188D01*
G75*
G02*
X121358Y153189I2402J3484D01*
G01*
G75*
G02*
X129823I4232J0D01*
G01*
G75*
G02*
X127993Y149705I-4232J0D01*
G01*
X139089D01*
Y163189D01*
X129823D01*
G75*
G02*
X121358I-4232J0D01*
G01*
X119823D01*
G75*
G02*
X112763Y160039I-4232J0D01*
G01*
X56657D01*
G75*
G02*
X49114Y163189I-3114J3150D01*
G01*
X47972D01*
G75*
G02*
X39114I-4429J0D01*
G01*
X37008D01*
G37*
X7368Y246850D02*
G36*
X7368Y246850D02*
Y163189D01*
X30709D01*
Y172317D01*
X28498Y174528D01*
G75*
G02*
X27576Y176755I2227J2227D01*
G01*
Y176755D01*
Y176756D01*
Y176759D01*
Y183904D01*
G75*
G02*
X26378Y185433I377J1529D01*
G01*
Y185433D01*
Y193701D01*
X25425D01*
Y184850D01*
X17913D01*
Y193816D01*
G75*
G02*
X16929Y195275I590J1459D01*
G01*
Y195276D01*
Y228346D01*
G75*
G02*
X18504Y229921I1575J0D01*
G01*
X47244D01*
G75*
G02*
X48819Y228346I0J-1575D01*
G01*
Y225803D01*
X55465D01*
Y219079D01*
X48819D01*
Y217929D01*
X55465D01*
Y211205D01*
X48819D01*
Y200346D01*
X53756D01*
Y193268D01*
X47031D01*
Y193701D01*
X43323D01*
Y192957D01*
X47244D01*
Y193134D01*
X53543D01*
Y191437D01*
X56000D01*
X57382Y192819D01*
Y231496D01*
G75*
G02*
X57874Y232681I1673J0D01*
G01*
X63382Y238189D01*
G75*
G02*
X64567Y238681I1185J-1180D01*
G01*
X83953D01*
X85291Y240020D01*
Y243701D01*
X83638D01*
Y245419D01*
X83291D01*
Y243701D01*
X76638D01*
Y246850D01*
X69819D01*
Y243701D01*
X63165D01*
Y246850D01*
X63031D01*
Y243488D01*
X55953D01*
Y246850D01*
X33010D01*
G75*
G02*
X22896I-5057J5512D01*
G01*
X7368D01*
G37*
X33875Y183913D02*
G36*
X33875Y183913D02*
Y178060D01*
X36085Y175849D01*
G75*
G02*
X37008Y173622I-2227J-2227D01*
G01*
Y173622D01*
Y173621D01*
Y173618D01*
Y163189D01*
X39114D01*
G75*
G02*
X47972I4429J0D01*
G01*
X49114D01*
Y163189D01*
G75*
G02*
X50591Y166490I4428J0D01*
G01*
Y179879D01*
X48307Y182163D01*
G75*
G02*
X47441Y184252I2087J2089D01*
G01*
Y186480D01*
X47244D01*
Y186657D01*
X43323D01*
Y185063D01*
X36236D01*
Y193701D01*
X35039D01*
Y185433D01*
Y185433D01*
G75*
G02*
X33875Y183913I-1574J0D01*
G01*
G37*
X53346Y186480D02*
G36*
X53346Y186480D02*
Y185475D01*
X55630Y183191D01*
G75*
G02*
X56496Y181102I-2087J-2089D01*
G01*
Y166490D01*
G75*
G02*
X56657Y166339I-3259J-3632D01*
G01*
X112763D01*
G75*
G02*
X119823Y163189I2827J-3150D01*
G01*
X121358D01*
G75*
G02*
X129823I4232J0D01*
G01*
X139089D01*
Y246850D01*
X123561D01*
G75*
G02*
X113447I-5057J5512D01*
G01*
X90291D01*
Y243701D01*
X88638D01*
Y239327D01*
G75*
G02*
X88146Y238142I-1673J0D01*
G01*
X85831Y235827D01*
G75*
G02*
X84646Y235335I-1185J1180D01*
G01*
X65260D01*
X60728Y230803D01*
Y192126D01*
G75*
G02*
X60236Y190941I-1673J0D01*
G01*
X57878Y188583D01*
G75*
G02*
X56693Y188091I-1185J1180D01*
G01*
X53543D01*
Y186480D01*
X53346D01*
G37*
X7368Y252362D02*
G36*
X7368Y252362D02*
Y246850D01*
X22896D01*
G75*
G02*
X20472Y252362I5057J5512D01*
G01*
X7368D01*
G37*
X35433D02*
G36*
X35433Y252362D02*
G75*
G02*
X33010Y246850I-7480J0D01*
G01*
X55953D01*
Y250213D01*
X63031D01*
Y246850D01*
X63165D01*
Y250000D01*
X64819D01*
Y252362D01*
X35433D01*
G37*
X68165D02*
G36*
X68165Y252362D02*
Y250000D01*
X69819D01*
Y246850D01*
X76638D01*
Y250000D01*
X78291D01*
Y252362D01*
X68165D01*
G37*
X81638D02*
G36*
X81638Y252362D02*
Y250000D01*
X83291D01*
Y248281D01*
X83638D01*
Y250000D01*
X90291D01*
Y246850D01*
X113447D01*
G75*
G02*
X111024Y252362I5057J5512D01*
G01*
X81638D01*
G37*
X125984D02*
G36*
X125984Y252362D02*
G75*
G02*
X123561Y246850I-7480J0D01*
G01*
X139089D01*
Y252362D01*
X125984D01*
G37*
X7368Y269378D02*
G36*
X7368Y269378D02*
Y252362D01*
X20472D01*
G75*
G02*
X35433I7480J0D01*
G01*
X64819D01*
Y254134D01*
X62205D01*
Y262402D01*
X70472D01*
Y258661D01*
X75984D01*
Y262402D01*
X84252D01*
Y254134D01*
X81638D01*
Y252362D01*
X111024D01*
G75*
G02*
X125984I7480J0D01*
G01*
X139089D01*
Y269378D01*
X135519Y272947D01*
X10937D01*
X7368Y269378D01*
G37*
X68165Y254134D02*
G36*
X68165Y254134D02*
Y252362D01*
X78291D01*
Y254134D01*
X76181D01*
Y252756D01*
X70276D01*
Y254134D01*
X68165D01*
G37*
X27953Y195276D02*
Y185433D01*
X33465D01*
Y195276D01*
X47244D01*
Y228346D01*
X18504D01*
Y195276D01*
X27953D01*
G36*
X27953Y195276D02*
Y185433D01*
X33465D01*
Y195276D01*
X47244D01*
Y228346D01*
X18504D01*
Y195276D01*
X27953D01*
G37*
X37008Y87795D02*
Y53273D01*
X46974Y43307D01*
X65624D01*
X65883Y43566D01*
G75*
G02*
X66437Y44007I2228J-2228D01*
G01*
Y49409D01*
X66354D01*
Y49197D01*
X60417D01*
Y56693D01*
X53346D01*
Y81890D01*
X60417D01*
Y89272D01*
X56212D01*
G75*
G02*
X53543Y87795I-2669J1673D01*
G01*
X37008D01*
G36*
X37008Y87795D02*
Y53273D01*
X46974Y43307D01*
X65624D01*
X65883Y43566D01*
G75*
G02*
X66437Y44007I2228J-2228D01*
G01*
Y49409D01*
X66354D01*
Y49197D01*
X60417D01*
Y56693D01*
X53346D01*
Y81890D01*
X60417D01*
Y89272D01*
X56212D01*
G75*
G02*
X53543Y87795I-2669J1673D01*
G01*
X37008D01*
G37*
X43543Y133189D02*
Y132677D01*
X43701D01*
X49094Y138071D01*
X121772D01*
X126260Y133583D01*
X125591D01*
Y133189D01*
X43543Y143189D02*
Y142520D01*
X43307D01*
X48937Y148150D01*
X120748D01*
X125118Y143780D01*
X125591D01*
Y143189D01*
X78150Y53543D02*
Y45472D01*
X81102Y42520D01*
X122441D01*
X127165Y47244D01*
Y93701D01*
X135433Y101969D01*
Y138465D01*
X130709Y143189D01*
X125591D01*
X83071Y53543D02*
Y47244D01*
X85039Y45276D01*
X121654D01*
X124409Y48031D01*
Y94488D01*
X132283Y102362D01*
Y131614D01*
X130709Y133189D01*
X125591D01*
D02*
D19*
X19661Y187383D02*
X17807Y185529D01*
X19661Y191401D02*
X17807Y193255D01*
X23679Y187383D02*
X25531Y185531D01*
X23679Y191401D02*
X25531Y193254D01*
X40795Y123189D02*
X38795D01*
X43543Y120441D02*
Y118441D01*
Y125937D02*
Y127937D01*
X46291Y123189D02*
X48291D01*
X50394Y198453D02*
Y200453D01*
X51862Y196807D02*
X53862D01*
X51925Y213098D02*
Y211098D01*
Y216035D02*
Y218035D01*
Y220972D02*
Y218972D01*
Y223909D02*
Y225909D01*
X53571Y214567D02*
X55571D01*
X53571Y222441D02*
X55571D01*
X57877Y245235D02*
X56024Y243382D01*
X57877Y248465D02*
X56024Y250319D01*
X61107Y245235D02*
X62961Y243382D01*
X61107Y248465D02*
X62961Y250319D01*
X62311Y53543D02*
X60311D01*
X63386Y51091D02*
Y49091D01*
X123039Y123189D02*
X121039D01*
X125591Y120638D02*
Y118638D01*
Y125740D02*
Y127740D01*
X128142Y123189D02*
X130142D01*
D02*
D70*
X18110Y110630D03*
Y134252D03*
Y157874D03*
X21654Y181102D03*
X33465Y16142D03*
X38976Y181496D03*
X41732Y75197D03*
X52362Y203937D03*
X53543Y51575D03*
Y163189D02*
Y181102D01*
X50394Y184252D01*
Y189807D01*
X59449Y16142D03*
Y265354D03*
X85433Y16142D03*
Y110630D03*
Y130315D03*
Y157874D03*
Y181496D03*
Y228740D03*
Y265354D03*
X111417Y16142D03*
Y51575D03*
Y75197D03*
Y181496D03*
Y205118D03*
Y228740D03*
D02*
D20*
X115591Y113189D03*
Y123189D03*
Y133189D03*
Y143189D03*
Y153189D03*
Y163189D03*
X125591Y113189D03*
Y123189D03*
Y133189D03*
Y143189D03*
Y153189D03*
Y163189D03*
D02*
D21*
X53543Y113189D03*
D02*
D22*
X43543D03*
Y123189D03*
Y133189D03*
Y143189D03*
Y153189D03*
Y163189D03*
X53543Y123189D03*
Y133189D03*
Y143189D03*
Y153189D03*
Y163189D03*
D02*
D29*
X85965Y246850D02*
X80965D01*
D02*
D75*
X53543Y143189D02*
X115591D01*
X53543Y153189D02*
X115591D01*
X63386Y53543D02*
Y59449D01*
X66732Y62795D01*
X68307D01*
Y64370D01*
X63386Y85039D02*
Y79134D01*
X68307Y74213D01*
X66492Y246850D02*
Y258114D01*
X66339Y258268D01*
X68110Y41339D02*
Y53346D01*
X68307Y53543D01*
Y64370D02*
X78150D01*
X68307Y74213D02*
Y64370D01*
Y74213D02*
X78150D01*
X68307Y85039D02*
Y89567D01*
X66929Y90945D01*
X53543D01*
X78150Y74213D02*
Y64370D01*
X79965Y246850D02*
Y258114D01*
X80118Y258268D01*
X86965Y246850D02*
Y239327D01*
X84646Y237008D01*
X64567D01*
X59055Y231496D01*
Y192126D01*
X56693Y189764D01*
X50437D01*
X50394Y189807D01*
D02*
D76*
X21654Y181102D02*
Y189376D01*
X21670Y189392D01*
X30725D02*
Y176755D01*
X33858Y173622D01*
Y90945D01*
Y51969D01*
X45669Y40157D01*
X66929D01*
X68110Y41339D01*
X43543Y113189D02*
Y108819D01*
X53543Y98819D01*
X113780D01*
X125591Y110630D01*
Y113189D01*
X50394Y189807D02*
X40195D01*
X39780Y189392D01*
X53543Y90945D02*
X33858D01*
X53543Y163189D02*
X115591D01*
D02*
D77*
X44925Y214567D03*
Y222441D03*
X51925Y214567D03*
Y222441D03*
X59492Y246850D03*
X66492D03*
X79965D03*
X86965D03*
D02*
D78*
X21670Y189392D03*
X30725D03*
X39780D03*
D02*
D79*
X30725Y214589D03*
D02*
D80*
X50394Y189807D03*
Y196807D03*
D02*
D81*
X63386Y53543D03*
Y85039D03*
X68307Y53543D03*
Y85039D03*
X73228Y53543D03*
Y85039D03*
X78150Y53543D03*
Y85039D03*
X83071Y53543D03*
Y85039D03*
D02*
D82*
X57480Y59449D03*
Y64370D03*
Y69291D03*
Y74213D03*
Y79134D03*
X88976Y59449D03*
Y64370D03*
Y69291D03*
Y74213D03*
Y79134D03*
D02*
D83*
X68307Y64370D03*
Y74213D03*
X78150Y64370D03*
Y74213D03*
D02*
D84*
X66339Y258268D03*
X80118D03*
D02*
D85*
X73228Y255709D03*
X0Y0D02*
M02*
