G04 DesignSpark PCB PRO Gerber Version 10.0 Build 5299*
G04 #@! TF.Part,Single*
G04 #@! TF.FileFunction,Paste,Top*
G04 #@! TF.FilePolarity,Positive*
%FSLAX35Y35*%
%MOIN*%
G04 #@! TA.AperFunction,SMDPad,CuDef*
%ADD98R,0.02835X0.05591*%
%ADD15R,0.03543X0.03898*%
%ADD96R,0.04252X0.05827*%
%ADD97R,0.11693X0.11693*%
%ADD12R,0.03189X0.03189*%
%ADD101R,0.05315X0.05315*%
%ADD100R,0.06378X0.06378*%
%ADD99R,0.05591X0.02835*%
%ADD10R,0.03898X0.03543*%
G04 #@! TD.AperFunction*
X0Y0D02*
D02*
D10*
X44925Y214567D03*
Y222441D03*
X51925Y214567D03*
Y222441D03*
X59492Y246850D03*
X66492D03*
X79965D03*
X86965D03*
D02*
D12*
X73228Y255709D03*
D02*
D15*
X50394Y189807D03*
Y196807D03*
D02*
D96*
X21670Y189392D03*
X30725D03*
X39780D03*
D02*
D97*
X30725Y214589D03*
D02*
D98*
X63386Y53543D03*
Y85039D03*
X68307Y53543D03*
Y85039D03*
X73228Y53543D03*
Y85039D03*
X78150Y53543D03*
Y85039D03*
X83071Y53543D03*
Y85039D03*
D02*
D99*
X57480Y59449D03*
Y64370D03*
Y69291D03*
Y74213D03*
Y79134D03*
X88976Y59449D03*
Y64370D03*
Y69291D03*
Y74213D03*
Y79134D03*
D02*
D100*
X68307Y64370D03*
Y74213D03*
X78150Y64370D03*
Y74213D03*
D02*
D101*
X66339Y258268D03*
X80118D03*
X0Y0D02*
M02*
