G05
M48
;#@! TF.GenerationSoftware,DesignSpark,DesignSpark PCB PRO,10.0.5344
;#@! TF.CreationDate,2023-01-09T14:43:22+00:00*
;#@! TF.FileFunction,Plated,1,2,PTH
;FILE_FORMAT=3:5
;TYPE=PLATED
INCH,TZ
FMAT,2
T1C000.01969
T2C000.04094
T3C000.04331
%
T001
X0.18110Y1.10630
X0.18110Y1.34252
X0.18110Y1.57874
X0.21654Y1.81102
X0.33465Y0.16142
X0.38976Y1.81496
X0.41732Y0.75197
X0.52362Y2.03937
X0.53543Y0.51575
X0.59449Y0.16142
X0.59449Y2.65354
X0.85433Y0.16142
X0.85433Y1.10630
X0.85433Y1.30315
X0.85433Y1.57874
X0.85433Y1.81496
X0.85433Y2.28740
X0.85433Y2.65354
X1.11417Y0.16142
X1.11417Y0.51575
X1.11417Y0.75197
X1.11417Y1.81496
X1.11417Y2.05118
X1.11417Y2.28740
T002
X1.15591Y1.13189
X1.15591Y1.23189
X1.15591Y1.33189
X1.15591Y1.43189
X1.15591Y1.53189
X1.15591Y1.63189
X1.25591Y1.13189
X1.25591Y1.23189
X1.25591Y1.33189
X1.25591Y1.43189
X1.25591Y1.53189
X1.25591Y1.63189
T003
X0.43543Y1.13189
X0.43543Y1.23189
X0.43543Y1.33189
X0.43543Y1.43189
X0.43543Y1.53189
X0.43543Y1.63189
X0.53543Y1.13189
X0.53543Y1.23189
X0.53543Y1.33189
X0.53543Y1.43189
X0.53543Y1.53189
X0.53543Y1.63189
M30
