G04 DesignSpark PCB PRO Gerber Version 10.0 Build 5299*
G04 #@! TF.Part,Single*
G04 #@! TF.FileFunction,Copper,L2,Bot*
G04 #@! TF.FilePolarity,Positive*
%FSLAX35Y35*%
%MOIN*%
%ADD119C,0.00500*%
%ADD121C,0.00787*%
%ADD124C,0.00984*%
%ADD122C,0.01000*%
%ADD123C,0.02500*%
G04 #@! TA.AperFunction,ViaPad*
%ADD125C,0.03543*%
G04 #@! TA.AperFunction,ComponentPad*
%ADD131C,0.05512*%
%ADD128C,0.06102*%
G04 #@! TD.AperFunction*
X0Y0D02*
D02*
D119*
X4719Y107986D02*
Y2750D01*
X64175D01*
X68616Y7191D01*
Y268900D01*
X64175Y273341D01*
X4719D01*
Y164167D01*
X17967D01*
G75*
G02*
X20467Y161667I0J-2500D01*
G01*
Y110486D01*
G75*
G02*
X17967Y107986I-2500J0D01*
G01*
X4719D01*
X40606Y154492D02*
G75*
G02*
X48882Y152848I3975J-1644D01*
G01*
G75*
G02*
X40606Y151205I-4301J0D01*
G01*
X39295D01*
Y92269D01*
X40731Y90834D01*
G75*
G02*
X47169Y87652I2433J-3183D01*
G01*
G75*
G02*
X43903Y83715I-4006J0D01*
G01*
G75*
G02*
Y75841I-740J-3937D01*
G01*
G75*
G02*
Y67967I-740J-3937D01*
G01*
G75*
G02*
X43163Y60024I-740J-3937D01*
G01*
G75*
G02*
X42424Y67967I0J4006D01*
G01*
G75*
G02*
Y75841I740J3937D01*
G01*
G75*
G02*
Y83715I740J3937D01*
G01*
G75*
G02*
X39157Y87652I740J3937D01*
G01*
G75*
G02*
X39159Y87757I4005J-7D01*
G01*
X36490Y90426D01*
G75*
G02*
X36008Y91589I1161J1163D01*
G01*
Y166892D01*
X32553Y170347D01*
G75*
G02*
X32071Y171510I1161J1163D01*
G01*
Y197321D01*
G75*
G02*
X30693Y199856I1644J2535D01*
G01*
G75*
G02*
X36736I3022J0D01*
G01*
G75*
G02*
X35358Y197321I-3022J0D01*
G01*
Y172191D01*
X38813Y168736D01*
G75*
G02*
X39295Y167573I-1161J-1163D01*
G01*
Y154492D01*
X40606D01*
X40280Y112848D02*
G75*
G02*
X48882I4301J0D01*
G01*
G75*
G02*
X40280I-4301J0D01*
G01*
Y122848D02*
G75*
G02*
X48882I4301J0D01*
G01*
G75*
G02*
X40280I-4301J0D01*
G01*
Y132848D02*
G75*
G02*
X48882I4301J0D01*
G01*
G75*
G02*
X40280I-4301J0D01*
G01*
Y142848D02*
G75*
G02*
X48882I4301J0D01*
G01*
G75*
G02*
X40280I-4301J0D01*
G01*
X39945Y23872D02*
G75*
G02*
X55043I7549J0D01*
G01*
G75*
G02*
X39945I-7549J0D01*
G01*
Y252219D02*
G75*
G02*
X55043I7549J0D01*
G01*
G75*
G02*
X39945I-7549J0D01*
G01*
X48350Y192254D02*
G75*
G02*
X49207Y188021I-1644J-2535D01*
G01*
Y170329D01*
G75*
G02*
X48474Y168561I-2500J0D01*
G01*
X47238Y167325D01*
Y166230D01*
G75*
G02*
X48882Y162848I-2657J-3382D01*
G01*
G75*
G02*
X40280I-4301J0D01*
G01*
G75*
G02*
X42238Y166456I4301J0D01*
G01*
Y168360D01*
G75*
G02*
X42970Y170128I2500J0D01*
G01*
X44207Y171364D01*
Y188021D01*
G75*
G02*
X45063Y192254I2500J1697D01*
G01*
Y205475D01*
X44758Y205780D01*
G75*
G02*
X44276Y206943I1161J1163D01*
G01*
Y223699D01*
G75*
G02*
X42898Y226234I1644J2535D01*
G01*
G75*
G02*
X48941I3022J0D01*
G01*
G75*
G02*
X47563Y223699I-3022J0D01*
G01*
Y207624D01*
X47868Y207319D01*
G75*
G02*
X48350Y206156I-1161J-1163D01*
G01*
Y192254D01*
X50280Y112848D02*
G75*
G02*
X58882I4301J0D01*
G01*
G75*
G02*
X50280I-4301J0D01*
G01*
Y122848D02*
G75*
G02*
X58882I4301J0D01*
G01*
G75*
G02*
X50280I-4301J0D01*
G01*
Y132848D02*
G75*
G02*
X58882I4301J0D01*
G01*
G75*
G02*
X50280I-4301J0D01*
G01*
Y142848D02*
G75*
G02*
X58882I4301J0D01*
G01*
G75*
G02*
X50280I-4301J0D01*
G01*
Y152848D02*
G75*
G02*
X58882I4301J0D01*
G01*
G75*
G02*
X50280I-4301J0D01*
G01*
Y162848D02*
G75*
G02*
X58882I4301J0D01*
G01*
G75*
G02*
X50280I-4301J0D01*
G01*
X4969Y23872D02*
G36*
X4969Y23872D02*
Y3000D01*
X64425D01*
X68366Y6941D01*
Y23872D01*
X55043D01*
G75*
G02*
X39945I-7549J0D01*
G01*
X4969D01*
G37*
Y107986D02*
G36*
X4969Y107986D02*
Y23872D01*
X39945D01*
G75*
G02*
X55043I7549J0D01*
G01*
X68366D01*
Y112848D01*
X58882D01*
G75*
G02*
X50280I-4301J0D01*
G01*
X48882D01*
G75*
G02*
X40280I-4301J0D01*
G01*
X39295D01*
Y92269D01*
X40731Y90834D01*
G75*
G02*
X47169Y87652I2433J-3183D01*
G01*
Y87651D01*
G75*
G02*
X43903Y83715I-4006J0D01*
G01*
G75*
G02*
X47169Y79778I-740J-3937D01*
G01*
G75*
G02*
X43903Y75841I-4006J0D01*
G01*
G75*
G02*
X47169Y71904I-740J-3937D01*
G01*
G75*
G02*
X43903Y67967I-4006J0D01*
G01*
G75*
G02*
X47169Y64030I-740J-3937D01*
G01*
G75*
G02*
X43163Y60024I-4006J0D01*
G01*
G75*
G02*
X39157Y64030I0J4006D01*
G01*
G75*
G02*
X42424Y67967I4006J0D01*
G01*
G75*
G02*
X39157Y71904I740J3937D01*
G01*
G75*
G02*
X42424Y75841I4006J0D01*
G01*
G75*
G02*
X39157Y79778I740J3937D01*
G01*
G75*
G02*
X42424Y83715I4006J0D01*
G01*
G75*
G02*
X39157Y87651I739J3937D01*
G01*
Y87652D01*
Y87652D01*
G75*
G02*
X39159Y87757I3485J0D01*
G01*
X36490Y90426D01*
G75*
G02*
X36008Y91588I1159J1162D01*
G01*
G75*
G02*
Y91589I1805J0D01*
G01*
Y112848D01*
X20467D01*
Y110486D01*
G75*
G02*
X17967Y107986I-2500J0D01*
G01*
X4969D01*
G37*
X20467Y122848D02*
G36*
X20467Y122848D02*
Y112848D01*
X36008D01*
Y122848D01*
X20467D01*
G37*
X39295D02*
G36*
X39295Y122848D02*
Y112848D01*
X40280D01*
G75*
G02*
X48882I4301J0D01*
G01*
X50280D01*
G75*
G02*
X58882I4301J0D01*
G01*
X68366D01*
Y122848D01*
X58882D01*
G75*
G02*
X50280I-4301J0D01*
G01*
X48882D01*
G75*
G02*
X40280I-4301J0D01*
G01*
X39295D01*
G37*
X20467Y131451D02*
G36*
X20467Y131451D02*
Y122848D01*
X36008D01*
Y131451D01*
X20467D01*
G37*
X39295D02*
G36*
X39295Y131451D02*
Y122848D01*
X40280D01*
G75*
G02*
X48882I4301J0D01*
G01*
X50280D01*
G75*
G02*
X58882I4301J0D01*
G01*
X68366D01*
Y131451D01*
X58648D01*
G75*
G02*
X50513I-4068J1398D01*
G01*
X48648D01*
G75*
G02*
X40513I-4068J1398D01*
G01*
X39295D01*
G37*
X20467Y142848D02*
G36*
X20467Y142848D02*
Y131451D01*
X36008D01*
Y142848D01*
X20467D01*
G37*
X39295D02*
G36*
X39295Y142848D02*
Y131451D01*
X40513D01*
G75*
G02*
X40280Y132848I4068J1398D01*
G01*
G75*
G02*
X48882I4301J0D01*
G01*
G75*
G02*
X48648Y131451I-4301J0D01*
G01*
X50513D01*
G75*
G02*
X50280Y132848I4068J1398D01*
G01*
G75*
G02*
X58882I4301J0D01*
G01*
G75*
G02*
X58648Y131451I-4301J0D01*
G01*
X68366D01*
Y142848D01*
X58882D01*
G75*
G02*
X50280I-4301J0D01*
G01*
X48882D01*
G75*
G02*
X40280I-4301J0D01*
G01*
X39295D01*
G37*
X20467Y152848D02*
G36*
X20467Y152848D02*
Y142848D01*
X36008D01*
Y152848D01*
X20467D01*
G37*
X39295Y151205D02*
G36*
X39295Y151205D02*
Y142848D01*
X40280D01*
G75*
G02*
X48882I4301J0D01*
G01*
X50280D01*
G75*
G02*
X58882I4301J0D01*
G01*
X68366D01*
Y152848D01*
X58882D01*
G75*
G02*
X50280I-4301J0D01*
G01*
X48882D01*
G75*
G02*
X40606Y151205I-4301J0D01*
G01*
X39295D01*
G37*
X20467Y161667D02*
G36*
X20467Y161667D02*
Y152848D01*
X36008D01*
Y162848D01*
X20170D01*
G75*
G02*
X20467Y161667I-2204J-1181D01*
G01*
G37*
X39295Y162848D02*
G36*
X39295Y162848D02*
Y154492D01*
X40606D01*
G75*
G02*
X48882Y152848I3975J-1644D01*
G01*
X50280D01*
G75*
G02*
X58882I4301J0D01*
G01*
X68366D01*
Y162848D01*
X58882D01*
G75*
G02*
X50280I-4301J0D01*
G01*
X48882D01*
G75*
G02*
X40280I-4301J0D01*
G01*
X39295D01*
G37*
X4969Y193902D02*
G36*
X4969Y193902D02*
Y164167D01*
X17967D01*
G75*
G02*
X20170Y162848I0J-2500D01*
G01*
X36008D01*
Y166892D01*
X32553Y170347D01*
G75*
G02*
X32071Y171509I1159J1162D01*
G01*
G75*
G02*
Y171510I1805J0D01*
G01*
Y193902D01*
X4969D01*
G37*
X35358D02*
G36*
X35358Y193902D02*
Y172191D01*
X38813Y168736D01*
G75*
G02*
X39295Y167574I-1159J-1162D01*
G01*
G75*
G02*
Y167573I-1805J0D01*
G01*
Y162848D01*
X40280D01*
G75*
G02*
X42238Y166456I4302J0D01*
G01*
Y168360D01*
G75*
G02*
Y168361I2820J0D01*
G01*
G75*
G02*
X42970Y170128I2498J0D01*
G01*
X44207Y171364D01*
Y188021D01*
G75*
G02*
X43685Y189719I2500J1697D01*
G01*
G75*
G02*
X45063Y192254I3021J0D01*
G01*
Y193902D01*
X35358D01*
G37*
X47238Y167325D02*
G36*
X47238Y167325D02*
Y166230D01*
G75*
G02*
X48882Y162848I-2658J-3382D01*
G01*
X50280D01*
G75*
G02*
X58882I4301J0D01*
G01*
X68366D01*
Y193902D01*
X48350D01*
Y192254D01*
G75*
G02*
X49728Y189719I-1643J-2535D01*
G01*
G75*
G02*
X49207Y188021I-3021J0D01*
G01*
Y170329D01*
G75*
G02*
Y170328I-2820J0D01*
G01*
G75*
G02*
X48474Y168561I-2498J0D01*
G01*
X47238Y167325D01*
G37*
X4969Y252219D02*
G36*
X4969Y252219D02*
Y193902D01*
X32071D01*
Y197321D01*
G75*
G02*
X30693Y199856I1644J2536D01*
G01*
G75*
G02*
X36736I3022J0D01*
G01*
G75*
G02*
X35358Y197321I-3022J0D01*
G01*
Y193902D01*
X45063D01*
Y205475D01*
X44758Y205780D01*
G75*
G02*
X44276Y206942I1159J1162D01*
G01*
G75*
G02*
Y206943I1805J0D01*
G01*
Y223699D01*
G75*
G02*
X42898Y226234I1644J2536D01*
G01*
G75*
G02*
X48941I3022J0D01*
G01*
G75*
G02*
X47563Y223699I-3022J0D01*
G01*
Y207624D01*
X47868Y207319D01*
G75*
G02*
X48350Y206156I-1159J-1162D01*
G01*
Y193902D01*
X68366D01*
Y252219D01*
X55043D01*
G75*
G02*
X39945I-7549J0D01*
G01*
X4969D01*
G37*
Y273091D02*
G36*
X4969Y273091D02*
Y252219D01*
X39945D01*
G75*
G02*
X55043I7549J0D01*
G01*
X68366D01*
Y269150D01*
X64425Y273091D01*
X4969D01*
G37*
D02*
D121*
X33715Y199856D02*
Y171510D01*
X37652Y167573D01*
Y152848D01*
Y153006D02*
Y91589D01*
X41589Y87652D01*
X43163D01*
X44581Y152848D02*
X37652D01*
X45919Y226234D02*
Y206943D01*
X46707Y206156D01*
Y189719D01*
D02*
D122*
X41568Y62434D02*
X40154Y61020D01*
X41568Y65625D02*
X40154Y67039D01*
X44759Y62434D02*
X46173Y61020D01*
X44759Y65625D02*
X46173Y67039D01*
X52030Y122848D02*
X50030D01*
X54581Y120297D02*
Y118297D01*
Y125400D02*
Y127400D01*
X57132Y122848D02*
X59132D01*
D02*
D123*
X46707Y189719D02*
Y170329D01*
X44738Y168360D01*
Y163085D01*
X44581Y162927D01*
Y162848D01*
D02*
D124*
X44423Y153006D02*
X44581Y152848D01*
D02*
D125*
X25841Y13636D03*
Y45526D03*
Y73085D03*
Y100644D03*
Y214423D03*
Y238439D03*
Y262061D03*
X33715Y199856D03*
X44344Y105368D03*
X45919Y226234D03*
X46707Y189719D03*
X49463Y209305D03*
X61667Y217573D03*
X63636Y13636D03*
Y45526D03*
Y73085D03*
Y238439D03*
Y262061D03*
X64030Y100644D03*
D02*
D128*
X44581Y112848D03*
Y122848D03*
Y132848D03*
Y142848D03*
Y152848D03*
Y162848D03*
X54581Y112848D03*
Y122848D03*
Y132848D03*
Y142848D03*
Y152848D03*
Y162848D03*
D02*
D131*
X43163Y64030D03*
Y71904D03*
Y79778D03*
Y87652D03*
X0Y0D02*
M02*
