G04 DesignSpark PCB PRO Gerber Version 10.0 Build 5299*
G04 #@! TF.Part,Single*
G04 #@! TF.FileFunction,Copper,L1,Top*
G04 #@! TF.FilePolarity,Positive*
%FSLAX35Y35*%
%MOIN*%
G04 #@! TA.AperFunction,SMDPad,CuDef*
%ADD132R,0.03937X0.04291*%
G04 #@! TD.AperFunction*
%ADD119C,0.00500*%
%ADD121C,0.00787*%
%ADD124C,0.00984*%
%ADD122C,0.01000*%
%ADD127C,0.01500*%
%ADD126C,0.01969*%
%ADD123C,0.02500*%
G04 #@! TA.AperFunction,ViaPad*
%ADD125C,0.03543*%
G04 #@! TA.AperFunction,ComponentPad*
%ADD131C,0.05512*%
%ADD128C,0.06102*%
G04 #@! TA.AperFunction,SMDPad,CuDef*
%ADD129R,0.05118X0.03150*%
%ADD133R,0.04291X0.03937*%
%ADD130R,0.11811X0.08268*%
G04 #@! TD.AperFunction*
X0Y0D02*
D02*
D119*
X4719Y107986D02*
Y2750D01*
X64175D01*
X68616Y7191D01*
Y268900D01*
X64175Y273341D01*
X4719D01*
Y164167D01*
X17967D01*
G75*
G02*
X20467Y161667I0J-2500D01*
G01*
Y110486D01*
G75*
G02*
X17967Y107986I-2500J0D01*
G01*
X4719D01*
X8709Y259374D02*
X15500D01*
Y252937D01*
X14104D01*
Y252287D01*
X15500D01*
Y245850D01*
X8709D01*
Y252287D01*
X10104D01*
Y252937D01*
X8709D01*
Y259374D01*
X64821Y173878D02*
G75*
G02*
X65476Y172297I-1579J-1581D01*
G01*
Y115998D01*
G75*
G02*
X64821Y114417I-2235J0D01*
G01*
X61674Y111270D01*
G75*
G02*
X60093Y110614I-1581J1579D01*
G01*
X58256D01*
G75*
G02*
X56815Y109173I-3675J2234D01*
G01*
Y77022D01*
G75*
G02*
X56159Y75441I-2235J0D01*
G01*
X51044Y70325D01*
G75*
G02*
X49463Y69669I-1581J1579D01*
G01*
X46488D01*
G75*
G02*
X43903Y67967I-3325J2234D01*
G01*
G75*
G02*
X43163Y60024I-740J-3937D01*
G01*
G75*
G02*
X42424Y67967I0J4006D01*
G01*
G75*
G02*
Y75841I740J3937D01*
G01*
G75*
G02*
Y83715I740J3937D01*
G01*
G75*
G02*
X41007Y91028I740J3937D01*
G01*
X40410D01*
G75*
G02*
X39176Y91538I-2J1743D01*
G01*
X38191Y92522D01*
G75*
G02*
X37681Y93754I1232J1232D01*
G01*
Y164620D01*
G75*
G02*
X38191Y165852I1742J0D01*
G01*
X48508Y176169D01*
Y187293D01*
G75*
G02*
X45429Y186980I-1801J2426D01*
G01*
Y181972D01*
X37811D01*
Y197819D01*
X35946D01*
G75*
G02*
X30693Y199856I-2231J2037D01*
G01*
G75*
G02*
X36367Y201303I3022J0D01*
G01*
X37811D01*
Y222071D01*
X45429D01*
Y221382D01*
X48606D01*
Y224852D01*
G75*
G02*
X43450Y224492I-2687J1382D01*
G01*
X42376D01*
G75*
G02*
X41141Y225005I0J1742D01*
G01*
X40359Y225787D01*
G75*
G02*
X39846Y227022I1229J1235D01*
G01*
Y231418D01*
X37949Y233316D01*
Y223902D01*
X23638D01*
Y234669D01*
X36595D01*
X36536Y234728D01*
X35292D01*
G75*
G02*
X34057Y235239I-2J1743D01*
G01*
X30514Y238782D01*
G75*
G02*
X30004Y240014I1232J1232D01*
G01*
Y245198D01*
X28269Y246933D01*
X22500D01*
Y245850D01*
X15709D01*
Y252287D01*
X22500D01*
Y250417D01*
X28988D01*
G75*
G02*
X30222Y249907I2J-1743D01*
G01*
X32978Y247151D01*
G75*
G02*
X33488Y245919I-1232J-1232D01*
G01*
Y240735D01*
X36011Y238213D01*
X37256D01*
G75*
G02*
X38490Y237702I2J-1743D01*
G01*
X42820Y233372D01*
G75*
G02*
X43331Y232140I-1232J-1232D01*
G01*
Y227976D01*
X43450D01*
G75*
G02*
X48606Y227617I2469J-1742D01*
G01*
Y228098D01*
X61343D01*
Y221307D01*
X53973D01*
G75*
G02*
X54981Y220726I-573J-2160D01*
G01*
X59309Y216398D01*
G75*
G02*
X59965Y214817I-1579J-1581D01*
G01*
Y178735D01*
X64821Y173878D01*
X39945Y23872D02*
G75*
G02*
X55043I7549J0D01*
G01*
G75*
G02*
X39945I-7549J0D01*
G01*
X23638Y180142D02*
X37949D01*
Y169374D01*
X23638D01*
Y180142D01*
X15709Y259374D02*
X22500D01*
Y252937D01*
X15709D01*
Y259374D01*
X39945Y252219D02*
G75*
G02*
X55043I7549J0D01*
G01*
G75*
G02*
X39945I-7549J0D01*
G01*
X48606Y235098D02*
X61343D01*
Y228307D01*
X48606D01*
Y235098D01*
X4969Y23872D02*
G36*
X4969Y23872D02*
Y3000D01*
X64425D01*
X68366Y6941D01*
Y23872D01*
X55043D01*
G75*
G02*
X39945I-7549J0D01*
G01*
X4969D01*
G37*
Y107986D02*
G36*
X4969Y107986D02*
Y23872D01*
X39945D01*
G75*
G02*
X55043I7549J0D01*
G01*
X68366D01*
Y156156D01*
X65476D01*
Y115998D01*
G75*
G02*
X64821Y114417I-2235J0D01*
G01*
X61674Y111270D01*
G75*
G02*
X60093Y110614I-1581J1580D01*
G01*
X58256D01*
G75*
G02*
X56815Y109173I-3674J2233D01*
G01*
Y77022D01*
G75*
G02*
X56159Y75441I-2235J0D01*
G01*
X51044Y70325D01*
G75*
G02*
X49463Y69669I-1581J1580D01*
G01*
X46488D01*
G75*
G02*
X43903Y67967I-3325J2235D01*
G01*
G75*
G02*
X47169Y64030I-740J-3937D01*
G01*
G75*
G02*
X43163Y60024I-4006J0D01*
G01*
G75*
G02*
X39157Y64030I0J4006D01*
G01*
G75*
G02*
X42424Y67967I4006J0D01*
G01*
G75*
G02*
X39157Y71904I740J3937D01*
G01*
G75*
G02*
X42424Y75841I4006J0D01*
G01*
G75*
G02*
X39157Y79778I740J3937D01*
G01*
G75*
G02*
X42424Y83715I4006J0D01*
G01*
G75*
G02*
X39157Y87652I740J3937D01*
G01*
G75*
G02*
X41007Y91028I4006J0D01*
G01*
X40410D01*
G75*
G02*
X39176Y91538I-2J1743D01*
G01*
X38191Y92522D01*
G75*
G02*
X37681Y93754I1233J1233D01*
G01*
Y156156D01*
X20467D01*
Y110486D01*
G75*
G02*
X17967Y107986I-2500J0D01*
G01*
X4969D01*
G37*
Y174758D02*
G36*
X4969Y174758D02*
Y164167D01*
X17967D01*
G75*
G02*
X20467Y161667I0J-2500D01*
G01*
Y156156D01*
X37681D01*
Y164620D01*
G75*
G02*
X38191Y165852I1744J-1D01*
G01*
X47097Y174758D01*
X37949D01*
Y169374D01*
X23638D01*
Y174758D01*
X4969D01*
G37*
X63941D02*
G36*
X63941Y174758D02*
X64821Y173878D01*
G75*
G02*
X65476Y172297I-1580J-1581D01*
G01*
Y156156D01*
X68366D01*
Y174758D01*
X63941D01*
G37*
X4969Y231703D02*
G36*
X4969Y231703D02*
Y174758D01*
X23638D01*
Y180142D01*
X37949D01*
Y174758D01*
X47097D01*
X48508Y176169D01*
Y187293D01*
G75*
G02*
X45429Y186980I-1801J2425D01*
G01*
Y181972D01*
X37811D01*
Y197819D01*
X35946D01*
G75*
G02*
X30693Y199856I-2231J2037D01*
G01*
G75*
G02*
X36367Y201303I3022J0D01*
G01*
X37811D01*
Y222071D01*
X45429D01*
Y221382D01*
X48606D01*
Y224852D01*
G75*
G02*
X43450Y224492I-2687J1382D01*
G01*
X42376D01*
G75*
G02*
X41141Y225005I0J1743D01*
G01*
X40359Y225787D01*
G75*
G02*
X39846Y227022I1230J1235D01*
G01*
Y231418D01*
X39562Y231703D01*
X37949D01*
Y223902D01*
X23638D01*
Y231703D01*
X4969D01*
G37*
X43331D02*
G36*
X43331Y231703D02*
Y227976D01*
X43450D01*
G75*
G02*
X48606Y227617I2469J-1742D01*
G01*
Y228098D01*
X61343D01*
Y221307D01*
X53973D01*
G75*
G02*
X54981Y220726I-572J-2158D01*
G01*
X59309Y216398D01*
G75*
G02*
X59965Y214817I-1580J-1581D01*
G01*
Y178735D01*
X63941Y174758D01*
X68366D01*
Y231703D01*
X61343D01*
Y228307D01*
X48606D01*
Y231703D01*
X43331D01*
G37*
X4969Y252612D02*
G36*
X4969Y252612D02*
Y231703D01*
X23638D01*
Y234669D01*
X36595D01*
X36536Y234728D01*
X35292D01*
G75*
G02*
X34057Y235239I-2J1743D01*
G01*
X30514Y238782D01*
G75*
G02*
X30004Y240014I1233J1233D01*
G01*
Y245198D01*
X28269Y246933D01*
X22500D01*
Y245850D01*
X15709D01*
Y252287D01*
X22500D01*
Y250417D01*
X28988D01*
G75*
G02*
X30222Y249907I2J-1743D01*
G01*
X32978Y247151D01*
G75*
G02*
X33488Y245919I-1233J-1233D01*
G01*
Y240735D01*
X36011Y238213D01*
X37256D01*
G75*
G02*
X38490Y237702I2J-1743D01*
G01*
X42820Y233372D01*
G75*
G02*
X43331Y232140I-1233J-1233D01*
G01*
Y231703D01*
X48606D01*
Y235098D01*
X61343D01*
Y231703D01*
X68366D01*
Y252612D01*
X55033D01*
G75*
G02*
X55043Y252219I-7540J-393D01*
G01*
G75*
G02*
X39945I-7549J0D01*
G01*
G75*
G02*
X39955Y252612I7550J1D01*
G01*
X14104D01*
Y252287D01*
X15500D01*
Y245850D01*
X8709D01*
Y252287D01*
X10104D01*
Y252612D01*
X4969D01*
G37*
X37949Y233316D02*
G36*
X37949Y233316D02*
Y231703D01*
X39562D01*
X37949Y233316D01*
G37*
X4969Y256156D02*
G36*
X4969Y256156D02*
Y252612D01*
X10104D01*
Y252937D01*
X8709D01*
Y256156D01*
X4969D01*
G37*
X14104Y252937D02*
G36*
X14104Y252937D02*
Y252612D01*
X39955D01*
G75*
G02*
X41053Y256156I7539J-394D01*
G01*
X22500D01*
Y252937D01*
X15709D01*
Y256156D01*
X15500D01*
Y252937D01*
X14104D01*
G37*
X53935Y256156D02*
G36*
X53935Y256156D02*
G75*
G02*
X55033Y252612I-6441J-3937D01*
G01*
X68366D01*
Y256156D01*
X53935D01*
G37*
X4969Y273091D02*
G36*
X4969Y273091D02*
Y256156D01*
X8709D01*
Y259374D01*
X15500D01*
Y256156D01*
X15709D01*
Y259374D01*
X22500D01*
Y256156D01*
X41053D01*
G75*
G02*
X53935I6441J-3937D01*
G01*
X68366D01*
Y269150D01*
X64425Y273091D01*
X4969D01*
G37*
X51205Y140183D02*
Y135513D01*
G75*
G02*
X58882Y132848I3376J-2665D01*
G01*
G75*
G02*
X50648Y131106I-4301J0D01*
G01*
X50449D01*
G75*
G02*
X49215Y131617I-2J1743D01*
G01*
X48803Y132028D01*
G75*
G02*
X41165Y130234I-4222J820D01*
G01*
Y125463D01*
G75*
G02*
X48882Y122848I3415J-2615D01*
G01*
G75*
G02*
X41165Y120234I-4301J0D01*
G01*
Y115463D01*
G75*
G02*
X48882Y112848I3415J-2615D01*
G01*
G75*
G02*
X41165Y110234I-4301J0D01*
G01*
Y94512D01*
X47098D01*
G75*
G02*
X48332Y94002I2J-1743D01*
G01*
X49513Y92820D01*
G75*
G02*
X50024Y91589I-1232J-1232D01*
G01*
Y80959D01*
G75*
G02*
X49513Y79727I-1742J0D01*
G01*
X48332Y78546D01*
G75*
G02*
X47098Y78035I-1232J1232D01*
G01*
X46770D01*
G75*
G02*
X43903Y75841I-3607J1742D01*
G01*
G75*
G02*
X46488Y74138I-740J-3937D01*
G01*
X48537D01*
X52346Y77947D01*
Y109173D01*
G75*
G02*
X50280Y112848I2234J3675D01*
G01*
G75*
G02*
X58256Y115083I4301J0D01*
G01*
X59167D01*
X61008Y116924D01*
Y142481D01*
X60143Y141617D01*
G75*
G02*
X58909Y141106I-1232J1232D01*
G01*
X58513D01*
G75*
G02*
X51205Y140183I-3933J1742D01*
G01*
X50280Y122848D02*
G75*
G02*
X58882I4301J0D01*
G01*
G75*
G02*
X50280I-4301J0D01*
G01*
X41415Y109936D02*
G36*
X41415Y109936D02*
Y94512D01*
X47098D01*
G75*
G02*
X48332Y94002I2J-1743D01*
G01*
X49513Y92820D01*
G75*
G02*
X50024Y91589I-1233J-1233D01*
G01*
Y80959D01*
G75*
G02*
X49513Y79727I-1744J1D01*
G01*
X48332Y78546D01*
G75*
G02*
X47098Y78035I-1232J1233D01*
G01*
X46770D01*
G75*
G02*
X43903Y75841I-3607J1742D01*
G01*
G75*
G02*
X46306Y74388I-740J-3937D01*
G01*
X48787D01*
X52346Y77947D01*
Y109173D01*
G75*
G02*
X50280Y112848I2235J3676D01*
G01*
G75*
G02*
X58256Y115083I4301J0D01*
G01*
X59167D01*
X60758Y116674D01*
Y122848D01*
X58882D01*
G75*
G02*
X50280I-4301J0D01*
G01*
X48882D01*
G75*
G02*
X41415Y119936I-4301J0D01*
G01*
Y115761D01*
G75*
G02*
X48882Y112848I3165J-2912D01*
G01*
G75*
G02*
X41415Y109936I-4301J0D01*
G01*
G37*
Y129936D02*
G36*
X41415Y129936D02*
Y125761D01*
G75*
G02*
X48882Y122848I3165J-2912D01*
G01*
X50280D01*
G75*
G02*
X58882I4301J0D01*
G01*
X60758D01*
Y142231D01*
X60143Y141617D01*
G75*
G02*
X58909Y141106I-1232J1233D01*
G01*
X58513D01*
G75*
G02*
X51205Y140183I-3933J1742D01*
G01*
Y135513D01*
G75*
G02*
X58882Y132848I3376J-2665D01*
G01*
G75*
G02*
X50648Y131106I-4301J0D01*
G01*
X50449D01*
G75*
G02*
X49215Y131617I-2J1743D01*
G01*
X48803Y132028D01*
G75*
G02*
X41415Y129936I-4222J820D01*
G01*
G37*
D02*
D121*
X51825Y224703D02*
Y219455D01*
D02*
D122*
X17489Y254541D02*
X15636Y252687D01*
X17489Y257770D02*
X15636Y259624D01*
X20719Y254541D02*
X22573Y252687D01*
X20719Y257770D02*
X22573Y259624D01*
X39561Y184797D02*
X37561D01*
X41568Y62434D02*
X40154Y61020D01*
X41568Y65625D02*
X40154Y67039D01*
X41620Y183722D02*
Y181722D01*
X43679Y184797D02*
X45679D01*
X44759Y62434D02*
X46173Y61020D01*
X44759Y65625D02*
X46173Y67039D01*
X52030Y122848D02*
X50030D01*
X54581Y120297D02*
Y118297D01*
Y125400D02*
Y127400D01*
X57132Y122848D02*
X59132D01*
X58124Y223057D02*
Y221057D01*
X59593Y224703D02*
X61593D01*
D02*
D123*
X41620Y189719D02*
X46707D01*
X41620Y209404D02*
X49364D01*
X49463Y209305D01*
D02*
D124*
X19104Y249069D02*
X19498Y248675D01*
X28990D01*
X31746Y245919D01*
Y240014D01*
X35289Y236470D01*
X37258D01*
X41589Y232140D01*
Y227022D01*
X42376Y226234D01*
X45919D01*
X33715Y199856D02*
X34010Y199561D01*
X41620D01*
X39423Y142848D02*
Y93754D01*
X40407Y92770D01*
X47100D01*
X48281Y91589D01*
Y80959D01*
X47100Y79778D01*
X43163D01*
X41620Y204482D02*
X51037D01*
X52514Y203006D01*
Y200348D01*
Y170722D01*
X49463Y167671D01*
Y133833D01*
X50447Y132848D01*
X54581D01*
X44581Y142848D02*
X39423D01*
X48675Y173872D02*
X50250Y175447D01*
Y193065D01*
X48675Y194640D01*
X41620D01*
X48675Y173872D02*
X39423Y164620D01*
Y142848D01*
X54581D02*
X58911D01*
X60093Y144030D01*
Y169935D01*
X54581Y175447D01*
Y212356D01*
X52612Y214325D01*
X41620D01*
X58124Y224703D02*
Y221116D01*
X61667Y217573D01*
D02*
D125*
X25841Y13636D03*
Y45526D03*
Y73085D03*
Y100644D03*
Y214423D03*
Y238439D03*
Y262061D03*
X33715Y199856D03*
X44344Y105368D03*
X45919Y226234D03*
X46707Y189719D03*
X49463Y209305D03*
X61667Y217573D03*
X63636Y13636D03*
Y45526D03*
Y73085D03*
Y238439D03*
Y262061D03*
X64030Y100644D03*
D02*
D126*
X54581Y112848D02*
X60093D01*
X63242Y115998D01*
Y172297D01*
X57730Y177809D01*
Y214817D01*
X53400Y219148D01*
X41719D01*
X41620Y219246D01*
X54581Y112848D02*
Y77022D01*
X49463Y71904D01*
X43163D01*
D02*
D127*
X12104Y249069D02*
Y256156D01*
X51825Y231703D02*
X58124D01*
D02*
D128*
X44581Y112848D03*
Y122848D03*
Y132848D03*
Y142848D03*
Y152848D03*
Y162848D03*
X54581Y112848D03*
Y122848D03*
Y132848D03*
Y142848D03*
Y152848D03*
Y162848D03*
D02*
D129*
X41620Y184797D03*
Y189719D03*
Y194640D03*
Y199561D03*
Y204482D03*
Y209404D03*
Y214325D03*
Y219246D03*
D02*
D130*
X30793Y174758D03*
Y229285D03*
D02*
D131*
X43163Y64030D03*
Y71904D03*
Y79778D03*
Y87652D03*
D02*
D132*
X51825Y224703D03*
Y231703D03*
X58124Y224703D03*
Y231703D03*
D02*
D133*
X12104Y249069D03*
Y256156D03*
X19104Y249069D03*
Y256156D03*
X0Y0D02*
M02*
