G04 DesignSpark PCB PRO Gerber Version 10.0 Build 5299*
G04 #@! TF.Part,Single*
G04 #@! TF.FileFunction,Copper,L1,Top*
G04 #@! TF.FilePolarity,Positive*
%FSLAX36Y36*%
%MOIN*%
G04 #@! TA.AperFunction,SMDPad,CuDef*
%ADD27R,0.02362X0.04724*%
%ADD72R,0.03150X0.04528*%
%ADD76R,0.03937X0.04291*%
%ADD28R,0.05500X0.06000*%
%ADD80R,0.03346X0.03346*%
%ADD78R,0.03543X0.03543*%
%ADD81R,0.03740X0.03740*%
%ADD77R,0.05906X0.05906*%
G04 #@! TA.AperFunction,ComponentPad*
%ADD25R,0.06496X0.06496*%
G04 #@! TD.AperFunction*
%ADD17C,0.00500*%
%ADD18C,0.00787*%
%ADD22C,0.01969*%
%ADD20C,0.02000*%
%ADD24C,0.02362*%
G04 #@! TA.AperFunction,ViaPad*
%ADD21C,0.03200*%
G04 #@! TD.AperFunction*
%ADD23C,0.03937*%
G04 #@! TA.AperFunction,ComponentPad*
%ADD74C,0.05130*%
%ADD26C,0.06496*%
G04 #@! TA.AperFunction,SMDPad,CuDef*
%ADD75R,0.05512X0.01181*%
%ADD79R,0.11063X0.03465*%
%ADD73R,0.04291X0.03937*%
%ADD29R,0.18898X0.08858*%
G04 #@! TD.AperFunction*
X0Y0D02*
D02*
D17*
X803150Y2447441D02*
Y2497441D01*
D02*
D18*
X69744Y2689839D02*
Y73941D01*
X113311Y30374D01*
X1351256D01*
X1394823Y73941D01*
Y2689839D01*
X1351256Y2733406D01*
X113311D01*
X69744Y2689839D01*
X135417Y594488D02*
G75*
G02*
X195291I29937J0D01*
G01*
G75*
G02*
X135417I-29937J0D01*
G01*
Y830709D02*
G75*
G02*
X195291I29937J0D01*
G01*
G75*
G02*
X135417I-29937J0D01*
G01*
Y1027559D02*
G75*
G02*
X195291I29937J0D01*
G01*
G75*
G02*
X135417I-29937J0D01*
G01*
Y1381890D02*
G75*
G02*
X195291I29937J0D01*
G01*
G75*
G02*
X135417I-29937J0D01*
G01*
Y1736220D02*
G75*
G02*
X195291I29937J0D01*
G01*
G75*
G02*
X135417I-29937J0D01*
G01*
X1019843Y1928150D02*
X1075000D01*
Y1869882D01*
X1019843D01*
G75*
G02*
X1007874Y1867520I-11969J29138D01*
G01*
X947441D01*
G75*
G02*
X925142Y1876772I0J31496D01*
G01*
X887205Y1914709D01*
G75*
G02*
X877953Y1937008I22244J22299D01*
G01*
Y2255906D01*
X598425D01*
Y2248031D01*
G75*
G02*
X582677Y2232283I-15748J0D01*
G01*
X462697D01*
Y2223299D01*
G75*
G02*
X468504Y2224409I5807J-14638D01*
G01*
X799213D01*
G75*
G02*
X814961Y2208661I0J-15748D01*
G01*
Y2110236D01*
G75*
G02*
X799213Y2094488I-15748J0D01*
G01*
X592618D01*
Y2051740D01*
G75*
G02*
X594488Y2053008I9752J-12374D01*
G01*
Y2056102D01*
X807087D01*
Y2053008D01*
G75*
G02*
X814961Y2039370I-7874J-13638D01*
G01*
Y1933071D01*
G75*
G02*
X799213Y1917323I-15748J0D01*
G01*
X566929D01*
Y1663031D01*
G75*
G02*
X579724Y1631890I-31500J-31142D01*
G01*
G75*
G02*
X491142I-44291J0D01*
G01*
G75*
G02*
X503937Y1663031I44295J0D01*
G01*
Y1830709D01*
X232307D01*
G75*
G02*
X221150Y1835323I-20J15748D01*
G01*
X193591Y1862882D01*
G75*
G02*
X188976Y1874016I11134J11138D01*
G01*
Y2314961D01*
G75*
G02*
X193591Y2326094I15748J-4D01*
G01*
X232961Y2365465D01*
G75*
G02*
X244118Y2370079I11138J-11134D01*
G01*
X638862D01*
G75*
G02*
X634118Y2402047I22555J19685D01*
G01*
X627795D01*
Y2472835D01*
X695039D01*
Y2402047D01*
X688717D01*
G75*
G02*
X683972Y2370079I-27299J-12283D01*
G01*
X769067D01*
X787402Y2388413D01*
Y2404173D01*
X771654D01*
Y2470709D01*
X788839D01*
Y2474173D01*
X771654D01*
Y2540709D01*
X785433D01*
Y2561024D01*
X761811D01*
Y2547244D01*
X702756D01*
Y2561024D01*
X677165D01*
Y2540709D01*
X692913D01*
Y2474173D01*
X629921D01*
Y2540709D01*
X645669D01*
Y2561024D01*
X622047D01*
Y2643701D01*
X704724D01*
Y2606299D01*
X759843D01*
Y2643701D01*
X842520D01*
Y2561024D01*
X816929D01*
Y2540709D01*
X834646D01*
Y2474173D01*
X817461D01*
Y2470709D01*
X834646D01*
Y2404173D01*
X818898D01*
Y2381890D01*
G75*
G02*
X814283Y2370756I-15748J4D01*
G01*
X786724Y2343197D01*
G75*
G02*
X775567Y2338583I-11138J11134D01*
G01*
X582677D01*
G75*
G02*
X598425Y2322835I0J-15748D01*
G01*
Y2318898D01*
X893657D01*
G75*
G02*
X915972Y2309673I43J-31496D01*
G01*
X931720Y2293925D01*
G75*
G02*
X940945Y2271654I-22272J-22272D01*
G01*
G75*
G02*
Y2271642I-13268J-4D01*
G01*
G75*
G02*
Y2271610I-11953J-16D01*
G01*
Y1950055D01*
X960488Y1930512D01*
X1007874D01*
G75*
G02*
X1019843Y1928150I0J-31500D01*
G01*
X1165354Y1907717D02*
X1228346D01*
Y1841181D01*
X1210630D01*
Y1829724D01*
X1225394D01*
Y1768701D01*
X1105315D01*
Y1783465D01*
X1104949D01*
X1080622Y1759142D01*
G75*
G02*
X1075000Y1755524I-11138J11130D01*
G01*
Y1741142D01*
X1031496D01*
Y1724409D01*
G75*
G02*
X1024567Y1707697I-23622J0D01*
G01*
X952756Y1635886D01*
Y1389764D01*
G75*
G02*
X945827Y1373051I-23622J0D01*
G01*
X918681Y1345906D01*
G75*
G02*
X901969Y1338976I-16713J16693D01*
G01*
X884866D01*
G75*
G02*
X895728Y1312598I-26598J-26378D01*
G01*
G75*
G02*
X820807I-37461J0D01*
G01*
G75*
G02*
X831669Y1338976I37461J0D01*
G01*
X787343D01*
G75*
G02*
X720807Y1362598I-29075J23622D01*
G01*
G75*
G02*
X787343Y1386220I37461J0D01*
G01*
X828748D01*
G75*
G02*
X818681Y1412598I29520J26374D01*
G01*
G75*
G02*
X897854I39587J0D01*
G01*
G75*
G02*
X887787Y1386220I-39587J-4D01*
G01*
X892185D01*
X905512Y1399547D01*
Y1645669D01*
G75*
G02*
X912441Y1662382I23622J0D01*
G01*
X984252Y1734193D01*
Y1741142D01*
X940748D01*
Y1799409D01*
X1075000D01*
Y1798059D01*
X1087291Y1810346D01*
G75*
G02*
X1098449Y1814961I11138J-11134D01*
G01*
X1105315D01*
Y1829724D01*
X1179134D01*
Y1841181D01*
X1165354D01*
Y1907717D01*
X1030512Y1162559D02*
G75*
G02*
X1186024I77756J0D01*
G01*
G75*
G02*
X1030512I-77756J0D01*
G01*
Y1612638D02*
G75*
G02*
X1186024I77756J0D01*
G01*
G75*
G02*
X1030512I-77756J0D01*
G01*
X1080299Y1381890D02*
G75*
G02*
X1140173I29937J0D01*
G01*
G75*
G02*
X1080299I-29937J0D01*
G01*
X1085630Y1044610D02*
G75*
G02*
X1140173Y1027559I24606J-17051D01*
G01*
G75*
G02*
X1083173Y1014764I-29937J0D01*
G01*
X1074803D01*
Y681102D01*
G75*
G02*
X1070177Y669953I-15748J0D01*
G01*
X1003508Y603287D01*
G75*
G02*
X992358Y598661I-11150J11122D01*
G01*
X877953D01*
Y521220D01*
X814961D01*
Y598425D01*
X795299D01*
G75*
G02*
X784142Y603039I-20J15748D01*
G01*
X773205Y613972D01*
X739409D01*
Y612008D01*
X660669D01*
Y726181D01*
X685039D01*
Y783465D01*
X682441D01*
Y767717D01*
X615906D01*
Y830709D01*
X627520D01*
Y833984D01*
X611201Y850299D01*
G75*
G02*
X586362Y877953I2972J27654D01*
G01*
G75*
G02*
X641827Y880925I27811J0D01*
G01*
X664484Y858264D01*
G75*
G02*
X670827Y842953I-15311J-15311D01*
G01*
Y830709D01*
X682441D01*
Y814961D01*
X692913D01*
G75*
G02*
X704075Y810323I0J-15748D01*
G01*
X711898Y802500D01*
G75*
G02*
X716535Y791339I-11110J-11161D01*
G01*
Y726181D01*
X732283D01*
Y859618D01*
X725760Y866142D01*
X685063D01*
G75*
G02*
X673906Y870756I-20J15748D01*
G01*
X662094Y882567D01*
G75*
G02*
X657480Y893701I11134J11138D01*
G01*
Y913386D01*
X580472D01*
Y976378D01*
X657913D01*
Y1477992D01*
G75*
G02*
X662528Y1489126I15748J-4D01*
G01*
X723098Y1549701D01*
G75*
G02*
X746063Y1598016I35169J12898D01*
G01*
Y1786417D01*
X733268D01*
Y1843504D01*
X790354D01*
Y1786417D01*
X777559D01*
Y1766890D01*
X820866D01*
Y1786417D01*
X808071D01*
Y1843504D01*
X812988D01*
G75*
G02*
X796835Y1870079I13783J26575D01*
G01*
G75*
G02*
X856709I29937J0D01*
G01*
G75*
G02*
X840555Y1843504I-29937J0D01*
G01*
X865157D01*
Y1786417D01*
X852362D01*
Y1549591D01*
G75*
G02*
X895728Y1512598I5906J-36992D01*
G01*
G75*
G02*
X824654Y1496063I-37461J0D01*
G01*
X775102D01*
G75*
G02*
X795728Y1462598I-16835J-33465D01*
G01*
G75*
G02*
X720807I-37461J0D01*
G01*
G75*
G02*
X723689Y1477008I37457J0D01*
G01*
X708661Y1461980D01*
Y1045894D01*
X754795Y999756D01*
G75*
G02*
X759409Y988622I-11134J-11138D01*
G01*
Y976378D01*
X836850D01*
Y913386D01*
X759843D01*
Y900224D01*
X782787Y877276D01*
G75*
G02*
X787402Y866142I-11134J-11138D01*
G01*
Y692913D01*
G75*
G02*
X782787Y681780I-15748J4D01*
G01*
X766165Y665154D01*
X772803D01*
X803827Y696173D01*
G75*
G02*
X814961Y700787I11138J-11134D01*
G01*
Y777598D01*
X877953D01*
Y700157D01*
X914102D01*
X964567Y750618D01*
Y1014764D01*
X953740D01*
Y1071850D01*
X964567D01*
Y1084028D01*
X930484Y1118110D01*
X787425D01*
G75*
G02*
X776268Y1122724I-20J15748D01*
G01*
X747134Y1151858D01*
G75*
G02*
X742520Y1162992I11134J11138D01*
G01*
Y1228610D01*
G75*
G02*
X720807Y1262598I15748J33988D01*
G01*
G75*
G02*
X795728I37461J0D01*
G01*
G75*
G02*
X774016Y1228610I-37461J0D01*
G01*
Y1169516D01*
X793925Y1149606D01*
X855681D01*
X847134Y1158157D01*
G75*
G02*
X842520Y1169291I11134J11138D01*
G01*
Y1178610D01*
G75*
G02*
X820807Y1212598I15748J33988D01*
G01*
G75*
G02*
X895728I37461J0D01*
G01*
G75*
G02*
X874016Y1178610I-37461J0D01*
G01*
Y1175815D01*
X880539Y1169291D01*
X976354D01*
G75*
G02*
X987512Y1164677I20J-15748D01*
G01*
X1070189Y1082000D01*
G75*
G02*
X1074772Y1071850I-11134J-11138D01*
G01*
X1085630D01*
Y1044610D01*
X1080299Y594488D02*
G75*
G02*
X1140173I29937J0D01*
G01*
G75*
G02*
X1080299I-29937J0D01*
G01*
X1110236Y240157D02*
G75*
G02*
X1259843I74803J0D01*
G01*
G75*
G02*
X1110236I-74803J0D01*
G01*
X1080299Y830709D02*
G75*
G02*
X1140173I29937J0D01*
G01*
G75*
G02*
X1080299I-29937J0D01*
G01*
X812835Y519882D02*
X880079D01*
Y449094D01*
X812835D01*
Y457594D01*
G75*
G02*
X769276Y484252I-13622J26657D01*
G01*
G75*
G02*
X812835Y510909I29937J0D01*
G01*
Y519882D01*
X820457Y200787D02*
G75*
G02*
X880331I29937J0D01*
G01*
G75*
G02*
X820457I-29937J0D01*
G01*
X862205Y847598D02*
X877953D01*
Y781063D01*
X814961D01*
Y847598D01*
X830709D01*
Y855031D01*
G75*
G02*
X818646Y877953I15748J22921D01*
G01*
G75*
G02*
X874268I27811J0D01*
G01*
G75*
G02*
X862205Y855031I-27811J0D01*
G01*
Y847598D01*
X908976Y970043D02*
G75*
G02*
X955134Y944882I16220J-25161D01*
G01*
G75*
G02*
X908976Y919720I-29937J0D01*
G01*
Y911260D01*
X838189D01*
Y978504D01*
X908976D01*
Y970043D01*
X879512Y1736220D02*
G75*
G02*
X939386I29937J0D01*
G01*
G75*
G02*
X879512I-29937J0D01*
G01*
X816520Y1992126D02*
G75*
G02*
X876394I29937J0D01*
G01*
G75*
G02*
X816520I-29937J0D01*
G01*
Y2204724D02*
G75*
G02*
X876394I29937J0D01*
G01*
G75*
G02*
X816520I-29937J0D01*
G01*
X584236Y1870079D02*
G75*
G02*
X644110I29937J0D01*
G01*
G75*
G02*
X584236I-29937J0D01*
G01*
X666913Y1736220D02*
G75*
G02*
X726787I29937J0D01*
G01*
G75*
G02*
X666913I-29937J0D01*
G01*
X566181Y649567D02*
X568307D01*
Y609882D01*
X486319D01*
G75*
G02*
X426756Y614173I-29626J4291D01*
G01*
G75*
G02*
X433965Y633657I29937J0D01*
G01*
X369520D01*
G75*
G02*
X366823Y633858I-185J15740D01*
G01*
X303173D01*
G75*
G02*
X292016Y638472I-20J15748D01*
G01*
X248709Y681780D01*
G75*
G02*
X244094Y692913I11134J11138D01*
G01*
Y1413386D01*
G75*
G02*
X248709Y1424520I15748J-4D01*
G01*
X267213Y1443024D01*
G75*
G02*
X278370Y1447638I11138J-11134D01*
G01*
X394035D01*
G75*
G02*
X479724Y1431890I41398J-15748D01*
G01*
G75*
G02*
X394035Y1416142I-44291J0D01*
G01*
X284870D01*
X275591Y1406862D01*
Y1317547D01*
X301071Y1343024D01*
G75*
G02*
X312228Y1347638I11138J-11134D01*
G01*
X394035D01*
G75*
G02*
X479724Y1331890I41398J-15748D01*
G01*
G75*
G02*
X394035Y1316142I-44291J0D01*
G01*
X318728D01*
X295276Y1292689D01*
Y727051D01*
G75*
G02*
X331181Y735961I23622J-18390D01*
G01*
Y742087D01*
X401969D01*
Y684839D01*
X403307D01*
Y739961D01*
X413780D01*
Y1093252D01*
G75*
G02*
X391142Y1131890I21654J38638D01*
G01*
G75*
G02*
X479724I44291J0D01*
G01*
G75*
G02*
X457087Y1093252I-44291J0D01*
G01*
Y739961D01*
X469843D01*
Y724209D01*
X487441D01*
Y726181D01*
X566181D01*
Y649567D01*
X348016Y1381890D02*
G75*
G02*
X407890I29937J0D01*
G01*
G75*
G02*
X348016I-29937J0D01*
G01*
Y830709D02*
G75*
G02*
X407890I29937J0D01*
G01*
G75*
G02*
X348016I-29937J0D01*
G01*
Y1027559D02*
G75*
G02*
X407890I29937J0D01*
G01*
G75*
G02*
X348016I-29937J0D01*
G01*
X389016Y1231890D02*
G75*
G02*
X481850I46417J0D01*
G01*
G75*
G02*
X389016I-46417J0D01*
G01*
X348016Y594488D02*
G75*
G02*
X407890I29937J0D01*
G01*
G75*
G02*
X348016I-29937J0D01*
G01*
Y1783465D02*
G75*
G02*
X407890I29937J0D01*
G01*
G75*
G02*
X348016I-29937J0D01*
G01*
X391142Y1531890D02*
G75*
G02*
X479724I44291J0D01*
G01*
G75*
G02*
X391142I-44291J0D01*
G01*
Y1631890D02*
G75*
G02*
X479724I44291J0D01*
G01*
G75*
G02*
X391142I-44291J0D01*
G01*
X491142Y1176181D02*
X579724D01*
Y1087598D01*
X491142D01*
Y1176181D01*
X543780Y832835D02*
X614567D01*
Y765591D01*
X543780D01*
Y774051D01*
G75*
G02*
X497622Y799213I-16220J25161D01*
G01*
G75*
G02*
X543780Y824374I29937J0D01*
G01*
Y832835D01*
X584236Y200787D02*
G75*
G02*
X644110I29937J0D01*
G01*
G75*
G02*
X584236I-29937J0D01*
G01*
X510472Y976378D02*
X577008D01*
Y913386D01*
X559488D01*
Y900571D01*
G75*
G02*
X571118Y877953I-16181J-22618D01*
G01*
G75*
G02*
X515496I-27811J0D01*
G01*
G75*
G02*
X527992Y901165I27811J0D01*
G01*
Y913386D01*
X510472D01*
Y976378D01*
X491142Y1231890D02*
G75*
G02*
X579724I44291J0D01*
G01*
G75*
G02*
X491142I-44291J0D01*
G01*
Y1331890D02*
G75*
G02*
X579724I44291J0D01*
G01*
G75*
G02*
X491142I-44291J0D01*
G01*
Y1431890D02*
G75*
G02*
X579724I44291J0D01*
G01*
G75*
G02*
X491142I-44291J0D01*
G01*
Y1531890D02*
G75*
G02*
X579724I44291J0D01*
G01*
G75*
G02*
X491142I-44291J0D01*
G01*
X204724Y240157D02*
G75*
G02*
X354331I74803J0D01*
G01*
G75*
G02*
X204724I-74803J0D01*
G01*
Y2523622D02*
G75*
G02*
X354331I74803J0D01*
G01*
G75*
G02*
X204724I-74803J0D01*
G01*
X1110236D02*
G75*
G02*
X1259843I74803J0D01*
G01*
G75*
G02*
X1110236I-74803J0D01*
G01*
X1222012Y1979843D02*
X1230472D01*
Y1909055D01*
X1163228D01*
Y1979843D01*
X1171689D01*
G75*
G02*
X1166913Y1996063I25161J16220D01*
G01*
G75*
G02*
X1226787I29937J0D01*
G01*
G75*
G02*
X1222012Y1979843I-29937J0D01*
G01*
X1292898Y594488D02*
G75*
G02*
X1352772I29937J0D01*
G01*
G75*
G02*
X1292898I-29937J0D01*
G01*
Y830709D02*
G75*
G02*
X1352772I29937J0D01*
G01*
G75*
G02*
X1292898I-29937J0D01*
G01*
Y1027559D02*
G75*
G02*
X1352772I29937J0D01*
G01*
G75*
G02*
X1292898I-29937J0D01*
G01*
Y1381890D02*
G75*
G02*
X1352772I29937J0D01*
G01*
G75*
G02*
X1292898I-29937J0D01*
G01*
X73681Y200787D02*
G36*
X73681Y200787D02*
Y70004D01*
X109374Y34311D01*
X1355193D01*
X1390886Y70004D01*
Y200787D01*
X1248642D01*
G75*
G02*
X1121437I-63602J39370D01*
G01*
X880331D01*
G75*
G02*
X820457I-29937J0D01*
G01*
X644110D01*
G75*
G02*
X584236I-29937J0D01*
G01*
X343130D01*
G75*
G02*
X215925I-63602J39370D01*
G01*
X73681D01*
G37*
Y240157D02*
G36*
X73681Y240157D02*
Y200787D01*
X215925D01*
G75*
G02*
X204724Y240157I63606J39374D01*
G01*
X73681D01*
G37*
X354331D02*
G36*
X354331Y240157D02*
G75*
G02*
X343130Y200787I-74807J4D01*
G01*
X584236D01*
G75*
G02*
X644110I29937J0D01*
G01*
X820457D01*
G75*
G02*
X880331I29937J0D01*
G01*
X1121437D01*
G75*
G02*
X1110236Y240157I63606J39374D01*
G01*
X354331D01*
G37*
X1259843D02*
G36*
X1259843Y240157D02*
G75*
G02*
X1248642Y200787I-74807J4D01*
G01*
X1390886D01*
Y240157D01*
X1259843D01*
G37*
X73681Y484488D02*
G36*
X73681Y484488D02*
Y240157D01*
X204724D01*
G75*
G02*
X354331I74803J0D01*
G01*
X1110236D01*
G75*
G02*
X1259843I74803J0D01*
G01*
X1390886D01*
Y484488D01*
X880079D01*
Y449094D01*
X812835D01*
Y457594D01*
G75*
G02*
X769276Y484252I-13622J26657D01*
G01*
G75*
G02*
Y484488I30008J118D01*
G01*
X73681D01*
G37*
Y594488D02*
G36*
X73681Y594488D02*
Y484488D01*
X769276D01*
G75*
G02*
X812835Y510909I29937J-236D01*
G01*
Y519882D01*
X880079D01*
Y484488D01*
X1390886D01*
Y594488D01*
X1352772D01*
G75*
G02*
X1292898I-29937J0D01*
G01*
X1140173D01*
G75*
G02*
X1080299I-29937J0D01*
G01*
X877953D01*
Y521220D01*
X814961D01*
Y594488D01*
X479244D01*
G75*
G02*
X434138I-22551J19685D01*
G01*
X407890D01*
G75*
G02*
X348016I-29937J0D01*
G01*
X195291D01*
G75*
G02*
X135417I-29937J0D01*
G01*
X73681D01*
G37*
Y799213D02*
G36*
X73681Y799213D02*
Y594488D01*
X135417D01*
G75*
G02*
X195291I29937J0D01*
G01*
X348016D01*
G75*
G02*
X407890I29937J0D01*
G01*
X434138D01*
G75*
G02*
X426756Y614173I22555J19685D01*
G01*
G75*
G02*
Y614177I22559J4D01*
G01*
G75*
G02*
X433965Y633657I29925J0D01*
G01*
X369520D01*
G75*
G02*
X366823Y633858I-169J15965D01*
G01*
X303173D01*
G75*
G02*
X292016Y638472I-16J15760D01*
G01*
X248709Y681780D01*
G75*
G02*
X244094Y692913I11138J11138D01*
G01*
Y799213D01*
X73681D01*
G37*
X295276D02*
G36*
X295276Y799213D02*
Y727051D01*
G75*
G02*
X331181Y735961I23622J-18390D01*
G01*
Y742087D01*
X401969D01*
Y684839D01*
X403307D01*
Y739961D01*
X413780D01*
Y799213D01*
X295276D01*
G37*
X457087D02*
G36*
X457087Y799213D02*
Y739961D01*
X469843D01*
Y724209D01*
X487441D01*
Y726181D01*
X566181D01*
Y649567D01*
X568307D01*
Y609882D01*
X486319D01*
G75*
G02*
X479244Y594488I-29626J4295D01*
G01*
X814961D01*
Y598425D01*
X795299D01*
G75*
G02*
X784142Y603039I-16J15760D01*
G01*
X773205Y613972D01*
X739409D01*
Y612008D01*
X660669D01*
Y726181D01*
X685039D01*
Y783465D01*
X682441D01*
Y767717D01*
X615906D01*
Y799213D01*
X614567D01*
Y765591D01*
X543780D01*
Y774051D01*
G75*
G02*
X497622Y799213I-16220J25165D01*
G01*
X457087D01*
G37*
X716535Y791339D02*
G36*
X716535Y791339D02*
Y726181D01*
X732283D01*
Y799213D01*
X714425D01*
G75*
G02*
X716535Y791343I-13630J-7874D01*
G01*
G75*
G02*
Y791339I-16114J0D01*
G01*
G37*
X766165Y665154D02*
G36*
X766165Y665154D02*
X772803D01*
X803827Y696173D01*
G75*
G02*
X814961Y700787I11138J-11138D01*
G01*
Y777598D01*
X877953D01*
Y700157D01*
X914102D01*
X964567Y750618D01*
Y799213D01*
X877953D01*
Y781063D01*
X814961D01*
Y799213D01*
X787402D01*
Y692913D01*
G75*
G02*
X782787Y681780I-15752J4D01*
G01*
X766165Y665154D01*
G37*
X877953Y598661D02*
G36*
X877953Y598661D02*
Y594488D01*
X1080299D01*
G75*
G02*
X1140173I29937J0D01*
G01*
X1292898D01*
G75*
G02*
X1352772I29937J0D01*
G01*
X1390886D01*
Y799213D01*
X1074803D01*
Y681102D01*
G75*
G02*
Y681094I-18047J-4D01*
G01*
G75*
G02*
X1070177Y669953I-15732J0D01*
G01*
X1003508Y603287D01*
G75*
G02*
X992358Y598661I-11142J11106D01*
G01*
X877953D01*
G37*
X73681Y830709D02*
G36*
X73681Y830709D02*
Y799213D01*
X244094D01*
Y830709D01*
X195291D01*
G75*
G02*
X135417I-29937J0D01*
G01*
X73681D01*
G37*
X295276D02*
G36*
X295276Y830709D02*
Y799213D01*
X413780D01*
Y830709D01*
X407890D01*
G75*
G02*
X348016I-29937J0D01*
G01*
X295276D01*
G37*
X457087D02*
G36*
X457087Y830709D02*
Y799213D01*
X497622D01*
G75*
G02*
X543780Y824374I29937J0D01*
G01*
Y830709D01*
X457087D01*
G37*
X614567D02*
G36*
X614567Y830709D02*
Y799213D01*
X615906D01*
Y830709D01*
X614567D01*
G37*
X682441D02*
G36*
X682441Y830709D02*
Y814961D01*
X692913D01*
G75*
G02*
X704075Y810323I4J-15740D01*
G01*
X711898Y802500D01*
G75*
G02*
X714425Y799213I-11102J-11154D01*
G01*
X732283D01*
Y830709D01*
X682441D01*
G37*
X787402D02*
G36*
X787402Y830709D02*
Y799213D01*
X814961D01*
Y830709D01*
X787402D01*
G37*
X877953D02*
G36*
X877953Y830709D02*
Y799213D01*
X964567D01*
Y830709D01*
X877953D01*
G37*
X1074803D02*
G36*
X1074803Y830709D02*
Y799213D01*
X1390886D01*
Y830709D01*
X1352772D01*
G75*
G02*
X1292898I-29937J0D01*
G01*
X1140173D01*
G75*
G02*
X1080299I-29937J0D01*
G01*
X1074803D01*
G37*
X73681Y944882D02*
G36*
X73681Y944882D02*
Y830709D01*
X135417D01*
G75*
G02*
X195291I29937J0D01*
G01*
X244094D01*
Y944882D01*
X73681D01*
G37*
X295276D02*
G36*
X295276Y944882D02*
Y830709D01*
X348016D01*
G75*
G02*
X407890I29937J0D01*
G01*
X413780D01*
Y944882D01*
X295276D01*
G37*
X457087D02*
G36*
X457087Y944882D02*
Y830709D01*
X543780D01*
Y832835D01*
X614567D01*
Y830709D01*
X615906D01*
X627520D01*
Y833984D01*
X611201Y850299D01*
G75*
G02*
X586362Y877953I2972J27654D01*
G01*
G75*
G02*
X641827Y880925I27811J0D01*
G01*
X664484Y858264D01*
G75*
G02*
X670827Y842953I-15319J-15315D01*
G01*
Y830709D01*
X682441D01*
X732283D01*
Y859618D01*
X725760Y866142D01*
X685063D01*
G75*
G02*
X673906Y870756I-16J15760D01*
G01*
X662094Y882567D01*
G75*
G02*
X657480Y893701I11138J11138D01*
G01*
Y913386D01*
X580472D01*
Y944882D01*
X577008D01*
Y913386D01*
X559488D01*
Y900571D01*
G75*
G02*
X571118Y877953I-16185J-22622D01*
G01*
G75*
G02*
X515496I-27811J0D01*
G01*
G75*
G02*
X527992Y901165I27811J0D01*
G01*
Y913386D01*
X510472D01*
Y944882D01*
X457087D01*
G37*
X759843Y913386D02*
G36*
X759843Y913386D02*
Y900224D01*
X782787Y877276D01*
G75*
G02*
X787402Y866142I-11138J-11138D01*
G01*
Y830709D01*
X814961D01*
Y847598D01*
X830709D01*
Y855031D01*
G75*
G02*
X818646Y877953I15760J22929D01*
G01*
G75*
G02*
X874268I27811J0D01*
G01*
G75*
G02*
X862205Y855031I-27823J8D01*
G01*
Y847598D01*
X877953D01*
Y830709D01*
X964567D01*
Y944882D01*
X955134D01*
G75*
G02*
X908976Y919720I-29937J0D01*
G01*
Y911260D01*
X838189D01*
Y944882D01*
X836850D01*
Y913386D01*
X759843D01*
G37*
X1074803Y944882D02*
G36*
X1074803Y944882D02*
Y830709D01*
X1080299D01*
G75*
G02*
X1140173I29937J0D01*
G01*
X1292898D01*
G75*
G02*
X1352772I29937J0D01*
G01*
X1390886D01*
Y944882D01*
X1074803D01*
G37*
X73681Y1027559D02*
G36*
X73681Y1027559D02*
Y944882D01*
X244094D01*
Y1027559D01*
X195291D01*
G75*
G02*
X135417I-29937J0D01*
G01*
X73681D01*
G37*
X295276D02*
G36*
X295276Y1027559D02*
Y944882D01*
X413780D01*
Y1027559D01*
X407890D01*
G75*
G02*
X348016I-29937J0D01*
G01*
X295276D01*
G37*
X457087D02*
G36*
X457087Y1027559D02*
Y944882D01*
X510472D01*
Y976378D01*
X577008D01*
Y944882D01*
X580472D01*
Y976378D01*
X657913D01*
Y1027559D01*
X457087D01*
G37*
X726996D02*
G36*
X726996Y1027559D02*
X754795Y999756D01*
G75*
G02*
X759409Y988622I-11138J-11138D01*
G01*
Y976378D01*
X836850D01*
Y944882D01*
X838189D01*
Y978504D01*
X908976D01*
Y970043D01*
G75*
G02*
X955134Y944882I16220J-25165D01*
G01*
X964567D01*
Y1014764D01*
X953740D01*
Y1027559D01*
X726996D01*
G37*
X1074803Y1014764D02*
G36*
X1074803Y1014764D02*
Y944882D01*
X1390886D01*
Y1027559D01*
X1352772D01*
G75*
G02*
X1292898I-29937J0D01*
G01*
X1140173D01*
G75*
G02*
X1083173Y1014764I-29937J0D01*
G01*
X1074803D01*
G37*
X73681Y1162559D02*
G36*
X73681Y1162559D02*
Y1027559D01*
X135417D01*
G75*
G02*
X195291I29937J0D01*
G01*
X244094D01*
Y1162559D01*
X73681D01*
G37*
X295276D02*
G36*
X295276Y1162559D02*
Y1027559D01*
X348016D01*
G75*
G02*
X407890I29937J0D01*
G01*
X413780D01*
Y1093252D01*
G75*
G02*
X391142Y1131886I21650J38634D01*
G01*
G75*
G02*
Y1131890I75193J4D01*
G01*
G75*
G02*
X403476Y1162559I44291J0D01*
G01*
X295276D01*
G37*
X457087Y1093252D02*
G36*
X457087Y1093252D02*
Y1027559D01*
X657913D01*
Y1162559D01*
X579724D01*
Y1087598D01*
X491142D01*
Y1162559D01*
X467390D01*
G75*
G02*
X479724Y1131890I-31957J-30669D01*
G01*
G75*
G02*
Y1131886I-75193J0D01*
G01*
G75*
G02*
X457087Y1093252I-44287J0D01*
G01*
G37*
X708661Y1162559D02*
G36*
X708661Y1162559D02*
Y1045894D01*
X726996Y1027559D01*
X953740D01*
Y1071850D01*
X964567D01*
Y1084028D01*
X930484Y1118110D01*
X787425D01*
G75*
G02*
X776268Y1122724I-16J15760D01*
G01*
X747134Y1151858D01*
G75*
G02*
X742528Y1162559I11138J11138D01*
G01*
X708661D01*
G37*
X780972D02*
G36*
X780972Y1162559D02*
X793925Y1149606D01*
X855681D01*
X847134Y1158157D01*
G75*
G02*
X844031Y1162559I11138J11142D01*
G01*
X780972D01*
G37*
X1030512D02*
G36*
X1030512Y1162559D02*
X989630D01*
X1070189Y1082000D01*
G75*
G02*
X1074772Y1071850I-11114J-11130D01*
G01*
X1085630D01*
Y1044610D01*
G75*
G02*
X1140173Y1027563I24606J-17047D01*
G01*
G75*
G02*
Y1027559I-56394J0D01*
G01*
X1292898D01*
G75*
G02*
X1352772I29937J0D01*
G01*
X1390886D01*
Y1162559D01*
X1186024D01*
G75*
G02*
X1030512I-77756J0D01*
G01*
G37*
X73681Y1231890D02*
G36*
X73681Y1231890D02*
Y1162559D01*
X244094D01*
Y1231890D01*
X73681D01*
G37*
X295276D02*
G36*
X295276Y1231890D02*
Y1162559D01*
X403476D01*
G75*
G02*
X467390I31957J-30669D01*
G01*
X491142D01*
Y1176181D01*
X579724D01*
Y1162559D01*
X657913D01*
Y1231890D01*
X579724D01*
G75*
G02*
X491142I-44291J0D01*
G01*
X481850D01*
G75*
G02*
X389016I-46417J0D01*
G01*
X295276D01*
G37*
X708661D02*
G36*
X708661Y1231890D02*
Y1162559D01*
X742528D01*
G75*
G02*
X742520Y1162992I15748J504D01*
G01*
Y1228610D01*
G75*
G02*
X736815Y1231890I15740J33984D01*
G01*
X708661D01*
G37*
X774016Y1228610D02*
G36*
X774016Y1228610D02*
Y1169516D01*
X780972Y1162559D01*
X844031D01*
G75*
G02*
X842520Y1169291I14236J6732D01*
G01*
Y1178610D01*
G75*
G02*
X820807Y1212594I15740J33984D01*
G01*
G75*
G02*
Y1212598I37594J4D01*
G01*
G75*
G02*
X826157Y1231890I37461J-4D01*
G01*
X779720D01*
G75*
G02*
X774016Y1228610I-21445J30705D01*
G01*
G37*
X874016Y1178610D02*
G36*
X874016Y1178610D02*
Y1175815D01*
X880539Y1169291D01*
X976354D01*
G75*
G02*
X987512Y1164677I16J-15760D01*
G01*
X989630Y1162559D01*
X1030512D01*
G75*
G02*
X1073067Y1231890I77756J-4D01*
G01*
X890378D01*
G75*
G02*
X895728Y1212598I-32110J-19295D01*
G01*
G75*
G02*
Y1212594I-37594J0D01*
G01*
G75*
G02*
X874016Y1178610I-37453J0D01*
G01*
G37*
X1143469Y1231890D02*
G36*
X1143469Y1231890D02*
G75*
G02*
X1186024Y1162559I-35201J-69335D01*
G01*
X1390886D01*
Y1231890D01*
X1143469D01*
G37*
X73681Y1331890D02*
G36*
X73681Y1331890D02*
Y1231890D01*
X244094D01*
Y1331890D01*
X73681D01*
G37*
X275591D02*
G36*
X275591Y1331890D02*
Y1317547D01*
X289937Y1331890D01*
X275591D01*
G37*
X295276Y1292689D02*
G36*
X295276Y1292689D02*
Y1231890D01*
X389016D01*
G75*
G02*
X481850I46417J0D01*
G01*
X491142D01*
G75*
G02*
X579724I44291J0D01*
G01*
X657913D01*
Y1331890D01*
X579724D01*
G75*
G02*
X491142I-44291J0D01*
G01*
X479724D01*
G75*
G02*
X394035Y1316142I-44291J0D01*
G01*
X318728D01*
X295276Y1292689D01*
G37*
X708661Y1331890D02*
G36*
X708661Y1331890D02*
Y1231890D01*
X736815D01*
G75*
G02*
X720807Y1262594I21445J30705D01*
G01*
G75*
G02*
Y1262598I37594J4D01*
G01*
G75*
G02*
X795728I37461J0D01*
G01*
G75*
G02*
Y1262594I-37594J0D01*
G01*
G75*
G02*
X779720Y1231890I-37453J0D01*
G01*
X826157D01*
G75*
G02*
X890378I32110J-19291D01*
G01*
X1073067D01*
G75*
G02*
X1143469I35201J-69327D01*
G01*
X1390886D01*
Y1331890D01*
X890378D01*
G75*
G02*
X895728Y1312598I-32118J-19295D01*
G01*
G75*
G02*
X820807I-37461J0D01*
G01*
G75*
G02*
X826157Y1331890I37469J-4D01*
G01*
X779724D01*
G75*
G02*
X736811I-21457J30709D01*
G01*
X708661D01*
G37*
X73681Y1381890D02*
G36*
X73681Y1381890D02*
Y1331890D01*
X244094D01*
Y1381890D01*
X195291D01*
G75*
G02*
X135417I-29937J0D01*
G01*
X73681D01*
G37*
X275591D02*
G36*
X275591Y1381890D02*
Y1331890D01*
X289937D01*
X301071Y1343024D01*
G75*
G02*
X312228Y1347638I11142J-11146D01*
G01*
X394035D01*
G75*
G02*
X479724Y1331890I41398J-15748D01*
G01*
X491142D01*
G75*
G02*
X579724I44291J0D01*
G01*
X657913D01*
Y1381890D01*
X407890D01*
G75*
G02*
X348016I-29937J0D01*
G01*
X275591D01*
G37*
X708661D02*
G36*
X708661Y1381890D02*
Y1331890D01*
X736811D01*
G75*
G02*
X720807Y1362598I21457J30709D01*
G01*
G75*
G02*
X726157Y1381890I37465J-4D01*
G01*
X708661D01*
G37*
X787343Y1338976D02*
G36*
X787343Y1338976D02*
G75*
G02*
X779724Y1331890I-29075J23618D01*
G01*
X826157D01*
G75*
G02*
X831669Y1338976I32118J-19295D01*
G01*
X787343D01*
G37*
X884866D02*
G36*
X884866Y1338976D02*
G75*
G02*
X890378Y1331890I-26606J-26382D01*
G01*
X1390886D01*
Y1381890D01*
X1352772D01*
G75*
G02*
X1292898I-29937J0D01*
G01*
X1140173D01*
G75*
G02*
X1080299I-29937J0D01*
G01*
X951406D01*
G75*
G02*
X945827Y1373051I-22244J7862D01*
G01*
X918681Y1345906D01*
G75*
G02*
X901969Y1338976I-16720J16709D01*
G01*
X884866D01*
G37*
X73681Y1431890D02*
G36*
X73681Y1431890D02*
Y1381890D01*
X135417D01*
G75*
G02*
X195291I29937J0D01*
G01*
X244094D01*
Y1413386D01*
G75*
G02*
X248709Y1424520I15752J-4D01*
G01*
X256079Y1431890D01*
X73681D01*
G37*
X275591Y1406862D02*
G36*
X275591Y1406862D02*
Y1381890D01*
X348016D01*
G75*
G02*
X407890I29937J0D01*
G01*
X657913D01*
Y1431890D01*
X579724D01*
G75*
G02*
X491142I-44291J0D01*
G01*
X479724D01*
G75*
G02*
X394035Y1416142I-44291J0D01*
G01*
X284870D01*
X275591Y1406862D01*
G37*
X708661Y1431890D02*
G36*
X708661Y1431890D02*
Y1381890D01*
X726157D01*
G75*
G02*
X787343Y1386220I32110J-19291D01*
G01*
X828748D01*
G75*
G02*
X818681Y1412598I29524J26378D01*
G01*
G75*
G02*
X823701Y1431890I39587J-4D01*
G01*
X779720D01*
G75*
G02*
X736815I-21453J30709D01*
G01*
X708661D01*
G37*
X887787Y1386220D02*
G36*
X887787Y1386220D02*
X892185D01*
X905512Y1399547D01*
Y1431890D01*
X892835D01*
G75*
G02*
X897854Y1412598I-34567J-19295D01*
G01*
G75*
G02*
X887787Y1386220I-39591J0D01*
G01*
G37*
X952756Y1431890D02*
G36*
X952756Y1431890D02*
Y1389764D01*
G75*
G02*
Y1389752I-27067J-4D01*
G01*
G75*
G02*
X951406Y1381890I-23591J4D01*
G01*
X1080299D01*
G75*
G02*
X1140173I29937J0D01*
G01*
X1292898D01*
G75*
G02*
X1352772I29937J0D01*
G01*
X1390886D01*
Y1431890D01*
X952756D01*
G37*
X73681Y1531890D02*
G36*
X73681Y1531890D02*
Y1431890D01*
X256079D01*
X267213Y1443024D01*
G75*
G02*
X278370Y1447638I11142J-11146D01*
G01*
X394035D01*
G75*
G02*
X479724Y1431890I41398J-15748D01*
G01*
X491142D01*
G75*
G02*
X579724I44291J0D01*
G01*
X657913D01*
Y1477992D01*
G75*
G02*
X662528Y1489126I15752J-4D01*
G01*
X705287Y1531890D01*
X579724D01*
G75*
G02*
X491142I-44291J0D01*
G01*
X479724D01*
G75*
G02*
X391142I-44291J0D01*
G01*
X73681D01*
G37*
X708661Y1461980D02*
G36*
X708661Y1461980D02*
Y1431890D01*
X736815D01*
G75*
G02*
X720807Y1462598I21453J30709D01*
G01*
G75*
G02*
X723689Y1477008I37516J-12D01*
G01*
X708661Y1461980D01*
G37*
X795728Y1462598D02*
G36*
X795728Y1462598D02*
G75*
G02*
X779720Y1431890I-37461J0D01*
G01*
X823701D01*
G75*
G02*
X892835I34567J-19291D01*
G01*
X905512D01*
Y1531890D01*
X890378D01*
G75*
G02*
X895728Y1512598I-32110J-19295D01*
G01*
G75*
G02*
Y1512594I-75193J0D01*
G01*
G75*
G02*
X824654Y1496063I-37461J0D01*
G01*
X775102D01*
G75*
G02*
X795728Y1462598I-16839J-33469D01*
G01*
G37*
X952756Y1531890D02*
G36*
X952756Y1531890D02*
Y1431890D01*
X1390886D01*
Y1531890D01*
X952756D01*
G37*
X73681Y1612638D02*
G36*
X73681Y1612638D02*
Y1531890D01*
X391142D01*
G75*
G02*
X479724I44291J0D01*
G01*
X491142D01*
G75*
G02*
X579724I44291J0D01*
G01*
X705287D01*
X723098Y1549701D01*
G75*
G02*
X720807Y1562602I35165J12902D01*
G01*
G75*
G02*
X746063Y1598016I37457J0D01*
G01*
Y1612638D01*
X575323D01*
G75*
G02*
X495543I-39890J19252D01*
G01*
X475323D01*
G75*
G02*
X395543I-39890J19252D01*
G01*
X73681D01*
G37*
X852362D02*
G36*
X852362Y1612638D02*
Y1549591D01*
G75*
G02*
X890378Y1531890I5906J-36992D01*
G01*
X905512D01*
Y1612638D01*
X852362D01*
G37*
X952756D02*
G36*
X952756Y1612638D02*
Y1531890D01*
X1390886D01*
Y1612638D01*
X1186024D01*
G75*
G02*
X1030512I-77756J0D01*
G01*
X952756D01*
G37*
X73681Y1736220D02*
G36*
X73681Y1736220D02*
Y1612638D01*
X395543D01*
G75*
G02*
X391142Y1631890I39890J19248D01*
G01*
G75*
G02*
X479724I44291J0D01*
G01*
G75*
G02*
X475323Y1612638I-44291J-4D01*
G01*
X495543D01*
G75*
G02*
X491142Y1631890I39890J19248D01*
G01*
G75*
G02*
Y1631894I45114J4D01*
G01*
G75*
G02*
X503937Y1663031I44283J0D01*
G01*
Y1736220D01*
X195291D01*
G75*
G02*
X135417I-29937J0D01*
G01*
X73681D01*
G37*
X566929D02*
G36*
X566929Y1736220D02*
Y1663031D01*
G75*
G02*
X579724Y1631894I-31488J-31138D01*
G01*
G75*
G02*
Y1631890I-45114J0D01*
G01*
G75*
G02*
X575323Y1612638I-44291J-4D01*
G01*
X746063D01*
Y1736220D01*
X726787D01*
G75*
G02*
X666913I-29937J0D01*
G01*
X566929D01*
G37*
X852362D02*
G36*
X852362Y1736220D02*
Y1612638D01*
X905512D01*
Y1645669D01*
G75*
G02*
Y1645681I27067J8D01*
G01*
G75*
G02*
X912441Y1662382I23594J0D01*
G01*
X984252Y1734193D01*
Y1736220D01*
X939386D01*
G75*
G02*
X879512I-29937J0D01*
G01*
X852362D01*
G37*
X952756Y1635886D02*
G36*
X952756Y1635886D02*
Y1612638D01*
X1030512D01*
G75*
G02*
X1186024I77756J0D01*
G01*
X1390886D01*
Y1736220D01*
X1031496D01*
Y1724409D01*
G75*
G02*
Y1724398I-27067J-4D01*
G01*
G75*
G02*
X1024567Y1707697I-23594J0D01*
G01*
X952756Y1635886D01*
G37*
X73681Y1783465D02*
G36*
X73681Y1783465D02*
Y1736220D01*
X135417D01*
G75*
G02*
X195291I29937J0D01*
G01*
X503937D01*
Y1783465D01*
X407890D01*
G75*
G02*
X348016I-29937J0D01*
G01*
X73681D01*
G37*
X566929D02*
G36*
X566929Y1783465D02*
Y1736220D01*
X666913D01*
G75*
G02*
X726787I29937J0D01*
G01*
X746063D01*
Y1783465D01*
X566929D01*
G37*
X777559D02*
G36*
X777559Y1783465D02*
Y1766890D01*
X820866D01*
Y1783465D01*
X777559D01*
G37*
X852362D02*
G36*
X852362Y1783465D02*
Y1736220D01*
X879512D01*
G75*
G02*
X939386I29937J0D01*
G01*
X984252D01*
Y1741142D01*
X940748D01*
Y1783465D01*
X852362D01*
G37*
X1031496Y1741142D02*
G36*
X1031496Y1741142D02*
Y1736220D01*
X1390886D01*
Y1783465D01*
X1225394D01*
Y1768701D01*
X1105315D01*
Y1783465D01*
X1104949D01*
X1080622Y1759142D01*
G75*
G02*
X1075000Y1755524I-11169J11177D01*
G01*
Y1741142D01*
X1031496D01*
G37*
X73681Y1870079D02*
G36*
X73681Y1870079D02*
Y1783465D01*
X348016D01*
G75*
G02*
X407890I29937J0D01*
G01*
X503937D01*
Y1830709D01*
X232307D01*
G75*
G02*
X221150Y1835323I-16J15760D01*
G01*
X193591Y1862882D01*
G75*
G02*
X189476Y1870079I11138J11142D01*
G01*
X73681D01*
G37*
X566929D02*
G36*
X566929Y1870079D02*
Y1783465D01*
X746063D01*
Y1786417D01*
X733268D01*
Y1843504D01*
X790354D01*
Y1786417D01*
X777559D01*
Y1783465D01*
X820866D01*
Y1786417D01*
X808071D01*
Y1843504D01*
X812988D01*
G75*
G02*
X796835Y1870075I13776J26571D01*
G01*
G75*
G02*
Y1870079I22559J4D01*
G01*
X644110D01*
G75*
G02*
X584236I-29937J0D01*
G01*
X566929D01*
G37*
X852362Y1786417D02*
G36*
X852362Y1786417D02*
Y1783465D01*
X940748D01*
Y1799409D01*
X1075000D01*
Y1798059D01*
X1087291Y1810346D01*
G75*
G02*
X1098449Y1814961I11142J-11146D01*
G01*
X1105315D01*
Y1829724D01*
X1179134D01*
Y1841181D01*
X1165354D01*
Y1870079D01*
X1075000D01*
Y1869882D01*
X1019843D01*
G75*
G02*
X1007874Y1867520I-11953J29067D01*
G01*
X947441D01*
G75*
G02*
X935008Y1870079I4J31504D01*
G01*
X856709D01*
G75*
G02*
Y1870075I-22559J0D01*
G01*
G75*
G02*
X840555Y1843504I-29929J0D01*
G01*
X865157D01*
Y1786417D01*
X852362D01*
G37*
X1210630Y1841181D02*
G36*
X1210630Y1841181D02*
Y1829724D01*
X1225394D01*
Y1783465D01*
X1390886D01*
Y1870079D01*
X1228346D01*
Y1841181D01*
X1210630D01*
G37*
X73681Y1992126D02*
G36*
X73681Y1992126D02*
Y1870079D01*
X189476D01*
G75*
G02*
X188976Y1874016I15252J3937D01*
G01*
Y1992126D01*
X73681D01*
G37*
X566929Y1917323D02*
G36*
X566929Y1917323D02*
Y1870079D01*
X584236D01*
G75*
G02*
X644110I29937J0D01*
G01*
X796835D01*
G75*
G02*
X856709I29937J0D01*
G01*
X935008D01*
G75*
G02*
X925142Y1876772I12437J28953D01*
G01*
X887205Y1914709D01*
G75*
G02*
X877953Y1937008I22256J22303D01*
G01*
Y1992126D01*
X876394D01*
G75*
G02*
X816520I-29937J0D01*
G01*
X814961D01*
Y1933071D01*
G75*
G02*
X799213Y1917323I-15748J0D01*
G01*
X566929D01*
G37*
X940945Y1992126D02*
G36*
X940945Y1992126D02*
Y1950055D01*
X960488Y1930512D01*
X1007874D01*
G75*
G02*
X1019843Y1928150I16J-31429D01*
G01*
X1075000D01*
Y1870079D01*
X1165354D01*
Y1907717D01*
X1228346D01*
Y1870079D01*
X1390886D01*
Y1992126D01*
X1226528D01*
G75*
G02*
X1222012Y1979843I-29724J3957D01*
G01*
X1230472D01*
Y1909055D01*
X1163228D01*
Y1979843D01*
X1171689D01*
G75*
G02*
X1167173Y1992126I25209J16240D01*
G01*
X940945D01*
G37*
X73681Y2204724D02*
G36*
X73681Y2204724D02*
Y1992126D01*
X188976D01*
Y2204724D01*
X73681D01*
G37*
X592618Y2094488D02*
G36*
X592618Y2094488D02*
Y2051740D01*
G75*
G02*
X594488Y2053008I9555J-12083D01*
G01*
Y2056102D01*
X807087D01*
Y2053008D01*
G75*
G02*
X814961Y2039370I-7874J-13638D01*
G01*
Y1992126D01*
X816520D01*
G75*
G02*
X876394I29937J0D01*
G01*
X877953D01*
Y2204724D01*
X876394D01*
G75*
G02*
X816520I-29937J0D01*
G01*
X814961D01*
Y2110236D01*
G75*
G02*
X799213Y2094488I-15748J0D01*
G01*
X592618D01*
G37*
X940945Y2204724D02*
G36*
X940945Y2204724D02*
Y1992126D01*
X1167173D01*
G75*
G02*
X1166913Y1996063I29728J3941D01*
G01*
G75*
G02*
X1226787I29937J0D01*
G01*
G75*
G02*
X1226528Y1992126I-29988J4D01*
G01*
X1390886D01*
Y2204724D01*
X940945D01*
G37*
X73681Y2523622D02*
G36*
X73681Y2523622D02*
Y2204724D01*
X188976D01*
Y2314961D01*
G75*
G02*
X193591Y2326094I15752J-4D01*
G01*
X232961Y2365465D01*
G75*
G02*
X244118Y2370079I11142J-11146D01*
G01*
X638862D01*
G75*
G02*
X631484Y2389764I22567J19681D01*
G01*
G75*
G02*
X634118Y2402047I29941J4D01*
G01*
X627795D01*
Y2472835D01*
X695039D01*
Y2402047D01*
X688717D01*
G75*
G02*
X691350Y2389764I-27307J-12280D01*
G01*
G75*
G02*
X683972Y2370079I-29945J-4D01*
G01*
X769067D01*
X787402Y2388413D01*
Y2404173D01*
X771654D01*
Y2470709D01*
X788839D01*
Y2474173D01*
X771654D01*
Y2523622D01*
X692913D01*
Y2474173D01*
X629921D01*
Y2523622D01*
X354331D01*
G75*
G02*
X204724I-74803J0D01*
G01*
X73681D01*
G37*
X462697Y2232283D02*
G36*
X462697Y2232283D02*
Y2223299D01*
G75*
G02*
X468504Y2224409I5799J-14598D01*
G01*
X799213D01*
G75*
G02*
X814961Y2208661I0J-15748D01*
G01*
Y2204724D01*
X816520D01*
G75*
G02*
X876394I29937J0D01*
G01*
X877953D01*
Y2255906D01*
X598425D01*
Y2248031D01*
G75*
G02*
X582677Y2232283I-15748J0D01*
G01*
X462697D01*
G37*
X598425Y2322835D02*
G36*
X598425Y2322835D02*
Y2318898D01*
X893657D01*
G75*
G02*
X915972Y2309673I35J-31516D01*
G01*
X931720Y2293925D01*
G75*
G02*
X940945Y2271657I-22268J-22268D01*
G01*
G75*
G02*
Y2271654I-56394J0D01*
G01*
Y2271642D01*
Y2271610D01*
Y2204724D01*
X1390886D01*
Y2523622D01*
X1259843D01*
G75*
G02*
X1110236I-74803J0D01*
G01*
X834646D01*
Y2474173D01*
X817461D01*
Y2470709D01*
X834646D01*
Y2404173D01*
X818898D01*
Y2381890D01*
G75*
G02*
X814283Y2370756I-15752J4D01*
G01*
X786724Y2343197D01*
G75*
G02*
X775567Y2338583I-11142J11146D01*
G01*
X582677D01*
G75*
G02*
X598425Y2322835I0J-15748D01*
G01*
G37*
X73681Y2693776D02*
G36*
X73681Y2693776D02*
Y2523622D01*
X204724D01*
G75*
G02*
X354331I74803J0D01*
G01*
X629921D01*
Y2540709D01*
X645669D01*
Y2561024D01*
X622047D01*
Y2643701D01*
X704724D01*
Y2606299D01*
X759843D01*
Y2643701D01*
X842520D01*
Y2561024D01*
X816929D01*
Y2540709D01*
X834646D01*
Y2523622D01*
X1110236D01*
G75*
G02*
X1259843I74803J0D01*
G01*
X1390886D01*
Y2693776D01*
X1355193Y2729469D01*
X109374D01*
X73681Y2693776D01*
G37*
X677165Y2561024D02*
G36*
X677165Y2561024D02*
Y2540709D01*
X692913D01*
Y2523622D01*
X771654D01*
Y2540709D01*
X785433D01*
Y2561024D01*
X761811D01*
Y2547244D01*
X702756D01*
Y2561024D01*
X677165D01*
G37*
X220472Y2308437D02*
Y1880539D01*
X238807Y1862205D01*
X386894D01*
G75*
G02*
X385201Y1899449I22555J19685D01*
G01*
X373622D01*
Y1966693D01*
X379921D01*
Y2037402D01*
X425197D01*
Y2062835D01*
X415197D01*
Y2064961D01*
X379921D01*
Y2083827D01*
G75*
G02*
X374693Y2087291I5909J14594D01*
G01*
X371417Y2090563D01*
Y2086614D01*
X353898D01*
Y2082677D01*
X371417D01*
Y2019685D01*
X353898D01*
Y1964567D01*
X372283D01*
Y1901575D01*
X305748D01*
Y1964567D01*
X322402D01*
Y2019685D01*
X304882D01*
Y2082677D01*
X322402D01*
Y2086614D01*
X304882D01*
Y2149606D01*
X371417D01*
Y2129866D01*
G75*
G02*
X379921Y2126469I-1339J-15693D01*
G01*
Y2135827D01*
X389764D01*
Y2155157D01*
X379823D01*
Y2233472D01*
G75*
G02*
X370079Y2248031I6004J14559D01*
G01*
Y2273346D01*
X299555D01*
X283465Y2257256D01*
Y2149606D01*
X301417D01*
Y2086614D01*
X283465D01*
Y2082677D01*
X301417D01*
Y2019685D01*
X234882D01*
Y2082677D01*
X251969D01*
Y2086614D01*
X234882D01*
Y2149606D01*
X251969D01*
Y2263780D01*
G75*
G02*
X256583Y2274913I15748J-4D01*
G01*
X281898Y2300228D01*
G75*
G02*
X293055Y2304843I11138J-11134D01*
G01*
X370079D01*
Y2322835D01*
G75*
G02*
X385827Y2338583I15748J0D01*
G01*
X250618D01*
X220472Y2308437D01*
G36*
X220472Y2308437D02*
Y1880539D01*
X238807Y1862205D01*
X386894D01*
G75*
G02*
X385201Y1899449I22555J19685D01*
G01*
X373622D01*
Y1966693D01*
X379921D01*
Y2037402D01*
X425197D01*
Y2062835D01*
X415197D01*
Y2064961D01*
X379921D01*
Y2083827D01*
G75*
G02*
X374693Y2087291I5909J14594D01*
G01*
X371417Y2090563D01*
Y2086614D01*
X353898D01*
Y2082677D01*
X371417D01*
Y2019685D01*
X353898D01*
Y1964567D01*
X372283D01*
Y1901575D01*
X305748D01*
Y1964567D01*
X322402D01*
Y2019685D01*
X304882D01*
Y2082677D01*
X322402D01*
Y2086614D01*
X304882D01*
Y2149606D01*
X371417D01*
Y2129866D01*
G75*
G02*
X379921Y2126469I-1339J-15693D01*
G01*
Y2135827D01*
X389764D01*
Y2155157D01*
X379823D01*
Y2233472D01*
G75*
G02*
X370079Y2248031I6004J14559D01*
G01*
Y2273346D01*
X299555D01*
X283465Y2257256D01*
Y2149606D01*
X301417D01*
Y2086614D01*
X283465D01*
Y2082677D01*
X301417D01*
Y2019685D01*
X234882D01*
Y2082677D01*
X251969D01*
Y2086614D01*
X234882D01*
Y2149606D01*
X251969D01*
Y2263780D01*
G75*
G02*
X256583Y2274913I15748J-4D01*
G01*
X281898Y2300228D01*
G75*
G02*
X293055Y2304843I11138J-11134D01*
G01*
X370079D01*
Y2322835D01*
G75*
G02*
X385827Y2338583I15748J0D01*
G01*
X250618D01*
X220472Y2308437D01*
G37*
X338150Y2051181D02*
Y1933937D01*
X339016Y1933071D01*
X338150Y2118110D02*
Y2051181D01*
Y2118110D02*
Y2114173D01*
X370079D01*
X385827Y2098425D01*
X401575D01*
X403543Y2100394D01*
X366575Y708461D02*
X319098D01*
X318898Y708661D01*
X385827Y2322835D02*
Y2248031D01*
X582677D01*
Y2322835D01*
X385827D01*
G36*
X385827Y2322835D02*
Y2248031D01*
X582677D01*
Y2322835D01*
X385827D01*
G37*
X389764Y2224409D02*
Y2135827D01*
X427165D01*
Y2064961D01*
X425197D01*
Y2037402D01*
X427165D01*
Y2035433D01*
X454150D01*
G75*
G02*
X454724Y2035917I10461J-11831D01*
G01*
Y2037402D01*
X456945D01*
G75*
G02*
X464567Y2039370I7622J-13776D01*
G01*
X492126D01*
G75*
G02*
X499752Y2037402I0J-15752D01*
G01*
X501969D01*
Y2035917D01*
G75*
G02*
X502543Y2035433I-9886J-12315D01*
G01*
X515748D01*
Y2019685D01*
X586614D01*
Y2086614D01*
X515748D01*
Y2062992D01*
X506480D01*
G75*
G02*
X496063Y2059055I-10417J11811D01*
G01*
X468504D01*
G75*
G02*
X458087Y2062992I0J15748D01*
G01*
X452756D01*
Y2224409D01*
X389764D01*
G36*
X389764Y2224409D02*
Y2135827D01*
X427165D01*
Y2064961D01*
X425197D01*
Y2037402D01*
X427165D01*
Y2035433D01*
X454150D01*
G75*
G02*
X454724Y2035917I10461J-11831D01*
G01*
Y2037402D01*
X456945D01*
G75*
G02*
X464567Y2039370I7622J-13776D01*
G01*
X492126D01*
G75*
G02*
X499752Y2037402I0J-15752D01*
G01*
X501969D01*
Y2035917D01*
G75*
G02*
X502543Y2035433I-9886J-12315D01*
G01*
X515748D01*
Y2019685D01*
X586614D01*
Y2086614D01*
X515748D01*
Y2062992D01*
X506480D01*
G75*
G02*
X496063Y2059055I-10417J11811D01*
G01*
X468504D01*
G75*
G02*
X458087Y2062992I0J15748D01*
G01*
X452756D01*
Y2224409D01*
X389764D01*
G37*
X403543Y2001969D02*
X478346D01*
X409449Y1881890D02*
Y1932638D01*
X409016Y1933071D01*
X421260Y2289094D02*
X293031D01*
X267717Y2263780D01*
Y2051614D01*
X268150Y2051181D01*
X427165Y1986220D02*
Y1966693D01*
X444409D01*
Y1899449D01*
X433697D01*
G75*
G02*
X432004Y1862205I-24248J-17559D01*
G01*
X503937D01*
Y1917323D01*
X464567D01*
G75*
G02*
X448819Y1933071I0J15748D01*
G01*
Y1986220D01*
X427165D01*
G36*
X427165Y1986220D02*
Y1966693D01*
X444409D01*
Y1899449D01*
X433697D01*
G75*
G02*
X432004Y1862205I-24248J-17559D01*
G01*
X503937D01*
Y1917323D01*
X464567D01*
G75*
G02*
X448819Y1933071I0J15748D01*
G01*
Y1986220D01*
X427165D01*
G37*
X468504Y2208661D02*
Y2074803D01*
X496063D01*
Y2110236D01*
X799213D01*
Y2208661D01*
X468504D01*
G36*
X468504Y2208661D02*
Y2074803D01*
X496063D01*
Y2110236D01*
X799213D01*
Y2208661D01*
X468504D01*
G37*
X526815Y629720D02*
X472240D01*
X456693Y614173D01*
X526815Y649406D02*
X369335D01*
X369134Y649606D01*
X303150D01*
X259843Y692913D01*
Y1413386D01*
X278346Y1431890D01*
X435433D01*
X526815Y688776D02*
X487445D01*
X467760Y669091D01*
X311224D01*
X279528Y700787D01*
Y1299213D01*
X312205Y1331890D01*
X435433D01*
X526815Y708461D02*
X436575D01*
X527559Y799213D02*
X579173D01*
X543740Y944882D02*
Y878386D01*
X543307Y877953D01*
X613740Y944882D02*
X673661D01*
X649173Y799213D02*
X692913D01*
X700787Y791339D01*
Y709205D01*
X700043Y708461D01*
X661417Y2437441D02*
Y2389764D01*
Y2507441D02*
Y2600394D01*
X663386Y2602362D01*
X673661Y944882D02*
Y1477992D01*
X758268Y1562598D01*
X700043Y629720D02*
X779728D01*
X795276Y614173D01*
X842752D01*
X842984Y614406D01*
X846457D01*
X700043Y649406D02*
X779327D01*
X814961Y685039D01*
X841886D01*
X842520Y684406D01*
X846457D01*
X700043Y669091D02*
X747831D01*
X771654Y692913D01*
Y866142D01*
X744094Y893701D01*
Y944449D01*
X743661Y944882D01*
X700043Y688776D02*
X739957D01*
X748031Y696850D01*
Y866142D01*
X732283Y881890D01*
X685039D01*
X673228Y893701D01*
Y941378D01*
X673661Y941811D01*
Y944882D01*
X743661D02*
Y988622D01*
X692913Y1039370D01*
Y1468504D01*
X736220Y1511811D01*
X855118D01*
X855906Y1512598D01*
X858268D01*
X743661Y944882D02*
X803583D01*
X758268Y1262598D02*
Y1162992D01*
X787402Y1133858D01*
X937008D01*
X980315Y1090551D01*
Y1045276D01*
X982283Y1043307D01*
X761811Y1814961D02*
Y1566142D01*
X758268Y1562598D01*
X799213Y1736220D02*
Y1681102D01*
Y2039370D02*
X602362D01*
Y2000000D01*
X492126D01*
Y2023622D01*
X464567D01*
Y1933071D01*
X799213D01*
Y2039370D01*
G36*
X799213Y2039370D02*
X602362D01*
Y2000000D01*
X492126D01*
Y2023622D01*
X464567D01*
Y1933071D01*
X799213D01*
Y2039370D01*
G37*
X801181Y2602362D02*
Y2509409D01*
X803150Y2507441D01*
Y2437441D02*
Y2381890D01*
X775591Y2354331D01*
X244094D01*
X204724Y2314961D01*
Y1874016D01*
X232283Y1846457D01*
X535433D01*
X836614Y1814961D02*
Y1534252D01*
X858268Y1512598D01*
X846457Y484484D02*
X799445D01*
X799213Y484252D01*
X846457Y614406D02*
X992358D01*
X1059055Y681102D01*
Y1041339D01*
X1057087Y1043307D01*
X846457Y614406D02*
Y554484D01*
Y684406D02*
X920626D01*
X980315Y744094D01*
Y1041339D01*
X982283Y1043307D01*
X846457Y744327D02*
Y684406D01*
Y877953D02*
Y814327D01*
X858268Y1212598D02*
Y1169291D01*
X874016Y1153543D01*
X976378D01*
X1059055Y1070866D01*
Y1045276D01*
X1057087Y1043307D01*
X873583Y944882D02*
X925197D01*
X1019685Y964567D02*
Y925197D01*
X1135827Y1799213D02*
X1098425D01*
X1069488Y1770276D01*
X1007874D01*
X1194882Y1799213D02*
Y1872480D01*
X1196850Y1874449D01*
Y1996063D02*
Y1944449D01*
D02*
D20*
X159354Y594488D02*
X129354D01*
X159354Y830709D02*
X129354D01*
X159354Y1027559D02*
X129354D01*
X159354Y1381890D02*
X129354D01*
X159354Y1736220D02*
X129354D01*
X165354Y588488D02*
Y558488D01*
Y600488D02*
Y630488D01*
Y824709D02*
Y794709D01*
Y836709D02*
Y866709D01*
Y1021559D02*
Y991559D01*
Y1033559D02*
Y1063559D01*
Y1375890D02*
Y1345890D01*
Y1387890D02*
Y1417890D01*
Y1730220D02*
Y1700220D01*
Y1742220D02*
Y1772220D01*
X171354Y594488D02*
X201354D01*
X171354Y830709D02*
X201354D01*
X171354Y1027559D02*
X201354D01*
X171354Y1381890D02*
X201354D01*
X171354Y1736220D02*
X201354D01*
X353961Y721075D02*
X326886Y748150D01*
X371953Y1381890D02*
X341953D01*
X371953Y1783465D02*
X341953D01*
X373709Y590244D02*
X352496Y569031D01*
X373709Y598732D02*
X352496Y619945D01*
X373709Y826465D02*
X352496Y805252D01*
X373709Y834953D02*
X352496Y856165D01*
X373709Y1023315D02*
X352496Y1002102D01*
X373709Y1031803D02*
X352496Y1053016D01*
X377953Y1777465D02*
Y1747465D01*
Y1789465D02*
Y1819465D01*
X379189Y721075D02*
X406264Y748150D01*
X382197Y590244D02*
X403409Y569031D01*
X382197Y598732D02*
X403409Y619945D01*
X382197Y826465D02*
X403409Y805252D01*
X382197Y834953D02*
X403409Y856165D01*
X382197Y1023315D02*
X403409Y1002102D01*
X382197Y1031803D02*
X403409Y1053016D01*
X383953Y1381890D02*
X413953D01*
X383953Y1783465D02*
X413953D01*
X396402Y1920457D02*
X369331Y1893386D01*
X396402Y1945685D02*
X369331Y1972756D01*
X403449Y1881890D02*
X373449D01*
X415449D02*
X445449D01*
X419535Y1215992D02*
X398323Y1194780D01*
X419535Y1247787D02*
X398323Y1269000D01*
X421630Y1920457D02*
X448701Y1893386D01*
X450693Y614173D02*
X420693D01*
X451331Y1215992D02*
X472543Y1194780D01*
X451331Y1247787D02*
X472543Y1269000D01*
X456693Y608173D02*
Y578173D01*
X521559Y799213D02*
X491559D01*
X527559Y793213D02*
Y763213D01*
Y805213D02*
Y835213D01*
X566559Y786598D02*
X539488Y759528D01*
X566559Y811827D02*
X539488Y838898D01*
X591787Y786598D02*
X618858Y759528D01*
X608173Y200787D02*
X578173D01*
X608173Y1870079D02*
X578173D01*
X614173Y194787D02*
Y164787D01*
Y206787D02*
Y236787D01*
Y1864079D02*
Y1834079D01*
Y1876079D02*
Y1906079D01*
X620173Y200787D02*
X650173D01*
X620173Y1870079D02*
X650173D01*
X648803Y2424827D02*
X621732Y2397756D01*
X648803Y2450055D02*
X621732Y2477126D01*
X655417Y2389764D02*
X625417D01*
X667417D02*
X697417D01*
X674031Y2424827D02*
X701102Y2397756D01*
X674031Y2450055D02*
X701102Y2477126D01*
X690850Y1736220D02*
X660850D01*
X696850Y1730220D02*
Y1700220D01*
Y1742220D02*
Y1772220D01*
X702850Y1736220D02*
X732850D01*
X793213Y484252D02*
X763213D01*
X799213Y478252D02*
Y448252D01*
Y490252D02*
Y520252D01*
X820772Y1870079D02*
X790772D01*
X826772Y1876079D02*
Y1906079D01*
X832772Y1870079D02*
X862772D01*
X833843Y471870D02*
X806772Y444799D01*
X833843Y497098D02*
X806772Y524169D01*
X842618Y1412598D02*
X812618D01*
X844394Y200787D02*
X814394D01*
X846457Y1986126D02*
Y1956126D01*
Y1998126D02*
Y2028126D01*
Y2198724D02*
Y2168724D01*
Y2210724D02*
Y2240724D01*
X850394Y194787D02*
Y164787D01*
Y206787D02*
Y236787D01*
X856394Y200787D02*
X886394D01*
X858268Y1428248D02*
Y1458248D01*
X859071Y471870D02*
X886142Y444799D01*
X859071Y497098D02*
X886142Y524169D01*
X860969Y957496D02*
X833898Y984567D01*
X886197Y932268D02*
X913268Y905197D01*
X886197Y957496D02*
X913268Y984567D01*
X903449Y1736220D02*
X873449D01*
X909449Y1730220D02*
Y1700220D01*
Y1742220D02*
Y1772220D01*
X925197Y938882D02*
Y908882D01*
Y950882D02*
Y980882D01*
X1104236Y594488D02*
X1074236D01*
X1104236Y1381890D02*
X1074236D01*
X1105992Y826465D02*
X1084780Y805252D01*
X1105992Y834953D02*
X1084780Y856165D01*
X1110236Y588488D02*
Y558488D01*
Y600488D02*
Y630488D01*
Y1021559D02*
Y991559D01*
Y1033559D02*
Y1063559D01*
Y1375890D02*
Y1345890D01*
Y1387890D02*
Y1417890D01*
X1114480Y826465D02*
X1135693Y805252D01*
X1114480Y834953D02*
X1135693Y856165D01*
X1116236Y594488D02*
X1146236D01*
X1116236Y1027559D02*
X1146236D01*
X1116236Y1381890D02*
X1146236D01*
X1184236Y1931835D02*
X1157165Y1904764D01*
X1184236Y1957063D02*
X1157165Y1984134D01*
X1190850Y1996063D02*
X1160850D01*
X1196850Y2002063D02*
Y2032063D01*
X1202850Y1996063D02*
X1232850D01*
X1209465Y1931835D02*
X1236535Y1904764D01*
X1209465Y1957063D02*
X1236535Y1984134D01*
X1316835Y594488D02*
X1286835D01*
X1316835Y830709D02*
X1286835D01*
X1316835Y1027559D02*
X1286835D01*
X1316835Y1381890D02*
X1286835D01*
X1322835Y588488D02*
Y558488D01*
Y600488D02*
Y630488D01*
Y824709D02*
Y794709D01*
Y836709D02*
Y866709D01*
Y1021559D02*
Y991559D01*
Y1033559D02*
Y1063559D01*
Y1375890D02*
Y1345890D01*
Y1387890D02*
Y1417890D01*
X1328835Y594488D02*
X1358835D01*
X1328835Y830709D02*
X1358835D01*
X1328835Y1027559D02*
X1358835D01*
X1328835Y1381890D02*
X1358835D01*
D02*
D21*
X165354Y594488D03*
Y830709D03*
Y1027559D03*
Y1381890D03*
Y1736220D03*
X318898Y708661D03*
X377953Y594488D03*
Y830709D03*
Y1027559D03*
Y1381890D03*
Y1783465D03*
X409449Y1881890D03*
X456693Y614173D03*
X527559Y799213D03*
X543307Y877953D03*
X614173Y200787D03*
Y877953D03*
Y1870079D03*
X661417Y2389764D03*
X696850Y1736220D03*
X799213Y484252D03*
Y1681102D03*
X826772Y1870079D03*
X846457Y877953D03*
Y1992126D03*
Y2204724D03*
X850394Y200787D03*
X909449Y1736220D03*
X925197Y944882D03*
X1019685Y925197D03*
X1110236Y594488D03*
Y830709D03*
Y1027559D03*
Y1381890D03*
X1196850Y1996063D03*
X1322835Y594488D03*
Y830709D03*
Y1027559D03*
Y1381890D03*
D02*
D22*
X435433Y1131890D02*
Y709602D01*
X436575Y708461D01*
X649173Y799213D02*
Y842953D01*
X614173Y877953D01*
D02*
D23*
X535433Y1631890D02*
Y1846457D01*
Y1947126D01*
X551181Y1962874D01*
X1007874Y1899016D02*
X947441D01*
X909449Y1937008D01*
Y2271654D01*
X893701Y2287402D01*
X557087D01*
X555118Y2289370D01*
X551181D01*
D02*
D24*
X758268Y1362598D02*
X901969D01*
X929134Y1389764D01*
Y1645669D01*
X1007874Y1724409D01*
Y1770276D01*
D02*
D25*
X535433Y1131890D03*
D02*
D26*
X435433D03*
Y1231890D03*
Y1331890D03*
Y1431890D03*
Y1531890D03*
Y1631890D03*
X535433Y1231890D03*
Y1331890D03*
Y1431890D03*
Y1531890D03*
Y1631890D03*
D02*
D27*
X403543Y2001969D03*
Y2100394D03*
X440945D03*
X478346Y2001969D03*
Y2100394D03*
D02*
D28*
X421260Y2199094D03*
Y2289094D03*
X551181Y1962874D03*
Y2052874D03*
D02*
D29*
X700787Y2000000D03*
Y2157480D03*
D02*
D72*
X551181Y2151575D03*
Y2289370D03*
D02*
D73*
X268150Y2051181D03*
Y2118110D03*
X338150Y2051181D03*
Y2118110D03*
X339016Y1933071D03*
X366575Y708461D03*
X409016Y1933071D03*
X436575Y708461D03*
X543740Y944882D03*
X579173Y799213D03*
X613740Y944882D03*
X649173Y799213D03*
X673661Y944882D03*
X743661D03*
X803583D03*
X873583D03*
D02*
D74*
X758268Y1262598D03*
Y1362598D03*
Y1462598D03*
Y1562598D03*
X858268Y1212598D03*
Y1312598D03*
Y1412598D03*
Y1512598D03*
D02*
D75*
X526815Y629720D03*
Y649406D03*
Y669091D03*
Y688776D03*
Y708461D03*
X700043Y629720D03*
Y649406D03*
Y669091D03*
Y688776D03*
Y708461D03*
D02*
D76*
X661417Y2437441D03*
Y2507441D03*
X803150Y2437441D03*
Y2507441D03*
X846457Y484484D03*
Y554484D03*
Y614406D03*
Y684406D03*
Y744327D03*
Y814327D03*
X1196850Y1874449D03*
Y1944449D03*
D02*
D77*
X663386Y2602362D03*
X801181D03*
D02*
D78*
X732283Y2576772D03*
D02*
D79*
X1007874Y1770276D03*
Y1899016D03*
D02*
D80*
X761811Y1814961D03*
X799213Y1736220D03*
X836614Y1814961D03*
X982283Y1043307D03*
X1019685Y964567D03*
X1057087Y1043307D03*
D02*
D81*
X1135827Y1799213D03*
X1194882D03*
X0Y0D02*
M02*
