G04 DesignSpark PCB PRO Gerber Version 10.0 Build 5299*
G04 #@! TF.Part,Single*
G04 #@! TF.FileFunction,Soldermask,Bot*
G04 #@! TF.FilePolarity,Negative*
%FSLAX36Y36*%
%MOIN*%
G04 #@! TA.AperFunction,ComponentPad*
%ADD12R,0.07096X0.07096*%
G04 #@! TA.AperFunction,ViaPad*
%ADD10C,0.03800*%
G04 #@! TA.AperFunction,ComponentPad*
%ADD14C,0.05730*%
%ADD13C,0.07096*%
%ADD15C,0.07194*%
G04 #@! TA.AperFunction,WasherPad*
%ADD11C,0.13198*%
G04 #@! TD.AperFunction*
X0Y0D02*
D02*
D10*
X165354Y594488D03*
Y830709D03*
Y1027559D03*
Y1381890D03*
Y1736220D03*
X318898Y708661D03*
X377953Y594488D03*
Y830709D03*
Y1027559D03*
Y1381890D03*
Y1783465D03*
X409449Y1881890D03*
X456693Y614173D03*
X527559Y799213D03*
X543307Y877953D03*
X614173Y200787D03*
Y877953D03*
Y1870079D03*
X661417Y2389764D03*
X696850Y1736220D03*
X799213Y484252D03*
Y1681102D03*
X826772Y1870079D03*
X846457Y877953D03*
Y1992126D03*
Y2204724D03*
X850394Y200787D03*
X909449Y1736220D03*
X925197Y944882D03*
X1019685Y925197D03*
X1110236Y594488D03*
Y830709D03*
Y1027559D03*
Y1381890D03*
X1196850Y1996063D03*
X1322835Y594488D03*
Y830709D03*
Y1027559D03*
Y1381890D03*
D02*
D11*
X279528Y240157D03*
Y2523622D03*
X1185039Y240157D03*
Y2523622D03*
D02*
D12*
X535433Y1131890D03*
D02*
D13*
X435433D03*
Y1231890D03*
Y1331890D03*
Y1431890D03*
Y1531890D03*
Y1631890D03*
X535433Y1231890D03*
Y1331890D03*
Y1431890D03*
Y1531890D03*
Y1631890D03*
D02*
D14*
X758268Y1262598D03*
Y1362598D03*
Y1462598D03*
Y1562598D03*
X858268Y1212598D03*
Y1312598D03*
Y1412598D03*
Y1512598D03*
D02*
D15*
X1108268Y1162559D03*
Y1612638D03*
X0Y0D02*
M02*
