G05
M48
;#@! TF.GenerationSoftware,DesignSpark,DesignSpark PCB PRO,10.0.5344
;#@! TF.CreationDate,2022-05-10T11:03:16+00:00*
;#@! TF.FileFunction,Plated,1,2,PTH
;FILE_FORMAT=3:5
;TYPE=PLATED
INCH,TZ
FMAT,2
T1C000.01600
T2C000.02992
T3C000.04331
T4C000.13189
%
T001
X0.16535Y0.59449
X0.16535Y0.83071
X0.16535Y1.02756
X0.16535Y1.38189
X0.16535Y1.73622
X0.31890Y0.70866
X0.37795Y0.59449
X0.37795Y0.83071
X0.37795Y1.02756
X0.37795Y1.38189
X0.37795Y1.78346
X0.40945Y1.88189
X0.45669Y0.61417
X0.52756Y0.79921
X0.54331Y0.87795
X0.61417Y0.20079
X0.61417Y0.87795
X0.61417Y1.87008
X0.66142Y2.38976
X0.66535Y0.74803
X0.69685Y1.73622
X0.72047Y0.82677
X0.79921Y0.48425
X0.79921Y1.68110
X0.82677Y1.87008
X0.84646Y0.87795
X0.84646Y1.99213
X0.84646Y2.20472
X0.85039Y0.20079
X0.90945Y1.73622
X0.92520Y0.94488
X1.01969Y0.92520
X1.11024Y0.59449
X1.11024Y0.83071
X1.11024Y1.02756
X1.11024Y1.38189
X1.19685Y1.99606
X1.32283Y0.59449
X1.32283Y0.83071
X1.32283Y1.02756
X1.32283Y1.38189
T002
X0.75827Y1.26260
X0.75827Y1.36260
X0.75827Y1.46260
X0.75827Y1.56260
X0.85827Y1.21260
X0.85827Y1.31260
X0.85827Y1.41260
X0.85827Y1.51260
T003
X0.43543Y1.13189
X0.43543Y1.23189
X0.43543Y1.33189
X0.43543Y1.43189
X0.43543Y1.53189
X0.43543Y1.63189
X0.53543Y1.13189
X0.53543Y1.23189
X0.53543Y1.33189
X0.53543Y1.43189
X0.53543Y1.53189
X0.53543Y1.63189
T004
X1.10827Y1.16256
X1.10827Y1.61264
M30
