G04 DesignSpark PCB PRO Gerber Version 10.0 Build 5299*
G04 #@! TF.Part,Single*
G04 #@! TF.FileFunction,Other,ESDK-CRE-A - Documentation*
G04 #@! TF.FilePolarity,Positive*
%FSLAX35Y35*%
%MOIN*%
%ADD116C,0.00197*%
%ADD14C,0.00394*%
%ADD11C,0.00787*%
G04 #@! TD.AperFunction*
X0Y0D02*
D02*
D11*
X4331Y6299D02*
Y394D01*
X10236D01*
X4331Y270079D02*
Y275984D01*
X10236D01*
X142126Y394D02*
X136220D01*
X142126Y6299D02*
Y394D01*
Y275984D02*
X136220D01*
X142126D02*
Y270079D01*
D02*
D14*
X59449D02*
X87008D01*
Y251969D01*
X59449D01*
Y270079D01*
X67047Y104823D02*
Y172697D01*
X145787D01*
Y104823D01*
X67047D01*
X88425Y169193D02*
X71417D01*
Y185925D01*
X88425D01*
Y169193D01*
X110472Y92028D02*
X93465D01*
Y108760D01*
X110472D01*
Y92028D01*
D02*
D116*
X48941Y73996D02*
X73744D01*
Y59822D01*
X48941D01*
Y73996D01*
X51083Y213386D02*
Y196850D01*
X37106D01*
Y213386D01*
X51083D01*
X58760Y107205D02*
Y169173D01*
X3583D01*
Y107205D01*
X58760D01*
X58858Y194587D02*
Y221161D01*
X81299D01*
Y194587D01*
X58858D01*
X61693Y232185D02*
Y211909D01*
X48543D01*
Y232185D01*
X61693D01*
X107303Y192618D02*
Y174311D01*
X94272D01*
Y192618D01*
X107303D01*
X123130Y176280D02*
X109941D01*
Y183563D01*
X123130D01*
Y176280D01*
X0Y0D02*
M02*
