G04 DesignSpark PCB PRO Gerber Version 10.0 Build 5299*
G04 #@! TF.Part,Single*
G04 #@! TF.FileFunction,Drillmap*
G04 #@! TF.FilePolarity,Positive*
%FSLAX36Y36*%
%MOIN*%
%ADD17C,0.00500*%
G04 #@! TA.AperFunction,ViaPad*
%ADD16C,0.10000*%
G04 #@! TD.AperFunction*
X0Y0D02*
D02*
D16*
X165354Y594488D03*
Y830709D03*
Y1027559D03*
Y1381890D03*
Y1736220D03*
X279528Y240157D03*
Y2523622D03*
X318898Y708661D03*
X377953Y594488D03*
Y830709D03*
Y1027559D03*
Y1381890D03*
Y1783465D03*
X409449Y1881890D03*
X435433Y1131890D03*
Y1231890D03*
Y1331890D03*
Y1431890D03*
Y1531890D03*
Y1631890D03*
X456693Y614173D03*
X527559Y799213D03*
X535433Y1131890D03*
Y1231890D03*
Y1331890D03*
Y1431890D03*
Y1531890D03*
Y1631890D03*
X543307Y877953D03*
X614173Y200787D03*
Y877953D03*
Y1870079D03*
X661417Y2389764D03*
X696850Y1736220D03*
X758268Y1262598D03*
Y1362598D03*
Y1462598D03*
Y1562598D03*
X799213Y484252D03*
Y1681102D03*
X826772Y1870079D03*
X846457Y877953D03*
Y1992126D03*
Y2204724D03*
X850394Y200787D03*
X858268Y1212598D03*
Y1312598D03*
Y1412598D03*
Y1512598D03*
X909449Y1736220D03*
X925197Y944882D03*
X1019685Y925197D03*
X1108268Y1162559D03*
Y1612638D03*
X1110236Y594488D03*
Y830709D03*
Y1027559D03*
Y1381890D03*
X1185039Y240157D03*
Y2523622D03*
X1196850Y1996063D03*
X1322835Y594488D03*
Y830709D03*
Y1027559D03*
Y1381890D03*
D02*
D17*
X265354Y653862D02*
Y691362D01*
X296606Y653862D01*
Y691362D01*
X265354Y890083D02*
Y927583D01*
X296606Y890083D01*
Y927583D01*
X265354Y1086933D02*
Y1124433D01*
X296606Y1086933D01*
Y1124433D01*
X265354Y1441264D02*
Y1478764D01*
X296606Y1441264D01*
Y1478764D01*
X265354Y1795594D02*
Y1833094D01*
X296606Y1795594D01*
Y1833094D01*
X379528Y299531D02*
Y337031D01*
X410780D01*
X404528Y318283D02*
X379528D01*
Y2582996D02*
Y2620496D01*
X410780D01*
X404528Y2601748D02*
X379528D01*
X418898Y768035D02*
Y805535D01*
X450150Y768035D01*
Y805535D01*
X477953Y653862D02*
Y691362D01*
X509205Y653862D01*
Y691362D01*
X477953Y890083D02*
Y927583D01*
X509205Y890083D01*
Y927583D01*
X477953Y1086933D02*
Y1124433D01*
X509205Y1086933D01*
Y1124433D01*
X477953Y1441264D02*
Y1478764D01*
X509205Y1441264D01*
Y1478764D01*
X477953Y1842839D02*
Y1880339D01*
X509205Y1842839D01*
Y1880339D01*
X509449Y1941264D02*
Y1978764D01*
X540701Y1941264D01*
Y1978764D01*
X535433Y1191264D02*
Y1228764D01*
Y1210016D02*
X566685D01*
Y1191264D02*
Y1228764D01*
X535433Y1291264D02*
Y1328764D01*
Y1310016D02*
X566685D01*
Y1291264D02*
Y1328764D01*
X535433Y1391264D02*
Y1428764D01*
Y1410016D02*
X566685D01*
Y1391264D02*
Y1428764D01*
X535433Y1491264D02*
Y1528764D01*
Y1510016D02*
X566685D01*
Y1491264D02*
Y1528764D01*
X535433Y1591264D02*
Y1628764D01*
Y1610016D02*
X566685D01*
Y1591264D02*
Y1628764D01*
X535433Y1691264D02*
Y1728764D01*
Y1710016D02*
X566685D01*
Y1691264D02*
Y1728764D01*
X556693Y673547D02*
Y711047D01*
X587945Y673547D01*
Y711047D01*
X627559Y858587D02*
Y896087D01*
X658811Y858587D01*
Y896087D01*
X635433Y1191264D02*
Y1228764D01*
Y1210016D02*
X666685D01*
Y1191264D02*
Y1228764D01*
X635433Y1291264D02*
Y1328764D01*
Y1310016D02*
X666685D01*
Y1291264D02*
Y1328764D01*
X635433Y1391264D02*
Y1428764D01*
Y1410016D02*
X666685D01*
Y1391264D02*
Y1428764D01*
X635433Y1491264D02*
Y1528764D01*
Y1510016D02*
X666685D01*
Y1491264D02*
Y1528764D01*
X635433Y1591264D02*
Y1628764D01*
Y1610016D02*
X666685D01*
Y1591264D02*
Y1628764D01*
X635433Y1691264D02*
Y1728764D01*
Y1710016D02*
X666685D01*
Y1691264D02*
Y1728764D01*
X643307Y937327D02*
Y974827D01*
X674559Y937327D01*
Y974827D01*
X714173Y260161D02*
Y297661D01*
X745425Y260161D01*
Y297661D01*
X714173Y937327D02*
Y974827D01*
X745425Y937327D01*
Y974827D01*
X714173Y1929453D02*
Y1966953D01*
X745425Y1929453D01*
Y1966953D01*
X761417Y2449138D02*
Y2486638D01*
X792669Y2449138D01*
Y2486638D01*
X796850Y1795594D02*
Y1833094D01*
X828102Y1795594D01*
Y1833094D01*
X858268Y1334472D02*
Y1346972D01*
X861394Y1353224D01*
X864520Y1356350D01*
X870768Y1359472D01*
X877020D01*
X883268Y1356350D01*
X886394Y1353224D01*
X889520Y1346972D01*
Y1334472D01*
X886394Y1328224D01*
X883268Y1325098D01*
X877020Y1321972D01*
X870768D01*
X864520Y1325098D01*
X861394Y1328224D01*
X858268Y1334472D01*
Y1434472D02*
Y1446972D01*
X861394Y1453224D01*
X864520Y1456350D01*
X870768Y1459472D01*
X877020D01*
X883268Y1456350D01*
X886394Y1453224D01*
X889520Y1446972D01*
Y1434472D01*
X886394Y1428224D01*
X883268Y1425098D01*
X877020Y1421972D01*
X870768D01*
X864520Y1425098D01*
X861394Y1428224D01*
X858268Y1434472D01*
Y1534472D02*
Y1546972D01*
X861394Y1553224D01*
X864520Y1556350D01*
X870768Y1559472D01*
X877020D01*
X883268Y1556350D01*
X886394Y1553224D01*
X889520Y1546972D01*
Y1534472D01*
X886394Y1528224D01*
X883268Y1525098D01*
X877020Y1521972D01*
X870768D01*
X864520Y1525098D01*
X861394Y1528224D01*
X858268Y1534472D01*
Y1634472D02*
Y1646972D01*
X861394Y1653224D01*
X864520Y1656350D01*
X870768Y1659472D01*
X877020D01*
X883268Y1656350D01*
X886394Y1653224D01*
X889520Y1646972D01*
Y1634472D01*
X886394Y1628224D01*
X883268Y1625098D01*
X877020Y1621972D01*
X870768D01*
X864520Y1625098D01*
X861394Y1628224D01*
X858268Y1634472D01*
X899213Y543626D02*
Y581126D01*
X930465Y543626D01*
Y581126D01*
X899213Y1740476D02*
Y1777976D01*
X930465Y1740476D01*
Y1777976D01*
X926772Y1929453D02*
Y1966953D01*
X958024Y1929453D01*
Y1966953D01*
X946457Y937327D02*
Y974827D01*
X977709Y937327D01*
Y974827D01*
X946457Y2051500D02*
Y2089000D01*
X977709Y2051500D01*
Y2089000D01*
X946457Y2264098D02*
Y2301598D01*
X977709Y2264098D01*
Y2301598D01*
X950394Y260161D02*
Y297661D01*
X981646Y260161D01*
Y297661D01*
X958268Y1284472D02*
Y1296972D01*
X961394Y1303224D01*
X964520Y1306350D01*
X970768Y1309472D01*
X977020D01*
X983268Y1306350D01*
X986394Y1303224D01*
X989520Y1296972D01*
Y1284472D01*
X986394Y1278224D01*
X983268Y1275098D01*
X977020Y1271972D01*
X970768D01*
X964520Y1275098D01*
X961394Y1278224D01*
X958268Y1284472D01*
Y1384472D02*
Y1396972D01*
X961394Y1403224D01*
X964520Y1406350D01*
X970768Y1409472D01*
X977020D01*
X983268Y1406350D01*
X986394Y1403224D01*
X989520Y1396972D01*
Y1384472D01*
X986394Y1378224D01*
X983268Y1375098D01*
X977020Y1371972D01*
X970768D01*
X964520Y1375098D01*
X961394Y1378224D01*
X958268Y1384472D01*
Y1484472D02*
Y1496972D01*
X961394Y1503224D01*
X964520Y1506350D01*
X970768Y1509472D01*
X977020D01*
X983268Y1506350D01*
X986394Y1503224D01*
X989520Y1496972D01*
Y1484472D01*
X986394Y1478224D01*
X983268Y1475098D01*
X977020Y1471972D01*
X970768D01*
X964520Y1475098D01*
X961394Y1478224D01*
X958268Y1484472D01*
Y1584472D02*
Y1596972D01*
X961394Y1603224D01*
X964520Y1606350D01*
X970768Y1609472D01*
X977020D01*
X983268Y1606350D01*
X986394Y1603224D01*
X989520Y1596972D01*
Y1584472D01*
X986394Y1578224D01*
X983268Y1575098D01*
X977020Y1571972D01*
X970768D01*
X964520Y1575098D01*
X961394Y1578224D01*
X958268Y1584472D01*
X1009449Y1795594D02*
Y1833094D01*
X1040701Y1795594D01*
Y1833094D01*
X1025197Y1004256D02*
Y1041756D01*
X1056449Y1004256D01*
Y1041756D01*
X1119685Y984571D02*
Y1022071D01*
X1150937Y984571D01*
Y1022071D01*
X1208268Y1221933D02*
Y1259433D01*
X1230142D01*
X1236394Y1256311D01*
X1239520Y1250059D01*
X1236394Y1243811D01*
X1230142Y1240685D01*
X1208268D01*
Y1672012D02*
Y1709512D01*
X1230142D01*
X1236394Y1706390D01*
X1239520Y1700138D01*
X1236394Y1693890D01*
X1230142Y1690764D01*
X1208268D01*
X1210236Y653862D02*
Y691362D01*
X1241488Y653862D01*
Y691362D01*
X1210236Y890083D02*
Y927583D01*
X1241488Y890083D01*
Y927583D01*
X1210236Y1086933D02*
Y1124433D01*
X1241488Y1086933D01*
Y1124433D01*
X1210236Y1441264D02*
Y1478764D01*
X1241488Y1441264D01*
Y1478764D01*
X1285039Y299531D02*
Y337031D01*
X1316291D01*
X1310039Y318283D02*
X1285039D01*
Y2582996D02*
Y2620496D01*
X1316291D01*
X1310039Y2601748D02*
X1285039D01*
X1296850Y2055437D02*
Y2092937D01*
X1328102Y2055437D01*
Y2092937D01*
X1422835Y653862D02*
Y691362D01*
X1454087Y653862D01*
Y691362D01*
X1422835Y890083D02*
Y927583D01*
X1454087Y890083D01*
Y927583D01*
X1422835Y1086933D02*
Y1124433D01*
X1454087Y1086933D01*
Y1124433D01*
X1422835Y1441264D02*
Y1478764D01*
X1454087Y1441264D01*
Y1478764D01*
X0Y0D02*
M02*
