G04 DesignSpark PCB PRO Gerber Version 10.0 Build 5299*
G04 #@! TF.Part,Single*
G04 #@! TF.FileFunction,Copper,L1,Top*
G04 #@! TF.FilePolarity,Positive*
%FSLAX35Y35*%
%MOIN*%
G04 #@! TA.AperFunction,SMDPad,CuDef*
%ADD20R,0.02362X0.04724*%
%ADD23R,0.03150X0.04528*%
%ADD27R,0.03937X0.04291*%
%ADD21R,0.05500X0.06000*%
%ADD73R,0.03346X0.03346*%
%ADD29R,0.03543X0.03543*%
%ADD74R,0.03740X0.03740*%
%ADD28R,0.05906X0.05906*%
G04 #@! TA.AperFunction,ComponentPad*
%ADD70R,0.06496X0.06496*%
G04 #@! TD.AperFunction*
%ADD10C,0.00500*%
%ADD11C,0.00787*%
%ADD17C,0.01969*%
%ADD15C,0.02000*%
%ADD19C,0.02362*%
G04 #@! TA.AperFunction,ViaPad*
%ADD16C,0.03200*%
G04 #@! TD.AperFunction*
%ADD18C,0.03937*%
G04 #@! TA.AperFunction,ComponentPad*
%ADD25C,0.05130*%
%ADD71C,0.06496*%
G04 #@! TA.AperFunction,SMDPad,CuDef*
%ADD26R,0.05512X0.01181*%
%ADD24R,0.04291X0.03937*%
%ADD72R,0.11063X0.04646*%
%ADD22R,0.18898X0.08858*%
G04 #@! TD.AperFunction*
X0Y0D02*
D02*
D10*
X80315Y244744D02*
Y249744D01*
D02*
D11*
X6974Y268984D02*
Y7394D01*
X11331Y3037D01*
X135126D01*
X139482Y7394D01*
Y268984D01*
X135126Y273341D01*
X11331D01*
X6974Y268984D01*
X13542Y59449D02*
G75*
G02*
X19529I2994J0D01*
G01*
G75*
G02*
X13542I-2994J0D01*
G01*
Y83071D02*
G75*
G02*
X19529I2994J0D01*
G01*
G75*
G02*
X13542I-2994J0D01*
G01*
Y102756D02*
G75*
G02*
X19529I2994J0D01*
G01*
G75*
G02*
X13542I-2994J0D01*
G01*
Y138189D02*
G75*
G02*
X19529I2994J0D01*
G01*
G75*
G02*
X13542I-2994J0D01*
G01*
Y173622D02*
G75*
G02*
X19529I2994J0D01*
G01*
G75*
G02*
X13542I-2994J0D01*
G01*
X97315Y192815D02*
X107500D01*
Y185807D01*
X94075D01*
Y186824D01*
G75*
G02*
X92516Y187676I669J3078D01*
G01*
X88720Y191471D01*
G75*
G02*
X87795Y193701I2224J2230D01*
G01*
Y225591D01*
X59843D01*
Y224803D01*
G75*
G02*
X58268Y223228I-1575J0D01*
G01*
X46270D01*
Y222330D01*
G75*
G02*
X46850Y222441I581J-1464D01*
G01*
X79921D01*
G75*
G02*
X81496Y220866I0J-1575D01*
G01*
Y211024D01*
G75*
G02*
X79921Y209449I-1575J0D01*
G01*
X59262D01*
Y205174D01*
G75*
G02*
X59449Y205301I975J-1237D01*
G01*
Y205610D01*
X80709D01*
Y205301D01*
G75*
G02*
X81496Y203937I-787J-1364D01*
G01*
Y193307D01*
G75*
G02*
X79921Y191732I-1575J0D01*
G01*
X56693D01*
Y166303D01*
G75*
G02*
X57972Y163189I-3150J-3114D01*
G01*
G75*
G02*
X49114I-4429J0D01*
G01*
G75*
G02*
X50394Y166303I4430J0D01*
G01*
Y183071D01*
X23231D01*
G75*
G02*
X22115Y183532I-2J1575D01*
G01*
X19359Y186288D01*
G75*
G02*
X18898Y187402I1113J1114D01*
G01*
Y231496D01*
G75*
G02*
X19359Y232609I1575J0D01*
G01*
X23296Y236546D01*
G75*
G02*
X24412Y237008I1114J-1113D01*
G01*
X63886D01*
G75*
G02*
X63412Y240205I2256J1969D01*
G01*
X62780D01*
Y247283D01*
X69504D01*
Y240205D01*
X68872D01*
G75*
G02*
X68397Y237008I-2730J-1228D01*
G01*
X76907D01*
X78740Y238841D01*
Y240417D01*
X77165D01*
Y247071D01*
X78884D01*
Y247417D01*
X77165D01*
Y254071D01*
X78543D01*
Y256102D01*
X76181D01*
Y254724D01*
X70276D01*
Y256102D01*
X67717D01*
Y254071D01*
X69291D01*
Y247417D01*
X62992D01*
Y254071D01*
X64567D01*
Y256102D01*
X62205D01*
Y264370D01*
X70472D01*
Y260630D01*
X75984D01*
Y264370D01*
X84252D01*
Y256102D01*
X81693D01*
Y254071D01*
X83465D01*
Y247417D01*
X81746D01*
Y247071D01*
X83465D01*
Y240417D01*
X81890D01*
Y238189D01*
G75*
G02*
X81428Y237076I-1575J0D01*
G01*
X78672Y234320D01*
G75*
G02*
X77557Y233858I-1114J1113D01*
G01*
X58268D01*
G75*
G02*
X59843Y232283I0J-1575D01*
G01*
Y231890D01*
X89366D01*
G75*
G02*
X91597Y230967I4J-3150D01*
G01*
X93172Y229393D01*
G75*
G02*
X94094Y227165I-2227J-2227D01*
G01*
G75*
G02*
Y227164I-1327J0D01*
G01*
G75*
G02*
Y227161I-1195J-2D01*
G01*
Y195006D01*
X96173Y192926D01*
X97315Y192815D01*
X116535Y190772D02*
X122835D01*
Y184118D01*
X121063D01*
Y182972D01*
X122539D01*
Y176870D01*
X110531D01*
Y178346D01*
X110495D01*
X108062Y175914D01*
G75*
G02*
X107500Y175552I-1114J1113D01*
G01*
Y174114D01*
X103150D01*
Y172441D01*
G75*
G02*
X102457Y170770I-2362J0D01*
G01*
X95276Y163589D01*
Y138976D01*
G75*
G02*
X94583Y137305I-2362J0D01*
G01*
X91868Y134591D01*
G75*
G02*
X90197Y133898I-1671J1669D01*
G01*
X88487D01*
G75*
G02*
X89573Y131260I-2660J-2638D01*
G01*
G75*
G02*
X82081I-3746J0D01*
G01*
G75*
G02*
X83167Y133898I3746J0D01*
G01*
X78734D01*
G75*
G02*
X72081Y136260I-2907J2362D01*
G01*
G75*
G02*
X78734Y138622I3746J0D01*
G01*
X82875D01*
G75*
G02*
X81868Y141260I2952J2637D01*
G01*
G75*
G02*
X89785I3959J0D01*
G01*
G75*
G02*
X88779Y138622I-3959J0D01*
G01*
X89219D01*
X90551Y139955D01*
Y164567D01*
G75*
G02*
X91244Y166238I2362J0D01*
G01*
X98425Y173419D01*
Y174114D01*
X94075D01*
Y181122D01*
X107500D01*
Y179806D01*
X108729Y181035D01*
G75*
G02*
X109845Y181496I1114J-1113D01*
G01*
X110531D01*
Y182972D01*
X117913D01*
Y184118D01*
X116535D01*
Y190772D01*
X103051Y116256D02*
G75*
G02*
X118602I7776J0D01*
G01*
G75*
G02*
X103051I-7776J0D01*
G01*
Y161264D02*
G75*
G02*
X118602I7776J0D01*
G01*
G75*
G02*
X103051I-7776J0D01*
G01*
X108030Y138189D02*
G75*
G02*
X114017I2994J0D01*
G01*
G75*
G02*
X108030I-2994J0D01*
G01*
X108563Y104461D02*
G75*
G02*
X114017Y102756I2461J-1705D01*
G01*
G75*
G02*
X108317Y101476I-2994J0D01*
G01*
X107480D01*
Y68110D01*
G75*
G02*
X107018Y66995I-1575J0D01*
G01*
X100351Y60329D01*
G75*
G02*
X99236Y59866I-1115J1112D01*
G01*
X87795D01*
Y52122D01*
X81496D01*
Y59843D01*
X79530D01*
G75*
G02*
X78414Y60304I-2J1575D01*
G01*
X77320Y61397D01*
X73941D01*
Y61201D01*
X66067D01*
Y65334D01*
X64983D01*
G75*
G02*
X63867Y65796I-2J1575D01*
G01*
X63060Y66603D01*
G75*
G02*
X62598Y67717I1113J1114D01*
G01*
Y72182D01*
X61946Y72835D01*
X49609D01*
G75*
G02*
X48493Y73296I-2J1575D01*
G01*
X47312Y74477D01*
G75*
G02*
X46850Y75591I1113J1114D01*
G01*
Y98425D01*
G75*
G02*
X47312Y99539I1575J0D01*
G01*
X48493Y100720D01*
G75*
G02*
X49609Y101181I1114J-1113D01*
G01*
X65791D01*
Y147799D01*
G75*
G02*
X66253Y148913I1575J0D01*
G01*
X72310Y154970D01*
G75*
G02*
X74606Y159802I3517J1290D01*
G01*
Y178642D01*
X73327D01*
Y184350D01*
X79035D01*
Y178642D01*
X77756D01*
Y176689D01*
X82087D01*
Y178642D01*
X80807D01*
Y184350D01*
X81299D01*
G75*
G02*
X79683Y187008I1378J2657D01*
G01*
G75*
G02*
X85671I2994J0D01*
G01*
G75*
G02*
X84056Y184350I-2994J0D01*
G01*
X86516D01*
Y178642D01*
X85236D01*
Y154959D01*
G75*
G02*
X89573Y151260I591J-3699D01*
G01*
G75*
G02*
X82465Y149606I-3746J0D01*
G01*
X77510D01*
G75*
G02*
X79573Y146260I-1683J-3346D01*
G01*
G75*
G02*
X72081I-3746J0D01*
G01*
G75*
G02*
X72369Y147701I3746J0D01*
G01*
X70866Y146198D01*
Y104589D01*
X75480Y99976D01*
G75*
G02*
X75941Y98862I-1113J-1114D01*
G01*
Y97638D01*
X83685D01*
Y91339D01*
X75984D01*
Y90022D01*
X76704Y89302D01*
G75*
G02*
X77165Y88189I-1113J-1114D01*
G01*
Y69685D01*
G75*
G02*
X76704Y68572I-1575J0D01*
G01*
X75896Y67764D01*
G75*
G02*
X74781Y67303I-1114J1113D01*
G01*
X73941D01*
Y66515D01*
X77280D01*
X80383Y69617D01*
G75*
G02*
X81496Y70079I1114J-1113D01*
G01*
Y77760D01*
X87795D01*
Y70016D01*
X91410D01*
X96457Y75062D01*
Y101476D01*
X95374D01*
Y107185D01*
X96457D01*
Y108403D01*
X93048Y111811D01*
X78743D01*
G75*
G02*
X77627Y112272I-2J1575D01*
G01*
X74713Y115186D01*
G75*
G02*
X74252Y116299I1113J1114D01*
G01*
Y122861D01*
G75*
G02*
X72081Y126260I1575J3399D01*
G01*
G75*
G02*
X79573I3746J0D01*
G01*
G75*
G02*
X77402Y122861I-3746J0D01*
G01*
Y116952D01*
X79393Y114961D01*
X85568D01*
X84713Y115816D01*
G75*
G02*
X84252Y116929I1113J1114D01*
G01*
Y117861D01*
G75*
G02*
X82081Y121260I1575J3399D01*
G01*
G75*
G02*
X89573I3746J0D01*
G01*
G75*
G02*
X87402Y117861I-3746J0D01*
G01*
Y117581D01*
X88054Y116929D01*
X97635D01*
G75*
G02*
X98751Y116468I2J-1575D01*
G01*
X107019Y108200D01*
G75*
G02*
X107477Y107185I-1113J-1114D01*
G01*
X108563D01*
Y104461D01*
X108030Y59449D02*
G75*
G02*
X114017I2994J0D01*
G01*
G75*
G02*
X108030I-2994J0D01*
G01*
X111024Y24016D02*
G75*
G02*
X125984I7480J0D01*
G01*
G75*
G02*
X111024I-7480J0D01*
G01*
X108030Y83071D02*
G75*
G02*
X114017I2994J0D01*
G01*
G75*
G02*
X108030I-2994J0D01*
G01*
X81283Y51988D02*
X88008D01*
Y44909D01*
X81283D01*
Y45759D01*
G75*
G02*
X76928Y48425I-1362J2666D01*
G01*
G75*
G02*
X81283Y51091I2994J0D01*
G01*
Y51988D01*
X82046Y20079D02*
G75*
G02*
X88033I2994J0D01*
G01*
G75*
G02*
X82046I-2994J0D01*
G01*
X58424D02*
G75*
G02*
X64411I2994J0D01*
G01*
G75*
G02*
X58424I-2994J0D01*
G01*
X86220Y84760D02*
X87795D01*
Y78106D01*
X81496D01*
Y84760D01*
X83071D01*
Y85503D01*
G75*
G02*
X81865Y87795I1575J2292D01*
G01*
G75*
G02*
X87427I2781J0D01*
G01*
G75*
G02*
X86220Y85503I-2781J0D01*
G01*
Y84760D01*
X90898Y97004D02*
G75*
G02*
X95513Y94488I1622J-2516D01*
G01*
G75*
G02*
X90898Y91972I-2994J0D01*
G01*
Y91126D01*
X83819D01*
Y97850D01*
X90898D01*
Y97004D01*
X87951Y173622D02*
G75*
G02*
X93939I2994J0D01*
G01*
G75*
G02*
X87951I-2994J0D01*
G01*
X81652Y199213D02*
G75*
G02*
X87639I2994J0D01*
G01*
G75*
G02*
X81652I-2994J0D01*
G01*
Y220472D02*
G75*
G02*
X87639I2994J0D01*
G01*
G75*
G02*
X81652I-2994J0D01*
G01*
X58424Y187008D02*
G75*
G02*
X64411I2994J0D01*
G01*
G75*
G02*
X58424I-2994J0D01*
G01*
X66691Y173622D02*
G75*
G02*
X72679I2994J0D01*
G01*
G75*
G02*
X66691I-2994J0D01*
G01*
X56618Y64957D02*
X56831D01*
Y60988D01*
X48632D01*
G75*
G02*
X42676Y61417I-2963J429D01*
G01*
G75*
G02*
X43396Y63366I2994J0D01*
G01*
X36952D01*
G75*
G02*
X36682Y63386I-19J1574D01*
G01*
X30317D01*
G75*
G02*
X29202Y63847I-2J1575D01*
G01*
X24871Y68178D01*
G75*
G02*
X24409Y69291I1113J1114D01*
G01*
Y141339D01*
G75*
G02*
X24871Y142452I1575J0D01*
G01*
X26721Y144302D01*
G75*
G02*
X27837Y144764I1114J-1113D01*
G01*
X39404D01*
G75*
G02*
X47972Y143189I4140J-1575D01*
G01*
G75*
G02*
X39404Y141614I-4429J0D01*
G01*
X28487D01*
X27559Y140686D01*
Y131755D01*
X30107Y134302D01*
G75*
G02*
X31223Y134764I1114J-1113D01*
G01*
X39404D01*
G75*
G02*
X47972Y133189I4140J-1575D01*
G01*
G75*
G02*
X39404Y131614I-4429J0D01*
G01*
X31873D01*
X29528Y129269D01*
Y72705D01*
G75*
G02*
X33118Y73596I2362J-1839D01*
G01*
Y74209D01*
X40197D01*
Y68484D01*
X40331D01*
Y73996D01*
X41378D01*
Y109325D01*
G75*
G02*
X39114Y113189I2165J3864D01*
G01*
G75*
G02*
X47972I4429J0D01*
G01*
G75*
G02*
X45709Y109325I-4429J0D01*
G01*
Y73996D01*
X46984D01*
Y72421D01*
X48744D01*
Y72618D01*
X56618D01*
Y64957D01*
X34802Y138189D02*
G75*
G02*
X40789I2994J0D01*
G01*
G75*
G02*
X34802I-2994J0D01*
G01*
Y83071D02*
G75*
G02*
X40789I2994J0D01*
G01*
G75*
G02*
X34802I-2994J0D01*
G01*
Y102756D02*
G75*
G02*
X40789I2994J0D01*
G01*
G75*
G02*
X34802I-2994J0D01*
G01*
X38902Y123189D02*
G75*
G02*
X48185I4642J0D01*
G01*
G75*
G02*
X38902I-4642J0D01*
G01*
X34802Y59449D02*
G75*
G02*
X40789I2994J0D01*
G01*
G75*
G02*
X34802I-2994J0D01*
G01*
Y178346D02*
G75*
G02*
X40789I2994J0D01*
G01*
G75*
G02*
X34802I-2994J0D01*
G01*
X39114Y153189D02*
G75*
G02*
X47972I4429J0D01*
G01*
G75*
G02*
X39114I-4429J0D01*
G01*
Y163189D02*
G75*
G02*
X47972I4429J0D01*
G01*
G75*
G02*
X39114I-4429J0D01*
G01*
X49114Y117618D02*
X57972D01*
Y108760D01*
X49114D01*
Y117618D01*
Y123189D02*
G75*
G02*
X57972I4429J0D01*
G01*
G75*
G02*
X49114I-4429J0D01*
G01*
Y133189D02*
G75*
G02*
X57972I4429J0D01*
G01*
G75*
G02*
X49114I-4429J0D01*
G01*
Y143189D02*
G75*
G02*
X57972I4429J0D01*
G01*
G75*
G02*
X49114I-4429J0D01*
G01*
Y153189D02*
G75*
G02*
X57972I4429J0D01*
G01*
G75*
G02*
X49114I-4429J0D01*
G01*
X20472Y24016D02*
G75*
G02*
X35433I7480J0D01*
G01*
G75*
G02*
X20472I-7480J0D01*
G01*
Y252362D02*
G75*
G02*
X35433I7480J0D01*
G01*
G75*
G02*
X20472I-7480J0D01*
G01*
X111024D02*
G75*
G02*
X125984I7480J0D01*
G01*
G75*
G02*
X111024I-7480J0D01*
G01*
X122201Y197984D02*
X123047D01*
Y190906D01*
X116323D01*
Y197984D01*
X117169D01*
G75*
G02*
X116691Y199606I2516J1622D01*
G01*
G75*
G02*
X122679I2994J0D01*
G01*
G75*
G02*
X122201Y197984I-2994J0D01*
G01*
X129290Y59449D02*
G75*
G02*
X135277I2994J0D01*
G01*
G75*
G02*
X129290I-2994J0D01*
G01*
Y83071D02*
G75*
G02*
X135277I2994J0D01*
G01*
G75*
G02*
X129290I-2994J0D01*
G01*
Y102756D02*
G75*
G02*
X135277I2994J0D01*
G01*
G75*
G02*
X129290I-2994J0D01*
G01*
Y138189D02*
G75*
G02*
X135277I2994J0D01*
G01*
G75*
G02*
X129290I-2994J0D01*
G01*
X7368Y20079D02*
G36*
X7368Y20079D02*
Y7000D01*
X10937Y3431D01*
X135519D01*
X139089Y7000D01*
Y20079D01*
X124864D01*
G75*
G02*
X112144I-6360J3937D01*
G01*
X88033D01*
G75*
G02*
X82046I-2994J0D01*
G01*
X64411D01*
G75*
G02*
X58424I-2994J0D01*
G01*
X34313D01*
G75*
G02*
X21593I-6360J3937D01*
G01*
X7368D01*
G37*
Y24016D02*
G36*
X7368Y24016D02*
Y20079D01*
X21593D01*
G75*
G02*
X20472Y24016I6361J3937D01*
G01*
X7368D01*
G37*
X35433D02*
G36*
X35433Y24016D02*
G75*
G02*
X34313Y20079I-7481J0D01*
G01*
X58424D01*
G75*
G02*
X64411I2994J0D01*
G01*
X82046D01*
G75*
G02*
X88033I2994J0D01*
G01*
X112144D01*
G75*
G02*
X111024Y24016I6361J3937D01*
G01*
X35433D01*
G37*
X125984D02*
G36*
X125984Y24016D02*
G75*
G02*
X124864Y20079I-7481J0D01*
G01*
X139089D01*
Y24016D01*
X125984D01*
G37*
X7368Y48449D02*
G36*
X7368Y48449D02*
Y24016D01*
X20472D01*
G75*
G02*
X35433I7480J0D01*
G01*
X111024D01*
G75*
G02*
X125984I7480J0D01*
G01*
X139089D01*
Y48449D01*
X88008D01*
Y44909D01*
X81283D01*
Y45759D01*
G75*
G02*
X76928Y48425I-1362J2666D01*
G01*
G75*
G02*
Y48449I3001J12D01*
G01*
X7368D01*
G37*
Y59449D02*
G36*
X7368Y59449D02*
Y48449D01*
X76928D01*
G75*
G02*
X81283Y51091I2994J-24D01*
G01*
Y51988D01*
X88008D01*
Y48449D01*
X139089D01*
Y59449D01*
X135277D01*
G75*
G02*
X129290I-2994J0D01*
G01*
X114017D01*
G75*
G02*
X108030I-2994J0D01*
G01*
X87795D01*
Y52122D01*
X81496D01*
Y59449D01*
X47924D01*
G75*
G02*
X43414I-2255J1969D01*
G01*
X40789D01*
G75*
G02*
X34802I-2994J0D01*
G01*
X19529D01*
G75*
G02*
X13542I-2994J0D01*
G01*
X7368D01*
G37*
Y83071D02*
G36*
X7368Y83071D02*
Y59449D01*
X13542D01*
G75*
G02*
X19529I2994J0D01*
G01*
X34802D01*
G75*
G02*
X40789I2994J0D01*
G01*
X43414D01*
G75*
G02*
X42676Y61417I2256J1969D01*
G01*
Y61418D01*
G75*
G02*
X43396Y63366I2993J0D01*
G01*
X36952D01*
G75*
G02*
X36682Y63386I-17J1596D01*
G01*
X30317D01*
G75*
G02*
X29202Y63847I-2J1576D01*
G01*
X24871Y68178D01*
G75*
G02*
X24409Y69291I1114J1114D01*
G01*
Y83071D01*
X19529D01*
G75*
G02*
X13542I-2994J0D01*
G01*
X7368D01*
G37*
X29528D02*
G36*
X29528Y83071D02*
Y72705D01*
G75*
G02*
X33118Y73596I2362J-1839D01*
G01*
Y74209D01*
X40197D01*
Y68484D01*
X40331D01*
Y73996D01*
X41378D01*
Y83071D01*
X40789D01*
G75*
G02*
X34802I-2994J0D01*
G01*
X29528D01*
G37*
X45709D02*
G36*
X45709Y83071D02*
Y73996D01*
X46984D01*
Y72421D01*
X48744D01*
Y72618D01*
X56618D01*
Y64957D01*
X56831D01*
Y60988D01*
X48632D01*
G75*
G02*
X47924Y59449I-2963J430D01*
G01*
X81496D01*
Y59843D01*
X79530D01*
G75*
G02*
X78414Y60304I-2J1576D01*
G01*
X77320Y61397D01*
X73941D01*
Y61201D01*
X66067D01*
Y65334D01*
X64983D01*
G75*
G02*
X63867Y65796I-2J1576D01*
G01*
X63060Y66603D01*
G75*
G02*
X62598Y67717I1114J1114D01*
G01*
Y72182D01*
X61946Y72835D01*
X49609D01*
G75*
G02*
X48493Y73296I-2J1576D01*
G01*
X47312Y74477D01*
G75*
G02*
X46850Y75591I1114J1114D01*
G01*
Y83071D01*
X45709D01*
G37*
X73941Y67303D02*
G36*
X73941Y67303D02*
Y66515D01*
X77280D01*
X80383Y69617D01*
G75*
G02*
X81496Y70079I1114J-1114D01*
G01*
Y77760D01*
X87795D01*
Y70016D01*
X91410D01*
X96457Y75062D01*
Y83071D01*
X87795D01*
Y78106D01*
X81496D01*
Y83071D01*
X77165D01*
Y69685D01*
G75*
G02*
X76704Y68572I-1575J0D01*
G01*
X75896Y67764D01*
G75*
G02*
X74781Y67303I-1114J1115D01*
G01*
X73941D01*
G37*
X87795Y59866D02*
G36*
X87795Y59866D02*
Y59449D01*
X108030D01*
G75*
G02*
X114017I2994J0D01*
G01*
X129290D01*
G75*
G02*
X135277I2994J0D01*
G01*
X139089D01*
Y83071D01*
X135277D01*
G75*
G02*
X129290I-2994J0D01*
G01*
X114017D01*
G75*
G02*
X108030I-2994J0D01*
G01*
X107480D01*
Y68110D01*
G75*
G02*
Y68109I-1805J0D01*
G01*
G75*
G02*
X107018Y66995I-1573J0D01*
G01*
X100351Y60329D01*
G75*
G02*
X99236Y59866I-1114J1111D01*
G01*
X87795D01*
G37*
X7368Y94488D02*
G36*
X7368Y94488D02*
Y83071D01*
X13542D01*
G75*
G02*
X19529I2994J0D01*
G01*
X24409D01*
Y94488D01*
X7368D01*
G37*
X29528D02*
G36*
X29528Y94488D02*
Y83071D01*
X34802D01*
G75*
G02*
X40789I2994J0D01*
G01*
X41378D01*
Y94488D01*
X29528D01*
G37*
X45709D02*
G36*
X45709Y94488D02*
Y83071D01*
X46850D01*
Y94488D01*
X45709D01*
G37*
X75984Y91339D02*
G36*
X75984Y91339D02*
Y90022D01*
X76704Y89302D01*
G75*
G02*
X77165Y88189I-1114J-1114D01*
G01*
Y83071D01*
X81496D01*
Y84760D01*
X83071D01*
Y85503D01*
G75*
G02*
X81865Y87795I1576J2293D01*
G01*
G75*
G02*
X87427I2781J0D01*
G01*
G75*
G02*
X86220Y85503I-2782J1D01*
G01*
Y84760D01*
X87795D01*
Y83071D01*
X96457D01*
Y94488D01*
X95513D01*
G75*
G02*
X90898Y91972I-2994J0D01*
G01*
Y91126D01*
X83819D01*
Y94488D01*
X83685D01*
Y91339D01*
X75984D01*
G37*
X107480Y94488D02*
G36*
X107480Y94488D02*
Y83071D01*
X108030D01*
G75*
G02*
X114017I2994J0D01*
G01*
X129290D01*
G75*
G02*
X135277I2994J0D01*
G01*
X139089D01*
Y94488D01*
X107480D01*
G37*
X7368Y102756D02*
G36*
X7368Y102756D02*
Y94488D01*
X24409D01*
Y102756D01*
X19529D01*
G75*
G02*
X13542I-2994J0D01*
G01*
X7368D01*
G37*
X29528D02*
G36*
X29528Y102756D02*
Y94488D01*
X41378D01*
Y102756D01*
X40789D01*
G75*
G02*
X34802I-2994J0D01*
G01*
X29528D01*
G37*
X45709D02*
G36*
X45709Y102756D02*
Y94488D01*
X46850D01*
Y98425D01*
G75*
G02*
X47312Y99539I1575J0D01*
G01*
X48493Y100720D01*
G75*
G02*
X49609Y101181I1114J-1115D01*
G01*
X65791D01*
Y102756D01*
X45709D01*
G37*
X72700D02*
G36*
X72700Y102756D02*
X75480Y99976D01*
G75*
G02*
X75941Y98862I-1114J-1114D01*
G01*
Y97638D01*
X83685D01*
Y94488D01*
X83819D01*
Y97850D01*
X90898D01*
Y97004D01*
G75*
G02*
X95513Y94488I1622J-2517D01*
G01*
X96457D01*
Y101476D01*
X95374D01*
Y102756D01*
X72700D01*
G37*
X107480Y101476D02*
G36*
X107480Y101476D02*
Y94488D01*
X139089D01*
Y102756D01*
X135277D01*
G75*
G02*
X129290I-2994J0D01*
G01*
X114017D01*
G75*
G02*
X108317Y101476I-2994J0D01*
G01*
X107480D01*
G37*
X7368Y116256D02*
G36*
X7368Y116256D02*
Y102756D01*
X13542D01*
G75*
G02*
X19529I2994J0D01*
G01*
X24409D01*
Y116256D01*
X7368D01*
G37*
X29528D02*
G36*
X29528Y116256D02*
Y102756D01*
X34802D01*
G75*
G02*
X40789I2994J0D01*
G01*
X41378D01*
Y109325D01*
G75*
G02*
X39114Y113189I2165J3863D01*
G01*
Y113189D01*
G75*
G02*
X40348Y116256I4429J0D01*
G01*
X29528D01*
G37*
X45709Y109325D02*
G36*
X45709Y109325D02*
Y102756D01*
X65791D01*
Y116256D01*
X57972D01*
Y108760D01*
X49114D01*
Y116256D01*
X46739D01*
G75*
G02*
X47972Y113189I-3196J-3067D01*
G01*
Y113189D01*
G75*
G02*
X45709Y109325I-4429J0D01*
G01*
G37*
X70866Y116256D02*
G36*
X70866Y116256D02*
Y104589D01*
X72700Y102756D01*
X95374D01*
Y107185D01*
X96457D01*
Y108403D01*
X93048Y111811D01*
X78743D01*
G75*
G02*
X77627Y112272I-2J1576D01*
G01*
X74713Y115186D01*
G75*
G02*
X74253Y116256I1114J1114D01*
G01*
X70866D01*
G37*
X78097D02*
G36*
X78097Y116256D02*
X79393Y114961D01*
X85568D01*
X84713Y115816D01*
G75*
G02*
X84403Y116256I1114J1114D01*
G01*
X78097D01*
G37*
X103051D02*
G36*
X103051Y116256D02*
X98963D01*
X107019Y108200D01*
G75*
G02*
X107477Y107185I-1111J-1113D01*
G01*
X108563D01*
Y104461D01*
G75*
G02*
X114017Y102756I2461J-1705D01*
G01*
Y102756D01*
X129290D01*
G75*
G02*
X135277I2994J0D01*
G01*
X139089D01*
Y116256D01*
X118602D01*
G75*
G02*
X103051I-7776J0D01*
G01*
G37*
X7368Y123189D02*
G36*
X7368Y123189D02*
Y116256D01*
X24409D01*
Y123189D01*
X7368D01*
G37*
X29528D02*
G36*
X29528Y123189D02*
Y116256D01*
X40348D01*
G75*
G02*
X46739I3196J-3067D01*
G01*
X49114D01*
Y117618D01*
X57972D01*
Y116256D01*
X65791D01*
Y123189D01*
X57972D01*
G75*
G02*
X49114I-4429J0D01*
G01*
X48185D01*
G75*
G02*
X38902I-4642J0D01*
G01*
X29528D01*
G37*
X70866D02*
G36*
X70866Y123189D02*
Y116256D01*
X74253D01*
G75*
G02*
X74252Y116299I1575J50D01*
G01*
Y122861D01*
G75*
G02*
X73681Y123189I1574J3398D01*
G01*
X70866D01*
G37*
X77402Y122861D02*
G36*
X77402Y122861D02*
Y116952D01*
X78097Y116256D01*
X84403D01*
G75*
G02*
X84252Y116929I1424J673D01*
G01*
Y117861D01*
G75*
G02*
X82081Y121259I1574J3398D01*
G01*
Y121260D01*
G75*
G02*
X82616Y123189I3746J0D01*
G01*
X77972D01*
G75*
G02*
X77402Y122861I-2144J3070D01*
G01*
G37*
X87402Y117861D02*
G36*
X87402Y117861D02*
Y117581D01*
X88054Y116929D01*
X97635D01*
G75*
G02*
X98751Y116468I2J-1576D01*
G01*
X98963Y116256D01*
X103051D01*
G75*
G02*
X107307Y123189I7776J0D01*
G01*
X89038D01*
G75*
G02*
X89573Y121260I-3211J-1930D01*
G01*
Y121259D01*
G75*
G02*
X87402Y117861I-3745J0D01*
G01*
G37*
X114347Y123189D02*
G36*
X114347Y123189D02*
G75*
G02*
X118602Y116256I-3520J-6933D01*
G01*
X139089D01*
Y123189D01*
X114347D01*
G37*
X7368Y133189D02*
G36*
X7368Y133189D02*
Y123189D01*
X24409D01*
Y133189D01*
X7368D01*
G37*
X27559D02*
G36*
X27559Y133189D02*
Y131755D01*
X28994Y133189D01*
X27559D01*
G37*
X29528Y129269D02*
G36*
X29528Y129269D02*
Y123189D01*
X38902D01*
G75*
G02*
X48185I4642J0D01*
G01*
X49114D01*
G75*
G02*
X57972I4429J0D01*
G01*
X65791D01*
Y133189D01*
X57972D01*
G75*
G02*
X49114I-4429J0D01*
G01*
X47972D01*
G75*
G02*
X39404Y131614I-4429J0D01*
G01*
X31873D01*
X29528Y129269D01*
G37*
X70866Y133189D02*
G36*
X70866Y133189D02*
Y123189D01*
X73681D01*
G75*
G02*
X72081Y126259I2144J3070D01*
G01*
Y126260D01*
G75*
G02*
X79573I3746J0D01*
G01*
Y126259D01*
G75*
G02*
X77972Y123189I-3745J0D01*
G01*
X82616D01*
G75*
G02*
X89038I3211J-1929D01*
G01*
X107307D01*
G75*
G02*
X114347I3520J-6933D01*
G01*
X139089D01*
Y133189D01*
X89038D01*
G75*
G02*
X89573Y131260I-3212J-1930D01*
G01*
G75*
G02*
X82081I-3746J0D01*
G01*
G75*
G02*
X82616Y133189I3747J0D01*
G01*
X77972D01*
G75*
G02*
X73681I-2146J3071D01*
G01*
X70866D01*
G37*
X7368Y138189D02*
G36*
X7368Y138189D02*
Y133189D01*
X24409D01*
Y138189D01*
X19529D01*
G75*
G02*
X13542I-2994J0D01*
G01*
X7368D01*
G37*
X27559D02*
G36*
X27559Y138189D02*
Y133189D01*
X28994D01*
X30107Y134302D01*
G75*
G02*
X31223Y134764I1114J-1115D01*
G01*
X39404D01*
G75*
G02*
X47972Y133189I4140J-1575D01*
G01*
X49114D01*
G75*
G02*
X57972I4429J0D01*
G01*
X65791D01*
Y138189D01*
X40789D01*
G75*
G02*
X34802I-2994J0D01*
G01*
X27559D01*
G37*
X70866D02*
G36*
X70866Y138189D02*
Y133189D01*
X73681D01*
G75*
G02*
X72081Y136260I2146J3071D01*
G01*
G75*
G02*
X72616Y138189I3746J0D01*
G01*
X70866D01*
G37*
X78734Y133898D02*
G36*
X78734Y133898D02*
G75*
G02*
X77972Y133189I-2907J2362D01*
G01*
X82616D01*
G75*
G02*
X83167Y133898I3212J-1930D01*
G01*
X78734D01*
G37*
X88487D02*
G36*
X88487Y133898D02*
G75*
G02*
X89038Y133189I-2661J-2638D01*
G01*
X139089D01*
Y138189D01*
X135277D01*
G75*
G02*
X129290I-2994J0D01*
G01*
X114017D01*
G75*
G02*
X108030I-2994J0D01*
G01*
X95141D01*
G75*
G02*
X94583Y137305I-2224J786D01*
G01*
X91868Y134591D01*
G75*
G02*
X90197Y133898I-1672J1671D01*
G01*
X88487D01*
G37*
X7368Y143189D02*
G36*
X7368Y143189D02*
Y138189D01*
X13542D01*
G75*
G02*
X19529I2994J0D01*
G01*
X24409D01*
Y141339D01*
G75*
G02*
X24871Y142452I1575J0D01*
G01*
X25608Y143189D01*
X7368D01*
G37*
X27559Y140686D02*
G36*
X27559Y140686D02*
Y138189D01*
X34802D01*
G75*
G02*
X40789I2994J0D01*
G01*
X65791D01*
Y143189D01*
X57972D01*
G75*
G02*
X49114I-4429J0D01*
G01*
X47972D01*
G75*
G02*
X39404Y141614I-4429J0D01*
G01*
X28487D01*
X27559Y140686D01*
G37*
X70866Y143189D02*
G36*
X70866Y143189D02*
Y138189D01*
X72616D01*
G75*
G02*
X78734Y138622I3211J-1929D01*
G01*
X82875D01*
G75*
G02*
X81868Y141260I2952J2638D01*
G01*
G75*
G02*
X82370Y143189I3959J0D01*
G01*
X77972D01*
G75*
G02*
X73681I-2145J3071D01*
G01*
X70866D01*
G37*
X88779Y138622D02*
G36*
X88779Y138622D02*
X89219D01*
X90551Y139955D01*
Y143189D01*
X89283D01*
G75*
G02*
X89785Y141260I-3457J-1930D01*
G01*
G75*
G02*
X88779Y138622I-3959J0D01*
G01*
G37*
X95276Y143189D02*
G36*
X95276Y143189D02*
Y138976D01*
G75*
G02*
Y138975I-2707J0D01*
G01*
G75*
G02*
X95141Y138189I-2359J0D01*
G01*
X108030D01*
G75*
G02*
X114017I2994J0D01*
G01*
X129290D01*
G75*
G02*
X135277I2994J0D01*
G01*
X139089D01*
Y143189D01*
X95276D01*
G37*
X7368Y153189D02*
G36*
X7368Y153189D02*
Y143189D01*
X25608D01*
X26721Y144302D01*
G75*
G02*
X27837Y144764I1114J-1115D01*
G01*
X39404D01*
G75*
G02*
X47972Y143189I4140J-1575D01*
G01*
X49114D01*
G75*
G02*
X57972I4429J0D01*
G01*
X65791D01*
Y147799D01*
G75*
G02*
X66253Y148913I1575J0D01*
G01*
X70529Y153189D01*
X57972D01*
G75*
G02*
X49114I-4429J0D01*
G01*
X47972D01*
G75*
G02*
X39114I-4429J0D01*
G01*
X7368D01*
G37*
X70866Y146198D02*
G36*
X70866Y146198D02*
Y143189D01*
X73681D01*
G75*
G02*
X72081Y146260I2145J3071D01*
G01*
G75*
G02*
X72369Y147701I3752J-1D01*
G01*
X70866Y146198D01*
G37*
X79573Y146260D02*
G36*
X79573Y146260D02*
G75*
G02*
X77972Y143189I-3746J0D01*
G01*
X82370D01*
G75*
G02*
X89283I3457J-1929D01*
G01*
X90551D01*
Y153189D01*
X89038D01*
G75*
G02*
X89573Y151260I-3211J-1930D01*
G01*
Y151259D01*
G75*
G02*
X82465Y149606I-3746J0D01*
G01*
X77510D01*
G75*
G02*
X79573Y146260I-1684J-3347D01*
G01*
G37*
X95276Y153189D02*
G36*
X95276Y153189D02*
Y143189D01*
X139089D01*
Y153189D01*
X95276D01*
G37*
X7368Y161264D02*
G36*
X7368Y161264D02*
Y153189D01*
X39114D01*
G75*
G02*
X47972I4429J0D01*
G01*
X49114D01*
G75*
G02*
X57972I4429J0D01*
G01*
X70529D01*
X72310Y154970D01*
G75*
G02*
X72081Y156260I3517J1290D01*
G01*
G75*
G02*
X74606Y159802I3746J0D01*
G01*
Y161264D01*
X57532D01*
G75*
G02*
X49554I-3989J1925D01*
G01*
X47532D01*
G75*
G02*
X39554I-3989J1925D01*
G01*
X7368D01*
G37*
X85236D02*
G36*
X85236Y161264D02*
Y154959D01*
G75*
G02*
X89038Y153189I591J-3699D01*
G01*
X90551D01*
Y161264D01*
X85236D01*
G37*
X95276D02*
G36*
X95276Y161264D02*
Y153189D01*
X139089D01*
Y161264D01*
X118602D01*
G75*
G02*
X103051I-7776J0D01*
G01*
X95276D01*
G37*
X7368Y173622D02*
G36*
X7368Y173622D02*
Y161264D01*
X39554D01*
G75*
G02*
X39114Y163189I3989J1925D01*
G01*
G75*
G02*
X47972I4429J0D01*
G01*
G75*
G02*
X47532Y161264I-4429J0D01*
G01*
X49554D01*
G75*
G02*
X49114Y163189I3989J1925D01*
G01*
Y163189D01*
G75*
G02*
X50394Y166303I4428J0D01*
G01*
Y173622D01*
X19529D01*
G75*
G02*
X13542I-2994J0D01*
G01*
X7368D01*
G37*
X56693D02*
G36*
X56693Y173622D02*
Y166303D01*
G75*
G02*
X57972Y163189I-3149J-3114D01*
G01*
Y163189D01*
G75*
G02*
X57532Y161264I-4429J0D01*
G01*
X74606D01*
Y173622D01*
X72679D01*
G75*
G02*
X66691I-2994J0D01*
G01*
X56693D01*
G37*
X85236D02*
G36*
X85236Y173622D02*
Y161264D01*
X90551D01*
Y164567D01*
G75*
G02*
Y164568I2707J1D01*
G01*
G75*
G02*
X91244Y166238I2359J0D01*
G01*
X98425Y173419D01*
Y173622D01*
X93939D01*
G75*
G02*
X87951I-2994J0D01*
G01*
X85236D01*
G37*
X95276Y163589D02*
G36*
X95276Y163589D02*
Y161264D01*
X103051D01*
G75*
G02*
X118602I7776J0D01*
G01*
X139089D01*
Y173622D01*
X103150D01*
Y172441D01*
G75*
G02*
Y172440I-2707J0D01*
G01*
G75*
G02*
X102457Y170770I-2359J0D01*
G01*
X95276Y163589D01*
G37*
X7368Y178346D02*
G36*
X7368Y178346D02*
Y173622D01*
X13542D01*
G75*
G02*
X19529I2994J0D01*
G01*
X50394D01*
Y178346D01*
X40789D01*
G75*
G02*
X34802I-2994J0D01*
G01*
X7368D01*
G37*
X56693D02*
G36*
X56693Y178346D02*
Y173622D01*
X66691D01*
G75*
G02*
X72679I2994J0D01*
G01*
X74606D01*
Y178346D01*
X56693D01*
G37*
X77756D02*
G36*
X77756Y178346D02*
Y176689D01*
X82087D01*
Y178346D01*
X77756D01*
G37*
X85236D02*
G36*
X85236Y178346D02*
Y173622D01*
X87951D01*
G75*
G02*
X93939I2994J0D01*
G01*
X98425D01*
Y174114D01*
X94075D01*
Y178346D01*
X85236D01*
G37*
X103150Y174114D02*
G36*
X103150Y174114D02*
Y173622D01*
X139089D01*
Y178346D01*
X122539D01*
Y176870D01*
X110531D01*
Y178346D01*
X110495D01*
X108062Y175914D01*
G75*
G02*
X107500Y175552I-1117J1118D01*
G01*
Y174114D01*
X103150D01*
G37*
X7368Y187008D02*
G36*
X7368Y187008D02*
Y178346D01*
X34802D01*
G75*
G02*
X40789I2994J0D01*
G01*
X50394D01*
Y183071D01*
X23231D01*
G75*
G02*
X22115Y183532I-2J1576D01*
G01*
X19359Y186288D01*
G75*
G02*
X18948Y187008I1114J1114D01*
G01*
X7368D01*
G37*
X56693D02*
G36*
X56693Y187008D02*
Y178346D01*
X74606D01*
Y178642D01*
X73327D01*
Y184350D01*
X79035D01*
Y178642D01*
X77756D01*
Y178346D01*
X82087D01*
Y178642D01*
X80807D01*
Y184350D01*
X81299D01*
G75*
G02*
X79683Y187007I1378J2657D01*
G01*
Y187008D01*
X64411D01*
G75*
G02*
X58424I-2994J0D01*
G01*
X56693D01*
G37*
X85236Y178642D02*
G36*
X85236Y178642D02*
Y178346D01*
X94075D01*
Y181122D01*
X107500D01*
Y179806D01*
X108729Y181035D01*
G75*
G02*
X109845Y181496I1114J-1115D01*
G01*
X110531D01*
Y182972D01*
X117913D01*
Y184118D01*
X116535D01*
Y187008D01*
X107500D01*
Y185807D01*
X94075D01*
Y186824D01*
G75*
G02*
X93501Y187008I670J3080D01*
G01*
X85671D01*
Y187007D01*
G75*
G02*
X84056Y184350I-2993J0D01*
G01*
X86516D01*
Y178642D01*
X85236D01*
G37*
X121063Y184118D02*
G36*
X121063Y184118D02*
Y182972D01*
X122539D01*
Y178346D01*
X139089D01*
Y187008D01*
X122835D01*
Y184118D01*
X121063D01*
G37*
X7368Y199213D02*
G36*
X7368Y199213D02*
Y187008D01*
X18948D01*
G75*
G02*
X18898Y187402I1525J394D01*
G01*
Y199213D01*
X7368D01*
G37*
X56693Y191732D02*
G36*
X56693Y191732D02*
Y187008D01*
X58424D01*
G75*
G02*
X64411I2994J0D01*
G01*
X79683D01*
G75*
G02*
X85671I2994J0D01*
G01*
X93501D01*
G75*
G02*
X92516Y187676I1244J2896D01*
G01*
X88720Y191471D01*
G75*
G02*
X87795Y193701I2226J2230D01*
G01*
Y199213D01*
X87639D01*
G75*
G02*
X81652I-2994J0D01*
G01*
X81496D01*
Y193307D01*
G75*
G02*
X79921Y191732I-1575J0D01*
G01*
X56693D01*
G37*
X94094Y199213D02*
G36*
X94094Y199213D02*
Y195006D01*
X96173Y192926D01*
X97315Y192815D01*
X107500D01*
Y187008D01*
X116535D01*
Y190772D01*
X122835D01*
Y187008D01*
X139089D01*
Y199213D01*
X122653D01*
G75*
G02*
X122201Y197984I-2972J396D01*
G01*
X123047D01*
Y190906D01*
X116323D01*
Y197984D01*
X117169D01*
G75*
G02*
X116717Y199213I2521J1624D01*
G01*
X94094D01*
G37*
X7368Y220472D02*
G36*
X7368Y220472D02*
Y199213D01*
X18898D01*
Y220472D01*
X7368D01*
G37*
X59262Y209449D02*
G36*
X59262Y209449D02*
Y205174D01*
G75*
G02*
X59449Y205301I956J-1208D01*
G01*
Y205610D01*
X80709D01*
Y205301D01*
G75*
G02*
X81496Y203937I-787J-1364D01*
G01*
Y199213D01*
X81652D01*
G75*
G02*
X87639I2994J0D01*
G01*
X87795D01*
Y220472D01*
X87639D01*
G75*
G02*
X81652I-2994J0D01*
G01*
X81496D01*
Y211024D01*
G75*
G02*
X79921Y209449I-1575J0D01*
G01*
X59262D01*
G37*
X94094Y220472D02*
G36*
X94094Y220472D02*
Y199213D01*
X116717D01*
G75*
G02*
X116691Y199606I2973J394D01*
G01*
G75*
G02*
X122679I2994J0D01*
G01*
G75*
G02*
X122653Y199213I-2999J0D01*
G01*
X139089D01*
Y220472D01*
X94094D01*
G37*
X7368Y252362D02*
G36*
X7368Y252362D02*
Y220472D01*
X18898D01*
Y231496D01*
G75*
G02*
X19359Y232609I1575J0D01*
G01*
X23296Y236546D01*
G75*
G02*
X24412Y237008I1114J-1115D01*
G01*
X63886D01*
G75*
G02*
X63148Y238976I2257J1968D01*
G01*
G75*
G02*
X63412Y240205I2994J0D01*
G01*
X62780D01*
Y247283D01*
X69504D01*
Y240205D01*
X68872D01*
G75*
G02*
X69135Y238976I-2731J-1228D01*
G01*
G75*
G02*
X68397Y237008I-2994J0D01*
G01*
X76907D01*
X78740Y238841D01*
Y240417D01*
X77165D01*
Y247071D01*
X78884D01*
Y247417D01*
X77165D01*
Y252362D01*
X69291D01*
Y247417D01*
X62992D01*
Y252362D01*
X35433D01*
G75*
G02*
X20472I-7480J0D01*
G01*
X7368D01*
G37*
X46270Y223228D02*
G36*
X46270Y223228D02*
Y222330D01*
G75*
G02*
X46850Y222441I580J-1460D01*
G01*
X79921D01*
G75*
G02*
X81496Y220866I0J-1575D01*
G01*
Y220472D01*
X81652D01*
G75*
G02*
X87639I2994J0D01*
G01*
X87795D01*
Y225591D01*
X59843D01*
Y224803D01*
G75*
G02*
X58268Y223228I-1575J0D01*
G01*
X46270D01*
G37*
X59843Y232283D02*
G36*
X59843Y232283D02*
Y231890D01*
X89366D01*
G75*
G02*
X91597Y230967I4J-3152D01*
G01*
X93172Y229393D01*
G75*
G02*
X94094Y227166I-2227J-2227D01*
G01*
Y227165D01*
Y227164D01*
Y227161D01*
Y220472D01*
X139089D01*
Y252362D01*
X125984D01*
G75*
G02*
X111024I-7480J0D01*
G01*
X83465D01*
Y247417D01*
X81746D01*
Y247071D01*
X83465D01*
Y240417D01*
X81890D01*
Y238189D01*
G75*
G02*
X81428Y237076I-1575J0D01*
G01*
X78672Y234320D01*
G75*
G02*
X77557Y233858I-1114J1115D01*
G01*
X58268D01*
G75*
G02*
X59843Y232283I0J-1575D01*
G01*
G37*
X7368Y269378D02*
G36*
X7368Y269378D02*
Y252362D01*
X20472D01*
G75*
G02*
X35433I7480J0D01*
G01*
X62992D01*
Y254071D01*
X64567D01*
Y256102D01*
X62205D01*
Y264370D01*
X70472D01*
Y260630D01*
X75984D01*
Y264370D01*
X84252D01*
Y256102D01*
X81693D01*
Y254071D01*
X83465D01*
Y252362D01*
X111024D01*
G75*
G02*
X125984I7480J0D01*
G01*
X139089D01*
Y269378D01*
X135519Y272947D01*
X10937D01*
X7368Y269378D01*
G37*
X67717Y256102D02*
G36*
X67717Y256102D02*
Y254071D01*
X69291D01*
Y252362D01*
X77165D01*
Y254071D01*
X78543D01*
Y256102D01*
X76181D01*
Y254724D01*
X70276D01*
Y256102D01*
X67717D01*
G37*
X22047Y230844D02*
Y188054D01*
X23881Y186220D01*
X38689D01*
G75*
G02*
X38520Y189945I2256J1969D01*
G01*
X37362D01*
Y196669D01*
X37992D01*
Y203740D01*
X42520D01*
Y206283D01*
X41520D01*
Y206496D01*
X37992D01*
Y208383D01*
G75*
G02*
X37469Y208729I591J1459D01*
G01*
X37142Y209056D01*
Y208661D01*
X35390D01*
Y208268D01*
X37142D01*
Y201969D01*
X35390D01*
Y196457D01*
X37228D01*
Y190157D01*
X30575D01*
Y196457D01*
X32240D01*
Y201969D01*
X30488D01*
Y208268D01*
X32240D01*
Y208661D01*
X30488D01*
Y214961D01*
X37142D01*
Y212987D01*
G75*
G02*
X37992Y212647I-134J-1569D01*
G01*
Y213583D01*
X38976D01*
Y215516D01*
X37982D01*
Y223347D01*
G75*
G02*
X37008Y224803I600J1456D01*
G01*
Y227335D01*
X29956D01*
X28346Y225726D01*
Y214961D01*
X30142D01*
Y208661D01*
X28346D01*
Y208268D01*
X30142D01*
Y201969D01*
X23488D01*
Y208268D01*
X25197D01*
Y208661D01*
X23488D01*
Y214961D01*
X25197D01*
Y226378D01*
G75*
G02*
X25658Y227491I1575J0D01*
G01*
X28190Y230023D01*
G75*
G02*
X29306Y230484I1114J-1113D01*
G01*
X37008D01*
Y232283D01*
G75*
G02*
X38583Y233858I1575J0D01*
G01*
X25062D01*
X22047Y230844D01*
G36*
X22047Y230844D02*
Y188054D01*
X23881Y186220D01*
X38689D01*
G75*
G02*
X38520Y189945I2256J1969D01*
G01*
X37362D01*
Y196669D01*
X37992D01*
Y203740D01*
X42520D01*
Y206283D01*
X41520D01*
Y206496D01*
X37992D01*
Y208383D01*
G75*
G02*
X37469Y208729I591J1459D01*
G01*
X37142Y209056D01*
Y208661D01*
X35390D01*
Y208268D01*
X37142D01*
Y201969D01*
X35390D01*
Y196457D01*
X37228D01*
Y190157D01*
X30575D01*
Y196457D01*
X32240D01*
Y201969D01*
X30488D01*
Y208268D01*
X32240D01*
Y208661D01*
X30488D01*
Y214961D01*
X37142D01*
Y212987D01*
G75*
G02*
X37992Y212647I-134J-1569D01*
G01*
Y213583D01*
X38976D01*
Y215516D01*
X37982D01*
Y223347D01*
G75*
G02*
X37008Y224803I600J1456D01*
G01*
Y227335D01*
X29956D01*
X28346Y225726D01*
Y214961D01*
X30142D01*
Y208661D01*
X28346D01*
Y208268D01*
X30142D01*
Y201969D01*
X23488D01*
Y208268D01*
X25197D01*
Y208661D01*
X23488D01*
Y214961D01*
X25197D01*
Y226378D01*
G75*
G02*
X25658Y227491I1575J0D01*
G01*
X28190Y230023D01*
G75*
G02*
X29306Y230484I1114J-1113D01*
G01*
X37008D01*
Y232283D01*
G75*
G02*
X38583Y233858I1575J0D01*
G01*
X25062D01*
X22047Y230844D01*
G37*
X33815Y205118D02*
Y193394D01*
X33902Y193307D01*
X33815Y211811D02*
Y205118D01*
Y211811D02*
Y211417D01*
X37008D01*
X38583Y209843D01*
X40157D01*
X40354Y210039D01*
X36657Y70846D02*
X31910D01*
X31890Y70866D01*
X38583Y232283D02*
Y224803D01*
X58268D01*
Y232283D01*
X38583D01*
G36*
X38583Y232283D02*
Y224803D01*
X58268D01*
Y232283D01*
X38583D01*
G37*
X38976Y222441D02*
Y213583D01*
X42717D01*
Y206496D01*
X42520D01*
Y203740D01*
X42717D01*
Y203543D01*
X45415D01*
G75*
G02*
X45472Y203592I1046J-1183D01*
G01*
Y203740D01*
X45694D01*
G75*
G02*
X46457Y203937I762J-1378D01*
G01*
X49213D01*
G75*
G02*
X49975Y203740I0J-1575D01*
G01*
X50197D01*
Y203592D01*
G75*
G02*
X50254Y203543I-989J-1231D01*
G01*
X51575D01*
Y201969D01*
X58661D01*
Y208661D01*
X51575D01*
Y206299D01*
X50648D01*
G75*
G02*
X49606Y205906I-1042J1181D01*
G01*
X46850D01*
G75*
G02*
X45809Y206299I0J1575D01*
G01*
X45276D01*
Y222441D01*
X38976D01*
G36*
X38976Y222441D02*
Y213583D01*
X42717D01*
Y206496D01*
X42520D01*
Y203740D01*
X42717D01*
Y203543D01*
X45415D01*
G75*
G02*
X45472Y203592I1046J-1183D01*
G01*
Y203740D01*
X45694D01*
G75*
G02*
X46457Y203937I762J-1378D01*
G01*
X49213D01*
G75*
G02*
X49975Y203740I0J-1575D01*
G01*
X50197D01*
Y203592D01*
G75*
G02*
X50254Y203543I-989J-1231D01*
G01*
X51575D01*
Y201969D01*
X58661D01*
Y208661D01*
X51575D01*
Y206299D01*
X50648D01*
G75*
G02*
X49606Y205906I-1042J1181D01*
G01*
X46850D01*
G75*
G02*
X45809Y206299I0J1575D01*
G01*
X45276D01*
Y222441D01*
X38976D01*
G37*
X40354Y200197D02*
X47835D01*
X40945Y188189D02*
Y193264D01*
X40902Y193307D01*
X42126Y228909D02*
X29303D01*
X26772Y226378D01*
Y205161D01*
X26815Y205118D01*
X42717Y198622D02*
Y196669D01*
X44441D01*
Y189945D01*
X43370D01*
G75*
G02*
X43200Y186220I-2425J-1756D01*
G01*
X50394D01*
Y191732D01*
X46457D01*
G75*
G02*
X44882Y193307I0J1575D01*
G01*
Y198622D01*
X42717D01*
G36*
X42717Y198622D02*
Y196669D01*
X44441D01*
Y189945D01*
X43370D01*
G75*
G02*
X43200Y186220I-2425J-1756D01*
G01*
X50394D01*
Y191732D01*
X46457D01*
G75*
G02*
X44882Y193307I0J1575D01*
G01*
Y198622D01*
X42717D01*
G37*
X46850Y220866D02*
Y207480D01*
X49606D01*
Y211024D01*
X79921D01*
Y220866D01*
X46850D01*
G36*
X46850Y220866D02*
Y207480D01*
X49606D01*
Y211024D01*
X79921D01*
Y220866D01*
X46850D01*
G37*
X52681Y62972D02*
X47224D01*
X45669Y61417D01*
X52681Y64941D02*
X36933D01*
X36913Y64961D01*
X30315D01*
X25984Y69291D01*
Y141339D01*
X27835Y143189D01*
X43543D01*
X52681Y68878D02*
X48744D01*
X46776Y66909D01*
X31122D01*
X27953Y70079D01*
Y129921D01*
X31220Y133189D01*
X43543D01*
X52681Y70846D02*
X43657D01*
X52756Y79921D02*
X57917D01*
X54374Y94488D02*
Y87839D01*
X54331Y87795D01*
X61374Y94488D02*
X67366D01*
X64917Y79921D02*
X69291D01*
X70079Y79134D01*
Y70920D01*
X70004Y70846D01*
X66142Y243744D02*
Y238976D01*
Y250744D02*
Y260039D01*
X66339Y260236D01*
X67366Y94488D02*
Y99606D01*
Y147799D01*
X75827Y156260D01*
X68941Y102060D02*
Y97638D01*
X70693D01*
Y91339D01*
X58047D01*
Y97638D01*
X65791D01*
Y98031D01*
X50259D01*
X50000Y97773D01*
Y76243D01*
X50259Y75984D01*
X62596D01*
G75*
G02*
X63712Y75523I2J-1575D01*
G01*
X65287Y73948D01*
G75*
G02*
X65748Y72835I-1113J-1114D01*
G01*
Y68484D01*
X66067D01*
Y72618D01*
X68504D01*
Y78346D01*
X68244D01*
Y76772D01*
X61591D01*
Y83071D01*
X62752D01*
Y83398D01*
X61120Y85030D01*
G75*
G02*
X58636Y87795I297J2765D01*
G01*
G75*
G02*
X64183Y88093I2781J0D01*
G01*
X66448Y85826D01*
G75*
G02*
X67083Y84295I-1531J-1531D01*
G01*
Y83071D01*
X68244D01*
Y81496D01*
X69291D01*
G75*
G02*
X70407Y81032I0J-1575D01*
G01*
X71190Y80250D01*
G75*
G02*
X71654Y79134I-1111J-1116D01*
G01*
Y72618D01*
X73941D01*
Y70452D01*
X74016D01*
Y87537D01*
X73296Y88257D01*
G75*
G02*
X72835Y89370I1113J1114D01*
G01*
Y91339D01*
X71039D01*
Y97638D01*
X72791D01*
Y98210D01*
X68941Y102060D01*
X51047Y97638D02*
X57701D01*
Y91339D01*
X55949D01*
Y90057D01*
G75*
G02*
X57112Y87795I-1618J-2262D01*
G01*
G75*
G02*
X51550I-2781J0D01*
G01*
G75*
G02*
X52799Y90117I2781J0D01*
G01*
Y91339D01*
X51047D01*
Y97638D01*
X54378Y83283D02*
X61457D01*
Y76559D01*
X54378D01*
Y83283D01*
X50394Y79921D02*
G36*
X50394Y79921D02*
Y75984D01*
X62596D01*
G75*
G02*
X63712Y75523I2J-1576D01*
G01*
X65287Y73948D01*
G75*
G02*
X65748Y72835I-1114J-1114D01*
G01*
Y68878D01*
X66067D01*
Y72618D01*
X68504D01*
Y78346D01*
X68244D01*
Y76772D01*
X61591D01*
Y79921D01*
X61457D01*
Y76559D01*
X54378D01*
Y79921D01*
X50394D01*
G37*
X71654Y79134D02*
G36*
X71654Y79134D02*
Y72618D01*
X73622D01*
Y79921D01*
X71443D01*
G75*
G02*
X71654Y79134I-1363J-787D01*
G01*
Y79134D01*
G37*
X50394Y91326D02*
G36*
X50394Y91326D02*
Y79921D01*
X54378D01*
Y83283D01*
X61457D01*
Y79921D01*
X61591D01*
Y83071D01*
X62752D01*
Y83398D01*
X61120Y85030D01*
G75*
G02*
X58636Y87795I297J2765D01*
G01*
G75*
G02*
X64183Y88093I2781J0D01*
G01*
X66448Y85826D01*
G75*
G02*
X67083Y84295I-1532J-1531D01*
G01*
Y83071D01*
X68244D01*
Y81496D01*
X69291D01*
G75*
G02*
X70407Y81032I0J-1574D01*
G01*
X71190Y80250D01*
G75*
G02*
X71443Y79921I-1110J-1115D01*
G01*
X73622D01*
Y87931D01*
X73296Y88257D01*
G75*
G02*
X72835Y89370I1114J1114D01*
G01*
Y91326D01*
X55949D01*
Y90057D01*
G75*
G02*
X57112Y87795I-1619J-2262D01*
G01*
G75*
G02*
X51550I-2781J0D01*
G01*
G75*
G02*
X52799Y90117I2781J0D01*
G01*
Y91326D01*
X50394D01*
G37*
Y98031D02*
G36*
X50394Y98031D02*
Y91326D01*
X52799D01*
Y91339D01*
X51047D01*
Y97638D01*
X57701D01*
Y91339D01*
X55949D01*
Y91326D01*
X72835D01*
Y91339D01*
X71039D01*
Y97638D01*
X72791D01*
Y98210D01*
X69335Y101667D01*
X68941D01*
Y97638D01*
X70693D01*
Y91339D01*
X58047D01*
Y97638D01*
X65791D01*
Y98031D01*
X50394D01*
G37*
X70004Y62972D02*
X77973D01*
X79528Y61417D01*
X84275D01*
X84298Y61441D01*
X84646D01*
X70004Y64941D02*
X77933D01*
X81496Y68504D01*
X84189D01*
X84252Y68441D01*
X84646D01*
X70004Y66909D02*
X64981D01*
X64173Y67717D01*
Y72835D01*
X62598Y74409D01*
X49606D01*
X48425Y75591D01*
Y98425D01*
X49606Y99606D01*
X67366D01*
X70004Y68878D02*
X74783D01*
X75591Y69685D01*
Y88189D01*
X74409Y89370D01*
Y94445D01*
X74366Y94488D01*
Y98862D01*
X69291Y103937D01*
Y146850D01*
X73622Y151181D01*
X85512D01*
X85591Y151260D01*
X85827D01*
X74366Y94488D02*
X80358D01*
X75827Y126260D02*
Y116299D01*
X78740Y113386D01*
X93701D01*
X98031Y109055D01*
Y104528D01*
X98228Y104331D01*
X76181Y181496D02*
Y156614D01*
X75827Y156260D01*
X77756Y159471D02*
G75*
G02*
X77152Y152756I-1929J-3211D01*
G01*
X82236D01*
G75*
G02*
X82087Y153425I1426J669D01*
G01*
Y166043D01*
G75*
G02*
X77756I-2165J2067D01*
G01*
Y159471D01*
G36*
X77756Y159471D02*
G75*
G02*
X77152Y152756I-1929J-3211D01*
G01*
X82236D01*
G75*
G02*
X82087Y153425I1426J669D01*
G01*
Y166043D01*
G75*
G02*
X77756I-2165J2067D01*
G01*
Y159471D01*
G37*
X79921Y173622D02*
Y168110D01*
Y203937D02*
X60236D01*
Y200000D01*
X49213D01*
Y202362D01*
X46457D01*
Y193307D01*
X79921D01*
Y203937D01*
G36*
X79921Y203937D02*
X60236D01*
Y200000D01*
X49213D01*
Y202362D01*
X46457D01*
Y193307D01*
X79921D01*
Y203937D01*
G37*
X80118Y260236D02*
Y250941D01*
X80315Y250744D01*
Y243744D02*
Y238189D01*
X77559Y235433D01*
X24409D01*
X20472Y231496D01*
Y187402D01*
X23228Y184646D01*
X53543D01*
X83661Y181496D02*
Y153425D01*
X85827Y151260D01*
X84646Y48448D02*
X79944D01*
X79921Y48425D01*
X84646Y61441D02*
X99236D01*
X105906Y68110D01*
Y104134D01*
X105709Y104331D01*
X84646Y61441D02*
Y55448D01*
Y68441D02*
X92063D01*
X98031Y74409D01*
Y104134D01*
X98228Y104331D01*
X84646Y74433D02*
Y68441D01*
Y87795D02*
Y81433D01*
X85827Y121260D02*
Y116929D01*
X87402Y115354D01*
X97638D01*
X105906Y107087D01*
Y104528D01*
X105709Y104331D01*
X87358Y94488D02*
X92520D01*
X96985Y113780D02*
X95534D01*
X99145Y110169D01*
G75*
G02*
X99606Y109055I-1113J-1114D01*
G01*
Y107185D01*
X101083D01*
Y101476D01*
X99606D01*
Y99524D01*
X104331D01*
Y101476D01*
X102854D01*
Y107185D01*
X103580D01*
X96985Y113780D01*
G36*
X96985Y113780D02*
X95534D01*
X99145Y110169D01*
G75*
G02*
X99606Y109055I-1113J-1114D01*
G01*
Y107185D01*
X101083D01*
Y101476D01*
X99606D01*
Y99524D01*
X104331D01*
Y101476D01*
X102854D01*
Y107185D01*
X103580D01*
X96985Y113780D01*
G37*
X99606Y90681D02*
Y74409D01*
G75*
G02*
X99144Y73294I-1575J0D01*
G01*
X93178Y67329D01*
G75*
G02*
X92063Y66866I-1115J1112D01*
G01*
X87795D01*
Y65114D01*
X81496D01*
Y66277D01*
X79196Y63976D01*
X80180Y62992D01*
X81496D01*
Y64768D01*
X87795D01*
Y63016D01*
X98583D01*
X104331Y68763D01*
Y90681D01*
G75*
G02*
X99606I-2362J1839D01*
G01*
G36*
X99606Y90681D02*
Y74409D01*
G75*
G02*
X99144Y73294I-1575J0D01*
G01*
X93178Y67329D01*
G75*
G02*
X92063Y66866I-1115J1112D01*
G01*
X87795D01*
Y65114D01*
X81496D01*
Y66277D01*
X79196Y63976D01*
X80180Y62992D01*
X81496D01*
Y64768D01*
X87795D01*
Y63016D01*
X98583D01*
X104331Y68763D01*
Y90681D01*
G75*
G02*
X99606I-2362J1839D01*
G01*
G37*
X101969Y96457D02*
Y92520D01*
X113583Y179921D02*
X109843D01*
X106949Y177028D01*
X100787Y177618D01*
X119488Y179921D02*
Y187248D01*
X119685Y187445D01*
Y199606D02*
Y194445D01*
D02*
D15*
X15935Y59449D02*
X12935D01*
X15935Y83071D02*
X12935D01*
X15935Y102756D02*
X12935D01*
X15935Y138189D02*
X12935D01*
X15935Y173622D02*
X12935D01*
X16535Y58849D02*
Y55849D01*
Y60049D02*
Y63049D01*
Y82471D02*
Y79471D01*
Y83671D02*
Y86671D01*
Y102156D02*
Y99156D01*
Y103356D02*
Y106356D01*
Y137589D02*
Y134589D01*
Y138789D02*
Y141789D01*
Y173022D02*
Y170022D01*
Y174222D02*
Y177222D01*
X17135Y59449D02*
X20135D01*
X17135Y83071D02*
X20135D01*
X17135Y102756D02*
X20135D01*
X17135Y138189D02*
X20135D01*
X17135Y173622D02*
X20135D01*
X35396Y72107D02*
X32689Y74815D01*
X37195Y138189D02*
X34195D01*
X37195Y178346D02*
X34195D01*
X37371Y59024D02*
X35250Y56903D01*
X37371Y59873D02*
X35250Y61994D01*
X37371Y82646D02*
X35250Y80525D01*
X37371Y83495D02*
X35250Y85617D01*
X37371Y102331D02*
X35250Y100210D01*
X37371Y103180D02*
X35250Y105302D01*
X37795Y177746D02*
Y174746D01*
Y178946D02*
Y181946D01*
X37919Y72107D02*
X40626Y74815D01*
X38220Y59024D02*
X40341Y56903D01*
X38220Y59873D02*
X40341Y61994D01*
X38220Y82646D02*
X40341Y80525D01*
X38220Y83495D02*
X40341Y85617D01*
X38220Y102331D02*
X40341Y100210D01*
X38220Y103180D02*
X40341Y105302D01*
X38395Y138189D02*
X41395D01*
X38395Y178346D02*
X41395D01*
X39640Y192046D02*
X36933Y189339D01*
X39640Y194569D02*
X36933Y197276D01*
X40345Y188189D02*
X37345D01*
X41545D02*
X44545D01*
X41954Y121599D02*
X39832Y119478D01*
X41954Y124779D02*
X39832Y126900D01*
X42163Y192046D02*
X44870Y189339D01*
X45069Y61417D02*
X42069D01*
X45133Y121599D02*
X47254Y119478D01*
X45133Y124779D02*
X47254Y126900D01*
X45669Y60817D02*
Y57817D01*
X56772Y79921D02*
X53772D01*
X57917Y80890D02*
Y83890D01*
X60817Y20079D02*
X57817D01*
X60817Y187008D02*
X57817D01*
X61417Y19479D02*
Y16479D01*
Y20679D02*
Y23679D01*
Y186408D02*
Y183408D01*
Y187608D02*
Y190608D01*
X62017Y20079D02*
X65017D01*
X62017Y187008D02*
X65017D01*
X64880Y242483D02*
X62173Y239776D01*
X64880Y245006D02*
X62173Y247713D01*
X65542Y238976D02*
X62542D01*
X66742D02*
X69742D01*
X67403Y242483D02*
X70110Y239776D01*
X67403Y245006D02*
X70110Y247713D01*
X69085Y173622D02*
X66085D01*
X69685Y173022D02*
Y170022D01*
Y174222D02*
Y177222D01*
X70285Y173622D02*
X73285D01*
X79321Y48425D02*
X76321D01*
X79921Y47825D02*
Y44825D01*
Y49025D02*
Y52025D01*
X82077Y187008D02*
X79077D01*
X82677Y187608D02*
Y190608D01*
X83277Y187008D02*
X86277D01*
X83384Y47187D02*
X80677Y44480D01*
X83384Y49710D02*
X80677Y52417D01*
X84262Y141260D02*
X81262D01*
X84439Y20079D02*
X81439D01*
X84646Y198613D02*
Y195613D01*
Y199813D02*
Y202813D01*
Y219872D02*
Y216872D01*
Y221072D02*
Y224072D01*
X85039Y19479D02*
Y16479D01*
Y20679D02*
Y23679D01*
X85639Y20079D02*
X88639D01*
X85827Y142825D02*
Y145825D01*
X85907Y47187D02*
X88614Y44480D01*
X85907Y49710D02*
X88614Y52417D01*
X86097Y95750D02*
X83390Y98457D01*
X88620Y93227D02*
X91327Y90520D01*
X88620Y95750D02*
X91327Y98457D01*
X90345Y173622D02*
X87345D01*
X90945Y173022D02*
Y170022D01*
Y174222D02*
Y177222D01*
X92520Y93888D02*
Y90888D01*
Y95088D02*
Y98088D01*
X110424Y59449D02*
X107424D01*
X110424Y138189D02*
X107424D01*
X110599Y82646D02*
X108478Y80525D01*
X110599Y83495D02*
X108478Y85617D01*
X111024Y58849D02*
Y55849D01*
Y60049D02*
Y63049D01*
Y102156D02*
Y99156D01*
Y103356D02*
Y106356D01*
Y137589D02*
Y134589D01*
Y138789D02*
Y141789D01*
X111448Y82646D02*
X113569Y80525D01*
X111448Y83495D02*
X113569Y85617D01*
X111624Y59449D02*
X114624D01*
X111624Y102756D02*
X114624D01*
X111624Y138189D02*
X114624D01*
X118424Y193183D02*
X115717Y190476D01*
X118424Y195706D02*
X115717Y198413D01*
X119085Y199606D02*
X116085D01*
X119685Y200206D02*
Y203206D01*
X120285Y199606D02*
X123285D01*
X120946Y193183D02*
X123654Y190476D01*
X120946Y195706D02*
X123654Y198413D01*
X131683Y59449D02*
X128683D01*
X131683Y83071D02*
X128683D01*
X131683Y102756D02*
X128683D01*
X131683Y138189D02*
X128683D01*
X132283Y58849D02*
Y55849D01*
Y60049D02*
Y63049D01*
Y82471D02*
Y79471D01*
Y83671D02*
Y86671D01*
Y102156D02*
Y99156D01*
Y103356D02*
Y106356D01*
Y137589D02*
Y134589D01*
Y138789D02*
Y141789D01*
X132883Y59449D02*
X135883D01*
X132883Y83071D02*
X135883D01*
X132883Y102756D02*
X135883D01*
X132883Y138189D02*
X135883D01*
D02*
D16*
X16535Y59449D03*
Y83071D03*
Y102756D03*
Y138189D03*
Y173622D03*
X31890Y70866D03*
X37795Y59449D03*
Y83071D03*
Y102756D03*
Y138189D03*
Y178346D03*
X40945Y188189D03*
X45669Y61417D03*
X52756Y79921D03*
X54331Y87795D03*
X61417Y20079D03*
Y87795D03*
Y187008D03*
X66142Y238976D03*
X66535Y74803D03*
X69685Y173622D03*
X72047Y82677D03*
X79921Y48425D03*
Y168110D03*
X82677Y187008D03*
X84646Y87795D03*
Y199213D03*
Y220472D03*
X85039Y20079D03*
X90945Y173622D03*
X92520Y94488D03*
X101969Y92520D03*
X111024Y59449D03*
Y83071D03*
Y102756D03*
Y138189D03*
X119685Y199606D03*
X132283Y59449D03*
Y83071D03*
Y102756D03*
Y138189D03*
D02*
D17*
X43543Y113189D02*
Y70960D01*
X43657Y70846D01*
X64917Y79921D02*
Y84295D01*
X61417Y87795D01*
D02*
D18*
X53543Y163189D02*
Y184646D01*
Y194713D01*
X55118Y196287D01*
X100787Y189311D02*
X94744Y189902D01*
X90945Y193701D01*
Y227165D01*
X89370Y228740D01*
X55709D01*
X55512Y228937D01*
X55118D01*
D02*
D19*
X75827Y136260D02*
X90197D01*
X92913Y138976D01*
Y164567D01*
X100787Y172441D01*
Y177618D01*
D02*
D70*
X53543Y113189D03*
D02*
D71*
X43543D03*
Y123189D03*
Y133189D03*
Y143189D03*
Y153189D03*
Y163189D03*
X53543Y123189D03*
Y133189D03*
Y143189D03*
Y153189D03*
Y163189D03*
D02*
D20*
X40354Y200197D03*
Y210039D03*
X44094D03*
X47835Y200197D03*
Y210039D03*
D02*
D21*
X42126Y219909D03*
Y228909D03*
X55118Y196287D03*
Y205287D03*
D02*
D22*
X70079Y200000D03*
Y215748D03*
D02*
D23*
X55118Y215157D03*
Y228937D03*
D02*
D24*
X26815Y205118D03*
Y211811D03*
X33815Y205118D03*
Y211811D03*
X33902Y193307D03*
X36657Y70846D03*
X40902Y193307D03*
X43657Y70846D03*
X54374Y94488D03*
X57917Y79921D03*
X61374Y94488D03*
X64917Y79921D03*
X67366Y94488D03*
X74366D03*
X80358D03*
X87358D03*
D02*
D25*
X75827Y126260D03*
Y136260D03*
Y146260D03*
Y156260D03*
X85827Y121260D03*
Y131260D03*
Y141260D03*
Y151260D03*
D02*
D26*
X52681Y62972D03*
Y64941D03*
Y66909D03*
Y68878D03*
Y70846D03*
X70004Y62972D03*
Y64941D03*
Y66909D03*
Y68878D03*
Y70846D03*
D02*
D27*
X66142Y243744D03*
Y250744D03*
X80315Y243744D03*
Y250744D03*
X84646Y48448D03*
Y55448D03*
Y61441D03*
Y68441D03*
Y74433D03*
Y81433D03*
X119685Y187445D03*
Y194445D03*
D02*
D28*
X66339Y260236D03*
X80118D03*
D02*
D29*
X73228Y257677D03*
D02*
D72*
X100787Y177618D03*
Y189311D03*
D02*
D73*
X76181Y181496D03*
X79921Y173622D03*
X83661Y181496D03*
X98228Y104331D03*
X101969Y96457D03*
X105709Y104331D03*
D02*
D74*
X113583Y179921D03*
X119488D03*
X0Y0D02*
M02*
