G04 DesignSpark PCB PRO Gerber Version 10.0 Build 5299*
G04 #@! TF.Part,Single*
G04 #@! TF.FileFunction,Soldermask,Top*
G04 #@! TF.FilePolarity,Negative*
%FSLAX36Y36*%
%MOIN*%
G04 #@! TA.AperFunction,SMDPad,CuDef*
%ADD85R,0.03362X0.05724*%
%ADD88R,0.04150X0.05528*%
%ADD93R,0.04937X0.05291*%
%ADD86R,0.06500X0.07000*%
%ADD97R,0.04346X0.04346*%
%ADD95R,0.04543X0.04543*%
%ADD98R,0.04740X0.04740*%
%ADD94R,0.06906X0.06906*%
G04 #@! TA.AperFunction,ComponentPad*
%ADD83R,0.07496X0.07496*%
%ADD90C,0.06130*%
%ADD84C,0.07496*%
%ADD91C,0.07594*%
G04 #@! TA.AperFunction,SMDPad,CuDef*
%ADD92R,0.06512X0.02181*%
%ADD96R,0.12063X0.04465*%
%ADD89R,0.05291X0.04937*%
G04 #@! TA.AperFunction,WasherPad*
%ADD82C,0.13598*%
G04 #@! TA.AperFunction,SMDPad,CuDef*
%ADD87R,0.19898X0.09858*%
G04 #@! TD.AperFunction*
X0Y0D02*
D02*
D82*
X279528Y240157D03*
Y2523622D03*
X1185039Y240157D03*
Y2523622D03*
D02*
D83*
X535433Y1131890D03*
D02*
D84*
X435433D03*
Y1231890D03*
Y1331890D03*
Y1431890D03*
Y1531890D03*
Y1631890D03*
X535433Y1231890D03*
Y1331890D03*
Y1431890D03*
Y1531890D03*
Y1631890D03*
D02*
D85*
X403543Y2001969D03*
Y2100394D03*
X440945D03*
X478346Y2001969D03*
Y2100394D03*
D02*
D86*
X421260Y2199094D03*
Y2289094D03*
X551181Y1962874D03*
Y2052874D03*
D02*
D87*
X700787Y2000000D03*
Y2157480D03*
D02*
D88*
X551181Y2151575D03*
Y2289370D03*
D02*
D89*
X268150Y2051181D03*
Y2118110D03*
X338150Y2051181D03*
Y2118110D03*
X339016Y1933071D03*
X366575Y708461D03*
X409016Y1933071D03*
X436575Y708461D03*
X543740Y944882D03*
X579173Y799213D03*
X613740Y944882D03*
X649173Y799213D03*
X673661Y944882D03*
X743661D03*
X803583D03*
X873583D03*
D02*
D90*
X758268Y1262598D03*
Y1362598D03*
Y1462598D03*
Y1562598D03*
X858268Y1212598D03*
Y1312598D03*
Y1412598D03*
Y1512598D03*
D02*
D91*
X1108268Y1162559D03*
Y1612638D03*
D02*
D92*
X526815Y629720D03*
Y649406D03*
Y669091D03*
Y688776D03*
Y708461D03*
X700043Y629720D03*
Y649406D03*
Y669091D03*
Y688776D03*
Y708461D03*
D02*
D93*
X661417Y2437441D03*
Y2507441D03*
X803150Y2437441D03*
Y2507441D03*
X846457Y484484D03*
Y554484D03*
Y614406D03*
Y684406D03*
Y744327D03*
Y814327D03*
X1196850Y1874449D03*
Y1944449D03*
D02*
D94*
X663386Y2602362D03*
X801181D03*
D02*
D95*
X732283Y2576772D03*
D02*
D96*
X1007874Y1770276D03*
Y1899016D03*
D02*
D97*
X761811Y1814961D03*
X799213Y1736220D03*
X836614Y1814961D03*
X982283Y1043307D03*
X1019685Y964567D03*
X1057087Y1043307D03*
D02*
D98*
X1135827Y1799213D03*
X1194882D03*
X0Y0D02*
M02*
