G04 DesignSpark PCB PRO Gerber Version 10.0 Build 5299*
G04 #@! TF.Part,Single*
G04 #@! TF.FileFunction,Soldermask,Top*
G04 #@! TF.FilePolarity,Negative*
%FSLAX35Y35*%
%MOIN*%
G04 #@! TA.AperFunction,ComponentPad*
%ADD73C,0.02280*%
G04 #@! TA.AperFunction,ViaPad*
%ADD10C,0.04543*%
G04 #@! TA.AperFunction,WasherPad*
%ADD12C,0.04937*%
G04 #@! TA.AperFunction,ViaPad*
%ADD11C,0.06600*%
G04 #@! TA.AperFunction,ComponentPad*
%ADD14C,0.07102*%
G04 #@! TA.AperFunction,WasherPad*
%ADD13C,0.13598*%
G04 #@! TA.AperFunction,SMDPad,CuDef*
%ADD135R,0.04543X0.02575*%
%ADD134R,0.09268X0.06512*%
G04 #@! TD.AperFunction*
X0Y0D02*
D02*
D10*
X20578Y73229D03*
X20579Y129134D03*
X22547Y11811D03*
Y27559D03*
X24122Y107874D03*
X26287Y44095D03*
X28059Y141733D03*
Y148819D03*
X29240Y216339D03*
X30028Y32677D03*
Y120079D03*
X30421Y157087D03*
X30815Y196457D03*
X37508Y11811D03*
Y27559D03*
X39870Y59646D03*
X43020Y14173D03*
Y25197D03*
X43216Y96063D03*
X43413Y66536D03*
Y87993D03*
X46838Y144134D03*
X64279Y14173D03*
Y26378D03*
Y33465D03*
Y39764D03*
Y45276D03*
X65067Y110630D03*
X65460Y51969D03*
X69398Y80512D03*
X69791Y14567D03*
X71759Y230315D03*
X74319Y157087D03*
X74909Y186811D03*
Y224804D03*
X76878Y14567D03*
Y25984D03*
Y34252D03*
X77665Y215158D03*
X82193Y122638D03*
X82389Y20079D03*
Y39764D03*
Y45669D03*
Y50788D03*
X82783Y114567D03*
X86960Y192914D03*
Y199607D03*
X88295Y52363D03*
X91838Y57481D03*
X99515Y122638D03*
X100500Y107874D03*
X101287Y71654D03*
X104633Y68504D03*
X106208Y138189D03*
X106405Y155512D03*
Y173622D03*
Y205119D03*
Y244489D03*
X108177Y65355D03*
X113098Y99213D03*
X116641Y47244D03*
X117822Y80512D03*
X118019Y73820D03*
X123728Y10040D03*
X125696Y204725D03*
X131208Y168504D03*
X133374Y117323D03*
X134751Y145276D03*
X139870Y162205D03*
X141444Y212224D03*
X141838Y79922D03*
Y181299D03*
Y188189D03*
X151680Y229135D03*
Y234646D03*
Y240158D03*
X154437Y124804D03*
X154830Y181496D03*
X155224Y222835D03*
X161523Y76378D03*
X165854Y159449D03*
X169004Y187008D03*
X169791Y181103D03*
X173137Y92323D03*
X174122Y188976D03*
X175303Y52363D03*
X178846Y195276D03*
X180028Y169685D03*
X189082Y68111D03*
X189476Y95670D03*
X194988Y225591D03*
Y234646D03*
Y243701D03*
X197744Y55906D03*
Y60237D03*
X200894Y127559D03*
X211720Y99607D03*
X213098Y208268D03*
X213295Y234646D03*
X213492Y242126D03*
X214279Y220079D03*
X215854Y84646D03*
X219004Y55906D03*
Y60237D03*
X223925Y191733D03*
X224516Y152362D03*
Y165748D03*
Y178346D03*
X226090Y92520D03*
X227665Y216142D03*
X230027Y70473D03*
X231602Y212205D03*
X240264Y157874D03*
X241445Y121654D03*
X242626Y46851D03*
X243807Y175591D03*
X244201Y104724D03*
Y110630D03*
Y197244D03*
Y236614D03*
X246563Y65355D03*
X249909Y52363D03*
X253256Y61811D03*
Y81890D03*
X264870Y45670D03*
X270185Y182678D03*
X275500Y10040D03*
X279634Y79134D03*
Y118504D03*
Y157874D03*
Y236614D03*
X283177Y196851D03*
X299712Y54725D03*
X304437Y21260D03*
X314279Y245670D03*
X317035Y79134D03*
Y118504D03*
Y157874D03*
Y197244D03*
Y236614D03*
X320185Y53937D03*
X346563Y104331D03*
Y113977D03*
Y118898D03*
Y158268D03*
Y212993D03*
X357783Y238583D03*
X361917Y172048D03*
X362311Y103150D03*
X363492Y124213D03*
X363885Y38583D03*
X364082Y230512D03*
X364279Y210630D03*
X367232Y251772D03*
X367429Y33858D03*
X368019Y189370D03*
D02*
D11*
X41051Y245276D03*
X56799Y236221D03*
D02*
D12*
X60933Y49409D03*
X60933Y242717D03*
X329831Y49409D03*
D02*
D13*
X21759Y242520D03*
X339476Y18110D03*
D02*
D14*
X116618Y28859D03*
Y38859D03*
X126618Y28859D03*
Y38859D03*
X136618Y28859D03*
Y38859D03*
X146618Y28859D03*
Y38859D03*
X156618Y28859D03*
Y38859D03*
X166618Y28859D03*
Y38859D03*
X176618Y28859D03*
Y38859D03*
X186618Y28859D03*
Y38859D03*
X196618Y28859D03*
Y38859D03*
X206618Y28859D03*
Y38859D03*
X216618Y28859D03*
Y38859D03*
X226618Y28859D03*
Y38859D03*
X236618Y28859D03*
Y38859D03*
X246618Y28859D03*
Y38859D03*
X256618Y28859D03*
Y38859D03*
X266618Y28859D03*
Y38859D03*
X276618Y28859D03*
Y38859D03*
X286618Y28859D03*
Y38859D03*
X296618Y28859D03*
Y38859D03*
X306618Y28859D03*
Y38859D03*
D02*
D73*
X28858Y64606D03*
Y87362D03*
D02*
D134*
X20677Y78150D03*
Y95866D03*
Y117520D03*
Y135236D03*
Y156890D03*
Y174606D03*
Y196260D03*
Y213976D03*
X56504Y78150D03*
Y95866D03*
Y117520D03*
Y135236D03*
Y156890D03*
Y174606D03*
Y196260D03*
Y213976D03*
D02*
D135*
X286326Y12993D03*
X292626Y11024D03*
Y14961D03*
X0Y0D02*
M02*
