G05
M48
;#@! TF.GenerationSoftware,DesignSpark,DesignSpark PCB PRO,10.0.5344
;#@! TF.CreationDate,2022-02-08T12:33:49+00:00*
;#@! TF.FileFunction,Plated,1,4,PTH
;FILE_FORMAT=3:5
;TYPE=PLATED
INCH,TZ
FMAT,2
T1C000.01969
T2C000.03200
T3C000.04016
%
T001
X0.20578Y0.73229
X0.20579Y1.29134
X0.22547Y0.11811
X0.22547Y0.27559
X0.24122Y1.07874
X0.26287Y0.44095
X0.28059Y1.41733
X0.28059Y1.48819
X0.29240Y2.16339
X0.30028Y0.32677
X0.30028Y1.20079
X0.30421Y1.57087
X0.30815Y1.96457
X0.37508Y0.11811
X0.37508Y0.27559
X0.39870Y0.59646
X0.43020Y0.14173
X0.43020Y0.25197
X0.43216Y0.96063
X0.43413Y0.66536
X0.43413Y0.87993
X0.46838Y1.44134
X0.64279Y0.14173
X0.64279Y0.26378
X0.64279Y0.33465
X0.64279Y0.39764
X0.64279Y0.45276
X0.65067Y1.10630
X0.65460Y0.51969
X0.69398Y0.80512
X0.69791Y0.14567
X0.71759Y2.30315
X0.74319Y1.57087
X0.74909Y1.86811
X0.74909Y2.24804
X0.76878Y0.14567
X0.76878Y0.25984
X0.76878Y0.34252
X0.77665Y2.15158
X0.82193Y1.22638
X0.82389Y0.20079
X0.82389Y0.39764
X0.82389Y0.45669
X0.82389Y0.50788
X0.82783Y1.14567
X0.86960Y1.92914
X0.86960Y1.99607
X0.88295Y0.52363
X0.91838Y0.57481
X0.99515Y1.22638
X1.00500Y1.07874
X1.01287Y0.71654
X1.04633Y0.68504
X1.06208Y1.38189
X1.06405Y1.55512
X1.06405Y1.73622
X1.06405Y2.05119
X1.06405Y2.44489
X1.08177Y0.65355
X1.13098Y0.99213
X1.16641Y0.47244
X1.17822Y0.80512
X1.18019Y0.73820
X1.23728Y0.10040
X1.25696Y2.04725
X1.31208Y1.68504
X1.33374Y1.17323
X1.34751Y1.45276
X1.39870Y1.62205
X1.41444Y2.12224
X1.41838Y0.79922
X1.41838Y1.81299
X1.41838Y1.88189
X1.51680Y2.29135
X1.51680Y2.34646
X1.51680Y2.40158
X1.54437Y1.24804
X1.54830Y1.81496
X1.55224Y2.22835
X1.61523Y0.76378
X1.65854Y1.59449
X1.69004Y1.87008
X1.69791Y1.81103
X1.73137Y0.92323
X1.74122Y1.88976
X1.75303Y0.52363
X1.78846Y1.95276
X1.80028Y1.69685
X1.89082Y0.68111
X1.89476Y0.95670
X1.94988Y2.25591
X1.94988Y2.34646
X1.94988Y2.43701
X1.97744Y0.55906
X1.97744Y0.60237
X2.00894Y1.27559
X2.11720Y0.99607
X2.13098Y2.08268
X2.13295Y2.34646
X2.13492Y2.42126
X2.14279Y2.20079
X2.15854Y0.84646
X2.19004Y0.55906
X2.19004Y0.60237
X2.23925Y1.91733
X2.24516Y1.52362
X2.24516Y1.65748
X2.24516Y1.78346
X2.26090Y0.92520
X2.27665Y2.16142
X2.30027Y0.70473
X2.31602Y2.12205
X2.40264Y1.57874
X2.41445Y1.21654
X2.42626Y0.46851
X2.43807Y1.75591
X2.44201Y1.04724
X2.44201Y1.10630
X2.44201Y1.97244
X2.44201Y2.36614
X2.46563Y0.65355
X2.49909Y0.52363
X2.53256Y0.61811
X2.53256Y0.81890
X2.64870Y0.45670
X2.70185Y1.82678
X2.75500Y0.10040
X2.79634Y0.79134
X2.79634Y1.18504
X2.79634Y1.57874
X2.79634Y2.36614
X2.83177Y1.96851
X2.99712Y0.54725
X3.04437Y0.21260
X3.14279Y2.45670
X3.17035Y0.79134
X3.17035Y1.18504
X3.17035Y1.57874
X3.17035Y1.97244
X3.17035Y2.36614
X3.20185Y0.53937
X3.46563Y1.04331
X3.46563Y1.13977
X3.46563Y1.18898
X3.46563Y1.58268
X3.46563Y2.12993
X3.57783Y2.38583
X3.61917Y1.72048
X3.62311Y1.03150
X3.63492Y1.24213
X3.63885Y0.38583
X3.64082Y2.30512
X3.64279Y2.10630
X3.67232Y2.51772
X3.67429Y0.33858
X3.68019Y1.89370
T002
X0.41051Y2.45276
X0.56799Y2.36221
T003
X1.16618Y0.28859
X1.16618Y0.38859
X1.26618Y0.28859
X1.26618Y0.38859
X1.36618Y0.28859
X1.36618Y0.38859
X1.46618Y0.28859
X1.46618Y0.38859
X1.56618Y0.28859
X1.56618Y0.38859
X1.66618Y0.28859
X1.66618Y0.38859
X1.76618Y0.28859
X1.76618Y0.38859
X1.86618Y0.28859
X1.86618Y0.38859
X1.96618Y0.28859
X1.96618Y0.38859
X2.06618Y0.28859
X2.06618Y0.38859
X2.16618Y0.28859
X2.16618Y0.38859
X2.26618Y0.28859
X2.26618Y0.38859
X2.36618Y0.28859
X2.36618Y0.38859
X2.46618Y0.28859
X2.46618Y0.38859
X2.56618Y0.28859
X2.56618Y0.38859
X2.66618Y0.28859
X2.66618Y0.38859
X2.76618Y0.28859
X2.76618Y0.38859
X2.86618Y0.28859
X2.86618Y0.38859
X2.96618Y0.28859
X2.96618Y0.38859
X3.06618Y0.28859
X3.06618Y0.38859
M30
