G04 DesignSpark PCB PRO Gerber Version 10.0 Build 5299*
G04 #@! TF.Part,Single*
G04 #@! TF.FileFunction,Copper,L4,Bot*
G04 #@! TF.FilePolarity,Positive*
%FSLAX35Y35*%
%MOIN*%
G04 #@! TA.AperFunction,SMDPad,CuDef*
%ADD149R,0.01969X0.04232*%
%ADD129R,0.02559X0.04724*%
%ADD127R,0.03150X0.07087*%
%ADD131R,0.03937X0.04291*%
%ADD137R,0.06300X0.10200*%
%ADD144R,0.07874X0.08583*%
%ADD148R,0.03150X0.03150*%
%ADD152R,0.15748X0.15748*%
G04 #@! TD.AperFunction*
%ADD106C,0.00500*%
%ADD108C,0.00787*%
%ADD111C,0.00984*%
%ADD124C,0.01181*%
%ADD113C,0.01500*%
%ADD126C,0.01575*%
%ADD123C,0.01969*%
%ADD125C,0.02362*%
G04 #@! TA.AperFunction,ViaPad*
%ADD112C,0.03543*%
G04 #@! TA.AperFunction,SMDPad,CuDef*
%ADD128C,0.04724*%
G04 #@! TA.AperFunction,ComponentPad*
%ADD114C,0.06102*%
G04 #@! TA.AperFunction,SMDPad,CuDef*
%ADD143R,0.04528X0.01181*%
%ADD136R,0.05118X0.01181*%
%ADD134R,0.05118X0.02362*%
%ADD138R,0.04724X0.02559*%
%ADD139R,0.06004X0.02559*%
%ADD141R,0.05118X0.03150*%
%ADD147R,0.11063X0.03465*%
%ADD133R,0.04134X0.03937*%
%ADD130R,0.04291X0.03937*%
%ADD132R,0.08661X0.04134*%
%ADD140R,0.07480X0.04331*%
%ADD145R,0.06299X0.04724*%
%ADD135R,0.08661X0.07087*%
%ADD142R,0.11811X0.08268*%
%ADD146R,0.12992X0.12992*%
%ADD151R,0.14173X0.13780*%
G04 #@! TD.AperFunction*
X0Y0D02*
D02*
D106*
X9543Y252053D02*
Y8578D01*
X12227Y5894D01*
X367906D01*
X370590Y8578D01*
Y252053D01*
X367906Y254737D01*
X12227D01*
X9543Y252053D01*
X14423Y242520D02*
G75*
G02*
X29096I7337J0D01*
G01*
G75*
G02*
X14423I-7337J0D01*
G01*
X24919Y137258D02*
X31285D01*
Y131246D01*
X29632D01*
Y129778D01*
X31285D01*
Y123766D01*
X24919D01*
Y125242D01*
X22941D01*
G75*
G02*
X21859Y125690I0J1530D01*
G01*
X21163Y126386D01*
G75*
G02*
X17770Y129134I-585J2748D01*
G01*
G75*
G02*
X23388I2809J0D01*
G01*
G75*
G02*
X23326Y128549I-2810J0D01*
G01*
X23574Y128301D01*
X24919D01*
Y129778D01*
X26573D01*
Y131246D01*
X24919D01*
Y137258D01*
X51188Y107774D02*
G75*
G02*
X51636Y106693I-1081J-1081D01*
G01*
Y73425D01*
G75*
G02*
X51188Y72344I-1530J0D01*
G01*
X48826Y69981D01*
G75*
G02*
X47744Y69533I-1081J1081D01*
G01*
X36392D01*
Y68323D01*
X41640D01*
G75*
G02*
X46616Y66535I2167J-1787D01*
G01*
G75*
G02*
X41640Y64748I-2809J0D01*
G01*
X36982D01*
Y60577D01*
X36392D01*
Y49947D01*
X25262D01*
Y61785D01*
X29199D01*
Y62315D01*
G75*
G02*
X26541Y64606I-341J2292D01*
G01*
G75*
G02*
X29789Y66728I2317J0D01*
G01*
Y85241D01*
G75*
G02*
X26541Y87362I-931J2122D01*
G01*
G75*
G02*
X29199Y89654I2317J0D01*
G01*
Y90183D01*
X25262D01*
Y102022D01*
X36392D01*
Y91392D01*
X36982D01*
Y87220D01*
X39130D01*
X41011Y89102D01*
G75*
G02*
X40998Y89370I2797J270D01*
G01*
G75*
G02*
X45821Y91328I2809J0D01*
G01*
Y102516D01*
X44748Y103589D01*
X37115D01*
G75*
G02*
X36033Y104037I0J1530D01*
G01*
X35245Y104824D01*
G75*
G02*
X34797Y105906I1081J1081D01*
G01*
Y106703D01*
X33321D01*
Y113069D01*
X39333D01*
Y106703D01*
X37856D01*
Y106648D01*
X45381D01*
G75*
G02*
X46463Y106200I0J-1530D01*
G01*
X48432Y104231D01*
G75*
G02*
X48577Y104064I-1080J-1082D01*
G01*
Y106059D01*
X46419Y108217D01*
Y106703D01*
X40407D01*
Y113069D01*
X46419D01*
Y111415D01*
X46913D01*
G75*
G02*
X47995Y110967I0J-1530D01*
G01*
X51188Y107774D01*
X88636Y69541D02*
X95041D01*
Y59199D01*
X89508D01*
G75*
G02*
X81996Y53293I-7512J1825D01*
G01*
X77271D01*
G75*
G03*
X72009Y48031I0J-5262D01*
G01*
Y42770D01*
X73016D01*
Y36758D01*
X72009D01*
Y36604D01*
X72795D01*
Y30238D01*
X66783D01*
Y36604D01*
X67572D01*
Y36758D01*
X66650D01*
Y42770D01*
X67572D01*
Y48031D01*
G75*
G02*
X77271Y57730I9699J0D01*
G01*
X81996D01*
G75*
G03*
X84737Y59199I0J3294D01*
G01*
X79974D01*
Y59789D01*
X54581D01*
Y68951D01*
X72691D01*
Y70110D01*
X72578Y70223D01*
X55193D01*
X53899Y68930D01*
Y51150D01*
X54939Y50109D01*
G75*
G02*
X55474Y48819I-1290J-1291D01*
G01*
Y44874D01*
X56654D01*
Y38508D01*
X50642D01*
Y44874D01*
X51824D01*
Y48063D01*
X50784Y49104D01*
G75*
G02*
X50250Y50394I1290J1291D01*
G01*
Y69685D01*
G75*
G02*
X50784Y70976I1825J0D01*
G01*
X53146Y73338D01*
G75*
G02*
X54437Y73872I1291J-1290D01*
G01*
X73334D01*
G75*
G02*
X74624Y73338I0J-1825D01*
G01*
X75806Y72156D01*
G75*
G02*
X76341Y70866I-1290J-1291D01*
G01*
Y68951D01*
X79974D01*
Y69541D01*
X86380D01*
Y68951D01*
X88636D01*
Y69541D01*
X73059Y23675D02*
X80606D01*
Y16482D01*
X73059D01*
Y23675D01*
Y43360D02*
X80606D01*
Y36167D01*
X73059D01*
Y43360D01*
X72053Y23085D02*
X73016D01*
Y17073D01*
X66650D01*
Y17467D01*
X56654D01*
Y16547D01*
X50642D01*
Y17467D01*
X39136D01*
Y16679D01*
X32927D01*
Y22691D01*
X39136D01*
Y21904D01*
X50642D01*
Y22913D01*
X56654D01*
Y21904D01*
X66650D01*
Y23085D01*
X67616D01*
Y23238D01*
X66783D01*
Y29604D01*
X72795D01*
Y23238D01*
X72053D01*
Y23085D01*
X57927Y49409D02*
G75*
G02*
X63939I3006J0D01*
G01*
G75*
G02*
X57927I-3006J0D01*
G01*
X50642Y37874D02*
X56654D01*
Y31508D01*
X55474D01*
Y29913D01*
X56654D01*
Y23547D01*
X50642D01*
Y29913D01*
X51824D01*
Y31508D01*
X50642D01*
Y37874D01*
X24069Y15506D02*
X35986D01*
Y8116D01*
X24069D01*
Y15506D01*
Y31254D02*
X35986D01*
Y23864D01*
X24069D01*
Y31254D01*
X31329Y137848D02*
X38876D01*
Y130656D01*
X31329D01*
Y137848D01*
X63045Y130315D02*
G75*
G02*
X68663I2809J0D01*
G01*
G75*
G02*
X65586Y127519I-2809J0D01*
G01*
X63575Y125508D01*
G75*
G02*
X62308Y124984I-1264J1264D01*
G01*
X38285D01*
Y123766D01*
X31919D01*
Y129778D01*
X38285D01*
Y128559D01*
X61570D01*
X63058Y130046D01*
G75*
G02*
X63045Y130315I2797J270D01*
G01*
X181018Y93299D02*
G75*
G02*
X184411Y90551I585J-2748D01*
G01*
G75*
G02*
X179131Y89217I-2809J0D01*
G01*
G75*
G02*
X173736Y90743I-2646J942D01*
G01*
X171126Y93353D01*
X131602D01*
G75*
G02*
X130520Y93801I0J1530D01*
G01*
X126584Y97737D01*
G75*
G02*
X126136Y98819I1081J1081D01*
G01*
Y127713D01*
X124276Y129573D01*
X101174D01*
G75*
G02*
X99431Y127958I-3036J1530D01*
G01*
Y126037D01*
X100219D01*
Y119238D01*
X95585D01*
Y126037D01*
X96372D01*
Y128197D01*
G75*
G02*
X94738Y131102I1766J2905D01*
G01*
G75*
G02*
X101174Y132632I3400J0D01*
G01*
X124909D01*
G75*
G02*
X125991Y132184I0J-1530D01*
G01*
X128747Y129428D01*
G75*
G02*
X128892Y129261I-1080J-1082D01*
G01*
Y132044D01*
X125457Y135478D01*
X84204D01*
X82674Y133948D01*
G75*
G02*
X84215Y131102I-1859J-2846D01*
G01*
G75*
G02*
X77779Y129573I-3400J0D01*
G01*
X73338D01*
X72266Y128500D01*
Y126037D01*
X73053D01*
Y119238D01*
X68419D01*
Y126037D01*
X69207D01*
Y129134D01*
G75*
G02*
X69655Y130215I1530J0D01*
G01*
X71623Y132184D01*
G75*
G02*
X72705Y132632I1081J-1081D01*
G01*
X77779D01*
G75*
G02*
X79285Y134139I3036J-1530D01*
G01*
Y134252D01*
G75*
G02*
X79733Y135333I1530J0D01*
G01*
X82489Y138089D01*
G75*
G02*
X83571Y138537I1081J-1081D01*
G01*
X126090D01*
G75*
G02*
X127172Y138089I0J-1530D01*
G01*
X131503Y133759D01*
G75*
G02*
X131951Y132677I-1081J-1081D01*
G01*
Y100633D01*
X133417Y99167D01*
X174515D01*
G75*
G02*
X175597Y98719I0J-1530D01*
G01*
X181018Y93299D01*
X102553Y126628D02*
X108368D01*
Y118648D01*
X102553D01*
Y126628D01*
X114793Y107533D02*
X122341D01*
Y94041D01*
X114793D01*
Y107533D01*
X271813Y184967D02*
G75*
G02*
X272994Y182678I-1628J-2289D01*
G01*
G75*
G02*
X267376I-2809J0D01*
G01*
G75*
G02*
X268557Y184967I2809J0D01*
G01*
Y186728D01*
X267543Y187742D01*
X264923D01*
Y181746D01*
X265514D01*
Y177309D01*
X264923D01*
Y171904D01*
X265514D01*
Y126128D01*
X264923D01*
Y125841D01*
X265461D01*
G75*
G02*
X266474Y125420I0J-1431D01*
G01*
X267258Y124635D01*
G75*
G02*
X267679Y123622I-1010J-1014D01*
G01*
Y102362D01*
G75*
G02*
X267258Y101349I-1431J0D01*
G01*
X264506Y98596D01*
G75*
G02*
X263492Y98175I-1014J1010D01*
G01*
X217431D01*
X213151Y93895D01*
Y85411D01*
G75*
G02*
X218663Y84646I2703J-765D01*
G01*
G75*
G02*
X216891Y82035I-2809J0D01*
G01*
Y47444D01*
X217236Y47099D01*
G75*
G02*
X217655Y46087I-1012J-1012D01*
G01*
G75*
G02*
Y46086I-663J0D01*
G01*
G75*
G02*
Y46084I-660J-1D01*
G01*
Y42813D01*
G75*
G02*
X220706Y38859I-1037J-3955D01*
G01*
G75*
G02*
X213151Y36691I-4089J0D01*
G01*
Y33465D01*
G75*
G02*
X212730Y32452I-1431J0D01*
G01*
X210480Y30201D01*
G75*
G02*
X208871Y25447I-3862J-1342D01*
G01*
X213415D01*
G75*
G02*
X211939Y28859I3203J3411D01*
G01*
G75*
G02*
X221297I4679J0D01*
G01*
G75*
G02*
X219820Y25447I-4679J0D01*
G01*
X224364D01*
G75*
G02*
X222529Y28859I2254J3411D01*
G01*
G75*
G02*
X230706I4089J0D01*
G01*
G75*
G02*
X228039Y25025I-4089J0D01*
G01*
G75*
G02*
X227628Y24184I-1420J173D01*
G01*
X226450Y23006D01*
G75*
G02*
X225437Y22585I-1014J1010D01*
G01*
X202665D01*
G75*
G02*
X201652Y23006I0J1431D01*
G01*
X200474Y24184D01*
G75*
G02*
X200053Y25197I1010J1014D01*
G01*
Y26641D01*
G75*
G02*
X192961Y30688I-3435J2217D01*
G01*
X190631Y33019D01*
G75*
G02*
X190210Y34032I1010J1014D01*
G01*
Y35861D01*
G75*
G02*
X183131Y35738I-3593J2998D01*
G01*
Y30995D01*
G75*
G02*
X190706Y28859I3486J-2136D01*
G01*
G75*
G02*
X183131Y26722I-4089J0D01*
G01*
Y23862D01*
X185385Y21609D01*
X251654D01*
X255088Y25043D01*
Y25067D01*
G75*
G02*
X252529Y28859I1530J3792D01*
G01*
G75*
G02*
X260706I4089J0D01*
G01*
G75*
G02*
X258147Y25067I-4089J0D01*
G01*
Y24410D01*
G75*
G02*
X257699Y23328I-1530J0D01*
G01*
X253617Y19246D01*
X260866D01*
X265088Y23469D01*
Y25067D01*
G75*
G02*
X262529Y28859I1530J3792D01*
G01*
G75*
G02*
X270706I4089J0D01*
G01*
G75*
G02*
X268147Y25067I-4089J0D01*
G01*
Y22835D01*
G75*
G02*
X267699Y21754I-1530J0D01*
G01*
X262581Y16635D01*
G75*
G02*
X261499Y16187I-1081J1081D01*
G01*
X175500D01*
G75*
G02*
X174418Y16635I0J1530D01*
G01*
X170481Y20572D01*
G75*
G02*
X170033Y21654I1081J1081D01*
G01*
Y25660D01*
G75*
G02*
X161939Y28859I-3415J3198D01*
G01*
G75*
G02*
X170033Y32057I4679J0D01*
G01*
Y36611D01*
G75*
G02*
X162529Y38859I-3415J2248D01*
G01*
G75*
G02*
X165112Y42660I4089J0D01*
G01*
Y56454D01*
X161283Y60282D01*
X152830D01*
X157699Y55413D01*
G75*
G02*
X158147Y54331I-1081J-1081D01*
G01*
Y42650D01*
G75*
G02*
X160706Y38859I-1530J-3792D01*
G01*
G75*
G02*
X152529I-4089J0D01*
G01*
G75*
G02*
X155088Y42650I4089J0D01*
G01*
Y53698D01*
X150866Y57920D01*
X142752D01*
G75*
G02*
X142920Y57775I-915J-1225D01*
G01*
X147699Y52995D01*
G75*
G02*
X148147Y51914I-1081J-1081D01*
G01*
Y42650D01*
G75*
G02*
X150706Y38859I-1530J-3792D01*
G01*
G75*
G02*
X142529I-4089J0D01*
G01*
G75*
G02*
X145088Y42650I4089J0D01*
G01*
Y51280D01*
X141205Y55164D01*
X134878D01*
G75*
G02*
X135046Y55019I-915J-1225D01*
G01*
X137699Y52365D01*
G75*
G02*
X138147Y51284I-1081J-1081D01*
G01*
Y42650D01*
G75*
G02*
X140706Y38859I-1530J-3792D01*
G01*
G75*
G02*
X132529I-4089J0D01*
G01*
G75*
G02*
X135088Y42650I4089J0D01*
G01*
Y50650D01*
X133331Y52408D01*
X109949D01*
G75*
G02*
X108867Y52856I0J1530D01*
G01*
X104143Y57580D01*
G75*
G02*
X103694Y58662I1081J1081D01*
G01*
Y70124D01*
X103643D01*
G75*
G02*
X98478Y71654I-2356J1530D01*
G01*
G75*
G02*
X103643Y73183I2809J0D01*
G01*
X104436D01*
G75*
G02*
X105518Y72735I0J-1530D01*
G01*
X106306Y71948D01*
G75*
G02*
X106754Y70867I-1081J-1081D01*
G01*
Y70799D01*
G75*
G02*
X110730Y70034I1620J-2295D01*
G01*
X111523D01*
G75*
G02*
X112605Y69586I0J-1530D01*
G01*
X114573Y67617D01*
G75*
G02*
X115021Y66536I-1081J-1081D01*
G01*
Y60083D01*
X116881Y58223D01*
X123601D01*
G75*
G02*
X123434Y58368I915J1225D01*
G01*
X122253Y59549D01*
G75*
G02*
X121805Y60630I1081J1081D01*
G01*
Y63540D01*
X121520Y63825D01*
X120572D01*
G75*
G02*
X115407Y65355I-2356J1530D01*
G01*
G75*
G02*
X120572Y66884I2809J0D01*
G01*
X122153D01*
G75*
G02*
X123235Y66436I0J-1530D01*
G01*
X124416Y65255D01*
G75*
G02*
X124864Y64174I-1081J-1081D01*
G01*
Y61264D01*
X125149Y60979D01*
X126335D01*
X125402Y61911D01*
G75*
G02*
X124954Y62993I1081J1081D01*
G01*
Y65115D01*
X124265Y65805D01*
G75*
G02*
X123817Y66886I1081J1081D01*
G01*
Y67073D01*
X122161D01*
Y73085D01*
X123817D01*
Y73766D01*
X122161D01*
Y75242D01*
X71754D01*
G75*
G02*
X66589Y76772I-2356J1530D01*
G01*
G75*
G02*
X71754Y78301I2809J0D01*
G01*
X122161D01*
Y79778D01*
X128528D01*
Y73766D01*
X126876D01*
Y73085D01*
X128528D01*
Y67073D01*
X127322D01*
X127565Y66830D01*
G75*
G02*
X128013Y65748I-1081J-1081D01*
G01*
Y63626D01*
X128298Y63341D01*
X161917D01*
G75*
G02*
X162998Y62893I0J-1530D01*
G01*
X167723Y58169D01*
G75*
G02*
X168171Y57087I-1081J-1081D01*
G01*
Y42641D01*
G75*
G02*
X170033Y41106I-1554J-3782D01*
G01*
Y65115D01*
X168961Y66187D01*
X156406D01*
G75*
G02*
X155324Y66635I0J1530D01*
G01*
X147913Y74046D01*
G75*
G02*
X143248Y77923I-1350J3120D01*
G01*
X138843Y82329D01*
X68217D01*
G75*
G02*
X67135Y82777I0J1530D01*
G01*
X60442Y89470D01*
G75*
G02*
X59994Y90551I1081J1081D01*
G01*
Y97388D01*
X53990D01*
Y107730D01*
X60396D01*
Y107140D01*
X72986D01*
Y110970D01*
X72199D01*
Y117770D01*
X76833D01*
Y110970D01*
X76045D01*
Y107140D01*
X77317D01*
Y112598D01*
G75*
G02*
X77765Y113680I1530J0D01*
G01*
X86033Y121948D01*
G75*
G02*
X87115Y122396I1081J-1081D01*
G01*
X89876D01*
G75*
G02*
X95041Y120866I2356J-1530D01*
G01*
G75*
G02*
X89876Y119337I-2809J0D01*
G01*
X87748D01*
X80376Y111965D01*
Y107140D01*
X90309D01*
Y107874D01*
G75*
G02*
X90757Y108956I1530J0D01*
G01*
X91938Y110137D01*
G75*
G02*
X93020Y110585I1081J-1081D01*
G01*
X100152D01*
Y110970D01*
X99364D01*
Y117770D01*
X103998D01*
Y110970D01*
X103211D01*
Y109843D01*
G75*
G02*
X102763Y108761I-1530J0D01*
G01*
X101975Y107974D01*
G75*
G02*
X100893Y107526I-1081J1081D01*
G01*
X93653D01*
X93368Y107241D01*
Y107140D01*
X94451D01*
Y97978D01*
X89295D01*
Y97197D01*
X91004Y95488D01*
X101334D01*
X104746Y98900D01*
G75*
G02*
X106012Y99425I1266J-1262D01*
G01*
X108384D01*
Y100644D01*
X109736D01*
Y100931D01*
X108384D01*
Y102150D01*
X106561D01*
G75*
G02*
X101585Y103937I-2167J1787D01*
G01*
G75*
G02*
X106561Y105724I2809J0D01*
G01*
X108384D01*
Y106943D01*
X114750D01*
Y100931D01*
X113311D01*
Y100644D01*
X114750D01*
Y94632D01*
X108384D01*
Y95850D01*
X106752D01*
X103341Y92439D01*
G75*
G02*
X102075Y91913I-1266J1262D01*
G01*
X90267D01*
G75*
G02*
X89000Y92437I-3J1787D01*
G01*
X86244Y95193D01*
G75*
G02*
X85720Y96457I1264J1264D01*
G01*
G75*
G02*
Y96460I641J2D01*
G01*
Y97978D01*
X71715D01*
Y94334D01*
X74362Y91687D01*
X152862D01*
G75*
G02*
X153944Y91239I0J-1530D01*
G01*
X154937Y90246D01*
G75*
G02*
X160022Y86319I1862J-2844D01*
G01*
X167252Y79089D01*
X178846D01*
G75*
G02*
X179928Y78641I0J-1530D01*
G01*
X182683Y75885D01*
G75*
G02*
X183131Y74804I-1081J-1081D01*
G01*
Y41980D01*
G75*
G02*
X190210Y41857I3486J-3121D01*
G01*
Y46457D01*
G75*
G02*
X190631Y47470I1431J0D01*
G01*
X199856Y56696D01*
Y110630D01*
G75*
G02*
X200277Y111644I1431J0D01*
G01*
X216809Y128176D01*
G75*
G02*
X217822Y128597I1014J-1010D01*
G01*
X245775D01*
G75*
G02*
X246789Y128176I0J-1431D01*
G01*
X247156Y127809D01*
X257140D01*
Y171904D01*
X257730D01*
Y172191D01*
X245776D01*
G75*
G02*
X244762Y172612I0J1431D01*
G01*
X244504Y172869D01*
G75*
G02*
X240998Y175591I-697J2721D01*
G01*
G75*
G02*
X244504Y178312I2809J0D01*
G01*
X244762Y178569D01*
G75*
G02*
X245776Y178990I1014J-1010D01*
G01*
X257140D01*
Y180065D01*
X236526D01*
X233427Y176966D01*
Y151969D01*
G75*
G02*
X233006Y150955I-1431J0D01*
G01*
X227104Y145053D01*
G75*
G02*
X226091Y144632I-1014J1010D01*
G01*
X220441D01*
Y139925D01*
X212067D01*
Y152201D01*
X220441D01*
Y147494D01*
X225498D01*
X230565Y152561D01*
Y160324D01*
X228285Y158045D01*
G75*
G02*
X227272Y157624I-1014J1010D01*
G01*
X220441D01*
Y152917D01*
X212067D01*
Y165193D01*
X220441D01*
Y160486D01*
X226679D01*
X228203Y162010D01*
Y172135D01*
X227102Y171035D01*
G75*
G02*
X226087Y170616I-1012J1011D01*
G01*
X220441D01*
Y165909D01*
X212067D01*
Y178185D01*
X220441D01*
Y173478D01*
X225498D01*
X226234Y174215D01*
Y179134D01*
G75*
G02*
X226655Y180147I1431J0D01*
G01*
X230116Y183608D01*
X220441D01*
Y178902D01*
X212067D01*
Y191177D01*
X220441D01*
Y186470D01*
X229828D01*
X231100Y187742D01*
X228455D01*
G75*
G02*
X227302Y188219I-2J1628D01*
G01*
X219904Y195617D01*
X217220D01*
Y194240D01*
X210854D01*
Y200252D01*
X217220D01*
Y198872D01*
X220576D01*
G75*
G02*
X221730Y198396I2J-1628D01*
G01*
X229127Y190998D01*
X268215D01*
G75*
G02*
X269368Y190521I2J-1628D01*
G01*
X271336Y188553D01*
G75*
G02*
X271813Y187402I-1151J-1151D01*
G01*
Y184967D01*
X268163Y100447D02*
X280081D01*
Y90104D01*
X268163D01*
Y100447D01*
X222529Y38859D02*
G75*
G02*
X230706I4089J0D01*
G01*
G75*
G02*
X222529I-4089J0D01*
G01*
X232529Y28859D02*
G75*
G02*
X240706I4089J0D01*
G01*
G75*
G02*
X232529I-4089J0D01*
G01*
X238147Y42650D02*
G75*
G02*
X240706Y38859I-1530J-3792D01*
G01*
G75*
G02*
X232529I-4089J0D01*
G01*
G75*
G02*
X235088Y42650I4089J0D01*
G01*
Y72054D01*
G75*
G02*
X233809Y74410I1530J2356D01*
G01*
G75*
G02*
X239427I2809J0D01*
G01*
G75*
G02*
X238147Y72054I-2809J0D01*
G01*
Y42650D01*
X292455Y223848D02*
G75*
G02*
X292876Y222835I-1010J-1014D01*
G01*
Y72441D01*
G75*
G02*
X292455Y71428I-1431J0D01*
G01*
X287734Y66706D01*
G75*
G02*
X286720Y66285I-1014J1010D01*
G01*
X256262D01*
Y64533D01*
X254785D01*
Y64168D01*
G75*
G02*
X255214Y59798I-1530J-2356D01*
G01*
X269594D01*
G75*
G02*
X270676Y59350I0J-1530D01*
G01*
X272644Y57381D01*
G75*
G02*
X273092Y56300I-1081J-1081D01*
G01*
Y40929D01*
G75*
G02*
X280706Y38859I3526J-2070D01*
G01*
G75*
G02*
X273092Y36788I-4089J0D01*
G01*
Y35531D01*
X275766Y32857D01*
G75*
G02*
X280706Y28859I852J-3999D01*
G01*
G75*
G02*
X272529I-4089J0D01*
G01*
G75*
G02*
X273198Y31100I4089J0D01*
G01*
X270481Y33817D01*
G75*
G02*
X270033Y34898I1081J1081D01*
G01*
Y35660D01*
G75*
G02*
X261939Y38859I-3415J3198D01*
G01*
G75*
G02*
X270033Y42057I4679J0D01*
G01*
Y55666D01*
X268961Y56739D01*
X265670D01*
G75*
G02*
X268269Y53937I-210J-2801D01*
G01*
G75*
G02*
X264876Y51190I-2809J0D01*
G01*
X258329Y44643D01*
Y42572D01*
G75*
G02*
X260706Y38859I-1711J-3713D01*
G01*
G75*
G02*
X252529I-4089J0D01*
G01*
G75*
G02*
X255270Y42719I4089J0D01*
G01*
Y45276D01*
G75*
G02*
X255718Y46357I1530J0D01*
G01*
X262713Y53353D01*
G75*
G02*
X265250Y56739I2748J585D01*
G01*
X249319D01*
G75*
G02*
X248335Y57097I0J1529D01*
G01*
G75*
G02*
X244935Y59843I-591J2746D01*
G01*
G75*
G02*
X250553I2809J0D01*
G01*
G75*
G02*
X250552Y59798I-2811J2D01*
G01*
X251298D01*
G75*
G02*
X251726Y64168I1958J2014D01*
G01*
Y64533D01*
X250250D01*
Y69393D01*
G75*
G02*
X249569Y69100I-888J1122D01*
G01*
Y67333D01*
X248557D01*
G75*
G02*
X249372Y65355I-1994J-1978D01*
G01*
G75*
G02*
X243843Y64653I-2809J0D01*
G01*
G75*
G02*
X242580Y62605I-2792J308D01*
G01*
Y59350D01*
X247699Y54231D01*
G75*
G02*
X248147Y53150I-1081J-1081D01*
G01*
Y42650D01*
G75*
G02*
X250706Y38859I-1530J-3792D01*
G01*
G75*
G02*
X242529I-4089J0D01*
G01*
G75*
G02*
X245088Y42650I4089J0D01*
G01*
Y52517D01*
X239969Y57635D01*
G75*
G02*
X239521Y58717I1081J1081D01*
G01*
Y62605D01*
G75*
G02*
X238242Y64961I1530J2356D01*
G01*
G75*
G02*
X243771Y65663I2809J0D01*
G01*
G75*
G02*
X244569Y67333I2792J-308D01*
G01*
X243557D01*
Y73699D01*
X249569D01*
Y72586D01*
G75*
G02*
X250109Y72691I537J-1326D01*
G01*
X250250D01*
Y77900D01*
X251469D01*
Y79723D01*
G75*
G02*
X251089Y80102I1787J2167D01*
G01*
X249569D01*
Y74333D01*
X243557D01*
Y80699D01*
X244776D01*
Y81493D01*
G75*
G02*
Y81495I651J1D01*
G01*
G75*
G02*
Y81496I663J0D01*
G01*
G75*
G02*
X245299Y82760I1787J0D01*
G01*
X245693Y83154D01*
G75*
G02*
X246960Y83677I1264J-1264D01*
G01*
X251089D01*
G75*
G02*
X256065Y81890I2167J-1787D01*
G01*
G75*
G02*
X255043Y79723I-2809J0D01*
G01*
Y77900D01*
X256262D01*
Y72691D01*
X282584D01*
X287258Y77365D01*
Y198226D01*
X282584Y202900D01*
X238545D01*
Y193648D01*
X226628D01*
Y202900D01*
X209949D01*
G75*
G02*
X208935Y203320I0J1431D01*
G01*
X206462Y205793D01*
X161280D01*
Y204907D01*
X153201D01*
Y205695D01*
X150739D01*
X149273Y204229D01*
Y181102D01*
G75*
G02*
X148825Y180021I-1530J0D01*
G01*
X144979Y176174D01*
G75*
G02*
X143897Y175726I-1081J1081D01*
G01*
X131358D01*
Y174986D01*
X123280D01*
Y179620D01*
X131358D01*
Y178785D01*
X143264D01*
X146214Y181736D01*
Y184890D01*
X142546Y181222D01*
G75*
G02*
X141464Y180774I-1081J1081D01*
G01*
X131358D01*
Y179986D01*
X123280D01*
Y184397D01*
X122502Y183619D01*
Y163626D01*
X122787Y163341D01*
X133331D01*
X133616Y163626D01*
Y164317D01*
X132006D01*
Y165774D01*
X131358D01*
Y164986D01*
X123280D01*
Y169620D01*
X131358D01*
Y168833D01*
X132006D01*
Y170329D01*
X138372D01*
Y164317D01*
X136675D01*
Y162993D01*
G75*
G02*
X136227Y161911I-1530J0D01*
G01*
X135046Y160730D01*
G75*
G02*
X133964Y160282I-1081J1081D01*
G01*
X122154D01*
G75*
G02*
X121072Y160730I0J1530D01*
G01*
X119891Y161911D01*
G75*
G02*
X119443Y162993I1081J1081D01*
G01*
Y184252D01*
G75*
G02*
X119891Y185334I1530J0D01*
G01*
X121859Y187302D01*
G75*
G02*
X122941Y187750I1081J-1081D01*
G01*
X139630D01*
X142277Y190398D01*
Y211418D01*
G75*
G02*
X142725Y212499I1530J0D01*
G01*
X147843Y217617D01*
G75*
G02*
X148925Y218065I1081J-1081D01*
G01*
X154591D01*
X155663Y219138D01*
Y222447D01*
G75*
G02*
X155026Y223016I1530J2356D01*
G01*
X153878D01*
Y221386D01*
X145504D01*
Y228185D01*
X153878D01*
Y226591D01*
X155026D01*
G75*
G02*
X159360I2167J-1787D01*
G01*
X160352D01*
Y227809D01*
X166719D01*
Y221797D01*
X160352D01*
Y223016D01*
X159360D01*
G75*
G02*
X158722Y222447I-2168J1787D01*
G01*
Y218505D01*
G75*
G02*
X158274Y217423I-1530J0D01*
G01*
X156306Y215454D01*
G75*
G02*
X155224Y215006I-1081J1081D01*
G01*
X149558D01*
X145336Y210784D01*
Y210011D01*
X148631Y213306D01*
G75*
G02*
X149713Y213754I1081J-1081D01*
G01*
X153201D01*
Y214541D01*
X161280D01*
Y213734D01*
X188056D01*
X189522Y215200D01*
Y222047D01*
G75*
G02*
X189970Y223129I1530J0D01*
G01*
X191938Y225097D01*
G75*
G02*
X193020Y225545I1081J-1081D01*
G01*
X210093D01*
Y230315D01*
G75*
G02*
X210513Y231328I1431J0D01*
G01*
X212479Y233294D01*
G75*
G02*
X213492Y233715I1014J-1010D01*
G01*
X224516D01*
G75*
G02*
X225529Y233294I0J-1431D01*
G01*
X227077Y231746D01*
X283965D01*
G75*
G02*
X284978Y231325I0J-1431D01*
G01*
X292455Y223848D01*
X267927Y202022D02*
X279844D01*
Y191679D01*
X267927D01*
Y202022D01*
X203264Y200843D02*
X210811D01*
Y193650D01*
X203264D01*
Y200843D01*
X165998Y197321D02*
X172010D01*
Y190955D01*
X170791D01*
Y190157D01*
G75*
G02*
X170266Y188891I-1787J0D01*
G01*
X169483Y188108D01*
G75*
G02*
X168217Y187583I-1266J1262D01*
G01*
X166067D01*
Y187206D01*
G75*
G02*
X167089Y185039I-1787J-2167D01*
G01*
G75*
G02*
X162149Y183209I-2809J0D01*
G01*
X160199D01*
Y181813D01*
X154187D01*
Y188179D01*
X155406D01*
Y194907D01*
X153201D01*
Y199541D01*
X161280D01*
Y199012D01*
X162724D01*
G75*
G02*
X163991Y198486I0J-1787D01*
G01*
X164754Y197723D01*
G75*
G02*
X165280Y196457I-1262J-1266D01*
G01*
Y195925D01*
X165998D01*
Y197321D01*
X169935Y146140D02*
X175947D01*
Y139774D01*
X174470D01*
X174470Y138577D01*
G75*
G02*
X175750Y136221I-1530J-2356D01*
G01*
G75*
G02*
X170131I-2809J0D01*
G01*
G75*
G02*
X171411Y138577I2809J0D01*
G01*
X171411Y139774D01*
X169935D01*
Y146140D01*
X179187Y183577D02*
X185986D01*
Y178943D01*
X179187D01*
Y179671D01*
X176683D01*
X174372Y177360D01*
Y156707D01*
X179187D01*
Y157593D01*
X185986D01*
Y152959D01*
X179187D01*
Y153844D01*
X174372D01*
Y153140D01*
X175947D01*
Y146774D01*
X169935D01*
Y153140D01*
X171510D01*
Y177953D01*
G75*
G02*
X171931Y178966I1431J0D01*
G01*
X175077Y182113D01*
G75*
G02*
X176091Y182533I1014J-1010D01*
G01*
X179187D01*
Y183577D01*
X178596Y165742D02*
X186577D01*
Y159927D01*
X178596D01*
Y165742D01*
X153596Y181770D02*
X160789D01*
Y174222D01*
X153596D01*
Y181770D01*
X181322Y202711D02*
G75*
G02*
X187758Y201181I3036J-1530D01*
G01*
G75*
G02*
X181322Y199652I-3400J0D01*
G01*
X172558D01*
G75*
G02*
X172187Y199608I-361J1486D01*
G01*
X172010D01*
Y197955D01*
X165998D01*
Y199608D01*
X164280D01*
G75*
G02*
X163198Y200056I0J1530D01*
G01*
X162559Y200695D01*
X161280D01*
Y199907D01*
X153201D01*
Y204541D01*
X161280D01*
Y203754D01*
X163193D01*
G75*
G02*
X164274Y203306I0J-1530D01*
G01*
X164913Y202667D01*
X165998D01*
Y204321D01*
X172010D01*
Y202693D01*
G75*
G02*
X172250Y202711I230J-1513D01*
G01*
X181322D01*
X198669Y165193D02*
X207043D01*
Y152917D01*
X204643D01*
Y152201D01*
X207043D01*
Y139925D01*
X198669D01*
Y152201D01*
X201068D01*
Y152917D01*
X198669D01*
Y157268D01*
X194254D01*
Y156738D01*
X187455D01*
Y161372D01*
X194254D01*
Y160843D01*
X198669D01*
Y165193D01*
Y191177D02*
X207043D01*
Y178902D01*
X204643D01*
Y178185D01*
X207043D01*
Y165909D01*
X198669D01*
Y178185D01*
X201068D01*
Y178902D01*
X198669D01*
Y183252D01*
X194254D01*
Y182722D01*
X187455D01*
Y187356D01*
X194254D01*
Y186827D01*
X198669D01*
Y191177D01*
X178596Y191726D02*
X186577D01*
Y185911D01*
X178596D01*
Y191726D01*
X138415Y170919D02*
X145963D01*
Y163726D01*
X138415D01*
Y170919D01*
X123280Y174620D02*
X131358D01*
Y169986D01*
X123280D01*
Y174620D01*
X292529Y28859D02*
G75*
G02*
X300706I4089J0D01*
G01*
G75*
G02*
X292529I-4089J0D01*
G01*
Y38859D02*
G75*
G02*
X300706I4089J0D01*
G01*
G75*
G02*
X292529I-4089J0D01*
G01*
X281939Y28859D02*
G75*
G02*
X291297I4679J0D01*
G01*
G75*
G02*
X281939I-4679J0D01*
G01*
X282529Y38859D02*
G75*
G02*
X290706I4089J0D01*
G01*
G75*
G02*
X282529I-4089J0D01*
G01*
X241939Y28859D02*
G75*
G02*
X251297I4679J0D01*
G01*
G75*
G02*
X241939I-4679J0D01*
G01*
X152529D02*
G75*
G02*
X160706I4089J0D01*
G01*
G75*
G02*
X152529I-4089J0D01*
G01*
X141939D02*
G75*
G02*
X151297I4679J0D01*
G01*
G75*
G02*
X141939I-4679J0D01*
G01*
X111939Y38859D02*
G75*
G02*
X121297I4679J0D01*
G01*
G75*
G02*
X111939I-4679J0D01*
G01*
X365673Y61175D02*
X370455D01*
Y55636D01*
X357317D01*
Y61175D01*
X362098D01*
Y63630D01*
X361570Y64158D01*
X353701D01*
Y62791D01*
X349657D01*
Y69098D01*
X349893D01*
Y70913D01*
X346911Y73895D01*
Y57874D01*
G75*
G02*
X346463Y56793I-1530J0D01*
G01*
X342526Y52856D01*
G75*
G02*
X341444Y52407I-1081J1081D01*
G01*
X330048D01*
G75*
G02*
X332837Y49409I-217J-2998D01*
G01*
G75*
G02*
X326825I-3006J0D01*
G01*
G75*
G02*
X329613Y52407I3006J0D01*
G01*
X325724D01*
X324076Y50760D01*
Y11811D01*
G75*
G02*
X323628Y10730I-1530J0D01*
G01*
X320085Y7187D01*
G75*
G02*
X319003Y6739I-1081J1081D01*
G01*
X119374D01*
G75*
G02*
X118292Y7187I0J1530D01*
G01*
X115536Y9943D01*
G75*
G02*
X115088Y11024I1081J1081D01*
G01*
Y25067D01*
G75*
G02*
X112529Y28859I1530J3792D01*
G01*
G75*
G02*
X120706I4089J0D01*
G01*
G75*
G02*
X118147Y25067I-4089J0D01*
G01*
Y11657D01*
X120007Y9798D01*
X128459D01*
G75*
G02*
X128292Y9943I915J1225D01*
G01*
X125536Y12698D01*
G75*
G02*
X125088Y13780I1081J1081D01*
G01*
Y25067D01*
G75*
G02*
X122529Y28859I1530J3792D01*
G01*
G75*
G02*
X130706I4089J0D01*
G01*
G75*
G02*
X128147Y25067I-4089J0D01*
G01*
Y14413D01*
X130007Y12554D01*
X269551D01*
X270230Y13232D01*
Y14961D01*
G75*
G02*
X270678Y16043I1530J0D01*
G01*
X272253Y17617D01*
G75*
G02*
X273335Y18065I1081J-1081D01*
G01*
X312858D01*
X315506Y20713D01*
Y49219D01*
G75*
G02*
X314226Y51575I1530J2356D01*
G01*
G75*
G02*
X319844I2809J0D01*
G01*
G75*
G02*
X318565Y49219I-2809J0D01*
G01*
Y20079D01*
G75*
G02*
X318117Y18998I-1530J0D01*
G01*
X314573Y15454D01*
G75*
G02*
X313491Y15006I-1081J1081D01*
G01*
X273968D01*
X273289Y14328D01*
Y12599D01*
G75*
G02*
X272841Y11517I-1530J0D01*
G01*
X271266Y9943D01*
G75*
G02*
X271099Y9798I-1082J1080D01*
G01*
X318370D01*
X321017Y12445D01*
Y51394D01*
G75*
G02*
X321465Y52475I1530J0D01*
G01*
X323996Y55006D01*
G75*
G02*
X320197Y60236I1701J5230D01*
G01*
Y244488D01*
G75*
G02*
X325697Y249988I5500J0D01*
G01*
X339476D01*
G75*
G02*
X344976Y244488I0J-5500D01*
G01*
Y120890D01*
G75*
G02*
X349037Y120785I1980J-1992D01*
G01*
Y126530D01*
X350846D01*
Y127047D01*
X349236Y128658D01*
G75*
G02*
X348712Y129922I1264J1264D01*
G01*
G75*
G02*
Y129925I641J2D01*
G01*
Y141091D01*
X347886D01*
Y146315D01*
X353110D01*
Y144957D01*
X356136D01*
Y145939D01*
X369274D01*
Y140400D01*
X356136D01*
Y141382D01*
X353110D01*
Y141091D01*
X352287D01*
Y130662D01*
X353898Y129051D01*
G75*
G02*
X354421Y127787I-1264J-1264D01*
G01*
G75*
G02*
Y127784I-641J-2D01*
G01*
Y126530D01*
X356230D01*
Y117278D01*
X356821D01*
Y110872D01*
X356230D01*
Y110683D01*
X360244D01*
G75*
G02*
X361326Y110235I0J-1530D01*
G01*
X363393Y108168D01*
G75*
G02*
X363841Y107087I-1081J-1081D01*
G01*
Y105506D01*
G75*
G02*
X365120Y103150I-1530J-2356D01*
G01*
G75*
G02*
X359502I-2809J0D01*
G01*
G75*
G02*
X360781Y105506I2809J0D01*
G01*
Y106453D01*
X359611Y107624D01*
X356230D01*
Y86856D01*
X349531D01*
Y76331D01*
X352944Y72918D01*
G75*
G02*
X353468Y71654I-1264J-1264D01*
G01*
G75*
G02*
Y71653I-635J0D01*
G01*
G75*
G02*
Y71651I-641J-1D01*
G01*
Y69098D01*
X353701D01*
Y67733D01*
X362311D01*
G75*
G02*
X363577Y67207I0J-1787D01*
G01*
X365148Y65636D01*
G75*
G02*
X365673Y64370I-1262J-1266D01*
G01*
Y61175D01*
X356518Y139128D02*
X370404D01*
Y128785D01*
X356518D01*
Y139128D01*
Y84600D02*
X370404D01*
Y74258D01*
X356518D01*
Y84600D01*
X357317Y48301D02*
X370455D01*
Y42762D01*
X365673D01*
Y41342D01*
G75*
G02*
Y41339I-651J-1D01*
G01*
G75*
G02*
X365150Y40075I-1787J-1D01*
G01*
X362394Y37319D01*
G75*
G02*
X361127Y36795I-1264J1264D01*
G01*
X354242D01*
G75*
G02*
X349266Y38583I-2167J1787D01*
G01*
G75*
G02*
X354242Y40370I2809J0D01*
G01*
X360389D01*
X362098Y42079D01*
Y42762D01*
X357317D01*
Y48301D01*
X349067Y60634D02*
X354291D01*
Y53146D01*
X349067D01*
Y60634D01*
X332140Y18110D02*
G75*
G02*
X346813I7337J0D01*
G01*
G75*
G02*
X332140I-7337J0D01*
G01*
X122529Y38859D02*
G75*
G02*
X130706I4089J0D01*
G01*
G75*
G02*
X122529I-4089J0D01*
G01*
X132529Y28859D02*
G75*
G02*
X140706I4089J0D01*
G01*
G75*
G02*
X132529I-4089J0D01*
G01*
X128571Y73675D02*
X136118D01*
Y66482D01*
X128571D01*
Y73675D01*
X137309Y78559D02*
G75*
G02*
X142285Y76772I2167J-1787D01*
G01*
G75*
G02*
X137309Y74984I-2809J0D01*
G01*
X135528D01*
Y73766D01*
X129161D01*
Y79778D01*
X135528D01*
Y78559D01*
X137309D01*
X75388Y126628D02*
X81203D01*
Y118648D01*
X75388D01*
Y126628D01*
X32730Y120659D02*
X47010D01*
Y113112D01*
X32730D01*
Y120659D01*
X32335Y195331D02*
X51339D01*
Y176327D01*
X32335D01*
Y195331D01*
X114817Y194489D02*
G75*
G02*
X121616I3400J0D01*
G01*
G75*
G02*
X117152Y191260I-3400J0D01*
G01*
X115415Y189524D01*
Y180059D01*
G75*
G02*
X114967Y178978I-1530J0D01*
G01*
X112211Y176222D01*
G75*
G02*
X111130Y175774I-1081J1081D01*
G01*
X110004D01*
Y174986D01*
X101925D01*
Y175636D01*
X96170D01*
G75*
G02*
X95088Y176084I0J1530D01*
G01*
X92780Y178392D01*
X72502D01*
Y165703D01*
X81208D01*
G75*
G02*
X82290Y165255I0J-1530D01*
G01*
X90110Y157435D01*
X94207D01*
G75*
G02*
X99372Y155906I2356J-1530D01*
G01*
G75*
G02*
X94207Y154376I-2809J0D01*
G01*
X89477D01*
G75*
G02*
X88395Y154824I0J1530D01*
G01*
X80575Y162644D01*
X72502D01*
Y159843D01*
G75*
G02*
X72054Y158761I-1530J0D01*
G01*
X67526Y154233D01*
G75*
G02*
X66444Y153785I-1081J1081D01*
G01*
X49961D01*
Y147390D01*
X33713D01*
Y163244D01*
X49961D01*
Y156844D01*
X65811D01*
X69443Y160476D01*
Y209996D01*
X64827Y214612D01*
X49961D01*
Y208413D01*
X33713D01*
Y224268D01*
X49961D01*
Y217671D01*
X65460D01*
G75*
G02*
X66542Y217223I0J-1530D01*
G01*
X72054Y211711D01*
G75*
G02*
X72502Y210630I-1081J-1081D01*
G01*
Y181451D01*
X93413D01*
G75*
G02*
X94495Y181003I0J-1530D01*
G01*
X96803Y178695D01*
X101925D01*
Y179396D01*
X101335D01*
Y185211D01*
X110594D01*
Y179396D01*
X110004D01*
Y178833D01*
X110496D01*
X112356Y180693D01*
Y190157D01*
G75*
G02*
X112804Y191239I1530J0D01*
G01*
X114988Y193423D01*
G75*
G02*
X114817Y194489I3228J1065D01*
G01*
X101925Y169620D02*
X110004D01*
Y164986D01*
X101925D01*
Y165793D01*
X101636D01*
Y163386D01*
G75*
G02*
X101188Y162304I-1530J0D01*
G01*
X100204Y161320D01*
G75*
G02*
X99122Y160872I-1081J1081D01*
G01*
X98191D01*
Y159199D01*
X88636D01*
Y165604D01*
X98191D01*
Y163931D01*
X98489D01*
X98577Y164019D01*
Y166535D01*
G75*
G02*
X99025Y167617I1530J0D01*
G01*
X99812Y168404D01*
G75*
G02*
X100894Y168852I1081J-1081D01*
G01*
X101925D01*
Y169620D01*
Y174620D02*
X110004D01*
Y169986D01*
X101925D01*
Y170715D01*
X98191D01*
Y169041D01*
X88636D01*
Y175447D01*
X98191D01*
Y173774D01*
X101925D01*
Y174620D01*
X81722Y154384D02*
X89270D01*
Y147191D01*
X81722D01*
Y154384D01*
X89278Y145882D02*
G75*
G02*
X94254Y144094I2167J-1787D01*
G01*
G75*
G02*
X89278Y142307I-2809J0D01*
G01*
X88679D01*
Y141089D01*
X82313D01*
Y147100D01*
X88679D01*
Y145882D01*
X89278D01*
X80026Y153793D02*
X81679D01*
Y147781D01*
X80026D01*
Y147100D01*
X81679D01*
Y141089D01*
X75313D01*
Y147100D01*
X76967D01*
Y147781D01*
X75313D01*
Y153793D01*
X76967D01*
Y155518D01*
G75*
G02*
X75687Y157874I1530J2356D01*
G01*
G75*
G02*
X81305I2809J0D01*
G01*
G75*
G02*
X80026Y155518I-2809J0D01*
G01*
Y153793D01*
X57927Y242717D02*
G75*
G02*
X63939I3006J0D01*
G01*
G75*
G02*
X57927I-3006J0D01*
G01*
X100498Y204581D02*
X102152D01*
Y198569D01*
X100498D01*
Y197888D01*
X102152D01*
Y191876D01*
X95785D01*
Y197888D01*
X97439D01*
Y198569D01*
X95785D01*
Y204581D01*
X97439D01*
Y206305D01*
G75*
G02*
X96159Y208661I1530J2356D01*
G01*
G75*
G02*
X101778I2809J0D01*
G01*
G75*
G02*
X100498Y206305I-2809J0D01*
G01*
Y204581D01*
X102195Y205171D02*
X109742D01*
Y197978D01*
X102195D01*
Y205171D01*
X102785Y197888D02*
X109152D01*
Y191876D01*
X107756D01*
Y191178D01*
G75*
G02*
X108821Y188976I-1744J-2202D01*
G01*
G75*
G02*
X103203I-2809J0D01*
G01*
G75*
G02*
X104181Y191107I2809J0D01*
G01*
Y191876D01*
X102785D01*
Y197888D01*
X160352Y236864D02*
X166719D01*
Y230852D01*
X160352D01*
Y232071D01*
X159360D01*
G75*
G02*
X155026I-2167J1787D01*
G01*
X154543D01*
Y230709D01*
G75*
G02*
X153256Y229422I-1287J0D01*
G01*
X132889D01*
Y226378D01*
G75*
G02*
X131602Y225091I-1287J0D01*
G01*
X111917D01*
G75*
G02*
X110630Y226378I0J1287D01*
G01*
Y241339D01*
G75*
G02*
X111917Y242626I1287J0D01*
G01*
X131602D01*
G75*
G02*
X132889Y241339I0J-1287D01*
G01*
Y238296D01*
X153256D01*
G75*
G02*
X154543Y237008I0J-1287D01*
G01*
Y235646D01*
X155026D01*
G75*
G02*
X159360I2167J-1787D01*
G01*
X160352D01*
Y236864D01*
X131256Y215132D02*
X140516D01*
Y194317D01*
X131256D01*
Y215132D01*
X144913Y246886D02*
X154469D01*
Y238906D01*
X144913D01*
Y246886D01*
X166762Y228400D02*
X174309D01*
Y221207D01*
X166762D01*
Y228400D01*
Y237455D02*
X174309D01*
Y230262D01*
X166762D01*
Y237455D01*
X226628Y242573D02*
X238545D01*
Y232230D01*
X226628D01*
Y242573D01*
X302529Y28859D02*
G75*
G02*
X310706I4089J0D01*
G01*
G75*
G02*
X302529I-4089J0D01*
G01*
Y38859D02*
G75*
G02*
X310706I4089J0D01*
G01*
G75*
G02*
X302529I-4089J0D01*
G01*
X347295Y155567D02*
X353701D01*
Y149161D01*
X347295D01*
Y155567D01*
X364726Y158813D02*
X369274D01*
Y153274D01*
X356136D01*
Y158813D01*
X360088D01*
X358717Y160183D01*
G75*
G02*
X355959Y162992I50J2809D01*
G01*
G75*
G02*
X361576Y163043I2809J0D01*
G01*
X364132Y160487D01*
G75*
G02*
X364726Y159055I-1428J-1431D01*
G01*
Y158813D01*
X9789Y61785D02*
X20919D01*
Y49947D01*
X9789D01*
Y61785D01*
Y102022D02*
X20919D01*
Y90183D01*
X9789D01*
Y102022D01*
X9793Y11811D02*
G36*
X9793Y11811D02*
Y8328D01*
X11977Y6144D01*
X368156D01*
X370340Y8328D01*
Y11811D01*
X343237D01*
G75*
G02*
X335715I-3761J6299D01*
G01*
X324076D01*
G75*
G02*
X323628Y10730I-1530J1D01*
G01*
X320085Y7187D01*
G75*
G02*
X319003Y6739I-1082J1083D01*
G01*
X119374D01*
G75*
G02*
X118292Y7187I0J1531D01*
G01*
X115536Y9943D01*
G75*
G02*
X115088Y11024I1082J1082D01*
G01*
Y11811D01*
X35986D01*
Y8116D01*
X24069D01*
Y11811D01*
X9793D01*
G37*
X118147D02*
G36*
X118147Y11811D02*
Y11657D01*
X120007Y9798D01*
X128459D01*
G75*
G02*
X128292Y9943I903J1212D01*
G01*
X126424Y11811D01*
X118147D01*
G37*
X271266Y9943D02*
G36*
X271266Y9943D02*
G75*
G02*
X271099Y9798I-1070J1067D01*
G01*
X318370D01*
X320383Y11811D01*
X273070D01*
G75*
G02*
X272841Y11517I-1311J788D01*
G01*
X271266Y9943D01*
G37*
X9793Y20079D02*
G36*
X9793Y20079D02*
Y11811D01*
X24069D01*
Y15506D01*
X35986D01*
Y11811D01*
X115088D01*
Y20079D01*
X80606D01*
Y16482D01*
X73059D01*
Y20079D01*
X73016D01*
Y17073D01*
X66650D01*
Y17467D01*
X56654D01*
Y16547D01*
X50642D01*
Y17467D01*
X39136D01*
Y16679D01*
X32927D01*
Y20079D01*
X9793D01*
G37*
X118147D02*
G36*
X118147Y20079D02*
Y11811D01*
X126424D01*
X125536Y12698D01*
G75*
G02*
X125088Y13780I1082J1082D01*
G01*
Y20079D01*
X118147D01*
G37*
X128147D02*
G36*
X128147Y20079D02*
Y14413D01*
X130007Y12554D01*
X269551D01*
X270230Y13232D01*
Y14961D01*
G75*
G02*
X270678Y16043I1530J0D01*
G01*
X272253Y17617D01*
G75*
G02*
X273335Y18065I1082J-1083D01*
G01*
X312858D01*
X314872Y20079D01*
X266024D01*
X262581Y16635D01*
G75*
G02*
X261499Y16187I-1082J1083D01*
G01*
X175500D01*
G75*
G02*
X174418Y16635I0J1531D01*
G01*
X170975Y20079D01*
X128147D01*
G37*
X254450D02*
G36*
X254450Y20079D02*
X253617Y19246D01*
X260866D01*
X261698Y20079D01*
X254450D01*
G37*
X273289Y12599D02*
G36*
X273289Y12599D02*
G75*
G02*
X273070Y11811I-1530J0D01*
G01*
X320383D01*
X321017Y12445D01*
Y20079D01*
X318565D01*
G75*
G02*
X318117Y18998I-1530J1D01*
G01*
X314573Y15454D01*
G75*
G02*
X313491Y15006I-1082J1083D01*
G01*
X273968D01*
X273289Y14328D01*
Y12599D01*
G37*
X324076Y11811D02*
G36*
X324076Y11811D02*
Y11811D01*
X335715D01*
G75*
G02*
X332140Y18110I3761J6299D01*
G01*
G75*
G02*
X332409Y20079I7337J0D01*
G01*
X324076D01*
Y11811D01*
G37*
X346813Y18110D02*
G36*
X346813Y18110D02*
G75*
G02*
X343237Y11811I-7337J0D01*
G01*
X370340D01*
Y20079D01*
X346544D01*
G75*
G02*
X346813Y18110I-7068J-1968D01*
G01*
G37*
X9793Y30711D02*
G36*
X9793Y30711D02*
Y20079D01*
X32927D01*
Y22691D01*
X39136D01*
Y21904D01*
X50642D01*
Y22913D01*
X56654D01*
Y21904D01*
X66650D01*
Y23085D01*
X67616D01*
Y23238D01*
X66783D01*
Y29604D01*
X72795D01*
Y23238D01*
X72053D01*
Y23085D01*
X73016D01*
Y20079D01*
X73059D01*
Y23675D01*
X80606D01*
Y20079D01*
X115088D01*
Y25067D01*
G75*
G02*
X112529Y28858I1529J3791D01*
G01*
Y28859D01*
G75*
G02*
X112972Y30711I4089J0D01*
G01*
X72795D01*
Y30238D01*
X66783D01*
Y30711D01*
X55474D01*
Y29913D01*
X56654D01*
Y23547D01*
X50642D01*
Y29913D01*
X51824D01*
Y30711D01*
X35986D01*
Y23864D01*
X24069D01*
Y30711D01*
X9793D01*
G37*
X118147Y25067D02*
G36*
X118147Y25067D02*
Y20079D01*
X125088D01*
Y25067D01*
G75*
G02*
X122529Y28858I1529J3791D01*
G01*
Y28859D01*
G75*
G02*
X122972Y30711I4089J0D01*
G01*
X120263D01*
G75*
G02*
X120706Y28859I-3645J-1852D01*
G01*
Y28858D01*
G75*
G02*
X118147Y25067I-4088J0D01*
G01*
G37*
X128147D02*
G36*
X128147Y25067D02*
Y20079D01*
X170975D01*
X170481Y20572D01*
G75*
G02*
X170033Y21654I1082J1082D01*
G01*
Y25660D01*
G75*
G02*
X161939Y28859I-3415J3198D01*
G01*
G75*
G02*
X162321Y30711I4679J0D01*
G01*
X160263D01*
G75*
G02*
X160706Y28859I-3645J-1852D01*
G01*
G75*
G02*
X152529I-4089J0D01*
G01*
G75*
G02*
X152972Y30711I4089J0D01*
G01*
X150915D01*
G75*
G02*
X151297Y28859I-4297J-1852D01*
G01*
G75*
G02*
X141939I-4679J0D01*
G01*
G75*
G02*
X142321Y30711I4679J0D01*
G01*
X140263D01*
G75*
G02*
X140706Y28859I-3645J-1852D01*
G01*
G75*
G02*
X132529I-4089J0D01*
G01*
G75*
G02*
X132972Y30711I4089J0D01*
G01*
X130263D01*
G75*
G02*
X130706Y28859I-3645J-1852D01*
G01*
Y28858D01*
G75*
G02*
X128147Y25067I-4088J0D01*
G01*
G37*
X183131Y26722D02*
G36*
X183131Y26722D02*
Y23862D01*
X185385Y21609D01*
X251654D01*
X255088Y25043D01*
Y25067D01*
G75*
G02*
X252529Y28858I1529J3791D01*
G01*
Y28859D01*
G75*
G02*
X252972Y30711I4089J0D01*
G01*
X250915D01*
G75*
G02*
X251297Y28859I-4297J-1852D01*
G01*
G75*
G02*
X241939I-4679J0D01*
G01*
G75*
G02*
X242321Y30711I4679J0D01*
G01*
X240263D01*
G75*
G02*
X240706Y28859I-3645J-1852D01*
G01*
G75*
G02*
X232529I-4089J0D01*
G01*
G75*
G02*
X232972Y30711I4089J0D01*
G01*
X230263D01*
G75*
G02*
X230706Y28859I-3645J-1852D01*
G01*
G75*
G02*
X228039Y25025I-4089J0D01*
G01*
G75*
G02*
X227628Y24184I-1420J172D01*
G01*
X226450Y23006D01*
G75*
G02*
X225437Y22585I-1013J1009D01*
G01*
X202665D01*
G75*
G02*
X201652Y23006I0J1430D01*
G01*
X200474Y24184D01*
G75*
G02*
X200053Y25197I1009J1013D01*
G01*
Y26641D01*
G75*
G02*
X192529Y28859I-3435J2217D01*
G01*
G75*
G02*
X192961Y30688I4088J0D01*
G01*
X192939Y30711D01*
X190263D01*
G75*
G02*
X190706Y28859I-3645J-1852D01*
G01*
G75*
G02*
X183131Y26722I-4089J0D01*
G01*
G37*
X210706Y28859D02*
G36*
X210706Y28859D02*
G75*
G02*
X208871Y25447I-4089J0D01*
G01*
X213415D01*
G75*
G02*
X211939Y28859I3204J3412D01*
G01*
G75*
G02*
X212321Y30711I4679J0D01*
G01*
X210990D01*
X210480Y30201D01*
G75*
G02*
X210706Y28859I-3862J-1342D01*
G01*
G37*
X221297Y28859D02*
G36*
X221297Y28859D02*
G75*
G02*
X219820Y25447I-4680J0D01*
G01*
X224364D01*
G75*
G02*
X222529Y28858I2252J3411D01*
G01*
G75*
G02*
Y28859I5639J0D01*
G01*
G75*
G02*
X222972Y30711I4089J0D01*
G01*
X220915D01*
G75*
G02*
X221297Y28859I-4297J-1852D01*
G01*
G37*
X257699Y23328D02*
G36*
X257699Y23328D02*
X254450Y20079D01*
X261698D01*
X265088Y23469D01*
Y25067D01*
G75*
G02*
X262529Y28858I1529J3791D01*
G01*
Y28859D01*
G75*
G02*
X262972Y30711I4089J0D01*
G01*
X260263D01*
G75*
G02*
X260706Y28859I-3645J-1852D01*
G01*
Y28858D01*
G75*
G02*
X258147Y25067I-4088J0D01*
G01*
Y24410D01*
G75*
G02*
X257699Y23328I-1530J0D01*
G01*
G37*
X267699Y21754D02*
G36*
X267699Y21754D02*
X266024Y20079D01*
X314872D01*
X315506Y20713D01*
Y30711D01*
X310263D01*
G75*
G02*
X310706Y28859I-3645J-1852D01*
G01*
G75*
G02*
X302529I-4089J0D01*
G01*
G75*
G02*
X302972Y30711I4089J0D01*
G01*
X300263D01*
G75*
G02*
X300706Y28859I-3645J-1852D01*
G01*
G75*
G02*
X292529I-4089J0D01*
G01*
G75*
G02*
X292972Y30711I4089J0D01*
G01*
X290915D01*
G75*
G02*
X291297Y28859I-4297J-1852D01*
G01*
G75*
G02*
X281939I-4679J0D01*
G01*
G75*
G02*
X282321Y30711I4679J0D01*
G01*
X280263D01*
G75*
G02*
X280706Y28859I-3645J-1852D01*
G01*
G75*
G02*
X272529I-4089J0D01*
G01*
G75*
G02*
X272973Y30711I4090J-1D01*
G01*
X270263D01*
G75*
G02*
X270706Y28859I-3645J-1852D01*
G01*
Y28858D01*
G75*
G02*
X268147Y25067I-4088J0D01*
G01*
Y22835D01*
G75*
G02*
X267699Y21754I-1530J0D01*
G01*
G37*
X318565Y20079D02*
G36*
X318565Y20079D02*
Y20079D01*
X321017D01*
Y30711D01*
X318565D01*
Y20079D01*
G37*
X324076Y30711D02*
G36*
X324076Y30711D02*
Y20079D01*
X332409D01*
G75*
G02*
X346544I7068J-1969D01*
G01*
X370340D01*
Y30711D01*
X324076D01*
G37*
X9793Y39764D02*
G36*
X9793Y39764D02*
Y30711D01*
X24069D01*
Y31254D01*
X35986D01*
Y30711D01*
X51824D01*
Y31508D01*
X50642D01*
Y37874D01*
X56654D01*
Y31508D01*
X55474D01*
Y30711D01*
X66783D01*
Y36604D01*
X67572D01*
Y36758D01*
X66650D01*
Y39764D01*
X56654D01*
Y38508D01*
X50642D01*
Y39764D01*
X9793D01*
G37*
X72009Y36758D02*
G36*
X72009Y36758D02*
Y36604D01*
X72795D01*
Y30711D01*
X112972D01*
G75*
G02*
X120263I3645J-1852D01*
G01*
X122972D01*
G75*
G02*
X130263I3645J-1852D01*
G01*
X132972D01*
G75*
G02*
X140263I3645J-1852D01*
G01*
X142321D01*
G75*
G02*
X150915I4297J-1852D01*
G01*
X152972D01*
G75*
G02*
X160263I3645J-1852D01*
G01*
X162321D01*
G75*
G02*
X170033Y32057I4297J-1852D01*
G01*
Y36611D01*
G75*
G02*
X162529Y38859I-3415J2248D01*
G01*
G75*
G02*
X162631Y39764I4089J-1D01*
G01*
X160605D01*
G75*
G02*
X160706Y38859I-3987J-906D01*
G01*
Y38859D01*
G75*
G02*
X152529I-4089J0D01*
G01*
Y38859D01*
G75*
G02*
X152631Y39764I4088J-1D01*
G01*
X150605D01*
G75*
G02*
X150706Y38859I-3987J-906D01*
G01*
Y38859D01*
G75*
G02*
X142529I-4089J0D01*
G01*
Y38859D01*
G75*
G02*
X142631Y39764I4088J-1D01*
G01*
X140605D01*
G75*
G02*
X140706Y38859I-3987J-906D01*
G01*
Y38859D01*
G75*
G02*
X132529I-4089J0D01*
G01*
Y38859D01*
G75*
G02*
X132631Y39764I4088J-1D01*
G01*
X130605D01*
G75*
G02*
X130706Y38859I-3987J-906D01*
G01*
G75*
G02*
X122529I-4089J0D01*
G01*
G75*
G02*
X122631Y39764I4089J-1D01*
G01*
X121209D01*
G75*
G02*
X121297Y38859I-4591J-904D01*
G01*
G75*
G02*
X111939I-4679J0D01*
G01*
G75*
G02*
X112027Y39764I4679J1D01*
G01*
X80606D01*
Y36167D01*
X73059D01*
Y39764D01*
X73016D01*
Y36758D01*
X72009D01*
G37*
X183131Y35738D02*
G36*
X183131Y35738D02*
Y30995D01*
G75*
G02*
X190263Y30711I3486J-2136D01*
G01*
X192939D01*
X190631Y33019D01*
G75*
G02*
X190210Y34032I1009J1013D01*
G01*
Y35861D01*
G75*
G02*
X183131Y35738I-3593J2998D01*
G01*
G37*
X210990Y30711D02*
G36*
X210990Y30711D02*
X212321D01*
G75*
G02*
X220915I4297J-1852D01*
G01*
X222972D01*
G75*
G02*
X230263I3645J-1852D01*
G01*
X232972D01*
G75*
G02*
X240263I3645J-1852D01*
G01*
X242321D01*
G75*
G02*
X250915I4297J-1852D01*
G01*
X252972D01*
G75*
G02*
X260263I3645J-1852D01*
G01*
X262972D01*
G75*
G02*
X270263I3645J-1852D01*
G01*
X272973D01*
G75*
G02*
X273198Y31100I3646J-1852D01*
G01*
X270481Y33817D01*
G75*
G02*
X270033Y34898I1082J1082D01*
G01*
Y35660D01*
G75*
G02*
X261939Y38859I-3415J3198D01*
G01*
G75*
G02*
X262027Y39764I4680J-1D01*
G01*
X260605D01*
G75*
G02*
X260706Y38859I-3986J-906D01*
G01*
Y38859D01*
G75*
G02*
X252529I-4089J0D01*
G01*
Y38859D01*
G75*
G02*
X252631Y39764I4088J-1D01*
G01*
X250605D01*
G75*
G02*
X250706Y38859I-3987J-906D01*
G01*
Y38859D01*
G75*
G02*
X242529I-4089J0D01*
G01*
Y38859D01*
G75*
G02*
X242631Y39764I4088J-1D01*
G01*
X240605D01*
G75*
G02*
X240706Y38859I-3987J-906D01*
G01*
Y38859D01*
G75*
G02*
X232529I-4089J0D01*
G01*
Y38859D01*
G75*
G02*
X232631Y39764I4088J-1D01*
G01*
X230605D01*
G75*
G02*
X230706Y38859I-3987J-906D01*
G01*
G75*
G02*
X222529I-4089J0D01*
G01*
G75*
G02*
X222631Y39764I4089J-1D01*
G01*
X220605D01*
G75*
G02*
X220706Y38859I-3987J-906D01*
G01*
G75*
G02*
X213151Y36691I-4089J0D01*
G01*
Y33465D01*
G75*
G02*
X212730Y32452I-1430J0D01*
G01*
X210990Y30711D01*
G37*
X273092Y36788D02*
G36*
X273092Y36788D02*
Y35531D01*
X275766Y32857D01*
G75*
G02*
X280263Y30711I852J-3999D01*
G01*
X282321D01*
G75*
G02*
X290915I4297J-1852D01*
G01*
X292972D01*
G75*
G02*
X300263I3645J-1852D01*
G01*
X302972D01*
G75*
G02*
X310263I3645J-1852D01*
G01*
X315506D01*
Y39764D01*
X310605D01*
G75*
G02*
X310706Y38859I-3987J-906D01*
G01*
G75*
G02*
X302529I-4089J0D01*
G01*
G75*
G02*
X302631Y39764I4089J-1D01*
G01*
X300605D01*
G75*
G02*
X300706Y38859I-3987J-906D01*
G01*
G75*
G02*
X292529I-4089J0D01*
G01*
G75*
G02*
X292631Y39764I4089J-1D01*
G01*
X290605D01*
G75*
G02*
X290706Y38859I-3987J-906D01*
G01*
G75*
G02*
X282529I-4089J0D01*
G01*
G75*
G02*
X282631Y39764I4089J-1D01*
G01*
X280605D01*
G75*
G02*
X280706Y38859I-3987J-906D01*
G01*
G75*
G02*
X273092Y36788I-4089J0D01*
G01*
G37*
X318565Y39764D02*
G36*
X318565Y39764D02*
Y30711D01*
X321017D01*
Y39764D01*
X318565D01*
G37*
X324076D02*
G36*
X324076Y39764D02*
Y30711D01*
X370340D01*
Y39764D01*
X364839D01*
X362394Y37319D01*
G75*
G02*
X361127Y36795I-1263J1262D01*
G01*
X354242D01*
G75*
G02*
X349266Y38583I-2167J1787D01*
G01*
G75*
G02*
X349526Y39764I2809J0D01*
G01*
X324076D01*
G37*
X9793Y49947D02*
G36*
X9793Y49947D02*
Y39764D01*
X50642D01*
Y44874D01*
X51824D01*
Y48063D01*
X50784Y49104D01*
G75*
G02*
X50250Y50394I1289J1290D01*
G01*
Y52055D01*
X36392D01*
Y49947D01*
X25262D01*
Y52055D01*
X20919D01*
Y49947D01*
X9793D01*
G37*
X53899Y52055D02*
G36*
X53899Y52055D02*
Y51150D01*
X54939Y50109D01*
G75*
G02*
X55474Y48819I-1289J-1290D01*
G01*
Y44874D01*
X56654D01*
Y39764D01*
X66650D01*
Y42770D01*
X67572D01*
Y48031D01*
G75*
G02*
X68446Y52055I9699J0D01*
G01*
X62359D01*
G75*
G02*
X63939Y49409I-1427J-2646D01*
G01*
G75*
G02*
X57927I-3006J0D01*
G01*
G75*
G02*
X59506Y52055I3006J0D01*
G01*
X53899D01*
G37*
X72009Y48031D02*
G36*
X72009Y48031D02*
Y42770D01*
X73016D01*
Y39764D01*
X73059D01*
Y43360D01*
X80606D01*
Y39764D01*
X112027D01*
G75*
G02*
X121209I4591J-905D01*
G01*
X122631D01*
G75*
G02*
X130605I3987J-905D01*
G01*
X132631D01*
G75*
G02*
X135088Y42650I3987J-905D01*
G01*
Y50650D01*
X133683Y52055D01*
X73880D01*
G75*
G03*
X72009Y48031I3391J-4024D01*
G01*
G37*
X138147Y51284D02*
G36*
X138147Y51284D02*
Y42650D01*
G75*
G02*
X140605Y39764I-1529J-3791D01*
G01*
X142631D01*
G75*
G02*
X145088Y42650I3987J-905D01*
G01*
Y51280D01*
X144313Y52055D01*
X137939D01*
G75*
G02*
X138147Y51284I-1321J-771D01*
G01*
G37*
X148147Y51914D02*
G36*
X148147Y51914D02*
Y42650D01*
G75*
G02*
X150605Y39764I-1529J-3791D01*
G01*
X152631D01*
G75*
G02*
X155088Y42650I3987J-905D01*
G01*
Y52055D01*
X148141D01*
G75*
G02*
X148147Y51914I-1523J-143D01*
G01*
G37*
X158147Y52055D02*
G36*
X158147Y52055D02*
Y42650D01*
G75*
G02*
X160605Y39764I-1529J-3791D01*
G01*
X162631D01*
G75*
G02*
X165112Y42660I3987J-905D01*
G01*
Y52055D01*
X158147D01*
G37*
X168171D02*
G36*
X168171Y52055D02*
Y42641D01*
G75*
G02*
X170033Y41106I-1554J-3782D01*
G01*
Y52055D01*
X168171D01*
G37*
X183131D02*
G36*
X183131Y52055D02*
Y41980D01*
G75*
G02*
X190210Y41857I3486J-3121D01*
G01*
Y46457D01*
G75*
G02*
X190631Y47470I1430J0D01*
G01*
X195216Y52055D01*
X183131D01*
G37*
X216891D02*
G36*
X216891Y52055D02*
Y47444D01*
X217236Y47099D01*
G75*
G02*
X217655Y46087I-1012J-1012D01*
G01*
Y46086D01*
Y46084D01*
Y42813D01*
G75*
G02*
X220605Y39764I-1037J-3955D01*
G01*
X222631D01*
G75*
G02*
X230605I3987J-905D01*
G01*
X232631D01*
G75*
G02*
X235088Y42650I3987J-905D01*
G01*
Y52055D01*
X216891D01*
G37*
X238147D02*
G36*
X238147Y52055D02*
Y42650D01*
G75*
G02*
X240605Y39764I-1529J-3791D01*
G01*
X242631D01*
G75*
G02*
X245088Y42650I3987J-905D01*
G01*
Y52055D01*
X238147D01*
G37*
X248147D02*
G36*
X248147Y52055D02*
Y42650D01*
G75*
G02*
X250605Y39764I-1529J-3791D01*
G01*
X252631D01*
G75*
G02*
X255270Y42719I3987J-905D01*
G01*
Y45276D01*
G75*
G02*
X255718Y46357I1530J0D01*
G01*
X261415Y52055D01*
X248147D01*
G37*
X258329Y44643D02*
G36*
X258329Y44643D02*
Y42572D01*
G75*
G02*
X260605Y39764I-1711J-3713D01*
G01*
X262027D01*
G75*
G02*
X270033Y42057I4591J-905D01*
G01*
Y52055D01*
X267545D01*
G75*
G02*
X264876Y51190I-2085J1882D01*
G01*
X258329Y44643D01*
G37*
X273092Y52055D02*
G36*
X273092Y52055D02*
Y40929D01*
G75*
G02*
X280605Y39764I3526J-2070D01*
G01*
X282631D01*
G75*
G02*
X290605I3987J-905D01*
G01*
X292631D01*
G75*
G02*
X300605I3987J-905D01*
G01*
X302631D01*
G75*
G02*
X310605I3987J-905D01*
G01*
X315506D01*
Y49219D01*
G75*
G02*
X314226Y51575I1530J2357D01*
G01*
G75*
G02*
X314267Y52055I2809J0D01*
G01*
X273092D01*
G37*
X318565Y49219D02*
G36*
X318565Y49219D02*
Y39764D01*
X321017D01*
Y51394D01*
G75*
G02*
X321168Y52055I1530J0D01*
G01*
X319803D01*
G75*
G02*
X319844Y51575I-2768J-480D01*
G01*
G75*
G02*
X318565Y49219I-2810J0D01*
G01*
G37*
X324076Y50760D02*
G36*
X324076Y50760D02*
Y39764D01*
X349526D01*
G75*
G02*
X354242Y40370I2549J-1181D01*
G01*
X360389D01*
X362098Y42079D01*
Y42762D01*
X357317D01*
Y48301D01*
X370340D01*
Y52055D01*
X331257D01*
G75*
G02*
X332837Y49409I-1427J-2646D01*
G01*
G75*
G02*
X326825I-3006J0D01*
G01*
Y49410D01*
G75*
G02*
X328404Y52055I3006J0D01*
G01*
X325371D01*
X324076Y50760D01*
G37*
X365150Y40075D02*
G36*
X365150Y40075D02*
X364839Y39764D01*
X370340D01*
Y42762D01*
X365673D01*
Y41342D01*
Y41339D01*
Y41339D01*
G75*
G02*
X365150Y40075I-1789J1D01*
G01*
G37*
X20919Y56890D02*
G36*
X20919Y56890D02*
Y52055D01*
X25262D01*
Y56890D01*
X20919D01*
G37*
X36392D02*
G36*
X36392Y56890D02*
Y52055D01*
X50250D01*
Y56890D01*
X36392D01*
G37*
X53899D02*
G36*
X53899Y56890D02*
Y52055D01*
X59506D01*
G75*
G02*
X62359I1427J-2646D01*
G01*
X68446D01*
G75*
G02*
X73322Y56890I8825J-4024D01*
G01*
X53899D01*
G37*
X77271Y53293D02*
G36*
X77271Y53293D02*
G75*
G03*
X73880Y52055I0J-5262D01*
G01*
X133683D01*
X133331Y52408D01*
X109949D01*
G75*
G02*
X108867Y52856I0J1531D01*
G01*
X104833Y56890D01*
X88528D01*
G75*
G02*
X81996Y53293I-6532J4134D01*
G01*
X77271D01*
G37*
X134878Y55164D02*
G36*
X134878Y55164D02*
G75*
G02*
X135046Y55019I-903J-1212D01*
G01*
X137699Y52365D01*
G75*
G02*
X137939Y52055I-1082J-1082D01*
G01*
X144313D01*
X141205Y55164D01*
X134878D01*
G37*
X143805Y56890D02*
G36*
X143805Y56890D02*
X147699Y52995D01*
G75*
G02*
X148141Y52055I-1082J-1081D01*
G01*
X155088D01*
Y53698D01*
X151896Y56890D01*
X143805D01*
G37*
X156222D02*
G36*
X156222Y56890D02*
X157699Y55413D01*
G75*
G02*
X158147Y54331I-1082J-1082D01*
G01*
Y52055D01*
X165112D01*
Y56454D01*
X164676Y56890D01*
X156222D01*
G37*
X168171D02*
G36*
X168171Y56890D02*
Y52055D01*
X170033D01*
Y56890D01*
X168171D01*
G37*
X183131D02*
G36*
X183131Y56890D02*
Y52055D01*
X195216D01*
X199856Y56696D01*
Y56890D01*
X183131D01*
G37*
X216891D02*
G36*
X216891Y56890D02*
Y52055D01*
X235088D01*
Y56890D01*
X216891D01*
G37*
X238147D02*
G36*
X238147Y56890D02*
Y52055D01*
X245088D01*
Y52517D01*
X240715Y56890D01*
X238147D01*
G37*
X245041D02*
G36*
X245041Y56890D02*
X247699Y54231D01*
G75*
G02*
X248147Y53150I-1082J-1082D01*
G01*
Y52055D01*
X261415D01*
X262713Y53353D01*
G75*
G02*
X262651Y53937I2747J584D01*
G01*
G75*
G02*
X265250Y56739I2809J0D01*
G01*
X249319D01*
G75*
G02*
X248655Y56890I-2J1526D01*
G01*
X245041D01*
G37*
X268269Y53937D02*
G36*
X268269Y53937D02*
G75*
G02*
X267545Y52055I-2809J0D01*
G01*
X270033D01*
Y55666D01*
X268961Y56739D01*
X265670D01*
G75*
G02*
X268269Y53938I-210J-2801D01*
G01*
Y53937D01*
G37*
X273092Y56300D02*
G36*
X273092Y56300D02*
Y52055D01*
X314267D01*
G75*
G02*
X319803I2768J-480D01*
G01*
X321168D01*
G75*
G02*
X321465Y52475I1380J-662D01*
G01*
X323996Y55006D01*
G75*
G02*
X321332Y56890I1700J5230D01*
G01*
X272974D01*
G75*
G02*
X273092Y56300I-1411J-591D01*
G01*
G37*
X325724Y52407D02*
G36*
X325724Y52407D02*
X325371Y52055D01*
X328404D01*
G75*
G02*
X329613Y52407I1427J-2645D01*
G01*
X325724D01*
G37*
X330048D02*
G36*
X330048Y52407D02*
G75*
G02*
X331257Y52055I-218J-2999D01*
G01*
X370340D01*
Y55636D01*
X357317D01*
Y56890D01*
X354291D01*
Y53146D01*
X349067D01*
Y56890D01*
X346553D01*
G75*
G02*
X346463Y56793I-1171J987D01*
G01*
X342526Y52856D01*
G75*
G02*
X341444Y52407I-1082J1083D01*
G01*
X330048D01*
G37*
X9793Y70079D02*
G36*
X9793Y70079D02*
Y61785D01*
X20919D01*
Y56890D01*
X25262D01*
Y61785D01*
X29199D01*
Y62315D01*
G75*
G02*
X26541Y64606I-341J2292D01*
G01*
G75*
G02*
X29789Y66728I2317J0D01*
G01*
Y70079D01*
X9793D01*
G37*
X36392Y60577D02*
G36*
X36392Y60577D02*
Y56890D01*
X50250D01*
Y69685D01*
G75*
G02*
X50293Y70079I1824J0D01*
G01*
X48923D01*
X48826Y69981D01*
G75*
G02*
X47744Y69533I-1082J1083D01*
G01*
X36392D01*
Y68323D01*
X41640D01*
G75*
G02*
X46616Y66535I2167J-1787D01*
G01*
G75*
G02*
X41640Y64748I-2809J0D01*
G01*
X36982D01*
Y60577D01*
X36392D01*
G37*
X53899Y68930D02*
G36*
X53899Y68930D02*
Y56890D01*
X73322D01*
G75*
G02*
X77271Y57730I3950J-8858D01*
G01*
X81996D01*
G75*
G03*
X84737Y59199I0J3293D01*
G01*
X79974D01*
Y59789D01*
X54581D01*
Y68951D01*
X72691D01*
Y70079D01*
X55048D01*
X53899Y68930D01*
G37*
X76341Y70079D02*
G36*
X76341Y70079D02*
Y68951D01*
X79974D01*
Y69541D01*
X86380D01*
Y68951D01*
X88636D01*
Y69541D01*
X95041D01*
Y59199D01*
X89508D01*
G75*
G02*
X88528Y56890I-7512J1824D01*
G01*
X104833D01*
X104143Y57580D01*
G75*
G02*
X103694Y58662I1082J1082D01*
G01*
Y70079D01*
X103613D01*
G75*
G02*
X98961I-2326J1575D01*
G01*
X76341D01*
G37*
X110700D02*
G36*
X110700Y70079D02*
G75*
G02*
X110730Y70034I-2327J-1584D01*
G01*
X111523D01*
G75*
G02*
X112605Y69586I0J-1531D01*
G01*
X114573Y67617D01*
G75*
G02*
X115021Y66536I-1082J-1082D01*
G01*
Y60083D01*
X116881Y58223D01*
X123601D01*
G75*
G02*
X123434Y58368I903J1212D01*
G01*
X122253Y59549D01*
G75*
G02*
X121805Y60630I1082J1082D01*
G01*
Y63540D01*
X121520Y63825D01*
X120572D01*
G75*
G02*
X115407Y65354I-2356J1529D01*
G01*
Y65355D01*
G75*
G02*
X120572Y66884I2809J0D01*
G01*
X122153D01*
G75*
G02*
X123235Y66436I0J-1531D01*
G01*
X124416Y65255D01*
G75*
G02*
X124864Y64174I-1082J-1082D01*
G01*
Y61264D01*
X125149Y60979D01*
X126335D01*
X125402Y61911D01*
G75*
G02*
X124954Y62993I1082J1082D01*
G01*
Y65115D01*
X124265Y65805D01*
G75*
G02*
X123817Y66886I1082J1082D01*
G01*
Y67073D01*
X122161D01*
Y70079D01*
X110700D01*
G37*
X127322Y67073D02*
G36*
X127322Y67073D02*
X127565Y66830D01*
G75*
G02*
X128013Y65748I-1082J-1082D01*
G01*
Y63626D01*
X128298Y63341D01*
X161917D01*
G75*
G02*
X162998Y62893I0J-1531D01*
G01*
X167723Y58169D01*
G75*
G02*
X168171Y57087I-1082J-1082D01*
G01*
Y56890D01*
X170033D01*
Y65115D01*
X168961Y66187D01*
X156406D01*
G75*
G02*
X155324Y66635I0J1531D01*
G01*
X151880Y70079D01*
X136118D01*
Y66482D01*
X128571D01*
Y70079D01*
X128528D01*
Y67073D01*
X127322D01*
G37*
X142752Y57920D02*
G36*
X142752Y57920D02*
G75*
G02*
X142920Y57775I-903J-1212D01*
G01*
X143805Y56890D01*
X151896D01*
X150866Y57920D01*
X142752D01*
G37*
X152830Y60282D02*
G36*
X152830Y60282D02*
X156222Y56890D01*
X164676D01*
X161283Y60282D01*
X152830D01*
G37*
X183131Y70079D02*
G36*
X183131Y70079D02*
Y56890D01*
X199856D01*
Y70079D01*
X183131D01*
G37*
X216891D02*
G36*
X216891Y70079D02*
Y56890D01*
X235088D01*
Y70079D01*
X216891D01*
G37*
X238147D02*
G36*
X238147Y70079D02*
Y56890D01*
X240715D01*
X239969Y57635D01*
G75*
G02*
X239521Y58717I1082J1082D01*
G01*
Y62605D01*
G75*
G02*
X238242Y64961I1530J2357D01*
G01*
G75*
G02*
X243771Y65663I2809J0D01*
G01*
G75*
G02*
X244569Y67333I2793J-309D01*
G01*
X243557D01*
Y70079D01*
X238147D01*
G37*
X242580Y62605D02*
G36*
X242580Y62605D02*
Y59350D01*
X245041Y56890D01*
X248655D01*
G75*
G02*
X248335Y57097I662J1375D01*
G01*
G75*
G02*
X244935Y59843I-591J2746D01*
G01*
G75*
G02*
X250553I2809J0D01*
G01*
G75*
G02*
Y59832I-1292J-6D01*
G01*
G75*
G02*
X250552Y59798I-1322J-2D01*
G01*
X251298D01*
G75*
G02*
X250447Y61811I1958J2014D01*
G01*
G75*
G02*
X251726Y64168I2809J0D01*
G01*
Y64533D01*
X250250D01*
Y69393D01*
G75*
G02*
X249569Y69100I-888J1123D01*
G01*
Y67333D01*
X248557D01*
G75*
G02*
X249372Y65355I-1996J-1979D01*
G01*
G75*
G02*
X243843Y64653I-2809J0D01*
G01*
G75*
G02*
X242580Y62605I-2792J308D01*
G01*
G37*
X254785Y64533D02*
G36*
X254785Y64533D02*
Y64168D01*
G75*
G02*
X256065Y61811I-1530J-2356D01*
G01*
G75*
G02*
X255214Y59798I-2809J0D01*
G01*
X269594D01*
G75*
G02*
X270676Y59350I0J-1531D01*
G01*
X272644Y57381D01*
G75*
G02*
X272974Y56890I-1082J-1082D01*
G01*
X321332D01*
G75*
G02*
X320197Y60236I4365J3346D01*
G01*
Y70079D01*
X291106D01*
X287734Y66706D01*
G75*
G02*
X286720Y66285I-1013J1009D01*
G01*
X256262D01*
Y64533D01*
X254785D01*
G37*
X346911Y57874D02*
G36*
X346911Y57874D02*
G75*
G02*
X346553Y56890I-1530J0D01*
G01*
X349067D01*
Y60634D01*
X354291D01*
Y56890D01*
X357317D01*
Y61175D01*
X362098D01*
Y63630D01*
X361570Y64158D01*
X353701D01*
Y62791D01*
X349657D01*
Y69098D01*
X349893D01*
Y70079D01*
X346911D01*
Y57874D01*
G37*
X353468Y70079D02*
G36*
X353468Y70079D02*
Y69098D01*
X353701D01*
Y67733D01*
X362311D01*
G75*
G02*
X363577Y67207I0J-1788D01*
G01*
X365148Y65636D01*
G75*
G02*
X365673Y64370I-1262J-1266D01*
G01*
Y61175D01*
X370340D01*
Y70079D01*
X353468D01*
G37*
X9793Y76772D02*
G36*
X9793Y76772D02*
Y70079D01*
X29789D01*
Y76772D01*
X9793D01*
G37*
X48923Y70079D02*
G36*
X48923Y70079D02*
X50293D01*
G75*
G02*
X50784Y70976I1781J-393D01*
G01*
X53146Y73338D01*
G75*
G02*
X54437Y73872I1291J-1291D01*
G01*
X73334D01*
G75*
G02*
X74624Y73338I0J-1825D01*
G01*
X75806Y72156D01*
G75*
G02*
X76341Y70866I-1289J-1290D01*
G01*
Y70079D01*
X98961D01*
G75*
G02*
X98478Y71654I2326J1575D01*
G01*
Y71654D01*
G75*
G02*
X103643Y73183I2809J0D01*
G01*
X104436D01*
G75*
G02*
X105518Y72735I0J-1531D01*
G01*
X106306Y71948D01*
G75*
G02*
X106754Y70867I-1082J-1082D01*
G01*
Y70799D01*
G75*
G02*
X110700Y70079I1620J-2294D01*
G01*
X122161D01*
Y73085D01*
X123817D01*
Y73766D01*
X122161D01*
Y75242D01*
X71754D01*
G75*
G02*
X66589Y76771I-2356J1529D01*
G01*
Y76772D01*
X51636D01*
Y73425D01*
G75*
G02*
X51188Y72344I-1530J0D01*
G01*
X48923Y70079D01*
G37*
X55193Y70223D02*
G36*
X55193Y70223D02*
X55048Y70079D01*
X72691D01*
Y70110D01*
X72578Y70223D01*
X55193D01*
G37*
X103643Y70124D02*
G36*
X103643Y70124D02*
G75*
G02*
X103613Y70079I-2357J1532D01*
G01*
X103694D01*
Y70124D01*
X103643D01*
G37*
X126876Y73766D02*
G36*
X126876Y73766D02*
Y73085D01*
X128528D01*
Y70079D01*
X128571D01*
Y73675D01*
X136118D01*
Y70079D01*
X151880D01*
X147913Y74046D01*
G75*
G02*
X143186Y76772I-1350J3120D01*
G01*
X142285D01*
G75*
G02*
X137309Y74984I-2809J0D01*
G01*
X135528D01*
Y73766D01*
X129161D01*
Y76772D01*
X128528D01*
Y73766D01*
X126876D01*
G37*
X181797Y76772D02*
G36*
X181797Y76772D02*
X182683Y75885D01*
G75*
G02*
X183131Y74804I-1082J-1082D01*
G01*
Y70079D01*
X199856D01*
Y76772D01*
X181797D01*
G37*
X216891D02*
G36*
X216891Y76772D02*
Y70079D01*
X235088D01*
Y72054D01*
G75*
G02*
X233809Y74410I1530J2357D01*
G01*
G75*
G02*
X235097Y76772I2809J0D01*
G01*
X216891D01*
G37*
X238147Y72054D02*
G36*
X238147Y72054D02*
Y70079D01*
X243557D01*
Y73699D01*
X249569D01*
Y72586D01*
G75*
G02*
X250109Y72691I536J-1321D01*
G01*
X250250D01*
Y76772D01*
X249569D01*
Y74333D01*
X243557D01*
Y76772D01*
X238139D01*
G75*
G02*
X239427Y74410I-1521J-2362D01*
G01*
G75*
G02*
X238147Y72054I-2810J0D01*
G01*
G37*
X256262Y76772D02*
G36*
X256262Y76772D02*
Y72691D01*
X282584D01*
X286665Y76772D01*
X256262D01*
G37*
X292455Y71428D02*
G36*
X292455Y71428D02*
X291106Y70079D01*
X320197D01*
Y76772D01*
X292876D01*
Y72441D01*
G75*
G02*
X292455Y71428I-1430J0D01*
G01*
G37*
X346911Y73895D02*
G36*
X346911Y73895D02*
Y70079D01*
X349893D01*
Y70913D01*
X346911Y73895D01*
G37*
X349531Y76772D02*
G36*
X349531Y76772D02*
Y76331D01*
X352944Y72918D01*
G75*
G02*
X353468Y71654I-1265J-1265D01*
G01*
Y71653D01*
Y71651D01*
Y70079D01*
X370340D01*
Y74258D01*
X356518D01*
Y76772D01*
X349531D01*
G37*
X9793Y81508D02*
G36*
X9793Y81508D02*
Y76772D01*
X29789D01*
Y81508D01*
X9793D01*
G37*
X51636D02*
G36*
X51636Y81508D02*
Y76772D01*
X66589D01*
G75*
G02*
X71754Y78301I2809J0D01*
G01*
X122161D01*
Y79778D01*
X128528D01*
Y76772D01*
X129161D01*
Y79778D01*
X135528D01*
Y78559D01*
X137309D01*
G75*
G02*
X142285Y76772I2167J-1787D01*
G01*
X143186D01*
G75*
G02*
X143163Y77166I3377J397D01*
G01*
G75*
G02*
X143248Y77923I3400J0D01*
G01*
X139664Y81508D01*
X51636D01*
G37*
X164832D02*
G36*
X164832Y81508D02*
X167252Y79089D01*
X178846D01*
G75*
G02*
X179928Y78641I0J-1531D01*
G01*
X181797Y76772D01*
X199856D01*
Y81508D01*
X164832D01*
G37*
X216891D02*
G36*
X216891Y81508D02*
Y76772D01*
X235097D01*
G75*
G02*
X238139I1521J-2362D01*
G01*
X243557D01*
Y80699D01*
X244776D01*
Y81493D01*
Y81495D01*
Y81496D01*
G75*
G02*
Y81508I1790J6D01*
G01*
X216891D01*
G37*
X249569Y80102D02*
G36*
X249569Y80102D02*
Y76772D01*
X250250D01*
Y77900D01*
X251469D01*
Y79723D01*
G75*
G02*
X251089Y80102I1794J2174D01*
G01*
X249569D01*
G37*
X255043Y79723D02*
G36*
X255043Y79723D02*
Y77900D01*
X256262D01*
Y76772D01*
X286665D01*
X287258Y77365D01*
Y81508D01*
X256039D01*
G75*
G02*
X255043Y79723I-2783J382D01*
G01*
G37*
X292876Y81508D02*
G36*
X292876Y81508D02*
Y76772D01*
X320197D01*
Y81508D01*
X292876D01*
G37*
X349531D02*
G36*
X349531Y81508D02*
Y76772D01*
X356518D01*
Y81508D01*
X349531D01*
G37*
X9793Y90183D02*
G36*
X9793Y90183D02*
Y81508D01*
X29789D01*
Y85241D01*
G75*
G02*
X26541Y87362I-931J2122D01*
G01*
G75*
G02*
X29199Y89654I2317J0D01*
G01*
Y90183D01*
X25262D01*
Y95276D01*
X20919D01*
Y90183D01*
X9793D01*
G37*
X36392Y95276D02*
G36*
X36392Y95276D02*
Y91392D01*
X36982D01*
Y87220D01*
X39130D01*
X41011Y89102D01*
G75*
G02*
X40998Y89367I2693J265D01*
G01*
G75*
G02*
Y89370I2603J2D01*
G01*
G75*
G02*
X45821Y91328I2809J0D01*
G01*
Y95276D01*
X36392D01*
G37*
X51636D02*
G36*
X51636Y95276D02*
Y81508D01*
X139664D01*
X138843Y82329D01*
X68217D01*
G75*
G02*
X67135Y82777I0J1531D01*
G01*
X60442Y89470D01*
G75*
G02*
X59994Y90551I1082J1082D01*
G01*
Y95276D01*
X51636D01*
G37*
X71715D02*
G36*
X71715Y95276D02*
Y94334D01*
X74362Y91687D01*
X152862D01*
G75*
G02*
X153944Y91239I0J-1531D01*
G01*
X154937Y90246D01*
G75*
G02*
X160199Y87401I1862J-2844D01*
G01*
G75*
G02*
X160022Y86319I-3400J0D01*
G01*
X164832Y81508D01*
X199856D01*
Y95276D01*
X179041D01*
X181018Y93299D01*
G75*
G02*
X184411Y90552I585J-2747D01*
G01*
Y90551D01*
G75*
G02*
X179131Y89217I-2809J0D01*
G01*
G75*
G02*
X173675Y90158I-2647J942D01*
G01*
G75*
G02*
X173736Y90743I2809J0D01*
G01*
X171126Y93353D01*
X131602D01*
G75*
G02*
X130520Y93801I0J1531D01*
G01*
X129046Y95276D01*
X122341D01*
Y94041D01*
X114793D01*
Y95276D01*
X114750D01*
Y94632D01*
X108384D01*
Y95276D01*
X106178D01*
X103341Y92439D01*
G75*
G02*
X102075Y91913I-1266J1262D01*
G01*
X90267D01*
G75*
G02*
X89000Y92437I-4J1786D01*
G01*
X86244Y95193D01*
G75*
G02*
X86167Y95276I1265J1265D01*
G01*
X71715D01*
G37*
X213151Y93895D02*
G36*
X213151Y93895D02*
Y85411D01*
G75*
G02*
X218663Y84646I2703J-765D01*
G01*
Y84646D01*
G75*
G02*
X216891Y82035I-2809J0D01*
G01*
Y81508D01*
X244776D01*
G75*
G02*
X245299Y82760I1789J-13D01*
G01*
X245693Y83154D01*
G75*
G02*
X246960Y83677I1263J-1262D01*
G01*
X251089D01*
G75*
G02*
X256065Y81890I2167J-1787D01*
G01*
G75*
G02*
X256039Y81508I-2809J-1D01*
G01*
X287258D01*
Y95276D01*
X280081D01*
Y90104D01*
X268163D01*
Y95276D01*
X214531D01*
X213151Y93895D01*
G37*
X292876Y95276D02*
G36*
X292876Y95276D02*
Y81508D01*
X320197D01*
Y95276D01*
X292876D01*
G37*
X349531Y86856D02*
G36*
X349531Y86856D02*
Y81508D01*
X356518D01*
Y84600D01*
X370340D01*
Y95276D01*
X356230D01*
Y86856D01*
X349531D01*
G37*
X20919Y100787D02*
G36*
X20919Y100787D02*
Y95276D01*
X25262D01*
Y100787D01*
X20919D01*
G37*
X36392D02*
G36*
X36392Y100787D02*
Y95276D01*
X45821D01*
Y100787D01*
X36392D01*
G37*
X51636D02*
G36*
X51636Y100787D02*
Y95276D01*
X59994D01*
Y97388D01*
X53990D01*
Y100787D01*
X51636D01*
G37*
X71715Y97978D02*
G36*
X71715Y97978D02*
Y95276D01*
X86167D01*
G75*
G02*
X85720Y96457I1343J1182D01*
G01*
Y96457D01*
Y96460D01*
Y97978D01*
X71715D01*
G37*
X89295D02*
G36*
X89295Y97978D02*
Y97197D01*
X91004Y95488D01*
X101334D01*
X104746Y98900D01*
G75*
G02*
X106012Y99425I1266J-1262D01*
G01*
X108384D01*
Y100644D01*
X109736D01*
Y100787D01*
X94451D01*
Y97978D01*
X89295D01*
G37*
X106752Y95850D02*
G36*
X106752Y95850D02*
X106178Y95276D01*
X108384D01*
Y95850D01*
X106752D01*
G37*
X113311Y100787D02*
G36*
X113311Y100787D02*
Y100644D01*
X114750D01*
Y95276D01*
X114793D01*
Y100787D01*
X113311D01*
G37*
X122341D02*
G36*
X122341Y100787D02*
Y95276D01*
X129046D01*
X126584Y97737D01*
G75*
G02*
X126136Y98819I1082J1082D01*
G01*
Y100787D01*
X122341D01*
G37*
X131951D02*
G36*
X131951Y100787D02*
Y100633D01*
X133417Y99167D01*
X174515D01*
G75*
G02*
X175597Y98719I0J-1531D01*
G01*
X179041Y95276D01*
X199856D01*
Y100787D01*
X131951D01*
G37*
X217431Y98175D02*
G36*
X217431Y98175D02*
X214531Y95276D01*
X268163D01*
Y100447D01*
X280081D01*
Y95276D01*
X287258D01*
Y100787D01*
X266697D01*
X264506Y98596D01*
G75*
G02*
X263492Y98175I-1013J1009D01*
G01*
X217431D01*
G37*
X292876Y100787D02*
G36*
X292876Y100787D02*
Y95276D01*
X320197D01*
Y100787D01*
X292876D01*
G37*
X356230D02*
G36*
X356230Y100787D02*
Y95276D01*
X370340D01*
Y100787D01*
X363831D01*
G75*
G02*
X360791I-1520J2362D01*
G01*
X356230D01*
G37*
X9793Y116886D02*
G36*
X9793Y116886D02*
Y102022D01*
X20919D01*
Y100787D01*
X25262D01*
Y102022D01*
X36392D01*
Y100787D01*
X45821D01*
Y102516D01*
X44748Y103589D01*
X37115D01*
G75*
G02*
X36033Y104037I0J1531D01*
G01*
X35245Y104824D01*
G75*
G02*
X34797Y105906I1082J1082D01*
G01*
Y106703D01*
X33321D01*
Y113069D01*
X39333D01*
Y106703D01*
X37856D01*
Y106648D01*
X45381D01*
G75*
G02*
X46463Y106200I0J-1531D01*
G01*
X48432Y104231D01*
G75*
G02*
X48577Y104064I-1067J-1070D01*
G01*
Y106059D01*
X46419Y108217D01*
Y106703D01*
X40407D01*
Y113069D01*
X46419D01*
Y111415D01*
X46913D01*
G75*
G02*
X47995Y110967I0J-1531D01*
G01*
X51188Y107774D01*
G75*
G02*
X51636Y106693I-1082J-1082D01*
G01*
Y100787D01*
X53990D01*
Y107730D01*
X60396D01*
Y107140D01*
X72986D01*
Y110970D01*
X72199D01*
Y116886D01*
X47010D01*
Y113112D01*
X32730D01*
Y116886D01*
X9793D01*
G37*
X76045Y110970D02*
G36*
X76045Y110970D02*
Y107140D01*
X77317D01*
Y112598D01*
G75*
G02*
X77765Y113680I1530J0D01*
G01*
X80971Y116886D01*
X76833D01*
Y110970D01*
X76045D01*
G37*
X80376Y111965D02*
G36*
X80376Y111965D02*
Y107140D01*
X90309D01*
Y107874D01*
G75*
G02*
X90757Y108956I1530J0D01*
G01*
X91938Y110137D01*
G75*
G02*
X93020Y110585I1082J-1083D01*
G01*
X100152D01*
Y110970D01*
X99364D01*
Y116886D01*
X85297D01*
X80376Y111965D01*
G37*
X93368Y107241D02*
G36*
X93368Y107241D02*
Y107140D01*
X94451D01*
Y100787D01*
X109736D01*
Y100931D01*
X108384D01*
Y102150D01*
X106561D01*
G75*
G02*
X101585Y103937I-2167J1787D01*
G01*
G75*
G02*
X106561Y105724I2809J0D01*
G01*
X108384D01*
Y106943D01*
X114750D01*
Y100931D01*
X113311D01*
Y100787D01*
X114793D01*
Y107533D01*
X122341D01*
Y100787D01*
X126136D01*
Y116886D01*
X103998D01*
Y110970D01*
X103211D01*
Y109843D01*
G75*
G02*
X102763Y108761I-1530J0D01*
G01*
X101975Y107974D01*
G75*
G02*
X100893Y107526I-1082J1083D01*
G01*
X93653D01*
X93368Y107241D01*
G37*
X131951Y116886D02*
G36*
X131951Y116886D02*
Y100787D01*
X199856D01*
Y110630D01*
G75*
G02*
X200277Y111644I1430J0D01*
G01*
X205519Y116886D01*
X131951D01*
G37*
X267258Y101349D02*
G36*
X267258Y101349D02*
X266697Y100787D01*
X287258D01*
Y116886D01*
X267679D01*
Y102362D01*
G75*
G02*
X267258Y101349I-1430J0D01*
G01*
G37*
X292876Y116886D02*
G36*
X292876Y116886D02*
Y100787D01*
X320197D01*
Y116886D01*
X292876D01*
G37*
X356230Y107624D02*
G36*
X356230Y107624D02*
Y100787D01*
X360791D01*
G75*
G02*
X359502Y103150I1520J2362D01*
G01*
G75*
G02*
X360781Y105506I2810J0D01*
G01*
Y106453D01*
X359611Y107624D01*
X356230D01*
G37*
Y110872D02*
G36*
X356230Y110872D02*
Y110683D01*
X360244D01*
G75*
G02*
X361326Y110235I0J-1531D01*
G01*
X363393Y108168D01*
G75*
G02*
X363841Y107087I-1082J-1082D01*
G01*
Y105506D01*
G75*
G02*
X365120Y103150I-1530J-2357D01*
G01*
G75*
G02*
X363831Y100787I-2809J0D01*
G01*
X370340D01*
Y116886D01*
X356821D01*
Y110872D01*
X356230D01*
G37*
X9793Y122638D02*
G36*
X9793Y122638D02*
Y116886D01*
X32730D01*
Y120659D01*
X47010D01*
Y116886D01*
X72199D01*
Y117770D01*
X76833D01*
Y116886D01*
X80971D01*
X86033Y121948D01*
G75*
G02*
X87115Y122396I1082J-1083D01*
G01*
X89876D01*
G75*
G02*
X90052Y122638I2356J-1528D01*
G01*
X81203D01*
Y118648D01*
X75388D01*
Y122638D01*
X73053D01*
Y119238D01*
X68419D01*
Y122638D01*
X9793D01*
G37*
X87748Y119337D02*
G36*
X87748Y119337D02*
X85297Y116886D01*
X99364D01*
Y117770D01*
X103998D01*
Y116886D01*
X126136D01*
Y122638D01*
X108368D01*
Y118648D01*
X102553D01*
Y122638D01*
X100219D01*
Y119238D01*
X95585D01*
Y122638D01*
X94413D01*
G75*
G02*
X95041Y120867I-2180J-1771D01*
G01*
Y120866D01*
G75*
G02*
X89876Y119337I-2809J0D01*
G01*
X87748D01*
G37*
X131951Y122638D02*
G36*
X131951Y122638D02*
Y116886D01*
X205519D01*
X211271Y122638D01*
X131951D01*
G37*
X267679D02*
G36*
X267679Y122638D02*
Y116886D01*
X287258D01*
Y122638D01*
X267679D01*
G37*
X292876D02*
G36*
X292876Y122638D02*
Y116886D01*
X320197D01*
Y122638D01*
X292876D01*
G37*
X344976D02*
G36*
X344976Y122638D02*
Y120890D01*
G75*
G02*
X349037Y120785I1980J-1993D01*
G01*
Y122638D01*
X344976D01*
G37*
X356230D02*
G36*
X356230Y122638D02*
Y117278D01*
X356821D01*
Y116886D01*
X370340D01*
Y122638D01*
X356230D01*
G37*
X9793Y130512D02*
G36*
X9793Y130512D02*
Y122638D01*
X68419D01*
Y126037D01*
X69207D01*
Y129134D01*
G75*
G02*
X69655Y130215I1530J0D01*
G01*
X69951Y130512D01*
X68656D01*
G75*
G02*
X68663Y130315I-2802J-200D01*
G01*
G75*
G02*
X65586Y127519I-2809J0D01*
G01*
X63575Y125508D01*
G75*
G02*
X62308Y124984I-1263J1262D01*
G01*
X38285D01*
Y123766D01*
X31919D01*
Y129778D01*
X38285D01*
Y128559D01*
X61570D01*
X63058Y130046D01*
G75*
G02*
X63045Y130311I2693J265D01*
G01*
G75*
G02*
Y130315I2603J2D01*
G01*
G75*
G02*
X63052Y130512I2809J-3D01*
G01*
X29632D01*
Y129778D01*
X31285D01*
Y123766D01*
X24919D01*
Y125242D01*
X22941D01*
G75*
G02*
X21859Y125690I0J1531D01*
G01*
X21163Y126386D01*
G75*
G02*
X17770Y129133I-585J2747D01*
G01*
Y129134D01*
G75*
G02*
X18131Y130512I2809J0D01*
G01*
X9793D01*
G37*
X23027D02*
G36*
X23027Y130512D02*
G75*
G02*
X23388Y129134I-2448J-1378D01*
G01*
G75*
G02*
Y129133I-3076J0D01*
G01*
G75*
G02*
X23326Y128549I-2803J0D01*
G01*
X23574Y128301D01*
X24919D01*
Y129778D01*
X26573D01*
Y130512D01*
X23027D01*
G37*
X72266Y128500D02*
G36*
X72266Y128500D02*
Y126037D01*
X73053D01*
Y122638D01*
X75388D01*
Y126628D01*
X81203D01*
Y122638D01*
X90052D01*
G75*
G02*
X94413I2180J-1772D01*
G01*
X95585D01*
Y126037D01*
X96372D01*
Y128197D01*
G75*
G02*
X94790Y130512I1767J2906D01*
G01*
X84163D01*
G75*
G02*
X77779Y129573I-3348J591D01*
G01*
X73338D01*
X72266Y128500D01*
G37*
X99431Y127958D02*
G36*
X99431Y127958D02*
Y126037D01*
X100219D01*
Y122638D01*
X102553D01*
Y126628D01*
X108368D01*
Y122638D01*
X126136D01*
Y127713D01*
X124276Y129573D01*
X101174D01*
G75*
G02*
X99431Y127958I-3037J1530D01*
G01*
G37*
X127663Y130512D02*
G36*
X127663Y130512D02*
X128747Y129428D01*
G75*
G02*
X128892Y129261I-1067J-1070D01*
G01*
Y130512D01*
X127663D01*
G37*
X131951D02*
G36*
X131951Y130512D02*
Y122638D01*
X211271D01*
X216809Y128176D01*
G75*
G02*
X217822Y128597I1013J-1009D01*
G01*
X245775D01*
G75*
G02*
X246789Y128176I0J-1430D01*
G01*
X247156Y127809D01*
X257140D01*
Y130512D01*
X131951D01*
G37*
X264923Y126128D02*
G36*
X264923Y126128D02*
Y125841D01*
X265461D01*
G75*
G02*
X266474Y125420I0J-1430D01*
G01*
X267258Y124635D01*
G75*
G02*
X267679Y123622I-1009J-1013D01*
G01*
Y122638D01*
X287258D01*
Y130512D01*
X265514D01*
Y126128D01*
X264923D01*
G37*
X292876Y130512D02*
G36*
X292876Y130512D02*
Y122638D01*
X320197D01*
Y130512D01*
X292876D01*
G37*
X344976D02*
G36*
X344976Y130512D02*
Y122638D01*
X349037D01*
Y126530D01*
X350846D01*
Y127047D01*
X349236Y128658D01*
G75*
G02*
X348712Y129922I1265J1265D01*
G01*
Y129922D01*
Y129925D01*
Y130512D01*
X344976D01*
G37*
X352437D02*
G36*
X352437Y130512D02*
X353898Y129051D01*
G75*
G02*
X354421Y127787I-1265J-1265D01*
G01*
Y127787D01*
Y127784D01*
Y126530D01*
X356230D01*
Y122638D01*
X370340D01*
Y128785D01*
X356518D01*
Y130512D01*
X352437D01*
G37*
X9793Y134252D02*
G36*
X9793Y134252D02*
Y130512D01*
X18131D01*
G75*
G02*
X23027I2448J-1378D01*
G01*
X26573D01*
Y131246D01*
X24919D01*
Y134252D01*
X9793D01*
G37*
X29632Y131246D02*
G36*
X29632Y131246D02*
Y130512D01*
X63052D01*
G75*
G02*
X68656I2802J-197D01*
G01*
X69951D01*
X71623Y132184D01*
G75*
G02*
X72705Y132632I1082J-1083D01*
G01*
X77779D01*
G75*
G02*
X79285Y134139I3037J-1530D01*
G01*
Y134252D01*
X38876D01*
Y130656D01*
X31329D01*
Y134252D01*
X31285D01*
Y131246D01*
X29632D01*
G37*
X82978Y134252D02*
G36*
X82978Y134252D02*
X82674Y133948D01*
G75*
G02*
X84215Y131102I-1860J-2846D01*
G01*
G75*
G02*
X84163Y130512I-3400J-1D01*
G01*
X94790D01*
G75*
G02*
X94738Y131102I3349J590D01*
G01*
G75*
G02*
X96858Y134252I3400J0D01*
G01*
X82978D01*
G37*
X99418D02*
G36*
X99418Y134252D02*
G75*
G02*
X101174Y132632I-1280J-3150D01*
G01*
X124909D01*
G75*
G02*
X125991Y132184I0J-1531D01*
G01*
X127663Y130512D01*
X128892D01*
Y132044D01*
X126683Y134252D01*
X99418D01*
G37*
X131009D02*
G36*
X131009Y134252D02*
X131503Y133759D01*
G75*
G02*
X131951Y132677I-1082J-1082D01*
G01*
Y130512D01*
X257140D01*
Y134252D01*
X174944D01*
G75*
G02*
X170937I-2004J1969D01*
G01*
X131009D01*
G37*
X265514D02*
G36*
X265514Y134252D02*
Y130512D01*
X287258D01*
Y134252D01*
X265514D01*
G37*
X292876D02*
G36*
X292876Y134252D02*
Y130512D01*
X320197D01*
Y134252D01*
X292876D01*
G37*
X344976D02*
G36*
X344976Y134252D02*
Y130512D01*
X348712D01*
Y134252D01*
X344976D01*
G37*
X352287D02*
G36*
X352287Y134252D02*
Y130662D01*
X352437Y130512D01*
X356518D01*
Y134252D01*
X352287D01*
G37*
X9793Y144094D02*
G36*
X9793Y144094D02*
Y134252D01*
X24919D01*
Y137258D01*
X31285D01*
Y134252D01*
X31329D01*
Y137848D01*
X38876D01*
Y134252D01*
X79285D01*
G75*
G02*
X79733Y135333I1530J0D01*
G01*
X82489Y138089D01*
G75*
G02*
X83571Y138537I1082J-1083D01*
G01*
X126090D01*
G75*
G02*
X127172Y138089I0J-1531D01*
G01*
X131009Y134252D01*
X170937D01*
G75*
G02*
X170131Y136221I2004J1969D01*
G01*
G75*
G02*
X171411Y138577I2810J0D01*
G01*
X171411Y139774D01*
X169935D01*
Y144094D01*
X94254D01*
G75*
G02*
X89278Y142307I-2809J0D01*
G01*
X88679D01*
Y141089D01*
X82313D01*
Y144094D01*
X81679D01*
Y141089D01*
X75313D01*
Y144094D01*
X9793D01*
G37*
X84204Y135478D02*
G36*
X84204Y135478D02*
X82978Y134252D01*
X96858D01*
G75*
G02*
X99418I1280J-3150D01*
G01*
X126683D01*
X125457Y135478D01*
X84204D01*
G37*
X174470Y139774D02*
G36*
X174470Y139774D02*
X174470Y138577D01*
G75*
G02*
X175750Y136221I-1529J-2356D01*
G01*
G75*
G02*
X174944Y134252I-2809J0D01*
G01*
X257140D01*
Y144094D01*
X220441D01*
Y139925D01*
X212067D01*
Y144094D01*
X207043D01*
Y139925D01*
X198669D01*
Y144094D01*
X175947D01*
Y139774D01*
X174470D01*
G37*
X265514Y144094D02*
G36*
X265514Y144094D02*
Y134252D01*
X287258D01*
Y144094D01*
X265514D01*
G37*
X292876D02*
G36*
X292876Y144094D02*
Y134252D01*
X320197D01*
Y144094D01*
X292876D01*
G37*
X344976D02*
G36*
X344976Y144094D02*
Y134252D01*
X348712D01*
Y141091D01*
X347886D01*
Y144094D01*
X344976D01*
G37*
X352287Y141091D02*
G36*
X352287Y141091D02*
Y134252D01*
X356518D01*
Y139128D01*
X370340D01*
Y144094D01*
X369274D01*
Y140400D01*
X356136D01*
Y141382D01*
X353110D01*
Y141091D01*
X352287D01*
G37*
X9793Y152559D02*
G36*
X9793Y152559D02*
Y144094D01*
X75313D01*
Y147100D01*
X76967D01*
Y147781D01*
X75313D01*
Y152559D01*
X49961D01*
Y147390D01*
X33713D01*
Y152559D01*
X9793D01*
G37*
X80026Y147781D02*
G36*
X80026Y147781D02*
Y147100D01*
X81679D01*
Y144094D01*
X82313D01*
Y147100D01*
X88679D01*
Y145882D01*
X89278D01*
G75*
G02*
X94254Y144094I2167J-1787D01*
G01*
X169935D01*
Y146140D01*
X175947D01*
Y144094D01*
X198669D01*
Y152201D01*
X201068D01*
Y152559D01*
X175947D01*
Y146774D01*
X169935D01*
Y152559D01*
X89270D01*
Y147191D01*
X81722D01*
Y152559D01*
X81679D01*
Y147781D01*
X80026D01*
G37*
X204643Y152559D02*
G36*
X204643Y152559D02*
Y152201D01*
X207043D01*
Y144094D01*
X212067D01*
Y152201D01*
X220441D01*
Y147494D01*
X225498D01*
X230563Y152559D01*
X204643D01*
G37*
X220441Y144632D02*
G36*
X220441Y144632D02*
Y144094D01*
X257140D01*
Y152559D01*
X233427D01*
Y151969D01*
G75*
G02*
X233006Y150955I-1430J0D01*
G01*
X227104Y145053D01*
G75*
G02*
X226091Y144632I-1013J1009D01*
G01*
X220441D01*
G37*
X265514Y152559D02*
G36*
X265514Y152559D02*
Y144094D01*
X287258D01*
Y152559D01*
X265514D01*
G37*
X292876D02*
G36*
X292876Y152559D02*
Y144094D01*
X320197D01*
Y152559D01*
X292876D01*
G37*
X344976D02*
G36*
X344976Y152559D02*
Y144094D01*
X347886D01*
Y146315D01*
X353110D01*
Y144957D01*
X356136D01*
Y145939D01*
X369274D01*
Y144094D01*
X370340D01*
Y152559D01*
X353701D01*
Y149161D01*
X347295D01*
Y152559D01*
X344976D01*
G37*
X9793Y165175D02*
G36*
X9793Y165175D02*
Y152559D01*
X33713D01*
Y163244D01*
X49961D01*
Y156844D01*
X65811D01*
X69443Y160476D01*
Y165175D01*
X9793D01*
G37*
X49961Y153785D02*
G36*
X49961Y153785D02*
Y152559D01*
X75313D01*
Y153793D01*
X76967D01*
Y155518D01*
G75*
G02*
X75687Y157874I1530J2357D01*
G01*
G75*
G02*
X81305I2809J0D01*
G01*
G75*
G02*
X80026Y155518I-2810J0D01*
G01*
Y153793D01*
X81679D01*
Y152559D01*
X81722D01*
Y154384D01*
X89270D01*
Y152559D01*
X169935D01*
Y153140D01*
X171510D01*
Y165175D01*
X145963D01*
Y163726D01*
X138415D01*
Y165175D01*
X138372D01*
Y164317D01*
X136675D01*
Y162993D01*
G75*
G02*
X136227Y161911I-1530J0D01*
G01*
X135046Y160730D01*
G75*
G02*
X133964Y160282I-1082J1083D01*
G01*
X122154D01*
G75*
G02*
X121072Y160730I0J1531D01*
G01*
X119891Y161911D01*
G75*
G02*
X119443Y162993I1082J1082D01*
G01*
Y165175D01*
X110004D01*
Y164986D01*
X101925D01*
Y165175D01*
X101636D01*
Y163386D01*
G75*
G02*
X101188Y162304I-1530J0D01*
G01*
X100204Y161320D01*
G75*
G02*
X99122Y160872I-1082J1083D01*
G01*
X98191D01*
Y159199D01*
X88636D01*
Y165175D01*
X82370D01*
X90110Y157435D01*
X94207D01*
G75*
G02*
X99372Y155906I2356J-1529D01*
G01*
Y155906D01*
G75*
G02*
X94207Y154376I-2809J0D01*
G01*
X89477D01*
G75*
G02*
X88395Y154824I0J1531D01*
G01*
X80575Y162644D01*
X72502D01*
Y159843D01*
G75*
G02*
X72054Y158761I-1530J0D01*
G01*
X67526Y154233D01*
G75*
G02*
X66444Y153785I-1082J1083D01*
G01*
X49961D01*
G37*
X98191Y165175D02*
G36*
X98191Y165175D02*
Y163931D01*
X98489D01*
X98577Y164019D01*
Y165175D01*
X98191D01*
G37*
X122502D02*
G36*
X122502Y165175D02*
Y163626D01*
X122787Y163341D01*
X133331D01*
X133616Y163626D01*
Y164317D01*
X132006D01*
Y165175D01*
X131358D01*
Y164986D01*
X123280D01*
Y165175D01*
X122502D01*
G37*
X174372Y153844D02*
G36*
X174372Y153844D02*
Y153140D01*
X175947D01*
Y152559D01*
X201068D01*
Y152917D01*
X198669D01*
Y157268D01*
X194254D01*
Y156738D01*
X187455D01*
Y161372D01*
X194254D01*
Y160843D01*
X198669D01*
Y165175D01*
X186577D01*
Y159927D01*
X178596D01*
Y165175D01*
X174372D01*
Y156707D01*
X179187D01*
Y157593D01*
X185986D01*
Y152959D01*
X179187D01*
Y153844D01*
X174372D01*
G37*
X204643Y152917D02*
G36*
X204643Y152917D02*
Y152559D01*
X230563D01*
X230565Y152561D01*
Y160324D01*
X228285Y158045D01*
G75*
G02*
X227272Y157624I-1013J1009D01*
G01*
X220441D01*
Y152917D01*
X212067D01*
Y165175D01*
X207043D01*
Y152917D01*
X204643D01*
G37*
X220441Y165175D02*
G36*
X220441Y165175D02*
Y160486D01*
X226679D01*
X228203Y162010D01*
Y165175D01*
X220441D01*
G37*
X233427D02*
G36*
X233427Y165175D02*
Y152559D01*
X257140D01*
Y165175D01*
X233427D01*
G37*
X265514D02*
G36*
X265514Y165175D02*
Y152559D01*
X287258D01*
Y165175D01*
X265514D01*
G37*
X292876D02*
G36*
X292876Y165175D02*
Y152559D01*
X320197D01*
Y165175D01*
X292876D01*
G37*
X344976D02*
G36*
X344976Y165175D02*
Y152559D01*
X347295D01*
Y155567D01*
X353701D01*
Y152559D01*
X370340D01*
Y165175D01*
X360536D01*
G75*
G02*
X361576Y163043I-1768J-2183D01*
G01*
X364132Y160487D01*
G75*
G02*
X364726Y159055I-1428J-1431D01*
G01*
Y158813D01*
X369274D01*
Y153274D01*
X356136D01*
Y158813D01*
X360088D01*
X358717Y160183D01*
G75*
G02*
X355959Y162992I50J2809D01*
G01*
G75*
G02*
X357000Y165175I2809J0D01*
G01*
X344976D01*
G37*
X9793Y172303D02*
G36*
X9793Y172303D02*
Y165175D01*
X69443D01*
Y172303D01*
X9793D01*
G37*
X72502D02*
G36*
X72502Y172303D02*
Y165703D01*
X81208D01*
G75*
G02*
X82290Y165255I0J-1531D01*
G01*
X82370Y165175D01*
X88636D01*
Y165604D01*
X98191D01*
Y165175D01*
X98577D01*
Y166535D01*
G75*
G02*
X99025Y167617I1530J0D01*
G01*
X99812Y168404D01*
G75*
G02*
X100894Y168852I1082J-1083D01*
G01*
X101925D01*
Y169620D01*
X110004D01*
Y165175D01*
X119443D01*
Y172303D01*
X110004D01*
Y169986D01*
X101925D01*
Y170715D01*
X98191D01*
Y169041D01*
X88636D01*
Y172303D01*
X72502D01*
G37*
X101636Y165793D02*
G36*
X101636Y165793D02*
Y165175D01*
X101925D01*
Y165793D01*
X101636D01*
G37*
X122502Y172303D02*
G36*
X122502Y172303D02*
Y165175D01*
X123280D01*
Y169620D01*
X131358D01*
Y168833D01*
X132006D01*
Y170329D01*
X138372D01*
Y165175D01*
X138415D01*
Y170919D01*
X145963D01*
Y165175D01*
X171510D01*
Y172303D01*
X131358D01*
Y169986D01*
X123280D01*
Y172303D01*
X122502D01*
G37*
X131358Y165774D02*
G36*
X131358Y165774D02*
Y165175D01*
X132006D01*
Y165774D01*
X131358D01*
G37*
X174372Y172303D02*
G36*
X174372Y172303D02*
Y165175D01*
X178596D01*
Y165742D01*
X186577D01*
Y165175D01*
X198669D01*
Y165193D01*
X207043D01*
Y165175D01*
X212067D01*
Y165193D01*
X220441D01*
Y165175D01*
X228203D01*
Y172135D01*
X227102Y171035D01*
G75*
G02*
X226087Y170616I-1011J1011D01*
G01*
X220441D01*
Y165909D01*
X212067D01*
Y172303D01*
X207043D01*
Y165909D01*
X198669D01*
Y172303D01*
X174372D01*
G37*
X233427D02*
G36*
X233427Y172303D02*
Y165175D01*
X257140D01*
Y171904D01*
X257730D01*
Y172191D01*
X245776D01*
G75*
G02*
X245220Y172303I0J1431D01*
G01*
X233427D01*
G37*
X264923D02*
G36*
X264923Y172303D02*
Y171904D01*
X265514D01*
Y165175D01*
X287258D01*
Y172303D01*
X264923D01*
G37*
X292876D02*
G36*
X292876Y172303D02*
Y165175D01*
X320197D01*
Y172303D01*
X292876D01*
G37*
X344976D02*
G36*
X344976Y172303D02*
Y165175D01*
X357000D01*
G75*
G02*
X360536I1768J-2183D01*
G01*
X370340D01*
Y172303D01*
X344976D01*
G37*
X9793Y177996D02*
G36*
X9793Y177996D02*
Y172303D01*
X69443D01*
Y177996D01*
X51339D01*
Y176327D01*
X32335D01*
Y177996D01*
X9793D01*
G37*
X72502D02*
G36*
X72502Y177996D02*
Y172303D01*
X88636D01*
Y175447D01*
X98191D01*
Y173774D01*
X101925D01*
Y174620D01*
X110004D01*
Y172303D01*
X119443D01*
Y177996D01*
X113986D01*
X112211Y176222D01*
G75*
G02*
X111130Y175774I-1082J1083D01*
G01*
X110004D01*
Y174986D01*
X101925D01*
Y175636D01*
X96170D01*
G75*
G02*
X95088Y176084I0J1531D01*
G01*
X93176Y177996D01*
X72502D01*
G37*
X122502D02*
G36*
X122502Y177996D02*
Y172303D01*
X123280D01*
Y174620D01*
X131358D01*
Y172303D01*
X171510D01*
Y177953D01*
G75*
G02*
X171511Y177996I1434J-4D01*
G01*
X160789D01*
Y174222D01*
X153596D01*
Y177996D01*
X146800D01*
X144979Y176174D01*
G75*
G02*
X143897Y175726I-1082J1083D01*
G01*
X131358D01*
Y174986D01*
X123280D01*
Y177996D01*
X122502D01*
G37*
X174372Y177360D02*
G36*
X174372Y177360D02*
Y172303D01*
X198669D01*
Y177996D01*
X175008D01*
X174372Y177360D01*
G37*
X207043Y177996D02*
G36*
X207043Y177996D02*
Y172303D01*
X212067D01*
Y177996D01*
X207043D01*
G37*
X220441D02*
G36*
X220441Y177996D02*
Y173478D01*
X225498D01*
X226234Y174215D01*
Y177996D01*
X220441D01*
G37*
X233427Y176966D02*
G36*
X233427Y176966D02*
Y172303D01*
X245220D01*
G75*
G02*
X244762Y172612I556J1318D01*
G01*
X244504Y172869D01*
G75*
G02*
X240998Y175590I-698J2721D01*
G01*
Y175591D01*
Y175591D01*
G75*
G02*
X242356Y177996I2809J0D01*
G01*
X234457D01*
X233427Y176966D01*
G37*
X264923Y177309D02*
G36*
X264923Y177309D02*
Y172303D01*
X287258D01*
Y177996D01*
X265514D01*
Y177309D01*
X264923D01*
G37*
X292876Y177996D02*
G36*
X292876Y177996D02*
Y172303D01*
X320197D01*
Y177996D01*
X292876D01*
G37*
X344976D02*
G36*
X344976Y177996D02*
Y172303D01*
X370340D01*
Y177996D01*
X344976D01*
G37*
X9793Y188819D02*
G36*
X9793Y188819D02*
Y177996D01*
X32335D01*
Y188819D01*
X9793D01*
G37*
X51339D02*
G36*
X51339Y188819D02*
Y177996D01*
X69443D01*
Y188819D01*
X51339D01*
G37*
X72502Y178392D02*
G36*
X72502Y178392D02*
Y177996D01*
X93176D01*
X92780Y178392D01*
X72502D01*
G37*
Y188819D02*
G36*
X72502Y188819D02*
Y181451D01*
X93413D01*
G75*
G02*
X94495Y181003I0J-1531D01*
G01*
X96803Y178695D01*
X101925D01*
Y179396D01*
X101335D01*
Y185211D01*
X110594D01*
Y179396D01*
X110004D01*
Y178833D01*
X110496D01*
X112356Y180693D01*
Y188819D01*
X108817D01*
G75*
G02*
X103207I-2805J157D01*
G01*
X72502D01*
G37*
X114967Y178978D02*
G36*
X114967Y178978D02*
X113986Y177996D01*
X119443D01*
Y184252D01*
G75*
G02*
X119891Y185334I1530J0D01*
G01*
X121859Y187302D01*
G75*
G02*
X122941Y187750I1082J-1083D01*
G01*
X139630D01*
X140698Y188819D01*
X115415D01*
Y180059D01*
G75*
G02*
X114967Y178978I-1530J0D01*
G01*
G37*
X122502Y183619D02*
G36*
X122502Y183619D02*
Y177996D01*
X123280D01*
Y179620D01*
X131358D01*
Y178785D01*
X143264D01*
X146214Y181736D01*
Y184890D01*
X142546Y181222D01*
G75*
G02*
X141464Y180774I-1082J1083D01*
G01*
X131358D01*
Y179986D01*
X123280D01*
Y184397D01*
X122502Y183619D01*
G37*
X148825Y180021D02*
G36*
X148825Y180021D02*
X146800Y177996D01*
X153596D01*
Y181770D01*
X160789D01*
Y177996D01*
X171511D01*
G75*
G02*
X171931Y178966I1430J-43D01*
G01*
X175077Y182113D01*
G75*
G02*
X176091Y182533I1013J-1009D01*
G01*
X179187D01*
Y183577D01*
X185986D01*
Y178943D01*
X179187D01*
Y179671D01*
X176683D01*
X175008Y177996D01*
X198669D01*
Y178185D01*
X201068D01*
Y178902D01*
X198669D01*
Y183252D01*
X194254D01*
Y182722D01*
X187455D01*
Y187356D01*
X194254D01*
Y186827D01*
X198669D01*
Y188819D01*
X186577D01*
Y185911D01*
X178596D01*
Y188819D01*
X170193D01*
X169483Y188108D01*
G75*
G02*
X168217Y187583I-1266J1262D01*
G01*
X166067D01*
Y187206D01*
G75*
G02*
X167089Y185040I-1785J-2166D01*
G01*
G75*
G02*
Y185039I-2820J0D01*
G01*
G75*
G02*
X162149Y183209I-2809J0D01*
G01*
X160199D01*
Y181813D01*
X154187D01*
Y188179D01*
X155406D01*
Y188819D01*
X149273D01*
Y181102D01*
G75*
G02*
X148825Y180021I-1530J0D01*
G01*
G37*
X204643Y178902D02*
G36*
X204643Y178902D02*
Y178185D01*
X207043D01*
Y177996D01*
X212067D01*
Y178185D01*
X220441D01*
Y177996D01*
X226234D01*
Y179134D01*
G75*
G02*
X226655Y180147I1430J0D01*
G01*
X230116Y183608D01*
X220441D01*
Y178902D01*
X212067D01*
Y188819D01*
X207043D01*
Y178902D01*
X204643D01*
G37*
X220441Y188819D02*
G36*
X220441Y188819D02*
Y186470D01*
X229828D01*
X231100Y187742D01*
X228455D01*
G75*
G02*
X227302Y188219I-2J1630D01*
G01*
X226702Y188819D01*
X220441D01*
G37*
X236526Y180065D02*
G36*
X236526Y180065D02*
X234457Y177996D01*
X242356D01*
G75*
G02*
X244504Y178312I1451J-2405D01*
G01*
X244762Y178569D01*
G75*
G02*
X245776Y178990I1013J-1009D01*
G01*
X257140D01*
Y180065D01*
X236526D01*
G37*
X264923Y187742D02*
G36*
X264923Y187742D02*
Y181746D01*
X265514D01*
Y177996D01*
X287258D01*
Y188819D01*
X271070D01*
X271336Y188553D01*
G75*
G02*
X271813Y187402I-1154J-1152D01*
G01*
Y184967D01*
G75*
G02*
X272994Y182678I-1627J-2289D01*
G01*
Y182678D01*
G75*
G02*
X267376I-2809J0D01*
G01*
Y182678D01*
G75*
G02*
X268557Y184967I2808J0D01*
G01*
Y186728D01*
X267543Y187742D01*
X264923D01*
G37*
X292876Y188819D02*
G36*
X292876Y188819D02*
Y177996D01*
X320197D01*
Y188819D01*
X292876D01*
G37*
X344976D02*
G36*
X344976Y188819D02*
Y177996D01*
X370340D01*
Y188819D01*
X344976D01*
G37*
X9793Y196850D02*
G36*
X9793Y196850D02*
Y188819D01*
X32335D01*
Y195331D01*
X51339D01*
Y188819D01*
X69443D01*
Y196850D01*
X9793D01*
G37*
X72502D02*
G36*
X72502Y196850D02*
Y188819D01*
X103207D01*
G75*
G02*
X103203Y188976I2806J156D01*
G01*
G75*
G02*
X104181Y191107I2809J0D01*
G01*
Y191876D01*
X102785D01*
Y196850D01*
X102152D01*
Y191876D01*
X95785D01*
Y196850D01*
X72502D01*
G37*
X107756Y191876D02*
G36*
X107756Y191876D02*
Y191178D01*
G75*
G02*
X108821Y188976I-1745J-2203D01*
G01*
G75*
G02*
X108817Y188819I-2810J-2D01*
G01*
X112356D01*
Y190157D01*
G75*
G02*
X112804Y191239I1530J0D01*
G01*
X114988Y193423D01*
G75*
G02*
X114817Y194486I3216J1063D01*
G01*
G75*
G02*
Y194489I3562J1D01*
G01*
G75*
G02*
X115771Y196850I3400J0D01*
G01*
X109152D01*
Y191876D01*
X107756D01*
G37*
X115415Y189524D02*
G36*
X115415Y189524D02*
Y188819D01*
X140698D01*
X142277Y190398D01*
Y196850D01*
X140516D01*
Y194317D01*
X131256D01*
Y196850D01*
X120661D01*
G75*
G02*
X121616Y194489I-2445J-2362D01*
G01*
Y194488D01*
G75*
G02*
X117152Y191260I-3400J0D01*
G01*
X115415Y189524D01*
G37*
X149273Y196850D02*
G36*
X149273Y196850D02*
Y188819D01*
X155406D01*
Y194907D01*
X153201D01*
Y196850D01*
X149273D01*
G37*
X165280Y196457D02*
G36*
X165280Y196457D02*
Y195925D01*
X165998D01*
Y196850D01*
X165236D01*
G75*
G02*
X165280Y196457I-1744J-393D01*
G01*
G37*
X170266Y188891D02*
G36*
X170266Y188891D02*
X170193Y188819D01*
X178596D01*
Y191726D01*
X186577D01*
Y188819D01*
X198669D01*
Y191177D01*
X207043D01*
Y188819D01*
X212067D01*
Y191177D01*
X220441D01*
Y188819D01*
X226702D01*
X219904Y195617D01*
X217220D01*
Y194240D01*
X210854D01*
Y196850D01*
X210811D01*
Y193650D01*
X203264D01*
Y196850D01*
X172010D01*
Y190955D01*
X170791D01*
Y190157D01*
G75*
G02*
X170266Y188891I-1788J0D01*
G01*
G37*
X226628Y193648D02*
G36*
X226628Y193648D02*
Y196850D01*
X223275D01*
X229127Y190998D01*
X268215D01*
G75*
G02*
X269368Y190521I2J-1630D01*
G01*
X271070Y188819D01*
X287258D01*
Y196850D01*
X279844D01*
Y191679D01*
X267927D01*
Y196850D01*
X238545D01*
Y193648D01*
X226628D01*
G37*
X292876Y196850D02*
G36*
X292876Y196850D02*
Y188819D01*
X320197D01*
Y196850D01*
X292876D01*
G37*
X344976D02*
G36*
X344976Y196850D02*
Y188819D01*
X370340D01*
Y196850D01*
X344976D01*
G37*
X9793Y201181D02*
G36*
X9793Y201181D02*
Y196850D01*
X69443D01*
Y201181D01*
X9793D01*
G37*
X72502D02*
G36*
X72502Y201181D02*
Y196850D01*
X95785D01*
Y197888D01*
X97439D01*
Y198569D01*
X95785D01*
Y201181D01*
X72502D01*
G37*
X100498Y198569D02*
G36*
X100498Y198569D02*
Y197888D01*
X102152D01*
Y196850D01*
X102785D01*
Y197888D01*
X109152D01*
Y196850D01*
X115771D01*
G75*
G02*
X120661I2445J-2362D01*
G01*
X131256D01*
Y201181D01*
X109742D01*
Y197978D01*
X102195D01*
Y201181D01*
X102152D01*
Y198569D01*
X100498D01*
G37*
X140516Y201181D02*
G36*
X140516Y201181D02*
Y196850D01*
X142277D01*
Y201181D01*
X140516D01*
G37*
X149273D02*
G36*
X149273Y201181D02*
Y196850D01*
X153201D01*
Y199541D01*
X161280D01*
Y199012D01*
X162724D01*
G75*
G02*
X163991Y198486I0J-1788D01*
G01*
X164754Y197723D01*
G75*
G02*
X165236Y196850I-1262J-1267D01*
G01*
X165998D01*
Y197321D01*
X172010D01*
Y196850D01*
X203264D01*
Y200843D01*
X210811D01*
Y196850D01*
X210854D01*
Y200252D01*
X217220D01*
Y198872D01*
X220576D01*
G75*
G02*
X221730Y198396I2J-1630D01*
G01*
X223275Y196850D01*
X226628D01*
Y201181D01*
X187758D01*
G75*
G02*
X181322Y199652I-3400J0D01*
G01*
X172558D01*
G75*
G02*
X172187Y199608I-362J1487D01*
G01*
X172010D01*
Y197955D01*
X165998D01*
Y199608D01*
X164280D01*
G75*
G02*
X163198Y200056I0J1531D01*
G01*
X162559Y200695D01*
X161280D01*
Y199907D01*
X153201D01*
Y201181D01*
X149273D01*
G37*
X238545D02*
G36*
X238545Y201181D02*
Y196850D01*
X267927D01*
Y201181D01*
X238545D01*
G37*
X279844D02*
G36*
X279844Y201181D02*
Y196850D01*
X287258D01*
Y198226D01*
X284303Y201181D01*
X279844D01*
G37*
X292876D02*
G36*
X292876Y201181D02*
Y196850D01*
X320197D01*
Y201181D01*
X292876D01*
G37*
X344976D02*
G36*
X344976Y201181D02*
Y196850D01*
X370340D01*
Y201181D01*
X344976D01*
G37*
X9793Y224803D02*
G36*
X9793Y224803D02*
Y201181D01*
X69443D01*
Y209996D01*
X64827Y214612D01*
X49961D01*
Y208413D01*
X33713D01*
Y224268D01*
X49961D01*
Y217671D01*
X65460D01*
G75*
G02*
X66542Y217223I0J-1531D01*
G01*
X72054Y211711D01*
G75*
G02*
X72502Y210630I-1082J-1082D01*
G01*
Y201181D01*
X95785D01*
Y204581D01*
X97439D01*
Y206305D01*
G75*
G02*
X96159Y208661I1530J2357D01*
G01*
G75*
G02*
X101778I2809J0D01*
G01*
G75*
G02*
X100498Y206305I-2810J0D01*
G01*
Y204581D01*
X102152D01*
Y201181D01*
X102195D01*
Y205171D01*
X109742D01*
Y201181D01*
X131256D01*
Y215132D01*
X140516D01*
Y201181D01*
X142277D01*
Y211418D01*
G75*
G02*
X142725Y212499I1530J0D01*
G01*
X147843Y217617D01*
G75*
G02*
X148925Y218065I1082J-1083D01*
G01*
X154591D01*
X155663Y219138D01*
Y222447D01*
G75*
G02*
X155026Y223016I1533J2359D01*
G01*
X153878D01*
Y221386D01*
X145504D01*
Y224803D01*
X9793D01*
G37*
X145336Y210784D02*
G36*
X145336Y210784D02*
Y210011D01*
X148631Y213306D01*
G75*
G02*
X149713Y213754I1082J-1083D01*
G01*
X153201D01*
Y214541D01*
X161280D01*
Y213734D01*
X188056D01*
X189522Y215200D01*
Y222047D01*
G75*
G02*
X189970Y223129I1530J0D01*
G01*
X191644Y224803D01*
X174309D01*
Y221207D01*
X166762D01*
Y224803D01*
X166719D01*
Y221797D01*
X160352D01*
Y223016D01*
X159360D01*
G75*
G02*
X158722Y222447I-2171J1791D01*
G01*
Y218505D01*
G75*
G02*
X158274Y217423I-1530J0D01*
G01*
X156306Y215454D01*
G75*
G02*
X155224Y215006I-1082J1083D01*
G01*
X149558D01*
X145336Y210784D01*
G37*
X149273Y204229D02*
G36*
X149273Y204229D02*
Y201181D01*
X153201D01*
Y204541D01*
X161280D01*
Y203754D01*
X163193D01*
G75*
G02*
X164274Y203306I0J-1531D01*
G01*
X164913Y202667D01*
X165998D01*
Y204321D01*
X172010D01*
Y202693D01*
G75*
G02*
X172250Y202711I231J-1523D01*
G01*
X181322D01*
G75*
G02*
X187758Y201181I3036J-1530D01*
G01*
X226628D01*
Y202900D01*
X209949D01*
G75*
G02*
X208935Y203320I0J1430D01*
G01*
X206462Y205793D01*
X161280D01*
Y204907D01*
X153201D01*
Y205695D01*
X150739D01*
X149273Y204229D01*
G37*
X238545Y202900D02*
G36*
X238545Y202900D02*
Y201181D01*
X267927D01*
Y202022D01*
X279844D01*
Y201181D01*
X284303D01*
X282584Y202900D01*
X238545D01*
G37*
X291500Y224803D02*
G36*
X291500Y224803D02*
X292455Y223848D01*
G75*
G02*
X292876Y222835I-1009J-1013D01*
G01*
Y201181D01*
X320197D01*
Y224803D01*
X291500D01*
G37*
X344976D02*
G36*
X344976Y224803D02*
Y201181D01*
X370340D01*
Y224803D01*
X344976D01*
G37*
X9793Y233859D02*
G36*
X9793Y233859D02*
Y224803D01*
X145504D01*
Y228185D01*
X153878D01*
Y226591D01*
X155026D01*
G75*
G02*
X159360I2167J-1787D01*
G01*
X160352D01*
Y227809D01*
X166719D01*
Y224803D01*
X166762D01*
Y228400D01*
X174309D01*
Y224803D01*
X191644D01*
X191938Y225097D01*
G75*
G02*
X193020Y225545I1082J-1083D01*
G01*
X210093D01*
Y230315D01*
G75*
G02*
X210513Y231328I1430J0D01*
G01*
X212479Y233294D01*
G75*
G02*
X213492Y233715I1013J-1009D01*
G01*
X224516D01*
G75*
G02*
X225529Y233294I0J-1430D01*
G01*
X227077Y231746D01*
X283965D01*
G75*
G02*
X284978Y231325I0J-1430D01*
G01*
X291500Y224803D01*
X320197D01*
Y233859D01*
X238545D01*
Y232230D01*
X226628D01*
Y233859D01*
X174309D01*
Y230262D01*
X166762D01*
Y233859D01*
X166719D01*
Y230852D01*
X160352D01*
Y232071D01*
X159360D01*
G75*
G02*
X155026I-2167J1787D01*
G01*
X154543D01*
Y230709D01*
G75*
G02*
X153256Y229422I-1287J0D01*
G01*
X132889D01*
Y226378D01*
G75*
G02*
X131602Y225091I-1287J0D01*
G01*
X111917D01*
G75*
G02*
X110630Y226378I0J1287D01*
G01*
Y233859D01*
X9793D01*
G37*
X344976D02*
G36*
X344976Y233859D02*
Y224803D01*
X370340D01*
Y233859D01*
X344976D01*
G37*
X9793Y242520D02*
G36*
X9793Y242520D02*
Y233859D01*
X110630D01*
Y241339D01*
G75*
G02*
X111405Y242520I1288J0D01*
G01*
X63933D01*
G75*
G02*
X57933I-3000J196D01*
G01*
X29096D01*
G75*
G02*
X14423I-7337J0D01*
G01*
X9793D01*
G37*
X132889Y241339D02*
G36*
X132889Y241339D02*
Y238296D01*
X153256D01*
G75*
G02*
X154543Y237008I0J-1287D01*
G01*
Y235646D01*
X155026D01*
G75*
G02*
X159360I2167J-1787D01*
G01*
X160352D01*
Y236864D01*
X166719D01*
Y233859D01*
X166762D01*
Y237455D01*
X174309D01*
Y233859D01*
X226628D01*
Y242520D01*
X154469D01*
Y238906D01*
X144913D01*
Y242520D01*
X132114D01*
G75*
G02*
X132889Y241339I-512J-1181D01*
G01*
G37*
X238545Y242520D02*
G36*
X238545Y242520D02*
Y233859D01*
X320197D01*
Y242520D01*
X238545D01*
G37*
X344976D02*
G36*
X344976Y242520D02*
Y233859D01*
X370340D01*
Y242520D01*
X344976D01*
G37*
X9793Y252303D02*
G36*
X9793Y252303D02*
Y242520D01*
X14423D01*
G75*
G02*
X29096I7337J0D01*
G01*
X57933D01*
G75*
G02*
X57927Y242717I3000J194D01*
G01*
G75*
G02*
X63939I3006J0D01*
G01*
G75*
G02*
X63933Y242520I-3006J-2D01*
G01*
X111405D01*
G75*
G02*
X111917Y242626I512J-1181D01*
G01*
X131602D01*
G75*
G02*
X132114Y242520I0J-1287D01*
G01*
X144913D01*
Y246886D01*
X154469D01*
Y242520D01*
X226628D01*
Y242573D01*
X238545D01*
Y242520D01*
X320197D01*
Y244488D01*
G75*
G02*
X325697Y249988I5500J0D01*
G01*
X339476D01*
G75*
G02*
X344976Y244488I0J-5500D01*
G01*
Y242520D01*
X370340D01*
Y252303D01*
X368156Y254487D01*
X11977D01*
X9793Y252303D01*
G37*
X147305Y207654D02*
Y206586D01*
X149024Y208306D01*
G75*
G02*
X150106Y208754I1081J-1081D01*
G01*
X153201D01*
Y209541D01*
X161280D01*
Y208656D01*
X207055D01*
G75*
G02*
X208069Y208235I0J-1431D01*
G01*
X210542Y205762D01*
X215604D01*
Y211077D01*
X216195D01*
Y218291D01*
X211722D01*
G75*
G02*
X206746Y220079I-2167J1787D01*
G01*
G75*
G02*
X208108Y222486I2809J0D01*
G01*
X193653D01*
X192581Y221414D01*
Y214567D01*
G75*
G02*
X192133Y213485I-1530J0D01*
G01*
X189770Y211123D01*
G75*
G02*
X188689Y210675I-1081J1081D01*
G01*
X161280D01*
Y209907D01*
X153201D01*
Y210695D01*
X150346D01*
X147305Y207654D01*
G36*
X147305Y207654D02*
Y206586D01*
X149024Y208306D01*
G75*
G02*
X150106Y208754I1081J-1081D01*
G01*
X153201D01*
Y209541D01*
X161280D01*
Y208656D01*
X207055D01*
G75*
G02*
X208069Y208235I0J-1431D01*
G01*
X210542Y205762D01*
X215604D01*
Y211077D01*
X216195D01*
Y218291D01*
X211722D01*
G75*
G02*
X206746Y220079I-2167J1787D01*
G01*
G75*
G02*
X208108Y222486I2809J0D01*
G01*
X193653D01*
X192581Y221414D01*
Y214567D01*
G75*
G02*
X192133Y213485I-1530J0D01*
G01*
X189770Y211123D01*
G75*
G02*
X188689Y210675I-1081J1081D01*
G01*
X161280D01*
Y209907D01*
X153201D01*
Y210695D01*
X150346D01*
X147305Y207654D01*
G37*
X153256Y237008D02*
X131602D01*
Y241339D01*
X111917D01*
Y226378D01*
X131602D01*
Y230709D01*
X153256D01*
Y237008D01*
G36*
X153256Y237008D02*
X131602D01*
Y241339D01*
X111917D01*
Y226378D01*
X131602D01*
Y230709D01*
X153256D01*
Y237008D01*
G37*
X174008Y70912D02*
G75*
G02*
X170144Y69144I-3036J1530D01*
G01*
G75*
G02*
X170676Y68798I-551J-1427D01*
G01*
X172644Y66830D01*
G75*
G02*
X173092Y65748I-1081J-1081D01*
G01*
Y40929D01*
G75*
G02*
X180072Y41045I3526J-2070D01*
G01*
Y72231D01*
G75*
G02*
X174915Y70912I-2801J210D01*
G01*
X174008D01*
G36*
X174008Y70912D02*
G75*
G02*
X170144Y69144I-3036J1530D01*
G01*
G75*
G02*
X170676Y68798I-551J-1427D01*
G01*
X172644Y66830D01*
G75*
G02*
X173092Y65748I-1081J-1081D01*
G01*
Y40929D01*
G75*
G02*
X180072Y41045I3526J-2070D01*
G01*
Y72231D01*
G75*
G02*
X174915Y70912I-2801J210D01*
G01*
X174008D01*
G37*
X223978Y210675D02*
Y205762D01*
X234895D01*
Y226179D01*
X234552Y226522D01*
X223388D01*
Y217671D01*
X225309D01*
G75*
G02*
X230474Y216142I2356J-1530D01*
G01*
G75*
G02*
X229899Y214439I-2809J0D01*
G01*
G75*
G02*
X234411Y212205I1703J-2234D01*
G01*
G75*
G02*
X229246Y210675I-2809J0D01*
G01*
X223978D01*
G36*
X223978Y210675D02*
Y205762D01*
X234895D01*
Y226179D01*
X234552Y226522D01*
X223388D01*
Y217671D01*
X225309D01*
G75*
G02*
X230474Y216142I2356J-1530D01*
G01*
G75*
G02*
X229899Y214439I-2809J0D01*
G01*
G75*
G02*
X234411Y212205I1703J-2234D01*
G01*
G75*
G02*
X229246Y210675I-2809J0D01*
G01*
X223978D01*
G37*
X257140Y111167D02*
X246958D01*
G75*
G02*
X247010Y110630I-2757J-538D01*
G01*
G75*
G02*
X241392I-2809J0D01*
G01*
G75*
G02*
X242931Y113136I2809J0D01*
G01*
X221369D01*
X213152Y104919D01*
Y102024D01*
G75*
G02*
X214530Y99607I-1431J-2417D01*
G01*
G75*
G02*
X214513Y99305I-2811J-1D01*
G01*
X215825Y100617D01*
G75*
G02*
X216838Y101037I1014J-1010D01*
G01*
X262899D01*
X262990Y101128D01*
X257730D01*
Y108411D01*
X257140D01*
Y111167D01*
G36*
X257140Y111167D02*
X246958D01*
G75*
G02*
X247010Y110630I-2757J-538D01*
G01*
G75*
G02*
X241392I-2809J0D01*
G01*
G75*
G02*
X242931Y113136I2809J0D01*
G01*
X221369D01*
X213152Y104919D01*
Y102024D01*
G75*
G02*
X214530Y99607I-1431J-2417D01*
G01*
G75*
G02*
X214513Y99305I-2811J-1D01*
G01*
X215825Y100617D01*
G75*
G02*
X216838Y101037I1014J-1010D01*
G01*
X262899D01*
X262990Y101128D01*
X257730D01*
Y108411D01*
X257140D01*
Y111167D01*
G37*
X344976Y111410D02*
Y106323D01*
G75*
G02*
X349037Y106218I1980J-1992D01*
G01*
Y110872D01*
X348447D01*
Y111118D01*
G75*
G02*
X344976Y111410I-1490J3056D01*
G01*
G36*
X344976Y111410D02*
Y106323D01*
G75*
G02*
X349037Y106218I1980J-1992D01*
G01*
Y110872D01*
X348447D01*
Y111118D01*
G75*
G02*
X344976Y111410I-1490J3056D01*
G01*
G37*
D02*
D108*
X33681Y63386D02*
X33091Y62795D01*
X33681Y66535D02*
X33091Y65945D01*
X33681Y85433D02*
X33091Y86024D01*
X33681Y88583D02*
X33091Y89173D01*
X157240Y207224D02*
X207055D01*
X209949Y204331D01*
X236326D01*
X172941Y149957D02*
Y155276D01*
Y177953D01*
X176091Y181102D01*
X182429D01*
X182587Y181260D01*
Y155276D02*
X172941D01*
X215854Y84646D02*
X215460D01*
Y46851D01*
X216224Y46087D01*
Y38859D01*
X216618D01*
X216255Y146063D02*
X226091D01*
X231996Y151969D01*
Y177559D01*
X235933Y181496D01*
X261327D01*
X216255Y159055D02*
X227272D01*
X229634Y161417D01*
Y177953D01*
X235146Y183465D01*
X261327D01*
X216255Y172047D02*
X226091D01*
X227665Y173622D01*
Y179134D01*
X233965Y185433D01*
X261327D01*
X236326Y204331D02*
Y226772D01*
X235145Y227953D01*
X219791D01*
X246563Y70516D02*
X249362D01*
X250106Y71260D01*
X283177D01*
X288689Y76772D01*
Y198819D01*
X283177Y204331D01*
X236326D01*
X253256Y67717D02*
X286720D01*
X291445Y72441D01*
Y222835D01*
X283965Y230315D01*
X226484D01*
X224516Y232283D01*
X213492D01*
X211524Y230315D01*
Y224016D01*
X261327Y112598D02*
X246169D01*
X244201Y110630D01*
X261327Y114567D02*
X220776D01*
X211720Y105512D01*
Y99607D01*
X261327Y116535D02*
X219791D01*
X208768Y105512D01*
Y47032D01*
X206618Y44882D01*
Y38859D01*
X261327Y118504D02*
X219004D01*
X206012Y105512D01*
Y52166D01*
X201484Y47638D01*
Y25197D01*
X202665Y24016D01*
X225437D01*
X226618Y25197D01*
Y28859D01*
X261327Y120472D02*
X246563D01*
X245382Y121654D01*
X241445D01*
X261327Y122441D02*
X247744D01*
X244988Y125197D01*
X219004D01*
X203256Y109449D01*
Y55315D01*
X196618Y48677D01*
Y38859D01*
X261327Y124409D02*
X265461D01*
X266248Y123622D01*
Y102362D01*
X263492Y99606D01*
X216838D01*
X211720Y94488D01*
Y33465D01*
X207114Y28859D01*
X206618D01*
X261327Y126378D02*
X246563D01*
X245775Y127166D01*
X217822D01*
X201287Y110630D01*
Y56103D01*
X191641Y46457D01*
Y34032D01*
X196618Y29056D01*
Y28859D01*
X261327Y173622D02*
X245776D01*
X243807Y175591D01*
X261327D02*
X243807D01*
X261327Y177559D02*
X245776D01*
X243807Y175591D01*
X261327Y187402D02*
X232783D01*
X230421Y185039D01*
X216255D01*
D02*
D111*
X15354Y52067D02*
Y49705D01*
Y59665D02*
Y62028D01*
Y92303D02*
Y89941D01*
Y99902D02*
Y102264D01*
X18799Y55866D02*
X21161D01*
X18799Y96102D02*
X21161D01*
X26189Y11811D02*
X23827D01*
X26189Y27559D02*
X23827D01*
X27382Y55866D02*
X25020D01*
X27382Y96102D02*
X25020D01*
X28102Y126772D02*
X22941D01*
X20579Y129134D01*
X28102Y134252D02*
Y126772D01*
X30028Y10236D02*
Y7874D01*
Y13386D02*
Y15748D01*
Y25984D02*
Y23622D01*
Y29134D02*
Y31496D01*
X30827Y52067D02*
Y49705D01*
Y99902D02*
Y102264D01*
X33482Y132631D02*
X31264Y130413D01*
X33482Y135872D02*
X31264Y138091D01*
X33866Y11811D02*
X36228D01*
X33866Y27559D02*
X36228D01*
X34272Y55866D02*
X36634D01*
X34272Y96102D02*
X36634D01*
X34456Y185827D02*
X32094D01*
X34850Y116886D02*
X32488D01*
X34862Y62795D02*
X37224D01*
X34862Y63976D02*
X37224D01*
X34862Y87992D02*
X37224D01*
X34862Y89173D02*
X37224D01*
X36327Y109886D02*
Y105906D01*
X37114Y105118D01*
X45382D01*
X47350Y103150D01*
Y98031D01*
X36327Y109886D02*
Y109055D01*
Y118539D02*
Y120902D01*
X36723Y132631D02*
X38941Y130413D01*
X36723Y135872D02*
X38941Y138091D01*
X41838Y155315D02*
X66444D01*
X70972Y159843D01*
Y164173D01*
X70972Y164173D01*
X41838Y178445D02*
Y176083D01*
Y193209D02*
Y195571D01*
X43413Y109886D02*
X46913D01*
X50106Y106693D01*
Y73425D01*
X47744Y71063D01*
X33091D01*
X43413Y118539D02*
Y120902D01*
X44890Y116886D02*
X47252D01*
X47350Y98031D02*
Y85630D01*
X44594Y82874D01*
X33091D01*
X49220Y185827D02*
X51583D01*
X56110Y102559D02*
X53748D01*
X57193Y99508D02*
Y97146D01*
Y105610D02*
Y107972D01*
X69398Y76772D02*
X125346D01*
X69441Y19685D02*
G75*
G03*
X69834Y20079I0J394D01*
G01*
Y26378D02*
G75*
G03*
X69791Y26421I-43J0D01*
G01*
X70972Y164173D02*
Y179921D01*
Y210630D01*
X65460Y216142D01*
X42035D01*
X41838Y216339D01*
X70972Y179921D02*
X93413D01*
X96169Y177165D01*
X105827D01*
X105965Y177303D01*
X74516Y102559D02*
Y114370D01*
X76834Y18602D02*
Y16240D01*
Y21555D02*
Y23917D01*
Y38287D02*
Y35925D01*
Y41240D02*
Y43602D01*
X77508Y122638D02*
X75146D01*
X78295Y120768D02*
Y118406D01*
Y124508D02*
Y126870D01*
X78488Y20079D02*
X80850D01*
X78488Y39764D02*
X80850D01*
X78496Y157874D02*
Y144094D01*
X78846Y102559D02*
Y112598D01*
X87114Y120866D01*
X92232D01*
X79083Y122638D02*
X81445D01*
X80815Y131102D02*
Y134252D01*
X83571Y137008D01*
X126091D01*
X130421Y132677D01*
Y100000D01*
X132783Y97638D01*
X174516D01*
X181602Y90551D01*
X80815Y131102D02*
X72705D01*
X70736Y129134D01*
Y122638D01*
X83177Y61319D02*
Y58957D01*
Y67421D02*
Y69783D01*
X85496Y152264D02*
Y154626D01*
X87150Y150787D02*
X89512D01*
X91839Y61319D02*
Y58957D01*
Y67421D02*
Y69783D01*
X92921Y64370D02*
X95283D01*
X93413Y162402D02*
X99122D01*
X100106Y163386D01*
Y166535D01*
X100894Y167323D01*
X105945D01*
X105965Y167303D01*
X93413Y172244D02*
X105906D01*
X105965Y172303D01*
X96563Y155906D02*
X89476D01*
X81209Y164173D01*
X70972D01*
X97902Y122638D02*
Y130866D01*
X98138Y131102D01*
X124909D01*
X127665Y128346D01*
Y98819D01*
X131602Y94882D01*
X171759D01*
X176484Y90158D01*
X98969Y194882D02*
Y201575D01*
Y208661D02*
Y201575D01*
X101287Y71654D02*
X104437D01*
X105224Y70867D01*
Y58662D01*
X109948Y53937D01*
X133964D01*
X136618Y51284D01*
Y38859D01*
X101681Y114370D02*
Y109843D01*
X100894Y109055D01*
X93020D01*
X91839Y107874D01*
Y102559D01*
X103455Y182303D02*
X101093D01*
X104348Y203195D02*
X102130Y205413D01*
X104673Y122638D02*
X102311D01*
X105461Y120768D02*
Y118406D01*
Y122638D02*
X107783D01*
X108768Y121654D01*
Y112992D01*
X105461Y124508D02*
Y126870D01*
X105965Y183091D02*
Y185453D01*
X106248Y122638D02*
X108610D01*
X107589Y199954D02*
X109807Y197736D01*
X107589Y203195D02*
X109807Y205413D01*
X108374Y68504D02*
X111523D01*
X113492Y66536D01*
Y59449D01*
X116248Y56693D01*
X141838D01*
X146618Y51914D01*
Y38859D01*
X108474Y182303D02*
X110837D01*
X114059Y38859D02*
X111696D01*
X116618Y36300D02*
Y33937D01*
Y41418D02*
Y43780D01*
X118216Y65355D02*
X122153D01*
X123334Y64174D01*
Y60630D01*
X124515Y59449D01*
X151500D01*
X156618Y54331D01*
Y38859D01*
X118216Y194489D02*
Y194488D01*
X113886Y190157D01*
Y180059D01*
X111130Y177303D01*
X105965D01*
X118567Y96161D02*
Y93799D01*
Y105413D02*
Y107776D01*
X119177Y38859D02*
X121539D01*
X120220Y97638D02*
X122583D01*
X120220Y103937D02*
X122583D01*
X125346Y70079D02*
Y66886D01*
X126484Y65748D01*
Y62993D01*
X127665Y61811D01*
X161917D01*
X166641Y57087D01*
Y38882D01*
X166618Y38859D01*
X125346Y70079D02*
Y76772D01*
X127319Y167303D02*
X135169D01*
X135189Y167323D01*
X127319Y177303D02*
Y177256D01*
X143897D01*
X147744Y181102D01*
Y204862D01*
X150106Y207224D01*
X157240D01*
X127319Y182303D02*
X141464D01*
X145775Y186614D01*
Y208287D01*
X149712Y212224D01*
X157240D01*
X130726Y68458D02*
X128507Y66240D01*
X133376Y197224D02*
X131014D01*
X133376Y202224D02*
X131014D01*
X133376Y207224D02*
X131014D01*
X133376Y212224D02*
X131014D01*
X133967Y68458D02*
X136185Y66240D01*
X133967Y71699D02*
X136185Y73917D01*
X135886Y196437D02*
Y194075D01*
Y213012D02*
Y215374D01*
X138396Y197224D02*
X140758D01*
X138396Y202224D02*
X140758D01*
X138396Y207224D02*
X140758D01*
X138396Y212224D02*
X140758D01*
X140569Y165702D02*
X138350Y163484D01*
X140569Y168943D02*
X138350Y171161D01*
X143809Y165702D02*
X146028Y163484D01*
X143809Y168943D02*
X146028Y171161D01*
X144059Y28859D02*
X141696D01*
X146563Y77166D02*
X146956D01*
X156405Y67717D01*
X169594D01*
X171563Y65748D01*
Y21654D01*
X175500Y17717D01*
X261500D01*
X266618Y22835D01*
Y28859D01*
X146563Y77166D02*
X146169D01*
X139476Y83859D01*
X68216D01*
X61524Y90551D01*
Y102559D01*
X146618Y26300D02*
Y23937D01*
Y31418D02*
Y33780D01*
X147033Y242897D02*
X144669D01*
X149177Y28859D02*
X151539D01*
X149691Y241027D02*
Y238665D01*
Y244767D02*
Y247130D01*
X152348Y242897D02*
X154709D01*
X155572Y176376D02*
X153354Y174157D01*
X155572Y179617D02*
X153354Y181835D01*
X156799Y87402D02*
Y87378D01*
X166618Y77559D01*
X178846D01*
X181602Y74804D01*
Y23229D01*
X184752Y20079D01*
X252287D01*
X256618Y24410D01*
Y28859D01*
X156799Y87402D02*
X155618D01*
X152862Y90157D01*
X73728D01*
X70185Y93701D01*
Y102559D01*
X157193Y224803D02*
Y218505D01*
X155224Y216536D01*
X148925D01*
X143807Y211418D01*
Y189764D01*
X140263Y186221D01*
X122941D01*
X120972Y184252D01*
Y162993D01*
X122153Y161811D01*
X133964D01*
X135145Y162993D01*
Y167279D01*
X135189Y167323D01*
X157240Y202224D02*
X163193D01*
X164280Y201138D01*
X169004D01*
X158813Y176376D02*
X161031Y174157D01*
X158813Y179617D02*
X161031Y181835D01*
X164059Y28859D02*
X161696D01*
X166618Y26300D02*
Y23937D01*
Y31418D02*
Y33780D01*
X168915Y223183D02*
X166697Y220965D01*
X168915Y226424D02*
X166697Y228642D01*
X168915Y232238D02*
X166697Y230020D01*
X168915Y235479D02*
X166697Y237697D01*
X169004Y201138D02*
X172197D01*
X172240Y201181D01*
X184358D01*
X170972Y72441D02*
X177271D01*
X170972D02*
X163098D01*
X147744Y87795D01*
X69791D01*
X65854Y91732D01*
Y102559D01*
X172156Y223183D02*
X174374Y220965D01*
X172156Y226424D02*
X174374Y228642D01*
X172156Y232238D02*
X174374Y230020D01*
X172156Y235479D02*
X174374Y237697D01*
X172941Y136221D02*
Y142956D01*
X172941Y142957D01*
X180717Y162835D02*
X178354D01*
X180717Y188819D02*
X178354D01*
X182587Y162047D02*
Y159685D01*
Y163622D02*
Y165984D01*
Y188031D02*
Y185669D01*
Y189606D02*
Y191969D01*
X184457Y162835D02*
X186819D01*
X184457Y188819D02*
X186819D01*
X186618Y36300D02*
Y33937D01*
Y41418D02*
Y43780D01*
X205419Y195624D02*
X203200Y193406D01*
X205419Y198865D02*
X203201Y201083D01*
X208659Y195624D02*
X210878Y193406D01*
X208659Y198865D02*
X210877Y201083D01*
X211524Y224016D02*
X193020D01*
X191051Y222047D01*
Y214567D01*
X188689Y212205D01*
X157614D01*
X157594Y212224D01*
X157240D01*
X214059Y28859D02*
X211696D01*
X216618Y31418D02*
Y33780D01*
X217724Y208268D02*
X215362D01*
X219177Y28859D02*
X221539D01*
X219791Y212205D02*
X231602D01*
X219791Y216142D02*
X227665D01*
X219791Y224016D02*
X211524D01*
X221858Y208268D02*
X224220D01*
X228748Y198819D02*
X226386D01*
X228748Y237402D02*
X226386D01*
X232587Y195768D02*
Y193406D01*
Y234350D02*
Y231988D01*
Y240453D02*
Y242815D01*
X236425Y198819D02*
X238787D01*
X236425Y237402D02*
X238787D01*
X236618Y74410D02*
Y38859D01*
X241051Y64961D02*
Y58717D01*
X246618Y53150D01*
Y38859D01*
X244059Y28859D02*
X241696D01*
X246563Y70516D02*
Y65355D01*
X246618Y26300D02*
Y23937D01*
Y31418D02*
Y33780D01*
X247744Y59843D02*
X249319Y58268D01*
X269594D01*
X271563Y56300D01*
Y34898D01*
X276618Y29843D01*
Y28859D01*
X249177D02*
X251539D01*
X253256Y67717D02*
Y61811D01*
X259260Y110630D02*
X256898D01*
X259260Y128346D02*
X256898D01*
X259260Y130315D02*
X256898D01*
X259260Y132283D02*
X256898D01*
X259260Y134252D02*
X256898D01*
X259260Y136220D02*
X256898D01*
X259260Y138189D02*
X256898D01*
X259260Y140157D02*
X256898D01*
X259260Y142126D02*
X256898D01*
X259260Y144094D02*
X256898D01*
X259260Y146063D02*
X256898D01*
X259260Y148031D02*
X256898D01*
X259260Y150000D02*
X256898D01*
X259260Y151969D02*
X256898D01*
X259260Y153937D02*
X256898D01*
X259260Y155906D02*
X256898D01*
X259260Y157874D02*
X256898D01*
X259260Y159843D02*
X256898D01*
X259260Y161811D02*
X256898D01*
X259260Y163780D02*
X256898D01*
X259260Y165748D02*
X256898D01*
X259260Y167717D02*
X256898D01*
X259260Y169685D02*
X256898D01*
X259260Y179528D02*
X256898D01*
X263394Y128346D02*
X265756D01*
X263394Y130315D02*
X265756D01*
X263394Y132283D02*
X265756D01*
X263394Y134252D02*
X265756D01*
X263394Y136220D02*
X265756D01*
X263394Y138189D02*
X265756D01*
X263394Y140157D02*
X265756D01*
X263394Y142126D02*
X265756D01*
X263394Y144094D02*
X265756D01*
X263394Y146063D02*
X265756D01*
X263394Y148031D02*
X265756D01*
X263394Y150000D02*
X265756D01*
X263394Y151969D02*
X265756D01*
X263394Y153937D02*
X265756D01*
X263394Y155906D02*
X265756D01*
X263394Y157874D02*
X265756D01*
X263394Y159843D02*
X265756D01*
X263394Y161811D02*
X265756D01*
X263394Y163780D02*
X265756D01*
X263394Y165748D02*
X265756D01*
X263394Y167717D02*
X265756D01*
X263394Y169685D02*
X265756D01*
X263394Y179528D02*
X265756D01*
X264059Y38859D02*
X261696D01*
X265460Y53937D02*
X256799Y45276D01*
Y39071D01*
X256618Y38890D01*
Y38859D01*
X266618Y36300D02*
Y33937D01*
Y41418D02*
Y43780D01*
X270047Y196850D02*
X267685D01*
X270283Y95276D02*
X267921D01*
X273886Y193799D02*
Y191437D01*
Y199902D02*
Y202264D01*
X274122Y92224D02*
Y89862D01*
Y98327D02*
Y100689D01*
X277724Y196850D02*
X280087D01*
X277961Y95276D02*
X280323D01*
X284059Y28859D02*
X281696D01*
X286618Y26300D02*
Y23937D01*
Y31418D02*
Y33780D01*
X289177Y28859D02*
X291539D01*
X296618Y38859D02*
X297074D01*
X317035Y51575D02*
Y20079D01*
X313492Y16536D01*
X273334D01*
X271759Y14961D01*
Y12599D01*
X270185Y11024D01*
X129374D01*
X126618Y13780D01*
Y28859D01*
X346957Y104331D02*
X352535D01*
X352634Y104232D01*
X346957Y112894D02*
Y110531D01*
Y118898D02*
X352535D01*
X352634Y118996D01*
X349417Y152363D02*
X347055D01*
X350500Y151280D02*
Y148917D01*
Y153445D02*
Y155807D01*
X351189Y56890D02*
X348827D01*
X351582Y152363D02*
X353945D01*
X351681Y55266D02*
Y52906D01*
Y58514D02*
Y60878D01*
X352173Y56890D02*
X354535D01*
X352634Y99311D02*
X346268D01*
X345382Y98425D01*
Y57874D01*
X341445Y53937D01*
X325090D01*
X322547Y51394D01*
Y11811D01*
X319004Y8268D01*
X119374D01*
X116618Y11024D01*
Y28859D01*
X352634Y109154D02*
X360244D01*
X362311Y107087D01*
Y103150D01*
X354701Y114075D02*
X357063D01*
X362311Y103150D02*
Y103445D01*
X362492Y142957D02*
X362705Y143169D01*
D02*
D112*
X17035Y67717D03*
X20579Y129134D03*
X22547Y11811D03*
Y27559D03*
X24122Y107874D03*
X30028Y32677D03*
Y120079D03*
X30421Y157087D03*
X30815Y196457D03*
X37508Y11811D03*
Y27559D03*
X39870Y61417D03*
X41445Y96457D03*
X43020Y14173D03*
Y25197D03*
X43413Y132283D03*
X43807Y66535D03*
Y89370D03*
X61130Y110630D03*
X64279Y14173D03*
Y26378D03*
Y33465D03*
Y39764D03*
Y45276D03*
X65460Y51969D03*
X65854Y130315D03*
X69398Y76772D03*
X69791Y14567D03*
X76878D03*
Y25984D03*
Y34252D03*
X77665Y171654D03*
X78496Y157874D03*
X82389Y20079D03*
Y39764D03*
Y45669D03*
Y50788D03*
X82783Y197244D03*
X88295Y52363D03*
X88295Y129134D03*
X91445Y144094D03*
X91838Y57481D03*
X92232Y120866D03*
X93020Y114567D03*
Y185433D03*
X96563Y155906D03*
X98969Y208661D03*
X101287Y71654D03*
X104394Y103937D03*
X106012Y188976D03*
X108374Y68504D03*
X108768Y112992D03*
X112311Y201575D03*
X113885Y228347D03*
Y233859D03*
Y239370D03*
X116642Y218898D03*
X118216Y65355D03*
X119398Y200000D03*
X122153Y47638D03*
X123728Y98031D03*
X125697Y157874D03*
Y212598D03*
X139476Y70079D03*
Y76772D03*
X148925Y167323D03*
X150894Y190157D03*
X156405Y14174D03*
X157193Y172441D03*
Y224803D03*
Y233858D03*
Y242913D03*
X161524Y118504D03*
Y157874D03*
X164280Y185039D03*
X172941Y136221D03*
X174122Y188976D03*
X176091Y229134D03*
X176484Y52363D03*
Y90158D03*
X177271Y72441D03*
X180028Y169685D03*
X181602Y90551D03*
X188689Y56693D03*
X191839Y173622D03*
X200894Y118504D03*
Y197244D03*
X209555Y220079D03*
Y243701D03*
X211720Y99607D03*
X213098Y208268D03*
X215854Y84646D03*
X217823Y103150D03*
X221563Y88976D03*
X224516Y152362D03*
Y165748D03*
Y178346D03*
X226090Y50000D03*
X227665Y216142D03*
X231602Y212205D03*
X236618Y74410D03*
X240264Y79134D03*
Y157874D03*
X241051Y64961D03*
X241445Y121654D03*
X243807Y175591D03*
X244201Y104724D03*
Y110630D03*
Y197244D03*
Y236614D03*
X246563Y65355D03*
X247744Y59843D03*
X253256Y61811D03*
Y81890D03*
X265460Y53937D03*
X265854Y14174D03*
X270185Y182678D03*
X279634Y79134D03*
Y118504D03*
Y157874D03*
Y236614D03*
X280421Y12993D03*
X283177Y196851D03*
X299712Y54725D03*
X304437Y21260D03*
X317035Y51575D03*
X317035Y79134D03*
Y118504D03*
Y157874D03*
Y197244D03*
Y236614D03*
X346957Y104331D03*
Y114173D03*
Y118898D03*
X347350Y161024D03*
X352075Y38583D03*
X358374Y197244D03*
Y236614D03*
X358768Y162992D03*
X362311Y103150D03*
X364280Y125197D03*
X366642Y165354D03*
X367429Y33858D03*
X367823Y71654D03*
D02*
D113*
X35102Y126772D02*
X62311D01*
X65854Y130315D01*
X35102Y134252D02*
X38689D01*
X40657Y132283D01*
X43413D01*
X36327Y116886D02*
X43413D01*
X36327D02*
X33220D01*
X30028Y120079D01*
X39870Y61417D02*
X37902Y63386D01*
X33681D01*
X41445Y96457D02*
X39083Y94094D01*
Y89764D01*
X37902Y88583D01*
X33681D01*
X43807Y66535D02*
X33681D01*
X43807Y89370D02*
X39870Y85433D01*
X33681D01*
X78295Y122638D02*
X81799D01*
X88295Y129134D01*
X85496Y144094D02*
X91445D01*
X87508Y102559D02*
Y96457D01*
X90264Y93701D01*
X102075D01*
X106012Y97638D01*
X111567D01*
X104394Y103937D02*
X111567D01*
X105965Y182303D02*
X96150D01*
X93020Y185433D01*
X105969Y194882D02*
Y189020D01*
X106012Y188976D01*
X105969Y201575D02*
X112311D01*
X111567Y103937D02*
X111524D01*
Y97638D01*
X111567D01*
X118567Y103937D02*
X118610D01*
Y98031D01*
X123728D01*
X124494Y233842D02*
X149691D01*
X125697Y202224D02*
Y207224D01*
Y212598D01*
X132346Y70079D02*
X139476D01*
X139476Y70079D01*
X132346Y76772D02*
X139476D01*
X135886Y197224D02*
X127685D01*
X125697Y199213D01*
Y202224D01*
X135886D02*
X125697D01*
X135886Y207224D02*
X125697D01*
X135886Y212224D02*
X126071D01*
X125697Y212598D01*
X142189Y167323D02*
X148925D01*
X157193Y177996D02*
Y172441D01*
Y184996D02*
X164236D01*
X164280Y185039D01*
X157193Y184996D02*
Y197177D01*
X157240Y197224D01*
X157193Y242913D02*
X149707D01*
X149691Y242897D01*
X157240Y197224D02*
X162724D01*
X163492Y196457D01*
Y194925D01*
X164280Y194138D01*
X169004D01*
X163535Y224803D02*
X149707D01*
X149691Y224787D01*
X163535Y233858D02*
X149707D01*
X149691Y233842D01*
X169004Y194138D02*
Y190157D01*
X168217Y189370D01*
X165067D01*
X164280Y188583D01*
Y185039D01*
X170535Y224803D02*
X175303D01*
X176091Y225591D01*
Y229134D01*
X170535Y233858D02*
X174909D01*
X176091Y232677D01*
Y229134D01*
X182587Y162835D02*
Y167126D01*
X180028Y169685D01*
X182587Y188819D02*
X174280D01*
X174122Y188976D01*
X190854Y159055D02*
X202855D01*
X190854Y185039D02*
X202855D01*
Y159055D02*
Y146063D01*
Y172047D02*
Y185039D01*
X207039Y197244D02*
X200894D01*
X200894Y197244D01*
X219791Y208268D02*
X213098D01*
X219791Y220079D02*
X209555D01*
X246563Y77516D02*
Y81496D01*
X246957Y81890D01*
X253256D01*
Y74717D02*
Y81890D01*
X347055Y113681D02*
Y114075D01*
X346957Y114173D01*
X350500Y152363D02*
Y157874D01*
X347350Y161024D01*
X352634Y94390D02*
X348827D01*
X347744Y93307D01*
Y75591D01*
X351681Y71654D01*
Y65945D01*
X352634Y114075D02*
X347055D01*
X346957Y114173D01*
X352634Y123917D02*
Y127787D01*
X350500Y129922D01*
Y143701D01*
X362705Y143169D02*
X350755D01*
X350500Y143701D01*
X363886Y45531D02*
Y41339D01*
X361130Y38583D01*
X352075D01*
X363886Y58406D02*
Y64370D01*
X362311Y65945D01*
X351681D01*
D02*
D114*
X116618Y28859D03*
Y38859D03*
X126618Y28859D03*
Y38859D03*
X136618Y28859D03*
Y38859D03*
X146618Y28859D03*
Y38859D03*
X156618Y28859D03*
Y38859D03*
X166618Y28859D03*
Y38859D03*
X176618Y28859D03*
Y38859D03*
X186618Y28859D03*
Y38859D03*
X196618Y28859D03*
Y38859D03*
X206618Y28859D03*
Y38859D03*
X216618Y28859D03*
Y38859D03*
X226618Y28859D03*
Y38859D03*
X236618Y28859D03*
Y38859D03*
X246618Y28859D03*
Y38859D03*
X256618Y28859D03*
Y38859D03*
X266618Y28859D03*
Y38859D03*
X276618Y28859D03*
Y38859D03*
X286618Y28859D03*
Y38859D03*
X296618Y28859D03*
Y38859D03*
X306618Y28859D03*
Y38859D03*
D02*
D123*
X362705Y156043D02*
Y159055D01*
X358768Y162992D01*
D02*
D124*
X261327Y189370D02*
X228453D01*
X220578Y197244D01*
X214039D01*
X261327Y189370D02*
X268217D01*
X270185Y187402D01*
Y182678D01*
D02*
D125*
X36031Y19685D02*
X69441D01*
X69791Y33421D02*
Y48031D01*
G75*
G02*
X77271Y55512I7480J0D01*
G01*
X81996D01*
G75*
G03*
X87508Y61024I0J5512D01*
G01*
Y64370D01*
X69834Y20079D02*
Y26378D01*
X87508Y63780D02*
Y64370D01*
D02*
D126*
X53649Y34689D02*
Y26729D01*
X74516Y64370D02*
Y70866D01*
X73334Y72048D01*
X54437D01*
X52074Y69685D01*
Y50394D01*
X53649Y48819D01*
Y41689D01*
D02*
D127*
X57193Y64370D03*
Y102559D03*
X61524Y64370D03*
Y102559D03*
X65854Y64370D03*
Y102559D03*
X70185Y64370D03*
Y102559D03*
X74516Y64370D03*
Y102559D03*
X78846Y64370D03*
Y102559D03*
X83177Y64370D03*
Y102559D03*
X87508Y64370D03*
Y102559D03*
X91839Y64370D03*
Y102559D03*
D02*
D128*
X80815Y131102D03*
X98138D03*
X118216Y194489D03*
X146563Y77166D03*
X156799Y87402D03*
X170972Y72441D03*
X184358Y201181D03*
D02*
D129*
X70736Y122638D03*
X74516Y114370D03*
X78295Y122638D03*
X97902D03*
X101681Y114370D03*
X105461Y122638D03*
D02*
D130*
X28102Y126772D03*
Y134252D03*
X35102Y126772D03*
Y134252D03*
X69834Y20079D03*
Y39764D03*
X76834Y20079D03*
Y39764D03*
X78496Y144094D03*
Y150787D03*
X85496Y144094D03*
Y150787D03*
X98969Y194882D03*
Y201575D03*
X105969Y194882D03*
Y201575D03*
X111567Y97638D03*
Y103937D03*
X118567Y97638D03*
Y103937D03*
X125346Y70079D03*
Y76772D03*
X132346Y70079D03*
Y76772D03*
X135189Y167323D03*
X142189D03*
X163535Y224803D03*
Y233858D03*
X170535Y224803D03*
Y233858D03*
X207039Y197244D03*
X214039D03*
D02*
D131*
X36327Y109886D03*
Y116886D03*
X43413Y109886D03*
Y116886D03*
X53649Y19729D03*
Y26729D03*
Y34689D03*
Y41689D03*
X69791Y26421D03*
Y33421D03*
X157193Y177996D03*
Y184996D03*
X169004Y194138D03*
Y201138D03*
X172941Y142957D03*
Y149957D03*
X246563Y70516D03*
Y77516D03*
X253256Y67717D03*
Y74717D03*
D02*
D132*
X30028Y11811D03*
Y27559D03*
D02*
D133*
X36031Y19685D03*
D02*
D134*
X219791Y208268D03*
Y212205D03*
Y216142D03*
Y220079D03*
Y224016D03*
Y227953D03*
D02*
D135*
X232587Y198819D03*
Y237402D03*
X273886Y196850D03*
X274122Y95276D03*
D02*
D136*
X261327Y102756D03*
Y104724D03*
Y106693D03*
Y108661D03*
Y110630D03*
Y112598D03*
Y114567D03*
Y116535D03*
Y118504D03*
Y120472D03*
Y122441D03*
Y124409D03*
Y126378D03*
Y128346D03*
Y130315D03*
Y132283D03*
Y134252D03*
Y136220D03*
Y138189D03*
Y140157D03*
Y142126D03*
Y144094D03*
Y146063D03*
Y148031D03*
Y150000D03*
Y151969D03*
Y153937D03*
Y155906D03*
Y157874D03*
Y159843D03*
Y161811D03*
Y163780D03*
Y165748D03*
Y167717D03*
Y169685D03*
Y171654D03*
Y173622D03*
Y175591D03*
Y177559D03*
Y179528D03*
Y181496D03*
Y183465D03*
Y185433D03*
Y187402D03*
Y189370D03*
D02*
D137*
X202855Y146063D03*
Y159055D03*
Y172047D03*
Y185039D03*
X216255Y146063D03*
Y159055D03*
Y172047D03*
Y185039D03*
D02*
D138*
X182587Y155276D03*
Y162835D03*
Y181260D03*
Y188819D03*
X190854Y159055D03*
Y185039D03*
D02*
D139*
X105965Y167303D03*
Y172303D03*
Y177303D03*
Y182303D03*
X127319Y167303D03*
Y172303D03*
Y177303D03*
Y182303D03*
X135886Y197224D03*
Y202224D03*
Y207224D03*
Y212224D03*
X157240Y197224D03*
Y202224D03*
Y207224D03*
Y212224D03*
D02*
D140*
X93413Y162402D03*
Y172244D03*
D02*
D141*
X352634Y89469D03*
Y94390D03*
Y99311D03*
Y104232D03*
Y109154D03*
Y114075D03*
Y118996D03*
Y123917D03*
D02*
D142*
X363461Y79429D03*
Y133957D03*
D02*
D143*
X33091Y62795D03*
Y63976D03*
Y65945D03*
Y67126D03*
Y69094D03*
Y71063D03*
Y73031D03*
Y75000D03*
Y76969D03*
Y78937D03*
Y80906D03*
Y82874D03*
Y84843D03*
Y86024D03*
Y87992D03*
Y89173D03*
D02*
D144*
X15354Y55866D03*
Y96102D03*
X30827Y55866D03*
Y96102D03*
D02*
D145*
X149691Y224787D03*
Y233842D03*
Y242897D03*
D02*
D146*
X124494Y233842D03*
D02*
D147*
X362705Y143169D03*
Y156043D03*
X363886Y45531D03*
Y58406D03*
D02*
D148*
X350500Y143701D03*
Y152363D03*
D02*
D149*
X351681Y56890D03*
Y65945D03*
D02*
D151*
X41838Y155315D03*
Y216339D03*
D02*
D152*
Y185827D03*
X0Y0D02*
M02*
