G04 DesignSpark PCB PRO Gerber Version 10.0 Build 5299*
G04 #@! TF.Part,Single*
G04 #@! TF.FileFunction,Copper,L4,Bot*
G04 #@! TF.FilePolarity,Positive*
%FSLAX35Y35*%
%MOIN*%
G04 #@! TA.AperFunction,SMDPad,CuDef*
%ADD168R,0.01969X0.04232*%
%ADD172R,0.02362X0.04528*%
%ADD146R,0.02559X0.04724*%
%ADD157R,0.02559X0.06004*%
%ADD144R,0.03150X0.07087*%
%ADD148R,0.03937X0.04291*%
%ADD158R,0.04331X0.07480*%
%ADD175R,0.05500X0.06000*%
%ADD155R,0.06300X0.10200*%
%ADD171R,0.07087X0.17323*%
%ADD163R,0.07874X0.08583*%
%ADD167R,0.03150X0.03150*%
%ADD170R,0.15748X0.15748*%
G04 #@! TD.AperFunction*
%ADD119C,0.00500*%
%ADD121C,0.00787*%
%ADD124C,0.00984*%
%ADD142C,0.01181*%
%ADD126C,0.01500*%
%ADD143C,0.01575*%
%ADD128C,0.02165*%
%ADD141C,0.02362*%
%ADD140C,0.03150*%
G04 #@! TA.AperFunction,ViaPad*
%ADD125C,0.03543*%
G04 #@! TA.AperFunction,SMDPad,CuDef*
%ADD145C,0.04724*%
G04 #@! TD.AperFunction*
%ADD139C,0.05118*%
G04 #@! TA.AperFunction,ViaPad*
%ADD127C,0.05600*%
G04 #@! TD.AperFunction*
%ADD136C,0.05906*%
G04 #@! TA.AperFunction,ComponentPad*
%ADD129C,0.06102*%
G04 #@! TA.AperFunction,SMDPad,CuDef*
%ADD162R,0.04528X0.01181*%
%ADD154R,0.05118X0.01181*%
%ADD173R,0.03937X0.02362*%
%ADD152R,0.05118X0.02362*%
%ADD156R,0.04724X0.02559*%
%ADD161R,0.06004X0.02559*%
%ADD159R,0.05118X0.03150*%
%ADD166R,0.11063X0.03465*%
%ADD151R,0.04134X0.03937*%
%ADD147R,0.04291X0.03937*%
%ADD149R,0.08661X0.04134*%
%ADD164R,0.06299X0.04724*%
%ADD174R,0.07087X0.04921*%
%ADD153R,0.08661X0.07087*%
%ADD160R,0.11811X0.08268*%
%ADD165R,0.12992X0.12992*%
%ADD169R,0.14173X0.13780*%
G04 #@! TD.AperFunction*
X0Y0D02*
D02*
D119*
X9543Y252053D02*
Y8578D01*
X12227Y5894D01*
X367906D01*
X370590Y8578D01*
Y188239D01*
G75*
G02*
X365210Y189370I-2571J1132D01*
G01*
G75*
G02*
X365899Y191213I2809J0D01*
G01*
Y191583D01*
X361469D01*
Y192173D01*
X358319D01*
Y198776D01*
X359009D01*
Y199607D01*
G75*
G02*
X359457Y200688I1530J0D01*
G01*
X360245Y201476D01*
G75*
G02*
X361327Y201924I1081J-1081D01*
G01*
X366490D01*
Y202016D01*
X358319D01*
Y208618D01*
X359009D01*
Y210626D01*
G75*
G02*
Y210629I1114J2D01*
G01*
G75*
G02*
Y210630I1277J1D01*
G01*
G75*
G02*
X359403Y211655I1530J0D01*
G01*
Y213201D01*
X357925D01*
Y215023D01*
G75*
G02*
X357360Y215372I449J1359D01*
G01*
X357344Y215388D01*
Y169580D01*
X364203Y162720D01*
G75*
G02*
X364824Y161221I-1499J-1500D01*
G01*
X364825Y158813D01*
X369274D01*
Y153274D01*
X356136D01*
Y158813D01*
X360585D01*
X360584Y160343D01*
X353725Y167202D01*
G75*
G02*
X353104Y168701I1499J1500D01*
G01*
Y215402D01*
X348673D01*
Y215992D01*
X345524D01*
Y222594D01*
X346214D01*
Y223426D01*
G75*
G02*
X346662Y224507I1530J0D01*
G01*
X347450Y225294D01*
G75*
G02*
X348531Y225743I1081J-1081D01*
G01*
X353694D01*
Y225835D01*
X345524D01*
Y232437D01*
X346214D01*
Y235051D01*
X344976D01*
Y121216D01*
G75*
G02*
X348919Y120427I1586J-2319D01*
G01*
X349037D01*
Y126530D01*
X350846D01*
Y127047D01*
X349236Y128658D01*
G75*
G02*
X348712Y129922I1264J1264D01*
G01*
G75*
G02*
Y129925I641J2D01*
G01*
Y141091D01*
X347886D01*
Y146315D01*
X353110D01*
Y144957D01*
X356136D01*
Y145939D01*
X369274D01*
Y140400D01*
X356136D01*
Y141382D01*
X353110D01*
Y141091D01*
X352287D01*
Y130662D01*
X353898Y129051D01*
G75*
G02*
X354421Y127787I-1264J-1264D01*
G01*
G75*
G02*
Y127784I-641J-2D01*
G01*
Y126530D01*
X356230D01*
Y117278D01*
X356821D01*
Y110872D01*
X356230D01*
Y110683D01*
X360244D01*
G75*
G02*
X361326Y110235I0J-1530D01*
G01*
X363393Y108168D01*
G75*
G02*
X363841Y107087I-1081J-1081D01*
G01*
Y105506D01*
G75*
G02*
X365120Y103150I-1530J-2356D01*
G01*
G75*
G02*
X359502I-2809J0D01*
G01*
G75*
G02*
X360781Y105506I2809J0D01*
G01*
Y106453D01*
X359611Y107624D01*
X356230D01*
Y86856D01*
X349531D01*
Y76331D01*
X352944Y72918D01*
G75*
G02*
X353468Y71654I-1264J-1264D01*
G01*
G75*
G02*
Y71653I-635J0D01*
G01*
G75*
G02*
Y71651I-641J-1D01*
G01*
Y69098D01*
X353701D01*
Y67733D01*
X362311D01*
G75*
G02*
X363577Y67207I0J-1787D01*
G01*
X365148Y65636D01*
G75*
G02*
X365673Y64370I-1262J-1266D01*
G01*
Y61175D01*
X370455D01*
Y55636D01*
X357317D01*
Y61175D01*
X362098D01*
Y63630D01*
X361570Y64158D01*
X353701D01*
Y62791D01*
X349657D01*
Y69098D01*
X349893D01*
Y70913D01*
X346911Y73895D01*
Y57874D01*
G75*
G02*
X346463Y56793I-1530J0D01*
G01*
X342526Y52856D01*
G75*
G02*
X341444Y52407I-1081J1081D01*
G01*
X330048D01*
G75*
G02*
X332837Y49409I-217J-2998D01*
G01*
G75*
G02*
X326825I-3006J0D01*
G01*
G75*
G02*
X329613Y52407I3006J0D01*
G01*
X325724D01*
X324076Y50760D01*
Y15748D01*
G75*
G02*
X323628Y14667I-1530J0D01*
G01*
X321660Y12698D01*
G75*
G02*
X320578Y12250I-1081J1081D01*
G01*
X119374D01*
G75*
G02*
X118292Y12698I0J1530D01*
G01*
X115536Y15454D01*
G75*
G02*
X115088Y16536I1081J1081D01*
G01*
Y25067D01*
G75*
G02*
X112529Y28859I1530J3792D01*
G01*
G75*
G02*
X120706I4089J0D01*
G01*
G75*
G02*
X118147Y25067I-4089J0D01*
G01*
Y17169D01*
X120007Y15309D01*
X127650D01*
X125536Y17423D01*
G75*
G02*
X125088Y18504I1081J1081D01*
G01*
Y25067D01*
G75*
G02*
X122529Y28859I1530J3792D01*
G01*
G75*
G02*
X130706I4089J0D01*
G01*
G75*
G02*
X128147Y25067I-4089J0D01*
G01*
Y19138D01*
X130007Y17278D01*
X173776D01*
X170481Y20572D01*
G75*
G02*
X170033Y21654I1081J1081D01*
G01*
Y25660D01*
G75*
G02*
X161939Y28859I-3415J3198D01*
G01*
G75*
G02*
X170033Y32057I4679J0D01*
G01*
Y36611D01*
G75*
G02*
X162529Y38859I-3415J2248D01*
G01*
G75*
G02*
X165112Y42660I4089J0D01*
G01*
Y48383D01*
X155575Y57920D01*
X150074D01*
X157699Y50294D01*
G75*
G02*
X158147Y49213I-1081J-1081D01*
G01*
Y42650D01*
G75*
G02*
X160706Y38859I-1530J-3792D01*
G01*
G75*
G02*
X152529I-4089J0D01*
G01*
G75*
G02*
X155088Y42650I4089J0D01*
G01*
Y48580D01*
X147520Y56148D01*
X142043D01*
X147699Y50491D01*
G75*
G02*
X148147Y49410I-1081J-1081D01*
G01*
Y42650D01*
G75*
G02*
X150706Y38859I-1530J-3792D01*
G01*
G75*
G02*
X142529I-4089J0D01*
G01*
G75*
G02*
X145088Y42650I4089J0D01*
G01*
Y48776D01*
X139488Y54376D01*
X134602D01*
X137699Y51279D01*
G75*
G02*
X138147Y50197I-1081J-1081D01*
G01*
Y42650D01*
G75*
G02*
X140706Y38859I-1530J-3792D01*
G01*
G75*
G02*
X132529I-4089J0D01*
G01*
G75*
G02*
X135088Y42650I4089J0D01*
G01*
Y49564D01*
X132244Y52408D01*
X108177D01*
G75*
G02*
X107095Y52856I0J1530D01*
G01*
X100206Y59746D01*
G75*
G02*
X99757Y60827I1081J1081D01*
G01*
Y69298D01*
G75*
G02*
X98478Y71654I1530J2356D01*
G01*
G75*
G02*
X102870Y73974I2809J0D01*
G01*
Y76827D01*
X104525D01*
Y77508D01*
X102870D01*
Y78983D01*
X71754D01*
G75*
G02*
X66589Y80512I-2356J1530D01*
G01*
G75*
G02*
X71754Y82042I2809J0D01*
G01*
X102870D01*
Y83313D01*
X70776D01*
G75*
G02*
X69694Y83761I0J1530D01*
G01*
X60442Y93013D01*
G75*
G02*
X59994Y94095I1081J1081D01*
G01*
Y97388D01*
X53990D01*
Y107730D01*
X60396D01*
Y107140D01*
X72986D01*
Y110970D01*
X72199D01*
Y116975D01*
X44594D01*
G75*
G02*
X43513Y117423I0J1530D01*
G01*
X40757Y120179D01*
G75*
G02*
X40309Y121260I1081J1081D01*
G01*
Y147390D01*
X33713D01*
Y163244D01*
X49961D01*
Y156845D01*
X61677D01*
X69443Y164611D01*
Y202123D01*
X56953Y214612D01*
X49961D01*
Y208413D01*
X33713D01*
Y214809D01*
X31596D01*
G75*
G02*
X26431Y216339I-2356J1530D01*
G01*
G75*
G02*
X31596Y217869I2809J0D01*
G01*
X33713D01*
Y224268D01*
X49961D01*
Y217671D01*
X57586D01*
G75*
G02*
X58668Y217223I0J-1530D01*
G01*
X72054Y203838D01*
G75*
G02*
X72502Y202756I-1081J-1081D01*
G01*
Y202614D01*
X78134D01*
Y196602D01*
X76482D01*
Y195921D01*
X78134D01*
Y189909D01*
X76482D01*
Y189139D01*
G75*
G02*
X77718Y186811I-1573J-2328D01*
G01*
G75*
G02*
X72502Y185363I-2809J0D01*
G01*
Y164329D01*
G75*
G02*
X72510Y164173I-1531J-156D01*
G01*
G75*
G02*
X72502Y164015I-1536J1D01*
G01*
Y163974D01*
G75*
G02*
X72052Y162893I-1530J3D01*
G01*
X63542Y154384D01*
X70063D01*
Y147191D01*
X62516D01*
Y153800D01*
G75*
G02*
X62310Y153786I-205J1515D01*
G01*
X49961D01*
Y147390D01*
X43368D01*
Y121894D01*
X45228Y120034D01*
X68419D01*
Y126037D01*
X68478D01*
G75*
G02*
X67376Y128544I2297J2506D01*
G01*
G75*
G02*
X73811Y130073I3400J0D01*
G01*
X103452D01*
G75*
G02*
X104534Y129625I0J-1530D01*
G01*
X108274Y125885D01*
G75*
G02*
X108722Y124804I-1081J-1081D01*
G01*
Y111657D01*
X110188Y110191D01*
X115460D01*
G75*
G02*
X116542Y109743I0J-1530D01*
G01*
X119298Y106987D01*
G75*
G02*
X119746Y105906I-1081J-1081D01*
G01*
Y96795D01*
X138239Y78302D01*
X139543D01*
G75*
G02*
X139029Y79922I2295J1620D01*
G01*
G75*
G02*
X144194Y81451I2809J0D01*
G01*
X152622D01*
X154876Y83705D01*
Y110244D01*
X153201D01*
Y111506D01*
X151535D01*
Y109854D01*
X145524D01*
Y116220D01*
X151535D01*
Y114565D01*
X153201D01*
Y114878D01*
X160000D01*
Y110244D01*
X157935D01*
Y83071D01*
G75*
G02*
X157487Y81990I-1530J0D01*
G01*
X154337Y78840D01*
G75*
G02*
X153255Y78392I-1081J1081D01*
G01*
X144194D01*
G75*
G02*
X144133Y78302I-2356J1529D01*
G01*
X156405D01*
G75*
G02*
X157487Y77854I0J-1530D01*
G01*
X158724Y76616D01*
G75*
G02*
X163880Y77908I2799J-238D01*
G01*
X189138D01*
X193655Y82425D01*
Y97193D01*
X191836D01*
G75*
G02*
X192285Y95670I-2360J-1523D01*
G01*
G75*
G02*
X186667I-2809J0D01*
G01*
G75*
G02*
X187116Y97193I2809J0D01*
G01*
X184697D01*
Y105103D01*
X184164D01*
G75*
G02*
X182897Y105626I-3J1787D01*
G01*
X179944Y108579D01*
G75*
G02*
X179421Y109843I1264J1264D01*
G01*
G75*
G02*
Y109844I635J0D01*
G01*
G75*
G02*
Y109846I641J1D01*
G01*
Y119535D01*
X173417Y125540D01*
X167874D01*
Y124146D01*
X162265D01*
Y118657D01*
X168268D01*
Y114024D01*
X161469D01*
Y114809D01*
X161327D01*
G75*
G02*
X160245Y115257I0J1530D01*
G01*
X159654Y115848D01*
G75*
G02*
X159206Y116930I1081J1081D01*
G01*
Y117213D01*
X152610D01*
Y123028D01*
X159206D01*
Y133071D01*
G75*
G02*
X159654Y134153I1530J0D01*
G01*
X160639Y135137D01*
G75*
G02*
X161720Y135585I1081J-1081D01*
G01*
X161862D01*
Y137512D01*
X167874D01*
Y135979D01*
X184697D01*
Y143156D01*
X178479D01*
G75*
G02*
X178339Y143160I-26J1530D01*
G01*
X175947D01*
Y141508D01*
X169935D01*
Y147874D01*
X175947D01*
Y146219D01*
X178422D01*
G75*
G02*
X178561Y146215I26J-1530D01*
G01*
X193806D01*
G75*
G02*
X194888Y145767I0J-1530D01*
G01*
X196266Y144389D01*
G75*
G02*
X196714Y143307I-1081J-1081D01*
G01*
Y81792D01*
G75*
G02*
X196266Y80710I-1530J0D01*
G01*
X190853Y75297D01*
G75*
G02*
X189771Y74849I-1081J1081D01*
G01*
X163880D01*
G75*
G02*
X161761Y73580I-2356J1530D01*
G01*
X173574Y61766D01*
X195387D01*
G75*
G02*
X199856Y62089I2356J-1530D01*
G01*
Y110630D01*
G75*
G02*
X200277Y111644I1431J0D01*
G01*
X216809Y128176D01*
G75*
G02*
X217822Y128597I1014J-1010D01*
G01*
X256995D01*
G75*
G02*
X257140Y128589I-2J-1431D01*
G01*
Y171904D01*
X257730D01*
Y172191D01*
X245776D01*
G75*
G02*
X244762Y172612I0J1431D01*
G01*
X244504Y172869D01*
G75*
G02*
X240998Y175591I-697J2721D01*
G01*
G75*
G02*
X244504Y178312I2809J0D01*
G01*
X244762Y178569D01*
G75*
G02*
X245776Y178990I1014J-1010D01*
G01*
X257140D01*
Y180065D01*
X236526D01*
X233427Y176966D01*
Y151969D01*
G75*
G02*
X233006Y150955I-1431J0D01*
G01*
X227104Y145053D01*
G75*
G02*
X226091Y144632I-1014J1010D01*
G01*
X220441D01*
Y139925D01*
X212067D01*
Y152201D01*
X220441D01*
Y147494D01*
X225498D01*
X230565Y152561D01*
Y160324D01*
X228285Y158045D01*
G75*
G02*
X227272Y157624I-1014J1010D01*
G01*
X220441D01*
Y152917D01*
X212067D01*
Y165193D01*
X220441D01*
Y160486D01*
X226679D01*
X228203Y162010D01*
Y172135D01*
X227102Y171035D01*
G75*
G02*
X226087Y170616I-1012J1011D01*
G01*
X220441D01*
Y165909D01*
X212067D01*
Y178185D01*
X220441D01*
Y173478D01*
X225498D01*
X226234Y174215D01*
Y179134D01*
G75*
G02*
X226655Y180147I1431J0D01*
G01*
X230116Y183608D01*
X220441D01*
Y178902D01*
X212067D01*
Y191177D01*
X220441D01*
Y186470D01*
X229828D01*
X231496Y188138D01*
X225311D01*
Y195331D01*
X226628D01*
Y202959D01*
X211267D01*
G75*
G02*
X210254Y203380I0J1431D01*
G01*
X207781Y205853D01*
X161280D01*
Y204907D01*
X153201D01*
Y205695D01*
X145621D01*
X145139Y205213D01*
Y193898D01*
G75*
G02*
X144691Y192817I-1530J0D01*
G01*
X142526Y190651D01*
G75*
G02*
X141444Y190203I-1081J1081D01*
G01*
X139125D01*
X139037Y190115D01*
Y181509D01*
G75*
G02*
X144194Y182829I2801J-210D01*
G01*
X146705D01*
Y184528D01*
X152717D01*
Y178161D01*
X151261D01*
Y177512D01*
X152047D01*
Y169433D01*
X147413D01*
Y177512D01*
X148202D01*
Y178161D01*
X146705D01*
Y179770D01*
X144194D01*
G75*
G02*
X141054Y178602I-2356J1530D01*
G01*
G75*
G02*
X141309Y177756I-1274J-846D01*
G01*
G75*
G02*
Y177737I-1628J-9D01*
G01*
X141306Y177512D01*
X142047D01*
Y169433D01*
X141261D01*
Y169351D01*
G75*
G02*
X140813Y168269I-1530J0D01*
G01*
X139967Y167423D01*
G75*
G02*
X138885Y166975I-1081J1081D01*
G01*
X133565D01*
G75*
G02*
X128399Y168504I-2356J1530D01*
G01*
G75*
G02*
X132413Y171042I2809J0D01*
G01*
Y177512D01*
X133202D01*
Y192107D01*
G75*
G02*
X133650Y193188I1530J0D01*
G01*
X134779Y194317D01*
X131256D01*
Y215132D01*
X140516D01*
Y214876D01*
G75*
G02*
X143801Y213754I929J-2651D01*
G01*
X153201D01*
Y214541D01*
X161280D01*
Y213734D01*
X207740D01*
X209206Y215200D01*
Y221260D01*
G75*
G02*
X209395Y221996I1530J0D01*
G01*
X204555D01*
Y229189D01*
X212102D01*
Y224790D01*
X212410Y225097D01*
G75*
G02*
X213492Y225545I1081J-1081D01*
G01*
X214029D01*
Y229922D01*
G75*
G02*
X214450Y230935I1431J0D01*
G01*
X215234Y231719D01*
G75*
G02*
X216248Y232140I1014J-1010D01*
G01*
X283965D01*
G75*
G02*
X284978Y231719I0J-1431D01*
G01*
X292455Y224242D01*
G75*
G02*
X292876Y223229I-1010J-1014D01*
G01*
Y72441D01*
G75*
G02*
X292455Y71428I-1431J0D01*
G01*
X287734Y66706D01*
G75*
G02*
X286720Y66285I-1014J1010D01*
G01*
X256262D01*
Y64533D01*
X254785D01*
Y64168D01*
G75*
G02*
X256065Y61811I-1530J-2356D01*
G01*
G75*
G02*
X250447I-2809J0D01*
G01*
G75*
G02*
X251726Y64168I2809J0D01*
G01*
Y64533D01*
X250250D01*
Y69393D01*
G75*
G02*
X249569Y69100I-888J1122D01*
G01*
Y67333D01*
X248557D01*
G75*
G02*
X249372Y65355I-1994J-1978D01*
G01*
G75*
G02*
X243754I-2809J0D01*
G01*
G75*
G02*
X244569Y67333I2809J0D01*
G01*
X243557D01*
Y73699D01*
X249569D01*
Y72586D01*
G75*
G02*
X250109Y72691I537J-1326D01*
G01*
X250250D01*
Y77900D01*
X251469D01*
Y79723D01*
G75*
G02*
X251089Y80102I1787J2167D01*
G01*
X249569D01*
Y74333D01*
X243557D01*
Y80699D01*
X244776D01*
Y81493D01*
G75*
G02*
Y81495I651J1D01*
G01*
G75*
G02*
Y81496I663J0D01*
G01*
G75*
G02*
X245299Y82760I1787J0D01*
G01*
X245693Y83154D01*
G75*
G02*
X246960Y83677I1264J-1264D01*
G01*
X251089D01*
G75*
G02*
X256065Y81890I2167J-1787D01*
G01*
G75*
G02*
X255043Y79723I-2809J0D01*
G01*
Y77900D01*
X256262D01*
Y72691D01*
X282584D01*
X287258Y77365D01*
Y198226D01*
X282584Y202900D01*
X238545D01*
Y194740D01*
X239268D01*
Y193360D01*
X239277D01*
G75*
G02*
X240430Y192883I2J-1628D01*
G01*
X242316Y190998D01*
X268215D01*
G75*
G02*
X269368Y190521I2J-1628D01*
G01*
X271336Y188553D01*
G75*
G02*
X271813Y187402I-1151J-1151D01*
G01*
Y184967D01*
G75*
G02*
X272994Y182678I-1628J-2289D01*
G01*
G75*
G02*
X267376I-2809J0D01*
G01*
G75*
G02*
X268557Y184967I2809J0D01*
G01*
Y186728D01*
X267543Y187742D01*
X264923D01*
Y181746D01*
X265514D01*
Y177309D01*
X264923D01*
Y171904D01*
X265514D01*
Y126128D01*
X264923D01*
Y125841D01*
X265461D01*
G75*
G02*
X266474Y125420I0J-1431D01*
G01*
X267258Y124635D01*
G75*
G02*
X267679Y123622I-1010J-1014D01*
G01*
Y102362D01*
G75*
G02*
X267258Y101349I-1431J0D01*
G01*
X264506Y98596D01*
G75*
G02*
X263492Y98175I-1014J1010D01*
G01*
X217431D01*
X213151Y93895D01*
Y85411D01*
G75*
G02*
X218663Y84646I2703J-765D01*
G01*
G75*
G02*
X216892Y82036I-2809J0D01*
G01*
Y62089D01*
G75*
G02*
X221360Y61766I2112J-1852D01*
G01*
X231995D01*
G75*
G02*
X233077Y61318I0J-1530D01*
G01*
X237699Y56696D01*
G75*
G02*
X238147Y55615I-1081J-1081D01*
G01*
Y42650D01*
G75*
G02*
X239067Y35585I-1530J-3792D01*
G01*
X241008D01*
X242805Y37382D01*
G75*
G02*
X242529Y38859I3813J1477D01*
G01*
G75*
G02*
X250706I4089J0D01*
G01*
G75*
G02*
X244898Y35149I-4089J0D01*
G01*
X242723Y32974D01*
G75*
G02*
X241641Y32526I-1081J1081D01*
G01*
X238425D01*
G75*
G02*
X240706Y28859I-1807J-3667D01*
G01*
G75*
G02*
X232529I-4089J0D01*
G01*
G75*
G02*
X234810Y32526I4089J0D01*
G01*
X233177D01*
G75*
G02*
X232095Y32974I0J1530D01*
G01*
X230520Y34549D01*
G75*
G02*
X230072Y35630I1081J1081D01*
G01*
Y36672D01*
G75*
G02*
X222529Y38859I-3455J2187D01*
G01*
G75*
G02*
X230072Y41045I4089J0D01*
G01*
Y52517D01*
X228213Y54376D01*
X221360D01*
G75*
G02*
X216892Y54054I-2356J1530D01*
G01*
Y48995D01*
X217628Y48258D01*
G75*
G02*
X218049Y47244I-1010J-1014D01*
G01*
Y42689D01*
G75*
G02*
X220706Y38859I-1431J-3830D01*
G01*
G75*
G02*
X213151Y36691I-4089J0D01*
G01*
Y33465D01*
G75*
G02*
X212730Y32452I-1431J0D01*
G01*
X210480Y30201D01*
G75*
G02*
X208871Y25447I-3862J-1342D01*
G01*
X213415D01*
G75*
G02*
X211939Y28859I3203J3411D01*
G01*
G75*
G02*
X221297I4679J0D01*
G01*
G75*
G02*
X219820Y25447I-4679J0D01*
G01*
X224364D01*
G75*
G02*
X222529Y28859I2254J3411D01*
G01*
G75*
G02*
X230706I4089J0D01*
G01*
G75*
G02*
X228039Y25025I-4089J0D01*
G01*
G75*
G02*
X227628Y24184I-1420J173D01*
G01*
X226450Y23006D01*
G75*
G02*
X225437Y22585I-1014J1010D01*
G01*
X202665D01*
G75*
G02*
X201652Y23006I0J1431D01*
G01*
X200474Y24184D01*
G75*
G02*
X200053Y25197I1010J1014D01*
G01*
Y26641D01*
G75*
G02*
X192961Y30688I-3435J2217D01*
G01*
X190631Y33019D01*
G75*
G02*
X190210Y34032I1010J1014D01*
G01*
Y35861D01*
G75*
G02*
X182541Y36562I-3593J2998D01*
G01*
Y29169D01*
G75*
G02*
X190706Y28859I4077J-311D01*
G01*
G75*
G02*
X182541Y28548I-4089J0D01*
G01*
Y24453D01*
X185385Y21609D01*
X251654D01*
X255088Y25043D01*
Y25067D01*
G75*
G02*
X252529Y28859I1530J3792D01*
G01*
G75*
G02*
X260706I4089J0D01*
G01*
G75*
G02*
X258147Y25067I-4089J0D01*
G01*
Y24410D01*
G75*
G02*
X257699Y23328I-1530J0D01*
G01*
X253617Y19246D01*
X260866D01*
X265088Y23469D01*
Y25067D01*
G75*
G02*
X262529Y28859I1530J3792D01*
G01*
G75*
G02*
X270706I4089J0D01*
G01*
G75*
G02*
X268147Y25067I-4089J0D01*
G01*
Y22835D01*
G75*
G02*
X267699Y21754I-1530J0D01*
G01*
X263224Y17278D01*
X318370D01*
X318655Y17563D01*
Y51581D01*
G75*
G02*
X317376Y53937I1530J2356D01*
G01*
G75*
G02*
X322993Y54003I2809J0D01*
G01*
X323996Y55006D01*
G75*
G02*
X320197Y60236I1701J5230D01*
G01*
Y244488D01*
G75*
G02*
X325697Y249988I5500J0D01*
G01*
X339476D01*
G75*
G02*
X344146Y247395I0J-5500D01*
G01*
Y249008D01*
X349757D01*
Y251926D01*
X349276Y252408D01*
X322983D01*
X316988Y246413D01*
G75*
G02*
X317088Y245670I-2709J-743D01*
G01*
G75*
G02*
X311470I-2809J0D01*
G01*
G75*
G02*
X314697Y248448I2809J0D01*
G01*
X320986Y254737D01*
X92835D01*
Y248295D01*
X82492D01*
Y254737D01*
X12227D01*
X9543Y252053D01*
X347295Y155567D02*
X353701D01*
Y149161D01*
X347295D01*
Y155567D01*
X356518Y139128D02*
X370404D01*
Y128785D01*
X356518D01*
Y139128D01*
Y84600D02*
X370404D01*
Y74258D01*
X356518D01*
Y84600D01*
X357317Y48301D02*
X370455D01*
Y42762D01*
X366006D01*
X366006Y40426D01*
G75*
G02*
X366694Y38583I-2120J-1843D01*
G01*
G75*
G02*
X361076I-2809J0D01*
G01*
G75*
G02*
X361765Y40426I2809J0D01*
G01*
X361766Y42762D01*
X357317D01*
Y48301D01*
X349067Y60634D02*
X354291D01*
Y53146D01*
X349067D01*
Y60634D01*
X332140Y18110D02*
G75*
G02*
X346813I7337J0D01*
G01*
G75*
G02*
X332140I-7337J0D01*
G01*
X152529Y28859D02*
G75*
G02*
X160706I4089J0D01*
G01*
G75*
G02*
X152529I-4089J0D01*
G01*
X141939D02*
G75*
G02*
X151297I4679J0D01*
G01*
G75*
G02*
X141939I-4679J0D01*
G01*
X132529D02*
G75*
G02*
X140706I4089J0D01*
G01*
G75*
G02*
X132529I-4089J0D01*
G01*
X111939Y38859D02*
G75*
G02*
X121297I4679J0D01*
G01*
G75*
G02*
X111939I-4679J0D01*
G01*
X122529D02*
G75*
G02*
X130706I4089J0D01*
G01*
G75*
G02*
X122529I-4089J0D01*
G01*
X50642Y37874D02*
X56654D01*
Y31508D01*
X55474D01*
Y29913D01*
X56654D01*
Y23547D01*
X50642D01*
Y29913D01*
X51824D01*
Y31508D01*
X50642D01*
Y37874D01*
X88636Y69541D02*
X95041D01*
Y59199D01*
X89508D01*
G75*
G02*
X81996Y53293I-7512J1825D01*
G01*
X77271D01*
G75*
G03*
X72009Y48031I0J-5262D01*
G01*
Y42770D01*
X73016D01*
Y36758D01*
X72009D01*
Y36604D01*
X72795D01*
Y30238D01*
X66783D01*
Y36604D01*
X67572D01*
Y36758D01*
X66650D01*
Y42770D01*
X67572D01*
Y48031D01*
G75*
G02*
X77271Y57730I9699J0D01*
G01*
X81996D01*
G75*
G03*
X84737Y59199I0J3294D01*
G01*
X79974D01*
Y59789D01*
X55474D01*
Y44874D01*
X56654D01*
Y38508D01*
X50642D01*
Y44874D01*
X51824D01*
Y69095D01*
G75*
G02*
X52359Y70385I1825J0D01*
G01*
X54721Y72747D01*
G75*
G02*
X56012Y73282I1291J-1290D01*
G01*
X72350D01*
G75*
G02*
X73641Y72747I0J-1825D01*
G01*
X75806Y70582D01*
G75*
G02*
X76341Y69292I-1290J-1291D01*
G01*
Y68951D01*
X79974D01*
Y69541D01*
X86380D01*
Y68951D01*
X88636D01*
Y69541D01*
X73059Y23675D02*
X80606D01*
Y16482D01*
X73059D01*
Y23675D01*
Y43360D02*
X80606D01*
Y36167D01*
X73059D01*
Y43360D01*
X72053Y23085D02*
X73016D01*
Y17073D01*
X66650D01*
Y17467D01*
X56654D01*
Y16547D01*
X50642D01*
Y17467D01*
X39213D01*
Y16679D01*
X36063D01*
Y10183D01*
X24146D01*
Y17573D01*
X33004D01*
Y21797D01*
X24146D01*
Y29187D01*
X36063D01*
Y22691D01*
X39213D01*
Y21904D01*
X50642D01*
Y22913D01*
X56654D01*
Y21904D01*
X66650D01*
Y23085D01*
X67616D01*
Y23238D01*
X66783D01*
Y29604D01*
X72795D01*
Y23238D01*
X72053D01*
Y23085D01*
X57927Y49409D02*
G75*
G02*
X63939I3006J0D01*
G01*
G75*
G02*
X57927I-3006J0D01*
G01*
X32335Y195331D02*
X51339D01*
Y176327D01*
X32335D01*
Y195331D01*
X71509Y157087D02*
G75*
G02*
X77128I2809J0D01*
G01*
G75*
G02*
X75852Y154733I-2809J0D01*
G01*
Y154414D01*
G75*
G02*
X75720Y153793I-1530J0D01*
G01*
X76472D01*
Y147781D01*
X74820D01*
Y147100D01*
X76472D01*
Y141089D01*
X70106D01*
Y147100D01*
X71761D01*
Y147781D01*
X70106D01*
Y153793D01*
X71693D01*
G75*
G02*
X72017Y154271I1405J-604D01*
G01*
X72606Y154860D01*
G75*
G02*
X71509Y157087I1713J2227D01*
G01*
X63106Y147100D02*
X69472D01*
Y141089D01*
X63106D01*
Y142347D01*
X49005D01*
G75*
G02*
X44029Y144134I-2167J1787D01*
G01*
G75*
G02*
X49005Y145922I2809J0D01*
G01*
X63106D01*
Y147100D01*
X198669Y165193D02*
X207043D01*
Y152917D01*
X204643D01*
Y152201D01*
X207043D01*
Y139925D01*
X198669D01*
Y152201D01*
X201068D01*
Y152917D01*
X198669D01*
Y157268D01*
X194254D01*
Y156738D01*
X187455D01*
Y161372D01*
X194254D01*
Y160843D01*
X198669D01*
Y165193D01*
Y191177D02*
X207043D01*
Y178902D01*
X204643D01*
Y178185D01*
X207043D01*
Y165909D01*
X198669D01*
Y178185D01*
X201068D01*
Y178902D01*
X198669D01*
Y183252D01*
X194254D01*
Y182722D01*
X187455D01*
Y187356D01*
X194254D01*
Y186827D01*
X198669D01*
Y191177D01*
X146114Y192118D02*
X153307D01*
Y184571D01*
X146114D01*
Y192118D01*
X165998Y197321D02*
X172010D01*
Y190955D01*
X165998D01*
Y192350D01*
X164280D01*
G75*
G02*
X163013Y192876I0J1787D01*
G01*
X162230Y193659D01*
G75*
G02*
X161705Y194925I1262J1266D01*
G01*
Y195437D01*
X161280D01*
Y194907D01*
X158980D01*
Y191095D01*
X159500Y190575D01*
Y191724D01*
X165512D01*
Y190327D01*
X167469D01*
G75*
G02*
X168735Y189804I3J-1787D01*
G01*
G75*
G02*
X171813Y187008I269J-2796D01*
G01*
G75*
G02*
X166206Y186752I-2809J0D01*
G01*
X165512D01*
Y185358D01*
X159500D01*
Y186752D01*
X159011D01*
G75*
G02*
X157744Y187276I-3J1787D01*
G01*
X155929Y189091D01*
G75*
G02*
X155405Y190355I1264J1264D01*
G01*
G75*
G02*
Y190356I635J0D01*
G01*
G75*
G02*
Y190358I641J1D01*
G01*
Y194907D01*
X153201D01*
Y199541D01*
X161280D01*
Y199012D01*
X162724D01*
G75*
G02*
X163991Y198486I0J-1787D01*
G01*
X164754Y197723D01*
G75*
G02*
X165280Y196457I-1262J-1266D01*
G01*
Y195925D01*
X165998D01*
Y197321D01*
X179187Y183577D02*
X185986D01*
Y178943D01*
X179187D01*
Y179671D01*
X176683D01*
X174372Y177360D01*
Y156707D01*
X179187D01*
Y157593D01*
X185986D01*
Y152959D01*
X179187D01*
Y153844D01*
X175947D01*
Y148508D01*
X169935D01*
Y154874D01*
X171510D01*
Y177953D01*
G75*
G02*
X171931Y178966I1431J0D01*
G01*
X175077Y182113D01*
G75*
G02*
X176091Y182533I1014J-1010D01*
G01*
X179187D01*
Y183577D01*
X178596Y165742D02*
X186577D01*
Y159927D01*
X178596D01*
Y165742D01*
X158909Y185315D02*
X166102D01*
Y177768D01*
X158909D01*
Y185315D01*
X176597Y202711D02*
G75*
G02*
X183033Y201181I3036J-1530D01*
G01*
G75*
G02*
X176597Y199652I-3400J0D01*
G01*
X172558D01*
G75*
G02*
X172187Y199608I-361J1486D01*
G01*
X172010D01*
Y197955D01*
X165998D01*
Y199608D01*
X164280D01*
G75*
G02*
X163198Y200056I0J1530D01*
G01*
X162559Y200695D01*
X161280D01*
Y199907D01*
X153201D01*
Y204541D01*
X161280D01*
Y203754D01*
X163193D01*
G75*
G02*
X164274Y203306I0J-1530D01*
G01*
X164913Y202667D01*
X165998D01*
Y204321D01*
X172010D01*
Y202693D01*
G75*
G02*
X172250Y202711I230J-1513D01*
G01*
X176597D01*
X178596Y191726D02*
X186577D01*
Y185911D01*
X178596D01*
Y191726D01*
X156163Y144346D02*
X157835D01*
Y134791D01*
X151429D01*
Y144346D01*
X153104D01*
Y144643D01*
X153016Y144731D01*
X150500D01*
G75*
G02*
X149418Y145179I0J1530D01*
G01*
X148631Y145966D01*
G75*
G02*
X148183Y147048I1081J1081D01*
G01*
Y148079D01*
X147413D01*
Y156157D01*
X152047D01*
Y148079D01*
X151242D01*
Y147790D01*
X153649D01*
G75*
G02*
X154731Y147342I0J-1530D01*
G01*
X155715Y146357D01*
G75*
G02*
X156163Y145276I-1081J-1081D01*
G01*
Y144346D01*
X142413Y177512D02*
X147047D01*
Y169433D01*
X142413D01*
Y177512D01*
X137061Y162205D02*
G75*
G02*
X142679I2809J0D01*
G01*
G75*
G02*
X141399Y159849I-2809J0D01*
G01*
Y156157D01*
X142047D01*
Y148079D01*
X141261D01*
Y143170D01*
G75*
G02*
X140813Y142088I-1530J0D01*
G01*
X137980Y139255D01*
G75*
G02*
X138151Y138189I-3229J-1065D01*
G01*
G75*
G02*
X131352I-3400J0D01*
G01*
G75*
G02*
X135817Y141418I3400J0D01*
G01*
X138202Y143803D01*
Y148079D01*
X137638D01*
Y147488D01*
X131823D01*
Y156748D01*
X137638D01*
Y156157D01*
X138340D01*
Y159849D01*
G75*
G02*
X137061Y162205I1530J2356D01*
G01*
X146320Y144346D02*
X147992D01*
Y134791D01*
X141587D01*
Y144346D01*
X143261D01*
Y148079D01*
X142413D01*
Y156157D01*
X147047D01*
Y148079D01*
X146320D01*
Y144346D01*
X144933Y123811D02*
X152126D01*
Y116264D01*
X144933D01*
Y123811D01*
X292529Y28859D02*
G75*
G02*
X300706I4089J0D01*
G01*
G75*
G02*
X292529I-4089J0D01*
G01*
Y38859D02*
G75*
G02*
X300706I4089J0D01*
G01*
G75*
G02*
X292529I-4089J0D01*
G01*
X281939Y28859D02*
G75*
G02*
X291297I4679J0D01*
G01*
G75*
G02*
X281939I-4679J0D01*
G01*
X282529Y38859D02*
G75*
G02*
X290706I4089J0D01*
G01*
G75*
G02*
X282529I-4089J0D01*
G01*
X273092Y40929D02*
G75*
G02*
X280706Y38859I3526J-2070D01*
G01*
G75*
G02*
X273092Y36788I-4089J0D01*
G01*
Y35531D01*
X275766Y32857D01*
G75*
G02*
X280706Y28859I852J-3999D01*
G01*
G75*
G02*
X272529I-4089J0D01*
G01*
G75*
G02*
X273198Y31100I4089J0D01*
G01*
X270481Y33817D01*
G75*
G02*
X270033Y34898I1081J1081D01*
G01*
Y35660D01*
G75*
G02*
X261939Y38859I-3415J3198D01*
G01*
G75*
G02*
X264294Y42920I4679J0D01*
G01*
G75*
G02*
X262513Y44140I575J2750D01*
G01*
X259401D01*
X258328Y43068D01*
Y42572D01*
G75*
G02*
X260706Y38859I-1711J-3713D01*
G01*
G75*
G02*
X252529I-4089J0D01*
G01*
G75*
G02*
X255269Y42719I4089J0D01*
G01*
Y43701D01*
G75*
G02*
X255717Y44783I1530J0D01*
G01*
X257686Y46751D01*
G75*
G02*
X258768Y47199I1081J-1081D01*
G01*
X262513D01*
G75*
G02*
X267679Y45670I2356J-1530D01*
G01*
G75*
G02*
X266698Y43537I-2809J0D01*
G01*
G75*
G02*
X270033Y42057I-80J-4678D01*
G01*
Y47989D01*
X267189Y50833D01*
X252265D01*
G75*
G02*
X247100Y52363I-2356J1530D01*
G01*
G75*
G02*
X252265Y53892I2809J0D01*
G01*
X267822D01*
G75*
G02*
X268904Y53444I0J-1530D01*
G01*
X272644Y49704D01*
G75*
G02*
X273092Y48622I-1081J-1081D01*
G01*
Y40929D01*
X267927Y202022D02*
X279844D01*
Y191679D01*
X267927D01*
Y202022D01*
X268163Y100447D02*
X280081D01*
Y90104D01*
X268163D01*
Y100447D01*
X241939Y28859D02*
G75*
G02*
X251297I4679J0D01*
G01*
G75*
G02*
X241939I-4679J0D01*
G01*
X198146Y237654D02*
X204512D01*
Y231642D01*
X198146D01*
Y232034D01*
X196021D01*
G75*
G02*
X193955I-1033J2612D01*
G01*
X192338D01*
Y231497D01*
G75*
G02*
X191050Y230209I-1287J0D01*
G01*
X170684D01*
Y227166D01*
G75*
G02*
X169397Y225879I-1287J0D01*
G01*
X149712D01*
G75*
G02*
X148424Y227166I0J1287D01*
G01*
Y242127D01*
G75*
G02*
X149712Y243414I1287J0D01*
G01*
X169397D01*
G75*
G02*
X170684Y242127I0J-1287D01*
G01*
Y239083D01*
X191050D01*
G75*
G02*
X192338Y237796I0J-1287D01*
G01*
Y237258D01*
X193955D01*
G75*
G02*
X196021I1033J-2612D01*
G01*
X198146D01*
Y237654D01*
Y228598D02*
X204512D01*
Y222587D01*
X198146D01*
Y222979D01*
X196021D01*
G75*
G02*
X193955I-1033J2612D01*
G01*
X191673D01*
Y222173D01*
X183299D01*
Y228972D01*
X191673D01*
Y228203D01*
X193955D01*
G75*
G02*
X196021I1033J-2612D01*
G01*
X198146D01*
Y228598D01*
X182709Y247673D02*
X192264D01*
Y239693D01*
X182709D01*
Y247673D01*
X204555Y238244D02*
X212102D01*
Y231051D01*
X204555D01*
Y238244D01*
X226628Y242573D02*
X238545D01*
Y232230D01*
X226628D01*
Y242573D01*
X302529Y28859D02*
G75*
G02*
X310706I4089J0D01*
G01*
G75*
G02*
X302529I-4089J0D01*
G01*
Y38859D02*
G75*
G02*
X310706I4089J0D01*
G01*
G75*
G02*
X302529I-4089J0D01*
G01*
X14423Y242520D02*
G75*
G02*
X29096I7337J0D01*
G01*
G75*
G02*
X14423I-7337J0D01*
G01*
X18492Y152417D02*
X26039D01*
Y145224D01*
X18492D01*
Y152417D01*
X25892Y143520D02*
G75*
G02*
X30868Y141733I2167J-1787D01*
G01*
G75*
G02*
X25892Y139945I-2809J0D01*
G01*
X25449D01*
Y138728D01*
X19083D01*
Y144740D01*
X25449D01*
Y143520D01*
X25892D01*
X50006Y79822D02*
G75*
G02*
X50454Y78741I-1081J-1081D01*
G01*
Y41536D01*
G75*
G02*
X50006Y40454I-1530J0D01*
G01*
X46660Y37108D01*
G75*
G02*
X45578Y36660I-1081J1081D01*
G01*
X41630D01*
Y35185D01*
X35264D01*
Y47102D01*
X41630D01*
Y45624D01*
X44748D01*
X45230Y46106D01*
Y64393D01*
G75*
G02*
X41690Y64317I-1817J2143D01*
G01*
X36982D01*
Y60577D01*
X36392D01*
Y49947D01*
X25262D01*
Y61785D01*
X29199D01*
Y62315D01*
G75*
G02*
X26541Y64606I-341J2292D01*
G01*
G75*
G02*
X29789Y66728I2317J0D01*
G01*
Y85241D01*
G75*
G02*
X26541Y87362I-931J2122D01*
G01*
G75*
G02*
X29199Y89654I2317J0D01*
G01*
Y90183D01*
X25262D01*
Y102022D01*
X36392D01*
Y91392D01*
X36982D01*
Y87652D01*
X39824D01*
X40645Y88473D01*
G75*
G02*
X46222Y87993I2768J-480D01*
G01*
G75*
G02*
X43640Y85193I-2809J0D01*
G01*
X42851Y84404D01*
X44791D01*
G75*
G02*
X45873Y83956I0J-1530D01*
G01*
X50006Y79822D01*
X27673Y47693D02*
X35220D01*
Y34594D01*
X27673D01*
Y47693D01*
X69774Y248411D02*
G75*
G02*
X70828Y245867I-2542J-2544D01*
G01*
Y242126D01*
G75*
G02*
X70236Y240149I-3597J0D01*
G01*
Y239909D01*
X70064D01*
G75*
G02*
X69285Y239174I-2832J2217D01*
G01*
G75*
G02*
X70061Y238441I-2053J-2954D01*
G01*
X70236D01*
Y238198D01*
G75*
G02*
Y234244I-3005J-1977D01*
G01*
Y234004D01*
X70064D01*
G75*
G02*
X67232Y232624I-2832J2217D01*
G01*
X58137D01*
G75*
G02*
X55461I-1338J3596D01*
G01*
X53106D01*
Y232213D01*
X45531D01*
Y240287D01*
X53106D01*
Y239817D01*
X55461D01*
G75*
G02*
X58137I1338J-3596D01*
G01*
X60139D01*
G75*
G02*
X58467Y244435I794J2899D01*
G01*
X58289D01*
X56559Y242706D01*
G75*
G02*
X54015Y241652I-2544J2542D01*
G01*
X53106D01*
Y241213D01*
X45531D01*
Y241286D01*
X41051D01*
G75*
G02*
X37061Y245276I0J3990D01*
G01*
G75*
G02*
X41051Y249266I3990J0D01*
G01*
X45531D01*
Y249287D01*
X52968D01*
X54255Y250574D01*
G75*
G02*
X56799Y251628I2544J-2542D01*
G01*
X65067D01*
G75*
G02*
X67611Y250574I0J-3596D01*
G01*
X69774Y248411D01*
X63634Y221315D02*
X70827D01*
Y215697D01*
X63634D01*
Y221315D01*
X72553Y226333D02*
G75*
G02*
X77718Y224804I2356J-1530D01*
G01*
G75*
G02*
X72553Y223274I-2809J0D01*
G01*
X71996D01*
G75*
G02*
X70968Y222880I-1024J1136D01*
G01*
X70236D01*
Y222193D01*
X64224D01*
Y226630D01*
X70236D01*
Y225939D01*
X70341D01*
G75*
G02*
X71370Y226333I1024J-1136D01*
G01*
X72553D01*
X70039Y232535D02*
G75*
G02*
X74569Y230315I1721J-2220D01*
G01*
G75*
G02*
X70034Y228098I-2809J0D01*
G01*
X64224D01*
Y232535D01*
X70039D01*
X78177Y203205D02*
X85724D01*
Y196012D01*
X78177D01*
Y203205D01*
X85134Y195048D02*
G75*
G02*
X89769Y192914I1826J-2134D01*
G01*
G75*
G02*
X85134Y190780I-2809J0D01*
G01*
Y189909D01*
X78768D01*
Y195921D01*
X85134D01*
Y195048D01*
X82492Y212339D02*
X92835D01*
Y204161D01*
X82492D01*
Y212339D01*
X9789Y61785D02*
X20919D01*
Y49947D01*
X9789D01*
Y61785D01*
Y102022D02*
X20919D01*
Y90183D01*
X9789D01*
Y102022D01*
X19994Y131881D02*
G75*
G02*
X23388Y129134I585J-2748D01*
G01*
G75*
G02*
X17770I-2809J0D01*
G01*
G75*
G02*
X17831Y129719I2810J0D01*
G01*
X14186Y133364D01*
G75*
G02*
X13738Y134445I1081J1081D01*
G01*
Y138728D01*
X12083D01*
Y144740D01*
X13738D01*
Y145815D01*
X12083D01*
Y151827D01*
X18449D01*
Y145815D01*
X16797D01*
Y144740D01*
X18449D01*
Y138728D01*
X16797D01*
Y135079D01*
X19994Y131881D01*
X9793Y18110D02*
G36*
X9793Y18110D02*
Y8328D01*
X11977Y6144D01*
X368156D01*
X370340Y8328D01*
Y18110D01*
X346813D01*
G75*
G02*
X332140I-7337J0D01*
G01*
X324076D01*
Y15748D01*
G75*
G02*
X323628Y14667I-1530J0D01*
G01*
X321660Y12698D01*
G75*
G02*
X320578Y12250I-1082J1083D01*
G01*
X119374D01*
G75*
G02*
X118292Y12698I0J1531D01*
G01*
X115536Y15454D01*
G75*
G02*
X115088Y16536I1082J1082D01*
G01*
Y18110D01*
X80606D01*
Y16482D01*
X73059D01*
Y18110D01*
X73016D01*
Y17073D01*
X66650D01*
Y17467D01*
X56654D01*
Y16547D01*
X50642D01*
Y17467D01*
X39213D01*
Y16679D01*
X36063D01*
Y10183D01*
X24146D01*
Y17573D01*
X33004D01*
Y18110D01*
X9793D01*
G37*
X118147D02*
G36*
X118147Y18110D02*
Y17169D01*
X120007Y15309D01*
X127650D01*
X125536Y17423D01*
G75*
G02*
X125140Y18110I1082J1082D01*
G01*
X118147D01*
G37*
X129175D02*
G36*
X129175Y18110D02*
X130007Y17278D01*
X173776D01*
X172943Y18110D01*
X129175D01*
G37*
X264056D02*
G36*
X264056Y18110D02*
X263224Y17278D01*
X318370D01*
X318655Y17563D01*
Y18110D01*
X264056D01*
G37*
X9793Y28859D02*
G36*
X9793Y28859D02*
Y18110D01*
X33004D01*
Y21797D01*
X24146D01*
Y28859D01*
X9793D01*
G37*
X36063D02*
G36*
X36063Y28859D02*
Y22691D01*
X39213D01*
Y21904D01*
X50642D01*
Y22913D01*
X56654D01*
Y21904D01*
X66650D01*
Y23085D01*
X67616D01*
Y23238D01*
X66783D01*
Y28859D01*
X56654D01*
Y23547D01*
X50642D01*
Y28859D01*
X36063D01*
G37*
X72053Y23238D02*
G36*
X72053Y23238D02*
Y23085D01*
X73016D01*
Y18110D01*
X73059D01*
Y23675D01*
X80606D01*
Y18110D01*
X115088D01*
Y25067D01*
G75*
G02*
X112529Y28858I1529J3791D01*
G01*
Y28859D01*
X72795D01*
Y23238D01*
X72053D01*
G37*
X118147Y25067D02*
G36*
X118147Y25067D02*
Y18110D01*
X125140D01*
G75*
G02*
X125088Y18504I1478J394D01*
G01*
Y25067D01*
G75*
G02*
X122529Y28858I1529J3791D01*
G01*
Y28859D01*
X120706D01*
Y28858D01*
G75*
G02*
X118147Y25067I-4088J0D01*
G01*
G37*
X128147D02*
G36*
X128147Y25067D02*
Y19138D01*
X129175Y18110D01*
X172943D01*
X170481Y20572D01*
G75*
G02*
X170033Y21654I1082J1082D01*
G01*
Y25660D01*
G75*
G02*
X161939Y28859I-3415J3198D01*
G01*
X160706D01*
G75*
G02*
X152529I-4089J0D01*
G01*
X151297D01*
G75*
G02*
X141939I-4679J0D01*
G01*
X140706D01*
G75*
G02*
X132529I-4089J0D01*
G01*
X130706D01*
Y28858D01*
G75*
G02*
X128147Y25067I-4088J0D01*
G01*
G37*
X182541Y28548D02*
G36*
X182541Y28548D02*
Y24453D01*
X185385Y21609D01*
X251654D01*
X255088Y25043D01*
Y25067D01*
G75*
G02*
X252529Y28858I1529J3791D01*
G01*
Y28859D01*
X251297D01*
G75*
G02*
X241939I-4679J0D01*
G01*
X240706D01*
G75*
G02*
X232529I-4089J0D01*
G01*
X230706D01*
G75*
G02*
X228039Y25025I-4089J0D01*
G01*
G75*
G02*
X227628Y24184I-1420J172D01*
G01*
X226450Y23006D01*
G75*
G02*
X225437Y22585I-1013J1009D01*
G01*
X202665D01*
G75*
G02*
X201652Y23006I0J1430D01*
G01*
X200474Y24184D01*
G75*
G02*
X200053Y25197I1009J1013D01*
G01*
Y26641D01*
G75*
G02*
X192529Y28859I-3435J2217D01*
G01*
X190706D01*
Y28858D01*
G75*
G02*
X182541Y28548I-4089J0D01*
G01*
G37*
X210706Y28859D02*
G36*
X210706Y28859D02*
G75*
G02*
X208871Y25447I-4089J0D01*
G01*
X213415D01*
G75*
G02*
X211939Y28859I3204J3412D01*
G01*
X210706D01*
G37*
X221297D02*
G36*
X221297Y28859D02*
G75*
G02*
X219820Y25447I-4680J0D01*
G01*
X224364D01*
G75*
G02*
X222529Y28858I2252J3411D01*
G01*
G75*
G02*
Y28859I5639J0D01*
G01*
X221297D01*
G37*
X257699Y23328D02*
G36*
X257699Y23328D02*
X253617Y19246D01*
X260866D01*
X265088Y23469D01*
Y25067D01*
G75*
G02*
X262529Y28858I1529J3791D01*
G01*
Y28859D01*
X260706D01*
Y28858D01*
G75*
G02*
X258147Y25067I-4088J0D01*
G01*
Y24410D01*
G75*
G02*
X257699Y23328I-1530J0D01*
G01*
G37*
X267699Y21754D02*
G36*
X267699Y21754D02*
X264056Y18110D01*
X318655D01*
Y28859D01*
X310706D01*
G75*
G02*
X302529I-4089J0D01*
G01*
X300706D01*
G75*
G02*
X292529I-4089J0D01*
G01*
X291297D01*
G75*
G02*
X281939I-4679J0D01*
G01*
X280706D01*
G75*
G02*
X272529I-4089J0D01*
G01*
X270706D01*
Y28858D01*
G75*
G02*
X268147Y25067I-4088J0D01*
G01*
Y22835D01*
G75*
G02*
X267699Y21754I-1530J0D01*
G01*
G37*
X324076Y28859D02*
G36*
X324076Y28859D02*
Y18110D01*
X332140D01*
G75*
G02*
X346813I7337J0D01*
G01*
X370340D01*
Y28859D01*
X324076D01*
G37*
X9793Y42037D02*
G36*
X9793Y42037D02*
Y28859D01*
X24146D01*
Y29187D01*
X36063D01*
Y28859D01*
X50642D01*
Y29913D01*
X51824D01*
Y31508D01*
X50642D01*
Y37874D01*
X56654D01*
Y31508D01*
X55474D01*
Y29913D01*
X56654D01*
Y28859D01*
X66783D01*
Y29604D01*
X72795D01*
Y28859D01*
X112529D01*
G75*
G02*
X120706I4089J0D01*
G01*
X122529D01*
G75*
G02*
X130706I4089J0D01*
G01*
X132529D01*
G75*
G02*
X140706I4089J0D01*
G01*
X141939D01*
G75*
G02*
X151297I4679J0D01*
G01*
X152529D01*
G75*
G02*
X160706I4089J0D01*
G01*
X161939D01*
G75*
G02*
X170033Y32057I4679J0D01*
G01*
Y36611D01*
G75*
G02*
X162529Y38859I-3415J2248D01*
G01*
G75*
G02*
X164046Y42037I4089J0D01*
G01*
X159189D01*
G75*
G02*
X160706Y38859I-2571J-3178D01*
G01*
Y38859D01*
G75*
G02*
X152529I-4089J0D01*
G01*
Y38859D01*
G75*
G02*
X154046Y42037I4088J0D01*
G01*
X149189D01*
G75*
G02*
X150706Y38859I-2571J-3178D01*
G01*
Y38859D01*
G75*
G02*
X142529I-4089J0D01*
G01*
Y38859D01*
G75*
G02*
X144046Y42037I4088J0D01*
G01*
X139189D01*
G75*
G02*
X140706Y38859I-2571J-3178D01*
G01*
Y38859D01*
G75*
G02*
X132529I-4089J0D01*
G01*
Y38859D01*
G75*
G02*
X134046Y42037I4088J0D01*
G01*
X129189D01*
G75*
G02*
X130706Y38859I-2571J-3179D01*
G01*
G75*
G02*
X122529I-4089J0D01*
G01*
G75*
G02*
X124046Y42037I4089J0D01*
G01*
X120051D01*
G75*
G02*
X121297Y38859I-3433J-3179D01*
G01*
G75*
G02*
X111939I-4679J0D01*
G01*
G75*
G02*
X113184Y42037I4679J0D01*
G01*
X80606D01*
Y36167D01*
X73059D01*
Y42037D01*
X73016D01*
Y36758D01*
X72009D01*
Y36604D01*
X72795D01*
Y30238D01*
X66783D01*
Y36604D01*
X67572D01*
Y36758D01*
X66650D01*
Y42037D01*
X56654D01*
Y38508D01*
X50642D01*
Y42037D01*
X50454D01*
Y41536D01*
G75*
G02*
X50006Y40454I-1530J0D01*
G01*
X46660Y37108D01*
G75*
G02*
X45578Y36660I-1082J1083D01*
G01*
X41630D01*
Y35185D01*
X35264D01*
Y42037D01*
X35220D01*
Y34594D01*
X27673D01*
Y42037D01*
X9793D01*
G37*
X182541Y36562D02*
G36*
X182541Y36562D02*
Y29169D01*
G75*
G02*
X190706Y28859I4077J-310D01*
G01*
Y28859D01*
X192529D01*
G75*
G02*
X192961Y30688I4089J0D01*
G01*
X190631Y33019D01*
G75*
G02*
X190210Y34032I1009J1013D01*
G01*
Y35861D01*
G75*
G02*
X182541Y36562I-3593J2998D01*
G01*
G37*
X210706Y28859D02*
G36*
X210706Y28859D02*
Y28859D01*
X211939D01*
G75*
G02*
X221297I4679J0D01*
G01*
X222529D01*
G75*
G02*
X230706I4089J0D01*
G01*
X232529D01*
G75*
G02*
X234810Y32526I4089J0D01*
G01*
X233177D01*
G75*
G02*
X232095Y32974I0J1531D01*
G01*
X230520Y34549D01*
G75*
G02*
X230072Y35630I1082J1082D01*
G01*
Y36672D01*
G75*
G02*
X222529Y38859I-3455J2187D01*
G01*
G75*
G02*
X224046Y42037I4089J0D01*
G01*
X219189D01*
G75*
G02*
X220706Y38859I-2571J-3178D01*
G01*
Y38859D01*
G75*
G02*
X213151Y36691I-4089J0D01*
G01*
Y33465D01*
G75*
G02*
X212730Y32452I-1430J0D01*
G01*
X210480Y30201D01*
G75*
G02*
X210706Y28859I-3862J-1342D01*
G01*
G37*
X229189Y42037D02*
G36*
X229189Y42037D02*
G75*
G02*
X230072Y41045I-2571J-3179D01*
G01*
Y42037D01*
X229189D01*
G37*
X240706Y38859D02*
G36*
X240706Y38859D02*
G75*
G02*
X239067Y35585I-4089J0D01*
G01*
X241008D01*
X242805Y37382D01*
G75*
G02*
X242529Y38859I3814J1477D01*
G01*
G75*
G02*
X244046Y42037I4089J0D01*
G01*
X239189D01*
G75*
G02*
X240706Y38859I-2571J-3179D01*
G01*
G37*
X238425Y32526D02*
G36*
X238425Y32526D02*
G75*
G02*
X240706Y28859I-1808J-3668D01*
G01*
X241939D01*
G75*
G02*
X251297I4679J0D01*
G01*
X252529D01*
G75*
G02*
X260706I4089J0D01*
G01*
X262529D01*
G75*
G02*
X270706I4089J0D01*
G01*
X272529D01*
G75*
G02*
X273198Y31100I4090J0D01*
G01*
X270481Y33817D01*
G75*
G02*
X270033Y34898I1082J1082D01*
G01*
Y35660D01*
G75*
G02*
X261939Y38859I-3415J3198D01*
G01*
Y38859D01*
G75*
G02*
X263184Y42037I4678J0D01*
G01*
X259189D01*
G75*
G02*
X260706Y38859I-2570J-3178D01*
G01*
Y38859D01*
G75*
G02*
X252529I-4089J0D01*
G01*
G75*
G02*
X254046Y42037I4089J0D01*
G01*
X249189D01*
G75*
G02*
X250706Y38859I-2571J-3179D01*
G01*
G75*
G02*
X244898Y35149I-4089J0D01*
G01*
X242723Y32974D01*
G75*
G02*
X241641Y32526I-1082J1083D01*
G01*
X238425D01*
G37*
X273092Y36788D02*
G36*
X273092Y36788D02*
Y35531D01*
X275766Y32857D01*
G75*
G02*
X280706Y28859I852J-3999D01*
G01*
X281939D01*
G75*
G02*
X291297I4679J0D01*
G01*
X292529D01*
G75*
G02*
X300706I4089J0D01*
G01*
X302529D01*
G75*
G02*
X310706I4089J0D01*
G01*
X318655D01*
Y42037D01*
X309189D01*
G75*
G02*
X310706Y38859I-2571J-3179D01*
G01*
G75*
G02*
X302529I-4089J0D01*
G01*
G75*
G02*
X304046Y42037I4089J0D01*
G01*
X299189D01*
G75*
G02*
X300706Y38859I-2571J-3179D01*
G01*
G75*
G02*
X292529I-4089J0D01*
G01*
G75*
G02*
X294046Y42037I4089J0D01*
G01*
X289189D01*
G75*
G02*
X290706Y38859I-2571J-3179D01*
G01*
G75*
G02*
X282529I-4089J0D01*
G01*
G75*
G02*
X284046Y42037I4089J0D01*
G01*
X279189D01*
G75*
G02*
X280706Y38859I-2571J-3179D01*
G01*
G75*
G02*
X273092Y36788I-4089J0D01*
G01*
G37*
Y42037D02*
G36*
X273092Y42037D02*
Y40929D01*
G75*
G02*
X274046Y42037I3526J-2071D01*
G01*
X273092D01*
G37*
X324076D02*
G36*
X324076Y42037D02*
Y28859D01*
X370340D01*
Y42037D01*
X366006D01*
X366006Y40426D01*
G75*
G02*
X366694Y38583I-2121J-1843D01*
G01*
G75*
G02*
X361076I-2809J0D01*
G01*
G75*
G02*
X361765Y40426I2810J0D01*
G01*
X361766Y42037D01*
X324076D01*
G37*
X9793Y49409D02*
G36*
X9793Y49409D02*
Y42037D01*
X27673D01*
Y47693D01*
X35220D01*
Y42037D01*
X35264D01*
Y47102D01*
X41630D01*
Y45624D01*
X44748D01*
X45230Y46106D01*
Y49409D01*
X9793D01*
G37*
X50454D02*
G36*
X50454Y49409D02*
Y42037D01*
X50642D01*
Y44874D01*
X51824D01*
Y49409D01*
X50454D01*
G37*
X55474D02*
G36*
X55474Y49409D02*
Y44874D01*
X56654D01*
Y42037D01*
X66650D01*
Y42770D01*
X67572D01*
Y48031D01*
G75*
G02*
X67671Y49409I9700J0D01*
G01*
X63939D01*
G75*
G02*
X57927I-3006J0D01*
G01*
X55474D01*
G37*
X72009Y48031D02*
G36*
X72009Y48031D02*
Y42770D01*
X73016D01*
Y42037D01*
X73059D01*
Y43360D01*
X80606D01*
Y42037D01*
X113184D01*
G75*
G02*
X120051I3433J-3179D01*
G01*
X124046D01*
G75*
G02*
X129189I2571J-3179D01*
G01*
X134046D01*
G75*
G02*
X135088Y42650I2571J-3179D01*
G01*
Y49409D01*
X72193D01*
G75*
G03*
X72009Y48031I5078J-1377D01*
G01*
G37*
X138147Y49409D02*
G36*
X138147Y49409D02*
Y42650D01*
G75*
G02*
X139189Y42037I-1529J-3792D01*
G01*
X144046D01*
G75*
G02*
X145088Y42650I2571J-3179D01*
G01*
Y48776D01*
X144455Y49409D01*
X138147D01*
G37*
X148147D02*
G36*
X148147Y49409D02*
Y42650D01*
G75*
G02*
X149189Y42037I-1529J-3792D01*
G01*
X154046D01*
G75*
G02*
X155088Y42650I2571J-3179D01*
G01*
Y48580D01*
X154258Y49409D01*
X148147D01*
G37*
X158147Y49213D02*
G36*
X158147Y49213D02*
Y42650D01*
G75*
G02*
X159189Y42037I-1529J-3792D01*
G01*
X164046D01*
G75*
G02*
X165112Y42660I2572J-3179D01*
G01*
Y48383D01*
X164085Y49409D01*
X158135D01*
G75*
G02*
X158147Y49213I-1517J-196D01*
G01*
G37*
X216892Y49409D02*
G36*
X216892Y49409D02*
Y48995D01*
X217628Y48258D01*
G75*
G02*
X218049Y47244I-1009J-1013D01*
G01*
Y42689D01*
G75*
G02*
X219189Y42037I-1431J-3829D01*
G01*
X224046D01*
G75*
G02*
X229189I2571J-3179D01*
G01*
X230072D01*
Y49409D01*
X216892D01*
G37*
X238147D02*
G36*
X238147Y49409D02*
Y42650D01*
G75*
G02*
X239189Y42037I-1530J-3791D01*
G01*
X244046D01*
G75*
G02*
X249189I2571J-3179D01*
G01*
X254046D01*
G75*
G02*
X255269Y42719I2571J-3179D01*
G01*
Y43701D01*
G75*
G02*
X255717Y44783I1530J0D01*
G01*
X257686Y46751D01*
G75*
G02*
X258768Y47199I1082J-1083D01*
G01*
X262513D01*
G75*
G02*
X267679Y45670I2356J-1529D01*
G01*
Y45670D01*
G75*
G02*
X266698Y43537I-2811J1D01*
G01*
G75*
G02*
X270033Y42057I-81J-4679D01*
G01*
Y47989D01*
X268613Y49409D01*
X238147D01*
G37*
X258328Y43068D02*
G36*
X258328Y43068D02*
Y42572D01*
G75*
G02*
X259189Y42037I-1710J-3713D01*
G01*
X263184D01*
G75*
G02*
X264294Y42920I3433J-3178D01*
G01*
G75*
G02*
X262513Y44140I577J2753D01*
G01*
X259401D01*
X258328Y43068D01*
G37*
X273092Y48622D02*
G36*
X273092Y48622D02*
Y42037D01*
X274046D01*
G75*
G02*
X279189I2571J-3179D01*
G01*
X284046D01*
G75*
G02*
X289189I2571J-3179D01*
G01*
X294046D01*
G75*
G02*
X299189I2571J-3179D01*
G01*
X304046D01*
G75*
G02*
X309189I2571J-3179D01*
G01*
X318655D01*
Y49409D01*
X272874D01*
G75*
G02*
X273092Y48622I-1312J-787D01*
G01*
G37*
X324076Y49409D02*
G36*
X324076Y49409D02*
Y42037D01*
X361766D01*
Y42762D01*
X357317D01*
Y48301D01*
X370340D01*
Y49409D01*
X332837D01*
G75*
G02*
X326825I-3006J0D01*
G01*
X324076D01*
G37*
X366006Y42762D02*
G36*
X366006Y42762D02*
Y42037D01*
X370340D01*
Y42762D01*
X366006D01*
G37*
X9793Y49947D02*
G36*
X9793Y49947D02*
Y49409D01*
X45230D01*
Y56890D01*
X36392D01*
Y49947D01*
X25262D01*
Y56890D01*
X20919D01*
Y49947D01*
X9793D01*
G37*
X50454Y56890D02*
G36*
X50454Y56890D02*
Y49409D01*
X51824D01*
Y56890D01*
X50454D01*
G37*
X55474D02*
G36*
X55474Y56890D02*
Y49409D01*
X57927D01*
G75*
G02*
X63939I3006J0D01*
G01*
X67671D01*
G75*
G02*
X73322Y56890I9601J-1378D01*
G01*
X55474D01*
G37*
X77271Y53293D02*
G36*
X77271Y53293D02*
G75*
G03*
X72193Y49409I0J-5262D01*
G01*
X135088D01*
Y49564D01*
X132244Y52408D01*
X108177D01*
G75*
G02*
X107095Y52856I0J1531D01*
G01*
X103061Y56890D01*
X88528D01*
G75*
G02*
X81996Y53293I-6532J4134D01*
G01*
X77271D01*
G37*
X134602Y54376D02*
G36*
X134602Y54376D02*
X137699Y51279D01*
G75*
G02*
X138147Y50197I-1082J-1082D01*
G01*
Y49409D01*
X144455D01*
X139488Y54376D01*
X134602D01*
G37*
X147520Y56148D02*
G36*
X147520Y56148D02*
X142043D01*
X147699Y50491D01*
G75*
G02*
X148147Y49410I-1082J-1082D01*
G01*
Y49409D01*
X154258D01*
X147520Y56148D01*
G37*
X156605Y56890D02*
G36*
X156605Y56890D02*
X151104D01*
X157699Y50294D01*
G75*
G02*
X158135Y49409I-1082J-1082D01*
G01*
X164085D01*
X156605Y56890D01*
G37*
X216892Y54054D02*
G36*
X216892Y54054D02*
Y49409D01*
X230072D01*
Y52517D01*
X228213Y54376D01*
X221360D01*
G75*
G02*
X216892Y54054I-2356J1529D01*
G01*
G37*
X237506Y56890D02*
G36*
X237506Y56890D02*
X237699Y56696D01*
G75*
G02*
X238147Y55615I-1082J-1082D01*
G01*
Y49409D01*
X268613D01*
X267189Y50833D01*
X252265D01*
G75*
G02*
X247100Y52362I-2356J1529D01*
G01*
Y52363D01*
G75*
G02*
X252265Y53892I2809J0D01*
G01*
X267822D01*
G75*
G02*
X268904Y53444I0J-1531D01*
G01*
X272644Y49704D01*
G75*
G02*
X272874Y49409I-1082J-1081D01*
G01*
X318655D01*
Y51581D01*
G75*
G02*
X317376Y53937I1530J2357D01*
G01*
G75*
G02*
X322993Y54003I2809J0D01*
G01*
X323996Y55006D01*
G75*
G02*
X321332Y56890I1700J5230D01*
G01*
X237506D01*
G37*
X324076Y50760D02*
G36*
X324076Y50760D02*
Y49409D01*
X326825D01*
Y49410D01*
G75*
G02*
X329613Y52407I3006J0D01*
G01*
X325724D01*
X324076Y50760D01*
G37*
X330048Y52407D02*
G36*
X330048Y52407D02*
G75*
G02*
X332837Y49409I-218J-2998D01*
G01*
X370340D01*
Y55636D01*
X357317D01*
Y56890D01*
X354291D01*
Y53146D01*
X349067D01*
Y56890D01*
X346553D01*
G75*
G02*
X346463Y56793I-1171J987D01*
G01*
X342526Y52856D01*
G75*
G02*
X341444Y52407I-1082J1083D01*
G01*
X330048D01*
G37*
X9793Y79429D02*
G36*
X9793Y79429D02*
Y61785D01*
X20919D01*
Y56890D01*
X25262D01*
Y61785D01*
X29199D01*
Y62315D01*
G75*
G02*
X26541Y64606I-341J2292D01*
G01*
G75*
G02*
X29789Y66728I2317J0D01*
G01*
Y79429D01*
X9793D01*
G37*
X36392Y60577D02*
G36*
X36392Y60577D02*
Y56890D01*
X45230D01*
Y64393D01*
G75*
G02*
X41690Y64317I-1817J2142D01*
G01*
X36982D01*
Y60577D01*
X36392D01*
G37*
X50454Y78741D02*
G36*
X50454Y78741D02*
Y56890D01*
X51824D01*
Y69095D01*
G75*
G02*
X52359Y70385I1824J0D01*
G01*
X54721Y72747D01*
G75*
G02*
X56012Y73282I1291J-1291D01*
G01*
X72350D01*
G75*
G02*
X73641Y72747I0J-1825D01*
G01*
X75806Y70582D01*
G75*
G02*
X76341Y69292I-1289J-1290D01*
G01*
Y68951D01*
X79974D01*
Y69541D01*
X86380D01*
Y68951D01*
X88636D01*
Y69541D01*
X95041D01*
Y59199D01*
X89508D01*
G75*
G02*
X88528Y56890I-7512J1824D01*
G01*
X103061D01*
X100206Y59746D01*
G75*
G02*
X99757Y60827I1082J1082D01*
G01*
Y69298D01*
G75*
G02*
X98478Y71654I1530J2357D01*
G01*
Y71654D01*
G75*
G02*
X102870Y73974I2809J0D01*
G01*
Y76827D01*
X104525D01*
Y77508D01*
X102870D01*
Y78983D01*
X71754D01*
G75*
G02*
X66806Y79429I-2356J1529D01*
G01*
X50291D01*
G75*
G02*
X50454Y78741I-1366J-689D01*
G01*
G37*
X55474Y59789D02*
G36*
X55474Y59789D02*
Y56890D01*
X73322D01*
G75*
G02*
X77271Y57730I3950J-8858D01*
G01*
X81996D01*
G75*
G03*
X84737Y59199I0J3293D01*
G01*
X79974D01*
Y59789D01*
X55474D01*
G37*
X137112Y79429D02*
G36*
X137112Y79429D02*
X138239Y78302D01*
X139543D01*
G75*
G02*
X139072Y79429I2292J1619D01*
G01*
X137112D01*
G37*
X144194Y78392D02*
G36*
X144194Y78392D02*
G75*
G02*
X144133Y78302I-2078J1341D01*
G01*
X156405D01*
G75*
G02*
X157487Y77854I0J-1531D01*
G01*
X158724Y76616D01*
G75*
G02*
X163880Y77908I2799J-238D01*
G01*
X189138D01*
X190659Y79429D01*
X154926D01*
X154337Y78840D01*
G75*
G02*
X153255Y78392I-1082J1083D01*
G01*
X144194D01*
G37*
X150074Y57920D02*
G36*
X150074Y57920D02*
X151104Y56890D01*
X156605D01*
X155575Y57920D01*
X150074D01*
G37*
X163880Y74849D02*
G36*
X163880Y74849D02*
G75*
G02*
X161761Y73580I-2356J1530D01*
G01*
X173574Y61766D01*
X195387D01*
G75*
G02*
X199856Y62089I2356J-1529D01*
G01*
Y79429D01*
X194985D01*
X190853Y75297D01*
G75*
G02*
X189771Y74849I-1082J1083D01*
G01*
X163880D01*
G37*
X216892Y79429D02*
G36*
X216892Y79429D02*
Y62089D01*
G75*
G02*
X221360Y61766I2112J-1852D01*
G01*
X231995D01*
G75*
G02*
X233077Y61318I0J-1531D01*
G01*
X237506Y56890D01*
X321332D01*
G75*
G02*
X320197Y60236I4365J3346D01*
G01*
Y79429D01*
X292876D01*
Y72441D01*
G75*
G02*
X292455Y71428I-1430J0D01*
G01*
X287734Y66706D01*
G75*
G02*
X286720Y66285I-1013J1009D01*
G01*
X256262D01*
Y64533D01*
X254785D01*
Y64168D01*
G75*
G02*
X256065Y61811I-1530J-2357D01*
G01*
G75*
G02*
X250447I-2809J0D01*
G01*
G75*
G02*
X251726Y64168I2810J0D01*
G01*
Y64533D01*
X250250D01*
Y69393D01*
G75*
G02*
X249569Y69100I-888J1123D01*
G01*
Y67333D01*
X248557D01*
G75*
G02*
X249372Y65355I-1996J-1979D01*
G01*
G75*
G02*
X243754I-2809J0D01*
G01*
G75*
G02*
X244569Y67333I2810J-1D01*
G01*
X243557D01*
Y73699D01*
X249569D01*
Y72586D01*
G75*
G02*
X250109Y72691I536J-1321D01*
G01*
X250250D01*
Y77900D01*
X251469D01*
Y79429D01*
X249569D01*
Y74333D01*
X243557D01*
Y79429D01*
X216892D01*
G37*
X255043D02*
G36*
X255043Y79429D02*
Y77900D01*
X256262D01*
Y72691D01*
X282584D01*
X287258Y77365D01*
Y79429D01*
X255043D01*
G37*
X346911Y57874D02*
G36*
X346911Y57874D02*
G75*
G02*
X346553Y56890I-1530J0D01*
G01*
X349067D01*
Y60634D01*
X354291D01*
Y56890D01*
X357317D01*
Y61175D01*
X362098D01*
Y63630D01*
X361570Y64158D01*
X353701D01*
Y62791D01*
X349657D01*
Y69098D01*
X349893D01*
Y70913D01*
X346911Y73895D01*
Y57874D01*
G37*
X349531Y79429D02*
G36*
X349531Y79429D02*
Y76331D01*
X352944Y72918D01*
G75*
G02*
X353468Y71654I-1265J-1265D01*
G01*
Y71653D01*
Y71651D01*
Y69098D01*
X353701D01*
Y67733D01*
X362311D01*
G75*
G02*
X363577Y67207I0J-1788D01*
G01*
X365148Y65636D01*
G75*
G02*
X365673Y64370I-1262J-1266D01*
G01*
Y61175D01*
X370340D01*
Y74258D01*
X356518D01*
Y79429D01*
X349531D01*
G37*
X9793Y90183D02*
G36*
X9793Y90183D02*
Y79429D01*
X29789D01*
Y85241D01*
G75*
G02*
X26541Y87362I-931J2122D01*
G01*
G75*
G02*
X29199Y89654I2317J0D01*
G01*
Y90183D01*
X25262D01*
Y95276D01*
X20919D01*
Y90183D01*
X9793D01*
G37*
X36392Y95276D02*
G36*
X36392Y95276D02*
Y91392D01*
X36982D01*
Y87652D01*
X39824D01*
X40645Y88473D01*
G75*
G02*
X46222Y87993I2768J-480D01*
G01*
G75*
G02*
X43640Y85193I-2809J0D01*
G01*
X42851Y84404D01*
X44791D01*
G75*
G02*
X45873Y83956I0J-1531D01*
G01*
X50006Y79822D01*
G75*
G02*
X50291Y79429I-1082J-1082D01*
G01*
X66806D01*
G75*
G02*
X66589Y80512I2592J1082D01*
G01*
Y80512D01*
G75*
G02*
X71754Y82042I2809J0D01*
G01*
X102870D01*
Y83313D01*
X70776D01*
G75*
G02*
X69694Y83761I0J1531D01*
G01*
X60442Y93013D01*
G75*
G02*
X59994Y94095I1082J1082D01*
G01*
Y95276D01*
X36392D01*
G37*
X121265D02*
G36*
X121265Y95276D02*
X137112Y79429D01*
X139072D01*
G75*
G02*
X139029Y79920I2762J491D01*
G01*
G75*
G02*
Y79922I3076J1D01*
G01*
G75*
G02*
X144194Y81451I2809J0D01*
G01*
X152622D01*
X154876Y83705D01*
Y95276D01*
X121265D01*
G37*
X157487Y81990D02*
G36*
X157487Y81990D02*
X154926Y79429D01*
X190659D01*
X193655Y82425D01*
Y95276D01*
X192257D01*
G75*
G02*
X186695I-2781J394D01*
G01*
X157935D01*
Y83071D01*
G75*
G02*
X157487Y81990I-1530J0D01*
G01*
G37*
X196266Y80710D02*
G36*
X196266Y80710D02*
X194985Y79429D01*
X199856D01*
Y95276D01*
X196714D01*
Y81792D01*
G75*
G02*
X196266Y80710I-1530J0D01*
G01*
G37*
X213151Y93895D02*
G36*
X213151Y93895D02*
Y85411D01*
G75*
G02*
X218663Y84646I2703J-765D01*
G01*
G75*
G02*
X216892Y82036I-2809J0D01*
G01*
Y79429D01*
X243557D01*
Y80699D01*
X244776D01*
Y81493D01*
Y81495D01*
Y81496D01*
G75*
G02*
X245299Y82760I1789J-1D01*
G01*
X245693Y83154D01*
G75*
G02*
X246960Y83677I1263J-1262D01*
G01*
X251089D01*
G75*
G02*
X256065Y81890I2167J-1787D01*
G01*
G75*
G02*
X255043Y79723I-2809J0D01*
G01*
Y79429D01*
X287258D01*
Y95276D01*
X280081D01*
Y90104D01*
X268163D01*
Y95276D01*
X214531D01*
X213151Y93895D01*
G37*
X249569Y80102D02*
G36*
X249569Y80102D02*
Y79429D01*
X251469D01*
Y79723D01*
G75*
G02*
X251089Y80102I1794J2174D01*
G01*
X249569D01*
G37*
X292876Y95276D02*
G36*
X292876Y95276D02*
Y79429D01*
X320197D01*
Y95276D01*
X292876D01*
G37*
X349531Y86856D02*
G36*
X349531Y86856D02*
Y79429D01*
X356518D01*
Y84600D01*
X370340D01*
Y95276D01*
X356230D01*
Y86856D01*
X349531D01*
G37*
X9793Y120037D02*
G36*
X9793Y120037D02*
Y102022D01*
X20919D01*
Y95276D01*
X25262D01*
Y102022D01*
X36392D01*
Y95276D01*
X59994D01*
Y97388D01*
X53990D01*
Y107730D01*
X60396D01*
Y107140D01*
X72986D01*
Y110970D01*
X72199D01*
Y116975D01*
X44594D01*
G75*
G02*
X43513Y117423I0J1531D01*
G01*
X40898Y120037D01*
X9793D01*
G37*
X45224D02*
G36*
X45224Y120037D02*
X45228Y120034D01*
X68419D01*
Y120037D01*
X45224D01*
G37*
X108722D02*
G36*
X108722Y120037D02*
Y111657D01*
X110188Y110191D01*
X115460D01*
G75*
G02*
X116542Y109743I0J-1531D01*
G01*
X119298Y106987D01*
G75*
G02*
X119746Y105906I-1082J-1082D01*
G01*
Y96795D01*
X121265Y95276D01*
X154876D01*
Y110244D01*
X153201D01*
Y111506D01*
X151535D01*
Y109854D01*
X145524D01*
Y116220D01*
X151535D01*
Y114565D01*
X153201D01*
Y114878D01*
X160000D01*
Y110244D01*
X157935D01*
Y95276D01*
X186695D01*
G75*
G02*
X186667Y95670I2781J395D01*
G01*
G75*
G02*
X187116Y97193I2809J0D01*
G01*
X184697D01*
Y105103D01*
X184164D01*
G75*
G02*
X182897Y105626I-4J1786D01*
G01*
X179944Y108579D01*
G75*
G02*
X179421Y109843I1265J1265D01*
G01*
Y109844D01*
Y109846D01*
Y119535D01*
X178919Y120037D01*
X162265D01*
Y118657D01*
X168268D01*
Y114024D01*
X161469D01*
Y114809D01*
X161327D01*
G75*
G02*
X160245Y115257I0J1531D01*
G01*
X159654Y115848D01*
G75*
G02*
X159206Y116930I1082J1082D01*
G01*
Y117213D01*
X152610D01*
Y120037D01*
X152126D01*
Y116264D01*
X144933D01*
Y120037D01*
X108722D01*
G37*
X192285Y95670D02*
G36*
X192285Y95670D02*
G75*
G02*
X192257Y95276I-2809J1D01*
G01*
X193655D01*
Y97193D01*
X191836D01*
G75*
G02*
X192285Y95670I-2360J-1523D01*
G01*
G37*
X196714Y120037D02*
G36*
X196714Y120037D02*
Y95276D01*
X199856D01*
Y110630D01*
G75*
G02*
X200277Y111644I1430J0D01*
G01*
X208670Y120037D01*
X196714D01*
G37*
X217431Y98175D02*
G36*
X217431Y98175D02*
X214531Y95276D01*
X268163D01*
Y100447D01*
X280081D01*
Y95276D01*
X287258D01*
Y120037D01*
X267679D01*
Y102362D01*
G75*
G02*
X267258Y101349I-1430J0D01*
G01*
X264506Y98596D01*
G75*
G02*
X263492Y98175I-1013J1009D01*
G01*
X217431D01*
G37*
X292876Y120037D02*
G36*
X292876Y120037D02*
Y95276D01*
X320197D01*
Y120037D01*
X292876D01*
G37*
X356230Y107624D02*
G36*
X356230Y107624D02*
Y95276D01*
X370340D01*
Y120037D01*
X356230D01*
Y117278D01*
X356821D01*
Y110872D01*
X356230D01*
Y110683D01*
X360244D01*
G75*
G02*
X361326Y110235I0J-1531D01*
G01*
X363393Y108168D01*
G75*
G02*
X363841Y107087I-1082J-1082D01*
G01*
Y105506D01*
G75*
G02*
X365120Y103150I-1530J-2357D01*
G01*
G75*
G02*
X359502I-2809J0D01*
G01*
G75*
G02*
X360781Y105506I2810J0D01*
G01*
Y106453D01*
X359611Y107624D01*
X356230D01*
G37*
X9793Y133957D02*
G36*
X9793Y133957D02*
Y120037D01*
X40898D01*
X40757Y120179D01*
G75*
G02*
X40309Y121260I1082J1082D01*
G01*
Y133957D01*
X17919D01*
X19994Y131881D01*
G75*
G02*
X23388Y129134I585J-2747D01*
G01*
Y129134D01*
G75*
G02*
X17770I-2809J0D01*
G01*
G75*
G02*
Y129135I3076J1D01*
G01*
G75*
G02*
X17831Y129719I2803J0D01*
G01*
X14186Y133364D01*
G75*
G02*
X13818Y133957I1082J1081D01*
G01*
X9793D01*
G37*
X43368D02*
G36*
X43368Y133957D02*
Y121894D01*
X45224Y120037D01*
X68419D01*
Y126037D01*
X68478D01*
G75*
G02*
X67376Y128544I2297J2506D01*
G01*
G75*
G02*
X73811Y130073I3400J0D01*
G01*
X103452D01*
G75*
G02*
X104534Y129625I0J-1531D01*
G01*
X108274Y125885D01*
G75*
G02*
X108722Y124804I-1082J-1082D01*
G01*
Y120037D01*
X144933D01*
Y123811D01*
X152126D01*
Y120037D01*
X152610D01*
Y123028D01*
X159206D01*
Y133071D01*
G75*
G02*
X159489Y133957I1530J0D01*
G01*
X43368D01*
G37*
X162265Y124146D02*
G36*
X162265Y124146D02*
Y120037D01*
X178919D01*
X173417Y125540D01*
X167874D01*
Y124146D01*
X162265D01*
G37*
X196714Y133957D02*
G36*
X196714Y133957D02*
Y120037D01*
X208670D01*
X216809Y128176D01*
G75*
G02*
X217822Y128597I1013J-1009D01*
G01*
X256995D01*
G75*
G02*
X257140Y128589I-4J-1471D01*
G01*
Y133957D01*
X196714D01*
G37*
X264923Y126128D02*
G36*
X264923Y126128D02*
Y125841D01*
X265461D01*
G75*
G02*
X266474Y125420I0J-1430D01*
G01*
X267258Y124635D01*
G75*
G02*
X267679Y123622I-1009J-1013D01*
G01*
Y120037D01*
X287258D01*
Y133957D01*
X265514D01*
Y126128D01*
X264923D01*
G37*
X292876Y133957D02*
G36*
X292876Y133957D02*
Y120037D01*
X320197D01*
Y133957D01*
X292876D01*
G37*
X344976D02*
G36*
X344976Y133957D02*
Y121216D01*
G75*
G02*
X348919Y120427I1586J-2318D01*
G01*
X349037D01*
Y126530D01*
X350846D01*
Y127047D01*
X349236Y128658D01*
G75*
G02*
X348712Y129922I1265J1265D01*
G01*
Y129922D01*
Y129925D01*
Y133957D01*
X344976D01*
G37*
X352287D02*
G36*
X352287Y133957D02*
Y130662D01*
X353898Y129051D01*
G75*
G02*
X354421Y127787I-1265J-1265D01*
G01*
Y127787D01*
Y127784D01*
Y126530D01*
X356230D01*
Y120037D01*
X370340D01*
Y128785D01*
X356518D01*
Y133957D01*
X352287D01*
G37*
X9793Y144094D02*
G36*
X9793Y144094D02*
Y133957D01*
X13818D01*
G75*
G02*
X13738Y134445I1450J489D01*
G01*
Y138728D01*
X12083D01*
Y144094D01*
X9793D01*
G37*
X16797Y138728D02*
G36*
X16797Y138728D02*
Y135079D01*
X17919Y133957D01*
X40309D01*
Y144094D01*
X29580D01*
G75*
G02*
X30868Y141733I-1521J-2362D01*
G01*
G75*
G02*
X25892Y139945I-2809J0D01*
G01*
X25449D01*
Y138728D01*
X19083D01*
Y144094D01*
X18449D01*
Y138728D01*
X16797D01*
G37*
X25449Y144094D02*
G36*
X25449Y144094D02*
Y143520D01*
X25892D01*
G75*
G02*
X26538Y144094I2167J-1788D01*
G01*
X25449D01*
G37*
X43368D02*
G36*
X43368Y144094D02*
Y133957D01*
X159489D01*
G75*
G02*
X159654Y134153I1248J-887D01*
G01*
X160639Y135137D01*
G75*
G02*
X161720Y135585I1082J-1083D01*
G01*
X161862D01*
Y137512D01*
X167874D01*
Y135979D01*
X184697D01*
Y143156D01*
X178479D01*
G75*
G02*
X178339Y143160I-26J1544D01*
G01*
X175947D01*
Y141508D01*
X169935D01*
Y144094D01*
X157835D01*
Y134791D01*
X151429D01*
Y144094D01*
X147992D01*
Y134791D01*
X141587D01*
Y144094D01*
X141261D01*
Y143170D01*
G75*
G02*
X140813Y142088I-1530J0D01*
G01*
X137980Y139255D01*
G75*
G02*
X138151Y138191I-3216J-1063D01*
G01*
G75*
G02*
Y138189I-3638J-1D01*
G01*
G75*
G02*
X131352I-3400J0D01*
G01*
G75*
G02*
X135817Y141418I3400J0D01*
G01*
X138202Y143803D01*
Y144094D01*
X76472D01*
Y141089D01*
X70106D01*
Y144094D01*
X69472D01*
Y141089D01*
X63106D01*
Y142347D01*
X49005D01*
G75*
G02*
X44030Y144094I-2167J1787D01*
G01*
X43368D01*
G37*
X196714Y143307D02*
G36*
X196714Y143307D02*
Y133957D01*
X257140D01*
Y144094D01*
X220441D01*
Y139925D01*
X212067D01*
Y144094D01*
X207043D01*
Y139925D01*
X198669D01*
Y144094D01*
X196496D01*
G75*
G02*
X196714Y143307I-1312J-787D01*
G01*
G37*
X265514Y144094D02*
G36*
X265514Y144094D02*
Y133957D01*
X287258D01*
Y144094D01*
X265514D01*
G37*
X292876D02*
G36*
X292876Y144094D02*
Y133957D01*
X320197D01*
Y144094D01*
X292876D01*
G37*
X344976D02*
G36*
X344976Y144094D02*
Y133957D01*
X348712D01*
Y141091D01*
X347886D01*
Y144094D01*
X344976D01*
G37*
X352287Y141091D02*
G36*
X352287Y141091D02*
Y133957D01*
X356518D01*
Y139128D01*
X370340D01*
Y144094D01*
X369274D01*
Y140400D01*
X356136D01*
Y141382D01*
X353110D01*
Y141091D01*
X352287D01*
G37*
X9793Y148821D02*
G36*
X9793Y148821D02*
Y144094D01*
X12083D01*
Y144740D01*
X13738D01*
Y145815D01*
X12083D01*
Y148821D01*
X9793D01*
G37*
X16797Y145815D02*
G36*
X16797Y145815D02*
Y144740D01*
X18449D01*
Y144094D01*
X19083D01*
Y144740D01*
X25449D01*
Y144094D01*
X26538D01*
G75*
G02*
X29580I1521J-2362D01*
G01*
X40309D01*
Y147390D01*
X33713D01*
Y148821D01*
X26039D01*
Y145224D01*
X18492D01*
Y148821D01*
X18449D01*
Y145815D01*
X16797D01*
G37*
X43368Y147390D02*
G36*
X43368Y147390D02*
Y144094D01*
X44030D01*
G75*
G02*
X44029Y144134I2816J48D01*
G01*
G75*
G02*
X49005Y145922I2809J0D01*
G01*
X63106D01*
Y147100D01*
X69472D01*
Y144094D01*
X70106D01*
Y147100D01*
X71761D01*
Y147781D01*
X70106D01*
Y148821D01*
X70063D01*
Y147191D01*
X62516D01*
Y148821D01*
X49961D01*
Y147390D01*
X43368D01*
G37*
X74820Y147781D02*
G36*
X74820Y147781D02*
Y147100D01*
X76472D01*
Y144094D01*
X138202D01*
Y148079D01*
X137638D01*
Y147488D01*
X131823D01*
Y148821D01*
X76472D01*
Y147781D01*
X74820D01*
G37*
X141261Y148079D02*
G36*
X141261Y148079D02*
Y144094D01*
X141587D01*
Y144346D01*
X143261D01*
Y148079D01*
X142413D01*
Y148821D01*
X142047D01*
Y148079D01*
X141261D01*
G37*
X146320D02*
G36*
X146320Y148079D02*
Y144346D01*
X147992D01*
Y144094D01*
X151429D01*
Y144346D01*
X153104D01*
Y144643D01*
X153016Y144731D01*
X150500D01*
G75*
G02*
X149418Y145179I0J1531D01*
G01*
X148631Y145966D01*
G75*
G02*
X148183Y147048I1082J1082D01*
G01*
Y148079D01*
X147413D01*
Y148821D01*
X147047D01*
Y148079D01*
X146320D01*
G37*
X151242D02*
G36*
X151242Y148079D02*
Y147790D01*
X153649D01*
G75*
G02*
X154731Y147342I0J-1531D01*
G01*
X155715Y146357D01*
G75*
G02*
X156163Y145276I-1082J-1082D01*
G01*
Y144346D01*
X157835D01*
Y144094D01*
X169935D01*
Y147874D01*
X175947D01*
Y146219D01*
X178422D01*
G75*
G02*
X178561Y146215I26J-1544D01*
G01*
X193806D01*
G75*
G02*
X194888Y145767I0J-1531D01*
G01*
X196266Y144389D01*
G75*
G02*
X196496Y144094I-1082J-1081D01*
G01*
X198669D01*
Y148821D01*
X175947D01*
Y148508D01*
X169935D01*
Y148821D01*
X152047D01*
Y148079D01*
X151242D01*
G37*
X207043Y148821D02*
G36*
X207043Y148821D02*
Y144094D01*
X212067D01*
Y148821D01*
X207043D01*
G37*
X220441Y144632D02*
G36*
X220441Y144632D02*
Y144094D01*
X257140D01*
Y148821D01*
X230872D01*
X227104Y145053D01*
G75*
G02*
X226091Y144632I-1013J1009D01*
G01*
X220441D01*
G37*
Y148821D02*
G36*
X220441Y148821D02*
Y147494D01*
X225498D01*
X226824Y148821D01*
X220441D01*
G37*
X265514D02*
G36*
X265514Y148821D02*
Y144094D01*
X287258D01*
Y148821D01*
X265514D01*
G37*
X292876D02*
G36*
X292876Y148821D02*
Y144094D01*
X320197D01*
Y148821D01*
X292876D01*
G37*
X344976D02*
G36*
X344976Y148821D02*
Y144094D01*
X347886D01*
Y146315D01*
X353110D01*
Y144957D01*
X356136D01*
Y145939D01*
X369274D01*
Y144094D01*
X370340D01*
Y148821D01*
X344976D01*
G37*
X9793Y152364D02*
G36*
X9793Y152364D02*
Y148821D01*
X12083D01*
Y151827D01*
X18449D01*
Y148821D01*
X18492D01*
Y152364D01*
X9793D01*
G37*
X26039D02*
G36*
X26039Y152364D02*
Y148821D01*
X33713D01*
Y152364D01*
X26039D01*
G37*
X49961D02*
G36*
X49961Y152364D02*
Y148821D01*
X62516D01*
Y152364D01*
X49961D01*
G37*
X70063D02*
G36*
X70063Y152364D02*
Y148821D01*
X70106D01*
Y152364D01*
X70063D01*
G37*
X76472D02*
G36*
X76472Y152364D02*
Y148821D01*
X131823D01*
Y152364D01*
X76472D01*
G37*
X142047D02*
G36*
X142047Y152364D02*
Y148821D01*
X142413D01*
Y152364D01*
X142047D01*
G37*
X147047D02*
G36*
X147047Y152364D02*
Y148821D01*
X147413D01*
Y152364D01*
X147047D01*
G37*
X152047D02*
G36*
X152047Y152364D02*
Y148821D01*
X169935D01*
Y152364D01*
X152047D01*
G37*
X175947D02*
G36*
X175947Y152364D02*
Y148821D01*
X198669D01*
Y152201D01*
X201068D01*
Y152364D01*
X175947D01*
G37*
X204643D02*
G36*
X204643Y152364D02*
Y152201D01*
X207043D01*
Y148821D01*
X212067D01*
Y152201D01*
X220441D01*
Y148821D01*
X226824D01*
X230368Y152364D01*
X204643D01*
G37*
X233006Y150955D02*
G36*
X233006Y150955D02*
X230872Y148821D01*
X257140D01*
Y152364D01*
X233427D01*
Y151969D01*
G75*
G02*
X233006Y150955I-1430J0D01*
G01*
G37*
X265514Y152364D02*
G36*
X265514Y152364D02*
Y148821D01*
X287258D01*
Y152364D01*
X265514D01*
G37*
X292876D02*
G36*
X292876Y152364D02*
Y148821D01*
X320197D01*
Y152364D01*
X292876D01*
G37*
X344976D02*
G36*
X344976Y152364D02*
Y148821D01*
X370340D01*
Y152364D01*
X353701D01*
Y149161D01*
X347295D01*
Y152364D01*
X344976D01*
G37*
X9793Y162835D02*
G36*
X9793Y162835D02*
Y152364D01*
X18492D01*
Y152417D01*
X26039D01*
Y152364D01*
X33713D01*
Y162835D01*
X9793D01*
G37*
X49961Y153786D02*
G36*
X49961Y153786D02*
Y152364D01*
X62516D01*
Y153800D01*
G75*
G02*
X62310Y153786I-208J1564D01*
G01*
X49961D01*
G37*
Y162835D02*
G36*
X49961Y162835D02*
Y156845D01*
X61677D01*
X67667Y162835D01*
X49961D01*
G37*
X70063Y154384D02*
G36*
X70063Y154384D02*
Y152364D01*
X70106D01*
Y153793D01*
X71693D01*
G75*
G02*
X72017Y154271I1397J-598D01*
G01*
X72606Y154860D01*
G75*
G02*
X71509Y157087I1713J2227D01*
G01*
G75*
G02*
X77128I2809J0D01*
G01*
Y157087D01*
G75*
G02*
X75852Y154733I-2808J0D01*
G01*
Y154414D01*
G75*
G02*
Y154412I-1589J-1D01*
G01*
G75*
G02*
X75720Y153793I-1520J0D01*
G01*
X76472D01*
Y152364D01*
X131823D01*
Y156748D01*
X137638D01*
Y156157D01*
X138340D01*
Y159849D01*
G75*
G02*
X137061Y162205I1530J2357D01*
G01*
G75*
G02*
X137132Y162835I2809J1D01*
G01*
X71993D01*
X63542Y154384D01*
X70063D01*
G37*
X141399Y159849D02*
G36*
X141399Y159849D02*
Y156157D01*
X142047D01*
Y152364D01*
X142413D01*
Y156157D01*
X147047D01*
Y152364D01*
X147413D01*
Y156157D01*
X152047D01*
Y152364D01*
X169935D01*
Y154874D01*
X171510D01*
Y162835D01*
X142607D01*
G75*
G02*
X142679Y162205I-2738J-629D01*
G01*
G75*
G02*
X141399Y159849I-2810J0D01*
G01*
G37*
X174372Y162835D02*
G36*
X174372Y162835D02*
Y156707D01*
X179187D01*
Y157593D01*
X185986D01*
Y152959D01*
X179187D01*
Y153844D01*
X175947D01*
Y152364D01*
X201068D01*
Y152917D01*
X198669D01*
Y157268D01*
X194254D01*
Y156738D01*
X187455D01*
Y161372D01*
X194254D01*
Y160843D01*
X198669D01*
Y162835D01*
X186577D01*
Y159927D01*
X178596D01*
Y162835D01*
X174372D01*
G37*
X204643Y152917D02*
G36*
X204643Y152917D02*
Y152364D01*
X230368D01*
X230565Y152561D01*
Y160324D01*
X228285Y158045D01*
G75*
G02*
X227272Y157624I-1013J1009D01*
G01*
X220441D01*
Y152917D01*
X212067D01*
Y162835D01*
X207043D01*
Y152917D01*
X204643D01*
G37*
X220441Y162835D02*
G36*
X220441Y162835D02*
Y160486D01*
X226679D01*
X228203Y162010D01*
Y162835D01*
X220441D01*
G37*
X233427D02*
G36*
X233427Y162835D02*
Y152364D01*
X257140D01*
Y162835D01*
X233427D01*
G37*
X265514D02*
G36*
X265514Y162835D02*
Y152364D01*
X287258D01*
Y162835D01*
X265514D01*
G37*
X292876D02*
G36*
X292876Y162835D02*
Y152364D01*
X320197D01*
Y162835D01*
X292876D01*
G37*
X344976D02*
G36*
X344976Y162835D02*
Y152364D01*
X347295D01*
Y155567D01*
X353701D01*
Y152364D01*
X370340D01*
Y162835D01*
X364089D01*
X364203Y162720D01*
G75*
G02*
X364824Y161221I-1498J-1499D01*
G01*
Y161221D01*
X364825Y158813D01*
X369274D01*
Y153274D01*
X356136D01*
Y158813D01*
X360585D01*
X360584Y160343D01*
X358092Y162835D01*
X344976D01*
G37*
X9793Y173472D02*
G36*
X9793Y173472D02*
Y162835D01*
X33713D01*
Y163244D01*
X49961D01*
Y162835D01*
X67667D01*
X69443Y164611D01*
Y173472D01*
X9793D01*
G37*
X72052Y162893D02*
G36*
X72052Y162893D02*
X71993Y162835D01*
X137132D01*
G75*
G02*
X142607I2738J-630D01*
G01*
X171510D01*
Y173472D01*
X152047D01*
Y169433D01*
X147413D01*
Y173472D01*
X147047D01*
Y169433D01*
X142413D01*
Y173472D01*
X142047D01*
Y169433D01*
X141261D01*
Y169351D01*
G75*
G02*
X140813Y168269I-1530J0D01*
G01*
X139967Y167423D01*
G75*
G02*
X138885Y166975I-1082J1083D01*
G01*
X133565D01*
G75*
G02*
X128399Y168504I-2356J1529D01*
G01*
Y168504D01*
G75*
G02*
X132413Y171042I2809J0D01*
G01*
Y173472D01*
X72502D01*
Y164329D01*
G75*
G02*
X72510Y164174I-1526J-155D01*
G01*
Y164173D01*
G75*
G02*
Y164170I-1504J-2D01*
G01*
G75*
G02*
X72502Y164015I-1452J0D01*
G01*
Y163974D01*
G75*
G02*
X72052Y162893I-1532J4D01*
G01*
G37*
X174372Y173472D02*
G36*
X174372Y173472D02*
Y162835D01*
X178596D01*
Y165742D01*
X186577D01*
Y162835D01*
X198669D01*
Y165193D01*
X207043D01*
Y162835D01*
X212067D01*
Y165193D01*
X220441D01*
Y162835D01*
X228203D01*
Y172135D01*
X227102Y171035D01*
G75*
G02*
X226087Y170616I-1011J1011D01*
G01*
X220441D01*
Y165909D01*
X212067D01*
Y173472D01*
X207043D01*
Y165909D01*
X198669D01*
Y173472D01*
X174372D01*
G37*
X233427D02*
G36*
X233427Y173472D02*
Y162835D01*
X257140D01*
Y171904D01*
X257730D01*
Y172191D01*
X245776D01*
G75*
G02*
X244762Y172612I0J1430D01*
G01*
X244504Y172869D01*
G75*
G02*
X241962Y173472I-697J2721D01*
G01*
X233427D01*
G37*
X264923D02*
G36*
X264923Y173472D02*
Y171904D01*
X265514D01*
Y162835D01*
X287258D01*
Y173472D01*
X264923D01*
G37*
X292876D02*
G36*
X292876Y173472D02*
Y162835D01*
X320197D01*
Y173472D01*
X292876D01*
G37*
X344976D02*
G36*
X344976Y173472D02*
Y162835D01*
X358092D01*
X353725Y167202D01*
G75*
G02*
X353104Y168701I1498J1499D01*
G01*
Y168701D01*
Y173472D01*
X344976D01*
G37*
X357344D02*
G36*
X357344Y173472D02*
Y169580D01*
X364089Y162835D01*
X370340D01*
Y173472D01*
X357344D01*
G37*
X9793Y181541D02*
G36*
X9793Y181541D02*
Y173472D01*
X69443D01*
Y181541D01*
X51339D01*
Y176327D01*
X32335D01*
Y181541D01*
X9793D01*
G37*
X72502D02*
G36*
X72502Y181541D02*
Y173472D01*
X132413D01*
Y177512D01*
X133202D01*
Y181541D01*
X72502D01*
G37*
X139037D02*
G36*
X139037Y181541D02*
Y181509D01*
G75*
G02*
X139040Y181541I2804J-226D01*
G01*
X139037D01*
G37*
X141309Y177737D02*
G36*
X141309Y177737D02*
X141306Y177512D01*
X142047D01*
Y173472D01*
X142413D01*
Y177512D01*
X147047D01*
Y173472D01*
X147413D01*
Y177512D01*
X148202D01*
Y178161D01*
X146705D01*
Y179770D01*
X144194D01*
G75*
G02*
X141054Y178602I-2356J1529D01*
G01*
G75*
G02*
X141309Y177756I-1278J-847D01*
G01*
Y177737D01*
G37*
X151261Y178161D02*
G36*
X151261Y178161D02*
Y177512D01*
X152047D01*
Y173472D01*
X171510D01*
Y177953D01*
G75*
G02*
X171931Y178966I1430J0D01*
G01*
X174506Y181541D01*
X166102D01*
Y177768D01*
X158909D01*
Y181541D01*
X152717D01*
Y178161D01*
X151261D01*
G37*
X174372Y177360D02*
G36*
X174372Y177360D02*
Y173472D01*
X198669D01*
Y178185D01*
X201068D01*
Y178902D01*
X198669D01*
Y181541D01*
X185986D01*
Y178943D01*
X179187D01*
Y179671D01*
X176683D01*
X174372Y177360D01*
G37*
X204643Y178902D02*
G36*
X204643Y178902D02*
Y178185D01*
X207043D01*
Y173472D01*
X212067D01*
Y178185D01*
X220441D01*
Y173478D01*
X225498D01*
X226234Y174215D01*
Y179134D01*
G75*
G02*
X226655Y180147I1430J0D01*
G01*
X228049Y181541D01*
X220441D01*
Y178902D01*
X212067D01*
Y181541D01*
X207043D01*
Y178902D01*
X204643D01*
G37*
X233427Y176966D02*
G36*
X233427Y176966D02*
Y173472D01*
X241962D01*
G75*
G02*
X240998Y175590I1845J2118D01*
G01*
Y175591D01*
Y175591D01*
G75*
G02*
X244504Y178312I2809J0D01*
G01*
X244762Y178569D01*
G75*
G02*
X245776Y178990I1013J-1009D01*
G01*
X257140D01*
Y180065D01*
X236526D01*
X233427Y176966D01*
G37*
X264923Y177309D02*
G36*
X264923Y177309D02*
Y173472D01*
X287258D01*
Y181541D01*
X272754D01*
G75*
G02*
X267616I-2569J1136D01*
G01*
X265514D01*
Y177309D01*
X264923D01*
G37*
X292876Y181541D02*
G36*
X292876Y181541D02*
Y173472D01*
X320197D01*
Y181541D01*
X292876D01*
G37*
X344976D02*
G36*
X344976Y181541D02*
Y173472D01*
X353104D01*
Y181541D01*
X344976D01*
G37*
X357344D02*
G36*
X357344Y181541D02*
Y173472D01*
X370340D01*
Y181541D01*
X357344D01*
G37*
X9793Y185829D02*
G36*
X9793Y185829D02*
Y181541D01*
X32335D01*
Y185829D01*
X9793D01*
G37*
X51339D02*
G36*
X51339Y185829D02*
Y181541D01*
X69443D01*
Y185829D01*
X51339D01*
G37*
X72502Y185363D02*
G36*
X72502Y185363D02*
Y181541D01*
X133202D01*
Y185829D01*
X77541D01*
G75*
G02*
X72502Y185363I-2631J983D01*
G01*
G37*
X139037Y185829D02*
G36*
X139037Y185829D02*
Y181541D01*
X139040D01*
G75*
G02*
X144194Y182829I2798J-242D01*
G01*
X146705D01*
Y184528D01*
X152717D01*
Y181541D01*
X158909D01*
Y185315D01*
X166102D01*
Y181541D01*
X174506D01*
X175077Y182113D01*
G75*
G02*
X176091Y182533I1013J-1009D01*
G01*
X179187D01*
Y183577D01*
X185986D01*
Y181541D01*
X198669D01*
Y183252D01*
X194254D01*
Y182722D01*
X187455D01*
Y185829D01*
X171553D01*
G75*
G02*
X166454I-2549J1180D01*
G01*
X165512D01*
Y185358D01*
X159500D01*
Y185829D01*
X153307D01*
Y184571D01*
X146114D01*
Y185829D01*
X139037D01*
G37*
X207043D02*
G36*
X207043Y185829D02*
Y181541D01*
X212067D01*
Y185829D01*
X207043D01*
G37*
X220441Y183608D02*
G36*
X220441Y183608D02*
Y181541D01*
X228049D01*
X230116Y183608D01*
X220441D01*
G37*
X264923Y185829D02*
G36*
X264923Y185829D02*
Y181746D01*
X265514D01*
Y181541D01*
X267616D01*
G75*
G02*
X267376Y182678I2569J1137D01*
G01*
Y182678D01*
G75*
G02*
X268557Y184967I2808J0D01*
G01*
Y185829D01*
X264923D01*
G37*
X271813D02*
G36*
X271813Y185829D02*
Y184967D01*
G75*
G02*
X272994Y182678I-1627J-2289D01*
G01*
Y182678D01*
G75*
G02*
X272754Y181541I-2809J0D01*
G01*
X287258D01*
Y185829D01*
X271813D01*
G37*
X292876D02*
G36*
X292876Y185829D02*
Y181541D01*
X320197D01*
Y185829D01*
X292876D01*
G37*
X344976D02*
G36*
X344976Y185829D02*
Y181541D01*
X353104D01*
Y185829D01*
X344976D01*
G37*
X357344D02*
G36*
X357344Y185829D02*
Y181541D01*
X370340D01*
Y185829D01*
X357344D01*
G37*
X9793Y188819D02*
G36*
X9793Y188819D02*
Y185829D01*
X32335D01*
Y188819D01*
X9793D01*
G37*
X51339D02*
G36*
X51339Y188819D02*
Y185829D01*
X69443D01*
Y188819D01*
X51339D01*
G37*
X76874D02*
G36*
X76874Y188819D02*
G75*
G02*
X77718Y186811I-1966J-2008D01*
G01*
G75*
G02*
X77541Y185829I-2809J0D01*
G01*
X133202D01*
Y188819D01*
X76874D01*
G37*
X139037D02*
G36*
X139037Y188819D02*
Y185829D01*
X146114D01*
Y188819D01*
X139037D01*
G37*
X153307D02*
G36*
X153307Y188819D02*
Y185829D01*
X159500D01*
Y186752D01*
X159011D01*
G75*
G02*
X157744Y187276I-4J1786D01*
G01*
X156201Y188819D01*
X153307D01*
G37*
X165512Y186752D02*
G36*
X165512Y186752D02*
Y185829D01*
X166454D01*
G75*
G02*
X166206Y186752I2549J1180D01*
G01*
X165512D01*
G37*
X171813Y187008D02*
G36*
X171813Y187008D02*
G75*
G02*
X171553Y185829I-2809J0D01*
G01*
X187455D01*
Y187356D01*
X194254D01*
Y186827D01*
X198669D01*
Y188819D01*
X186577D01*
Y185911D01*
X178596D01*
Y188819D01*
X171151D01*
G75*
G02*
X171813Y187008I-2148J-1811D01*
G01*
G37*
X207043Y188819D02*
G36*
X207043Y188819D02*
Y185829D01*
X212067D01*
Y188819D01*
X207043D01*
G37*
X220441D02*
G36*
X220441Y188819D02*
Y186470D01*
X229828D01*
X231496Y188138D01*
X225311D01*
Y188819D01*
X220441D01*
G37*
X264923Y187742D02*
G36*
X264923Y187742D02*
Y185829D01*
X268557D01*
Y186728D01*
X267543Y187742D01*
X264923D01*
G37*
X271070Y188819D02*
G36*
X271070Y188819D02*
X271336Y188553D01*
G75*
G02*
X271813Y187402I-1154J-1152D01*
G01*
Y185829D01*
X287258D01*
Y188819D01*
X271070D01*
G37*
X292876D02*
G36*
X292876Y188819D02*
Y185829D01*
X320197D01*
Y188819D01*
X292876D01*
G37*
X344976D02*
G36*
X344976Y188819D02*
Y185829D01*
X353104D01*
Y188819D01*
X344976D01*
G37*
X357344D02*
G36*
X357344Y188819D02*
Y185829D01*
X370340D01*
Y187788D01*
G75*
G02*
X365265Y188819I-2321J1582D01*
G01*
X357344D01*
G37*
X9793Y192915D02*
G36*
X9793Y192915D02*
Y188819D01*
X32335D01*
Y192915D01*
X9793D01*
G37*
X51339D02*
G36*
X51339Y192915D02*
Y188819D01*
X69443D01*
Y192915D01*
X51339D01*
G37*
X76482Y189909D02*
G36*
X76482Y189909D02*
Y189139D01*
G75*
G02*
X76874Y188819I-1574J-2328D01*
G01*
X133202D01*
Y192107D01*
G75*
G02*
X133434Y192915I1530J0D01*
G01*
X89769D01*
G75*
G02*
Y192914I-2820J-1D01*
G01*
G75*
G02*
X85134Y190780I-2809J0D01*
G01*
Y189909D01*
X78768D01*
Y192915D01*
X78134D01*
Y189909D01*
X76482D01*
G37*
X139037Y190115D02*
G36*
X139037Y190115D02*
Y188819D01*
X146114D01*
Y192118D01*
X153307D01*
Y188819D01*
X156201D01*
X155929Y189091D01*
G75*
G02*
X155405Y190355I1265J1265D01*
G01*
Y190356D01*
Y190358D01*
Y192915D01*
X144782D01*
G75*
G02*
X144691Y192817I-1172J983D01*
G01*
X142526Y190651D01*
G75*
G02*
X141444Y190203I-1082J1083D01*
G01*
X139125D01*
X139037Y190115D01*
G37*
X158980Y192915D02*
G36*
X158980Y192915D02*
Y191095D01*
X159500Y190575D01*
Y191724D01*
X165512D01*
Y190327D01*
X167469D01*
G75*
G02*
X168735Y189804I2J-1789D01*
G01*
G75*
G02*
X171151Y188819I269J-2796D01*
G01*
X178596D01*
Y191726D01*
X186577D01*
Y188819D01*
X198669D01*
Y191177D01*
X207043D01*
Y188819D01*
X212067D01*
Y191177D01*
X220441D01*
Y188819D01*
X225311D01*
Y192915D01*
X172010D01*
Y190955D01*
X165998D01*
Y192350D01*
X164280D01*
G75*
G02*
X163013Y192876I0J1788D01*
G01*
X162974Y192915D01*
X158980D01*
G37*
X240398D02*
G36*
X240398Y192915D02*
G75*
G02*
X240430Y192883I-1119J-1180D01*
G01*
X242316Y190998D01*
X268215D01*
G75*
G02*
X269368Y190521I2J-1630D01*
G01*
X271070Y188819D01*
X287258D01*
Y192915D01*
X279844D01*
Y191679D01*
X267927D01*
Y192915D01*
X240398D01*
G37*
X292876D02*
G36*
X292876Y192915D02*
Y188819D01*
X320197D01*
Y192915D01*
X292876D01*
G37*
X344976D02*
G36*
X344976Y192915D02*
Y188819D01*
X353104D01*
Y192915D01*
X344976D01*
G37*
X357344D02*
G36*
X357344Y192915D02*
Y188819D01*
X365265D01*
G75*
G02*
X365210Y189370I2754J552D01*
G01*
G75*
G02*
X365899Y191213I2810J0D01*
G01*
Y191583D01*
X361469D01*
Y192173D01*
X358319D01*
Y192915D01*
X357344D01*
G37*
X9793Y201181D02*
G36*
X9793Y201181D02*
Y192915D01*
X32335D01*
Y195331D01*
X51339D01*
Y192915D01*
X69443D01*
Y201181D01*
X9793D01*
G37*
X76482Y196602D02*
G36*
X76482Y196602D02*
Y195921D01*
X78134D01*
Y192915D01*
X78768D01*
Y195921D01*
X85134D01*
Y195048D01*
G75*
G02*
X89769Y192915I1826J-2134D01*
G01*
X133434D01*
G75*
G02*
X133650Y193188I1298J-808D01*
G01*
X134779Y194317D01*
X131256D01*
Y201181D01*
X85724D01*
Y196012D01*
X78177D01*
Y201181D01*
X78134D01*
Y196602D01*
X76482D01*
G37*
X145139Y193898D02*
G36*
X145139Y193898D02*
G75*
G02*
X144782Y192915I-1530J0D01*
G01*
X155405D01*
Y194907D01*
X153201D01*
Y199541D01*
X161280D01*
Y199012D01*
X162724D01*
G75*
G02*
X163991Y198486I0J-1788D01*
G01*
X164754Y197723D01*
G75*
G02*
X165280Y196457I-1262J-1266D01*
G01*
Y195925D01*
X165998D01*
Y197321D01*
X172010D01*
Y192915D01*
X225311D01*
Y195331D01*
X226628D01*
Y201181D01*
X183033D01*
G75*
G02*
X176597Y199652I-3400J0D01*
G01*
X172558D01*
G75*
G02*
X172187Y199608I-362J1487D01*
G01*
X172010D01*
Y197955D01*
X165998D01*
Y199608D01*
X164280D01*
G75*
G02*
X163198Y200056I0J1531D01*
G01*
X162559Y200695D01*
X161280D01*
Y199907D01*
X153201D01*
Y201181D01*
X145139D01*
Y193898D01*
G37*
X158980Y194907D02*
G36*
X158980Y194907D02*
Y192915D01*
X162974D01*
X162230Y193659D01*
G75*
G02*
X161705Y194925I1262J1266D01*
G01*
Y195437D01*
X161280D01*
Y194907D01*
X158980D01*
G37*
X238545Y201181D02*
G36*
X238545Y201181D02*
Y194740D01*
X239268D01*
Y193360D01*
X239277D01*
G75*
G02*
X240398Y192915I2J-1630D01*
G01*
X267927D01*
Y201181D01*
X238545D01*
G37*
X279844D02*
G36*
X279844Y201181D02*
Y192915D01*
X287258D01*
Y198226D01*
X284303Y201181D01*
X279844D01*
G37*
X292876D02*
G36*
X292876Y201181D02*
Y192915D01*
X320197D01*
Y201181D01*
X292876D01*
G37*
X344976D02*
G36*
X344976Y201181D02*
Y192915D01*
X353104D01*
Y201181D01*
X344976D01*
G37*
X357344D02*
G36*
X357344Y201181D02*
Y192915D01*
X358319D01*
Y198776D01*
X359009D01*
Y199607D01*
G75*
G02*
X359457Y200688I1530J0D01*
G01*
X359950Y201181D01*
X357344D01*
G37*
X9793Y208250D02*
G36*
X9793Y208250D02*
Y201181D01*
X69443D01*
Y202123D01*
X63316Y208250D01*
X9793D01*
G37*
X67642D02*
G36*
X67642Y208250D02*
X72054Y203838D01*
G75*
G02*
X72502Y202756I-1082J-1082D01*
G01*
Y202614D01*
X78134D01*
Y201181D01*
X78177D01*
Y203205D01*
X85724D01*
Y201181D01*
X131256D01*
Y208250D01*
X92835D01*
Y204161D01*
X82492D01*
Y208250D01*
X67642D01*
G37*
X145139Y205213D02*
G36*
X145139Y205213D02*
Y201181D01*
X153201D01*
Y204541D01*
X161280D01*
Y203754D01*
X163193D01*
G75*
G02*
X164274Y203306I0J-1531D01*
G01*
X164913Y202667D01*
X165998D01*
Y204321D01*
X172010D01*
Y202693D01*
G75*
G02*
X172250Y202711I231J-1523D01*
G01*
X176597D01*
G75*
G02*
X183033Y201181I3036J-1530D01*
G01*
X226628D01*
Y202959D01*
X211267D01*
G75*
G02*
X210254Y203380I0J1430D01*
G01*
X207781Y205853D01*
X161280D01*
Y204907D01*
X153201D01*
Y205695D01*
X145621D01*
X145139Y205213D01*
G37*
X238545Y202900D02*
G36*
X238545Y202900D02*
Y201181D01*
X267927D01*
Y202022D01*
X279844D01*
Y201181D01*
X284303D01*
X282584Y202900D01*
X238545D01*
G37*
X292876Y208250D02*
G36*
X292876Y208250D02*
Y201181D01*
X320197D01*
Y208250D01*
X292876D01*
G37*
X344976D02*
G36*
X344976Y208250D02*
Y201181D01*
X353104D01*
Y208250D01*
X344976D01*
G37*
X357344D02*
G36*
X357344Y208250D02*
Y201181D01*
X359950D01*
X360245Y201476D01*
G75*
G02*
X361327Y201924I1082J-1083D01*
G01*
X366490D01*
Y202016D01*
X358319D01*
Y208250D01*
X357344D01*
G37*
X9793Y218506D02*
G36*
X9793Y218506D02*
Y208250D01*
X63316D01*
X56953Y214612D01*
X49961D01*
Y208413D01*
X33713D01*
Y214809D01*
X31596D01*
G75*
G02*
X26431Y216339I-2356J1529D01*
G01*
Y216339D01*
G75*
G02*
X27452Y218506I2809J0D01*
G01*
X9793D01*
G37*
X31028D02*
G36*
X31028Y218506D02*
G75*
G02*
X31596Y217869I-1787J-2167D01*
G01*
X33713D01*
Y218506D01*
X31028D01*
G37*
X49961D02*
G36*
X49961Y218506D02*
Y217671D01*
X57586D01*
G75*
G02*
X58668Y217223I0J-1531D01*
G01*
X67642Y208250D01*
X82492D01*
Y212339D01*
X92835D01*
Y208250D01*
X131256D01*
Y215132D01*
X140516D01*
Y214876D01*
G75*
G02*
X143801Y213754I928J-2652D01*
G01*
X153201D01*
Y214541D01*
X161280D01*
Y213734D01*
X207740D01*
X209206Y215200D01*
Y218506D01*
X70827D01*
Y215697D01*
X63634D01*
Y218506D01*
X49961D01*
G37*
X292876D02*
G36*
X292876Y218506D02*
Y208250D01*
X320197D01*
Y218506D01*
X292876D01*
G37*
X344976D02*
G36*
X344976Y218506D02*
Y208250D01*
X353104D01*
Y215402D01*
X348673D01*
Y215992D01*
X345524D01*
Y218506D01*
X344976D01*
G37*
X357344Y215388D02*
G36*
X357344Y215388D02*
Y208250D01*
X358319D01*
Y208618D01*
X359009D01*
Y210626D01*
Y210629D01*
Y210630D01*
G75*
G02*
X359403Y211655I1531J-1D01*
G01*
Y213201D01*
X357925D01*
Y215023D01*
G75*
G02*
X357360Y215372I450J1360D01*
G01*
X357344Y215388D01*
G37*
X9793Y225573D02*
G36*
X9793Y225573D02*
Y218506D01*
X27452D01*
G75*
G02*
X31028I1788J-2167D01*
G01*
X33713D01*
Y224268D01*
X49961D01*
Y218506D01*
X63634D01*
Y221315D01*
X70827D01*
Y218506D01*
X209206D01*
Y221260D01*
G75*
G02*
X209395Y221996I1533J-1D01*
G01*
X204555D01*
Y225573D01*
X204512D01*
Y222587D01*
X198146D01*
Y222979D01*
X196021D01*
G75*
G02*
X193955I-1033J2612D01*
G01*
X191673D01*
Y222173D01*
X183299D01*
Y225573D01*
X77611D01*
G75*
G02*
X77718Y224804I-2701J-770D01*
G01*
Y224804D01*
G75*
G02*
X72553Y223274I-2809J0D01*
G01*
X71996D01*
G75*
G02*
X70968Y222880I-1025J1137D01*
G01*
X70236D01*
Y222193D01*
X64224D01*
Y225573D01*
X9793D01*
G37*
X212102D02*
G36*
X212102Y225573D02*
Y224790D01*
X212410Y225097D01*
G75*
G02*
X213492Y225545I1082J-1083D01*
G01*
X214029D01*
Y225573D01*
X212102D01*
G37*
X291124D02*
G36*
X291124Y225573D02*
X292455Y224242D01*
G75*
G02*
X292876Y223229I-1009J-1013D01*
G01*
Y218506D01*
X320197D01*
Y225573D01*
X291124D01*
G37*
X344976D02*
G36*
X344976Y225573D02*
Y218506D01*
X345524D01*
Y222594D01*
X346214D01*
Y223426D01*
G75*
G02*
X346662Y224507I1530J0D01*
G01*
X347450Y225294D01*
G75*
G02*
X347831Y225573I1083J-1084D01*
G01*
X344976D01*
G37*
X9793Y230315D02*
G36*
X9793Y230315D02*
Y225573D01*
X64224D01*
Y226630D01*
X70236D01*
Y225939D01*
X70341D01*
G75*
G02*
X71370Y226333I1025J-1137D01*
G01*
X72553D01*
G75*
G02*
X77611Y225573I2356J-1529D01*
G01*
X183299D01*
Y228972D01*
X191673D01*
Y228203D01*
X193955D01*
G75*
G02*
X196021I1033J-2612D01*
G01*
X198146D01*
Y228598D01*
X204512D01*
Y225573D01*
X204555D01*
Y229189D01*
X212102D01*
Y225573D01*
X214029D01*
Y229922D01*
G75*
G02*
X214084Y230315I1431J0D01*
G01*
X191561D01*
G75*
G02*
X191050Y230209I-511J1181D01*
G01*
X170684D01*
Y227166D01*
G75*
G02*
X169397Y225879I-1287J0D01*
G01*
X149712D01*
G75*
G02*
X148424Y227166I0J1287D01*
G01*
Y230315D01*
X74569D01*
G75*
G02*
X70034Y228098I-2809J0D01*
G01*
X64224D01*
Y230315D01*
X9793D01*
G37*
X286382D02*
G36*
X286382Y230315D02*
X291124Y225573D01*
X320197D01*
Y230315D01*
X286382D01*
G37*
X344976D02*
G36*
X344976Y230315D02*
Y225573D01*
X347831D01*
G75*
G02*
X348531Y225743I701J-1362D01*
G01*
X353694D01*
Y225835D01*
X345524D01*
Y230315D01*
X344976D01*
G37*
X9793Y234646D02*
G36*
X9793Y234646D02*
Y230315D01*
X64224D01*
Y232535D01*
X70039D01*
G75*
G02*
X74569Y230315I1721J-2220D01*
G01*
X148424D01*
Y234646D01*
X70465D01*
G75*
G02*
X70236Y234244I-3234J1573D01*
G01*
Y234004D01*
X70064D01*
G75*
G02*
X67232Y232624I-2832J2217D01*
G01*
X58137D01*
G75*
G02*
X55461I-1338J3596D01*
G01*
X53106D01*
Y232213D01*
X45531D01*
Y234646D01*
X9793D01*
G37*
X192338Y231497D02*
G36*
X192338Y231497D02*
G75*
G02*
X191561Y230315I-1288J0D01*
G01*
X214084D01*
G75*
G02*
X214450Y230935I1375J-394D01*
G01*
X215234Y231719D01*
G75*
G02*
X216248Y232140I1013J-1009D01*
G01*
X283965D01*
G75*
G02*
X284978Y231719I0J-1430D01*
G01*
X286382Y230315D01*
X320197D01*
Y234646D01*
X238545D01*
Y232230D01*
X226628D01*
Y234646D01*
X212102D01*
Y231051D01*
X204555D01*
Y234646D01*
X204512D01*
Y231642D01*
X198146D01*
Y232034D01*
X196021D01*
G75*
G02*
X193955I-1033J2612D01*
G01*
X192338D01*
Y231497D01*
G37*
X344976Y234646D02*
G36*
X344976Y234646D02*
Y230315D01*
X345524D01*
Y232437D01*
X346214D01*
Y234646D01*
X344976D01*
G37*
X9793Y243683D02*
G36*
X9793Y243683D02*
Y234646D01*
X45531D01*
Y240287D01*
X53106D01*
Y239817D01*
X55461D01*
G75*
G02*
X58137I1338J-3596D01*
G01*
X60139D01*
G75*
G02*
X57927Y242717I794J2899D01*
G01*
G75*
G02*
X58087Y243683I3006J0D01*
G01*
X57536D01*
X56559Y242706D01*
G75*
G02*
X54015Y241652I-2544J2541D01*
G01*
X53106D01*
Y241213D01*
X45531D01*
Y241286D01*
X41051D01*
G75*
G02*
X37392Y243683I-1J3989D01*
G01*
X29003D01*
G75*
G02*
X29096Y242520I-7244J-1164D01*
G01*
G75*
G02*
X14423I-7337J0D01*
G01*
G75*
G02*
X14516Y243683I7337J-1D01*
G01*
X9793D01*
G37*
X69285Y239174D02*
G36*
X69285Y239174D02*
G75*
G02*
X70061Y238441I-2061J-2962D01*
G01*
X70236D01*
Y238198D01*
G75*
G02*
X70828Y236221I-3005J-1977D01*
G01*
G75*
G02*
X70465Y234646I-3597J0D01*
G01*
X148424D01*
Y242127D01*
G75*
G02*
X149712Y243414I1287J0D01*
G01*
X169397D01*
G75*
G02*
X170684Y242127I0J-1287D01*
G01*
Y239083D01*
X191050D01*
G75*
G02*
X192338Y237796I0J-1287D01*
G01*
Y237258D01*
X193955D01*
G75*
G02*
X196021I1033J-2612D01*
G01*
X198146D01*
Y237654D01*
X204512D01*
Y234646D01*
X204555D01*
Y238244D01*
X212102D01*
Y234646D01*
X226628D01*
Y242573D01*
X238545D01*
Y234646D01*
X320197D01*
Y243683D01*
X316265D01*
G75*
G02*
X312293I-1986J1987D01*
G01*
X192264D01*
Y239693D01*
X182709D01*
Y243683D01*
X70828D01*
Y242126D01*
G75*
G02*
X70236Y240149I-3597J0D01*
G01*
Y239909D01*
X70064D01*
G75*
G02*
X69285Y239174I-2824J2209D01*
G01*
G37*
X344976Y235051D02*
G36*
X344976Y235051D02*
Y234646D01*
X346214D01*
Y235051D01*
X344976D01*
G37*
X9793Y252303D02*
G36*
X9793Y252303D02*
Y243683D01*
X14516D01*
G75*
G02*
X29003I7244J-1163D01*
G01*
X37392D01*
G75*
G02*
X37061Y245275I3658J1592D01*
G01*
G75*
G02*
Y245276I5013J0D01*
G01*
G75*
G02*
Y245277I5013J0D01*
G01*
G75*
G02*
X41051Y249266I3990J0D01*
G01*
X45531D01*
Y249287D01*
X52968D01*
X54255Y250574D01*
G75*
G02*
X56799Y251628I2544J-2541D01*
G01*
X65067D01*
G75*
G02*
X67611Y250574I0J-3597D01*
G01*
X69774Y248411D01*
G75*
G02*
X70828Y245867I-2541J-2544D01*
G01*
Y245867D01*
Y243683D01*
X182709D01*
Y247673D01*
X192264D01*
Y243683D01*
X312293D01*
G75*
G02*
X311470Y245670I1986J1987D01*
G01*
Y245670D01*
G75*
G02*
X314697Y248448I2809J0D01*
G01*
X320736Y254487D01*
X92835D01*
Y248295D01*
X82492D01*
Y254487D01*
X11977D01*
X9793Y252303D01*
G37*
X57536Y243683D02*
G36*
X57536Y243683D02*
X58087D01*
G75*
G02*
X58467Y244435I2846J-967D01*
G01*
X58289D01*
X57536Y243683D01*
G37*
X317088Y245670D02*
G36*
X317088Y245670D02*
G75*
G02*
X316265Y243683I-2809J0D01*
G01*
X320197D01*
Y244488D01*
G75*
G02*
X325697Y249988I5500J0D01*
G01*
X339476D01*
G75*
G02*
X344146Y247395I0J-5500D01*
G01*
Y249008D01*
X349757D01*
Y251926D01*
X349276Y252408D01*
X322983D01*
X316988Y246413D01*
G75*
G02*
X317088Y245670I-2719J-744D01*
G01*
G37*
X71715Y97978D02*
Y93351D01*
X74756Y90309D01*
X119150D01*
X115166Y94293D01*
G75*
G02*
X114718Y95374I1081J1081D01*
G01*
Y104091D01*
X113646Y105164D01*
X111315D01*
Y92469D01*
X103768D01*
Y105961D01*
X106353D01*
X102726Y109587D01*
G75*
G02*
X102330Y105744I-2227J-1713D01*
G01*
Y105370D01*
X103724D01*
Y99358D01*
X102287D01*
Y99071D01*
X103724D01*
Y93059D01*
X97358D01*
Y94276D01*
X89476D01*
G75*
G02*
X88210Y94802I0J1787D01*
G01*
X86246Y96766D01*
G75*
G02*
X85721Y97978I1262J1266D01*
G01*
X71715D01*
G36*
X71715Y97978D02*
Y93351D01*
X74756Y90309D01*
X119150D01*
X115166Y94293D01*
G75*
G02*
X114718Y95374I1081J1081D01*
G01*
Y104091D01*
X113646Y105164D01*
X111315D01*
Y92469D01*
X103768D01*
Y105961D01*
X106353D01*
X102726Y109587D01*
G75*
G02*
X102330Y105744I-2227J-1713D01*
G01*
Y105370D01*
X103724D01*
Y99358D01*
X102287D01*
Y99071D01*
X103724D01*
Y93059D01*
X97358D01*
Y94276D01*
X89476D01*
G75*
G02*
X88210Y94802I0J1787D01*
G01*
X86246Y96766D01*
G75*
G02*
X85721Y97978I1262J1266D01*
G01*
X71715D01*
G37*
X73053Y126020D02*
Y120034D01*
X75388D01*
Y126628D01*
X81203D01*
Y118648D01*
X78897D01*
X79928Y117617D01*
G75*
G02*
X80376Y116535I-1081J-1081D01*
G01*
Y107140D01*
X90309D01*
Y110970D01*
X89520D01*
Y117770D01*
X94154D01*
Y110970D01*
X93368D01*
Y107140D01*
X94451D01*
Y97978D01*
X90089D01*
X90217Y97851D01*
X97358D01*
Y99071D01*
X98712D01*
Y99358D01*
X97358D01*
Y105370D01*
X98756D01*
Y105672D01*
G75*
G02*
X102213Y110101I1744J2202D01*
G01*
X102174Y110139D01*
G75*
G02*
X101726Y111221I1081J1081D01*
G01*
Y112712D01*
G75*
G02*
Y118785I1530J3036D01*
G01*
Y124957D01*
X101638Y125046D01*
X98524D01*
Y118648D01*
X92709D01*
Y125046D01*
X90374D01*
Y119238D01*
X85740D01*
Y126037D01*
X86596D01*
G75*
G02*
X86977Y126672I1463J-447D01*
G01*
X87319Y127014D01*
X73811D01*
G75*
G02*
X73053Y126020I-3037J1530D01*
G01*
G36*
X73053Y126020D02*
Y120034D01*
X75388D01*
Y126628D01*
X81203D01*
Y118648D01*
X78897D01*
X79928Y117617D01*
G75*
G02*
X80376Y116535I-1081J-1081D01*
G01*
Y107140D01*
X90309D01*
Y110970D01*
X89520D01*
Y117770D01*
X94154D01*
Y110970D01*
X93368D01*
Y107140D01*
X94451D01*
Y97978D01*
X90089D01*
X90217Y97851D01*
X97358D01*
Y99071D01*
X98712D01*
Y99358D01*
X97358D01*
Y105370D01*
X98756D01*
Y105672D01*
G75*
G02*
X102213Y110101I1744J2202D01*
G01*
X102174Y110139D01*
G75*
G02*
X101726Y111221I1081J1081D01*
G01*
Y112712D01*
G75*
G02*
Y118785I1530J3036D01*
G01*
Y124957D01*
X101638Y125046D01*
X98524D01*
Y118648D01*
X92709D01*
Y125046D01*
X90374D01*
Y119238D01*
X85740D01*
Y126037D01*
X86596D01*
G75*
G02*
X86977Y126672I1463J-447D01*
G01*
X87319Y127014D01*
X73811D01*
G75*
G02*
X73053Y126020I-3037J1530D01*
G01*
G37*
X107584Y77508D02*
Y76827D01*
X109236D01*
Y75324D01*
G75*
G02*
X109280Y75316I-265J-1505D01*
G01*
Y77417D01*
X116827D01*
Y70224D01*
X110887D01*
Y69138D01*
X112998Y67027D01*
G75*
G02*
X113446Y65945I-1081J-1081D01*
G01*
Y61467D01*
X113935Y60979D01*
X156208D01*
G75*
G02*
X157290Y60531I0J-1530D01*
G01*
X167723Y50098D01*
G75*
G02*
X168171Y49016I-1081J-1081D01*
G01*
Y42641D01*
G75*
G02*
X170033Y41106I-1554J-3782D01*
G01*
Y48383D01*
X155378Y63038D01*
X124205D01*
G75*
G02*
X117769Y64567I-3036J1530D01*
G01*
G75*
G02*
X119639Y67604I3400J0D01*
G01*
Y78370D01*
G75*
G02*
X116236Y78194I-1817J2143D01*
G01*
Y77508D01*
X109870D01*
Y83313D01*
X109236D01*
Y77508D01*
X107584D01*
G36*
X107584Y77508D02*
Y76827D01*
X109236D01*
Y75324D01*
G75*
G02*
X109280Y75316I-265J-1505D01*
G01*
Y77417D01*
X116827D01*
Y70224D01*
X110887D01*
Y69138D01*
X112998Y67027D01*
G75*
G02*
X113446Y65945I-1081J-1081D01*
G01*
Y61467D01*
X113935Y60979D01*
X156208D01*
G75*
G02*
X157290Y60531I0J-1530D01*
G01*
X167723Y50098D01*
G75*
G02*
X168171Y49016I-1081J-1081D01*
G01*
Y42641D01*
G75*
G02*
X170033Y41106I-1554J-3782D01*
G01*
Y48383D01*
X155378Y63038D01*
X124205D01*
G75*
G02*
X117769Y64567I-3036J1530D01*
G01*
G75*
G02*
X119639Y67604I3400J0D01*
G01*
Y78370D01*
G75*
G02*
X116236Y78194I-1817J2143D01*
G01*
Y77508D01*
X109870D01*
Y83313D01*
X109236D01*
Y77508D01*
X107584D01*
G37*
X142974Y209868D02*
Y207374D01*
X143906Y208306D01*
G75*
G02*
X144988Y208754I1081J-1081D01*
G01*
X153201D01*
Y209541D01*
X161280D01*
Y208715D01*
X208374D01*
G75*
G02*
X209387Y208294I0J-1431D01*
G01*
X211860Y205821D01*
X215604D01*
Y211077D01*
X216195D01*
Y218024D01*
G75*
G02*
X212265Y218120I-1916J2054D01*
G01*
Y214567D01*
G75*
G02*
X211817Y213485I-1530J0D01*
G01*
X209455Y211123D01*
G75*
G02*
X208373Y210675I-1081J1081D01*
G01*
X161280D01*
Y209907D01*
X153201D01*
Y210695D01*
X143801D01*
G75*
G02*
X142974Y209868I-2357J1530D01*
G01*
G36*
X142974Y209868D02*
Y207374D01*
X143906Y208306D01*
G75*
G02*
X144988Y208754I1081J-1081D01*
G01*
X153201D01*
Y209541D01*
X161280D01*
Y208715D01*
X208374D01*
G75*
G02*
X209387Y208294I0J-1431D01*
G01*
X211860Y205821D01*
X215604D01*
Y211077D01*
X216195D01*
Y218024D01*
G75*
G02*
X212265Y218120I-1916J2054D01*
G01*
Y214567D01*
G75*
G02*
X211817Y213485I-1530J0D01*
G01*
X209455Y211123D01*
G75*
G02*
X208373Y210675I-1081J1081D01*
G01*
X161280D01*
Y209907D01*
X153201D01*
Y210695D01*
X143801D01*
G75*
G02*
X142974Y209868I-2357J1530D01*
G01*
G37*
X178995Y56345D02*
X182093Y53247D01*
G75*
G02*
X182541Y52166I-1081J-1081D01*
G01*
Y41155D01*
G75*
G02*
X190451Y41543I4077J-2296D01*
G01*
G75*
G02*
X190631Y41762I1189J-794D01*
G01*
X199856Y50987D01*
Y54054D01*
G75*
G02*
X194969Y56345I-2112J1852D01*
G01*
X178995D01*
G36*
X178995Y56345D02*
X182093Y53247D01*
G75*
G02*
X182541Y52166I-1081J-1081D01*
G01*
Y41155D01*
G75*
G02*
X190451Y41543I4077J-2296D01*
G01*
G75*
G02*
X190631Y41762I1189J-794D01*
G01*
X199856Y50987D01*
Y54054D01*
G75*
G02*
X194969Y56345I-2112J1852D01*
G01*
X178995D01*
G37*
X191050Y237796D02*
X169397D01*
Y242127D01*
X149712D01*
Y227166D01*
X169397D01*
Y231497D01*
X191050D01*
Y237796D01*
G36*
X191050Y237796D02*
X169397D01*
Y242127D01*
X149712D01*
Y227166D01*
X169397D01*
Y231497D01*
X191050D01*
Y237796D01*
G37*
X213152Y104919D02*
Y102024D01*
G75*
G02*
X214530Y99607I-1431J-2417D01*
G01*
G75*
G02*
X214513Y99305I-2811J-1D01*
G01*
X215825Y100617D01*
G75*
G02*
X216838Y101037I1014J-1010D01*
G01*
X262899D01*
X262990Y101128D01*
X257730D01*
Y108411D01*
X257140D01*
Y111167D01*
X246958D01*
G75*
G02*
X247010Y110630I-2757J-538D01*
G01*
G75*
G02*
X241392I-2809J0D01*
G01*
G75*
G02*
X242931Y113136I2809J0D01*
G01*
X221369D01*
X213152Y104919D01*
G36*
X213152Y104919D02*
Y102024D01*
G75*
G02*
X214530Y99607I-1431J-2417D01*
G01*
G75*
G02*
X214513Y99305I-2811J-1D01*
G01*
X215825Y100617D01*
G75*
G02*
X216838Y101037I1014J-1010D01*
G01*
X262899D01*
X262990Y101128D01*
X257730D01*
Y108411D01*
X257140D01*
Y111167D01*
X246958D01*
G75*
G02*
X247010Y110630I-2757J-538D01*
G01*
G75*
G02*
X241392I-2809J0D01*
G01*
G75*
G02*
X242931Y113136I2809J0D01*
G01*
X221369D01*
X213152Y104919D01*
G37*
X223388Y226522D02*
Y217671D01*
X225309D01*
G75*
G02*
X230474Y216142I2356J-1530D01*
G01*
G75*
G02*
X229899Y214439I-2809J0D01*
G01*
G75*
G02*
X234411Y212205I1703J-2234D01*
G01*
G75*
G02*
X229246Y210675I-2809J0D01*
G01*
X223978D01*
Y205821D01*
X234895D01*
Y226179D01*
X234552Y226522D01*
X223388D01*
G36*
X223388Y226522D02*
Y217671D01*
X225309D01*
G75*
G02*
X230474Y216142I2356J-1530D01*
G01*
G75*
G02*
X229899Y214439I-2809J0D01*
G01*
G75*
G02*
X234411Y212205I1703J-2234D01*
G01*
G75*
G02*
X229246Y210675I-2809J0D01*
G01*
X223978D01*
Y205821D01*
X234895D01*
Y226179D01*
X234552Y226522D01*
X223388D01*
G37*
X344976Y110970D02*
Y106649D01*
G75*
G02*
X348919Y105860I1586J-2319D01*
G01*
X349037D01*
Y110872D01*
X348447D01*
Y111147D01*
G75*
G02*
X344976Y110970I-1884J2830D01*
G01*
G36*
X344976Y110970D02*
Y106649D01*
G75*
G02*
X348919Y105860I1586J-2319D01*
G01*
X349037D01*
Y110872D01*
X348447D01*
Y111147D01*
G75*
G02*
X344976Y110970I-1884J2830D01*
G01*
G37*
X351273Y254737D02*
X352369Y253641D01*
G75*
G02*
X352817Y252559I-1081J-1081D01*
G01*
Y240313D01*
G75*
G02*
X354043Y240703I1226J-1730D01*
G01*
X355940D01*
G75*
G02*
X359697Y240639I1843J-2120D01*
G01*
Y241811D01*
X365506D01*
Y242445D01*
X359697D01*
Y248811D01*
X365709D01*
Y247199D01*
X366247D01*
G75*
G02*
X367329Y246751I0J-1530D01*
G01*
X368117Y245964D01*
G75*
G02*
X368565Y244882I-1081J-1081D01*
G01*
Y235630D01*
G75*
G02*
X368117Y234549I-1530J0D01*
G01*
X366542Y232974D01*
G75*
G02*
X365953Y232607I-1082J1081D01*
G01*
G75*
G02*
X366891Y230512I-1871J-2095D01*
G01*
G75*
G02*
X361665Y229081I-2809J0D01*
G01*
X359754D01*
X359214Y228541D01*
Y227157D01*
X364528D01*
Y226567D01*
X370039D01*
Y224572D01*
G75*
G02*
X370257Y224393I-796J-1189D01*
G01*
X370590Y224060D01*
Y252053D01*
X367906Y254737D01*
X351273D01*
G36*
X351273Y254737D02*
X352369Y253641D01*
G75*
G02*
X352817Y252559I-1081J-1081D01*
G01*
Y240313D01*
G75*
G02*
X354043Y240703I1226J-1730D01*
G01*
X355940D01*
G75*
G02*
X359697Y240639I1843J-2120D01*
G01*
Y241811D01*
X365506D01*
Y242445D01*
X359697D01*
Y248811D01*
X365709D01*
Y247199D01*
X366247D01*
G75*
G02*
X367329Y246751I0J-1530D01*
G01*
X368117Y245964D01*
G75*
G02*
X368565Y244882I-1081J-1081D01*
G01*
Y235630D01*
G75*
G02*
X368117Y234549I-1530J0D01*
G01*
X366542Y232974D01*
G75*
G02*
X365953Y232607I-1082J1081D01*
G01*
G75*
G02*
X366891Y230512I-1871J-2095D01*
G01*
G75*
G02*
X361665Y229081I-2809J0D01*
G01*
X359754D01*
X359214Y228541D01*
Y227157D01*
X364528D01*
Y226567D01*
X370039D01*
Y224572D01*
G75*
G02*
X370257Y224393I-796J-1189D01*
G01*
X370590Y224060D01*
Y252053D01*
X367906Y254737D01*
X351273D01*
G37*
D02*
D121*
X33681Y63386D02*
X33091Y62795D01*
X33681Y88583D02*
X33091Y89173D01*
X157240Y207224D02*
Y207284D01*
X208374D01*
X211267Y204390D01*
X236326D01*
Y204331D01*
X172941Y151689D02*
Y155276D01*
Y177953D01*
X176091Y181102D01*
X182429D01*
X182587Y181260D01*
Y155276D02*
X172941D01*
X215854Y84646D02*
X215460D01*
Y48402D01*
X216618Y47244D01*
Y38859D01*
X216255Y146063D02*
X226091D01*
X231996Y151969D01*
Y177559D01*
X235933Y181496D01*
X261327D01*
X216255Y159055D02*
X227272D01*
X229634Y161417D01*
Y177953D01*
X235146Y183465D01*
X261327D01*
X216255Y172047D02*
X226091D01*
X227665Y173622D01*
Y179134D01*
X233965Y185433D01*
X261327D01*
X236326Y204331D02*
Y226772D01*
X235145Y227953D01*
X219791D01*
X246563Y70516D02*
X249362D01*
X250106Y71260D01*
X283177D01*
X288689Y76772D01*
Y198819D01*
X283177Y204331D01*
X236326D01*
X253256Y67717D02*
X286720D01*
X291445Y72441D01*
Y223229D01*
X283965Y230709D01*
X216248D01*
X215460Y229922D01*
Y224016D01*
X261327Y112598D02*
X246169D01*
X244201Y110630D01*
X261327Y114567D02*
X220776D01*
X211720Y105512D01*
Y99607D01*
X261327Y116535D02*
X219791D01*
X208768Y105512D01*
Y48426D01*
X206618Y46276D01*
Y38859D01*
X261327Y118504D02*
X219004D01*
X206012Y105512D01*
Y48426D01*
X201484Y43898D01*
Y25197D01*
X202665Y24016D01*
X225437D01*
X226618Y25197D01*
Y28859D01*
X261327Y120472D02*
X246563D01*
X245382Y121654D01*
X241445D01*
X261327Y122441D02*
X257685D01*
X254929Y125197D01*
X219004D01*
X203649Y109842D01*
Y48426D01*
X197011Y41787D01*
Y38859D01*
X196618D01*
X261327Y124409D02*
X265461D01*
X266248Y123622D01*
Y102362D01*
X263492Y99606D01*
X216838D01*
X211720Y94488D01*
Y33465D01*
X207114Y28859D01*
X206618D01*
X261327Y126378D02*
X257783D01*
X256995Y127166D01*
X217822D01*
X201287Y110630D01*
Y50394D01*
X191641Y40748D01*
Y34032D01*
X196618Y29056D01*
Y28859D01*
X261327Y173622D02*
X245776D01*
X243807Y175591D01*
X261327D02*
X243807D01*
X261327Y177559D02*
X245776D01*
X243807Y175591D01*
X261327Y187402D02*
X232783D01*
X230421Y185039D01*
X216255D01*
X364082Y230512D02*
X359161D01*
X357783Y229134D01*
Y216973D01*
X358374Y216382D01*
X360933D01*
X367035Y223382D02*
X369244D01*
X370381Y222244D01*
Y212205D01*
X368019Y209843D01*
Y205315D01*
D02*
D124*
X15267Y141733D02*
Y134445D01*
X20579Y129134D01*
X15267Y148819D02*
Y141733D01*
X15354Y52067D02*
Y49705D01*
Y59665D02*
Y62028D01*
Y92303D02*
Y89941D01*
Y99902D02*
Y102264D01*
X18799Y55866D02*
X21161D01*
X18799Y96102D02*
X21161D01*
X20647Y150440D02*
X18429Y152657D01*
X23888Y147199D02*
X26106Y144980D01*
X23888Y150440D02*
X26106Y152657D01*
X26267Y13878D02*
X23906D01*
X26267Y25492D02*
X23906D01*
X27382Y55866D02*
X25020D01*
X27382Y96102D02*
X25020D01*
X29795Y38189D02*
X27433D01*
X29795Y44095D02*
X27433D01*
X30106Y12303D02*
Y9941D01*
Y15453D02*
Y17815D01*
Y23917D02*
Y21555D01*
Y27067D02*
Y29429D01*
X30827Y52067D02*
Y49705D01*
Y99902D02*
Y102264D01*
X31448Y36713D02*
Y34350D01*
Y45571D02*
Y47933D01*
X33091Y71063D02*
X44398D01*
X46759Y68701D01*
Y45473D01*
X45381Y44095D01*
X38448D01*
X33091Y82874D02*
X44791D01*
X48925Y78741D01*
Y41536D01*
X45578Y38189D01*
X38448D01*
X33944Y13878D02*
X36307D01*
X33944Y25492D02*
X36307D01*
X34272Y55866D02*
X36634D01*
X34272Y96102D02*
X36634D01*
X34456Y185827D02*
X32094D01*
X34862Y62795D02*
X37224D01*
X34862Y63976D02*
X37224D01*
X34862Y87992D02*
X37224D01*
X34862Y89173D02*
X37224D01*
X41838Y155315D02*
X62311D01*
X70972Y163977D01*
Y164173D01*
X70972Y164173D01*
Y177166D01*
X41838Y178445D02*
Y176083D01*
Y193209D02*
Y195571D01*
Y216339D02*
X29240D01*
X49220Y185827D02*
X51583D01*
X56110Y102559D02*
X53748D01*
X57193Y99508D02*
Y97146D01*
Y105610D02*
Y107972D01*
X61524Y102559D02*
Y94095D01*
X70776Y84843D01*
X118413D01*
X121169Y82087D01*
Y64567D01*
X64637Y150787D02*
X62276D01*
X65756Y218504D02*
X63394D01*
X66291Y152264D02*
Y154626D01*
X67232Y217815D02*
Y215453D01*
Y219193D02*
Y221555D01*
X68708Y218504D02*
X71071D01*
X69398Y80512D02*
X106055D01*
X69441Y19685D02*
G75*
G03*
X69834Y20079I0J394D01*
G01*
Y26378D02*
G75*
G03*
X69791Y26421I-43J0D01*
G01*
X70775Y128544D02*
Y126969D01*
X70736Y126930D01*
Y122638D01*
X70972Y177166D02*
Y202756D01*
X57587Y216142D01*
X42035D01*
X41838Y216339D01*
X71759Y230315D02*
X67232D01*
X73291Y144094D02*
Y150787D01*
X73098D01*
Y153189D01*
X74322Y154414D01*
Y157083D01*
X74319Y157087D01*
X74516Y102559D02*
Y114370D01*
X74909Y224804D02*
X71366D01*
X70972Y224410D01*
X67232D01*
X74952Y192914D02*
Y186855D01*
X74909Y186811D01*
X74952Y192914D02*
Y199607D01*
X76834Y18602D02*
Y16240D01*
Y21555D02*
Y23917D01*
Y38287D02*
Y35925D01*
Y41240D02*
Y43602D01*
X77364Y123569D02*
X75146Y125787D01*
X78488Y20079D02*
X80850D01*
X78488Y39764D02*
X80850D01*
X78846Y102559D02*
Y116535D01*
X76878Y118504D01*
X44594D01*
X41838Y121260D01*
Y155315D01*
X79227Y121706D02*
X81445Y119488D01*
X79227Y123569D02*
X81445Y125787D01*
X80332Y201227D02*
X78114Y203445D01*
X83177Y61319D02*
Y58957D01*
Y67421D02*
Y69783D01*
X83573Y197986D02*
X85791Y195768D01*
X83573Y201227D02*
X85791Y203445D01*
X84614Y208248D02*
X82252D01*
X84614Y252382D02*
X82252D01*
X87665Y206280D02*
Y203917D01*
Y210217D02*
Y212579D01*
Y250414D02*
Y248051D01*
X88059Y122638D02*
Y125591D01*
X89043Y126575D01*
X102271D01*
X103256Y125591D01*
Y115748D01*
X90716Y208248D02*
X93079D01*
X90716Y252382D02*
X93079D01*
X91839Y61319D02*
Y58957D01*
Y67421D02*
Y69783D01*
Y102559D02*
Y114370D01*
X91838Y114370D01*
X92921Y64370D02*
X95283D01*
X94830Y122638D02*
X92469D01*
X95618Y120768D02*
Y118406D01*
X96405Y122638D02*
X98768D01*
X101287Y71654D02*
Y60827D01*
X108177Y53937D01*
X132878D01*
X136618Y50197D01*
Y38859D01*
X103256Y115748D02*
Y111221D01*
X107783Y106693D01*
X114279D01*
X116248Y104725D01*
Y95374D01*
X137606Y74016D01*
X156405D01*
X172547Y57874D01*
X195775D01*
X197744Y55906D01*
X104633Y68504D02*
Y60827D01*
X109555Y55906D01*
X140122D01*
X146618Y49410D01*
Y38859D01*
X106055Y73819D02*
Y80512D01*
X107543Y94587D02*
Y92224D01*
X108177Y65355D02*
Y60827D01*
X111326Y57678D01*
X148153D01*
X156618Y49213D01*
Y38859D01*
X109196Y96063D02*
X111559D01*
X109196Y102363D02*
X111559D01*
X113055Y72343D02*
Y69980D01*
X114059Y38859D02*
X111696D01*
X114708Y73819D02*
X117071D01*
X116618Y36300D02*
Y33937D01*
Y41418D02*
Y43780D01*
X119177Y38859D02*
X121539D01*
X126090Y69489D02*
Y79922D01*
X119200Y86811D01*
X72154D01*
X65854Y93111D01*
Y102559D01*
X131011Y74410D02*
X133964Y71457D01*
X156011D01*
X171563Y55906D01*
X177271D01*
X181011Y52166D01*
Y23819D01*
X184752Y20079D01*
X252287D01*
X256618Y24410D01*
Y28859D01*
X131011Y74410D02*
Y77756D01*
X119988Y88780D01*
X74122D01*
X70185Y92717D01*
Y102559D01*
X133376Y197224D02*
X131014D01*
X133376Y202224D02*
X131014D01*
X133376Y207224D02*
X131014D01*
X133376Y212224D02*
X131014D01*
X133944Y152119D02*
X131583D01*
X134732Y149609D02*
Y147248D01*
Y154628D02*
Y156992D01*
Y173473D02*
Y192107D01*
X136130Y193504D01*
X139870D01*
X141444Y195079D01*
Y212224D01*
X135886Y213012D02*
Y215374D01*
X139732Y152119D02*
Y143170D01*
X134752Y138189D01*
X139732Y173473D02*
Y169351D01*
X138885Y168504D01*
X131208D01*
X139732Y173473D02*
X139779Y177756D01*
X137507Y180028D01*
Y190748D01*
X138492Y191733D01*
X141444D01*
X143610Y193898D01*
Y205846D01*
X144988Y207224D01*
X157240D01*
X139870Y151981D02*
X139732Y152119D01*
X139870Y162205D02*
Y152256D01*
X139732Y152119D01*
X141838Y181299D02*
X149669D01*
X149712Y181343D01*
X144059Y28859D02*
X141696D01*
X144791Y139567D02*
Y152059D01*
X144732Y152119D01*
X146618Y26300D02*
Y23937D01*
Y31418D02*
Y33780D01*
X146911Y118415D02*
X144693Y116198D01*
X146911Y121656D02*
X144693Y123874D01*
X148092Y186722D02*
X145874Y184505D01*
X148092Y189963D02*
X145874Y192181D01*
X148531Y113036D02*
X156405D01*
Y83071D01*
X153256Y79922D01*
X141838D01*
X148531Y113036D02*
X156602D01*
Y112559D01*
X149177Y28859D02*
X151539D01*
X149732Y173473D02*
Y181323D01*
X149712Y181343D01*
X150152Y118415D02*
X152370Y116197D01*
X150152Y121656D02*
X152370Y123875D01*
X151333Y186722D02*
X153551Y184504D01*
X151333Y189963D02*
X153551Y192182D01*
X154633Y139567D02*
Y145276D01*
X153649Y146260D01*
X150500D01*
X149712Y147048D01*
Y152099D01*
X149732Y152119D01*
X154732Y120119D02*
X152370D01*
X156602Y119331D02*
Y116969D01*
Y120906D02*
Y123268D01*
X157240Y202224D02*
X163193D01*
X164280Y201138D01*
X169004D01*
X157240Y212224D02*
X141444D01*
X160887Y179919D02*
X158669Y177702D01*
X160887Y183160D02*
X158669Y185378D01*
X161523Y76378D02*
X189771D01*
X195185Y81792D01*
Y143307D01*
X193807Y144685D01*
X178452D01*
X178448Y144689D01*
X172941D01*
X164059Y28859D02*
X161696D01*
X164128Y179919D02*
X166346Y177701D01*
X164128Y183160D02*
X166346Y185379D01*
X164870Y116339D02*
X161326D01*
X160736Y116930D01*
Y133071D01*
X161720Y134056D01*
X164598D01*
X164870Y134327D01*
Y134056D01*
X166618Y26300D02*
Y23937D01*
Y31418D02*
Y33780D01*
Y38859D02*
X166641Y38882D01*
Y49016D01*
X156208Y59449D01*
X113301D01*
X111917Y60833D01*
Y65945D01*
X109358Y68504D01*
Y73426D01*
X108964Y73819D01*
X106055D01*
X169004Y201138D02*
X172197D01*
X172240Y201181D01*
X179633D01*
X175303Y52363D02*
X172153D01*
X155027Y69489D01*
X126090D01*
X180717Y162835D02*
X178354D01*
X180717Y188819D02*
X178354D01*
X182587Y162047D02*
Y159685D01*
Y163622D02*
Y165984D01*
Y188031D02*
Y185669D01*
Y189606D02*
Y191969D01*
X184457Y162835D02*
X186819D01*
X184457Y188819D02*
X186819D01*
X184808Y37049D02*
X183138Y35379D01*
X184808Y40668D02*
X183138Y42339D01*
X184828Y243685D02*
X182465D01*
X187485Y241815D02*
Y239453D01*
Y245555D02*
Y247917D01*
X188427Y40668D02*
X190098Y42339D01*
X189279Y134449D02*
X164992D01*
X164870Y134327D01*
X190143Y243685D02*
X192504D01*
X197744Y60237D02*
X172941D01*
X156405Y76772D01*
X137606D01*
X118216Y96162D01*
Y105906D01*
X115460Y108662D01*
X109555D01*
X107193Y111024D01*
Y124804D01*
X103452Y128544D01*
X70775D01*
X206710Y233026D02*
X204491Y230807D01*
X206710Y236267D02*
X204492Y238484D01*
X208330Y224115D02*
Y221752D01*
Y227067D02*
Y229429D01*
X209951Y233026D02*
X212169Y230807D01*
X209951Y236267D02*
X212169Y238484D01*
X209984Y225591D02*
X212346D01*
X214059Y28859D02*
X211696D01*
X215460Y224016D02*
X213491D01*
X210736Y221260D01*
Y214567D01*
X208374Y212205D01*
X157614D01*
X157594Y212224D01*
X157240D01*
X216618Y31418D02*
Y33780D01*
X217724Y208268D02*
X215362D01*
X219177Y28859D02*
X221539D01*
X219791Y212205D02*
X231602D01*
X219791Y216142D02*
X227665D01*
X219791Y224016D02*
X215460D01*
X221858Y208268D02*
X224220D01*
X227433Y191733D02*
X225071D01*
X228748Y198819D02*
X226386D01*
X228748Y237402D02*
X226386D01*
X229086Y190256D02*
Y187894D01*
X232587Y240453D02*
Y242815D01*
X236425Y198819D02*
X238787D01*
X236425Y237402D02*
X238787D01*
X236618Y38859D02*
Y55615D01*
X231996Y60237D01*
X219004D01*
X244059Y28859D02*
X241696D01*
X246563Y70516D02*
Y65355D01*
X246618Y26300D02*
Y23937D01*
Y31418D02*
Y33780D01*
Y38859D02*
X246444D01*
X241641Y34056D01*
X233177D01*
X231602Y35630D01*
Y53150D01*
X228846Y55906D01*
X219004D01*
X249177Y28859D02*
X251539D01*
X249909Y52363D02*
X267822D01*
X271563Y48622D01*
Y34898D01*
X276618Y29843D01*
Y28859D01*
X253256Y67717D02*
Y61811D01*
X259260Y110630D02*
X256898D01*
X259260Y130315D02*
X256898D01*
X259260Y132283D02*
X256898D01*
X259260Y134252D02*
X256898D01*
X259260Y136220D02*
X256898D01*
X259260Y138189D02*
X256898D01*
X259260Y140157D02*
X256898D01*
X259260Y142126D02*
X256898D01*
X259260Y144094D02*
X256898D01*
X259260Y146063D02*
X256898D01*
X259260Y148031D02*
X256898D01*
X259260Y150000D02*
X256898D01*
X259260Y151969D02*
X256898D01*
X259260Y153937D02*
X256898D01*
X259260Y155906D02*
X256898D01*
X259260Y157874D02*
X256898D01*
X259260Y159843D02*
X256898D01*
X259260Y161811D02*
X256898D01*
X259260Y163780D02*
X256898D01*
X259260Y165748D02*
X256898D01*
X259260Y167717D02*
X256898D01*
X259260Y169685D02*
X256898D01*
X259260Y179528D02*
X256898D01*
X263394Y128346D02*
X265756D01*
X263394Y130315D02*
X265756D01*
X263394Y132283D02*
X265756D01*
X263394Y134252D02*
X265756D01*
X263394Y136220D02*
X265756D01*
X263394Y138189D02*
X265756D01*
X263394Y140157D02*
X265756D01*
X263394Y142126D02*
X265756D01*
X263394Y144094D02*
X265756D01*
X263394Y146063D02*
X265756D01*
X263394Y148031D02*
X265756D01*
X263394Y150000D02*
X265756D01*
X263394Y151969D02*
X265756D01*
X263394Y153937D02*
X265756D01*
X263394Y155906D02*
X265756D01*
X263394Y157874D02*
X265756D01*
X263394Y159843D02*
X265756D01*
X263394Y161811D02*
X265756D01*
X263394Y163780D02*
X265756D01*
X263394Y165748D02*
X265756D01*
X263394Y167717D02*
X265756D01*
X263394Y169685D02*
X265756D01*
X263394Y179528D02*
X265756D01*
X264059Y38859D02*
X261696D01*
X264870Y45670D02*
X258767D01*
X256799Y43701D01*
Y39071D01*
X256618Y38890D01*
Y38859D01*
X266618Y28859D02*
Y22835D01*
X261500Y17717D01*
X175500D01*
X171563Y21654D01*
Y49016D01*
X156011Y64567D01*
X121169D01*
X266618Y36300D02*
Y33937D01*
X270047Y196850D02*
X267685D01*
X270283Y95276D02*
X267921D01*
X273886Y193799D02*
Y191437D01*
Y199902D02*
Y202264D01*
X274122Y92224D02*
Y89862D01*
Y98327D02*
Y100689D01*
X277724Y196850D02*
X280087D01*
X277961Y95276D02*
X280323D01*
X284059Y28859D02*
X281696D01*
X286618Y26300D02*
Y23937D01*
Y31418D02*
Y33780D01*
X289177Y28859D02*
X291539D01*
X296618Y38859D02*
X297074D01*
X320185Y53937D02*
Y16930D01*
X319004Y15748D01*
X129374D01*
X126618Y18504D01*
Y28859D01*
X346563Y104331D02*
X352535D01*
X352634Y104232D01*
X346563Y112697D02*
Y110335D01*
Y118898D02*
X352535D01*
X352634Y118996D01*
X347744Y219292D02*
Y223426D01*
X348531Y224213D01*
X354633D01*
X355224Y224804D01*
Y229134D01*
X347744Y238233D02*
X350149D01*
X351287Y239370D01*
Y252559D01*
X349909Y253937D01*
X322350D01*
X314279Y245867D01*
Y245670D01*
X347744Y238233D02*
Y229134D01*
Y246886D02*
Y249248D01*
X349417Y152363D02*
X347055D01*
X350500Y151280D02*
Y148917D01*
Y153445D02*
Y155807D01*
X351189Y56890D02*
X348827D01*
X351484Y217520D02*
Y215157D01*
X351582Y152363D02*
X353945D01*
X351681Y55266D02*
Y52906D01*
Y58514D02*
Y60878D01*
X352173Y56890D02*
X354535D01*
X352634Y99311D02*
X346268D01*
X345382Y98425D01*
Y57874D01*
X341445Y53937D01*
X325090D01*
X322547Y51394D01*
Y15748D01*
X320578Y13780D01*
X119374D01*
X116618Y16536D01*
Y28859D01*
X352634Y109154D02*
X360244D01*
X362311Y107087D01*
Y103150D01*
X354701Y114075D02*
X357063D01*
X355224Y229134D02*
Y233071D01*
X356208Y234056D01*
X365460D01*
X367035Y235630D01*
Y244882D01*
X366248Y245670D01*
X362748D01*
X362704Y245626D01*
X357783Y238583D02*
X362661D01*
X360539Y195473D02*
Y199607D01*
X361326Y200394D01*
X367429D01*
X368019Y200985D01*
Y205315D01*
X360933Y216382D02*
Y211024D01*
X360539Y210630D01*
Y205315D01*
X360933Y225036D02*
Y227398D01*
X362311Y103150D02*
Y103445D01*
X362492Y142957D02*
X362705Y143169D01*
X364279Y193701D02*
Y191339D01*
X367035Y216382D02*
Y213386D01*
X364279Y210630D01*
D02*
D125*
X20578Y73229D03*
X20579Y129134D03*
X22547Y11811D03*
Y27559D03*
X24122Y107874D03*
X26287Y44095D03*
X28059Y141733D03*
Y148819D03*
X29240Y216339D03*
X30028Y32677D03*
Y120079D03*
X30421Y157087D03*
X30815Y196457D03*
X37508Y11811D03*
Y27559D03*
X39870Y59646D03*
X43020Y14173D03*
Y25197D03*
X43216Y96063D03*
X43413Y66536D03*
Y87993D03*
X46838Y144134D03*
X64279Y14173D03*
Y26378D03*
Y33465D03*
Y39764D03*
Y45276D03*
X65067Y110630D03*
X65460Y51969D03*
X69398Y80512D03*
X69791Y14567D03*
X71759Y230315D03*
X74319Y157087D03*
X74909Y186811D03*
Y224804D03*
X76878Y14567D03*
Y25984D03*
Y34252D03*
X77665Y215158D03*
X82193Y122638D03*
X82389Y20079D03*
Y39764D03*
Y45669D03*
Y50788D03*
X82783Y114567D03*
X86960Y192914D03*
Y199607D03*
X88295Y52363D03*
X91838Y57481D03*
X99515Y122638D03*
X100500Y107874D03*
X101287Y71654D03*
X104633Y68504D03*
X106208Y138189D03*
X106405Y155512D03*
Y173622D03*
Y205119D03*
Y244489D03*
X108177Y65355D03*
X113098Y99213D03*
X116641Y47244D03*
X117822Y80512D03*
X118019Y73820D03*
X123728Y10040D03*
X125696Y204725D03*
X131208Y168504D03*
X133374Y117323D03*
X134751Y145276D03*
X139870Y162205D03*
X141444Y212224D03*
X141838Y79922D03*
Y181299D03*
Y188189D03*
X151680Y229135D03*
Y234646D03*
Y240158D03*
X154437Y124804D03*
X154830Y181496D03*
X155224Y222835D03*
X161523Y76378D03*
X165854Y159449D03*
X169004Y187008D03*
X169791Y181103D03*
X173137Y92323D03*
X174122Y188976D03*
X175303Y52363D03*
X178846Y195276D03*
X180028Y169685D03*
X189082Y68111D03*
X189476Y95670D03*
X194988Y225591D03*
Y234646D03*
Y243701D03*
X197744Y55906D03*
Y60237D03*
X200894Y127559D03*
X211720Y99607D03*
X213098Y208268D03*
X213295Y234646D03*
X213492Y242126D03*
X214279Y220079D03*
X215854Y84646D03*
X219004Y55906D03*
Y60237D03*
X223925Y191733D03*
X224516Y152362D03*
Y165748D03*
Y178346D03*
X226090Y92520D03*
X227665Y216142D03*
X230027Y70473D03*
X231602Y212205D03*
X240264Y157874D03*
X241445Y121654D03*
X242626Y46851D03*
X243807Y175591D03*
X244201Y104724D03*
Y110630D03*
Y197244D03*
Y236614D03*
X246563Y65355D03*
X249909Y52363D03*
X253256Y61811D03*
Y81890D03*
X264870Y45670D03*
X270185Y182678D03*
X275500Y10040D03*
X279634Y79134D03*
Y118504D03*
Y157874D03*
Y236614D03*
X283177Y196851D03*
X299712Y54725D03*
X304437Y21260D03*
X314279Y245670D03*
X317035Y79134D03*
Y118504D03*
Y157874D03*
Y197244D03*
Y236614D03*
X320185Y53937D03*
X346563Y104331D03*
Y113977D03*
Y118898D03*
Y158268D03*
Y212993D03*
X357783Y238583D03*
X361917Y172048D03*
X362311Y103150D03*
X363492Y124213D03*
X363885Y38583D03*
X364082Y230512D03*
X364279Y210630D03*
X367232Y251772D03*
X367429Y33858D03*
X368019Y189370D03*
D02*
D126*
X28059Y141733D02*
X22267D01*
X28059Y148819D02*
X22267D01*
X31448Y38189D02*
X27665D01*
X26287Y39567D01*
Y44095D01*
X31448D02*
X26287D01*
X46838Y144134D02*
X66251D01*
X66291Y144094D01*
X49346Y236221D02*
X49319Y236248D01*
X78295Y122638D02*
X82192D01*
X82193Y122638D01*
X81952Y192914D02*
X86960D01*
X81952Y199607D02*
X86960D01*
X87508Y102559D02*
Y98032D01*
X89476Y96063D01*
X100543D01*
X95618Y122638D02*
X99515D01*
X99515Y122638D01*
X100543Y102363D02*
Y107831D01*
X100500Y107874D01*
X100543Y102363D02*
X100500D01*
Y96063D01*
X100543D01*
X107543D02*
X109948D01*
X113098Y99213D01*
X107543Y102363D02*
X109948D01*
X113098Y99213D01*
X113055Y73819D02*
X118019D01*
X118019Y73820D01*
X113055Y80512D02*
X117822D01*
X125697Y202224D02*
Y207224D01*
Y210631D01*
X127271Y212205D01*
X135670D01*
X135689Y212224D01*
X135886D01*
X134732Y152119D02*
Y145295D01*
X134751Y145276D01*
X135886Y197224D02*
X127685D01*
X125697Y199213D01*
Y202224D01*
X135886D02*
X125697D01*
X135886Y207224D02*
X125697D01*
X148531Y120036D02*
X156519D01*
X156602Y120119D01*
X149712Y188343D02*
Y188189D01*
X141838D01*
X156602Y120119D02*
Y122638D01*
X154437Y124804D01*
X157240Y197224D02*
X162724D01*
X163492Y196457D01*
Y194925D01*
X164280Y194138D01*
X169004D01*
X162507Y181540D02*
Y181496D01*
X154830D01*
X162507Y188540D02*
X159007D01*
X157193Y190355D01*
Y197075D01*
X157240Y197123D01*
Y197224D01*
X162507Y188540D02*
X167472D01*
X169004Y187008D01*
X164870Y127327D02*
X174157D01*
X181208Y120276D01*
Y109843D01*
X184161Y106890D01*
X189279D01*
X168610Y186418D02*
X169004D01*
Y187008D01*
X169004Y187009D02*
X169004Y187008D01*
X182587Y162835D02*
Y167126D01*
X180028Y169685D01*
X182587Y188819D02*
X174280D01*
X174122Y188976D01*
X187502Y225591D02*
X187485Y225574D01*
X187502Y234646D02*
X187485Y234630D01*
X187502Y243701D02*
X187485Y243685D01*
X189476Y95670D02*
Y106693D01*
X189279Y106890D01*
X190854Y159055D02*
X202855D01*
X190854Y185039D02*
X202855D01*
Y159055D02*
Y146063D01*
Y172047D02*
Y185039D01*
X208330Y225591D02*
X212114D01*
X213295Y226772D01*
Y234646D01*
X208330D02*
X213295D01*
X219791Y208268D02*
X213098D01*
X219791Y220079D02*
X214279D01*
X229086Y191733D02*
X223925D01*
X246563Y77516D02*
Y81496D01*
X246957Y81890D01*
X253256D01*
Y74717D02*
Y81890D01*
X350500Y152363D02*
Y154331D01*
X346563Y158268D01*
X352634Y94390D02*
X348827D01*
X347744Y93307D01*
Y75591D01*
X351681Y71654D01*
Y65945D01*
X352634Y114075D02*
X346661D01*
X346563Y113977D01*
X352634Y123917D02*
Y127787D01*
X350500Y129922D01*
Y143701D01*
X362661Y238583D02*
X362704Y238626D01*
X362705Y143169D02*
X350755D01*
X350500Y143701D01*
X363886Y58406D02*
Y64370D01*
X362311Y65945D01*
X351681D01*
D02*
D127*
X41051Y245276D03*
X56799Y236221D03*
D02*
D128*
X351484Y229134D02*
Y234252D01*
X352862Y235630D01*
Y237402D01*
X354043Y238583D01*
X357783D01*
X355224Y219292D02*
Y168701D01*
X362704Y161221D01*
Y156437D01*
X362705Y156437D01*
Y156043D01*
X363885Y38583D02*
Y45531D01*
X363886Y45531D01*
X364279Y210630D02*
Y205315D01*
X368019Y195473D02*
Y189370D01*
D02*
D129*
X116618Y28859D03*
Y38859D03*
X126618Y28859D03*
Y38859D03*
X136618Y28859D03*
Y38859D03*
X146618Y28859D03*
Y38859D03*
X156618Y28859D03*
Y38859D03*
X166618Y28859D03*
Y38859D03*
X176618Y28859D03*
Y38859D03*
X186618Y28859D03*
Y38859D03*
X196618Y28859D03*
Y38859D03*
X206618Y28859D03*
Y38859D03*
X216618Y28859D03*
Y38859D03*
X226618Y28859D03*
Y38859D03*
X236618Y28859D03*
Y38859D03*
X246618Y28859D03*
Y38859D03*
X256618Y28859D03*
Y38859D03*
X266618Y28859D03*
Y38859D03*
X276618Y28859D03*
Y38859D03*
X286618Y28859D03*
Y38859D03*
X296618Y28859D03*
Y38859D03*
X306618Y28859D03*
Y38859D03*
D02*
D136*
X41051Y245276D02*
X49346D01*
X49319Y245248D01*
D02*
D139*
X54015D01*
X56799Y248032D01*
X65067D01*
X67232Y245867D01*
Y242126D01*
X56799Y236221D02*
X49346D01*
X67232D02*
X56799D01*
D02*
D140*
X77665Y215158D02*
X74319Y218504D01*
X67232D01*
X162289Y234630D02*
X187485D01*
X194988Y243701D02*
X187502D01*
X201330Y225591D02*
X187502D01*
X201330Y234646D02*
X187502D01*
D02*
D141*
X32586Y85433D02*
X40743D01*
X43302Y87993D01*
X33091Y66536D02*
X43413D01*
X36110Y19685D02*
X69441D01*
X39870Y59646D02*
X36130Y63386D01*
X33681D01*
X43216Y96063D02*
X39083Y91930D01*
Y89764D01*
X37902Y88583D01*
X33681D01*
X69791Y33421D02*
Y48031D01*
G75*
G02*
X77271Y55512I7480J0D01*
G01*
X81996D01*
G75*
G03*
X87508Y61024I0J5512D01*
G01*
Y64370D01*
X69834Y20079D02*
Y26378D01*
X87508Y63780D02*
Y64370D01*
D02*
D142*
X261327Y189370D02*
Y189370D01*
X241641D01*
X239279Y191733D01*
X236086D01*
X261327Y189370D02*
X268217D01*
X270185Y187402D01*
Y182678D01*
D02*
D143*
X53649Y34689D02*
Y26729D01*
X74516Y64370D02*
Y69292D01*
X72350Y71457D01*
X56011D01*
X53649Y69095D01*
Y41689D01*
D02*
D144*
X57193Y64370D03*
Y102559D03*
X61524Y64370D03*
Y102559D03*
X65854Y64370D03*
Y102559D03*
X70185Y64370D03*
Y102559D03*
X74516Y64370D03*
Y102559D03*
X78846Y64370D03*
Y102559D03*
X83177Y64370D03*
Y102559D03*
X87508Y64370D03*
Y102559D03*
X91839Y64370D03*
Y102559D03*
D02*
D145*
X70775Y128544D03*
X103256Y115748D03*
X121169Y64567D03*
X126090Y69489D03*
X131011Y74410D03*
X134752Y138189D03*
X179633Y201181D03*
D02*
D146*
X70736Y122638D03*
X74516Y114370D03*
X78295Y122638D03*
X88059D03*
X91838Y114370D03*
X95618Y122638D03*
D02*
D147*
X15267Y141733D03*
Y148819D03*
X22267Y141733D03*
Y148819D03*
X31448Y38189D03*
Y44095D03*
X38448Y38189D03*
Y44095D03*
X66291Y144094D03*
Y150787D03*
X69834Y20079D03*
Y39764D03*
X73291Y144094D03*
Y150787D03*
X74952Y192914D03*
Y199607D03*
X76834Y20079D03*
Y39764D03*
X81952Y192914D03*
Y199607D03*
X100543Y96063D03*
Y102363D03*
X106055Y73819D03*
Y80512D03*
X107543Y96063D03*
Y102363D03*
X113055Y73819D03*
Y80512D03*
X201330Y225591D03*
Y234646D03*
X208330Y225591D03*
Y234646D03*
X229086Y191733D03*
X236086D03*
D02*
D148*
X53649Y19729D03*
Y26729D03*
Y34689D03*
Y41689D03*
X69791Y26421D03*
Y33421D03*
X148531Y113036D03*
Y120036D03*
X149712Y181343D03*
Y188343D03*
X162507Y181540D03*
Y188540D03*
X164870Y127327D03*
Y134327D03*
X169004Y194138D03*
Y201138D03*
X172941Y144689D03*
Y151689D03*
X246563Y70516D03*
Y77516D03*
X253256Y67717D03*
Y74717D03*
X347744Y238233D03*
Y245233D03*
X360933Y216382D03*
Y223382D03*
X362704Y238626D03*
Y245626D03*
X367035Y216382D03*
Y223382D03*
D02*
D149*
X30106Y13878D03*
Y25492D03*
D02*
D151*
X36110Y19685D03*
D02*
D152*
X219791Y208268D03*
Y212205D03*
Y216142D03*
Y220079D03*
Y224016D03*
Y227953D03*
D02*
D153*
X232587Y198819D03*
Y237402D03*
X273886Y196850D03*
X274122Y95276D03*
D02*
D154*
X261327Y102756D03*
Y104724D03*
Y106693D03*
Y108661D03*
Y110630D03*
Y112598D03*
Y114567D03*
Y116535D03*
Y118504D03*
Y120472D03*
Y122441D03*
Y124409D03*
Y126378D03*
Y128346D03*
Y130315D03*
Y132283D03*
Y134252D03*
Y136220D03*
Y138189D03*
Y140157D03*
Y142126D03*
Y144094D03*
Y146063D03*
Y148031D03*
Y150000D03*
Y151969D03*
Y153937D03*
Y155906D03*
Y157874D03*
Y159843D03*
Y161811D03*
Y163780D03*
Y165748D03*
Y167717D03*
Y169685D03*
Y171654D03*
Y173622D03*
Y175591D03*
Y177559D03*
Y179528D03*
Y181496D03*
Y183465D03*
Y185433D03*
Y187402D03*
Y189370D03*
D02*
D155*
X202855Y146063D03*
Y159055D03*
Y172047D03*
Y185039D03*
X216255Y146063D03*
Y159055D03*
Y172047D03*
Y185039D03*
D02*
D156*
X156602Y112559D03*
Y120119D03*
X164870Y116339D03*
X182587Y155276D03*
Y162835D03*
Y181260D03*
Y188819D03*
X190854Y159055D03*
Y185039D03*
D02*
D157*
X134732Y152119D03*
Y173473D03*
X139732Y152119D03*
Y173473D03*
X144732Y152119D03*
Y173473D03*
X149732Y152119D03*
Y173473D03*
D02*
D158*
X144791Y139567D03*
X154633D03*
D02*
D159*
X352634Y89469D03*
Y94390D03*
Y99311D03*
Y104232D03*
Y109154D03*
Y114075D03*
Y118996D03*
Y123917D03*
D02*
D160*
X363461Y79429D03*
Y133957D03*
D02*
D161*
X135886Y197224D03*
Y202224D03*
Y207224D03*
Y212224D03*
X157240Y197224D03*
Y202224D03*
Y207224D03*
Y212224D03*
D02*
D162*
X33091Y62795D03*
Y63976D03*
Y65945D03*
Y67126D03*
Y69094D03*
Y71063D03*
Y73031D03*
Y75000D03*
Y76969D03*
Y78937D03*
Y80906D03*
Y82874D03*
Y84843D03*
Y86024D03*
Y87992D03*
Y89173D03*
D02*
D163*
X15354Y55866D03*
Y96102D03*
X30827Y55866D03*
Y96102D03*
D02*
D164*
X187485Y225574D03*
Y234630D03*
Y243685D03*
D02*
D165*
X162289Y234630D03*
D02*
D166*
X362705Y143169D03*
Y156043D03*
X363886Y45531D03*
Y58406D03*
D02*
D167*
X350500Y143701D03*
Y152363D03*
D02*
D168*
X351681Y56890D03*
Y65945D03*
D02*
D169*
X41838Y155315D03*
Y216339D03*
D02*
D170*
Y185827D03*
D02*
D171*
X189279Y106890D03*
Y134449D03*
D02*
D172*
X347744Y219292D03*
Y229134D03*
X351484Y219292D03*
Y229134D03*
X355224Y219292D03*
Y229134D03*
X360539Y195473D03*
Y205315D03*
X364279Y195473D03*
Y205315D03*
X368019Y195473D03*
Y205315D03*
D02*
D173*
X67232Y218504D03*
Y224410D03*
Y230315D03*
Y236221D03*
Y242126D03*
D02*
D174*
X87665Y208248D03*
Y252382D03*
D02*
D175*
X49319Y236248D03*
Y245248D03*
X0Y0D02*
M02*
