G04 DesignSpark PCB PRO Gerber Version 10.0 Build 5299*
G04 #@! TF.Part,Single*
G04 #@! TF.FileFunction,Copper,L3,Inr*
G04 #@! TF.FilePolarity,Positive*
%FSLAX35Y35*%
%MOIN*%
%ADD119C,0.00500*%
%ADD124C,0.00984*%
G04 #@! TA.AperFunction,ViaPad*
%ADD125C,0.03543*%
%ADD127C,0.05600*%
G04 #@! TA.AperFunction,ComponentPad*
%ADD129C,0.06102*%
G04 #@! TD.AperFunction*
X0Y0D02*
D02*
D119*
X9543Y252053D02*
Y8578D01*
X12227Y5894D01*
X367906D01*
X370590Y8578D01*
Y188239D01*
G75*
G02*
X365210Y189370I-2571J1132D01*
G01*
G75*
G02*
X370590Y190502I2809J0D01*
G01*
Y252053D01*
X367906Y254737D01*
X12227D01*
X9543Y252053D01*
X14423Y242520D02*
G75*
G02*
X29096I7337J0D01*
G01*
G75*
G02*
X14423I-7337J0D01*
G01*
X17770Y129134D02*
G75*
G02*
X23388I2809J0D01*
G01*
G75*
G02*
X17770I-2809J0D01*
G01*
X25250Y141733D02*
G75*
G02*
X30868I2809J0D01*
G01*
G75*
G02*
X25250I-2809J0D01*
G01*
X26541Y64606D02*
G75*
G02*
X31175I2317J0D01*
G01*
G75*
G02*
X26541I-2317J0D01*
G01*
Y87362D02*
G75*
G02*
X31175I2317J0D01*
G01*
G75*
G02*
X26541I-2317J0D01*
G01*
X26431Y216339D02*
G75*
G02*
X32049I2809J0D01*
G01*
G75*
G02*
X26431I-2809J0D01*
G01*
X37213Y245276D02*
G75*
G02*
X44888I3837J0D01*
G01*
G75*
G02*
X37213I-3837J0D01*
G01*
X40604Y66536D02*
G75*
G02*
X46222I2809J0D01*
G01*
G75*
G02*
X40604I-2809J0D01*
G01*
Y87993D02*
G75*
G02*
X46222I2809J0D01*
G01*
G75*
G02*
X40604I-2809J0D01*
G01*
X44029Y144134D02*
G75*
G02*
X49647I2809J0D01*
G01*
G75*
G02*
X44029I-2809J0D01*
G01*
X52961Y236221D02*
G75*
G02*
X60636I3837J0D01*
G01*
G75*
G02*
X52961I-3837J0D01*
G01*
X57927Y49409D02*
G75*
G02*
X63939I3006J0D01*
G01*
G75*
G02*
X57927I-3006J0D01*
G01*
X57927Y242717D02*
G75*
G02*
X63939I3006J0D01*
G01*
G75*
G02*
X57927I-3006J0D01*
G01*
X66589Y80512D02*
G75*
G02*
X72207I2809J0D01*
G01*
G75*
G02*
X66589I-2809J0D01*
G01*
X68950Y230315D02*
G75*
G02*
X74569I2809J0D01*
G01*
G75*
G02*
X68950I-2809J0D01*
G01*
X71509Y157087D02*
G75*
G02*
X77128I2809J0D01*
G01*
G75*
G02*
X71509I-2809J0D01*
G01*
X72100Y186811D02*
G75*
G02*
X77718I2809J0D01*
G01*
G75*
G02*
X72100I-2809J0D01*
G01*
Y224804D02*
G75*
G02*
X77718I2809J0D01*
G01*
G75*
G02*
X72100I-2809J0D01*
G01*
X84151Y192914D02*
G75*
G02*
X89769I2809J0D01*
G01*
G75*
G02*
X84151I-2809J0D01*
G01*
X97691Y107874D02*
G75*
G02*
X103309I2809J0D01*
G01*
G75*
G02*
X97691I-2809J0D01*
G01*
X107407Y68056D02*
G75*
G02*
X110986Y65355I770J-2702D01*
G01*
G75*
G02*
X105368I-2809J0D01*
G01*
G75*
G02*
X105404Y65803I2808J1D01*
G01*
G75*
G02*
X101853Y68902I-770J2701D01*
G01*
G75*
G02*
X98478Y71654I-566J2752D01*
G01*
G75*
G02*
X104096I2809J0D01*
G01*
G75*
G02*
X104068Y71256I-2809J0D01*
G01*
G75*
G02*
X107443Y68504I566J-2752D01*
G01*
G75*
G02*
X107407Y68056I-2808J-1D01*
G01*
X111939Y38859D02*
G75*
G02*
X121297I4679J0D01*
G01*
G75*
G02*
X111939I-4679J0D01*
G01*
X112529Y28859D02*
G75*
G02*
X120706I4089J0D01*
G01*
G75*
G02*
X112529I-4089J0D01*
G01*
X115013Y80512D02*
G75*
G02*
X120631I2809J0D01*
G01*
G75*
G02*
X115013I-2809J0D01*
G01*
X122529Y28859D02*
G75*
G02*
X130706I4089J0D01*
G01*
G75*
G02*
X122529I-4089J0D01*
G01*
Y38859D02*
G75*
G02*
X130706I4089J0D01*
G01*
G75*
G02*
X122529I-4089J0D01*
G01*
X128399Y168504D02*
G75*
G02*
X134017I2809J0D01*
G01*
G75*
G02*
X128399I-2809J0D01*
G01*
X132529Y28859D02*
G75*
G02*
X140706I4089J0D01*
G01*
G75*
G02*
X132529I-4089J0D01*
G01*
Y38859D02*
G75*
G02*
X140706I4089J0D01*
G01*
G75*
G02*
X132529I-4089J0D01*
G01*
X137061Y162205D02*
G75*
G02*
X142679I2809J0D01*
G01*
G75*
G02*
X137061I-2809J0D01*
G01*
X139029Y79922D02*
G75*
G02*
X144647I2809J0D01*
G01*
G75*
G02*
X139029I-2809J0D01*
G01*
X141939Y28859D02*
G75*
G02*
X151297I4679J0D01*
G01*
G75*
G02*
X141939I-4679J0D01*
G01*
X142529Y38859D02*
G75*
G02*
X150706I4089J0D01*
G01*
G75*
G02*
X142529I-4089J0D01*
G01*
X138635Y212224D02*
G75*
G02*
X144254I2809J0D01*
G01*
G75*
G02*
X138635I-2809J0D01*
G01*
X141838Y184108D02*
G75*
G02*
X144647Y181299I0J-2809D01*
G01*
G75*
G02*
X141838Y178490I-2809J0D01*
G01*
G75*
G02*
X139029Y181299I0J2809D01*
G01*
G75*
G02*
X141838Y184108I2809J0D01*
G01*
X148871Y240158D02*
G75*
G02*
X154489I2809J0D01*
G01*
G75*
G02*
X152224Y237402I-2809J0D01*
G01*
G75*
G02*
Y231891I-544J-2756D01*
G01*
G75*
G02*
X154489Y229135I-544J-2756D01*
G01*
G75*
G02*
X148871I-2809J0D01*
G01*
G75*
G02*
X151137Y231891I2809J0D01*
G01*
G75*
G02*
Y237402I544J2756D01*
G01*
G75*
G02*
X148871Y240158I544J2756D01*
G01*
X152529Y28859D02*
G75*
G02*
X160706I4089J0D01*
G01*
G75*
G02*
X152529I-4089J0D01*
G01*
Y38859D02*
G75*
G02*
X160706I4089J0D01*
G01*
G75*
G02*
X152529I-4089J0D01*
G01*
X158714Y76378D02*
G75*
G02*
X164332I2809J0D01*
G01*
G75*
G02*
X158714I-2809J0D01*
G01*
X161939Y28859D02*
G75*
G02*
X171297I4679J0D01*
G01*
G75*
G02*
X161939I-4679J0D01*
G01*
X162529Y38859D02*
G75*
G02*
X170706I4089J0D01*
G01*
G75*
G02*
X162529I-4089J0D01*
G01*
X166194Y187008D02*
G75*
G02*
X171813I2809J0D01*
G01*
G75*
G02*
X166194I-2809J0D01*
G01*
X172494Y52363D02*
G75*
G02*
X178112I2809J0D01*
G01*
G75*
G02*
X172494I-2809J0D01*
G01*
X172529Y28859D02*
G75*
G02*
X180706I4089J0D01*
G01*
G75*
G02*
X172529I-4089J0D01*
G01*
Y38859D02*
G75*
G02*
X180706I4089J0D01*
G01*
G75*
G02*
X172529I-4089J0D01*
G01*
X181939D02*
G75*
G02*
X191297I4679J0D01*
G01*
G75*
G02*
X181939I-4679J0D01*
G01*
X182529Y28859D02*
G75*
G02*
X190706I4089J0D01*
G01*
G75*
G02*
X182529I-4089J0D01*
G01*
X186667Y95670D02*
G75*
G02*
X192285I2809J0D01*
G01*
G75*
G02*
X186667I-2809J0D01*
G01*
X192179Y225591D02*
G75*
G02*
X197797I2809J0D01*
G01*
G75*
G02*
X192179I-2809J0D01*
G01*
X192529Y28859D02*
G75*
G02*
X200706I4089J0D01*
G01*
G75*
G02*
X192529I-4089J0D01*
G01*
Y38859D02*
G75*
G02*
X200706I4089J0D01*
G01*
G75*
G02*
X192529I-4089J0D01*
G01*
X194935Y60237D02*
G75*
G02*
X200553I2809J0D01*
G01*
G75*
G02*
X199533Y58071I-2809J0D01*
G01*
G75*
G02*
X200553Y55906I-1789J-2165D01*
G01*
G75*
G02*
X194935I-2809J0D01*
G01*
G75*
G02*
X195954Y58071I2809J0D01*
G01*
G75*
G02*
X194935Y60237I1789J2165D01*
G01*
X192179Y234646D02*
G75*
G02*
X197797I2809J0D01*
G01*
G75*
G02*
X192179I-2809J0D01*
G01*
X202529Y28859D02*
G75*
G02*
X210706I4089J0D01*
G01*
G75*
G02*
X202529I-4089J0D01*
G01*
Y38859D02*
G75*
G02*
X210706I4089J0D01*
G01*
G75*
G02*
X202529I-4089J0D01*
G01*
X208911Y99607D02*
G75*
G02*
X214530I2809J0D01*
G01*
G75*
G02*
X208911I-2809J0D01*
G01*
X211939Y28859D02*
G75*
G02*
X221297I4679J0D01*
G01*
G75*
G02*
X211939I-4679J0D01*
G01*
X212529Y38859D02*
G75*
G02*
X220706I4089J0D01*
G01*
G75*
G02*
X212529I-4089J0D01*
G01*
X213045Y84646D02*
G75*
G02*
X218663I2809J0D01*
G01*
G75*
G02*
X213045I-2809J0D01*
G01*
X216194Y60237D02*
G75*
G02*
X221813I2809J0D01*
G01*
G75*
G02*
X220793Y58071I-2809J0D01*
G01*
G75*
G02*
X221813Y55906I-1789J-2165D01*
G01*
G75*
G02*
X216194I-2809J0D01*
G01*
G75*
G02*
X217214Y58071I2809J0D01*
G01*
G75*
G02*
X216194Y60237I1789J2165D01*
G01*
X211470Y220079D02*
G75*
G02*
X217088I2809J0D01*
G01*
G75*
G02*
X211470I-2809J0D01*
G01*
X222529Y28859D02*
G75*
G02*
X230706I4089J0D01*
G01*
G75*
G02*
X222529I-4089J0D01*
G01*
Y38859D02*
G75*
G02*
X230706I4089J0D01*
G01*
G75*
G02*
X222529I-4089J0D01*
G01*
X229899Y214439D02*
G75*
G02*
X234411Y212205I1703J-2234D01*
G01*
G75*
G02*
X228793I-2809J0D01*
G01*
G75*
G02*
X229368Y213908I2809J0D01*
G01*
G75*
G02*
X224856Y216142I-1703J2234D01*
G01*
G75*
G02*
X230474I2809J0D01*
G01*
G75*
G02*
X229899Y214439I-2809J0D01*
G01*
X232529Y28859D02*
G75*
G02*
X240706I4089J0D01*
G01*
G75*
G02*
X232529I-4089J0D01*
G01*
Y38859D02*
G75*
G02*
X240706I4089J0D01*
G01*
G75*
G02*
X232529I-4089J0D01*
G01*
X238636Y121654D02*
G75*
G02*
X244254I2809J0D01*
G01*
G75*
G02*
X238636I-2809J0D01*
G01*
X241392Y110630D02*
G75*
G02*
X247010I2809J0D01*
G01*
G75*
G02*
X241392I-2809J0D01*
G01*
X241939Y28859D02*
G75*
G02*
X251297I4679J0D01*
G01*
G75*
G02*
X241939I-4679J0D01*
G01*
X242529Y38859D02*
G75*
G02*
X250706I4089J0D01*
G01*
G75*
G02*
X242529I-4089J0D01*
G01*
X243754Y65355D02*
G75*
G02*
X249372I2809J0D01*
G01*
G75*
G02*
X243754I-2809J0D01*
G01*
X247100Y52363D02*
G75*
G02*
X252718I2809J0D01*
G01*
G75*
G02*
X247100I-2809J0D01*
G01*
X252529Y28859D02*
G75*
G02*
X260706I4089J0D01*
G01*
G75*
G02*
X252529I-4089J0D01*
G01*
Y38859D02*
G75*
G02*
X260706I4089J0D01*
G01*
G75*
G02*
X252529I-4089J0D01*
G01*
X240998Y175591D02*
G75*
G02*
X246616I2809J0D01*
G01*
G75*
G02*
X240998I-2809J0D01*
G01*
X250447Y61811D02*
G75*
G02*
X256065I2809J0D01*
G01*
G75*
G02*
X250447I-2809J0D01*
G01*
Y81890D02*
G75*
G02*
X256065I2809J0D01*
G01*
G75*
G02*
X250447I-2809J0D01*
G01*
X266698Y43537D02*
G75*
G02*
X271297Y38859I-80J-4678D01*
G01*
G75*
G02*
X261939I-4679J0D01*
G01*
G75*
G02*
X264294Y42920I4679J0D01*
G01*
G75*
G02*
X262061Y45670I575J2750D01*
G01*
G75*
G02*
X267679I2809J0D01*
G01*
G75*
G02*
X266698Y43537I-2809J0D01*
G01*
X262529Y28859D02*
G75*
G02*
X270706I4089J0D01*
G01*
G75*
G02*
X262529I-4089J0D01*
G01*
X267376Y182678D02*
G75*
G02*
X272994I2809J0D01*
G01*
G75*
G02*
X267376I-2809J0D01*
G01*
X272529Y28859D02*
G75*
G02*
X280706I4089J0D01*
G01*
G75*
G02*
X272529I-4089J0D01*
G01*
Y38859D02*
G75*
G02*
X280706I4089J0D01*
G01*
G75*
G02*
X272529I-4089J0D01*
G01*
X281939Y28859D02*
G75*
G02*
X291297I4679J0D01*
G01*
G75*
G02*
X281939I-4679J0D01*
G01*
X282529Y38859D02*
G75*
G02*
X290706I4089J0D01*
G01*
G75*
G02*
X282529I-4089J0D01*
G01*
X292529Y28859D02*
G75*
G02*
X300706I4089J0D01*
G01*
G75*
G02*
X292529I-4089J0D01*
G01*
Y38859D02*
G75*
G02*
X300706I4089J0D01*
G01*
G75*
G02*
X292529I-4089J0D01*
G01*
X302529Y28859D02*
G75*
G02*
X310706I4089J0D01*
G01*
G75*
G02*
X302529I-4089J0D01*
G01*
Y38859D02*
G75*
G02*
X310706I4089J0D01*
G01*
G75*
G02*
X302529I-4089J0D01*
G01*
X311470Y245670D02*
G75*
G02*
X317088I2809J0D01*
G01*
G75*
G02*
X311470I-2809J0D01*
G01*
X317376Y53937D02*
G75*
G02*
X322994I2809J0D01*
G01*
G75*
G02*
X317376I-2809J0D01*
G01*
X348442Y116810D02*
G75*
G02*
X344976Y110970I-1879J-2833D01*
G01*
Y106649D01*
G75*
G02*
X349372Y104331I1586J-2319D01*
G01*
G75*
G02*
X344976Y102012I-2809J0D01*
G01*
Y60236D01*
G75*
G02*
X339476Y54736I-5500J0D01*
G01*
X325697D01*
G75*
G02*
X320197Y60236I0J5500D01*
G01*
Y244488D01*
G75*
G02*
X325697Y249988I5500J0D01*
G01*
X339476D01*
G75*
G02*
X344976Y244488I0J-5500D01*
G01*
Y121216D01*
G75*
G02*
X348442Y116810I1586J-2319D01*
G01*
X326825Y49409D02*
G75*
G02*
X332837I3006J0D01*
G01*
G75*
G02*
X326825I-3006J0D01*
G01*
X332140Y18110D02*
G75*
G02*
X346813I7337J0D01*
G01*
G75*
G02*
X332140I-7337J0D01*
G01*
X354974Y238583D02*
G75*
G02*
X360592I2809J0D01*
G01*
G75*
G02*
X354974I-2809J0D01*
G01*
X359502Y103150D02*
G75*
G02*
X365120I2809J0D01*
G01*
G75*
G02*
X359502I-2809J0D01*
G01*
X361076Y38583D02*
G75*
G02*
X366694I2809J0D01*
G01*
G75*
G02*
X361076I-2809J0D01*
G01*
X361273Y230512D02*
G75*
G02*
X366891I2809J0D01*
G01*
G75*
G02*
X361273I-2809J0D01*
G01*
X361470Y210630D02*
G75*
G02*
X367088I2809J0D01*
G01*
G75*
G02*
X361470I-2809J0D01*
G01*
X9793Y18110D02*
G36*
X9793Y18110D02*
Y8328D01*
X11977Y6144D01*
X368156D01*
X370340Y8328D01*
Y18110D01*
X346813D01*
G75*
G02*
X332140I-7337J0D01*
G01*
X9793D01*
G37*
Y28859D02*
G36*
X9793Y28859D02*
Y18110D01*
X332140D01*
G75*
G02*
X346813I7337J0D01*
G01*
X370340D01*
Y28859D01*
X310706D01*
G75*
G02*
X302529I-4089J0D01*
G01*
X300706D01*
G75*
G02*
X292529I-4089J0D01*
G01*
X291297D01*
G75*
G02*
X281939I-4679J0D01*
G01*
X280706D01*
G75*
G02*
X272529I-4089J0D01*
G01*
X270706D01*
G75*
G02*
X262529I-4089J0D01*
G01*
X260706D01*
G75*
G02*
X252529I-4089J0D01*
G01*
X251297D01*
G75*
G02*
X241939I-4679J0D01*
G01*
X240706D01*
G75*
G02*
X232529I-4089J0D01*
G01*
X230706D01*
G75*
G02*
X222529I-4089J0D01*
G01*
X221297D01*
G75*
G02*
X211939I-4679J0D01*
G01*
X210706D01*
G75*
G02*
X202529I-4089J0D01*
G01*
X200706D01*
G75*
G02*
X192529I-4089J0D01*
G01*
X190706D01*
G75*
G02*
X182529I-4089J0D01*
G01*
X180706D01*
G75*
G02*
X172529I-4089J0D01*
G01*
X171297D01*
G75*
G02*
X161939I-4679J0D01*
G01*
X160706D01*
G75*
G02*
X152529I-4089J0D01*
G01*
X151297D01*
G75*
G02*
X141939I-4679J0D01*
G01*
X140706D01*
G75*
G02*
X132529I-4089J0D01*
G01*
X130706D01*
G75*
G02*
X122529I-4089J0D01*
G01*
X120706D01*
G75*
G02*
X112529I-4089J0D01*
G01*
X9793D01*
G37*
Y38859D02*
G36*
X9793Y38859D02*
Y28859D01*
X112529D01*
G75*
G02*
X120706I4089J0D01*
G01*
X122529D01*
G75*
G02*
X130706I4089J0D01*
G01*
X132529D01*
G75*
G02*
X140706I4089J0D01*
G01*
X141939D01*
G75*
G02*
X151297I4679J0D01*
G01*
X152529D01*
G75*
G02*
X160706I4089J0D01*
G01*
X161939D01*
G75*
G02*
X171297I4679J0D01*
G01*
X172529D01*
G75*
G02*
X180706I4089J0D01*
G01*
X182529D01*
G75*
G02*
X190706I4089J0D01*
G01*
X192529D01*
G75*
G02*
X200706I4089J0D01*
G01*
X202529D01*
G75*
G02*
X210706I4089J0D01*
G01*
X211939D01*
G75*
G02*
X221297I4679J0D01*
G01*
X222529D01*
G75*
G02*
X230706I4089J0D01*
G01*
X232529D01*
G75*
G02*
X240706I4089J0D01*
G01*
X241939D01*
G75*
G02*
X251297I4679J0D01*
G01*
X252529D01*
G75*
G02*
X260706I4089J0D01*
G01*
X262529D01*
G75*
G02*
X270706I4089J0D01*
G01*
X272529D01*
G75*
G02*
X280706I4089J0D01*
G01*
X281939D01*
G75*
G02*
X291297I4679J0D01*
G01*
X292529D01*
G75*
G02*
X300706I4089J0D01*
G01*
X302529D01*
G75*
G02*
X310706I4089J0D01*
G01*
X370340D01*
Y38859D01*
X366681D01*
G75*
G02*
X366694Y38583I-2796J-274D01*
G01*
G75*
G02*
X361076I-2809J0D01*
G01*
G75*
G02*
X361090Y38859I2809J2D01*
G01*
X310706D01*
G75*
G02*
X302529I-4089J0D01*
G01*
X300706D01*
G75*
G02*
X292529I-4089J0D01*
G01*
X290706D01*
G75*
G02*
X282529I-4089J0D01*
G01*
X280706D01*
G75*
G02*
X272529I-4089J0D01*
G01*
X271297D01*
G75*
G02*
X261939I-4679J0D01*
G01*
X260706D01*
G75*
G02*
X252529I-4089J0D01*
G01*
X250706D01*
G75*
G02*
X242529I-4089J0D01*
G01*
X240706D01*
G75*
G02*
X232529I-4089J0D01*
G01*
X230706D01*
G75*
G02*
X222529I-4089J0D01*
G01*
X220706D01*
G75*
G02*
X212529I-4089J0D01*
G01*
X210706D01*
G75*
G02*
X202529I-4089J0D01*
G01*
X200706D01*
G75*
G02*
X192529I-4089J0D01*
G01*
X191297D01*
G75*
G02*
X181939I-4679J0D01*
G01*
X180706D01*
G75*
G02*
X172529I-4089J0D01*
G01*
X170706D01*
G75*
G02*
X162529I-4089J0D01*
G01*
X160706D01*
G75*
G02*
X152529I-4089J0D01*
G01*
X150706D01*
G75*
G02*
X142529I-4089J0D01*
G01*
X140706D01*
G75*
G02*
X132529I-4089J0D01*
G01*
X130706D01*
G75*
G02*
X122529I-4089J0D01*
G01*
X121297D01*
G75*
G02*
X111939I-4679J0D01*
G01*
X9793D01*
G37*
Y49409D02*
G36*
X9793Y49409D02*
Y38859D01*
X111939D01*
G75*
G02*
X121297I4679J0D01*
G01*
X122529D01*
G75*
G02*
X130706I4089J0D01*
G01*
X132529D01*
G75*
G02*
X140706I4089J0D01*
G01*
X142529D01*
G75*
G02*
X150706I4089J0D01*
G01*
X152529D01*
G75*
G02*
X160706I4089J0D01*
G01*
X162529D01*
G75*
G02*
X170706I4089J0D01*
G01*
X172529D01*
G75*
G02*
X180706I4089J0D01*
G01*
X181939D01*
G75*
G02*
X191297I4679J0D01*
G01*
X192529D01*
G75*
G02*
X200706I4089J0D01*
G01*
X202529D01*
G75*
G02*
X210706I4089J0D01*
G01*
X212529D01*
G75*
G02*
X220706I4089J0D01*
G01*
X222529D01*
G75*
G02*
X230706I4089J0D01*
G01*
X232529D01*
G75*
G02*
X240706I4089J0D01*
G01*
X242529D01*
G75*
G02*
X250706I4089J0D01*
G01*
X252529D01*
G75*
G02*
X260706I4089J0D01*
G01*
X261939D01*
Y38859D01*
G75*
G02*
X264294Y42920I4678J0D01*
G01*
G75*
G02*
X262061Y45670I575J2750D01*
G01*
G75*
G02*
X267679I2809J0D01*
G01*
G75*
G02*
X266698Y43537I-2811J1D01*
G01*
G75*
G02*
X271297Y38859I-80J-4678D01*
G01*
X272529D01*
G75*
G02*
X280706I4089J0D01*
G01*
X282529D01*
G75*
G02*
X290706I4089J0D01*
G01*
X292529D01*
G75*
G02*
X300706I4089J0D01*
G01*
X302529D01*
G75*
G02*
X310706I4089J0D01*
G01*
X361090D01*
G75*
G02*
X366681I2796J-276D01*
G01*
X370340D01*
Y49409D01*
X332837D01*
G75*
G02*
X326825I-3006J0D01*
G01*
X63939D01*
G75*
G02*
X57927I-3006J0D01*
G01*
X9793D01*
G37*
Y52363D02*
G36*
X9793Y52363D02*
Y49409D01*
X57927D01*
G75*
G02*
X60372Y52363I3006J0D01*
G01*
X9793D01*
G37*
X61493D02*
G36*
X61493Y52363D02*
G75*
G02*
X63939Y49409I-561J-2953D01*
G01*
X326825D01*
G75*
G02*
X329270Y52363I3006J0D01*
G01*
X322511D01*
G75*
G02*
X317859I-2326J1575D01*
G01*
X252718D01*
G75*
G02*
X247100I-2809J0D01*
G01*
X178112D01*
G75*
G02*
X172494I-2809J0D01*
G01*
X61493D01*
G37*
X330391D02*
G36*
X330391Y52363D02*
G75*
G02*
X332837Y49409I-561J-2953D01*
G01*
X370340D01*
Y52363D01*
X330391D01*
G37*
X9793Y58071D02*
G36*
X9793Y58071D02*
Y52363D01*
X60372D01*
G75*
G02*
X61493I561J-2953D01*
G01*
X172494D01*
G75*
G02*
X178112I2809J0D01*
G01*
X247100D01*
G75*
G02*
X252718I2809J0D01*
G01*
X317859D01*
G75*
G02*
X317376Y53937I2326J1575D01*
G01*
G75*
G02*
X322994I2809J0D01*
G01*
G75*
G02*
X322511Y52363I-2809J0D01*
G01*
X329270D01*
G75*
G02*
X330391I561J-2953D01*
G01*
X370340D01*
Y58071D01*
X344532D01*
G75*
G02*
X339476Y54736I-5056J2165D01*
G01*
X325697D01*
G75*
G02*
X320641Y58071I0J5500D01*
G01*
X220793D01*
G75*
G02*
X221813Y55906I-1789J-2165D01*
G01*
G75*
G02*
X216194I-2809J0D01*
G01*
G75*
G02*
X217214Y58071I2809J0D01*
G01*
X199533D01*
G75*
G02*
X200553Y55906I-1789J-2165D01*
G01*
G75*
G02*
X194935I-2809J0D01*
G01*
G75*
G02*
X195954Y58071I2809J0D01*
G01*
X9793D01*
G37*
Y61811D02*
G36*
X9793Y61811D02*
Y58071D01*
X195954D01*
G75*
G02*
X194935Y60237I1789J2165D01*
G01*
G75*
G02*
X195418Y61811I2809J0D01*
G01*
X9793D01*
G37*
X200070D02*
G36*
X200070Y61811D02*
G75*
G02*
X200553Y60237I-2326J-1575D01*
G01*
G75*
G02*
X199533Y58071I-2809J0D01*
G01*
X217214D01*
G75*
G02*
X216194Y60237I1789J2165D01*
G01*
G75*
G02*
X216678Y61811I2809J0D01*
G01*
X200070D01*
G37*
X221330D02*
G36*
X221330Y61811D02*
G75*
G02*
X221813Y60237I-2326J-1575D01*
G01*
G75*
G02*
X220793Y58071I-2809J0D01*
G01*
X320641D01*
G75*
G02*
X320197Y60236I5056J2165D01*
G01*
Y61811D01*
X256065D01*
G75*
G02*
X250447I-2809J0D01*
G01*
X221330D01*
G37*
X344976Y60236D02*
G36*
X344976Y60236D02*
G75*
G02*
X344532Y58071I-5500J0D01*
G01*
X370340D01*
Y61811D01*
X344976D01*
Y60236D01*
G37*
X9793Y64606D02*
G36*
X9793Y64606D02*
Y61811D01*
X195418D01*
G75*
G02*
X200070I2326J-1575D01*
G01*
X216678D01*
G75*
G02*
X221330I2326J-1575D01*
G01*
X250447D01*
G75*
G02*
X252974Y64606I2809J0D01*
G01*
X249270D01*
G75*
G02*
X243856I-2707J748D01*
G01*
X110884D01*
G75*
G02*
X105469I-2707J748D01*
G01*
X45454D01*
G75*
G02*
X41372I-2041J1930D01*
G01*
X31175D01*
G75*
G02*
X26541I-2317J0D01*
G01*
X9793D01*
G37*
X253538D02*
G36*
X253538Y64606D02*
G75*
G02*
X256065Y61811I-282J-2795D01*
G01*
X320197D01*
Y64606D01*
X253538D01*
G37*
X344976D02*
G36*
X344976Y64606D02*
Y61811D01*
X370340D01*
Y64606D01*
X344976D01*
G37*
X9793Y76378D02*
G36*
X9793Y76378D02*
Y64606D01*
X26541D01*
G75*
G02*
X31175I2317J0D01*
G01*
X41372D01*
G75*
G02*
X40604Y66536I2041J1930D01*
G01*
G75*
G02*
X46222I2809J0D01*
G01*
G75*
G02*
X45454Y64606I-2809J0D01*
G01*
X105469D01*
G75*
G02*
X105368Y65355I2707J748D01*
G01*
G75*
G02*
X105404Y65803I2844J-2D01*
G01*
G75*
G02*
X101824Y68504I-770J2701D01*
G01*
G75*
G02*
X101853Y68902I2810J0D01*
G01*
G75*
G02*
X98478Y71654I-566J2752D01*
G01*
G75*
G02*
X104096I2809J0D01*
G01*
Y71654D01*
G75*
G02*
X104068Y71256I-2803J0D01*
G01*
G75*
G02*
X107443Y68504I566J-2752D01*
G01*
G75*
G02*
X107407Y68056I-2844J2D01*
G01*
G75*
G02*
X110986Y65355I770J-2701D01*
G01*
Y65355D01*
G75*
G02*
X110884Y64606I-2809J0D01*
G01*
X243856D01*
G75*
G02*
X243754Y65355I2707J748D01*
G01*
G75*
G02*
X249372I2809J0D01*
G01*
G75*
G02*
X249270Y64606I-2809J0D01*
G01*
X252974D01*
G75*
G02*
X253538I282J-2796D01*
G01*
X320197D01*
Y76378D01*
X164332D01*
G75*
G02*
X158714I-2809J0D01*
G01*
X9793D01*
G37*
X344976D02*
G36*
X344976Y76378D02*
Y64606D01*
X370340D01*
Y76378D01*
X344976D01*
G37*
X9793Y80512D02*
G36*
X9793Y80512D02*
Y76378D01*
X158714D01*
G75*
G02*
X164332I2809J0D01*
G01*
X320197D01*
Y80512D01*
X255704D01*
G75*
G02*
X250808I-2448J1378D01*
G01*
X144585D01*
G75*
G02*
X144647Y79922I-2746J-590D01*
G01*
G75*
G02*
X139029I-2809J0D01*
G01*
G75*
G02*
X139092Y80512I2809J1D01*
G01*
X120631D01*
G75*
G02*
X115013I-2809J0D01*
G01*
X72207D01*
G75*
G02*
X66589I-2809J0D01*
G01*
X9793D01*
G37*
X344976D02*
G36*
X344976Y80512D02*
Y76378D01*
X370340D01*
Y80512D01*
X344976D01*
G37*
X9793Y84646D02*
G36*
X9793Y84646D02*
Y80512D01*
X66589D01*
G75*
G02*
X72207I2809J0D01*
G01*
X115013D01*
G75*
G02*
X120631I2809J0D01*
G01*
X139092D01*
G75*
G02*
X144585I2746J-591D01*
G01*
X250808D01*
G75*
G02*
X250447Y81890I2448J1378D01*
G01*
G75*
G02*
X252714Y84646I2809J0D01*
G01*
X218663D01*
G75*
G02*
X213045I-2809J0D01*
G01*
X9793D01*
G37*
X256065Y81890D02*
G36*
X256065Y81890D02*
G75*
G02*
X255704Y80512I-2809J0D01*
G01*
X320197D01*
Y84646D01*
X253798D01*
G75*
G02*
X256065Y81890I-542J-2756D01*
G01*
G37*
X344976Y84646D02*
G36*
X344976Y84646D02*
Y80512D01*
X370340D01*
Y84646D01*
X344976D01*
G37*
X9793Y87362D02*
G36*
X9793Y87362D02*
Y84646D01*
X213045D01*
G75*
G02*
X215137Y87362I2809J0D01*
G01*
X46150D01*
G75*
G02*
X40676I-2737J630D01*
G01*
X31175D01*
G75*
G02*
X26541I-2317J0D01*
G01*
X9793D01*
G37*
X216570D02*
G36*
X216570Y87362D02*
G75*
G02*
X218663Y84646I-717J-2716D01*
G01*
X252714D01*
G75*
G02*
X253798I542J-2756D01*
G01*
X320197D01*
Y87362D01*
X216570D01*
G37*
X344976D02*
G36*
X344976Y87362D02*
Y84646D01*
X370340D01*
Y87362D01*
X344976D01*
G37*
X9793Y95670D02*
G36*
X9793Y95670D02*
Y87362D01*
X26541D01*
G75*
G02*
X31175I2317J0D01*
G01*
X40676D01*
G75*
G02*
X40604Y87993I2737J630D01*
G01*
G75*
G02*
X46222I2809J0D01*
G01*
G75*
G02*
X46150Y87362I-2809J0D01*
G01*
X215137D01*
G75*
G02*
X216570I717J-2716D01*
G01*
X320197D01*
Y95670D01*
X192285D01*
G75*
G02*
X186667I-2809J0D01*
G01*
X9793D01*
G37*
X344976D02*
G36*
X344976Y95670D02*
Y87362D01*
X370340D01*
Y95670D01*
X344976D01*
G37*
X9793Y99607D02*
G36*
X9793Y99607D02*
Y95670D01*
X186667D01*
G75*
G02*
X192285I2809J0D01*
G01*
X320197D01*
Y99607D01*
X214530D01*
G75*
G02*
X208911I-2809J0D01*
G01*
X9793D01*
G37*
X344976D02*
G36*
X344976Y99607D02*
Y95670D01*
X370340D01*
Y99607D01*
X344976D01*
G37*
X9793Y103150D02*
G36*
X9793Y103150D02*
Y99607D01*
X208911D01*
G75*
G02*
X214530I2809J0D01*
G01*
X320197D01*
Y103150D01*
X9793D01*
G37*
X344976Y102012D02*
G36*
X344976Y102012D02*
Y99607D01*
X370340D01*
Y103150D01*
X365120D01*
G75*
G02*
X359502I-2809J0D01*
G01*
X349111D01*
G75*
G02*
X344976Y102012I-2549J1181D01*
G01*
G37*
X9793Y107874D02*
G36*
X9793Y107874D02*
Y103150D01*
X320197D01*
Y107874D01*
X244746D01*
G75*
G02*
X243655I-546J2755D01*
G01*
X103309D01*
G75*
G02*
X97691I-2809J0D01*
G01*
X9793D01*
G37*
X344976D02*
G36*
X344976Y107874D02*
Y106649D01*
G75*
G02*
X349372Y104331I1586J-2319D01*
G01*
G75*
G02*
X349111Y103150I-2809J0D01*
G01*
X359502D01*
G75*
G02*
X365120I2809J0D01*
G01*
X370340D01*
Y107874D01*
X344976D01*
G37*
X9793Y110630D02*
G36*
X9793Y110630D02*
Y107874D01*
X97691D01*
G75*
G02*
X99954Y110630I2809J0D01*
G01*
X9793D01*
G37*
X101045D02*
G36*
X101045Y110630D02*
G75*
G02*
X103309Y107874I-546J-2756D01*
G01*
X243655D01*
G75*
G02*
X241392Y110630I546J2756D01*
G01*
X101045D01*
G37*
X247010D02*
G36*
X247010Y110630D02*
G75*
G02*
X244746Y107874I-2809J0D01*
G01*
X320197D01*
Y110630D01*
X247010D01*
G37*
X344976D02*
G36*
X344976Y110630D02*
Y107874D01*
X370340D01*
Y110630D01*
X347158D01*
G75*
G02*
X345967I-596J3347D01*
G01*
X344976D01*
G37*
X9793Y121654D02*
G36*
X9793Y121654D02*
Y110630D01*
X99954D01*
G75*
G02*
X101045I546J-2755D01*
G01*
X241392D01*
G75*
G02*
X247010I2809J0D01*
G01*
X320197D01*
Y121654D01*
X244254D01*
G75*
G02*
X238636I-2809J0D01*
G01*
X9793D01*
G37*
X344976Y110970D02*
G36*
X344976Y110970D02*
Y110630D01*
X345967D01*
G75*
G02*
X344976Y110970I596J3347D01*
G01*
G37*
Y121654D02*
G36*
X344976Y121654D02*
Y121216D01*
G75*
G02*
X346018Y121654I1586J-2318D01*
G01*
X344976D01*
G37*
X349372Y118898D02*
G36*
X349372Y118898D02*
G75*
G02*
X348442Y116810I-2809J0D01*
G01*
G75*
G02*
X349962Y113977I-1879J-2833D01*
G01*
G75*
G02*
X347158Y110630I-3400J0D01*
G01*
X370340D01*
Y121654D01*
X347107D01*
G75*
G02*
X349372Y118898I-544J-2756D01*
G01*
G37*
X9793Y129134D02*
G36*
X9793Y129134D02*
Y121654D01*
X238636D01*
G75*
G02*
X244254I2809J0D01*
G01*
X320197D01*
Y129134D01*
X23388D01*
G75*
G02*
X17770I-2809J0D01*
G01*
X9793D01*
G37*
X344976D02*
G36*
X344976Y129134D02*
Y121654D01*
X346018D01*
G75*
G02*
X347107I544J-2756D01*
G01*
X370340D01*
Y129134D01*
X344976D01*
G37*
X9793Y141733D02*
G36*
X9793Y141733D02*
Y129134D01*
X17770D01*
G75*
G02*
X23388I2809J0D01*
G01*
X320197D01*
Y141733D01*
X48295D01*
G75*
G02*
X45381I-1457J2402D01*
G01*
X30868D01*
G75*
G02*
X25250I-2809J0D01*
G01*
X9793D01*
G37*
X344976D02*
G36*
X344976Y141733D02*
Y129134D01*
X370340D01*
Y141733D01*
X344976D01*
G37*
X9793Y157087D02*
G36*
X9793Y157087D02*
Y141733D01*
X25250D01*
G75*
G02*
X30868I2809J0D01*
G01*
X45381D01*
G75*
G02*
X44029Y144134I1457J2402D01*
G01*
G75*
G02*
X49647I2809J0D01*
G01*
G75*
G02*
X48295Y141733I-2809J0D01*
G01*
X320197D01*
Y157087D01*
X77128D01*
G75*
G02*
X71509I-2809J0D01*
G01*
X9793D01*
G37*
X344976D02*
G36*
X344976Y157087D02*
Y141733D01*
X370340D01*
Y157087D01*
X344976D01*
G37*
X9793Y162205D02*
G36*
X9793Y162205D02*
Y157087D01*
X71509D01*
G75*
G02*
X77128I2809J0D01*
G01*
X320197D01*
Y162205D01*
X142679D01*
G75*
G02*
X137061I-2809J0D01*
G01*
X9793D01*
G37*
X344976D02*
G36*
X344976Y162205D02*
Y157087D01*
X370340D01*
Y162205D01*
X344976D01*
G37*
X9793Y168504D02*
G36*
X9793Y168504D02*
Y162205D01*
X137061D01*
G75*
G02*
X142679I2809J0D01*
G01*
X320197D01*
Y168504D01*
X134017D01*
G75*
G02*
X128399I-2809J0D01*
G01*
X9793D01*
G37*
X344976D02*
G36*
X344976Y168504D02*
Y162205D01*
X370340D01*
Y168504D01*
X344976D01*
G37*
X9793Y175591D02*
G36*
X9793Y175591D02*
Y168504D01*
X128399D01*
G75*
G02*
X134017I2809J0D01*
G01*
X320197D01*
Y175591D01*
X246616D01*
G75*
G02*
X240998I-2809J0D01*
G01*
X9793D01*
G37*
X344976D02*
G36*
X344976Y175591D02*
Y168504D01*
X370340D01*
Y175591D01*
X344976D01*
G37*
X9793Y181299D02*
G36*
X9793Y181299D02*
Y175591D01*
X240998D01*
G75*
G02*
X246616I2809J0D01*
G01*
X320197D01*
Y181299D01*
X272633D01*
G75*
G02*
X267737I-2448J1378D01*
G01*
X144647D01*
G75*
G02*
X141838Y178490I-2809J0D01*
G01*
G75*
G02*
X139029Y181299I0J2809D01*
G01*
X9793D01*
G37*
X344976D02*
G36*
X344976Y181299D02*
Y175591D01*
X370340D01*
Y181299D01*
X344976D01*
G37*
X9793Y186811D02*
G36*
X9793Y186811D02*
Y181299D01*
X139029D01*
G75*
G02*
X141838Y184108I2809J0D01*
G01*
G75*
G02*
X144647Y181299I0J-2809D01*
G01*
X267737D01*
G75*
G02*
X267376Y182678I2448J1378D01*
G01*
G75*
G02*
X272994I2809J0D01*
G01*
G75*
G02*
X272633Y181299I-2809J0D01*
G01*
X320197D01*
Y186811D01*
X171806D01*
G75*
G02*
X166202I-2802J197D01*
G01*
X77718D01*
G75*
G02*
X72100I-2809J0D01*
G01*
X9793D01*
G37*
X344976D02*
G36*
X344976Y186811D02*
Y181299D01*
X370340D01*
Y186811D01*
X369178D01*
G75*
G02*
X366861I-1158J2559D01*
G01*
X344976D01*
G37*
X9793Y192914D02*
G36*
X9793Y192914D02*
Y186811D01*
X72100D01*
G75*
G02*
X77718I2809J0D01*
G01*
X166202D01*
G75*
G02*
X166194Y187008I2802J200D01*
G01*
G75*
G02*
X171813I2809J0D01*
G01*
G75*
G02*
X171806Y186811I-2809J3D01*
G01*
X320197D01*
Y192914D01*
X89769D01*
G75*
G02*
X84151I-2809J0D01*
G01*
X9793D01*
G37*
X344976D02*
G36*
X344976Y192914D02*
Y186811D01*
X366861D01*
G75*
G02*
X365210Y189370I1158J2559D01*
G01*
G75*
G02*
X370340Y190953I2809J0D01*
G01*
Y192914D01*
X344976D01*
G37*
X369178Y186811D02*
G36*
X369178Y186811D02*
X370340D01*
Y187788D01*
G75*
G02*
X369178Y186811I-2321J1583D01*
G01*
G37*
X9793Y212224D02*
G36*
X9793Y212224D02*
Y192914D01*
X84151D01*
G75*
G02*
X89769I2809J0D01*
G01*
X320197D01*
Y212224D01*
X234411D01*
G75*
G02*
Y212205I-2813J-10D01*
G01*
G75*
G02*
X228793I-2809J0D01*
G01*
Y212205D01*
G75*
G02*
Y212224I2791J10D01*
G01*
X144254D01*
G75*
G02*
X138635I-2809J0D01*
G01*
X9793D01*
G37*
X344976D02*
G36*
X344976Y212224D02*
Y192914D01*
X370340D01*
Y212224D01*
X366592D01*
G75*
G02*
X367088Y210630I-2313J-1594D01*
G01*
G75*
G02*
X361470I-2809J0D01*
G01*
G75*
G02*
X361966Y212224I2809J0D01*
G01*
X344976D01*
G37*
X9793Y216339D02*
G36*
X9793Y216339D02*
Y212224D01*
X138635D01*
G75*
G02*
X144254I2809J0D01*
G01*
X228793D01*
G75*
G02*
X229368Y213908I2808J-20D01*
G01*
G75*
G02*
X224856Y216142I-1703J2234D01*
G01*
G75*
G02*
X224863Y216339I2809J-2D01*
G01*
X32049D01*
G75*
G02*
X26431I-2809J0D01*
G01*
X9793D01*
G37*
X230467D02*
G36*
X230467Y216339D02*
G75*
G02*
X230474Y216142I-2802J-200D01*
G01*
Y216141D01*
G75*
G02*
X229899Y214439I-2808J0D01*
G01*
G75*
G02*
X234411Y212224I1703J-2234D01*
G01*
X320197D01*
Y216339D01*
X230467D01*
G37*
X344976D02*
G36*
X344976Y216339D02*
Y212224D01*
X361966D01*
G75*
G02*
X366592I2313J-1594D01*
G01*
X370340D01*
Y216339D01*
X344976D01*
G37*
X9793Y220079D02*
G36*
X9793Y220079D02*
Y216339D01*
X26431D01*
G75*
G02*
X32049I2809J0D01*
G01*
X224863D01*
G75*
G02*
X230467I2802J-197D01*
G01*
X320197D01*
Y220079D01*
X217088D01*
G75*
G02*
X211470I-2809J0D01*
G01*
X9793D01*
G37*
X344976D02*
G36*
X344976Y220079D02*
Y216339D01*
X370340D01*
Y220079D01*
X344976D01*
G37*
X9793Y224804D02*
G36*
X9793Y224804D02*
Y220079D01*
X211470D01*
G75*
G02*
X217088I2809J0D01*
G01*
X320197D01*
Y224804D01*
X197684D01*
G75*
G02*
X192291I-2696J787D01*
G01*
X77718D01*
G75*
G02*
X72100I-2809J0D01*
G01*
X9793D01*
G37*
X344976D02*
G36*
X344976Y224804D02*
Y220079D01*
X370340D01*
Y224804D01*
X344976D01*
G37*
X9793Y230315D02*
G36*
X9793Y230315D02*
Y224804D01*
X72100D01*
G75*
G02*
X77718I2809J0D01*
G01*
X192291D01*
G75*
G02*
X192179Y225591I2696J787D01*
G01*
G75*
G02*
X197797I2809J0D01*
G01*
G75*
G02*
X197684Y224804I-2809J0D01*
G01*
X320197D01*
Y230315D01*
X154229D01*
G75*
G02*
X154489Y229135I-2548J-1181D01*
G01*
Y229135D01*
G75*
G02*
X148871I-2809J0D01*
G01*
Y229135D01*
G75*
G02*
X149131Y230315I2809J0D01*
G01*
X74569D01*
G75*
G02*
X68950I-2809J0D01*
G01*
X9793D01*
G37*
X344976D02*
G36*
X344976Y230315D02*
Y224804D01*
X370340D01*
Y230315D01*
X366884D01*
G75*
G02*
X361280I-2802J197D01*
G01*
X344976D01*
G37*
X9793Y236221D02*
G36*
X9793Y236221D02*
Y230315D01*
X68950D01*
G75*
G02*
X74569I2809J0D01*
G01*
X149131D01*
G75*
G02*
X151137Y231891I2548J-1180D01*
G01*
G75*
G02*
X148871Y234646I544J2756D01*
G01*
G75*
G02*
X149354Y236221I2809J0D01*
G01*
X60636D01*
G75*
G02*
X52961I-3837J0D01*
G01*
X25520D01*
G75*
G02*
X17998I-3761J6299D01*
G01*
X9793D01*
G37*
X152224Y231891D02*
G36*
X152224Y231891D02*
G75*
G02*
X154229Y230315I-543J-2756D01*
G01*
X320197D01*
Y236221D01*
X197314D01*
G75*
G02*
X197797Y234646I-2326J-1575D01*
G01*
G75*
G02*
X192179I-2809J0D01*
G01*
G75*
G02*
X192662Y236221I2809J0D01*
G01*
X154007D01*
G75*
G02*
X154489Y234646I-2326J-1574D01*
G01*
G75*
G02*
X152224Y231891I-2809J0D01*
G01*
G37*
X344976Y236221D02*
G36*
X344976Y236221D02*
Y230315D01*
X361280D01*
G75*
G02*
X361273Y230512I2802J200D01*
G01*
G75*
G02*
X366891I2809J0D01*
G01*
G75*
G02*
X366884Y230315I-2809J3D01*
G01*
X370340D01*
Y236221D01*
X359303D01*
G75*
G02*
X356263I-1520J2362D01*
G01*
X344976D01*
G37*
X9793Y242520D02*
G36*
X9793Y242520D02*
Y236221D01*
X17998D01*
G75*
G02*
X14423Y242520I3761J6299D01*
G01*
X9793D01*
G37*
X29096D02*
G36*
X29096Y242520D02*
G75*
G02*
X25520Y236221I-7337J0D01*
G01*
X52961D01*
G75*
G02*
X60636I3837J0D01*
G01*
X149354D01*
G75*
G02*
X151137Y237402I2326J-1574D01*
G01*
G75*
G02*
X148871Y240158I543J2756D01*
G01*
Y240158D01*
G75*
G02*
X150159Y242520I2809J0D01*
G01*
X63933D01*
G75*
G02*
X57933I-3000J196D01*
G01*
X43721D01*
G75*
G02*
X38380I-2670J2756D01*
G01*
X29096D01*
G37*
X152224Y237402D02*
G36*
X152224Y237402D02*
G75*
G02*
X154007Y236221I-544J-2756D01*
G01*
X192662D01*
G75*
G02*
X197314I2326J-1575D01*
G01*
X320197D01*
Y242520D01*
X153201D01*
G75*
G02*
X154489Y240158I-1521J-2362D01*
G01*
Y240158D01*
G75*
G02*
X152224Y237402I-2809J0D01*
G01*
G37*
X344976Y242520D02*
G36*
X344976Y242520D02*
Y236221D01*
X356263D01*
G75*
G02*
X354974Y238583I1520J2362D01*
G01*
G75*
G02*
X360592I2809J0D01*
G01*
G75*
G02*
X359303Y236221I-2809J0D01*
G01*
X370340D01*
Y242520D01*
X344976D01*
G37*
X9793Y245670D02*
G36*
X9793Y245670D02*
Y242520D01*
X14423D01*
G75*
G02*
X15133Y245670I7337J0D01*
G01*
X9793D01*
G37*
X28385D02*
G36*
X28385Y245670D02*
G75*
G02*
X29096Y242520I-6626J-3150D01*
G01*
X38380D01*
G75*
G02*
X37213Y245276I2670J2756D01*
G01*
G75*
G02*
X37233Y245670I3838J2D01*
G01*
X28385D01*
G37*
X44888Y245276D02*
G36*
X44888Y245276D02*
G75*
G02*
X43721Y242520I-3837J0D01*
G01*
X57933D01*
G75*
G02*
X57927Y242717I3000J194D01*
G01*
G75*
G02*
X60372Y245670I3006J0D01*
G01*
X44868D01*
G75*
G02*
X44888Y245276I-3818J-392D01*
G01*
G37*
X63939Y242717D02*
G36*
X63939Y242717D02*
G75*
G02*
X63933Y242520I-3006J-2D01*
G01*
X150159D01*
G75*
G02*
X153201I1521J-2362D01*
G01*
X320197D01*
Y244488D01*
G75*
G02*
X320325Y245670I5500J0D01*
G01*
X317088D01*
G75*
G02*
X311470I-2809J0D01*
G01*
X61494D01*
G75*
G02*
X63939Y242717I-561J-2953D01*
G01*
G37*
X344976Y244488D02*
G36*
X344976Y244488D02*
Y242520D01*
X370340D01*
Y245670D01*
X344848D01*
G75*
G02*
X344976Y244488I-5372J-1181D01*
G01*
G37*
X9793Y252303D02*
G36*
X9793Y252303D02*
Y245670D01*
X15133D01*
G75*
G02*
X28385I6626J-3150D01*
G01*
X37233D01*
G75*
G02*
X44868I3817J-394D01*
G01*
X60372D01*
G75*
G02*
X61494I561J-2953D01*
G01*
X311470D01*
G75*
G02*
X317088I2809J0D01*
G01*
X320325D01*
G75*
G02*
X325697Y249988I5372J-1182D01*
G01*
X339476D01*
G75*
G02*
X344848Y245670I0J-5500D01*
G01*
X370340D01*
Y252303D01*
X368156Y254487D01*
X11977D01*
X9793Y252303D01*
G37*
D02*
D124*
X114059Y38859D02*
X111696D01*
X116618Y36300D02*
Y33937D01*
Y41418D02*
Y43780D01*
X119177Y38859D02*
X121539D01*
X144059Y28859D02*
X141696D01*
X146618Y26300D02*
Y23937D01*
Y31418D02*
Y33780D01*
X149177Y28859D02*
X151539D01*
X164059D02*
X161696D01*
X166618Y26300D02*
Y23937D01*
Y31418D02*
Y33780D01*
X169177Y28859D02*
X171539D01*
X184059Y38859D02*
X181696D01*
X186618Y36300D02*
Y33937D01*
Y41418D02*
Y43780D01*
X189177Y38859D02*
X191539D01*
X214059Y28859D02*
X211696D01*
X216618Y26300D02*
Y23937D01*
Y31418D02*
Y33780D01*
X219177Y28859D02*
X221539D01*
X244059D02*
X241696D01*
X246618Y26300D02*
Y23937D01*
Y31418D02*
Y33780D01*
X249177Y28859D02*
X251539D01*
X264808Y37049D02*
X263138Y35379D01*
X264808Y40668D02*
X263138Y42339D01*
X268427Y37049D02*
X270098Y35379D01*
X268427Y40668D02*
X270098Y42339D01*
X284059Y28859D02*
X281696D01*
X286618Y26300D02*
Y23937D01*
Y31418D02*
Y33780D01*
X289177Y28859D02*
X291539D01*
X346563Y112697D02*
Y110335D01*
X347842Y113977D02*
X350204D01*
D02*
D125*
X20578Y73229D03*
X20579Y129134D03*
X22547Y11811D03*
Y27559D03*
X24122Y107874D03*
X26287Y44095D03*
X28059Y141733D03*
Y148819D03*
X29240Y216339D03*
X30028Y32677D03*
Y120079D03*
X30421Y157087D03*
X30815Y196457D03*
X37508Y11811D03*
Y27559D03*
X39870Y59646D03*
X43020Y14173D03*
Y25197D03*
X43216Y96063D03*
X43413Y66536D03*
Y87993D03*
X46838Y144134D03*
X64279Y14173D03*
Y26378D03*
Y33465D03*
Y39764D03*
Y45276D03*
X65067Y110630D03*
X65460Y51969D03*
X69398Y80512D03*
X69791Y14567D03*
X71759Y230315D03*
X74319Y157087D03*
X74909Y186811D03*
Y224804D03*
X76878Y14567D03*
Y25984D03*
Y34252D03*
X77665Y215158D03*
X82193Y122638D03*
X82389Y20079D03*
Y39764D03*
Y45669D03*
Y50788D03*
X82783Y114567D03*
X86960Y192914D03*
Y199607D03*
X88295Y52363D03*
X91838Y57481D03*
X99515Y122638D03*
X100500Y107874D03*
X101287Y71654D03*
X104633Y68504D03*
X106208Y138189D03*
X106405Y155512D03*
Y173622D03*
Y205119D03*
Y244489D03*
X108177Y65355D03*
X113098Y99213D03*
X116641Y47244D03*
X117822Y80512D03*
X118019Y73820D03*
X123728Y10040D03*
X125696Y204725D03*
X131208Y168504D03*
X133374Y117323D03*
X134751Y145276D03*
X139870Y162205D03*
X141444Y212224D03*
X141838Y79922D03*
Y181299D03*
Y188189D03*
X151680Y229135D03*
Y234646D03*
Y240158D03*
X154437Y124804D03*
X154830Y181496D03*
X155224Y222835D03*
X161523Y76378D03*
X165854Y159449D03*
X169004Y187008D03*
X169791Y181103D03*
X173137Y92323D03*
X174122Y188976D03*
X175303Y52363D03*
X178846Y195276D03*
X180028Y169685D03*
X189082Y68111D03*
X189476Y95670D03*
X194988Y225591D03*
Y234646D03*
Y243701D03*
X197744Y55906D03*
Y60237D03*
X200894Y127559D03*
X211720Y99607D03*
X213098Y208268D03*
X213295Y234646D03*
X213492Y242126D03*
X214279Y220079D03*
X215854Y84646D03*
X219004Y55906D03*
Y60237D03*
X223925Y191733D03*
X224516Y152362D03*
Y165748D03*
Y178346D03*
X226090Y92520D03*
X227665Y216142D03*
X230027Y70473D03*
X231602Y212205D03*
X240264Y157874D03*
X241445Y121654D03*
X242626Y46851D03*
X243807Y175591D03*
X244201Y104724D03*
Y110630D03*
Y197244D03*
Y236614D03*
X246563Y65355D03*
X249909Y52363D03*
X253256Y61811D03*
Y81890D03*
X264870Y45670D03*
X270185Y182678D03*
X275500Y10040D03*
X279634Y79134D03*
Y118504D03*
Y157874D03*
Y236614D03*
X283177Y196851D03*
X299712Y54725D03*
X304437Y21260D03*
X314279Y245670D03*
X317035Y79134D03*
Y118504D03*
Y157874D03*
Y197244D03*
Y236614D03*
X320185Y53937D03*
X346563Y104331D03*
Y113977D03*
Y118898D03*
Y158268D03*
Y212993D03*
X357783Y238583D03*
X361917Y172048D03*
X362311Y103150D03*
X363492Y124213D03*
X363885Y38583D03*
X364082Y230512D03*
X364279Y210630D03*
X367232Y251772D03*
X367429Y33858D03*
X368019Y189370D03*
D02*
D127*
X41051Y245276D03*
X56799Y236221D03*
D02*
D129*
X116618Y28859D03*
Y38859D03*
X126618Y28859D03*
Y38859D03*
X136618Y28859D03*
Y38859D03*
X146618Y28859D03*
Y38859D03*
X156618Y28859D03*
Y38859D03*
X166618Y28859D03*
Y38859D03*
X176618Y28859D03*
Y38859D03*
X186618Y28859D03*
Y38859D03*
X196618Y28859D03*
Y38859D03*
X206618Y28859D03*
Y38859D03*
X216618Y28859D03*
Y38859D03*
X226618Y28859D03*
Y38859D03*
X236618Y28859D03*
Y38859D03*
X246618Y28859D03*
Y38859D03*
X256618Y28859D03*
Y38859D03*
X266618Y28859D03*
Y38859D03*
X276618Y28859D03*
Y38859D03*
X286618Y28859D03*
Y38859D03*
X296618Y28859D03*
Y38859D03*
X306618Y28859D03*
Y38859D03*
X0Y0D02*
M02*
