G04 DesignSpark PCB PRO Gerber Version 10.0 Build 5299*
G04 #@! TF.Part,Single*
G04 #@! TF.FileFunction,Paste,Bot*
G04 #@! TF.FilePolarity,Positive*
%FSLAX35Y35*%
%MOIN*%
G04 #@! TA.AperFunction,SMDPad,CuDef*
%ADD102R,0.01772X0.04035*%
%ADD82R,0.02303X0.04469*%
%ADD80R,0.02835X0.06772*%
%ADD84R,0.03543X0.03898*%
%ADD90R,0.05670X0.09570*%
%ADD97R,0.07087X0.07795*%
%ADD101R,0.02835X0.02835*%
%ADD104R,0.14173X0.14173*%
%ADD81C,0.04252*%
%ADD96R,0.04409X0.01063*%
%ADD89R,0.05000X0.01063*%
%ADD87R,0.04882X0.02126*%
%ADD91R,0.04469X0.02303*%
%ADD92R,0.05748X0.02303*%
%ADD94R,0.04803X0.02835*%
%ADD100R,0.10717X0.03118*%
%ADD86R,0.03740X0.03543*%
%ADD83R,0.03898X0.03543*%
%ADD85R,0.08248X0.03720*%
%ADD93R,0.07047X0.03898*%
%ADD98R,0.05827X0.04252*%
%ADD88R,0.07953X0.06378*%
%ADD95R,0.10984X0.07441*%
%ADD99R,0.11693X0.11693*%
%ADD103R,0.12795X0.12402*%
G04 #@! TD.AperFunction*
X0Y0D02*
D02*
D80*
X57193Y64370D03*
Y102559D03*
X61524Y64370D03*
Y102559D03*
X65854Y64370D03*
Y102559D03*
X70185Y64370D03*
Y102559D03*
X74516Y64370D03*
Y102559D03*
X78846Y64370D03*
Y102559D03*
X83177Y64370D03*
Y102559D03*
X87508Y64370D03*
Y102559D03*
X91839Y64370D03*
Y102559D03*
D02*
D81*
X80815Y131102D03*
X98138D03*
X118216Y194489D03*
X146563Y77166D03*
X156799Y87402D03*
X170972Y72441D03*
X184358Y201181D03*
D02*
D82*
X70736Y122638D03*
X74516Y114370D03*
X78295Y122638D03*
X97902D03*
X101681Y114370D03*
X105461Y122638D03*
D02*
D83*
X28102Y126772D03*
Y134252D03*
X35102Y126772D03*
Y134252D03*
X69834Y20079D03*
Y39764D03*
X76834Y20079D03*
Y39764D03*
X78496Y144094D03*
Y150787D03*
X85496Y144094D03*
Y150787D03*
X98969Y194882D03*
Y201575D03*
X105969Y194882D03*
Y201575D03*
X111567Y97638D03*
Y103937D03*
X118567Y97638D03*
Y103937D03*
X125346Y70079D03*
Y76772D03*
X132346Y70079D03*
Y76772D03*
X135189Y167323D03*
X142189D03*
X163535Y224803D03*
Y233858D03*
X170535Y224803D03*
Y233858D03*
X207039Y197244D03*
X214039D03*
D02*
D84*
X36327Y109886D03*
Y116886D03*
X43413Y109886D03*
Y116886D03*
X53649Y19729D03*
Y26729D03*
Y34689D03*
Y41689D03*
X69791Y26421D03*
Y33421D03*
X157193Y177996D03*
Y184996D03*
X169004Y194138D03*
Y201138D03*
X172941Y142957D03*
Y149957D03*
X246563Y70516D03*
Y77516D03*
X253256Y67717D03*
Y74717D03*
D02*
D85*
X30028Y11811D03*
Y27559D03*
D02*
D86*
X36031Y19685D03*
D02*
D87*
X219791Y208268D03*
Y212205D03*
Y216142D03*
Y220079D03*
Y224016D03*
Y227953D03*
D02*
D88*
X232587Y198819D03*
Y237402D03*
X273886Y196850D03*
X274122Y95276D03*
D02*
D89*
X261327Y102756D03*
Y104724D03*
Y106693D03*
Y108661D03*
Y110630D03*
Y112598D03*
Y114567D03*
Y116535D03*
Y118504D03*
Y120472D03*
Y122441D03*
Y124409D03*
Y126378D03*
Y128346D03*
Y130315D03*
Y132283D03*
Y134252D03*
Y136220D03*
Y138189D03*
Y140157D03*
Y142126D03*
Y144094D03*
Y146063D03*
Y148031D03*
Y150000D03*
Y151969D03*
Y153937D03*
Y155906D03*
Y157874D03*
Y159843D03*
Y161811D03*
Y163780D03*
Y165748D03*
Y167717D03*
Y169685D03*
Y171654D03*
Y173622D03*
Y175591D03*
Y177559D03*
Y179528D03*
Y181496D03*
Y183465D03*
Y185433D03*
Y187402D03*
Y189370D03*
D02*
D90*
X202855Y146063D03*
Y159055D03*
Y172047D03*
Y185039D03*
X216255Y146063D03*
Y159055D03*
Y172047D03*
Y185039D03*
D02*
D91*
X182587Y155276D03*
Y162835D03*
Y181260D03*
Y188819D03*
X190854Y159055D03*
Y185039D03*
D02*
D92*
X105965Y167303D03*
Y172303D03*
Y177303D03*
Y182303D03*
X127319Y167303D03*
Y172303D03*
Y177303D03*
Y182303D03*
X135886Y197224D03*
Y202224D03*
Y207224D03*
Y212224D03*
X157240Y197224D03*
Y202224D03*
Y207224D03*
Y212224D03*
D02*
D93*
X93413Y162402D03*
Y172244D03*
D02*
D94*
X352634Y89469D03*
Y94390D03*
Y99311D03*
Y104232D03*
Y109154D03*
Y114075D03*
Y118996D03*
Y123917D03*
D02*
D95*
X363461Y79429D03*
Y133957D03*
D02*
D96*
X33091Y62795D03*
Y63976D03*
Y65945D03*
Y67126D03*
Y69094D03*
Y71063D03*
Y73031D03*
Y75000D03*
Y76969D03*
Y78937D03*
Y80906D03*
Y82874D03*
Y84843D03*
Y86024D03*
Y87992D03*
Y89173D03*
D02*
D97*
X15354Y55866D03*
Y96102D03*
X30827Y55866D03*
Y96102D03*
D02*
D98*
X149691Y224787D03*
Y233842D03*
Y242897D03*
D02*
D99*
X124494Y233842D03*
D02*
D100*
X362705Y143169D03*
Y156043D03*
X363886Y45531D03*
Y58406D03*
D02*
D101*
X350500Y143701D03*
Y152363D03*
D02*
D102*
X351681Y56890D03*
Y65945D03*
D02*
D103*
X41838Y155315D03*
Y216339D03*
D02*
D104*
Y185827D03*
X0Y0D02*
M02*
