G04 DesignSpark PCB PRO Gerber Version 10.0 Build 5299*
G04 #@! TF.Part,Single*
G04 #@! TF.FileFunction,Copper,L3,Inr*
G04 #@! TF.FilePolarity,Positive*
%FSLAX35Y35*%
%MOIN*%
%ADD106C,0.00500*%
%ADD111C,0.00984*%
G04 #@! TA.AperFunction,ViaPad*
%ADD112C,0.03543*%
G04 #@! TA.AperFunction,ComponentPad*
%ADD114C,0.06102*%
G04 #@! TD.AperFunction*
X0Y0D02*
D02*
D106*
X9543Y252053D02*
Y8578D01*
X12227Y5894D01*
X367906D01*
X370590Y8578D01*
Y252053D01*
X367906Y254737D01*
X12227D01*
X9543Y252053D01*
X14423Y242520D02*
G75*
G02*
X29096I7337J0D01*
G01*
G75*
G02*
X14423I-7337J0D01*
G01*
X17770Y129134D02*
G75*
G02*
X23388I2809J0D01*
G01*
G75*
G02*
X17770I-2809J0D01*
G01*
X26541Y64606D02*
G75*
G02*
X31175I2317J0D01*
G01*
G75*
G02*
X26541I-2317J0D01*
G01*
Y87362D02*
G75*
G02*
X31175I2317J0D01*
G01*
G75*
G02*
X26541I-2317J0D01*
G01*
X40998Y66535D02*
G75*
G02*
X46616I2809J0D01*
G01*
G75*
G02*
X40998I-2809J0D01*
G01*
Y89370D02*
G75*
G02*
X46616I2809J0D01*
G01*
G75*
G02*
X40998I-2809J0D01*
G01*
X57927Y49409D02*
G75*
G02*
X63939I3006J0D01*
G01*
G75*
G02*
X57927I-3006J0D01*
G01*
X57927Y242717D02*
G75*
G02*
X63939I3006J0D01*
G01*
G75*
G02*
X57927I-3006J0D01*
G01*
X63045Y130315D02*
G75*
G02*
X68663I2809J0D01*
G01*
G75*
G02*
X63045I-2809J0D01*
G01*
X66589Y76772D02*
G75*
G02*
X72207I2809J0D01*
G01*
G75*
G02*
X66589I-2809J0D01*
G01*
X75687Y157874D02*
G75*
G02*
X81305I2809J0D01*
G01*
G75*
G02*
X75687I-2809J0D01*
G01*
X88636Y144094D02*
G75*
G02*
X94254I2809J0D01*
G01*
G75*
G02*
X88636I-2809J0D01*
G01*
X89423Y120866D02*
G75*
G02*
X95041I2809J0D01*
G01*
G75*
G02*
X89423I-2809J0D01*
G01*
X93754Y155906D02*
G75*
G02*
X99372I2809J0D01*
G01*
G75*
G02*
X93754I-2809J0D01*
G01*
X98478Y71654D02*
G75*
G02*
X104096I2809J0D01*
G01*
G75*
G02*
X98478I-2809J0D01*
G01*
X96159Y208661D02*
G75*
G02*
X101778I2809J0D01*
G01*
G75*
G02*
X96159I-2809J0D01*
G01*
X101585Y103937D02*
G75*
G02*
X107203I2809J0D01*
G01*
G75*
G02*
X101585I-2809J0D01*
G01*
X105565Y68504D02*
G75*
G02*
X111183I2809J0D01*
G01*
G75*
G02*
X105565I-2809J0D01*
G01*
X103203Y188976D02*
G75*
G02*
X108821I2809J0D01*
G01*
G75*
G02*
X103203I-2809J0D01*
G01*
X111076Y239370D02*
G75*
G02*
X116694I2809J0D01*
G01*
G75*
G02*
X114429Y236615I-2809J0D01*
G01*
G75*
G02*
Y231103I-544J-2756D01*
G01*
G75*
G02*
X116694Y228347I-544J-2756D01*
G01*
G75*
G02*
X111076I-2809J0D01*
G01*
G75*
G02*
X113342Y231103I2809J0D01*
G01*
G75*
G02*
Y236615I544J2756D01*
G01*
G75*
G02*
X111076Y239370I544J2756D01*
G01*
X111939Y38859D02*
G75*
G02*
X121297I4679J0D01*
G01*
G75*
G02*
X111939I-4679J0D01*
G01*
X112529Y28859D02*
G75*
G02*
X120706I4089J0D01*
G01*
G75*
G02*
X112529I-4089J0D01*
G01*
X115407Y65355D02*
G75*
G02*
X121025I2809J0D01*
G01*
G75*
G02*
X115407I-2809J0D01*
G01*
X122529Y28859D02*
G75*
G02*
X130706I4089J0D01*
G01*
G75*
G02*
X122529I-4089J0D01*
G01*
Y38859D02*
G75*
G02*
X130706I4089J0D01*
G01*
G75*
G02*
X122529I-4089J0D01*
G01*
X132529Y28859D02*
G75*
G02*
X140706I4089J0D01*
G01*
G75*
G02*
X132529I-4089J0D01*
G01*
Y38859D02*
G75*
G02*
X140706I4089J0D01*
G01*
G75*
G02*
X132529I-4089J0D01*
G01*
X136667Y76772D02*
G75*
G02*
X142285I2809J0D01*
G01*
G75*
G02*
X136667I-2809J0D01*
G01*
X141939Y28859D02*
G75*
G02*
X151297I4679J0D01*
G01*
G75*
G02*
X141939I-4679J0D01*
G01*
X142529Y38859D02*
G75*
G02*
X150706I4089J0D01*
G01*
G75*
G02*
X142529I-4089J0D01*
G01*
X152529Y28859D02*
G75*
G02*
X160706I4089J0D01*
G01*
G75*
G02*
X152529I-4089J0D01*
G01*
Y38859D02*
G75*
G02*
X160706I4089J0D01*
G01*
G75*
G02*
X152529I-4089J0D01*
G01*
X154384Y224803D02*
G75*
G02*
X160002I2809J0D01*
G01*
G75*
G02*
X154384I-2809J0D01*
G01*
Y233858D02*
G75*
G02*
X160002I2809J0D01*
G01*
G75*
G02*
X154384I-2809J0D01*
G01*
X161470Y185039D02*
G75*
G02*
X167089I2809J0D01*
G01*
G75*
G02*
X161470I-2809J0D01*
G01*
X161939Y28859D02*
G75*
G02*
X171297I4679J0D01*
G01*
G75*
G02*
X161939I-4679J0D01*
G01*
X162529Y38859D02*
G75*
G02*
X170706I4089J0D01*
G01*
G75*
G02*
X162529I-4089J0D01*
G01*
X170131Y136221D02*
G75*
G02*
X175750I2809J0D01*
G01*
G75*
G02*
X170131I-2809J0D01*
G01*
X172529Y28859D02*
G75*
G02*
X180706I4089J0D01*
G01*
G75*
G02*
X172529I-4089J0D01*
G01*
Y38859D02*
G75*
G02*
X180706I4089J0D01*
G01*
G75*
G02*
X172529I-4089J0D01*
G01*
X178956Y91493D02*
G75*
G02*
X184411Y90551I2647J-941D01*
G01*
G75*
G02*
X179131Y89217I-2809J0D01*
G01*
G75*
G02*
X173675Y90158I-2647J941D01*
G01*
G75*
G02*
X178956Y91493I2809J0D01*
G01*
X181939Y38859D02*
G75*
G02*
X191297I4679J0D01*
G01*
G75*
G02*
X181939I-4679J0D01*
G01*
X182529Y28859D02*
G75*
G02*
X190706I4089J0D01*
G01*
G75*
G02*
X182529I-4089J0D01*
G01*
X174462Y72441D02*
G75*
G02*
X180080I2809J0D01*
G01*
G75*
G02*
X174462I-2809J0D01*
G01*
X192529Y28859D02*
G75*
G02*
X200706I4089J0D01*
G01*
G75*
G02*
X192529I-4089J0D01*
G01*
Y38859D02*
G75*
G02*
X200706I4089J0D01*
G01*
G75*
G02*
X192529I-4089J0D01*
G01*
X202529Y28859D02*
G75*
G02*
X210706I4089J0D01*
G01*
G75*
G02*
X202529I-4089J0D01*
G01*
Y38859D02*
G75*
G02*
X210706I4089J0D01*
G01*
G75*
G02*
X202529I-4089J0D01*
G01*
X206746Y220079D02*
G75*
G02*
X212364I2809J0D01*
G01*
G75*
G02*
X206746I-2809J0D01*
G01*
X208911Y99607D02*
G75*
G02*
X214530I2809J0D01*
G01*
G75*
G02*
X208911I-2809J0D01*
G01*
X211939Y28859D02*
G75*
G02*
X221297I4679J0D01*
G01*
G75*
G02*
X211939I-4679J0D01*
G01*
X212529Y38859D02*
G75*
G02*
X220706I4089J0D01*
G01*
G75*
G02*
X212529I-4089J0D01*
G01*
X213045Y84646D02*
G75*
G02*
X218663I2809J0D01*
G01*
G75*
G02*
X213045I-2809J0D01*
G01*
X222529Y28859D02*
G75*
G02*
X230706I4089J0D01*
G01*
G75*
G02*
X222529I-4089J0D01*
G01*
Y38859D02*
G75*
G02*
X230706I4089J0D01*
G01*
G75*
G02*
X222529I-4089J0D01*
G01*
X229899Y214439D02*
G75*
G02*
X234411Y212205I1703J-2234D01*
G01*
G75*
G02*
X228793I-2809J0D01*
G01*
G75*
G02*
X229368Y213908I2809J0D01*
G01*
G75*
G02*
X224856Y216142I-1703J2234D01*
G01*
G75*
G02*
X230474I2809J0D01*
G01*
G75*
G02*
X229899Y214439I-2809J0D01*
G01*
X232529Y28859D02*
G75*
G02*
X240706I4089J0D01*
G01*
G75*
G02*
X232529I-4089J0D01*
G01*
Y38859D02*
G75*
G02*
X240706I4089J0D01*
G01*
G75*
G02*
X232529I-4089J0D01*
G01*
X233809Y74410D02*
G75*
G02*
X239427I2809J0D01*
G01*
G75*
G02*
X233809I-2809J0D01*
G01*
X243771Y65663D02*
G75*
G02*
X249372Y65355I2792J-308D01*
G01*
G75*
G02*
X243843Y64653I-2809J0D01*
G01*
G75*
G02*
X238242Y64961I-2792J308D01*
G01*
G75*
G02*
X243771Y65663I2809J0D01*
G01*
X244935Y59843D02*
G75*
G02*
X250553I2809J0D01*
G01*
G75*
G02*
X244935I-2809J0D01*
G01*
X241939Y28859D02*
G75*
G02*
X251297I4679J0D01*
G01*
G75*
G02*
X241939I-4679J0D01*
G01*
X242529Y38859D02*
G75*
G02*
X250706I4089J0D01*
G01*
G75*
G02*
X242529I-4089J0D01*
G01*
X238636Y121654D02*
G75*
G02*
X244254I2809J0D01*
G01*
G75*
G02*
X238636I-2809J0D01*
G01*
X241392Y110630D02*
G75*
G02*
X247010I2809J0D01*
G01*
G75*
G02*
X241392I-2809J0D01*
G01*
X240998Y175591D02*
G75*
G02*
X246616I2809J0D01*
G01*
G75*
G02*
X240998I-2809J0D01*
G01*
X250447Y61811D02*
G75*
G02*
X256065I2809J0D01*
G01*
G75*
G02*
X250447I-2809J0D01*
G01*
X252529Y28859D02*
G75*
G02*
X260706I4089J0D01*
G01*
G75*
G02*
X252529I-4089J0D01*
G01*
Y38859D02*
G75*
G02*
X260706I4089J0D01*
G01*
G75*
G02*
X252529I-4089J0D01*
G01*
X250447Y81890D02*
G75*
G02*
X256065I2809J0D01*
G01*
G75*
G02*
X250447I-2809J0D01*
G01*
X261939Y38859D02*
G75*
G02*
X271297I4679J0D01*
G01*
G75*
G02*
X261939I-4679J0D01*
G01*
X262529Y28859D02*
G75*
G02*
X270706I4089J0D01*
G01*
G75*
G02*
X262529I-4089J0D01*
G01*
X262651Y53937D02*
G75*
G02*
X268269I2809J0D01*
G01*
G75*
G02*
X262651I-2809J0D01*
G01*
X267376Y182678D02*
G75*
G02*
X272994I2809J0D01*
G01*
G75*
G02*
X267376I-2809J0D01*
G01*
X272529Y28859D02*
G75*
G02*
X280706I4089J0D01*
G01*
G75*
G02*
X272529I-4089J0D01*
G01*
Y38859D02*
G75*
G02*
X280706I4089J0D01*
G01*
G75*
G02*
X272529I-4089J0D01*
G01*
X281939Y28859D02*
G75*
G02*
X291297I4679J0D01*
G01*
G75*
G02*
X281939I-4679J0D01*
G01*
X282529Y38859D02*
G75*
G02*
X290706I4089J0D01*
G01*
G75*
G02*
X282529I-4089J0D01*
G01*
X292529Y28859D02*
G75*
G02*
X300706I4089J0D01*
G01*
G75*
G02*
X292529I-4089J0D01*
G01*
Y38859D02*
G75*
G02*
X300706I4089J0D01*
G01*
G75*
G02*
X292529I-4089J0D01*
G01*
X302529Y28859D02*
G75*
G02*
X310706I4089J0D01*
G01*
G75*
G02*
X302529I-4089J0D01*
G01*
Y38859D02*
G75*
G02*
X310706I4089J0D01*
G01*
G75*
G02*
X302529I-4089J0D01*
G01*
X314226Y51575D02*
G75*
G02*
X319844I2809J0D01*
G01*
G75*
G02*
X314226I-2809J0D01*
G01*
X348955Y116924D02*
G75*
G02*
X344976Y111410I-1998J-2750D01*
G01*
Y106323D01*
G75*
G02*
X349766Y104331I1980J-1992D01*
G01*
G75*
G02*
X344976Y102339I-2809J0D01*
G01*
Y60236D01*
G75*
G02*
X339476Y54736I-5500J0D01*
G01*
X325697D01*
G75*
G02*
X320197Y60236I0J5500D01*
G01*
Y244488D01*
G75*
G02*
X325697Y249988I5500J0D01*
G01*
X339476D01*
G75*
G02*
X344976Y244488I0J-5500D01*
G01*
Y120890D01*
G75*
G02*
X348955Y116924I1980J-1992D01*
G01*
X349266Y38583D02*
G75*
G02*
X354884I2809J0D01*
G01*
G75*
G02*
X349266I-2809J0D01*
G01*
X326825Y49409D02*
G75*
G02*
X332837I3006J0D01*
G01*
G75*
G02*
X326825I-3006J0D01*
G01*
X332140Y18110D02*
G75*
G02*
X346813I7337J0D01*
G01*
G75*
G02*
X332140I-7337J0D01*
G01*
X355959Y162992D02*
G75*
G02*
X361577I2809J0D01*
G01*
G75*
G02*
X355959I-2809J0D01*
G01*
X359502Y103150D02*
G75*
G02*
X365120I2809J0D01*
G01*
G75*
G02*
X359502I-2809J0D01*
G01*
X9793Y18110D02*
G36*
X9793Y18110D02*
Y8328D01*
X11977Y6144D01*
X368156D01*
X370340Y8328D01*
Y18110D01*
X346813D01*
G75*
G02*
X332140I-7337J0D01*
G01*
X9793D01*
G37*
Y28859D02*
G36*
X9793Y28859D02*
Y18110D01*
X332140D01*
G75*
G02*
X346813I7337J0D01*
G01*
X370340D01*
Y28859D01*
X310706D01*
G75*
G02*
X302529I-4089J0D01*
G01*
X300706D01*
G75*
G02*
X292529I-4089J0D01*
G01*
X291297D01*
G75*
G02*
X281939I-4679J0D01*
G01*
X280706D01*
G75*
G02*
X272529I-4089J0D01*
G01*
X270706D01*
G75*
G02*
X262529I-4089J0D01*
G01*
X260706D01*
G75*
G02*
X252529I-4089J0D01*
G01*
X251297D01*
G75*
G02*
X241939I-4679J0D01*
G01*
X240706D01*
G75*
G02*
X232529I-4089J0D01*
G01*
X230706D01*
G75*
G02*
X222529I-4089J0D01*
G01*
X221297D01*
G75*
G02*
X211939I-4679J0D01*
G01*
X210706D01*
G75*
G02*
X202529I-4089J0D01*
G01*
X200706D01*
G75*
G02*
X192529I-4089J0D01*
G01*
X190706D01*
G75*
G02*
X182529I-4089J0D01*
G01*
X180706D01*
G75*
G02*
X172529I-4089J0D01*
G01*
X171297D01*
G75*
G02*
X161939I-4679J0D01*
G01*
X160706D01*
G75*
G02*
X152529I-4089J0D01*
G01*
X151297D01*
G75*
G02*
X141939I-4679J0D01*
G01*
X140706D01*
G75*
G02*
X132529I-4089J0D01*
G01*
X130706D01*
G75*
G02*
X122529I-4089J0D01*
G01*
X120706D01*
G75*
G02*
X112529I-4089J0D01*
G01*
X9793D01*
G37*
Y38859D02*
G36*
X9793Y38859D02*
Y28859D01*
X112529D01*
G75*
G02*
X120706I4089J0D01*
G01*
X122529D01*
G75*
G02*
X130706I4089J0D01*
G01*
X132529D01*
G75*
G02*
X140706I4089J0D01*
G01*
X141939D01*
G75*
G02*
X151297I4679J0D01*
G01*
X152529D01*
G75*
G02*
X160706I4089J0D01*
G01*
X161939D01*
G75*
G02*
X171297I4679J0D01*
G01*
X172529D01*
G75*
G02*
X180706I4089J0D01*
G01*
X182529D01*
G75*
G02*
X190706I4089J0D01*
G01*
X192529D01*
G75*
G02*
X200706I4089J0D01*
G01*
X202529D01*
G75*
G02*
X210706I4089J0D01*
G01*
X211939D01*
G75*
G02*
X221297I4679J0D01*
G01*
X222529D01*
G75*
G02*
X230706I4089J0D01*
G01*
X232529D01*
G75*
G02*
X240706I4089J0D01*
G01*
X241939D01*
G75*
G02*
X251297I4679J0D01*
G01*
X252529D01*
G75*
G02*
X260706I4089J0D01*
G01*
X262529D01*
G75*
G02*
X270706I4089J0D01*
G01*
X272529D01*
G75*
G02*
X280706I4089J0D01*
G01*
X281939D01*
G75*
G02*
X291297I4679J0D01*
G01*
X292529D01*
G75*
G02*
X300706I4089J0D01*
G01*
X302529D01*
G75*
G02*
X310706I4089J0D01*
G01*
X370340D01*
Y38859D01*
X354870D01*
G75*
G02*
X354884Y38583I-2796J-278D01*
G01*
G75*
G02*
X349266I-2809J0D01*
G01*
G75*
G02*
X349280Y38859I2809J-2D01*
G01*
X310706D01*
G75*
G02*
X302529I-4089J0D01*
G01*
X300706D01*
G75*
G02*
X292529I-4089J0D01*
G01*
X290706D01*
G75*
G02*
X282529I-4089J0D01*
G01*
X280706D01*
G75*
G02*
X272529I-4089J0D01*
G01*
X271297D01*
G75*
G02*
X261939I-4679J0D01*
G01*
X260706D01*
G75*
G02*
X252529I-4089J0D01*
G01*
X250706D01*
G75*
G02*
X242529I-4089J0D01*
G01*
X240706D01*
G75*
G02*
X232529I-4089J0D01*
G01*
X230706D01*
G75*
G02*
X222529I-4089J0D01*
G01*
X220706D01*
G75*
G02*
X212529I-4089J0D01*
G01*
X210706D01*
G75*
G02*
X202529I-4089J0D01*
G01*
X200706D01*
G75*
G02*
X192529I-4089J0D01*
G01*
X191297D01*
G75*
G02*
X181939I-4679J0D01*
G01*
X180706D01*
G75*
G02*
X172529I-4089J0D01*
G01*
X170706D01*
G75*
G02*
X162529I-4089J0D01*
G01*
X160706D01*
G75*
G02*
X152529I-4089J0D01*
G01*
X150706D01*
G75*
G02*
X142529I-4089J0D01*
G01*
X140706D01*
G75*
G02*
X132529I-4089J0D01*
G01*
X130706D01*
G75*
G02*
X122529I-4089J0D01*
G01*
X121297D01*
G75*
G02*
X111939I-4679J0D01*
G01*
X9793D01*
G37*
Y49409D02*
G36*
X9793Y49409D02*
Y38859D01*
X111939D01*
G75*
G02*
X121297I4679J0D01*
G01*
X122529D01*
G75*
G02*
X130706I4089J0D01*
G01*
X132529D01*
G75*
G02*
X140706I4089J0D01*
G01*
X142529D01*
G75*
G02*
X150706I4089J0D01*
G01*
X152529D01*
G75*
G02*
X160706I4089J0D01*
G01*
X162529D01*
G75*
G02*
X170706I4089J0D01*
G01*
X172529D01*
G75*
G02*
X180706I4089J0D01*
G01*
X181939D01*
G75*
G02*
X191297I4679J0D01*
G01*
X192529D01*
G75*
G02*
X200706I4089J0D01*
G01*
X202529D01*
G75*
G02*
X210706I4089J0D01*
G01*
X212529D01*
G75*
G02*
X220706I4089J0D01*
G01*
X222529D01*
G75*
G02*
X230706I4089J0D01*
G01*
X232529D01*
G75*
G02*
X240706I4089J0D01*
G01*
X242529D01*
G75*
G02*
X250706I4089J0D01*
G01*
X252529D01*
G75*
G02*
X260706I4089J0D01*
G01*
X261939D01*
G75*
G02*
X271297I4679J0D01*
G01*
X272529D01*
G75*
G02*
X280706I4089J0D01*
G01*
X282529D01*
G75*
G02*
X290706I4089J0D01*
G01*
X292529D01*
G75*
G02*
X300706I4089J0D01*
G01*
X302529D01*
G75*
G02*
X310706I4089J0D01*
G01*
X349280D01*
G75*
G02*
X354870I2795J-276D01*
G01*
X370340D01*
Y49409D01*
X332837D01*
G75*
G02*
X326825I-3006J0D01*
G01*
X318824D01*
G75*
G02*
X315246I-1789J2166D01*
G01*
X63939D01*
G75*
G02*
X57927I-3006J0D01*
G01*
X9793D01*
G37*
Y53937D02*
G36*
X9793Y53937D02*
Y49409D01*
X57927D01*
G75*
G02*
X63939I3006J0D01*
G01*
X315246D01*
G75*
G02*
X314226Y51575I1789J2166D01*
G01*
G75*
G02*
X315515Y53937I2809J0D01*
G01*
X268269D01*
G75*
G02*
X262651I-2809J0D01*
G01*
X9793D01*
G37*
X319844Y51575D02*
G36*
X319844Y51575D02*
G75*
G02*
X318824Y49409I-2809J0D01*
G01*
X326825D01*
G75*
G02*
X332837I3006J0D01*
G01*
X370340D01*
Y53937D01*
X318555D01*
G75*
G02*
X319844Y51575I-1520J-2362D01*
G01*
G37*
X9793Y59843D02*
G36*
X9793Y59843D02*
Y53937D01*
X262651D01*
G75*
G02*
X268269I2809J0D01*
G01*
X315515D01*
G75*
G02*
X318555I1520J-2362D01*
G01*
X370340D01*
Y59843D01*
X344962D01*
G75*
G02*
X339476Y54736I-5486J394D01*
G01*
X325697D01*
G75*
G02*
X320211Y59843I0J5500D01*
G01*
X255260D01*
G75*
G02*
X251252I-2004J1969D01*
G01*
X250553D01*
G75*
G02*
X244935I-2809J0D01*
G01*
X9793D01*
G37*
Y64606D02*
G36*
X9793Y64606D02*
Y59843D01*
X244935D01*
G75*
G02*
X250553I2809J0D01*
G01*
X251252D01*
G75*
G02*
X250447Y61811I2004J1969D01*
G01*
G75*
G02*
X252974Y64606I2809J0D01*
G01*
X249270D01*
G75*
G02*
X243856I-2707J748D01*
G01*
X243837D01*
G75*
G02*
X238264I-2787J355D01*
G01*
X120924D01*
G75*
G02*
X115509I-2707J748D01*
G01*
X45849D01*
G75*
G02*
X41765I-2042J1929D01*
G01*
X31175D01*
G75*
G02*
X26541I-2317J0D01*
G01*
X9793D01*
G37*
X256065Y61811D02*
G36*
X256065Y61811D02*
G75*
G02*
X255260Y59843I-2809J0D01*
G01*
X320211D01*
G75*
G02*
X320197Y60236I5487J394D01*
G01*
Y64606D01*
X253538D01*
G75*
G02*
X256065Y61811I-282J-2795D01*
G01*
G37*
X344976Y60236D02*
G36*
X344976Y60236D02*
G75*
G02*
X344962Y59843I-5501J1D01*
G01*
X370340D01*
Y64606D01*
X344976D01*
Y60236D01*
G37*
X9793Y68504D02*
G36*
X9793Y68504D02*
Y64606D01*
X26541D01*
G75*
G02*
X31175I2317J0D01*
G01*
X41765D01*
G75*
G02*
X40998Y66535I2042J1929D01*
G01*
G75*
G02*
X41804Y68504I2809J0D01*
G01*
X9793D01*
G37*
X46616Y66535D02*
G36*
X46616Y66535D02*
G75*
G02*
X45849Y64606I-2809J0D01*
G01*
X115509D01*
G75*
G02*
X115407Y65355I2707J748D01*
G01*
G75*
G02*
X121025I2809J0D01*
G01*
G75*
G02*
X120924Y64606I-2809J0D01*
G01*
X238264D01*
G75*
G02*
X238242Y64961I2787J354D01*
G01*
G75*
G02*
X243771Y65663I2809J0D01*
G01*
G75*
G02*
X249372Y65355I2792J-308D01*
G01*
G75*
G02*
X249270Y64606I-2809J0D01*
G01*
X252974D01*
G75*
G02*
X253538I282J-2796D01*
G01*
X320197D01*
Y68504D01*
X111183D01*
G75*
G02*
X105565I-2809J0D01*
G01*
X45811D01*
G75*
G02*
X46616Y66535I-2004J-1969D01*
G01*
G37*
X243843Y64653D02*
G36*
X243843Y64653D02*
G75*
G02*
X243837Y64606I-2793J305D01*
G01*
X243856D01*
G75*
G02*
X243843Y64653I2708J753D01*
G01*
G37*
X344976Y68504D02*
G36*
X344976Y68504D02*
Y64606D01*
X370340D01*
Y68504D01*
X344976D01*
G37*
X9793Y71654D02*
G36*
X9793Y71654D02*
Y68504D01*
X41804D01*
G75*
G02*
X45811I2004J-1969D01*
G01*
X105565D01*
G75*
G02*
X111183I2809J0D01*
G01*
X320197D01*
Y71654D01*
X237161D01*
G75*
G02*
X236074I-544J2755D01*
G01*
X179968D01*
G75*
G02*
X174575I-2696J787D01*
G01*
X104096D01*
G75*
G02*
X98478I-2809J0D01*
G01*
X9793D01*
G37*
X344976D02*
G36*
X344976Y71654D02*
Y68504D01*
X370340D01*
Y71654D01*
X344976D01*
G37*
X9793Y76772D02*
G36*
X9793Y76772D02*
Y71654D01*
X98478D01*
G75*
G02*
X104096I2809J0D01*
G01*
X174575D01*
G75*
G02*
X174462Y72441I2696J787D01*
G01*
G75*
G02*
X180080I2809J0D01*
G01*
G75*
G02*
X179968Y71654I-2809J0D01*
G01*
X236074D01*
G75*
G02*
X233809Y74410I544J2756D01*
G01*
G75*
G02*
X235097Y76772I2809J0D01*
G01*
X142285D01*
G75*
G02*
X136667I-2809J0D01*
G01*
X72207D01*
G75*
G02*
X66589I-2809J0D01*
G01*
X9793D01*
G37*
X239427Y74410D02*
G36*
X239427Y74410D02*
G75*
G02*
X237161Y71654I-2809J0D01*
G01*
X320197D01*
Y76772D01*
X238139D01*
G75*
G02*
X239427Y74410I-1521J-2362D01*
G01*
G37*
X344976Y76772D02*
G36*
X344976Y76772D02*
Y71654D01*
X370340D01*
Y76772D01*
X344976D01*
G37*
X9793Y81890D02*
G36*
X9793Y81890D02*
Y76772D01*
X66589D01*
G75*
G02*
X72207I2809J0D01*
G01*
X136667D01*
G75*
G02*
X142285I2809J0D01*
G01*
X235097D01*
G75*
G02*
X238139I1521J-2362D01*
G01*
X320197D01*
Y81890D01*
X256065D01*
G75*
G02*
X250447I-2809J0D01*
G01*
X216396D01*
G75*
G02*
X215312I-542J2756D01*
G01*
X9793D01*
G37*
X344976D02*
G36*
X344976Y81890D02*
Y76772D01*
X370340D01*
Y81890D01*
X344976D01*
G37*
X9793Y84646D02*
G36*
X9793Y84646D02*
Y81890D01*
X215312D01*
G75*
G02*
X213045Y84646I542J2756D01*
G01*
X9793D01*
G37*
X218663D02*
G36*
X218663Y84646D02*
G75*
G02*
X216396Y81890I-2809J0D01*
G01*
X250447D01*
G75*
G02*
X252714Y84646I2809J0D01*
G01*
X218663D01*
G37*
X253798D02*
G36*
X253798Y84646D02*
G75*
G02*
X256065Y81890I-542J-2756D01*
G01*
X320197D01*
Y84646D01*
X253798D01*
G37*
X344976D02*
G36*
X344976Y84646D02*
Y81890D01*
X370340D01*
Y84646D01*
X344976D01*
G37*
X9793Y87362D02*
G36*
X9793Y87362D02*
Y84646D01*
X213045D01*
G75*
G02*
X215137Y87362I2809J0D01*
G01*
X176757D01*
G75*
G02*
X176210I-274J2796D01*
G01*
X45772D01*
G75*
G02*
X41843I-1965J2008D01*
G01*
X31175D01*
G75*
G02*
X26541I-2317J0D01*
G01*
X9793D01*
G37*
X216570D02*
G36*
X216570Y87362D02*
G75*
G02*
X218663Y84646I-717J-2716D01*
G01*
X252714D01*
G75*
G02*
X253798I542J-2756D01*
G01*
X320197D01*
Y87362D01*
X216570D01*
G37*
X344976D02*
G36*
X344976Y87362D02*
Y84646D01*
X370340D01*
Y87362D01*
X344976D01*
G37*
X9793Y90354D02*
G36*
X9793Y90354D02*
Y87362D01*
X26541D01*
G75*
G02*
X31175I2317J0D01*
G01*
X41843D01*
G75*
G02*
X40998Y89370I1965J2008D01*
G01*
G75*
G02*
X41176Y90354I2809J0D01*
G01*
X9793D01*
G37*
X46616Y89370D02*
G36*
X46616Y89370D02*
G75*
G02*
X45772Y87362I-2809J0D01*
G01*
X176210D01*
G75*
G02*
X173675Y90158I274J2796D01*
G01*
G75*
G02*
X173682Y90354I2809J-3D01*
G01*
X46438D01*
G75*
G02*
X46616Y89370I-2631J-984D01*
G01*
G37*
X179131Y89217D02*
G36*
X179131Y89217D02*
G75*
G02*
X176757Y87362I-2647J942D01*
G01*
X215137D01*
G75*
G02*
X216570I717J-2716D01*
G01*
X320197D01*
Y90354D01*
X184404D01*
G75*
G02*
X179131Y89217I-2802J197D01*
G01*
G37*
X344976Y90354D02*
G36*
X344976Y90354D02*
Y87362D01*
X370340D01*
Y90354D01*
X344976D01*
G37*
X9793Y99607D02*
G36*
X9793Y99607D02*
Y90354D01*
X41176D01*
G75*
G02*
X46438I2631J-984D01*
G01*
X173682D01*
G75*
G02*
X178956Y91493I2802J-197D01*
G01*
G75*
G02*
X184411Y90551I2647J-941D01*
G01*
G75*
G02*
X184404Y90354I-2809J3D01*
G01*
X320197D01*
Y99607D01*
X214530D01*
G75*
G02*
X208911I-2809J0D01*
G01*
X9793D01*
G37*
X344976D02*
G36*
X344976Y99607D02*
Y90354D01*
X370340D01*
Y99607D01*
X344976D01*
G37*
X9793Y103937D02*
G36*
X9793Y103937D02*
Y99607D01*
X208911D01*
G75*
G02*
X214530I2809J0D01*
G01*
X320197D01*
Y103937D01*
X107203D01*
G75*
G02*
X101585I-2809J0D01*
G01*
X9793D01*
G37*
X344976Y102339D02*
G36*
X344976Y102339D02*
Y99607D01*
X370340D01*
Y103937D01*
X365007D01*
G75*
G02*
X365120Y103150I-2696J-787D01*
G01*
G75*
G02*
X359502I-2809J0D01*
G01*
G75*
G02*
X359615Y103937I2809J0D01*
G01*
X349738D01*
G75*
G02*
X344976Y102339I-2781J394D01*
G01*
G37*
X9793Y110630D02*
G36*
X9793Y110630D02*
Y103937D01*
X101585D01*
G75*
G02*
X107203I2809J0D01*
G01*
X320197D01*
Y110630D01*
X247010D01*
G75*
G02*
X241392I-2809J0D01*
G01*
X9793D01*
G37*
X344976D02*
G36*
X344976Y110630D02*
Y106323D01*
G75*
G02*
X349766Y104331I1980J-1992D01*
G01*
G75*
G02*
X349738Y103937I-2810J-1D01*
G01*
X359615D01*
G75*
G02*
X365007I2696J-787D01*
G01*
X370340D01*
Y110630D01*
X344976D01*
G37*
X9793Y120866D02*
G36*
X9793Y120866D02*
Y110630D01*
X241392D01*
G75*
G02*
X247010I2809J0D01*
G01*
X320197D01*
Y120866D01*
X244141D01*
G75*
G02*
X238748I-2696J787D01*
G01*
X95041D01*
G75*
G02*
X89423I-2809J0D01*
G01*
X9793D01*
G37*
X344976Y111410D02*
G36*
X344976Y111410D02*
Y110630D01*
X370340D01*
Y120866D01*
X348961D01*
G75*
G02*
X349766Y118898I-2004J-1969D01*
G01*
G75*
G02*
X348955Y116924I-2809J0D01*
G01*
G75*
G02*
X350357Y114173I-1998J-2750D01*
G01*
G75*
G02*
X344976Y111410I-3400J0D01*
G01*
G37*
X9793Y129134D02*
G36*
X9793Y129134D02*
Y120866D01*
X89423D01*
G75*
G02*
X95041I2809J0D01*
G01*
X238748D01*
G75*
G02*
X238636Y121654I2696J787D01*
G01*
G75*
G02*
X244254I2809J0D01*
G01*
G75*
G02*
X244141Y120866I-2809J0D01*
G01*
X320197D01*
Y129134D01*
X68403D01*
G75*
G02*
X63306I-2549J1181D01*
G01*
X23388D01*
G75*
G02*
X17770I-2809J0D01*
G01*
X9793D01*
G37*
X344976D02*
G36*
X344976Y129134D02*
Y120890D01*
G75*
G02*
X348961Y120866I1980J-1992D01*
G01*
X370340D01*
Y129134D01*
X344976D01*
G37*
X9793Y136221D02*
G36*
X9793Y136221D02*
Y129134D01*
X17770D01*
G75*
G02*
X23388I2809J0D01*
G01*
X63306D01*
G75*
G02*
X63045Y130315I2549J1181D01*
G01*
G75*
G02*
X68663I2809J0D01*
G01*
G75*
G02*
X68403Y129134I-2809J0D01*
G01*
X320197D01*
Y136221D01*
X175750D01*
G75*
G02*
X170131I-2809J0D01*
G01*
X9793D01*
G37*
X344976D02*
G36*
X344976Y136221D02*
Y129134D01*
X370340D01*
Y136221D01*
X344976D01*
G37*
X9793Y144094D02*
G36*
X9793Y144094D02*
Y136221D01*
X170131D01*
G75*
G02*
X175750I2809J0D01*
G01*
X320197D01*
Y144094D01*
X94254D01*
G75*
G02*
X88636I-2809J0D01*
G01*
X9793D01*
G37*
X344976D02*
G36*
X344976Y144094D02*
Y136221D01*
X370340D01*
Y144094D01*
X344976D01*
G37*
X9793Y157874D02*
G36*
X9793Y157874D02*
Y144094D01*
X88636D01*
G75*
G02*
X94254I2809J0D01*
G01*
X320197D01*
Y157874D01*
X98567D01*
G75*
G02*
X99372Y155906I-2004J-1969D01*
G01*
G75*
G02*
X93754I-2809J0D01*
G01*
G75*
G02*
X94559Y157874I2809J0D01*
G01*
X81305D01*
G75*
G02*
X75687I-2809J0D01*
G01*
X9793D01*
G37*
X344976D02*
G36*
X344976Y157874D02*
Y144094D01*
X370340D01*
Y157874D01*
X344976D01*
G37*
X9793Y162992D02*
G36*
X9793Y162992D02*
Y157874D01*
X75687D01*
G75*
G02*
X81305I2809J0D01*
G01*
X94559D01*
G75*
G02*
X98567I2004J-1969D01*
G01*
X320197D01*
Y162992D01*
X9793D01*
G37*
X344976D02*
G36*
X344976Y162992D02*
Y157874D01*
X370340D01*
Y162992D01*
X361577D01*
G75*
G02*
X355959I-2809J0D01*
G01*
X344976D01*
G37*
X9793Y175591D02*
G36*
X9793Y175591D02*
Y162992D01*
X320197D01*
Y175591D01*
X246616D01*
G75*
G02*
X240998I-2809J0D01*
G01*
X9793D01*
G37*
X344976D02*
G36*
X344976Y175591D02*
Y162992D01*
X355959D01*
G75*
G02*
X361577I2809J0D01*
G01*
X370340D01*
Y175591D01*
X344976D01*
G37*
X9793Y185039D02*
G36*
X9793Y185039D02*
Y175591D01*
X240998D01*
G75*
G02*
X246616I2809J0D01*
G01*
X320197D01*
Y185039D01*
X271706D01*
G75*
G02*
X272994Y182678I-1521J-2362D01*
G01*
G75*
G02*
X267376I-2809J0D01*
G01*
G75*
G02*
X268664Y185039I2809J0D01*
G01*
X167089D01*
G75*
G02*
X161470I-2809J0D01*
G01*
X9793D01*
G37*
X344976D02*
G36*
X344976Y185039D02*
Y175591D01*
X370340D01*
Y185039D01*
X344976D01*
G37*
X9793Y188976D02*
G36*
X9793Y188976D02*
Y185039D01*
X161470D01*
G75*
G02*
X167089I2809J0D01*
G01*
X268664D01*
G75*
G02*
X271706I1521J-2362D01*
G01*
X320197D01*
Y188976D01*
X108821D01*
G75*
G02*
X103203I-2809J0D01*
G01*
X9793D01*
G37*
X344976D02*
G36*
X344976Y188976D02*
Y185039D01*
X370340D01*
Y188976D01*
X344976D01*
G37*
X9793Y208661D02*
G36*
X9793Y208661D02*
Y188976D01*
X103203D01*
G75*
G02*
X108821I2809J0D01*
G01*
X320197D01*
Y208661D01*
X101778D01*
G75*
G02*
X96159I-2809J0D01*
G01*
X9793D01*
G37*
X344976D02*
G36*
X344976Y208661D02*
Y188976D01*
X370340D01*
Y208661D01*
X344976D01*
G37*
X9793Y214173D02*
G36*
X9793Y214173D02*
Y208661D01*
X96159D01*
G75*
G02*
X101778I2809J0D01*
G01*
X320197D01*
Y214173D01*
X233606D01*
G75*
G02*
X234411Y212205I-2004J-1969D01*
G01*
G75*
G02*
X228793I-2809J0D01*
G01*
Y212205D01*
G75*
G02*
X229368Y213908I2808J0D01*
G01*
G75*
G02*
X225661Y214173I-1703J2234D01*
G01*
X9793D01*
G37*
X344976D02*
G36*
X344976Y214173D02*
Y208661D01*
X370340D01*
Y214173D01*
X344976D01*
G37*
X9793Y220079D02*
G36*
X9793Y220079D02*
Y214173D01*
X225661D01*
G75*
G02*
X224856Y216142I2004J1969D01*
G01*
G75*
G02*
X230474I2809J0D01*
G01*
Y216141D01*
G75*
G02*
X229899Y214439I-2808J0D01*
G01*
G75*
G02*
X233606Y214173I1703J-2234D01*
G01*
X320197D01*
Y220079D01*
X212364D01*
G75*
G02*
X206746I-2809J0D01*
G01*
X9793D01*
G37*
X344976D02*
G36*
X344976Y220079D02*
Y214173D01*
X370340D01*
Y220079D01*
X344976D01*
G37*
X9793Y224803D02*
G36*
X9793Y224803D02*
Y220079D01*
X206746D01*
G75*
G02*
X212364I2809J0D01*
G01*
X320197D01*
Y224803D01*
X160002D01*
G75*
G02*
X154384I-2809J0D01*
G01*
X9793D01*
G37*
X344976D02*
G36*
X344976Y224803D02*
Y220079D01*
X370340D01*
Y224803D01*
X344976D01*
G37*
X9793Y233859D02*
G36*
X9793Y233859D02*
Y224803D01*
X154384D01*
G75*
G02*
X160002I2809J0D01*
G01*
X320197D01*
Y233859D01*
X160002D01*
Y233858D01*
G75*
G02*
X154384I-2809J0D01*
G01*
Y233859D01*
X116694D01*
G75*
G02*
X114429Y231103I-2809J0D01*
G01*
G75*
G02*
X116694Y228347I-543J-2756D01*
G01*
Y228347D01*
G75*
G02*
X111076I-2809J0D01*
G01*
Y228347D01*
G75*
G02*
X113342Y231103I2809J0D01*
G01*
G75*
G02*
X111076Y233859I544J2756D01*
G01*
X9793D01*
G37*
X344976D02*
G36*
X344976Y233859D02*
Y224803D01*
X370340D01*
Y233859D01*
X344976D01*
G37*
X9793Y242520D02*
G36*
X9793Y242520D02*
Y233859D01*
X111076D01*
G75*
G02*
X113342Y236615I2809J0D01*
G01*
G75*
G02*
X111076Y239370I543J2756D01*
G01*
Y239370D01*
G75*
G02*
X116694I2809J0D01*
G01*
Y239370D01*
G75*
G02*
X114429Y236615I-2809J0D01*
G01*
G75*
G02*
X116694Y233859I-544J-2756D01*
G01*
X154384D01*
G75*
G02*
X160002I2809J0D01*
G01*
X320197D01*
Y242520D01*
X63933D01*
G75*
G02*
X57933I-3000J196D01*
G01*
X29096D01*
G75*
G02*
X14423I-7337J0D01*
G01*
X9793D01*
G37*
X344976D02*
G36*
X344976Y242520D02*
Y233859D01*
X370340D01*
Y242520D01*
X344976D01*
G37*
X9793Y252303D02*
G36*
X9793Y252303D02*
Y242520D01*
X14423D01*
G75*
G02*
X29096I7337J0D01*
G01*
X57933D01*
G75*
G02*
X57927Y242717I3000J194D01*
G01*
G75*
G02*
X63939I3006J0D01*
G01*
G75*
G02*
X63933Y242520I-3006J-2D01*
G01*
X320197D01*
Y244488D01*
G75*
G02*
X325697Y249988I5500J0D01*
G01*
X339476D01*
G75*
G02*
X344976Y244488I0J-5500D01*
G01*
Y242520D01*
X370340D01*
Y252303D01*
X368156Y254487D01*
X11977D01*
X9793Y252303D01*
G37*
D02*
D111*
X114059Y38859D02*
X111696D01*
X116618Y36300D02*
Y33937D01*
Y41418D02*
Y43780D01*
X119177Y38859D02*
X121539D01*
X144059Y28859D02*
X141696D01*
X146618Y26300D02*
Y23937D01*
Y31418D02*
Y33780D01*
X149177Y28859D02*
X151539D01*
X164059D02*
X161696D01*
X166618Y26300D02*
Y23937D01*
Y31418D02*
Y33780D01*
X169177Y28859D02*
X171539D01*
X184059Y38859D02*
X181696D01*
X186618Y36300D02*
Y33937D01*
Y41418D02*
Y43780D01*
X189177Y38859D02*
X191539D01*
X214059Y28859D02*
X211696D01*
X216618Y26300D02*
Y23937D01*
Y31418D02*
Y33780D01*
X219177Y28859D02*
X221539D01*
X244059D02*
X241696D01*
X246618Y26300D02*
Y23937D01*
Y31418D02*
Y33780D01*
X249177Y28859D02*
X251539D01*
X264059Y38859D02*
X261696D01*
X266618Y36300D02*
Y33937D01*
Y41418D02*
Y43780D01*
X269177Y38859D02*
X271539D01*
X284059Y28859D02*
X281696D01*
X286618Y26300D02*
Y23937D01*
Y31418D02*
Y33780D01*
X289177Y28859D02*
X291539D01*
X346957Y112894D02*
Y110531D01*
X348236Y114173D02*
X350598D01*
D02*
D112*
X17035Y67717D03*
X20579Y129134D03*
X22547Y11811D03*
Y27559D03*
X24122Y107874D03*
X30028Y32677D03*
Y120079D03*
X30421Y157087D03*
X30815Y196457D03*
X37508Y11811D03*
Y27559D03*
X39870Y61417D03*
X41445Y96457D03*
X43020Y14173D03*
Y25197D03*
X43413Y132283D03*
X43807Y66535D03*
Y89370D03*
X61130Y110630D03*
X64279Y14173D03*
Y26378D03*
Y33465D03*
Y39764D03*
Y45276D03*
X65460Y51969D03*
X65854Y130315D03*
X69398Y76772D03*
X69791Y14567D03*
X76878D03*
Y25984D03*
Y34252D03*
X77665Y171654D03*
X78496Y157874D03*
X82389Y20079D03*
Y39764D03*
Y45669D03*
Y50788D03*
X82783Y197244D03*
X88295Y52363D03*
X88295Y129134D03*
X91445Y144094D03*
X91838Y57481D03*
X92232Y120866D03*
X93020Y114567D03*
Y185433D03*
X96563Y155906D03*
X98969Y208661D03*
X101287Y71654D03*
X104394Y103937D03*
X106012Y188976D03*
X108374Y68504D03*
X108768Y112992D03*
X112311Y201575D03*
X113885Y228347D03*
Y233859D03*
Y239370D03*
X116642Y218898D03*
X118216Y65355D03*
X119398Y200000D03*
X122153Y47638D03*
X123728Y98031D03*
X125697Y157874D03*
Y212598D03*
X139476Y70079D03*
Y76772D03*
X148925Y167323D03*
X150894Y190157D03*
X156405Y14174D03*
X157193Y172441D03*
Y224803D03*
Y233858D03*
Y242913D03*
X161524Y118504D03*
Y157874D03*
X164280Y185039D03*
X172941Y136221D03*
X174122Y188976D03*
X176091Y229134D03*
X176484Y52363D03*
Y90158D03*
X177271Y72441D03*
X180028Y169685D03*
X181602Y90551D03*
X188689Y56693D03*
X191839Y173622D03*
X200894Y118504D03*
Y197244D03*
X209555Y220079D03*
Y243701D03*
X211720Y99607D03*
X213098Y208268D03*
X215854Y84646D03*
X217823Y103150D03*
X221563Y88976D03*
X224516Y152362D03*
Y165748D03*
Y178346D03*
X226090Y50000D03*
X227665Y216142D03*
X231602Y212205D03*
X236618Y74410D03*
X240264Y79134D03*
Y157874D03*
X241051Y64961D03*
X241445Y121654D03*
X243807Y175591D03*
X244201Y104724D03*
Y110630D03*
Y197244D03*
Y236614D03*
X246563Y65355D03*
X247744Y59843D03*
X253256Y61811D03*
Y81890D03*
X265460Y53937D03*
X265854Y14174D03*
X270185Y182678D03*
X279634Y79134D03*
Y118504D03*
Y157874D03*
Y236614D03*
X280421Y12993D03*
X283177Y196851D03*
X299712Y54725D03*
X304437Y21260D03*
X317035Y51575D03*
X317035Y79134D03*
Y118504D03*
Y157874D03*
Y197244D03*
Y236614D03*
X346957Y104331D03*
Y114173D03*
Y118898D03*
X347350Y161024D03*
X352075Y38583D03*
X358374Y197244D03*
Y236614D03*
X358768Y162992D03*
X362311Y103150D03*
X364280Y125197D03*
X366642Y165354D03*
X367429Y33858D03*
X367823Y71654D03*
D02*
D114*
X116618Y28859D03*
Y38859D03*
X126618Y28859D03*
Y38859D03*
X136618Y28859D03*
Y38859D03*
X146618Y28859D03*
Y38859D03*
X156618Y28859D03*
Y38859D03*
X166618Y28859D03*
Y38859D03*
X176618Y28859D03*
Y38859D03*
X186618Y28859D03*
Y38859D03*
X196618Y28859D03*
Y38859D03*
X206618Y28859D03*
Y38859D03*
X216618Y28859D03*
Y38859D03*
X226618Y28859D03*
Y38859D03*
X236618Y28859D03*
Y38859D03*
X246618Y28859D03*
Y38859D03*
X256618Y28859D03*
Y38859D03*
X266618Y28859D03*
Y38859D03*
X276618Y28859D03*
Y38859D03*
X286618Y28859D03*
Y38859D03*
X296618Y28859D03*
Y38859D03*
X306618Y28859D03*
Y38859D03*
X0Y0D02*
M02*
