G04 DesignSpark PCB PRO Gerber Version 10.0 Build 5299*
G04 #@! TF.Part,Single*
G04 #@! TF.FileFunction,Drillmap*
G04 #@! TF.FilePolarity,Positive*
%FSLAX35Y35*%
%MOIN*%
%ADD119C,0.00500*%
G04 #@! TA.AperFunction,ViaPad*
%ADD118C,0.10000*%
G04 #@! TD.AperFunction*
X0Y0D02*
D02*
D118*
X20578Y73229D03*
X20579Y129134D03*
X21759Y242520D03*
X22547Y11811D03*
Y27559D03*
X24122Y107874D03*
X26287Y44095D03*
X28059Y141733D03*
Y148819D03*
X28858Y64606D03*
Y87362D03*
X29240Y216339D03*
X30028Y32677D03*
Y120079D03*
X30421Y157087D03*
X30815Y196457D03*
X37508Y11811D03*
Y27559D03*
X39870Y59646D03*
X41051Y245276D03*
X43020Y14173D03*
Y25197D03*
X43216Y96063D03*
X43413Y66536D03*
Y87993D03*
X46838Y144134D03*
X56799Y236221D03*
X60933Y49409D03*
X60933Y242717D03*
X64279Y14173D03*
Y26378D03*
Y33465D03*
Y39764D03*
Y45276D03*
X65067Y110630D03*
X65460Y51969D03*
X69398Y80512D03*
X69791Y14567D03*
X71759Y230315D03*
X74319Y157087D03*
X74909Y186811D03*
Y224804D03*
X76878Y14567D03*
Y25984D03*
Y34252D03*
X77665Y215158D03*
X82193Y122638D03*
X82389Y20079D03*
Y39764D03*
Y45669D03*
Y50788D03*
X82783Y114567D03*
X86960Y192914D03*
Y199607D03*
X88295Y52363D03*
X91838Y57481D03*
X99515Y122638D03*
X100500Y107874D03*
X101287Y71654D03*
X104633Y68504D03*
X106208Y138189D03*
X106405Y155512D03*
Y173622D03*
Y205119D03*
Y244489D03*
X108177Y65355D03*
X113098Y99213D03*
X116618Y28859D03*
Y38859D03*
X116641Y47244D03*
X117822Y80512D03*
X118019Y73820D03*
X123728Y10040D03*
X125696Y204725D03*
X126618Y28859D03*
Y38859D03*
X131208Y168504D03*
X133374Y117323D03*
X134751Y145276D03*
X136618Y28859D03*
Y38859D03*
X139870Y162205D03*
X141444Y212224D03*
X141838Y79922D03*
Y181299D03*
Y188189D03*
X146618Y28859D03*
Y38859D03*
X151680Y229135D03*
Y234646D03*
Y240158D03*
X154437Y124804D03*
X154830Y181496D03*
X155224Y222835D03*
X156618Y28859D03*
Y38859D03*
X161523Y76378D03*
X165854Y159449D03*
X166618Y28859D03*
Y38859D03*
X169004Y187008D03*
X169791Y181103D03*
X173137Y92323D03*
X174122Y188976D03*
X175303Y52363D03*
X176618Y28859D03*
Y38859D03*
X178846Y195276D03*
X180028Y169685D03*
X186618Y28859D03*
Y38859D03*
X189082Y68111D03*
X189476Y95670D03*
X194988Y225591D03*
Y234646D03*
Y243701D03*
X196618Y28859D03*
Y38859D03*
X197744Y55906D03*
Y60237D03*
X200894Y127559D03*
X206618Y28859D03*
Y38859D03*
X211720Y99607D03*
X213098Y208268D03*
X213295Y234646D03*
X213492Y242126D03*
X214279Y220079D03*
X215854Y84646D03*
X216618Y28859D03*
Y38859D03*
X219004Y55906D03*
Y60237D03*
X223925Y191733D03*
X224516Y152362D03*
Y165748D03*
Y178346D03*
X226090Y92520D03*
X226618Y28859D03*
Y38859D03*
X227665Y216142D03*
X230027Y70473D03*
X231602Y212205D03*
X236618Y28859D03*
Y38859D03*
X240264Y157874D03*
X241445Y121654D03*
X242626Y46851D03*
X243807Y175591D03*
X244201Y104724D03*
Y110630D03*
Y197244D03*
Y236614D03*
X246563Y65355D03*
X246618Y28859D03*
Y38859D03*
X249909Y52363D03*
X253256Y61811D03*
Y81890D03*
X256618Y28859D03*
Y38859D03*
X264870Y45670D03*
X266618Y28859D03*
Y38859D03*
X270185Y182678D03*
X275500Y10040D03*
X276618Y28859D03*
Y38859D03*
X279634Y79134D03*
Y118504D03*
Y157874D03*
Y236614D03*
X283177Y196851D03*
X286618Y28859D03*
Y38859D03*
X296618Y28859D03*
Y38859D03*
X299712Y54725D03*
X304437Y21260D03*
X306618Y28859D03*
Y38859D03*
X314279Y245670D03*
X317035Y79134D03*
Y118504D03*
Y157874D03*
Y197244D03*
Y236614D03*
X320185Y53937D03*
X329831Y49409D03*
X339476Y18110D03*
X346563Y104331D03*
Y113977D03*
Y118898D03*
Y158268D03*
Y212993D03*
X357783Y238583D03*
X361917Y172048D03*
X362311Y103150D03*
X363492Y124213D03*
X363885Y38583D03*
X364082Y230512D03*
X364279Y210630D03*
X367232Y251772D03*
X367429Y33858D03*
X368019Y189370D03*
D02*
D119*
X30578Y79166D02*
Y82916D01*
X33704D01*
X33078Y81041D02*
X30578D01*
X30579Y135071D02*
Y138821D01*
X33704D01*
X33079Y136946D02*
X30579D01*
X33947Y250333D02*
X34572Y250020D01*
X34885Y249395D01*
X34572Y248770D01*
X33947Y248457D01*
X31759D01*
Y252207D01*
X33947D01*
X34572Y251895D01*
X34885Y251270D01*
X34572Y250645D01*
X33947Y250333D01*
X31759D01*
X32547Y17748D02*
Y21498D01*
X35672D01*
X35047Y19624D02*
X32547D01*
Y33496D02*
Y37246D01*
X35672D01*
X35047Y35372D02*
X32547D01*
X34122Y113811D02*
Y117561D01*
X37247D01*
X36622Y115687D02*
X34122D01*
X36287Y50032D02*
Y53782D01*
X39412D01*
X38787Y51907D02*
X36287D01*
X38059Y147670D02*
Y151420D01*
X41184D01*
X40559Y149545D02*
X38059D01*
Y154757D02*
Y158507D01*
X41184D01*
X40559Y156632D02*
X38059D01*
X38858Y74294D02*
Y70544D01*
X41983D01*
X38858Y97050D02*
Y93300D01*
X41983D01*
X39240Y222276D02*
Y226026D01*
X42365D01*
X41740Y224152D02*
X39240D01*
X40028Y38615D02*
Y42365D01*
X43153D01*
X42528Y40490D02*
X40028D01*
Y126016D02*
Y129766D01*
X43153D01*
X42528Y127891D02*
X40028D01*
X40421Y163024D02*
Y166774D01*
X43546D01*
X42921Y164899D02*
X40421D01*
X40815Y202394D02*
Y206144D01*
X43940D01*
X43315Y204269D02*
X40815D01*
X47508Y17748D02*
Y21498D01*
X50633D01*
X50008Y19624D02*
X47508D01*
Y33496D02*
Y37246D01*
X50633D01*
X50008Y35372D02*
X47508D01*
X49870Y65583D02*
Y69333D01*
X52995D01*
X52370Y67459D02*
X49870D01*
X53238Y252776D02*
X54176D01*
Y252463D01*
X53863Y251839D01*
X53551Y251526D01*
X52926Y251213D01*
X52301D01*
X51676Y251526D01*
X51363Y251839D01*
X51051Y252463D01*
Y253713D01*
X51363Y254339D01*
X51676Y254651D01*
X52301Y254963D01*
X52926D01*
X53551Y254651D01*
X53863Y254339D01*
X54176Y253713D01*
X53020Y20111D02*
Y23861D01*
X56145D01*
X55520Y21986D02*
X53020D01*
Y31134D02*
Y34884D01*
X56145D01*
X55520Y33009D02*
X53020D01*
X53216Y102001D02*
Y105751D01*
X56341D01*
X55716Y103876D02*
X53216D01*
X53413Y72473D02*
Y76223D01*
X56538D01*
X55913Y74348D02*
X53413D01*
Y93930D02*
Y97680D01*
X56538D01*
X55913Y95805D02*
X53413D01*
X56838Y150072D02*
Y153822D01*
X59963D01*
X59338Y151947D02*
X56838D01*
X68986Y243721D02*
X69924D01*
Y243408D01*
X69611Y242783D01*
X69299Y242471D01*
X68674Y242158D01*
X68049D01*
X67424Y242471D01*
X67111Y242783D01*
X66799Y243408D01*
Y244658D01*
X67111Y245283D01*
X67424Y245596D01*
X68049Y245908D01*
X68674D01*
X69299Y245596D01*
X69611Y245283D01*
X69924Y244658D01*
X70933Y55347D02*
Y59097D01*
X74058Y55347D01*
Y59097D01*
X70933Y248654D02*
Y252404D01*
X74058Y248654D01*
Y252404D01*
X74279Y20111D02*
Y23861D01*
X77404D01*
X76779Y21986D02*
X74279D01*
Y32315D02*
Y36065D01*
X77404D01*
X76779Y34191D02*
X74279D01*
Y39402D02*
Y43152D01*
X77404D01*
X76779Y41277D02*
X74279D01*
Y45701D02*
Y49451D01*
X77404D01*
X76779Y47576D02*
X74279D01*
Y51213D02*
Y54963D01*
X77404D01*
X76779Y53088D02*
X74279D01*
X75067Y116567D02*
Y120317D01*
X78192D01*
X77567Y118443D02*
X75067D01*
X75460Y57906D02*
Y61656D01*
X78585D01*
X77960Y59781D02*
X75460D01*
X79398Y86450D02*
Y90200D01*
X82523D01*
X81898Y88325D02*
X79398D01*
X79791Y20504D02*
Y24254D01*
X82916D01*
X82291Y22380D02*
X79791D01*
X81759Y236253D02*
Y240003D01*
X84885D01*
X84259Y238128D02*
X81759D01*
X84319Y163024D02*
Y166774D01*
X87444D01*
X86819Y164900D02*
X84319D01*
X84909Y192749D02*
Y196499D01*
X88034D01*
X87409Y194624D02*
X84909D01*
Y230741D02*
Y234491D01*
X88034D01*
X87409Y232616D02*
X84909D01*
X86878Y20504D02*
Y24254D01*
X90003D01*
X89378Y22380D02*
X86878D01*
Y31922D02*
Y35672D01*
X90003D01*
X89378Y33797D02*
X86878D01*
Y40189D02*
Y43939D01*
X90003D01*
X89378Y42065D02*
X86878D01*
X87665Y221095D02*
Y224845D01*
X90790D01*
X90165Y222970D02*
X87665D01*
X92193Y128576D02*
Y132326D01*
X95318D01*
X94693Y130451D02*
X92193D01*
X92389Y26016D02*
Y29766D01*
X95515D01*
X94889Y27891D02*
X92389D01*
Y45701D02*
Y49451D01*
X95515D01*
X94889Y47576D02*
X92389D01*
Y51607D02*
Y55357D01*
X95515D01*
X94889Y53482D02*
X92389D01*
Y56725D02*
Y60475D01*
X95515D01*
X94889Y58600D02*
X92389D01*
X92783Y120504D02*
Y124254D01*
X95908D01*
X95283Y122380D02*
X92783D01*
X96960Y198851D02*
Y202601D01*
X100085D01*
X99460Y200726D02*
X96960D01*
Y205544D02*
Y209294D01*
X100085D01*
X99460Y207419D02*
X96960D01*
X98295Y58300D02*
Y62050D01*
X101420D01*
X100795Y60175D02*
X98295D01*
X101838Y63418D02*
Y67168D01*
X104963D01*
X104338Y65293D02*
X101838D01*
X109515Y128576D02*
Y132326D01*
X112641D01*
X112015Y130451D02*
X109515D01*
X110500Y113812D02*
Y117562D01*
X113625D01*
X113000Y115687D02*
X110500D01*
X111287Y77591D02*
Y81341D01*
X114412D01*
X113787Y79467D02*
X111287D01*
X114633Y74442D02*
Y78192D01*
X117759D01*
X117133Y76317D02*
X114633D01*
X116208Y144127D02*
Y147877D01*
X119333D01*
X118708Y146002D02*
X116208D01*
X116405Y161450D02*
Y165200D01*
X119530D01*
X118905Y163325D02*
X116405D01*
Y179560D02*
Y183310D01*
X119530D01*
X118905Y181435D02*
X116405D01*
Y211056D02*
Y214806D01*
X119530D01*
X118905Y212931D02*
X116405D01*
Y250426D02*
Y254176D01*
X119530D01*
X118905Y252301D02*
X116405D01*
X118177Y71292D02*
Y75042D01*
X121302D01*
X120677Y73167D02*
X118177D01*
X123098Y105150D02*
Y108900D01*
X126223D01*
X125598Y107026D02*
X123098D01*
X126618Y36046D02*
Y37296D01*
X126930Y37921D01*
X127243Y38234D01*
X127868Y38546D01*
X128493D01*
X129118Y38234D01*
X129430Y37921D01*
X129743Y37296D01*
Y36046D01*
X129430Y35421D01*
X129118Y35109D01*
X128493Y34796D01*
X127868D01*
X127243Y35109D01*
X126930Y35421D01*
X126618Y36046D01*
Y46046D02*
Y47296D01*
X126930Y47921D01*
X127243Y48234D01*
X127868Y48546D01*
X128493D01*
X129118Y48234D01*
X129430Y47921D01*
X129743Y47296D01*
Y46046D01*
X129430Y45421D01*
X129118Y45109D01*
X128493Y44796D01*
X127868D01*
X127243Y45109D01*
X126930Y45421D01*
X126618Y46046D01*
X126641Y53182D02*
Y56932D01*
X129767D01*
X129141Y55057D02*
X126641D01*
X127822Y86450D02*
Y90200D01*
X130948D01*
X130322Y88325D02*
X127822D01*
X128019Y79757D02*
Y83507D01*
X131144D01*
X130519Y81632D02*
X128019D01*
X133728Y15977D02*
Y19727D01*
X136853D01*
X136228Y17852D02*
X133728D01*
X135696Y210662D02*
Y214412D01*
X138822D01*
X138196Y212537D02*
X135696D01*
X136618Y36046D02*
Y37296D01*
X136930Y37921D01*
X137243Y38234D01*
X137868Y38546D01*
X138493D01*
X139118Y38234D01*
X139430Y37921D01*
X139743Y37296D01*
Y36046D01*
X139430Y35421D01*
X139118Y35109D01*
X138493Y34796D01*
X137868D01*
X137243Y35109D01*
X136930Y35421D01*
X136618Y36046D01*
Y46046D02*
Y47296D01*
X136930Y47921D01*
X137243Y48234D01*
X137868Y48546D01*
X138493D01*
X139118Y48234D01*
X139430Y47921D01*
X139743Y47296D01*
Y46046D01*
X139430Y45421D01*
X139118Y45109D01*
X138493Y44796D01*
X137868D01*
X137243Y45109D01*
X136930Y45421D01*
X136618Y46046D01*
X141208Y174442D02*
Y178192D01*
X144333D01*
X143708Y176317D02*
X141208D01*
X143374Y123261D02*
Y127011D01*
X146499D01*
X145874Y125136D02*
X143374D01*
X144751Y151213D02*
Y154963D01*
X147876D01*
X147251Y153088D02*
X144751D01*
X146618Y36046D02*
Y37296D01*
X146930Y37921D01*
X147243Y38234D01*
X147868Y38546D01*
X148493D01*
X149118Y38234D01*
X149430Y37921D01*
X149743Y37296D01*
Y36046D01*
X149430Y35421D01*
X149118Y35109D01*
X148493Y34796D01*
X147868D01*
X147243Y35109D01*
X146930Y35421D01*
X146618Y36046D01*
Y46046D02*
Y47296D01*
X146930Y47921D01*
X147243Y48234D01*
X147868Y48546D01*
X148493D01*
X149118Y48234D01*
X149430Y47921D01*
X149743Y47296D01*
Y46046D01*
X149430Y45421D01*
X149118Y45109D01*
X148493Y44796D01*
X147868D01*
X147243Y45109D01*
X146930Y45421D01*
X146618Y46046D01*
X149870Y168143D02*
Y171893D01*
X152995D01*
X152370Y170018D02*
X149870D01*
X151444Y218162D02*
Y221912D01*
X154570D01*
X153944Y220037D02*
X151444D01*
X151838Y85859D02*
Y89609D01*
X154963D01*
X154338Y87734D02*
X151838D01*
Y187237D02*
Y190987D01*
X154963D01*
X154338Y189112D02*
X151838D01*
Y194127D02*
Y197877D01*
X154963D01*
X154338Y196002D02*
X151838D01*
X156618Y36046D02*
Y37296D01*
X156930Y37921D01*
X157243Y38234D01*
X157868Y38546D01*
X158493D01*
X159118Y38234D01*
X159430Y37921D01*
X159743Y37296D01*
Y36046D01*
X159430Y35421D01*
X159118Y35109D01*
X158493Y34796D01*
X157868D01*
X157243Y35109D01*
X156930Y35421D01*
X156618Y36046D01*
Y46046D02*
Y47296D01*
X156930Y47921D01*
X157243Y48234D01*
X157868Y48546D01*
X158493D01*
X159118Y48234D01*
X159430Y47921D01*
X159743Y47296D01*
Y46046D01*
X159430Y45421D01*
X159118Y45109D01*
X158493Y44796D01*
X157868D01*
X157243Y45109D01*
X156930Y45421D01*
X156618Y46046D01*
X161680Y235072D02*
Y238822D01*
X164806D01*
X164180Y236947D02*
X161680D01*
Y240584D02*
Y244334D01*
X164806D01*
X164180Y242459D02*
X161680D01*
Y246096D02*
Y249846D01*
X164806D01*
X164180Y247971D02*
X161680D01*
X164437Y130741D02*
Y134491D01*
X167562D01*
X166937Y132616D02*
X164437D01*
X164830Y187434D02*
Y191184D01*
X167956D01*
X167330Y189309D02*
X164830D01*
X165224Y228772D02*
Y232522D01*
X168349D01*
X167724Y230648D02*
X165224D01*
X166618Y36046D02*
Y37296D01*
X166930Y37921D01*
X167243Y38234D01*
X167868Y38546D01*
X168493D01*
X169118Y38234D01*
X169430Y37921D01*
X169743Y37296D01*
Y36046D01*
X169430Y35421D01*
X169118Y35109D01*
X168493Y34796D01*
X167868D01*
X167243Y35109D01*
X166930Y35421D01*
X166618Y36046D01*
Y46046D02*
Y47296D01*
X166930Y47921D01*
X167243Y48234D01*
X167868Y48546D01*
X168493D01*
X169118Y48234D01*
X169430Y47921D01*
X169743Y47296D01*
Y46046D01*
X169430Y45421D01*
X169118Y45109D01*
X168493Y44796D01*
X167868D01*
X167243Y45109D01*
X166930Y45421D01*
X166618Y46046D01*
X171523Y82316D02*
Y86066D01*
X174648D01*
X174023Y84191D02*
X171523D01*
X175854Y165387D02*
Y169137D01*
X178979D01*
X178354Y167262D02*
X175854D01*
X176618Y36046D02*
Y37296D01*
X176930Y37921D01*
X177243Y38234D01*
X177868Y38546D01*
X178493D01*
X179118Y38234D01*
X179430Y37921D01*
X179743Y37296D01*
Y36046D01*
X179430Y35421D01*
X179118Y35109D01*
X178493Y34796D01*
X177868D01*
X177243Y35109D01*
X176930Y35421D01*
X176618Y36046D01*
Y46046D02*
Y47296D01*
X176930Y47921D01*
X177243Y48234D01*
X177868Y48546D01*
X178493D01*
X179118Y48234D01*
X179430Y47921D01*
X179743Y47296D01*
Y46046D01*
X179430Y45421D01*
X179118Y45109D01*
X178493Y44796D01*
X177868D01*
X177243Y45109D01*
X176930Y45421D01*
X176618Y46046D01*
X179004Y192946D02*
Y196696D01*
X182129D01*
X181504Y194821D02*
X179004D01*
X179791Y187040D02*
Y190790D01*
X182916D01*
X182291Y188915D02*
X179791D01*
X183137Y98261D02*
Y102011D01*
X186263D01*
X185637Y100136D02*
X183137D01*
X184122Y194914D02*
Y198664D01*
X187247D01*
X186622Y196789D02*
X184122D01*
X185303Y58300D02*
Y62050D01*
X188428D01*
X187803Y60175D02*
X185303D01*
X186618Y36046D02*
Y37296D01*
X186930Y37921D01*
X187243Y38234D01*
X187868Y38546D01*
X188493D01*
X189118Y38234D01*
X189430Y37921D01*
X189743Y37296D01*
Y36046D01*
X189430Y35421D01*
X189118Y35109D01*
X188493Y34796D01*
X187868D01*
X187243Y35109D01*
X186930Y35421D01*
X186618Y36046D01*
Y46046D02*
Y47296D01*
X186930Y47921D01*
X187243Y48234D01*
X187868Y48546D01*
X188493D01*
X189118Y48234D01*
X189430Y47921D01*
X189743Y47296D01*
Y46046D01*
X189430Y45421D01*
X189118Y45109D01*
X188493Y44796D01*
X187868D01*
X187243Y45109D01*
X186930Y45421D01*
X186618Y46046D01*
X188846Y201213D02*
Y204963D01*
X191971D01*
X191346Y203089D02*
X188846D01*
X190028Y175622D02*
Y179372D01*
X193153D01*
X192528Y177498D02*
X190028D01*
X196618Y36046D02*
Y37296D01*
X196930Y37921D01*
X197243Y38234D01*
X197868Y38546D01*
X198493D01*
X199118Y38234D01*
X199430Y37921D01*
X199743Y37296D01*
Y36046D01*
X199430Y35421D01*
X199118Y35109D01*
X198493Y34796D01*
X197868D01*
X197243Y35109D01*
X196930Y35421D01*
X196618Y36046D01*
Y46046D02*
Y47296D01*
X196930Y47921D01*
X197243Y48234D01*
X197868Y48546D01*
X198493D01*
X199118Y48234D01*
X199430Y47921D01*
X199743Y47296D01*
Y46046D01*
X199430Y45421D01*
X199118Y45109D01*
X198493Y44796D01*
X197868D01*
X197243Y45109D01*
X196930Y45421D01*
X196618Y46046D01*
X199082Y74048D02*
Y77798D01*
X202207D01*
X201582Y75923D02*
X199082D01*
X199476Y101607D02*
Y105357D01*
X202601D01*
X201976Y103482D02*
X199476D01*
X204988Y231528D02*
Y235278D01*
X208113D01*
X207488Y233404D02*
X204988D01*
Y240583D02*
Y244333D01*
X208113D01*
X207488Y242459D02*
X204988D01*
Y249639D02*
Y253389D01*
X208113D01*
X207488Y251514D02*
X204988D01*
X206618Y36046D02*
Y37296D01*
X206930Y37921D01*
X207243Y38234D01*
X207868Y38546D01*
X208493D01*
X209118Y38234D01*
X209430Y37921D01*
X209743Y37296D01*
Y36046D01*
X209430Y35421D01*
X209118Y35109D01*
X208493Y34796D01*
X207868D01*
X207243Y35109D01*
X206930Y35421D01*
X206618Y36046D01*
Y46046D02*
Y47296D01*
X206930Y47921D01*
X207243Y48234D01*
X207868Y48546D01*
X208493D01*
X209118Y48234D01*
X209430Y47921D01*
X209743Y47296D01*
Y46046D01*
X209430Y45421D01*
X209118Y45109D01*
X208493Y44796D01*
X207868D01*
X207243Y45109D01*
X206930Y45421D01*
X206618Y46046D01*
X207744Y61843D02*
Y65593D01*
X210869D01*
X210244Y63719D02*
X207744D01*
Y66174D02*
Y69924D01*
X210869D01*
X210244Y68049D02*
X207744D01*
X210894Y133497D02*
Y137247D01*
X214019D01*
X213394Y135372D02*
X210894D01*
X216618Y36046D02*
Y37296D01*
X216930Y37921D01*
X217243Y38234D01*
X217868Y38546D01*
X218493D01*
X219118Y38234D01*
X219430Y37921D01*
X219743Y37296D01*
Y36046D01*
X219430Y35421D01*
X219118Y35109D01*
X218493Y34796D01*
X217868D01*
X217243Y35109D01*
X216930Y35421D01*
X216618Y36046D01*
Y46046D02*
Y47296D01*
X216930Y47921D01*
X217243Y48234D01*
X217868Y48546D01*
X218493D01*
X219118Y48234D01*
X219430Y47921D01*
X219743Y47296D01*
Y46046D01*
X219430Y45421D01*
X219118Y45109D01*
X218493Y44796D01*
X217868D01*
X217243Y45109D01*
X216930Y45421D01*
X216618Y46046D01*
X221720Y105544D02*
Y109294D01*
X224846D01*
X224220Y107419D02*
X221720D01*
X223098Y214205D02*
Y217955D01*
X226224D01*
X225598Y216080D02*
X223098D01*
X223295Y240583D02*
Y244333D01*
X226420D01*
X225795Y242459D02*
X223295D01*
X223492Y248064D02*
Y251814D01*
X226617D01*
X225992Y249939D02*
X223492D01*
X224279Y226016D02*
Y229766D01*
X227404D01*
X226779Y227891D02*
X224279D01*
X225854Y90583D02*
Y94333D01*
X228979D01*
X228354Y92459D02*
X225854D01*
X226618Y36046D02*
Y37296D01*
X226930Y37921D01*
X227243Y38234D01*
X227868Y38546D01*
X228493D01*
X229118Y38234D01*
X229430Y37921D01*
X229743Y37296D01*
Y36046D01*
X229430Y35421D01*
X229118Y35109D01*
X228493Y34796D01*
X227868D01*
X227243Y35109D01*
X226930Y35421D01*
X226618Y36046D01*
Y46046D02*
Y47296D01*
X226930Y47921D01*
X227243Y48234D01*
X227868Y48546D01*
X228493D01*
X229118Y48234D01*
X229430Y47921D01*
X229743Y47296D01*
Y46046D01*
X229430Y45421D01*
X229118Y45109D01*
X228493Y44796D01*
X227868D01*
X227243Y45109D01*
X226930Y45421D01*
X226618Y46046D01*
X229004Y61843D02*
Y65593D01*
X232129D01*
X231504Y63719D02*
X229004D01*
Y66174D02*
Y69924D01*
X232129D01*
X231504Y68049D02*
X229004D01*
X233925Y197670D02*
Y201420D01*
X237050D01*
X236425Y199545D02*
X233925D01*
X234516Y158300D02*
Y162050D01*
X237641D01*
X237016Y160175D02*
X234516D01*
Y171685D02*
Y175435D01*
X237641D01*
X237016Y173561D02*
X234516D01*
Y184284D02*
Y188034D01*
X237641D01*
X237016Y186159D02*
X234516D01*
X236090Y98457D02*
Y102207D01*
X239215D01*
X238590Y100333D02*
X236090D01*
X236618Y36046D02*
Y37296D01*
X236930Y37921D01*
X237243Y38234D01*
X237868Y38546D01*
X238493D01*
X239118Y38234D01*
X239430Y37921D01*
X239743Y37296D01*
Y36046D01*
X239430Y35421D01*
X239118Y35109D01*
X238493Y34796D01*
X237868D01*
X237243Y35109D01*
X236930Y35421D01*
X236618Y36046D01*
Y46046D02*
Y47296D01*
X236930Y47921D01*
X237243Y48234D01*
X237868Y48546D01*
X238493D01*
X239118Y48234D01*
X239430Y47921D01*
X239743Y47296D01*
Y46046D01*
X239430Y45421D01*
X239118Y45109D01*
X238493Y44796D01*
X237868D01*
X237243Y45109D01*
X236930Y45421D01*
X236618Y46046D01*
X237665Y222079D02*
Y225829D01*
X240790D01*
X240165Y223954D02*
X237665D01*
X240027Y76410D02*
Y80160D01*
X243152D01*
X242527Y78285D02*
X240027D01*
X241602Y218142D02*
Y221892D01*
X244727D01*
X244102Y220017D02*
X241602D01*
X246618Y36046D02*
Y37296D01*
X246930Y37921D01*
X247243Y38234D01*
X247868Y38546D01*
X248493D01*
X249118Y38234D01*
X249430Y37921D01*
X249743Y37296D01*
Y36046D01*
X249430Y35421D01*
X249118Y35109D01*
X248493Y34796D01*
X247868D01*
X247243Y35109D01*
X246930Y35421D01*
X246618Y36046D01*
Y46046D02*
Y47296D01*
X246930Y47921D01*
X247243Y48234D01*
X247868Y48546D01*
X248493D01*
X249118Y48234D01*
X249430Y47921D01*
X249743Y47296D01*
Y46046D01*
X249430Y45421D01*
X249118Y45109D01*
X248493Y44796D01*
X247868D01*
X247243Y45109D01*
X246930Y45421D01*
X246618Y46046D01*
X250264Y163811D02*
Y167561D01*
X253389D01*
X252764Y165687D02*
X250264D01*
X251445Y127591D02*
Y131341D01*
X254570D01*
X253945Y129466D02*
X251445D01*
X252626Y52788D02*
Y56538D01*
X255751D01*
X255126Y54663D02*
X252626D01*
X253807Y181528D02*
Y185278D01*
X256932D01*
X256307Y183403D02*
X253807D01*
X254201Y110662D02*
Y114412D01*
X257326D01*
X256701Y112537D02*
X254201D01*
Y116567D02*
Y120317D01*
X257326D01*
X256701Y118443D02*
X254201D01*
Y203181D02*
Y206931D01*
X257326D01*
X256701Y205057D02*
X254201D01*
Y242552D02*
Y246302D01*
X257326D01*
X256701Y244427D02*
X254201D01*
X256563Y71292D02*
Y75042D01*
X259688D01*
X259063Y73167D02*
X256563D01*
X256618Y36046D02*
Y37296D01*
X256930Y37921D01*
X257243Y38234D01*
X257868Y38546D01*
X258493D01*
X259118Y38234D01*
X259430Y37921D01*
X259743Y37296D01*
Y36046D01*
X259430Y35421D01*
X259118Y35109D01*
X258493Y34796D01*
X257868D01*
X257243Y35109D01*
X256930Y35421D01*
X256618Y36046D01*
Y46046D02*
Y47296D01*
X256930Y47921D01*
X257243Y48234D01*
X257868Y48546D01*
X258493D01*
X259118Y48234D01*
X259430Y47921D01*
X259743Y47296D01*
Y46046D01*
X259430Y45421D01*
X259118Y45109D01*
X258493Y44796D01*
X257868D01*
X257243Y45109D01*
X256930Y45421D01*
X256618Y46046D01*
X259909Y58300D02*
Y62050D01*
X263034D01*
X262409Y60175D02*
X259909D01*
X263256Y67749D02*
Y71499D01*
X266381D01*
X265756Y69624D02*
X263256D01*
Y87827D02*
Y91577D01*
X266381D01*
X265756Y89702D02*
X263256D01*
X266618Y36046D02*
Y37296D01*
X266930Y37921D01*
X267243Y38234D01*
X267868Y38546D01*
X268493D01*
X269118Y38234D01*
X269430Y37921D01*
X269743Y37296D01*
Y36046D01*
X269430Y35421D01*
X269118Y35109D01*
X268493Y34796D01*
X267868D01*
X267243Y35109D01*
X266930Y35421D01*
X266618Y36046D01*
Y46046D02*
Y47296D01*
X266930Y47921D01*
X267243Y48234D01*
X267868Y48546D01*
X268493D01*
X269118Y48234D01*
X269430Y47921D01*
X269743Y47296D01*
Y46046D01*
X269430Y45421D01*
X269118Y45109D01*
X268493Y44796D01*
X267868D01*
X267243Y45109D01*
X266930Y45421D01*
X266618Y46046D01*
X274870Y51607D02*
Y55357D01*
X277995D01*
X277370Y53482D02*
X274870D01*
X276618Y36046D02*
Y37296D01*
X276930Y37921D01*
X277243Y38234D01*
X277868Y38546D01*
X278493D01*
X279118Y38234D01*
X279430Y37921D01*
X279743Y37296D01*
Y36046D01*
X279430Y35421D01*
X279118Y35109D01*
X278493Y34796D01*
X277868D01*
X277243Y35109D01*
X276930Y35421D01*
X276618Y36046D01*
Y46046D02*
Y47296D01*
X276930Y47921D01*
X277243Y48234D01*
X277868Y48546D01*
X278493D01*
X279118Y48234D01*
X279430Y47921D01*
X279743Y47296D01*
Y46046D01*
X279430Y45421D01*
X279118Y45109D01*
X278493Y44796D01*
X277868D01*
X277243Y45109D01*
X276930Y45421D01*
X276618Y46046D01*
X280185Y188615D02*
Y192365D01*
X283310D01*
X282685Y190490D02*
X280185D01*
X285500Y15977D02*
Y19727D01*
X288625D01*
X288000Y17852D02*
X285500D01*
X286618Y36046D02*
Y37296D01*
X286930Y37921D01*
X287243Y38234D01*
X287868Y38546D01*
X288493D01*
X289118Y38234D01*
X289430Y37921D01*
X289743Y37296D01*
Y36046D01*
X289430Y35421D01*
X289118Y35109D01*
X288493Y34796D01*
X287868D01*
X287243Y35109D01*
X286930Y35421D01*
X286618Y36046D01*
Y46046D02*
Y47296D01*
X286930Y47921D01*
X287243Y48234D01*
X287868Y48546D01*
X288493D01*
X289118Y48234D01*
X289430Y47921D01*
X289743Y47296D01*
Y46046D01*
X289430Y45421D01*
X289118Y45109D01*
X288493Y44796D01*
X287868D01*
X287243Y45109D01*
X286930Y45421D01*
X286618Y46046D01*
X289634Y85071D02*
Y88821D01*
X292759D01*
X292134Y86946D02*
X289634D01*
Y124441D02*
Y128191D01*
X292759D01*
X292134Y126317D02*
X289634D01*
Y163811D02*
Y167561D01*
X292759D01*
X292134Y165687D02*
X289634D01*
Y242552D02*
Y246302D01*
X292759D01*
X292134Y244427D02*
X289634D01*
X293177Y202788D02*
Y206538D01*
X296302D01*
X295677Y204663D02*
X293177D01*
X296618Y36046D02*
Y37296D01*
X296930Y37921D01*
X297243Y38234D01*
X297868Y38546D01*
X298493D01*
X299118Y38234D01*
X299430Y37921D01*
X299743Y37296D01*
Y36046D01*
X299430Y35421D01*
X299118Y35109D01*
X298493Y34796D01*
X297868D01*
X297243Y35109D01*
X296930Y35421D01*
X296618Y36046D01*
Y46046D02*
Y47296D01*
X296930Y47921D01*
X297243Y48234D01*
X297868Y48546D01*
X298493D01*
X299118Y48234D01*
X299430Y47921D01*
X299743Y47296D01*
Y46046D01*
X299430Y45421D01*
X299118Y45109D01*
X298493Y44796D01*
X297868D01*
X297243Y45109D01*
X296930Y45421D01*
X296618Y46046D01*
X306618Y36046D02*
Y37296D01*
X306930Y37921D01*
X307243Y38234D01*
X307868Y38546D01*
X308493D01*
X309118Y38234D01*
X309430Y37921D01*
X309743Y37296D01*
Y36046D01*
X309430Y35421D01*
X309118Y35109D01*
X308493Y34796D01*
X307868D01*
X307243Y35109D01*
X306930Y35421D01*
X306618Y36046D01*
Y46046D02*
Y47296D01*
X306930Y47921D01*
X307243Y48234D01*
X307868Y48546D01*
X308493D01*
X309118Y48234D01*
X309430Y47921D01*
X309743Y47296D01*
Y46046D01*
X309430Y45421D01*
X309118Y45109D01*
X308493Y44796D01*
X307868D01*
X307243Y45109D01*
X306930Y45421D01*
X306618Y46046D01*
X309712Y60662D02*
Y64412D01*
X312837D01*
X312212Y62537D02*
X309712D01*
X314437Y27198D02*
Y30948D01*
X317562D01*
X316937Y29073D02*
X314437D01*
X316618Y36046D02*
Y37296D01*
X316930Y37921D01*
X317243Y38234D01*
X317868Y38546D01*
X318493D01*
X319118Y38234D01*
X319430Y37921D01*
X319743Y37296D01*
Y36046D01*
X319430Y35421D01*
X319118Y35109D01*
X318493Y34796D01*
X317868D01*
X317243Y35109D01*
X316930Y35421D01*
X316618Y36046D01*
Y46046D02*
Y47296D01*
X316930Y47921D01*
X317243Y48234D01*
X317868Y48546D01*
X318493D01*
X319118Y48234D01*
X319430Y47921D01*
X319743Y47296D01*
Y46046D01*
X319430Y45421D01*
X319118Y45109D01*
X318493Y44796D01*
X317868D01*
X317243Y45109D01*
X316930Y45421D01*
X316618Y46046D01*
X324279Y251607D02*
Y255357D01*
X327404D01*
X326779Y253482D02*
X324279D01*
X327035Y85071D02*
Y88821D01*
X330161D01*
X329535Y86946D02*
X327035D01*
Y124441D02*
Y128191D01*
X330161D01*
X329535Y126317D02*
X327035D01*
Y163811D02*
Y167561D01*
X330161D01*
X329535Y165687D02*
X327035D01*
Y203181D02*
Y206931D01*
X330161D01*
X329535Y205057D02*
X327035D01*
Y242552D02*
Y246302D01*
X330161D01*
X329535Y244427D02*
X327035D01*
X330185Y59875D02*
Y63625D01*
X333310D01*
X332685Y61750D02*
X330185D01*
X339831Y55347D02*
Y59097D01*
X342956Y55347D01*
Y59097D01*
X351664Y25923D02*
X352289Y25610D01*
X352602Y24985D01*
X352289Y24360D01*
X351664Y24048D01*
X349476D01*
Y27798D01*
X351664D01*
X352289Y27485D01*
X352602Y26860D01*
X352289Y26235D01*
X351664Y25923D01*
X349476D01*
X356563Y110268D02*
Y114018D01*
X359688D01*
X359063Y112143D02*
X356563D01*
Y119914D02*
Y123664D01*
X359688D01*
X359063Y121789D02*
X356563D01*
Y124835D02*
Y128585D01*
X359688D01*
X359063Y126710D02*
X356563D01*
Y164206D02*
Y167956D01*
X359688D01*
X359063Y166081D02*
X356563D01*
Y218930D02*
Y222680D01*
X359688D01*
X359063Y220805D02*
X356563D01*
X367783Y244520D02*
Y248270D01*
X370908D01*
X370283Y246396D02*
X367783D01*
X371917Y177985D02*
Y181735D01*
X375042D01*
X374417Y179860D02*
X371917D01*
X372311Y109087D02*
Y112837D01*
X375436D01*
X374811Y110962D02*
X372311D01*
X373492Y130150D02*
Y133900D01*
X376617D01*
X375992Y132026D02*
X373492D01*
X373885Y44520D02*
Y48270D01*
X377011D01*
X376385Y46396D02*
X373885D01*
X374082Y236450D02*
Y240200D01*
X377207D01*
X376582Y238325D02*
X374082D01*
X374279Y216568D02*
Y220318D01*
X377404D01*
X376779Y218443D02*
X374279D01*
X377232Y257709D02*
Y261459D01*
X380357D01*
X379732Y259585D02*
X377232D01*
X377429Y39796D02*
Y43546D01*
X380554D01*
X379929Y41671D02*
X377429D01*
X378019Y195308D02*
Y199058D01*
X381144D01*
X380519Y197183D02*
X378019D01*
X0Y0D02*
M02*
