G04 DesignSpark PCB PRO Gerber Version 10.0 Build 5299*
G04 #@! TF.Part,Single*
G04 #@! TF.FileFunction,Drillmap*
G04 #@! TF.FilePolarity,Positive*
%FSLAX35Y35*%
%MOIN*%
%ADD29C,0.00500*%
G04 #@! TA.AperFunction,ViaPad*
%ADD28C,0.10000*%
G04 #@! TD.AperFunction*
X0Y0D02*
D02*
D28*
X27953Y24016D03*
Y252362D03*
X43543Y113189D03*
Y123189D03*
Y133189D03*
Y143189D03*
Y153189D03*
Y163189D03*
X53543Y113189D03*
Y123189D03*
Y133189D03*
Y143189D03*
Y153189D03*
Y163189D03*
X63386Y20079D03*
Y59449D03*
Y98819D03*
Y177559D03*
Y216929D03*
Y256299D03*
X102756Y20079D03*
Y59449D03*
Y98819D03*
Y177559D03*
Y216929D03*
Y256299D03*
X142126Y20079D03*
Y59449D03*
Y98819D03*
Y177559D03*
Y216929D03*
X181496Y20079D03*
Y59449D03*
Y98819D03*
Y177559D03*
Y216929D03*
Y256299D03*
X207087Y207874D03*
Y213780D03*
Y219685D03*
Y225591D03*
Y231496D03*
X220866Y20079D03*
Y59449D03*
Y98819D03*
Y177559D03*
Y216929D03*
Y256299D03*
X252205Y113189D03*
Y123189D03*
Y133189D03*
Y143189D03*
Y153189D03*
Y163189D03*
X256299Y24016D03*
Y252362D03*
X262205Y113189D03*
Y123189D03*
Y133189D03*
Y143189D03*
Y153189D03*
Y163189D03*
D02*
D29*
X40140Y31828D02*
X40765Y31516D01*
X41078Y30891D01*
X40765Y30266D01*
X40140Y29953D01*
X37953D01*
Y33703D01*
X40140D01*
X40765Y33391D01*
X41078Y32766D01*
X40765Y32141D01*
X40140Y31828D01*
X37953D01*
X40140Y260175D02*
X40765Y259862D01*
X41078Y259237D01*
X40765Y258612D01*
X40140Y258300D01*
X37953D01*
Y262050D01*
X40140D01*
X40765Y261737D01*
X41078Y261112D01*
X40765Y260487D01*
X40140Y260175D01*
X37953D01*
X56669Y119752D02*
X56356Y119439D01*
X55731Y119126D01*
X54793D01*
X54169Y119439D01*
X53856Y119752D01*
X53543Y120376D01*
Y121626D01*
X53856Y122252D01*
X54169Y122564D01*
X54793Y122876D01*
X55731D01*
X56356Y122564D01*
X56669Y122252D01*
Y129752D02*
X56356Y129439D01*
X55731Y129126D01*
X54793D01*
X54169Y129439D01*
X53856Y129752D01*
X53543Y130376D01*
Y131626D01*
X53856Y132252D01*
X54169Y132564D01*
X54793Y132876D01*
X55731D01*
X56356Y132564D01*
X56669Y132252D01*
Y139752D02*
X56356Y139439D01*
X55731Y139126D01*
X54793D01*
X54169Y139439D01*
X53856Y139752D01*
X53543Y140376D01*
Y141626D01*
X53856Y142252D01*
X54169Y142564D01*
X54793Y142876D01*
X55731D01*
X56356Y142564D01*
X56669Y142252D01*
Y149752D02*
X56356Y149439D01*
X55731Y149126D01*
X54793D01*
X54169Y149439D01*
X53856Y149752D01*
X53543Y150376D01*
Y151626D01*
X53856Y152252D01*
X54169Y152564D01*
X54793Y152876D01*
X55731D01*
X56356Y152564D01*
X56669Y152252D01*
Y159752D02*
X56356Y159439D01*
X55731Y159126D01*
X54793D01*
X54169Y159439D01*
X53856Y159752D01*
X53543Y160376D01*
Y161626D01*
X53856Y162252D01*
X54169Y162564D01*
X54793Y162876D01*
X55731D01*
X56356Y162564D01*
X56669Y162252D01*
Y169752D02*
X56356Y169439D01*
X55731Y169126D01*
X54793D01*
X54169Y169439D01*
X53856Y169752D01*
X53543Y170376D01*
Y171626D01*
X53856Y172252D01*
X54169Y172564D01*
X54793Y172876D01*
X55731D01*
X56356Y172564D01*
X56669Y172252D01*
X66669Y119752D02*
X66356Y119439D01*
X65731Y119126D01*
X64793D01*
X64169Y119439D01*
X63856Y119752D01*
X63543Y120376D01*
Y121626D01*
X63856Y122252D01*
X64169Y122564D01*
X64793Y122876D01*
X65731D01*
X66356Y122564D01*
X66669Y122252D01*
Y129752D02*
X66356Y129439D01*
X65731Y129126D01*
X64793D01*
X64169Y129439D01*
X63856Y129752D01*
X63543Y130376D01*
Y131626D01*
X63856Y132252D01*
X64169Y132564D01*
X64793Y132876D01*
X65731D01*
X66356Y132564D01*
X66669Y132252D01*
Y139752D02*
X66356Y139439D01*
X65731Y139126D01*
X64793D01*
X64169Y139439D01*
X63856Y139752D01*
X63543Y140376D01*
Y141626D01*
X63856Y142252D01*
X64169Y142564D01*
X64793Y142876D01*
X65731D01*
X66356Y142564D01*
X66669Y142252D01*
Y149752D02*
X66356Y149439D01*
X65731Y149126D01*
X64793D01*
X64169Y149439D01*
X63856Y149752D01*
X63543Y150376D01*
Y151626D01*
X63856Y152252D01*
X64169Y152564D01*
X64793Y152876D01*
X65731D01*
X66356Y152564D01*
X66669Y152252D01*
Y159752D02*
X66356Y159439D01*
X65731Y159126D01*
X64793D01*
X64169Y159439D01*
X63856Y159752D01*
X63543Y160376D01*
Y161626D01*
X63856Y162252D01*
X64169Y162564D01*
X64793Y162876D01*
X65731D01*
X66356Y162564D01*
X66669Y162252D01*
Y169752D02*
X66356Y169439D01*
X65731Y169126D01*
X64793D01*
X64169Y169439D01*
X63856Y169752D01*
X63543Y170376D01*
Y171626D01*
X63856Y172252D01*
X64169Y172564D01*
X64793Y172876D01*
X65731D01*
X66356Y172564D01*
X66669Y172252D01*
X73386Y26016D02*
Y29766D01*
X76511D01*
X75886Y27891D02*
X73386D01*
Y65386D02*
Y69136D01*
X76511D01*
X75886Y67261D02*
X73386D01*
Y104756D02*
Y108506D01*
X76511D01*
X75886Y106631D02*
X73386D01*
Y183496D02*
Y187246D01*
X76511D01*
X75886Y185372D02*
X73386D01*
Y222867D02*
Y226617D01*
X76511D01*
X75886Y224742D02*
X73386D01*
Y262237D02*
Y265987D01*
X76511D01*
X75886Y264112D02*
X73386D01*
X112756Y26016D02*
Y29766D01*
X115881D01*
X115256Y27891D02*
X112756D01*
Y65386D02*
Y69136D01*
X115881D01*
X115256Y67261D02*
X112756D01*
Y104756D02*
Y108506D01*
X115881D01*
X115256Y106631D02*
X112756D01*
Y183496D02*
Y187246D01*
X115881D01*
X115256Y185372D02*
X112756D01*
Y222867D02*
Y226617D01*
X115881D01*
X115256Y224742D02*
X112756D01*
Y262237D02*
Y265987D01*
X115881D01*
X115256Y264112D02*
X112756D01*
X152126Y26016D02*
Y29766D01*
X155251D01*
X154626Y27891D02*
X152126D01*
Y65386D02*
Y69136D01*
X155251D01*
X154626Y67261D02*
X152126D01*
Y104756D02*
Y108506D01*
X155251D01*
X154626Y106631D02*
X152126D01*
Y183496D02*
Y187246D01*
X155251D01*
X154626Y185372D02*
X152126D01*
Y222867D02*
Y226617D01*
X155251D01*
X154626Y224742D02*
X152126D01*
X191496Y26016D02*
Y29766D01*
X194621D01*
X193996Y27891D02*
X191496D01*
Y65386D02*
Y69136D01*
X194621D01*
X193996Y67261D02*
X191496D01*
Y104756D02*
Y108506D01*
X194621D01*
X193996Y106631D02*
X191496D01*
Y183496D02*
Y187246D01*
X194621D01*
X193996Y185372D02*
X191496D01*
Y222867D02*
Y226617D01*
X194621D01*
X193996Y224742D02*
X191496D01*
Y262237D02*
Y265987D01*
X194621D01*
X193996Y264112D02*
X191496D01*
X217087Y217561D02*
X217399Y213811D01*
X218649Y215687D01*
X219899Y213811D01*
X220212Y217561D01*
X217087Y223467D02*
X217399Y219717D01*
X218649Y221592D01*
X219899Y219717D01*
X220212Y223467D01*
X217087Y229372D02*
X217399Y225622D01*
X218649Y227498D01*
X219899Y225622D01*
X220212Y229372D01*
X217087Y235278D02*
X217399Y231528D01*
X218649Y233403D01*
X219899Y231528D01*
X220212Y235278D01*
X217087Y241183D02*
X217399Y237433D01*
X218649Y239309D01*
X219899Y237433D01*
X220212Y241183D01*
X230866Y26016D02*
Y29766D01*
X233991D01*
X233366Y27891D02*
X230866D01*
Y65386D02*
Y69136D01*
X233991D01*
X233366Y67261D02*
X230866D01*
Y104756D02*
Y108506D01*
X233991D01*
X233366Y106631D02*
X230866D01*
Y183496D02*
Y187246D01*
X233991D01*
X233366Y185372D02*
X230866D01*
Y222867D02*
Y226617D01*
X233991D01*
X233366Y224742D02*
X230866D01*
Y262237D02*
Y265987D01*
X233991D01*
X233366Y264112D02*
X230866D01*
X262205Y119126D02*
Y122876D01*
Y121002D02*
X265330D01*
Y119126D02*
Y122876D01*
X262205Y129126D02*
Y132876D01*
Y131002D02*
X265330D01*
Y129126D02*
Y132876D01*
X262205Y139126D02*
Y142876D01*
Y141002D02*
X265330D01*
Y139126D02*
Y142876D01*
X262205Y149126D02*
Y152876D01*
Y151002D02*
X265330D01*
Y149126D02*
Y152876D01*
X262205Y159126D02*
Y162876D01*
Y161002D02*
X265330D01*
Y159126D02*
Y162876D01*
X262205Y169126D02*
Y172876D01*
Y171002D02*
X265330D01*
Y169126D02*
Y172876D01*
X268487Y31828D02*
X269112Y31516D01*
X269424Y30891D01*
X269112Y30266D01*
X268487Y29953D01*
X266299D01*
Y33703D01*
X268487D01*
X269112Y33391D01*
X269424Y32766D01*
X269112Y32141D01*
X268487Y31828D01*
X266299D01*
X268487Y260175D02*
X269112Y259862D01*
X269424Y259237D01*
X269112Y258612D01*
X268487Y258300D01*
X266299D01*
Y262050D01*
X268487D01*
X269112Y261737D01*
X269424Y261112D01*
X269112Y260487D01*
X268487Y260175D01*
X266299D01*
X272205Y119126D02*
Y122876D01*
Y121002D02*
X275330D01*
Y119126D02*
Y122876D01*
X272205Y129126D02*
Y132876D01*
Y131002D02*
X275330D01*
Y129126D02*
Y132876D01*
X272205Y139126D02*
Y142876D01*
Y141002D02*
X275330D01*
Y139126D02*
Y142876D01*
X272205Y149126D02*
Y152876D01*
Y151002D02*
X275330D01*
Y149126D02*
Y152876D01*
X272205Y159126D02*
Y162876D01*
Y161002D02*
X275330D01*
Y159126D02*
Y162876D01*
X272205Y169126D02*
Y172876D01*
Y171002D02*
X275330D01*
Y169126D02*
Y172876D01*
X0Y0D02*
M02*
