G04 DesignSpark PCB PRO Gerber Version 10.0 Build 5299*
G04 #@! TF.Part,Single*
G04 #@! TF.FileFunction,Soldermask,Bot*
G04 #@! TF.FilePolarity,Negative*
%FSLAX36Y36*%
%MOIN*%
G04 #@! TA.AperFunction,ViaPad*
%ADD10C,0.04143*%
G04 #@! TA.AperFunction,ComponentPad*
%ADD14C,0.05730*%
G04 #@! TA.AperFunction,ViaPad*
%ADD11C,0.06200*%
G04 #@! TA.AperFunction,ComponentPad*
%ADD13C,0.06702*%
%ADD15C,0.07194*%
G04 #@! TA.AperFunction,WasherPad*
%ADD12C,0.13198*%
G04 #@! TD.AperFunction*
X0Y0D02*
D02*
D10*
X181102Y429134D03*
Y688976D03*
Y948819D03*
Y1208661D03*
X216535Y1811024D03*
X330709Y673228D03*
Y732283D03*
X334646Y161417D03*
X358268Y1767717D03*
X393701Y1370079D03*
X397638Y1881890D03*
Y2106299D03*
X452756Y1039370D03*
X492126Y1350394D03*
X531496Y692913D03*
X594488Y161417D03*
X598425Y618110D03*
X602362Y2503937D03*
X653543Y1751969D03*
X771654Y988189D03*
X818898Y2118110D03*
X854331Y161417D03*
Y2299213D03*
Y2444882D03*
X889764Y1397205D03*
X917323Y1720472D03*
X944882Y1015748D03*
X960630Y1649606D03*
X968504Y1515748D03*
X996063Y1720472D03*
X1027559Y523622D03*
X1043307Y2653543D03*
X1102362Y960630D03*
X1114173Y161417D03*
X1311024Y377953D03*
X1334646Y2283465D03*
D02*
D11*
X1208661Y669291D03*
X1225787Y1765157D03*
D02*
D12*
X279528Y240157D03*
Y2523622D03*
X1185039Y240157D03*
Y2523622D03*
D02*
D13*
X1155906Y1131890D03*
Y1231890D03*
Y1331890D03*
Y1431890D03*
Y1531890D03*
Y1631890D03*
X1255906Y1131890D03*
Y1231890D03*
Y1331890D03*
Y1431890D03*
Y1531890D03*
Y1631890D03*
D02*
D14*
X606299Y1255118D03*
Y1355118D03*
Y1455118D03*
Y1555118D03*
X706299Y1205118D03*
Y1305118D03*
Y1405118D03*
Y1505118D03*
D02*
D15*
X356299Y1155079D03*
Y1605157D03*
X0Y0D02*
M02*
