G04 DesignSpark PCB PRO Gerber Version 10.0 Build 5299*
G04 #@! TF.Part,Single*
G04 #@! TF.FileFunction,Legend,Top*
G04 #@! TF.FilePolarity,Positive*
%FSLAX36Y36*%
%MOIN*%
%ADD111C,0.00197*%
%ADD70C,0.00300*%
%ADD71C,0.00394*%
%ADD17C,0.00500*%
%ADD18C,0.00787*%
%ADD19C,0.00800*%
G04 #@! TD.AperFunction*
X0Y0D02*
D02*
D17*
X212598Y1031374D02*
X215724Y1028248D01*
X221972Y1025122D01*
X228224Y1028248D01*
X231350Y1031374D01*
Y1062622D01*
X237598D01*
X231350D02*
X218850D01*
X268850Y1025122D02*
X281350D01*
X275098D02*
Y1062622D01*
X268850Y1056374D01*
X248031Y76992D02*
Y80118D01*
X251157Y89492D01*
X254283Y92618D01*
X260531Y95744D01*
X266783D01*
X273031Y92618D01*
X276157Y89492D01*
X279283Y80118D01*
Y76992D01*
X276157Y70744D01*
X273031Y67618D01*
X266783Y64492D01*
X260531D01*
X254283Y67618D01*
X251157Y70744D01*
X248031Y76992D01*
X269906D02*
X263657Y73870D01*
X257406Y76992D01*
Y83244D01*
X263657Y86370D01*
X269906Y83244D01*
X348031Y64492D02*
Y101992D01*
X369906D01*
X376157Y98870D01*
X379283Y92618D01*
X376157Y86370D01*
X369906Y83244D01*
X348031D01*
X369906D02*
X379283Y64492D01*
X398031Y73870D02*
X401157Y67618D01*
X407406Y64492D01*
X419906D01*
X426157Y67618D01*
X429283Y73870D01*
X426157Y80118D01*
X419906Y83244D01*
X407406D01*
X401157Y86370D01*
X398031Y92618D01*
X401157Y98870D01*
X407406Y101992D01*
X419906D01*
X426157Y98870D01*
X429283Y92618D01*
X529283Y70744D02*
X526157Y67618D01*
X519906Y64492D01*
X510531D01*
X504283Y67618D01*
X501157Y70744D01*
X498031Y76992D01*
Y89492D01*
X501157Y95744D01*
X504283Y98870D01*
X510531Y101992D01*
X519906D01*
X526157Y98870D01*
X529283Y95744D01*
X548031Y73870D02*
X551157Y67618D01*
X557406Y64492D01*
X563657D01*
X569906Y67618D01*
X573031Y73870D01*
Y80118D01*
X569906Y86370D01*
X563657Y89492D01*
X557406D01*
X551157Y86370D01*
X548031Y80118D01*
Y73870D01*
X598031Y64492D02*
Y89492D01*
Y86370D02*
X601157Y89492D01*
X607406D01*
X610531Y86370D01*
Y76992D01*
Y86370D02*
X613657Y89492D01*
X619906D01*
X623031Y86370D01*
Y64492D01*
X648031Y89492D02*
Y55118D01*
Y73870D02*
X651157Y67618D01*
X657406Y64492D01*
X663657D01*
X669906Y67618D01*
X673031Y73870D01*
Y80118D01*
X669906Y86370D01*
X663657Y89492D01*
X657406D01*
X651157Y86370D01*
X648031Y80118D01*
Y73870D01*
X698031D02*
X701157Y67618D01*
X707406Y64492D01*
X713657D01*
X719906Y67618D01*
X723031Y73870D01*
Y80118D01*
X719906Y86370D01*
X713657Y89492D01*
X707406D01*
X701157Y86370D01*
X698031Y80118D01*
Y73870D01*
X748031Y64492D02*
Y89492D01*
Y80118D02*
X751157Y86370D01*
X757406Y89492D01*
X763657D01*
X769906Y86370D01*
X773031Y80118D01*
Y64492D01*
X823031Y67618D02*
X819906Y64492D01*
X813657D01*
X807406D01*
X801157Y67618D01*
X798031Y73870D01*
Y83244D01*
X801157Y86370D01*
X807406Y89492D01*
X813657D01*
X819906Y86370D01*
X823031Y83244D01*
Y80118D01*
X819906Y76992D01*
X813657Y73870D01*
X807406D01*
X801157Y76992D01*
X798031Y80118D01*
X848031Y64492D02*
Y89492D01*
Y80118D02*
X851157Y86370D01*
X857406Y89492D01*
X863657D01*
X869906Y86370D01*
X873031Y80118D01*
Y64492D01*
X903240Y89492D02*
X917823D01*
X910531Y95744D02*
Y67618D01*
X913657Y64492D01*
X916783D01*
X919906Y67618D01*
X948031D02*
X954283Y64492D01*
X966783D01*
X973031Y67618D01*
Y73870D01*
X966783Y76992D01*
X954283D01*
X948031Y80118D01*
Y86370D01*
X954283Y89492D01*
X966783D01*
X973031Y86370D01*
X1073031Y64492D02*
X1048031D01*
X1069906Y86370D01*
X1073031Y92618D01*
X1069906Y98870D01*
X1063657Y101992D01*
X1054283D01*
X1048031Y98870D01*
X1101157Y67618D02*
X1107406Y64492D01*
X1113657D01*
X1119906Y67618D01*
X1123031Y73870D01*
Y92618D01*
X1119906Y98870D01*
X1113657Y101992D01*
X1107406D01*
X1101157Y98870D01*
X1098031Y92618D01*
Y73870D01*
X1101157Y67618D01*
X1119906Y98870D01*
X1173031Y64492D02*
X1148031D01*
X1169906Y86370D01*
X1173031Y92618D01*
X1169906Y98870D01*
X1163657Y101992D01*
X1154283D01*
X1148031Y98870D01*
X1223031Y64492D02*
X1198031D01*
X1219906Y86370D01*
X1223031Y92618D01*
X1219906Y98870D01*
X1213657Y101992D01*
X1204283D01*
X1198031Y98870D01*
X314839Y618354D02*
X311713Y621480D01*
X308587Y627732D01*
Y637106D01*
X311713Y643354D01*
X314839Y646480D01*
X321087Y649606D01*
X333587D01*
X339839Y646480D01*
X342965Y643354D01*
X346087Y637106D01*
Y627732D01*
X342965Y621480D01*
X339839Y618354D01*
X308587Y583980D02*
X346087D01*
X321087Y599606D01*
Y574606D01*
X314839Y791583D02*
X311713Y794709D01*
X308587Y800961D01*
Y810335D01*
X311713Y816583D01*
X314839Y819709D01*
X321087Y822835D01*
X333587D01*
X339839Y819709D01*
X342965Y816583D01*
X346087Y810335D01*
Y800961D01*
X342965Y794709D01*
X339839Y791583D01*
X311713Y772835D02*
X308587Y766583D01*
Y757209D01*
X311713Y750961D01*
X317965Y747835D01*
X321087D01*
X327339Y750961D01*
X330465Y757209D01*
Y772835D01*
X346087D01*
Y747835D01*
X355390Y829217D02*
X408390D01*
Y706217D01*
X355390D01*
Y829217D01*
X374016Y261343D02*
Y298843D01*
X405268D01*
X399016Y280094D02*
X374016D01*
Y261343D02*
X405268D01*
X424016Y270720D02*
X427142Y264469D01*
X433390Y261343D01*
X445890D01*
X452142Y264469D01*
X455268Y270720D01*
X452142Y276969D01*
X445890Y280094D01*
X433390D01*
X427142Y283220D01*
X424016Y289469D01*
X427142Y295720D01*
X433390Y298843D01*
X445890D01*
X452142Y295720D01*
X455268Y289469D01*
X474016Y261343D02*
Y298843D01*
X492768D01*
X499016Y295720D01*
X502142Y292594D01*
X505268Y286343D01*
Y273843D01*
X502142Y267594D01*
X499016Y264469D01*
X492768Y261343D01*
X474016D01*
X524016D02*
Y298843D01*
Y280094D02*
X533390D01*
X555268Y298843D01*
X533390Y280094D02*
X555268Y261343D01*
X574016Y273843D02*
X599016D01*
X655268Y267594D02*
X652142Y264469D01*
X645890Y261343D01*
X636516D01*
X630268Y264469D01*
X627142Y267594D01*
X624016Y273843D01*
Y286343D01*
X627142Y292594D01*
X630268Y295720D01*
X636516Y298843D01*
X645890D01*
X652142Y295720D01*
X655268Y292594D01*
X674016Y261343D02*
Y298843D01*
X695890D01*
X702142Y295720D01*
X705268Y289469D01*
X702142Y283220D01*
X695890Y280094D01*
X674016D01*
X695890D02*
X705268Y261343D01*
X724016D02*
Y298843D01*
X755268D01*
X749016Y280094D02*
X724016D01*
Y261343D02*
X755268D01*
X774016Y273843D02*
X799016D01*
X845890Y280094D02*
X852142Y276969D01*
X855268Y270720D01*
X852142Y264469D01*
X845890Y261343D01*
X824016D01*
Y298843D01*
X845890D01*
X852142Y295720D01*
X855268Y289469D01*
X852142Y283220D01*
X845890Y280094D01*
X824016D01*
X924016Y286343D02*
X936516Y261343D01*
X949016Y286343D01*
X977142Y264469D02*
X983390Y261343D01*
X989642D01*
X995890Y264469D01*
X999016Y270720D01*
Y289469D01*
X995890Y295720D01*
X989642Y298843D01*
X983390D01*
X977142Y295720D01*
X974016Y289469D01*
Y270720D01*
X977142Y264469D01*
X995890Y295720D01*
X1027142Y261343D02*
X1030268Y264469D01*
X1027142Y267594D01*
X1024016Y264469D01*
X1027142Y261343D01*
X1080268D02*
X1092768D01*
X1086516D02*
Y298843D01*
X1080268Y292594D01*
X408390Y576295D02*
X355390D01*
Y699295D01*
X408390D01*
Y576295D01*
X511567Y1893579D02*
X508441Y1890453D01*
X502189Y1887327D01*
X492815D01*
X486567Y1890453D01*
X483441Y1893579D01*
X480315Y1899827D01*
Y1912327D01*
X483441Y1918579D01*
X486567Y1921705D01*
X492815Y1924827D01*
X502189D01*
X508441Y1921705D01*
X511567Y1918579D01*
X536567Y1887327D02*
X549067D01*
X542815D02*
Y1924827D01*
X536567Y1918579D01*
X531252Y2306965D02*
X528126Y2303839D01*
X521874Y2300713D01*
X512500D01*
X506252Y2303839D01*
X503126Y2306965D01*
X500000Y2313213D01*
Y2325713D01*
X503126Y2331965D01*
X506252Y2335091D01*
X512500Y2338213D01*
X521874D01*
X528126Y2335091D01*
X531252Y2331965D01*
X575000Y2300713D02*
X550000D01*
X571874Y2322591D01*
X575000Y2328839D01*
X571874Y2335091D01*
X565626Y2338213D01*
X556252D01*
X550000Y2335091D01*
X513303Y2375075D02*
Y2428075D01*
X636303D01*
Y2375075D01*
X513303D01*
X544807Y992126D02*
X582307D01*
Y973374D01*
X579185Y967126D01*
X576059Y964000D01*
X569807Y960874D01*
X557307D01*
X551059Y964000D01*
X547933Y967126D01*
X544807Y973374D01*
Y992126D01*
Y917126D02*
Y942126D01*
X566685Y920252D01*
X572933Y917126D01*
X579185Y920252D01*
X582307Y926500D01*
Y935874D01*
X579185Y942126D01*
X539370Y2438508D02*
Y2476008D01*
X561244D01*
X567496Y2472886D01*
X570622Y2466634D01*
X567496Y2460386D01*
X561244Y2457260D01*
X539370D01*
X561244D02*
X570622Y2438508D01*
X595622D02*
X608122D01*
X601870D02*
Y2476008D01*
X595622Y2469760D01*
X576303Y754406D02*
Y741906D01*
Y748154D02*
X613803D01*
Y754406D02*
Y741906D01*
X582555Y682528D02*
X579429Y685654D01*
X576303Y691906D01*
Y701280D01*
X579429Y707528D01*
X582555Y710654D01*
X588803Y713780D01*
X601303D01*
X607555Y710654D01*
X610681Y707528D01*
X613803Y701280D01*
Y691906D01*
X610681Y685654D01*
X607555Y682528D01*
X576303Y657528D02*
Y645028D01*
Y651280D02*
X613803D01*
X607555Y657528D01*
X623547Y2598425D02*
X661047D01*
Y2576551D01*
X657925Y2570299D01*
X651673Y2567173D01*
X645425Y2570299D01*
X642299Y2576551D01*
Y2598425D01*
Y2576551D02*
X623547Y2567173D01*
Y2542173D02*
Y2529673D01*
Y2535925D02*
X661047D01*
X654799Y2542173D01*
X626673Y2495299D02*
X623547Y2489051D01*
Y2482799D01*
X626673Y2476551D01*
X632925Y2473425D01*
X651673D01*
X657925Y2476551D01*
X661047Y2482799D01*
Y2489051D01*
X657925Y2495299D01*
X651673Y2498425D01*
X632925D01*
X626673Y2495299D01*
X657925Y2476551D01*
X615665Y2166413D02*
Y2219413D01*
X738665D01*
Y2166413D01*
X615665D01*
X633858Y1842150D02*
Y1804650D01*
X665110D01*
X690110D02*
X702610D01*
X696358D02*
Y1842150D01*
X690110Y1835902D01*
X651106Y2375516D02*
X663606D01*
X657358D02*
Y2413016D01*
X651106D02*
X663606D01*
X722984Y2381768D02*
X719858Y2378642D01*
X713606Y2375516D01*
X704232D01*
X697984Y2378642D01*
X694858Y2381768D01*
X691732Y2388016D01*
Y2400516D01*
X694858Y2406768D01*
X697984Y2409894D01*
X704232Y2413016D01*
X713606D01*
X719858Y2409894D01*
X722984Y2406768D01*
X766732Y2375516D02*
X741732D01*
X763606Y2397394D01*
X766732Y2403642D01*
X763606Y2409894D01*
X757358Y2413016D01*
X747984D01*
X741732Y2409894D01*
X649606Y690476D02*
Y727976D01*
X668358D01*
X674606Y724854D01*
X677732Y721728D01*
X680858Y715476D01*
Y702976D01*
X677732Y696728D01*
X674606Y693602D01*
X668358Y690476D01*
X649606D01*
X699606Y693602D02*
X705858Y690476D01*
X715232D01*
X721480Y693602D01*
X724606Y699854D01*
Y702976D01*
X721480Y709228D01*
X715232Y712354D01*
X699606D01*
Y727976D01*
X724606D01*
X674287Y2600870D02*
X727287D01*
Y2477870D01*
X674287D01*
Y2600870D01*
X759843Y2143232D02*
Y2180732D01*
X778594D01*
X784843Y2177610D01*
X787969Y2174484D01*
X791094Y2168232D01*
Y2155732D01*
X787969Y2149484D01*
X784843Y2146358D01*
X778594Y2143232D01*
X759843D01*
X812969Y2146358D02*
X819217Y2143232D01*
X825469D01*
X831717Y2146358D01*
X834843Y2152610D01*
X831717Y2158858D01*
X825469Y2161984D01*
X819217D01*
X825469D02*
X831717Y2165110D01*
X834843Y2171358D01*
X831717Y2177610D01*
X825469Y2180732D01*
X819217D01*
X812969Y2177610D01*
X784965Y2555118D02*
X822465D01*
Y2533244D01*
X819343Y2526992D01*
X813091Y2523866D01*
X806843Y2526992D01*
X803717Y2533244D01*
Y2555118D01*
Y2533244D02*
X784965Y2523866D01*
Y2480118D02*
Y2505118D01*
X806843Y2483244D01*
X813091Y2480118D01*
X819343Y2483244D01*
X822465Y2489492D01*
Y2498866D01*
X819343Y2505118D01*
X776650Y2470949D02*
X829650D01*
Y2347949D01*
X776650D01*
Y2470949D01*
X796776Y933071D02*
X834276D01*
Y911197D01*
X831154Y904945D01*
X824902Y901819D01*
X818654Y904945D01*
X815528Y911197D01*
Y933071D01*
Y911197D02*
X796776Y901819D01*
Y876819D02*
Y864319D01*
Y870571D02*
X834276D01*
X828028Y876819D01*
X796776Y817445D02*
X834276D01*
X809276Y833071D01*
Y808071D01*
X788461Y797720D02*
X841461D01*
Y674720D01*
X788461D01*
Y797720D01*
X800272Y1085122D02*
X853272D01*
Y962122D01*
X800272D01*
Y1085122D01*
Y1215043D02*
X853272D01*
Y1092043D01*
X800272D01*
Y1215043D01*
Y1344965D02*
X853272D01*
Y1221965D01*
X800272D01*
Y1344965D01*
X803150Y2657110D02*
Y2619610D01*
X834402D01*
X853150D02*
Y2657110D01*
X884402D01*
X878150Y2638362D02*
X853150D01*
Y2619610D02*
X884402D01*
X903150D02*
Y2657110D01*
X921902D01*
X928150Y2653988D01*
X931276Y2650862D01*
X934402Y2644610D01*
Y2632110D01*
X931276Y2625862D01*
X928150Y2622736D01*
X921902Y2619610D01*
X903150D01*
X978150D02*
X953150D01*
X975024Y2641488D01*
X978150Y2647736D01*
X975024Y2653988D01*
X968776Y2657110D01*
X959402D01*
X953150Y2653988D01*
X838461Y1791583D02*
X835335Y1794709D01*
X832209Y1800961D01*
Y1810335D01*
X835335Y1816583D01*
X838461Y1819709D01*
X844709Y1822835D01*
X857209D01*
X863461Y1819709D01*
X866587Y1816583D01*
X869709Y1810335D01*
Y1800961D01*
X866587Y1794709D01*
X863461Y1791583D01*
X835335Y1769709D02*
X832209Y1763461D01*
Y1757209D01*
X835335Y1750961D01*
X841587Y1747835D01*
X847835Y1750961D01*
X850961Y1757209D01*
Y1763461D01*
Y1757209D02*
X854087Y1750961D01*
X860335Y1747835D01*
X866587Y1750961D01*
X869709Y1757209D01*
Y1763461D01*
X866587Y1769709D01*
X830709Y1584177D02*
Y1621677D01*
X849461D01*
X855709Y1618555D01*
X858835Y1615429D01*
X861961Y1609177D01*
Y1596677D01*
X858835Y1590429D01*
X855709Y1587303D01*
X849461Y1584177D01*
X830709D01*
X886961D02*
X899461D01*
X893209D02*
Y1621677D01*
X886961Y1615429D01*
X859768Y1192913D02*
X897268D01*
Y1171039D01*
X894146Y1164787D01*
X887894Y1161661D01*
X881646Y1164787D01*
X878520Y1171039D01*
Y1192913D01*
Y1171039D02*
X859768Y1161661D01*
Y1127287D02*
X897268D01*
X872268Y1142913D01*
Y1117913D01*
X859768Y1318898D02*
X897268D01*
Y1297024D01*
X894146Y1290772D01*
X887894Y1287646D01*
X881646Y1290772D01*
X878520Y1297024D01*
Y1318898D01*
Y1297024D02*
X859768Y1287646D01*
X862894Y1265772D02*
X859768Y1259524D01*
Y1253272D01*
X862894Y1247024D01*
X869146Y1243898D01*
X875394Y1247024D01*
X878520Y1253272D01*
Y1259524D01*
Y1253272D02*
X881646Y1247024D01*
X887894Y1243898D01*
X894146Y1247024D01*
X897268Y1253272D01*
Y1259524D01*
X894146Y1265772D01*
X863705Y1059055D02*
X901205D01*
Y1037181D01*
X898083Y1030929D01*
X891831Y1027803D01*
X885583Y1030929D01*
X882457Y1037181D01*
Y1059055D01*
Y1037181D02*
X863705Y1027803D01*
X866831Y1009055D02*
X863705Y1002803D01*
Y993429D01*
X866831Y987181D01*
X873083Y984055D01*
X876205D01*
X882457Y987181D01*
X885583Y993429D01*
Y1009055D01*
X901205D01*
Y984055D01*
X879453Y933071D02*
X916953D01*
Y911197D01*
X913831Y904945D01*
X907579Y901819D01*
X901331Y904945D01*
X898205Y911197D01*
Y933071D01*
Y911197D02*
X879453Y901819D01*
Y876819D02*
Y864319D01*
Y870571D02*
X916953D01*
X910705Y876819D01*
X882579Y829945D02*
X879453Y823697D01*
Y817445D01*
X882579Y811197D01*
X888831Y808071D01*
X895079Y811197D01*
X898205Y817445D01*
Y823697D01*
Y817445D02*
X901331Y811197D01*
X907579Y808071D01*
X913831Y811197D01*
X916953Y817445D01*
Y823697D01*
X913831Y829945D01*
X871138Y797720D02*
X924138D01*
Y674720D01*
X871138D01*
Y797720D01*
X885827Y2265280D02*
Y2302780D01*
X904579D01*
X910827Y2299657D01*
X913953Y2296531D01*
X917079Y2290280D01*
Y2277780D01*
X913953Y2271531D01*
X910827Y2268406D01*
X904579Y2265280D01*
X885827D01*
X951453D02*
Y2302780D01*
X935827Y2277780D01*
X960827D01*
X897638Y2410949D02*
Y2448449D01*
X919512D01*
X925764Y2445327D01*
X928890Y2439075D01*
X925764Y2432827D01*
X919512Y2429701D01*
X897638D01*
X919512D02*
X928890Y2410949D01*
X957012D02*
X963264Y2414075D01*
X969512Y2420327D01*
X972638Y2429701D01*
Y2439075D01*
X969512Y2445327D01*
X963264Y2448449D01*
X957012D01*
X950764Y2445327D01*
X947638Y2439075D01*
X950764Y2432827D01*
X957012Y2429701D01*
X963264D01*
X969512Y2432827D01*
X972638Y2439075D01*
X918382Y1163862D02*
X971382D01*
Y1040862D01*
X918382D01*
Y1163862D01*
Y1293783D02*
X971382D01*
Y1170783D01*
X918382D01*
Y1293783D01*
Y1423705D02*
X971382D01*
Y1300705D01*
X918382D01*
Y1423705D01*
X952323Y1746772D02*
Y1906772D01*
X882323D01*
Y1746772D01*
X952323D01*
X959138Y2400516D02*
Y2347516D01*
X836138D01*
Y2400516D01*
X959138D01*
X964760Y1953957D02*
Y2170850D01*
X965508Y2176283D01*
X967799Y2180213D01*
X971709Y2182594D01*
X977311Y2183398D01*
X1094189D01*
X1103638Y2181567D01*
X1110661Y2176681D01*
X1115035Y2169665D01*
X1116543Y2161437D01*
Y2075543D01*
X1115024Y2067374D01*
X1110858Y2060783D01*
X1104630Y2056181D01*
X1096933Y2053969D01*
X1090268Y2052500D01*
X1088772Y2050882D01*
X1088307Y2048087D01*
X1088728Y2045906D01*
X1090217Y2044461D01*
X1097717Y2042594D01*
X1101654Y2041622D01*
X1105071Y2039508D01*
X1109484Y2033185D01*
X1118110Y2010043D01*
X1121496Y2003913D01*
X1125118Y2001827D01*
X1131055Y2001024D01*
X1201650D01*
X1207374Y2001807D01*
X1211555Y2004063D01*
X1214114Y2007642D01*
X1214988Y2012398D01*
Y2021024D01*
X1214350Y2025457D01*
X1212240Y2029114D01*
X1208366Y2031669D01*
X1202437Y2032791D01*
X1159685Y2034752D01*
X1148654Y2037602D01*
X1139685Y2043429D01*
X1133654Y2051685D01*
X1131449Y2061815D01*
Y2157512D01*
X1133071Y2168035D01*
X1137673Y2175504D01*
X1144850Y2179961D01*
X1154197Y2181437D01*
X1254598D01*
X1260591Y2180642D01*
X1264598Y2178299D01*
X1266843Y2174488D01*
X1267543Y2169280D01*
Y2137118D01*
X1266776Y2131457D01*
X1264354Y2127409D01*
X1260094Y2124984D01*
X1253815Y2124173D01*
X1199299D01*
X1193984Y2123291D01*
X1190327Y2120941D01*
X1188213Y2117555D01*
X1187531Y2113587D01*
Y2102602D01*
X1188476Y2098583D01*
X1191260Y2095445D01*
X1195807Y2093339D01*
X1202043Y2092406D01*
X1247146Y2089661D01*
X1256736Y2086984D01*
X1264453Y2080886D01*
X1269594Y2072508D01*
X1271465Y2062992D01*
Y1964547D01*
X1270906Y1959488D01*
X1269339Y1955177D01*
X1263866Y1948713D01*
X1256406Y1944969D01*
X1248323Y1943760D01*
X1086736D01*
X1081142Y1944154D01*
X1076685Y1945720D01*
X1073335Y1949055D01*
X1071047Y1954744D01*
X1056929Y2012398D01*
X1055366Y2017091D01*
X1052957Y2020535D01*
X1048709Y2022654D01*
X1041634Y2023378D01*
X1036756Y2024051D01*
X1032906Y2026122D01*
X1030382Y2029665D01*
X1029472Y2034752D01*
Y2064953D01*
X1030228Y2070039D01*
X1032563Y2073579D01*
X1036591Y2075654D01*
X1042417Y2076327D01*
X1050260D01*
X1055059Y2077409D01*
X1058350Y2080295D01*
X1060244Y2084433D01*
X1060850Y2089268D01*
Y2113976D01*
X1060000Y2118673D01*
X1057567Y2122114D01*
X1053736Y2124236D01*
X1048693Y2124961D01*
X1022024D01*
Y1955134D01*
X1020835Y1949717D01*
X1017807Y1946213D01*
X1013748Y1944327D01*
X1009472Y1943760D01*
X976917D01*
X971543Y1944472D01*
X967752Y1946508D01*
X965500Y1949717D01*
X964760Y1953957D01*
G36*
X964760Y1953957D02*
Y2170850D01*
X965508Y2176283D01*
X967799Y2180213D01*
X971709Y2182594D01*
X977311Y2183398D01*
X1094189D01*
X1103638Y2181567D01*
X1110661Y2176681D01*
X1115035Y2169665D01*
X1116543Y2161437D01*
Y2075543D01*
X1115024Y2067374D01*
X1110858Y2060783D01*
X1104630Y2056181D01*
X1096933Y2053969D01*
X1090268Y2052500D01*
X1088772Y2050882D01*
X1088307Y2048087D01*
X1088728Y2045906D01*
X1090217Y2044461D01*
X1097717Y2042594D01*
X1101654Y2041622D01*
X1105071Y2039508D01*
X1109484Y2033185D01*
X1118110Y2010043D01*
X1121496Y2003913D01*
X1125118Y2001827D01*
X1131055Y2001024D01*
X1201650D01*
X1207374Y2001807D01*
X1211555Y2004063D01*
X1214114Y2007642D01*
X1214988Y2012398D01*
Y2021024D01*
X1214350Y2025457D01*
X1212240Y2029114D01*
X1208366Y2031669D01*
X1202437Y2032791D01*
X1159685Y2034752D01*
X1148654Y2037602D01*
X1139685Y2043429D01*
X1133654Y2051685D01*
X1131449Y2061815D01*
Y2157512D01*
X1133071Y2168035D01*
X1137673Y2175504D01*
X1144850Y2179961D01*
X1154197Y2181437D01*
X1254598D01*
X1260591Y2180642D01*
X1264598Y2178299D01*
X1266843Y2174488D01*
X1267543Y2169280D01*
Y2137118D01*
X1266776Y2131457D01*
X1264354Y2127409D01*
X1260094Y2124984D01*
X1253815Y2124173D01*
X1199299D01*
X1193984Y2123291D01*
X1190327Y2120941D01*
X1188213Y2117555D01*
X1187531Y2113587D01*
Y2102602D01*
X1188476Y2098583D01*
X1191260Y2095445D01*
X1195807Y2093339D01*
X1202043Y2092406D01*
X1247146Y2089661D01*
X1256736Y2086984D01*
X1264453Y2080886D01*
X1269594Y2072508D01*
X1271465Y2062992D01*
Y1964547D01*
X1270906Y1959488D01*
X1269339Y1955177D01*
X1263866Y1948713D01*
X1256406Y1944969D01*
X1248323Y1943760D01*
X1086736D01*
X1081142Y1944154D01*
X1076685Y1945720D01*
X1073335Y1949055D01*
X1071047Y1954744D01*
X1056929Y2012398D01*
X1055366Y2017091D01*
X1052957Y2020535D01*
X1048709Y2022654D01*
X1041634Y2023378D01*
X1036756Y2024051D01*
X1032906Y2026122D01*
X1030382Y2029665D01*
X1029472Y2034752D01*
Y2064953D01*
X1030228Y2070039D01*
X1032563Y2073579D01*
X1036591Y2075654D01*
X1042417Y2076327D01*
X1050260D01*
X1055059Y2077409D01*
X1058350Y2080295D01*
X1060244Y2084433D01*
X1060850Y2089268D01*
Y2113976D01*
X1060000Y2118673D01*
X1057567Y2122114D01*
X1053736Y2124236D01*
X1048693Y2124961D01*
X1022024D01*
Y1955134D01*
X1020835Y1949717D01*
X1017807Y1946213D01*
X1013748Y1944327D01*
X1009472Y1943760D01*
X976917D01*
X971543Y1944472D01*
X967752Y1946508D01*
X965500Y1949717D01*
X964760Y1953957D01*
G37*
X981815Y1141732D02*
X1019315D01*
Y1119858D01*
X1016193Y1113606D01*
X1009941Y1110480D01*
X1003693Y1113606D01*
X1000567Y1119858D01*
Y1141732D01*
Y1119858D02*
X981815Y1110480D01*
X1000567Y1082358D02*
Y1076106D01*
X1003693Y1069858D01*
X1009941Y1066732D01*
X1016193Y1069858D01*
X1019315Y1076106D01*
Y1082358D01*
X1016193Y1088606D01*
X1009941Y1091732D01*
X1003693Y1088606D01*
X1000567Y1082358D01*
X997441Y1088606D01*
X991193Y1091732D01*
X984941Y1088606D01*
X981815Y1082358D01*
Y1076106D01*
X984941Y1069858D01*
X991193Y1066732D01*
X997441Y1069858D01*
X1000567Y1076106D01*
X981815Y1259843D02*
X1019315D01*
Y1237969D01*
X1016193Y1231717D01*
X1009941Y1228591D01*
X1003693Y1231717D01*
X1000567Y1237969D01*
Y1259843D01*
Y1237969D02*
X981815Y1228591D01*
Y1209843D02*
X1019315Y1184843D01*
Y1209843D01*
X981815Y1397638D02*
X1019315D01*
Y1375764D01*
X1016193Y1369512D01*
X1009941Y1366386D01*
X1003693Y1369512D01*
X1000567Y1375764D01*
Y1397638D01*
Y1375764D02*
X981815Y1366386D01*
X991193Y1347638D02*
X997441Y1344512D01*
X1000567Y1338264D01*
Y1332012D01*
X997441Y1325764D01*
X991193Y1322638D01*
X984941Y1325764D01*
X981815Y1332012D01*
Y1338264D01*
X984941Y1344512D01*
X991193Y1347638D01*
X1000567D01*
X1009941Y1344512D01*
X1016193Y1338264D01*
X1019315Y1332012D01*
X996063Y771654D02*
Y547244D01*
X1240157D01*
X996063Y771654D02*
X1043307D01*
Y913386D01*
X1031063Y1746772D02*
Y1906772D01*
X961063D01*
Y1746772D01*
X1031063D01*
X1047122Y1767961D02*
X1043996Y1771087D01*
X1040870Y1777339D01*
Y1786713D01*
X1043996Y1792961D01*
X1047122Y1796087D01*
X1053370Y1799213D01*
X1065870D01*
X1072122Y1796087D01*
X1075248Y1792961D01*
X1078370Y1786713D01*
Y1777339D01*
X1075248Y1771087D01*
X1072122Y1767961D01*
X1050248Y1749213D02*
X1056496Y1746087D01*
X1059622Y1739839D01*
Y1733587D01*
X1056496Y1727339D01*
X1050248Y1724213D01*
X1043996Y1727339D01*
X1040870Y1733587D01*
Y1739839D01*
X1043996Y1746087D01*
X1050248Y1749213D01*
X1059622D01*
X1068996Y1746087D01*
X1075248Y1739839D01*
X1078370Y1733587D01*
X1121677Y2393701D02*
Y2362449D01*
X1084177Y2393701D01*
Y2362449D01*
Y2337449D02*
Y2324949D01*
Y2331201D02*
X1121677D01*
X1115429Y2337449D01*
X1128661Y925630D02*
X1288661D01*
Y995630D01*
X1128661D01*
Y925630D01*
X1165110Y1015626D02*
X1161984Y1012500D01*
X1155732Y1009374D01*
X1146358D01*
X1140110Y1012500D01*
X1136984Y1015626D01*
X1133858Y1021874D01*
Y1034374D01*
X1136984Y1040626D01*
X1140110Y1043752D01*
X1146358Y1046874D01*
X1155732D01*
X1161984Y1043752D01*
X1165110Y1040626D01*
X1183858Y1009374D02*
X1208858Y1046874D01*
X1183858D01*
X1192913Y913386D02*
X1043307D01*
X1210161Y904012D02*
Y891512D01*
Y897760D02*
X1247661D01*
Y904012D02*
Y891512D01*
X1216413Y832134D02*
X1213287Y835260D01*
X1210161Y841512D01*
Y850886D01*
X1213287Y857134D01*
X1216413Y860260D01*
X1222661Y863386D01*
X1235161D01*
X1241413Y860260D01*
X1244539Y857134D01*
X1247661Y850886D01*
Y841512D01*
X1244539Y835260D01*
X1241413Y832134D01*
X1210161Y797760D02*
X1247661D01*
X1222661Y813386D01*
Y788386D01*
X1233343Y474886D02*
X1286343D01*
Y351886D01*
X1233343D01*
Y474886D01*
X1240157Y547244D02*
Y771654D01*
X1192913D01*
Y913386D01*
X1249531Y2377953D02*
X1287031D01*
Y2356079D01*
X1283909Y2349827D01*
X1277657Y2346701D01*
X1271409Y2349827D01*
X1268283Y2356079D01*
Y2377953D01*
Y2356079D02*
X1249531Y2346701D01*
Y2321701D02*
Y2309201D01*
Y2315453D02*
X1287031D01*
X1280783Y2321701D01*
X1249531Y2252953D02*
Y2277953D01*
X1271409Y2256079D01*
X1277657Y2252953D01*
X1283909Y2256079D01*
X1287031Y2262327D01*
Y2271701D01*
X1283909Y2277953D01*
X1294906Y807087D02*
X1257406D01*
Y775835D01*
Y757087D02*
X1294906D01*
Y725835D01*
X1276157Y732087D02*
Y757087D01*
X1257406D02*
Y725835D01*
Y707087D02*
X1294906D01*
Y688335D01*
X1291783Y682087D01*
X1288657Y678961D01*
X1282406Y675835D01*
X1269906D01*
X1263657Y678961D01*
X1260531Y682087D01*
X1257406Y688335D01*
Y707087D01*
Y650835D02*
Y638335D01*
Y644587D02*
X1294906D01*
X1288657Y650835D01*
X1261343Y606299D02*
X1298843D01*
Y584425D01*
X1295720Y578173D01*
X1289469Y575047D01*
X1283220Y578173D01*
X1280094Y584425D01*
Y606299D01*
Y584425D02*
X1261343Y575047D01*
Y550047D02*
Y537547D01*
Y543799D02*
X1298843D01*
X1292594Y550047D01*
X1261343Y500047D02*
Y487547D01*
Y493799D02*
X1298843D01*
X1292594Y500047D01*
X1261343Y1897638D02*
X1298843D01*
Y1866386D01*
X1280094Y1872638D02*
Y1897638D01*
X1270720Y1847638D02*
X1264469Y1844512D01*
X1261343Y1838264D01*
Y1825764D01*
X1264469Y1819512D01*
X1270720Y1816386D01*
X1276969Y1819512D01*
X1280094Y1825764D01*
Y1838264D01*
X1283220Y1844512D01*
X1289469Y1847638D01*
X1295720Y1844512D01*
X1298843Y1838264D01*
Y1825764D01*
X1295720Y1819512D01*
X1289469Y1816386D01*
X1261343Y1791386D02*
Y1778886D01*
Y1785138D02*
X1298843D01*
X1292594Y1791386D01*
X1303150Y1712476D02*
X1306276Y1709350D01*
X1312524Y1706224D01*
X1318776Y1709350D01*
X1321902Y1712476D01*
Y1743724D01*
X1328150D01*
X1321902D02*
X1309402D01*
X1378150Y1706224D02*
X1353150D01*
X1375024Y1728102D01*
X1378150Y1734350D01*
X1375024Y1740602D01*
X1368776Y1743724D01*
X1359402D01*
X1353150Y1740602D01*
X1308146Y2128429D02*
X1361146D01*
Y2005429D01*
X1308146D01*
Y2128429D01*
Y2258350D02*
X1361146D01*
Y2135350D01*
X1308146D01*
Y2258350D01*
X1357898Y1996063D02*
X1320398D01*
Y1964811D01*
Y1946063D02*
X1357898D01*
Y1914811D01*
X1339150Y1921063D02*
Y1946063D01*
X1320398D02*
Y1914811D01*
Y1896063D02*
X1357898D01*
Y1877311D01*
X1354776Y1871063D01*
X1351650Y1867937D01*
X1345398Y1864811D01*
X1332898D01*
X1326650Y1867937D01*
X1323524Y1871063D01*
X1320398Y1877311D01*
Y1896063D01*
X1323524Y1842937D02*
X1320398Y1836689D01*
Y1830437D01*
X1323524Y1824189D01*
X1329776Y1821063D01*
X1336024Y1824189D01*
X1339150Y1830437D01*
Y1836689D01*
Y1830437D02*
X1342276Y1824189D01*
X1348524Y1821063D01*
X1354776Y1824189D01*
X1357898Y1830437D01*
Y1836689D01*
X1354776Y1842937D01*
X1322146Y2074429D02*
X1347146D01*
X1324646Y2059429D02*
X1334646Y2071929D01*
X1344646Y2059429D01*
X1324646D01*
X1326894Y480071D02*
X1330020Y476945D01*
X1333146Y470693D01*
Y461319D01*
X1330020Y455071D01*
X1326894Y451945D01*
X1320646Y448819D01*
X1308146D01*
X1301894Y451945D01*
X1298768Y455071D01*
X1295646Y461319D01*
Y470693D01*
X1298768Y476945D01*
X1301894Y480071D01*
X1333146Y505071D02*
Y517571D01*
Y511319D02*
X1295646D01*
X1301894Y505071D01*
X1333146Y555071D02*
Y567571D01*
Y561319D02*
X1295646D01*
X1301894Y555071D01*
X1344646Y700413D02*
X1334646Y687913D01*
X1324646Y700413D01*
X1344646D01*
X1347146Y685413D02*
X1322146D01*
X1361146Y501492D02*
X1308146D01*
Y624492D01*
X1361146D01*
Y501492D01*
Y631413D02*
X1308146D01*
Y754413D01*
X1361146D01*
Y631413D01*
D02*
D18*
X318898Y2269685D02*
X234252Y2204724D01*
Y1942913D01*
X318898D01*
X433071Y590551D02*
Y645669D01*
Y659449D02*
Y750000D01*
X551181D01*
Y659449D01*
X433071D01*
X476378Y2269685D02*
X561024Y2204724D01*
Y1942913D01*
X476378D01*
X605315Y2149606D02*
X749803D01*
X614173Y2196850D02*
X598425D01*
X539370Y2255906D01*
Y2291339D01*
X629921Y1866142D02*
X826772D01*
X643898Y2086614D02*
X749803D01*
X687992Y2242126D02*
X666339D01*
Y2356299D01*
X687992D01*
Y2242126D01*
X738189Y600394D02*
X702756D01*
X750984Y2236220D02*
X701772D01*
X761811Y2674213D02*
X670276D01*
Y2609252D01*
X761811D01*
X774606Y2255906D02*
X919094D01*
X813189Y2192913D02*
X919094D01*
X826772Y2062992D02*
X629921D01*
X1003937Y2407283D02*
Y2301378D01*
X1066929Y2445866D02*
Y2301378D01*
X1161417Y1912913D02*
Y1819370D01*
X1255906Y1679134D02*
G75*
G02*
Y1675197I0J-1969D01*
G01*
Y1679134D02*
G75*
G02*
Y1675197I0J-1969D01*
G01*
G75*
G02*
Y1679134I0J1969D01*
G01*
D02*
D19*
X1274209Y1917378D02*
X1282953Y1919142D01*
X1290094Y1923957D01*
X1294906Y1931094D01*
X1296673Y1939839D01*
Y2186142D01*
X1294906Y2194886D01*
X1290094Y2202028D01*
X1282953Y2206843D01*
X1274209Y2208606D01*
X962016D01*
X953272Y2206843D01*
X946130Y2202028D01*
X941315Y2194886D01*
X939551Y2186142D01*
Y1939839D01*
X941315Y1931094D01*
X946130Y1923957D01*
X953272Y1919142D01*
X962016Y1917378D01*
X1274209D01*
X1289740Y2186150D02*
X1288520Y2192193D01*
X1285193Y2197130D01*
X1280256Y2200457D01*
X1274209Y2201677D01*
X962016D01*
X955969Y2200457D01*
X951031Y2197130D01*
X947705Y2192193D01*
X946484Y2186150D01*
Y1939846D01*
X947705Y1933799D01*
X951031Y1928862D01*
X955969Y1925535D01*
X962016Y1924315D01*
X1274209D01*
X1280256Y1925535D01*
X1285189Y1928862D01*
X1288520Y1933799D01*
X1289740Y1939846D01*
Y2186150D01*
D02*
D70*
X269902Y349512D02*
Y453768D01*
X296433Y453343D01*
X299996Y453287D01*
X310709Y453051D01*
X319563Y452614D01*
X325020Y451870D01*
X328126Y451004D01*
X329142Y450630D01*
X332665Y449327D01*
X342480Y443240D01*
X352157Y432378D01*
X358063Y418260D01*
X360059Y405378D01*
Y396870D01*
X358244Y384236D01*
X352756Y370681D01*
X343476Y360256D01*
X333787Y354189D01*
X330315Y352803D01*
X329303Y352409D01*
X326173Y351425D01*
X320866Y350626D01*
X311945Y350197D01*
X300713Y349961D01*
X296976Y349909D01*
X269902Y349512D01*
X316378Y373854D02*
X318205Y374354D01*
X323374Y376980D01*
X328445Y382043D01*
X331661Y389165D01*
X332976Y396118D01*
X333106Y398449D01*
X333295Y401984D01*
X331953Y412685D01*
X326665Y422713D01*
X317106Y428654D01*
X306685Y430606D01*
X297240D01*
Y372646D01*
X304634Y372657D01*
X306256D01*
X311126Y373020D01*
X315772Y373693D01*
X316378Y373854D01*
X370516Y349685D02*
Y453579D01*
X428472D01*
Y430669D01*
X412350Y430362D01*
X396224Y430059D01*
X395898Y422138D01*
X395571Y414201D01*
X427386D01*
Y390142D01*
X395579D01*
X395898Y381669D01*
X396224Y373193D01*
X412350Y372890D01*
X428472Y372583D01*
Y349685D01*
X370516D01*
X460996Y348614D02*
X458366Y349276D01*
X450945Y352965D01*
X443083Y359988D01*
X437957Y369047D01*
X436134Y376823D01*
Y383583D01*
X451020D01*
X456551Y383539D01*
X460524Y383252D01*
X462268Y382516D01*
X462823Y381488D01*
X462929Y381126D01*
X463366Y379575D01*
X465598Y374248D01*
X468461Y371260D01*
X469220Y370862D01*
X469965Y370476D01*
X472508Y369846D01*
X475657Y370063D01*
X478496Y371299D01*
X480846Y373339D01*
X482504Y375976D01*
X483303Y379000D01*
X483059Y382185D01*
X482075Y384638D01*
X481594Y385335D01*
X481374Y385642D01*
X479961Y386657D01*
X476681Y388579D01*
X472240Y390866D01*
X468398Y392673D01*
X467102Y393236D01*
X463539Y394795D01*
X453185Y400232D01*
X444240Y407185D01*
X439453Y414949D01*
X438039Y422031D01*
Y426579D01*
X439165Y433169D01*
X442626Y440579D01*
X448500Y446752D01*
X454693Y450799D01*
X456906Y451835D01*
X457921Y452319D01*
X461028Y453654D01*
X464551Y454665D01*
X468630Y455114D01*
X472969Y455201D01*
X475799D01*
X479984Y455094D01*
X484012Y454689D01*
X487331Y453835D01*
X489972Y452787D01*
X490823Y452382D01*
X492669Y451516D01*
X497882Y448110D01*
X503287Y442685D01*
X506980Y436157D01*
X508689Y430508D01*
X508949Y428575D01*
X509685Y422949D01*
X483327D01*
X482067Y426791D01*
X481693Y427902D01*
X478949Y431461D01*
X474504Y432795D01*
X471866D01*
X468398Y431311D01*
X465339Y427720D01*
X464484Y423311D01*
X465713Y420075D01*
X466484Y419382D01*
X466740Y419146D01*
X468331Y418185D01*
X471953Y416189D01*
X476835Y413665D01*
X481031Y411594D01*
X482441Y410909D01*
X485921Y409236D01*
X496091Y403543D01*
X504504Y396555D01*
X508756Y388689D01*
X509917Y381169D01*
Y378661D01*
X509909Y376287D01*
X508819Y369177D01*
X505520Y361402D01*
X499921Y355197D01*
X494059Y351370D01*
X491965Y350429D01*
X490547Y349803D01*
X485720Y348839D01*
X476992Y347909D01*
X468008Y347791D01*
X462681Y348189D01*
X460996Y348614D01*
X517063Y349685D02*
Y453579D01*
X544406D01*
Y349685D01*
X517063D01*
X592634Y349224D02*
X589898Y349961D01*
X582028Y353370D01*
X572598Y359669D01*
X564618Y367913D01*
X559654Y375232D01*
X558362Y377839D01*
X557689Y379193D01*
X555780Y383295D01*
X554343Y387469D01*
X553654Y392028D01*
X553374Y396976D01*
X553323Y398618D01*
X553224Y401012D01*
X553429Y408189D01*
X554610Y416315D01*
X557016Y423524D01*
X559697Y428736D01*
X560756Y430362D01*
X564138Y435571D01*
X579307Y447961D01*
X602965Y455299D01*
X627728Y452039D01*
X645224Y442429D01*
X649654Y437858D01*
X650575Y436906D01*
X652996Y433673D01*
X656480Y428244D01*
X659213Y423087D01*
X660323Y420555D01*
Y419500D01*
X656469Y418878D01*
X648327Y418579D01*
X630909D01*
X628028Y422350D01*
X626799Y423953D01*
X621780Y427720D01*
X613567Y430917D01*
X604673Y431661D01*
X598252Y430531D01*
X596350Y429654D01*
X595035Y429067D01*
X591437Y426567D01*
X586972Y422157D01*
X583331Y416925D01*
X581378Y412803D01*
X580961Y411358D01*
X580299Y409094D01*
X579669Y401878D01*
X580953Y392331D01*
X584520Y383709D01*
X588480Y378382D01*
X590134Y377004D01*
X592134Y375350D01*
X599512Y372016D01*
X609945Y370874D01*
X620051Y373480D01*
X626756Y377803D01*
X628445Y379724D01*
X629268Y380677D01*
X631543Y383720D01*
X631240Y385854D01*
X626563Y386713D01*
X619063Y386862D01*
X601276D01*
Y408732D01*
X663602D01*
Y397720D01*
X660665Y384201D01*
X652453Y368579D01*
X639819Y356520D01*
X627878Y350272D01*
X623650Y349169D01*
X621906Y348720D01*
X616535Y348008D01*
X608091Y347634D01*
X599661Y348039D01*
X594343Y348768D01*
X592634Y349224D01*
X673449Y349685D02*
Y453642D01*
X685142Y453331D01*
X696827Y453024D01*
X716264Y421441D01*
X718157Y418366D01*
X723854Y409138D01*
X730189Y398949D01*
X734591Y391945D01*
X736299Y389283D01*
X736406Y389189D01*
X736618Y391496D01*
X736673Y398264D01*
X736567Y408465D01*
X736394Y417898D01*
X736319Y421035D01*
X735520Y453579D01*
X760937D01*
Y349610D01*
X737421Y350228D01*
X718283Y380783D01*
X699142Y411350D01*
X698567Y349685D01*
X673449D01*
X798563Y348551D02*
X795744Y349161D01*
X787646Y352693D01*
X779220Y359618D01*
X773795Y368728D01*
X771874Y376736D01*
Y383583D01*
X797846D01*
X798531Y379311D01*
X798681Y378358D01*
X799866Y375583D01*
X802354Y372409D01*
X805567Y370201D01*
X808185Y369366D01*
X809854D01*
X812244Y370189D01*
X815051Y371803D01*
X815535Y372197D01*
X816205Y372772D01*
X818224Y375327D01*
X818898Y378346D01*
Y380327D01*
X818280Y383228D01*
X815929Y386409D01*
X811091Y389563D01*
X805067Y392457D01*
X803035Y393343D01*
X799843Y394732D01*
X790543Y399465D01*
X782051Y405378D01*
X776799Y411819D01*
X774417Y417504D01*
X774000Y419465D01*
X773626Y421228D01*
X773433Y426697D01*
X774854Y433583D01*
X778197Y439992D01*
X781976Y444488D01*
X783429Y445760D01*
X786016Y448035D01*
X795657Y452732D01*
X809819Y455094D01*
X823713Y452831D01*
X832823Y448205D01*
X835161Y445929D01*
X836583Y444551D01*
X841303Y438047D01*
X843559Y430669D01*
X843748Y428843D01*
X844358Y422949D01*
X819390D01*
X817232Y427594D01*
X816823Y428457D01*
X814783Y431425D01*
X812276Y433008D01*
X811646Y433181D01*
X810469Y433512D01*
X806571Y433157D01*
X802311Y430776D01*
X799760Y426846D01*
X799437Y423248D01*
X799803Y422201D01*
X799972Y421701D01*
X800976Y420323D01*
X803732Y418154D01*
X808835Y415193D01*
X815008Y411969D01*
X817083Y410921D01*
X820807Y409043D01*
X831669Y402677D01*
X840386Y395094D01*
X844390Y386669D01*
X845063Y378594D01*
X844882Y375925D01*
X844807Y374878D01*
X843878Y369539D01*
X842406Y364957D01*
X842075Y364283D01*
X841484Y363142D01*
X839157Y359969D01*
X835150Y355933D01*
X830496Y352559D01*
X826874Y350646D01*
X825602Y350197D01*
X824197Y349705D01*
X819740Y348862D01*
X812213Y348083D01*
X804618Y347945D01*
X800035Y348244D01*
X798563Y348551D01*
X856087Y349685D02*
Y453823D01*
X881516Y453331D01*
X884953Y453268D01*
X895280Y453000D01*
X903768Y452531D01*
X909012Y451740D01*
X912067Y450835D01*
X913063Y450449D01*
X914941Y449724D01*
X923110Y444043D01*
X929390Y435870D01*
X930331Y433886D01*
X930728Y433039D01*
X931791Y430433D01*
X932661Y427189D01*
X933063Y423319D01*
X933161Y419346D01*
Y418024D01*
X933150Y416720D01*
X933031Y412780D01*
X932606Y408882D01*
X931740Y405583D01*
X930693Y402953D01*
X930299Y402102D01*
X929732Y400894D01*
X927587Y397476D01*
X924063Y392886D01*
X920610Y389370D01*
X918756Y387961D01*
X917709D01*
X916425Y388634D01*
X912535Y390449D01*
X907035Y393150D01*
X902146Y395606D01*
X900535Y396429D01*
X883969Y404909D01*
X893122Y405496D01*
X894402Y405583D01*
X898248Y405925D01*
X901390Y406531D01*
X903461Y407665D01*
X904969Y409106D01*
X905425Y409618D01*
X906031Y410303D01*
X907913Y413402D01*
X908575Y416776D01*
Y419358D01*
X907453Y423717D01*
X903941Y427650D01*
X897756Y429890D01*
X890902Y430606D01*
X888614D01*
X881236Y430614D01*
Y404878D01*
X897031Y395051D01*
X898535Y394114D01*
X903087Y391260D01*
X907390Y388398D01*
X909909Y386327D01*
X910606Y384898D01*
X909449Y383976D01*
X906417Y383402D01*
X901484Y383047D01*
X896335Y382823D01*
X894626Y382748D01*
X881236Y382224D01*
Y349685D01*
X856087D01*
X917665Y348862D02*
X917866Y349354D01*
X919937Y354425D01*
X922756Y361378D01*
X923335Y362799D01*
X923909Y364228D01*
X926539Y370413D01*
X928217Y373992D01*
X928335Y374106D01*
X928429Y374236D01*
X929720Y373776D01*
X932949Y372197D01*
X937528Y369614D01*
X941618Y367146D01*
X942976Y366291D01*
X956827Y357543D01*
X953205Y356413D01*
X952012Y356039D01*
X948445Y354929D01*
X942846Y353197D01*
X936846Y351350D01*
X930906Y349543D01*
X925472Y347902D01*
X920984Y346555D01*
X917909Y345646D01*
X916980Y345303D01*
X916681D01*
X916768Y346350D01*
X917461Y348382D01*
X917665Y348862D01*
X945484Y373256D02*
X944118Y373949D01*
X940071Y376118D01*
X935626Y378661D01*
X932638Y380622D01*
X931535Y381445D01*
Y382543D01*
X932650Y385012D01*
X935693Y392969D01*
X940185Y404386D01*
X944287Y414661D01*
X945677Y418067D01*
X959819Y453024D01*
X964398Y453366D01*
X968969Y453705D01*
X968181Y416189D01*
X968094Y412472D01*
X967807Y401299D01*
X967409Y388484D01*
X967016Y379126D01*
X966780Y375134D01*
X966685Y374567D01*
X965992Y370476D01*
X955075Y384224D01*
X953996Y385579D01*
X950752Y389614D01*
X947055Y394134D01*
X944374Y397295D01*
X943256Y398543D01*
X943114Y398630D01*
X943594Y396870D01*
X945654Y392744D01*
X946232Y391697D01*
X947736Y388976D01*
X952236Y380752D01*
X956559Y372720D01*
X959110Y367799D01*
X959807Y366142D01*
X959756Y366154D01*
X958555Y366728D01*
X955441Y368256D01*
X950921Y370520D01*
X946843Y372571D01*
X945484Y373256D01*
X986366Y375657D02*
X987008Y376823D01*
X990843Y383732D01*
X994516Y390268D01*
X995071Y391240D01*
X995626Y392220D01*
X997795Y396398D01*
X998736Y398748D01*
X998618Y398866D01*
X997925D01*
X997882Y398803D01*
X997827Y398748D01*
X996823Y397488D01*
X994228Y394240D01*
X990488Y389551D01*
X987118Y385311D01*
X985992Y383906D01*
X974472Y369472D01*
X973768Y401406D01*
X973689Y404709D01*
X973437Y414606D01*
X973059Y426933D01*
X972709Y437012D01*
X972484Y442063D01*
X972398Y443453D01*
X971744Y453579D01*
X981370D01*
X995969Y417449D01*
X997378Y413945D01*
X1001594Y403394D01*
X1006146Y391815D01*
X1009157Y383933D01*
X1010205Y380988D01*
X1010150Y380933D01*
X1009961Y380764D01*
X1008760Y380146D01*
X1005571Y378488D01*
X1001181Y376276D01*
X996205Y373799D01*
X991217Y371354D01*
X986846Y369228D01*
X983677Y367744D01*
X982661Y367177D01*
X982331D01*
X983248Y369677D01*
X985717Y374492D01*
X986366Y375657D01*
X1004492Y351287D02*
X1002697Y351854D01*
X997315Y353571D01*
X991386Y355504D01*
X987295Y356894D01*
X985740Y357461D01*
X985685Y357512D01*
X986579Y358358D01*
X989382Y360331D01*
X993638Y363154D01*
X997594Y365681D01*
X998917Y366504D01*
X1000240Y367339D01*
X1004244Y369803D01*
X1008677Y372453D01*
X1011732Y374161D01*
X1012906Y374740D01*
X1012961Y374677D01*
X1013130Y374492D01*
X1013646Y373287D01*
X1015043Y370063D01*
X1016902Y365606D01*
X1018984Y360547D01*
X1021024Y355472D01*
X1022783Y350984D01*
X1024028Y347720D01*
X1024492Y346618D01*
Y346083D01*
X1024248Y345583D01*
X1022189Y345858D01*
X1016272Y347591D01*
X1007429Y350370D01*
X1004492Y351287D01*
X1027783Y349685D02*
Y384512D01*
X1041283Y392799D01*
X1043193Y393984D01*
X1049004Y397457D01*
X1053843Y399933D01*
X1057465Y400906D01*
X1060528Y401075D01*
X1063016D01*
X1067429Y401547D01*
X1071559Y402445D01*
X1072083Y402657D01*
X1073354Y403189D01*
X1076665Y406075D01*
X1079465Y411201D01*
X1080189Y417169D01*
X1079240Y421764D01*
X1078555Y423087D01*
X1077945Y424272D01*
X1071933Y428598D01*
X1062591Y430583D01*
X1060315D01*
X1052937Y430606D01*
Y402185D01*
X1040921Y396161D01*
X1039748Y395575D01*
X1036213Y393835D01*
X1032268Y391913D01*
X1029512Y390622D01*
X1028638Y390142D01*
X1028283D01*
X1028126Y392661D01*
X1027945Y399496D01*
X1027827Y409618D01*
X1027783Y418890D01*
Y453803D01*
X1052657Y453311D01*
X1056862Y453236D01*
X1069500Y452744D01*
X1080276Y451571D01*
X1087291Y449346D01*
X1091563Y446689D01*
X1092843Y445634D01*
X1095441Y443496D01*
X1101291Y434709D01*
X1104976Y421122D01*
X1103685Y407067D01*
X1099437Y397327D01*
X1097256Y394732D01*
X1096551Y393909D01*
X1094008Y391807D01*
X1089622Y388902D01*
X1085220Y386669D01*
X1082764Y385772D01*
X1081524D01*
X1080276Y384917D01*
Y384201D01*
X1081299Y382898D01*
X1084130Y379031D01*
X1088295Y373606D01*
X1092110Y368780D01*
X1093402Y367177D01*
X1094669Y365598D01*
X1098496Y360803D01*
X1102657Y355484D01*
X1105476Y351787D01*
X1106516Y350654D01*
Y350177D01*
X1102244Y349854D01*
X1094551Y349685D01*
X1077465D01*
X1066220Y365512D01*
X1065110Y367071D01*
X1061768Y371717D01*
X1057972Y376886D01*
X1055232Y380496D01*
X1054098Y381894D01*
X1053961Y381980D01*
X1053213Y377945D01*
X1052937Y369098D01*
Y349685D01*
X1027783D01*
X1114173Y349673D02*
Y453579D01*
X1140382D01*
X1140669Y429921D01*
X1140969Y406264D01*
X1155728Y429890D01*
X1170500Y453524D01*
X1183890Y453543D01*
X1185728Y453555D01*
X1193354Y453406D01*
X1197295Y453118D01*
Y452469D01*
X1195957Y450799D01*
X1192327Y445185D01*
X1186957Y437012D01*
X1182043Y429602D01*
X1180398Y427134D01*
X1163504Y401799D01*
X1165457Y398980D01*
X1165724Y398598D01*
X1167421Y396161D01*
X1171331Y390567D01*
X1176618Y383004D01*
X1181189Y376469D01*
X1182713Y374291D01*
X1184209Y372146D01*
X1188717Y365693D01*
X1193748Y358441D01*
X1197295Y353315D01*
X1198693Y351244D01*
X1198811Y351051D01*
X1198850Y350969D01*
X1198488Y350390D01*
X1196299Y349972D01*
X1191795Y349748D01*
X1186327Y349685D01*
X1169398D01*
X1140969Y394945D01*
X1140669Y372315D01*
X1140382Y349673D01*
X1114173D01*
D02*
D71*
X282283Y1680118D02*
X46063D01*
Y1080118D01*
X282283D01*
X405512Y923228D02*
X395276D01*
Y956693D01*
X420079Y1680118D02*
X754724D01*
Y1080118D01*
X420079D01*
X492126Y1015748D02*
Y1019685D02*
G75*
G03*
Y1015748I0J-1969D01*
G01*
Y1019685D02*
G75*
G02*
Y1015748I0J-1969D01*
G01*
X510236Y956693D02*
Y923228D01*
X500000D01*
X807087Y1555118D02*
G75*
G03*
X811024I1969J0D01*
G01*
X807087D02*
G75*
G02*
X811024I1969J0D01*
G01*
X870079Y1573228D02*
X903543D01*
Y1562992D01*
Y1468504D02*
Y1458268D01*
X870079D01*
X1294291Y1691929D02*
X1609646D01*
Y1071850D01*
X1294291D01*
D02*
D111*
X397638Y2329724D02*
G75*
G03*
Y2331693I0J984D01*
G01*
Y2329724D02*
G75*
G02*
Y2331693I0J984D01*
G01*
X0Y0D02*
M02*
