G04 DesignSpark PCB PRO Gerber Version 10.0 Build 5299*
G04 #@! TF.Part,Single*
G04 #@! TF.FileFunction,Soldermask,Top*
G04 #@! TF.FilePolarity,Negative*
%FSLAX35Y35*%
%MOIN*%
G04 #@! TA.AperFunction,SMDPad,CuDef*
%ADD146R,0.01185X0.05516*%
%ADD164R,0.03547X0.01579*%
%ADD159R,0.03154X0.04531*%
%ADD160R,0.03469X0.11067*%
%ADD147R,0.03941X0.04295*%
%ADD161R,0.04728X0.06303*%
%ADD148R,0.05504X0.06004*%
%ADD156R,0.06303X0.15752*%
%ADD158R,0.08862X0.18902*%
%ADD162R,0.12996X0.12996*%
%ADD154R,0.03350X0.03350*%
%ADD149R,0.03744X0.03744*%
G04 #@! TA.AperFunction,ComponentPad*
%ADD152C,0.05134*%
%ADD144C,0.06106*%
%ADD153C,0.06598*%
G04 #@! TA.AperFunction,WasherPad*
%ADD143C,0.12602*%
G04 #@! TA.AperFunction,SMDPad,CuDef*
%ADD155R,0.04925X0.02366*%
%ADD157R,0.04531X0.03154*%
%ADD145R,0.04295X0.03941*%
%ADD163R,0.06004X0.05504*%
G04 #@! TD.AperFunction*
X0Y0D02*
D02*
D143*
X27953Y24016D03*
Y252362D03*
X118504Y24016D03*
Y252362D03*
D02*
D144*
X115591Y113189D03*
Y123189D03*
Y133189D03*
Y143189D03*
Y153189D03*
Y163189D03*
X125591Y113189D03*
Y123189D03*
Y133189D03*
Y143189D03*
Y153189D03*
Y163189D03*
D02*
D145*
X53980Y240157D03*
X60980D03*
X64217Y219291D03*
X71217D03*
X86264Y237402D03*
X93264D03*
D02*
D146*
X45276Y61811D03*
Y79134D03*
X47244Y61811D03*
Y79134D03*
X49213Y61811D03*
Y79134D03*
X51181Y61811D03*
Y79134D03*
X53150Y61811D03*
Y79134D03*
D02*
D147*
X38189Y60280D03*
Y67280D03*
Y73272D03*
Y80272D03*
X70079Y250437D03*
Y257437D03*
X80315Y237445D03*
Y244445D03*
X81496Y70122D03*
Y77122D03*
X82677Y98862D03*
Y105862D03*
Y111854D03*
Y118854D03*
Y124846D03*
Y131846D03*
X89764Y70122D03*
Y77122D03*
X94488Y106736D03*
Y113736D03*
Y119728D03*
Y126728D03*
Y132720D03*
Y139720D03*
X125984Y37839D03*
Y44839D03*
X133465Y52799D03*
Y59799D03*
Y65791D03*
Y72791D03*
Y203193D03*
Y210193D03*
Y216185D03*
Y223185D03*
D02*
D148*
X91732Y178177D03*
Y187177D03*
X99606Y178177D03*
Y187177D03*
D02*
D149*
X70276Y264173D03*
X76181D03*
D02*
D152*
X60630Y125512D03*
Y135512D03*
Y145512D03*
Y155512D03*
X70630Y120512D03*
Y130512D03*
Y140512D03*
Y150512D03*
D02*
D153*
X35630Y115508D03*
Y160516D03*
D02*
D154*
X41535Y98819D03*
X45276Y90945D03*
X49016Y98819D03*
X83858Y147835D03*
Y155315D03*
X91732Y151575D03*
D02*
D155*
X62795Y226181D03*
Y229921D03*
Y233661D03*
X72638Y226181D03*
Y229921D03*
Y233661D03*
D02*
D156*
X39764Y198425D03*
Y222835D03*
D02*
D157*
X62795Y211811D03*
X76575D03*
X79724Y222441D03*
X93504D03*
D02*
D158*
X64961Y196457D03*
X80709D03*
D02*
D159*
X103543Y228543D03*
Y242323D03*
D02*
D160*
X109705Y186614D03*
X122579D03*
D02*
D161*
X102772Y58683D03*
X111828D03*
X120883D03*
D02*
D162*
X111828Y83880D03*
D02*
D163*
X116366Y96063D03*
X125366D03*
D02*
D164*
X65748Y63780D03*
X72047Y61811D03*
Y65748D03*
X0Y0D02*
M02*
