G04 DesignSpark PCB PRO Gerber Version 10.0 Build 5299*
G04 #@! TF.Part,Single*
G04 #@! TF.FileFunction,Copper,L2,Bot*
G04 #@! TF.FilePolarity,Positive*
%FSLAX35Y35*%
%MOIN*%
%ADD10C,0.00787*%
%ADD11C,0.01000*%
G04 #@! TA.AperFunction,ViaPad*
%ADD12C,0.03543X0.01969*%
G04 #@! TD.AperFunction*
%ADD13C,0.03937*%
G04 #@! TA.AperFunction,ComponentPad*
%ADD16C,0.05130X0.02992*%
G04 #@! TA.AperFunction,ViaPad*
%ADD14C,0.05600X0.03200*%
G04 #@! TA.AperFunction,ComponentPad*
%ADD15C,0.06102X0.04094*%
G04 #@! TD.AperFunction*
X0Y0D02*
D02*
D10*
X6974Y268984D02*
Y7394D01*
X11331Y3037D01*
X135126D01*
X139482Y7394D01*
Y268984D01*
X135126Y273341D01*
X11331D01*
X6974Y268984D01*
X20472Y24016D02*
G75*
G02*
X35433I7480J0D01*
G01*
G75*
G02*
X20472I-7480J0D01*
G01*
Y252362D02*
G75*
G02*
X35433I7480J0D01*
G01*
G75*
G02*
X20472I-7480J0D01*
G01*
X27854Y115508D02*
G75*
G02*
X43406I7776J0D01*
G01*
G75*
G02*
X27854I-7776J0D01*
G01*
X51439Y100394D02*
G75*
G02*
X56890Y98819I2498J-1575D01*
G01*
G75*
G02*
X51439Y97244I-2953J0D01*
G01*
X39112D01*
G75*
G02*
X33661Y98819I-2498J1575D01*
G01*
G75*
G02*
X39112Y100394I2953J0D01*
G01*
X51439D01*
X27854Y160516D02*
G75*
G02*
X43406I7776J0D01*
G01*
G75*
G02*
X27854I-7776J0D01*
G01*
X56671Y135512D02*
G75*
G02*
X64589I3959J0D01*
G01*
G75*
G02*
X56671I-3959J0D01*
G01*
X56884Y125512D02*
G75*
G02*
X64376I3746J0D01*
G01*
G75*
G02*
X56884I-3746J0D01*
G01*
Y145512D02*
G75*
G02*
X64376I3746J0D01*
G01*
G75*
G02*
X56884I-3746J0D01*
G01*
Y155512D02*
G75*
G02*
X64376I3746J0D01*
G01*
G75*
G02*
X56884I-3746J0D01*
G01*
X66884Y120512D02*
G75*
G02*
X74376I3746J0D01*
G01*
G75*
G02*
X66884I-3746J0D01*
G01*
Y130512D02*
G75*
G02*
X74376I3746J0D01*
G01*
G75*
G02*
X66884I-3746J0D01*
G01*
Y140512D02*
G75*
G02*
X74376I3746J0D01*
G01*
G75*
G02*
X66884I-3746J0D01*
G01*
Y150512D02*
G75*
G02*
X74376I3746J0D01*
G01*
G75*
G02*
X66884I-3746J0D01*
G01*
X137402Y174941D02*
G75*
G02*
Y174940I-1327J0D01*
G01*
G75*
G02*
Y174937I-1195J-2D01*
G01*
Y109055D01*
G75*
G02*
X136476Y106825I-3150J0D01*
G01*
X124016Y94365D01*
Y69364D01*
G75*
G02*
X124847Y66929I-3150J-2435D01*
G01*
G75*
G02*
X116885I-3981J0D01*
G01*
G75*
G02*
X117717Y69364I3981J0D01*
G01*
Y95669D01*
G75*
G02*
X118642Y97899I3150J0D01*
G01*
X131102Y110360D01*
Y136614D01*
X128076D01*
G75*
G02*
X129823Y133189I-2486J-3426D01*
G01*
G75*
G02*
X121358I-4232J0D01*
G01*
G75*
G02*
X123105Y136614I4232J0D01*
G01*
X118076D01*
G75*
G02*
X119823Y133189I-2486J-3426D01*
G01*
G75*
G02*
X111358I-4232J0D01*
G01*
G75*
G02*
X113105Y136614I4232J0D01*
G01*
X111813D01*
G75*
G02*
X110698Y137076I-2J1575D01*
G01*
X109627Y138146D01*
X91474D01*
G75*
G02*
X86024Y139720I-2498J1575D01*
G01*
G75*
G02*
X91474Y141295I2953J0D01*
G01*
X110277D01*
G75*
G02*
X111393Y140834I2J-1575D01*
G01*
X112463Y139764D01*
X113105D01*
G75*
G02*
X111358Y143189I2486J3426D01*
G01*
G75*
G02*
X119823I4232J0D01*
G01*
G75*
G02*
X118076Y139764I-4232J0D01*
G01*
X123105D01*
G75*
G02*
X121358Y143189I2486J3426D01*
G01*
G75*
G02*
X129823I4232J0D01*
G01*
G75*
G02*
X128076Y139764I-4232J0D01*
G01*
X131102D01*
Y173366D01*
X125014D01*
G75*
G02*
X118598Y176516I-2435J3150D01*
G01*
G75*
G02*
X125014Y179665I3981J0D01*
G01*
X132673D01*
G75*
G02*
X134904Y178743I4J-3150D01*
G01*
X136479Y177168D01*
G75*
G02*
X137402Y174941I-2227J-2227D01*
G01*
X121358Y153189D02*
G75*
G02*
X129823I4232J0D01*
G01*
G75*
G02*
X121358I-4232J0D01*
G01*
Y163189D02*
G75*
G02*
X129823I4232J0D01*
G01*
G75*
G02*
X121358I-4232J0D01*
G01*
X121146Y123189D02*
G75*
G02*
X130035I4445J0D01*
G01*
G75*
G02*
X121146I-4445J0D01*
G01*
X121358Y113189D02*
G75*
G02*
X129823I4232J0D01*
G01*
G75*
G02*
X121358I-4232J0D01*
G01*
X111024Y24016D02*
G75*
G02*
X125984I7480J0D01*
G01*
G75*
G02*
X111024I-7480J0D01*
G01*
X111358Y113189D02*
G75*
G02*
X119823I4232J0D01*
G01*
G75*
G02*
X111358I-4232J0D01*
G01*
Y123189D02*
G75*
G02*
X119823I4232J0D01*
G01*
G75*
G02*
X111358I-4232J0D01*
G01*
X111024Y252362D02*
G75*
G02*
X125984I7480J0D01*
G01*
G75*
G02*
X111024I-7480J0D01*
G01*
X111358Y153189D02*
G75*
G02*
X119823I4232J0D01*
G01*
G75*
G02*
X111358I-4232J0D01*
G01*
Y163189D02*
G75*
G02*
X119823I4232J0D01*
G01*
G75*
G02*
X111358I-4232J0D01*
G01*
X7368Y24016D02*
G36*
X7368Y24016D02*
Y7000D01*
X10937Y3431D01*
X135519D01*
X139089Y7000D01*
Y24016D01*
X125984D01*
G75*
G02*
X111024I-7480J0D01*
G01*
X35433D01*
G75*
G02*
X20472I-7480J0D01*
G01*
X7368D01*
G37*
Y98819D02*
G36*
X7368Y98819D02*
Y24016D01*
X20472D01*
G75*
G02*
X35433I7480J0D01*
G01*
X111024D01*
G75*
G02*
X125984I7480J0D01*
G01*
X139089D01*
Y98819D01*
X128470D01*
X124016Y94365D01*
Y69364D01*
G75*
G02*
X124847Y66929I-3152J-2436D01*
G01*
G75*
G02*
X116885I-3981J0D01*
G01*
G75*
G02*
X117717Y69364I3984J-1D01*
G01*
Y95669D01*
G75*
G02*
X118642Y97899I3151J0D01*
G01*
X119561Y98819D01*
X56890D01*
G75*
G02*
X51439Y97244I-2953J0D01*
G01*
X39112D01*
G75*
G02*
X33661Y98819I-2498J1575D01*
G01*
X7368D01*
G37*
Y115508D02*
G36*
X7368Y115508D02*
Y98819D01*
X33661D01*
G75*
G02*
X39112Y100394I2953J0D01*
G01*
X51439D01*
G75*
G02*
X56890Y98819I2498J-1575D01*
G01*
X119561D01*
X131102Y110360D01*
Y115508D01*
X129131D01*
G75*
G02*
X129823Y113189I-3541J-2319D01*
G01*
G75*
G02*
X121358I-4232J0D01*
G01*
G75*
G02*
X122050Y115508I4232J0D01*
G01*
X119131D01*
G75*
G02*
X119823Y113189I-3541J-2319D01*
G01*
G75*
G02*
X111358I-4232J0D01*
G01*
G75*
G02*
X112050Y115508I4232J0D01*
G01*
X43406D01*
G75*
G02*
X27854I-7776J0D01*
G01*
X7368D01*
G37*
X136476Y106825D02*
G36*
X136476Y106825D02*
X128470Y98819D01*
X139089D01*
Y115508D01*
X137402D01*
Y109055D01*
G75*
G02*
X136476Y106825I-3151J0D01*
G01*
G37*
X7368Y120512D02*
G36*
X7368Y120512D02*
Y115508D01*
X27854D01*
G75*
G02*
X29678Y120512I7776J0D01*
G01*
X7368D01*
G37*
X41581D02*
G36*
X41581Y120512D02*
G75*
G02*
X43406Y115508I-5952J-5004D01*
G01*
X112050D01*
G75*
G02*
X119131I3541J-2319D01*
G01*
X122050D01*
G75*
G02*
X129131I3541J-2319D01*
G01*
X131102D01*
Y120512D01*
X129139D01*
G75*
G02*
X122043I-3548J2677D01*
G01*
X118869D01*
G75*
G02*
X112313I-3278J2677D01*
G01*
X74376D01*
G75*
G02*
X66884I-3746J0D01*
G01*
X41581D01*
G37*
X137402D02*
G36*
X137402Y120512D02*
Y115508D01*
X139089D01*
Y120512D01*
X137402D01*
G37*
X7368Y125512D02*
G36*
X7368Y125512D02*
Y120512D01*
X29678D01*
G75*
G02*
X41581I5952J-5004D01*
G01*
X66884D01*
G75*
G02*
X74376I3746J0D01*
G01*
X112313D01*
G75*
G02*
X111358Y123189I3278J2677D01*
G01*
G75*
G02*
X112053Y125512I4232J0D01*
G01*
X64376D01*
G75*
G02*
X56884I-3746J0D01*
G01*
X7368D01*
G37*
X119823Y123189D02*
G36*
X119823Y123189D02*
G75*
G02*
X118869Y120512I-4232J0D01*
G01*
X122043D01*
G75*
G02*
X121146Y123189I3548J2678D01*
G01*
G75*
G02*
X121801Y125512I4445J0D01*
G01*
X119128D01*
G75*
G02*
X119823Y123189I-3538J-2323D01*
G01*
G37*
X130035D02*
G36*
X130035Y123189D02*
G75*
G02*
X129139Y120512I-4445J0D01*
G01*
X131102D01*
Y125512D01*
X129380D01*
G75*
G02*
X130035Y123189I-3790J-2323D01*
G01*
G37*
X137402Y125512D02*
G36*
X137402Y125512D02*
Y120512D01*
X139089D01*
Y125512D01*
X137402D01*
G37*
X7368Y130512D02*
G36*
X7368Y130512D02*
Y125512D01*
X56884D01*
G75*
G02*
X64376I3746J0D01*
G01*
X112053D01*
G75*
G02*
X119128I3538J-2323D01*
G01*
X121801D01*
G75*
G02*
X129380I3790J-2323D01*
G01*
X131102D01*
Y130512D01*
X128869D01*
G75*
G02*
X122313I-3278J2677D01*
G01*
X118869D01*
G75*
G02*
X112313I-3278J2677D01*
G01*
X74376D01*
G75*
G02*
X66884I-3746J0D01*
G01*
X7368D01*
G37*
X137402D02*
G36*
X137402Y130512D02*
Y125512D01*
X139089D01*
Y130512D01*
X137402D01*
G37*
X7368Y135512D02*
G36*
X7368Y135512D02*
Y130512D01*
X66884D01*
G75*
G02*
X74376I3746J0D01*
G01*
X112313D01*
G75*
G02*
X111358Y133189I3278J2677D01*
G01*
G75*
G02*
X112053Y135512I4232J0D01*
G01*
X64589D01*
G75*
G02*
X56671I-3959J0D01*
G01*
X7368D01*
G37*
X119823Y133189D02*
G36*
X119823Y133189D02*
G75*
G02*
X118869Y130512I-4232J0D01*
G01*
X122313D01*
G75*
G02*
X121358Y133189I3278J2677D01*
G01*
G75*
G02*
X122053Y135512I4232J0D01*
G01*
X119128D01*
G75*
G02*
X119823Y133189I-3538J-2323D01*
G01*
G37*
X129823D02*
G36*
X129823Y133189D02*
G75*
G02*
X128869Y130512I-4232J0D01*
G01*
X131102D01*
Y135512D01*
X129128D01*
G75*
G02*
X129823Y133189I-3538J-2323D01*
G01*
G37*
X137402Y135512D02*
G36*
X137402Y135512D02*
Y130512D01*
X139089D01*
Y135512D01*
X137402D01*
G37*
X7368Y140512D02*
G36*
X7368Y140512D02*
Y135512D01*
X56671D01*
G75*
G02*
X64589I3959J0D01*
G01*
X112053D01*
G75*
G02*
X113105Y136614I3537J-2322D01*
G01*
X111813D01*
G75*
G02*
X110698Y137076I-2J1576D01*
G01*
X109627Y138146D01*
X91474D01*
G75*
G02*
X86024Y139720I-2498J1575D01*
G01*
G75*
G02*
X86131Y140512I2953J0D01*
G01*
X74376D01*
G75*
G02*
X66884I-3746J0D01*
G01*
X7368D01*
G37*
X112313D02*
G36*
X112313Y140512D02*
X111715D01*
X112463Y139764D01*
X113105D01*
G75*
G02*
X112313Y140512I2485J3426D01*
G01*
G37*
X118869D02*
G36*
X118869Y140512D02*
G75*
G02*
X118076Y139764I-3278J2678D01*
G01*
X123105D01*
G75*
G02*
X122313Y140512I2485J3426D01*
G01*
X118869D01*
G37*
X118076Y136614D02*
G36*
X118076Y136614D02*
G75*
G02*
X119128Y135512I-2485J-3425D01*
G01*
X122053D01*
G75*
G02*
X123105Y136614I3537J-2322D01*
G01*
X118076D01*
G37*
X128869Y140512D02*
G36*
X128869Y140512D02*
G75*
G02*
X128076Y139764I-3278J2678D01*
G01*
X131102D01*
Y140512D01*
X128869D01*
G37*
X128076Y136614D02*
G36*
X128076Y136614D02*
G75*
G02*
X129128Y135512I-2485J-3425D01*
G01*
X131102D01*
Y136614D01*
X128076D01*
G37*
X137402Y140512D02*
G36*
X137402Y140512D02*
Y135512D01*
X139089D01*
Y140512D01*
X137402D01*
G37*
X7368Y145512D02*
G36*
X7368Y145512D02*
Y140512D01*
X66884D01*
G75*
G02*
X74376I3746J0D01*
G01*
X86131D01*
G75*
G02*
X91474Y141295I2845J-791D01*
G01*
X110277D01*
G75*
G02*
X111393Y140834I2J-1576D01*
G01*
X111715Y140512D01*
X112313D01*
G75*
G02*
X111358Y143189I3278J2677D01*
G01*
G75*
G02*
X112053Y145512I4232J0D01*
G01*
X64376D01*
G75*
G02*
X56884I-3746J0D01*
G01*
X7368D01*
G37*
X119128D02*
G36*
X119128Y145512D02*
G75*
G02*
X119823Y143189I-3538J-2323D01*
G01*
G75*
G02*
X118869Y140512I-4232J0D01*
G01*
X122313D01*
G75*
G02*
X121358Y143189I3278J2677D01*
G01*
G75*
G02*
X122053Y145512I4232J0D01*
G01*
X119128D01*
G37*
X129128D02*
G36*
X129128Y145512D02*
G75*
G02*
X129823Y143189I-3538J-2323D01*
G01*
G75*
G02*
X128869Y140512I-4232J0D01*
G01*
X131102D01*
Y145512D01*
X129128D01*
G37*
X137402D02*
G36*
X137402Y145512D02*
Y140512D01*
X139089D01*
Y145512D01*
X137402D01*
G37*
X7368Y150512D02*
G36*
X7368Y150512D02*
Y145512D01*
X56884D01*
G75*
G02*
X64376I3746J0D01*
G01*
X112053D01*
G75*
G02*
X119128I3538J-2323D01*
G01*
X122053D01*
G75*
G02*
X129128I3538J-2323D01*
G01*
X131102D01*
Y150512D01*
X128869D01*
G75*
G02*
X122313I-3278J2677D01*
G01*
X118869D01*
G75*
G02*
X112313I-3278J2677D01*
G01*
X74376D01*
G75*
G02*
X66884I-3746J0D01*
G01*
X7368D01*
G37*
X137402D02*
G36*
X137402Y150512D02*
Y145512D01*
X139089D01*
Y150512D01*
X137402D01*
G37*
X7368Y155512D02*
G36*
X7368Y155512D02*
Y150512D01*
X66884D01*
G75*
G02*
X74376I3746J0D01*
G01*
X112313D01*
G75*
G02*
X111358Y153189I3278J2677D01*
G01*
G75*
G02*
X112053Y155512I4232J0D01*
G01*
X64376D01*
G75*
G02*
X56884I-3746J0D01*
G01*
X41581D01*
G75*
G02*
X29678I-5952J5004D01*
G01*
X7368D01*
G37*
X119823Y153189D02*
G36*
X119823Y153189D02*
G75*
G02*
X118869Y150512I-4232J0D01*
G01*
X122313D01*
G75*
G02*
X121358Y153189I3278J2677D01*
G01*
G75*
G02*
X122053Y155512I4232J0D01*
G01*
X119128D01*
G75*
G02*
X119823Y153189I-3538J-2323D01*
G01*
G37*
X129823D02*
G36*
X129823Y153189D02*
G75*
G02*
X128869Y150512I-4232J0D01*
G01*
X131102D01*
Y155512D01*
X129128D01*
G75*
G02*
X129823Y153189I-3538J-2323D01*
G01*
G37*
X137402Y155512D02*
G36*
X137402Y155512D02*
Y150512D01*
X139089D01*
Y155512D01*
X137402D01*
G37*
X7368Y160516D02*
G36*
X7368Y160516D02*
Y155512D01*
X29678D01*
G75*
G02*
X27854Y160516I5952J5004D01*
G01*
X7368D01*
G37*
X43406D02*
G36*
X43406Y160516D02*
G75*
G02*
X41581Y155512I-7776J0D01*
G01*
X56884D01*
G75*
G02*
X64376I3746J0D01*
G01*
X112053D01*
G75*
G02*
X119128I3538J-2323D01*
G01*
X122053D01*
G75*
G02*
X129128I3538J-2323D01*
G01*
X131102D01*
Y160516D01*
X128872D01*
G75*
G02*
X122309I-3281J2673D01*
G01*
X118872D01*
G75*
G02*
X112309I-3281J2673D01*
G01*
X43406D01*
G37*
X137402D02*
G36*
X137402Y160516D02*
Y155512D01*
X139089D01*
Y160516D01*
X137402D01*
G37*
X7368Y252362D02*
G36*
X7368Y252362D02*
Y160516D01*
X27854D01*
G75*
G02*
X43406I7776J0D01*
G01*
X112309D01*
G75*
G02*
X111358Y163189I3281J2673D01*
G01*
G75*
G02*
X119823I4232J0D01*
G01*
G75*
G02*
X118872Y160516I-4232J0D01*
G01*
X122309D01*
G75*
G02*
X121358Y163189I3281J2673D01*
G01*
G75*
G02*
X129823I4232J0D01*
G01*
G75*
G02*
X128872Y160516I-4232J0D01*
G01*
X131102D01*
Y173366D01*
X125014D01*
G75*
G02*
X118598Y176516I-2435J3150D01*
G01*
G75*
G02*
X125014Y179665I3981J0D01*
G01*
X132673D01*
G75*
G02*
X134904Y178743I4J-3152D01*
G01*
X136479Y177168D01*
G75*
G02*
X137402Y174941I-2227J-2227D01*
G01*
Y174941D01*
Y174940D01*
Y174937D01*
Y160516D01*
X139089D01*
Y252362D01*
X125984D01*
G75*
G02*
X111024I-7480J0D01*
G01*
X35433D01*
G75*
G02*
X20472I-7480J0D01*
G01*
X7368D01*
G37*
Y269378D02*
G36*
X7368Y269378D02*
Y252362D01*
X20472D01*
G75*
G02*
X35433I7480J0D01*
G01*
X111024D01*
G75*
G02*
X125984I7480J0D01*
G01*
X139089D01*
Y269378D01*
X135519Y272947D01*
X10937D01*
X7368Y269378D01*
G37*
X37992Y98819D02*
X52559D01*
X90354Y139720D02*
X110280D01*
X111811Y138189D01*
X134252D01*
D02*
D11*
X58565Y135512D02*
X56565D01*
X60630Y133447D02*
Y131447D01*
Y137577D02*
Y139577D01*
X62695Y135512D02*
X64695D01*
X123039Y123189D02*
X121039D01*
X125591Y120638D02*
Y118638D01*
Y125740D02*
Y127740D01*
X128142Y123189D02*
X130142D01*
D02*
D12*
X18110Y42913D03*
Y68898D03*
Y94882D03*
Y120866D03*
X21654Y181102D03*
X33071Y67323D03*
Y73228D03*
X33465Y16142D03*
X35827Y176772D03*
X36614Y98819D03*
X39370Y137008D03*
X39764Y188189D03*
Y210630D03*
X45276Y103937D03*
X49213Y135039D03*
X53150Y69291D03*
X53937Y98819D03*
X59449Y16142D03*
X59843Y61811D03*
X60236Y250394D03*
X65354Y175197D03*
X77165Y98819D03*
X81890Y211811D03*
X85433Y16142D03*
Y229921D03*
Y244488D03*
X88976Y139720D03*
X91732Y172047D03*
X94488Y101575D03*
X96063Y164961D03*
X96850Y151575D03*
X99606Y172047D03*
X102756Y52362D03*
X104331Y265354D03*
X110236Y96063D03*
X111417Y16142D03*
X131102Y37795D03*
X133465Y228346D03*
D02*
D13*
X134252Y138189D02*
Y109055D01*
X120866Y95669D01*
Y66929D01*
X134252Y138189D02*
Y174941D01*
X132677Y176516D01*
X122579D01*
D02*
D14*
X120866Y66929D03*
X122579Y176516D03*
D02*
D15*
X115591Y113189D03*
Y123189D03*
Y133189D03*
Y143189D03*
Y153189D03*
Y163189D03*
X125591Y113189D03*
Y123189D03*
Y133189D03*
Y143189D03*
Y153189D03*
Y163189D03*
D02*
D16*
X60630Y125512D03*
Y135512D03*
Y145512D03*
Y155512D03*
X70630Y120512D03*
Y130512D03*
Y140512D03*
Y150512D03*
X0Y0D02*
M02*
