G04 DesignSpark PCB PRO Gerber Version 10.0 Build 5299*
G04 #@! TF.Part,Single*
G04 #@! TF.FileFunction,Paste,Top*
G04 #@! TF.FilePolarity,Positive*
%FSLAX35Y35*%
%MOIN*%
G04 #@! TA.AperFunction,SMDPad,CuDef*
%ADD146R,0.01063X0.05394*%
%ADD95R,0.02835X0.04213*%
%ADD151R,0.03118X0.10717*%
%ADD98R,0.03543X0.03898*%
%ADD152R,0.04252X0.05827*%
%ADD93R,0.04950X0.05450*%
%ADD148R,0.05669X0.15118*%
%ADD150R,0.07972X0.18012*%
%ADD153R,0.11693X0.11693*%
%ADD102R,0.03012X0.03012*%
%ADD103R,0.03366X0.03366*%
%ADD155R,0.03386X0.01417*%
%ADD147R,0.04685X0.02126*%
%ADD149R,0.04213X0.02835*%
%ADD96R,0.03898X0.03543*%
%ADD154R,0.05450X0.04950*%
G04 #@! TD.AperFunction*
X0Y0D02*
D02*
D93*
X91732Y178177D03*
Y187177D03*
X99606Y178177D03*
Y187177D03*
D02*
D95*
X103543Y228543D03*
Y242323D03*
D02*
D96*
X53980Y240157D03*
X60980D03*
X64217Y219291D03*
X71217D03*
X86264Y237402D03*
X93264D03*
D02*
D98*
X38189Y60280D03*
Y67280D03*
Y73272D03*
Y80272D03*
X70079Y250437D03*
Y257437D03*
X80315Y237445D03*
Y244445D03*
X81496Y70122D03*
Y77122D03*
X82677Y98862D03*
Y105862D03*
Y111854D03*
Y118854D03*
Y124846D03*
Y131846D03*
X89764Y70122D03*
Y77122D03*
X94488Y106736D03*
Y113736D03*
Y119728D03*
Y126728D03*
Y132720D03*
Y139720D03*
X125984Y37839D03*
Y44839D03*
X133465Y52799D03*
Y59799D03*
Y65791D03*
Y72791D03*
Y203193D03*
Y210193D03*
Y216185D03*
Y223185D03*
D02*
D102*
X41535Y98819D03*
X45276Y90945D03*
X49016Y98819D03*
X83858Y147835D03*
Y155315D03*
X91732Y151575D03*
D02*
D103*
X70276Y264173D03*
X76181D03*
D02*
D146*
X45276Y61811D03*
Y79134D03*
X47244Y61811D03*
Y79134D03*
X49213Y61811D03*
Y79134D03*
X51181Y61811D03*
Y79134D03*
X53150Y61811D03*
Y79134D03*
D02*
D147*
X62795Y226181D03*
Y229921D03*
Y233661D03*
X72638Y226181D03*
Y229921D03*
Y233661D03*
D02*
D148*
X39764Y198425D03*
Y222835D03*
D02*
D149*
X62795Y211811D03*
X76575D03*
X79724Y222441D03*
X93504D03*
D02*
D150*
X64961Y196457D03*
X80709D03*
D02*
D151*
X109705Y186614D03*
X122579D03*
D02*
D152*
X102772Y58683D03*
X111828D03*
X120883D03*
D02*
D153*
X111828Y83880D03*
D02*
D154*
X116366Y96063D03*
X125366D03*
D02*
D155*
X65748Y63780D03*
X72047Y61811D03*
Y65748D03*
X0Y0D02*
M02*
