G04 DesignSpark PCB PRO Gerber Version 10.0 Build 5299*
G04 #@! TF.Part,Single*
G04 #@! TF.FileFunction,Paste,Top*
G04 #@! TF.FilePolarity,Positive*
%FSLAX35Y35*%
%MOIN*%
G04 #@! TA.AperFunction,SMDPad,CuDef*
%ADD148R,0.01063X0.05394*%
%ADD159R,0.03386X0.01417*%
%ADD111R,0.02835X0.04213*%
%ADD155R,0.03118X0.10717*%
%ADD114R,0.03543X0.03898*%
%ADD156R,0.04252X0.05827*%
%ADD109R,0.04950X0.05450*%
%ADD152R,0.05669X0.15118*%
%ADD154R,0.07972X0.18012*%
%ADD157R,0.11693X0.11693*%
%ADD118R,0.03012X0.03012*%
%ADD119R,0.03366X0.03366*%
G04 #@! TD.AperFunction*
%ADD28C,0.00500*%
G04 #@! TA.AperFunction,SMDPad,CuDef*
%ADD149R,0.04685X0.02126*%
%ADD153R,0.04213X0.02835*%
%ADD112R,0.03898X0.03543*%
%ADD158R,0.05450X0.04950*%
G04 #@! TD.AperFunction*
X0Y0D02*
D02*
D28*
X32958Y113148D02*
X33583Y116898D01*
X34833D02*
X34208Y113148D01*
X35145Y114086D02*
X32333D01*
X32645Y115961D02*
X35458D01*
X37958Y113148D02*
X39208D01*
X38583D02*
Y116898D01*
X37958Y116273D01*
X42645Y113461D02*
X43270Y113148D01*
X43895D01*
X44520Y113461D01*
X44833Y114086D01*
Y115961D01*
X44520Y116586D01*
X43895Y116898D01*
X43270D01*
X42645Y116586D01*
X42333Y115961D01*
Y114086D01*
X42645Y113461D01*
X44520Y116586D01*
X32958Y158156D02*
X33583Y161906D01*
X34833D02*
X34208Y158156D01*
X35145Y159094D02*
X32333D01*
X32645Y160969D02*
X35458D01*
X38270Y158156D02*
X38895Y158469D01*
X39520Y159094D01*
X39833Y160031D01*
Y160969D01*
X39520Y161594D01*
X38895Y161906D01*
X38270D01*
X37645Y161594D01*
X37333Y160969D01*
X37645Y160344D01*
X38270Y160031D01*
X38895D01*
X39520Y160344D01*
X39833Y160969D01*
X33002Y54467D02*
X32376Y54780D01*
X32064Y55404D01*
X32376Y56030D01*
X33002Y56342D01*
X35189D01*
Y52592D01*
X33002D01*
X32376Y52904D01*
X32064Y53530D01*
X32376Y54154D01*
X33002Y54467D01*
X35189D01*
Y63342D02*
X33626Y59592D01*
X32064Y63342D01*
X34564Y61780D02*
X32689D01*
X39114Y196213D02*
X36614D01*
X38802Y198401D01*
X39114Y199026D01*
X38802Y199651D01*
X38177Y199963D01*
X37239D01*
X36614Y199651D01*
X37239Y220622D02*
X38489D01*
X37864D02*
Y224372D01*
X37239Y223748D01*
X35689Y59342D02*
X38189D01*
X36002Y57154D01*
X35689Y56530D01*
X36002Y55904D01*
X36626Y55592D01*
X37564D01*
X38189Y55904D01*
X37564Y66342D02*
X36314D01*
X36939D02*
Y62592D01*
X37564Y63217D01*
X38814Y74209D02*
X40064D01*
X39439D02*
Y77959D01*
X38814Y77334D01*
X40689Y81209D02*
X38189D01*
X40376Y83397D01*
X40689Y84022D01*
X40376Y84647D01*
X39752Y84959D01*
X38814D01*
X38189Y84647D01*
X37362Y99555D02*
X39862D01*
X37675Y97367D01*
X37362Y96742D01*
X37675Y96117D01*
X38300Y95805D01*
X39237D01*
X39862Y96117D01*
X41189Y77209D02*
X42752Y80959D01*
X44314Y77209D01*
X41814Y78772D02*
X43689D01*
X43376Y86084D02*
X44002Y85772D01*
X44314Y85147D01*
X44002Y84522D01*
X43376Y84209D01*
X41189D01*
Y87959D01*
X43376D01*
X44002Y87647D01*
X44314Y87022D01*
X44002Y86397D01*
X43376Y86084D01*
X41189D01*
X43290Y91368D02*
X42665Y91681D01*
X42040D01*
X41415Y91368D01*
X41102Y90743D01*
X41415Y90118D01*
X42040Y89806D01*
X42665D01*
X42040D02*
X41415Y89493D01*
X41102Y88868D01*
X41415Y88243D01*
X42040Y87931D01*
X42665D01*
X43290Y88243D01*
X45241Y61464D02*
X43991D01*
X44616D02*
Y57714D01*
X45241Y58339D01*
Y78787D02*
X43991D01*
X44616D02*
Y75037D01*
X45241Y75662D01*
X40554Y78474D02*
X39929Y78787D01*
X39304D01*
X38679Y78474D01*
X38366Y77849D01*
Y75974D01*
X38679Y75349D01*
X39304Y75037D01*
X39929D01*
X40554Y75349D01*
X40866Y75974D01*
Y77849D01*
X40554Y78474D01*
X38679Y75349D01*
X46717Y99555D02*
X45467D01*
X46093D02*
Y95805D01*
X46717Y96430D01*
X45335Y61464D02*
X47835D01*
X45647Y59276D01*
X45335Y58652D01*
X45647Y58026D01*
X46272Y57714D01*
X47209D01*
X47835Y58026D01*
X46897Y78787D02*
X46272Y78474D01*
X45647Y77849D01*
X45335Y76912D01*
Y75974D01*
X45647Y75349D01*
X46272Y75037D01*
X46897D01*
X47522Y75349D01*
X47835Y75974D01*
X47522Y76599D01*
X46897Y76912D01*
X46272D01*
X45647Y76599D01*
X45335Y75974D01*
X49491Y61152D02*
X48866Y61464D01*
X48241D01*
X47616Y61152D01*
X47303Y60526D01*
X47616Y59902D01*
X48241Y59589D01*
X48866D01*
X48241D02*
X47616Y59276D01*
X47303Y58652D01*
X47616Y58026D01*
X48241Y57714D01*
X48866D01*
X49491Y58026D01*
X48866Y76912D02*
X48241D01*
X47616Y76599D01*
X47303Y75974D01*
X47616Y75349D01*
X48241Y75037D01*
X48866D01*
X49491Y75349D01*
X49803Y75974D01*
X49491Y76599D01*
X48866Y76912D01*
X49491Y77224D01*
X49803Y77849D01*
X49491Y78474D01*
X48866Y78787D01*
X48241D01*
X47616Y78474D01*
X47303Y77849D01*
X47616Y77224D01*
X48241Y76912D01*
X48168Y245345D02*
X48480Y245970D01*
X49105Y246283D01*
X49730Y245970D01*
X50043Y245345D01*
Y243157D01*
X46293D01*
Y245345D01*
X46605Y245970D01*
X47230Y246283D01*
X47855Y245970D01*
X48168Y245345D01*
Y243157D01*
X50209Y61464D02*
Y57714D01*
X51772Y60214D01*
X49272D01*
X51772Y78787D02*
X49272Y75037D01*
X51772D01*
X53740Y61152D02*
X53115Y61464D01*
X52178D01*
X51553Y61152D01*
X51240Y60526D01*
Y60214D01*
X51553Y59589D01*
X52178Y59276D01*
X53740D01*
Y57714D01*
X51240D01*
X53740Y77849D02*
X53428Y77224D01*
X52803Y76912D01*
X52178D01*
X51553Y77224D01*
X51240Y77849D01*
X51553Y78474D01*
X52178Y78787D01*
X52803D01*
X53428Y78474D01*
X53740Y77849D01*
Y76912D01*
X53428Y75974D01*
X52803Y75349D01*
X52178Y75037D01*
X53043Y242657D02*
Y240157D01*
X50855Y242345D01*
X50230Y242657D01*
X49605Y242345D01*
X49293Y241720D01*
Y240783D01*
X49605Y240157D01*
X57043Y243157D02*
X53293Y244720D01*
X57043Y246283D01*
X55480Y243783D02*
Y245657D01*
X58065Y123884D02*
X60565Y127634D01*
X58065D01*
Y134197D02*
X58690Y133884D01*
X59628D01*
X60252Y134197D01*
X60565Y134822D01*
Y135134D01*
X60252Y135759D01*
X59628Y136072D01*
X58065D01*
Y137634D01*
X60565D01*
X58378Y144197D02*
X59002Y143884D01*
X59628D01*
X60252Y144197D01*
X60565Y144822D01*
X60252Y145447D01*
X59628Y145759D01*
X59002D01*
X59628D02*
X60252Y146072D01*
X60565Y146697D01*
X60252Y147322D01*
X59628Y147634D01*
X59002D01*
X58378Y147322D01*
X58690Y153884D02*
X59940D01*
X59315D02*
Y157634D01*
X58690Y157009D01*
X58031Y199948D02*
X60531D01*
X58344Y197761D01*
X58031Y197136D01*
X58344Y196511D01*
X58969Y196198D01*
X59906D01*
X60531Y196511D01*
X60043Y240783D02*
Y242033D01*
Y241407D02*
X56293D01*
X56918Y240783D01*
X58404Y224479D02*
X58717Y225104D01*
X59341Y225417D01*
X59967Y225104D01*
X60279Y224479D01*
Y222291D01*
X56529D01*
Y224479D01*
X56841Y225104D01*
X57467Y225417D01*
X58091Y225104D01*
X58404Y224479D01*
Y222291D01*
X63489Y227362D02*
X64114Y227050D01*
X64427Y226425D01*
Y225800D01*
X64114Y225175D01*
X63489Y224862D01*
X62864Y225175D01*
X62552Y225800D01*
Y226425D01*
X62864Y227050D01*
X63489Y227362D01*
X64427D01*
X65364Y227050D01*
X65989Y226425D01*
X66302Y225800D01*
X62864Y231102D02*
X62552Y230477D01*
Y229540D01*
X62864Y228915D01*
X63489Y228602D01*
X63802D01*
X64427Y228915D01*
X64739Y229540D01*
Y231102D01*
X66302D01*
Y228602D01*
X62552Y233280D02*
X66302D01*
X63802Y234843D01*
Y232343D01*
X63279Y221791D02*
Y219291D01*
X61091Y221479D01*
X60467Y221791D01*
X59841Y221479D01*
X59529Y220854D01*
Y219917D01*
X59841Y219291D01*
X63433Y210861D02*
Y212111D01*
Y211486D02*
X59683D01*
X60307Y210861D01*
X66211Y64254D02*
X65898Y63630D01*
Y63004D01*
X66211Y62380D01*
X66836Y62067D01*
X67461Y62380D01*
X67773Y63004D01*
Y63630D01*
Y63004D02*
X68086Y62380D01*
X68711Y62067D01*
X69336Y62380D01*
X69648Y63004D01*
Y63630D01*
X69336Y64254D01*
X69002Y120759D02*
X69628D01*
X70252Y121072D01*
X70565Y121697D01*
X70252Y122322D01*
X69628Y122634D01*
X69002D01*
X68378Y122322D01*
X68065Y121697D01*
X68378Y121072D01*
X69002Y120759D01*
X68378Y120447D01*
X68065Y119822D01*
X68378Y119197D01*
X69002Y118884D01*
X69628D01*
X70252Y119197D01*
X70565Y119822D01*
X70252Y120447D01*
X69628Y120759D01*
X68065Y129822D02*
X68378Y130447D01*
X69002Y130759D01*
X69628D01*
X70252Y130447D01*
X70565Y129822D01*
X70252Y129197D01*
X69628Y128884D01*
X69002D01*
X68378Y129197D01*
X68065Y129822D01*
Y130759D01*
X68378Y131697D01*
X69002Y132322D01*
X69628Y132634D01*
Y138884D02*
Y142634D01*
X68065Y140134D01*
X70565D01*
Y148884D02*
X68065D01*
X70252Y151072D01*
X70565Y151697D01*
X70252Y152322D01*
X69628Y152634D01*
X68690D01*
X68065Y152322D01*
X67279Y222291D02*
X63529Y223854D01*
X67279Y225417D01*
X65717Y222917D02*
Y224791D01*
X70704Y251374D02*
X71954D01*
X71329D02*
Y255124D01*
X70704Y254500D01*
X72579Y258374D02*
X70079D01*
X72266Y260562D01*
X72579Y261187D01*
X72266Y261812D01*
X71641Y262124D01*
X70704D01*
X70079Y261812D01*
X70279Y219917D02*
Y221167D01*
Y220541D02*
X66529D01*
X67154Y219917D01*
X72197Y61973D02*
Y60723D01*
Y61348D02*
X75947D01*
X75322Y61973D01*
X72197Y64035D02*
Y66535D01*
X74385Y64348D01*
X75010Y64035D01*
X75635Y64348D01*
X75947Y64973D01*
Y65910D01*
X75635Y66535D01*
X72394Y226737D02*
Y225487D01*
Y226112D02*
X76144D01*
X75519Y226737D01*
X72394Y228602D02*
Y231102D01*
X74582Y228915D01*
X75207Y228602D01*
X75832Y228915D01*
X76144Y229540D01*
Y230477D01*
X75832Y231102D01*
X72707Y234530D02*
X72394Y233905D01*
Y233280D01*
X72707Y232655D01*
X73332Y232343D01*
X73957Y232655D01*
X74269Y233280D01*
Y233905D01*
Y233280D02*
X74582Y232655D01*
X75207Y232343D01*
X75832Y232655D01*
X76144Y233280D01*
Y233905D01*
X75832Y234530D01*
X71208Y262928D02*
Y264178D01*
Y263553D02*
X67458D01*
X68083Y262928D01*
X73079Y254374D02*
X74641Y258124D01*
X76204Y254374D01*
X73704Y255937D02*
X75579D01*
X75266Y263250D02*
X75891Y262937D01*
X76204Y262312D01*
X75891Y261687D01*
X75266Y261374D01*
X73079D01*
Y265124D01*
X75266D01*
X75891Y264812D01*
X76204Y264187D01*
X75891Y263562D01*
X75266Y263250D01*
X73079D01*
X75654Y199948D02*
X74404D01*
X75030D02*
Y196198D01*
X75654Y196823D01*
X77114Y264803D02*
Y262303D01*
X74926Y264491D01*
X74301Y264803D01*
X73676Y264491D01*
X73364Y263866D01*
Y262928D01*
X73676Y262303D01*
X77212Y212736D02*
Y210236D01*
X75024Y212424D01*
X74400Y212736D01*
X73774Y212424D01*
X73462Y211799D01*
Y210861D01*
X73774Y210236D01*
X80940Y238382D02*
X82190D01*
X81565D02*
Y242132D01*
X80940Y241507D01*
X82815Y245382D02*
X80315D01*
X82502Y247570D01*
X82815Y248195D01*
X82502Y248820D01*
X81878Y249132D01*
X80940D01*
X80315Y248820D01*
X80362Y221491D02*
Y222741D01*
Y222116D02*
X76612D01*
X77237Y221491D01*
X82121Y71059D02*
X83371D01*
X82746D02*
Y74809D01*
X82121Y74185D01*
X83996Y78059D02*
X81496D01*
X83683Y80247D01*
X83996Y80872D01*
X83683Y81497D01*
X83059Y81809D01*
X82121D01*
X81496Y81497D01*
X83122Y143661D02*
Y146161D01*
X85310Y143974D01*
X85935Y143661D01*
X86560Y143974D01*
X86872Y144599D01*
Y145536D01*
X86560Y146161D01*
X83122Y153017D02*
Y151767D01*
Y152392D02*
X86872D01*
X86248Y153017D01*
X83302Y99800D02*
X84552D01*
X83927D02*
Y103550D01*
X83302Y102925D01*
X85177Y106800D02*
X82677D01*
X84865Y108987D01*
X85177Y109612D01*
X84865Y110237D01*
X84240Y110550D01*
X83302D01*
X82677Y110237D01*
X83302Y112792D02*
X84552D01*
X83927D02*
Y116542D01*
X83302Y115917D01*
X85177Y119792D02*
X82677D01*
X84865Y121980D01*
X85177Y122604D01*
X84865Y123230D01*
X84240Y123542D01*
X83302D01*
X82677Y123230D01*
X83302Y125784D02*
X84552D01*
X83927D02*
Y129534D01*
X83302Y128909D01*
X85177Y132784D02*
X82677D01*
X84865Y134972D01*
X85177Y135596D01*
X84865Y136222D01*
X84240Y136534D01*
X83302D01*
X82677Y136222D01*
X83315Y241382D02*
X84878Y245132D01*
X86440Y241382D01*
X83940Y242945D02*
X85815D01*
X85502Y250257D02*
X86128Y249945D01*
X86440Y249320D01*
X86128Y248695D01*
X85502Y248382D01*
X83315D01*
Y252132D01*
X85502D01*
X86128Y251820D01*
X86440Y251195D01*
X86128Y250570D01*
X85502Y250257D01*
X83315D01*
X84496Y74059D02*
X86059Y77809D01*
X87621Y74059D01*
X85121Y75622D02*
X86996D01*
X86683Y82935D02*
X87309Y82622D01*
X87621Y81997D01*
X87309Y81372D01*
X86683Y81059D01*
X84496D01*
Y84809D01*
X86683D01*
X87309Y84497D01*
X87621Y83872D01*
X87309Y83247D01*
X86683Y82935D01*
X84496D01*
X85677Y102800D02*
X87240Y106550D01*
X88802Y102800D01*
X86302Y104362D02*
X88177D01*
X87865Y111675D02*
X88490Y111362D01*
X88802Y110737D01*
X88490Y110112D01*
X87865Y109800D01*
X85677D01*
Y113550D01*
X87865D01*
X88490Y113237D01*
X88802Y112612D01*
X88490Y111987D01*
X87865Y111675D01*
X85677D01*
Y115792D02*
X87240Y119542D01*
X88802Y115792D01*
X86302Y117354D02*
X88177D01*
X87865Y124667D02*
X88490Y124354D01*
X88802Y123730D01*
X88490Y123104D01*
X87865Y122792D01*
X85677D01*
Y126542D01*
X87865D01*
X88490Y126230D01*
X88802Y125604D01*
X88490Y124980D01*
X87865Y124667D01*
X85677D01*
Y128784D02*
X87240Y132534D01*
X88802Y128784D01*
X86302Y130346D02*
X88177D01*
X87865Y137659D02*
X88490Y137346D01*
X88802Y136722D01*
X88490Y136096D01*
X87865Y135784D01*
X85677D01*
Y139534D01*
X87865D01*
X88490Y139222D01*
X88802Y138596D01*
X88490Y137972D01*
X87865Y137659D01*
X85677D01*
X87201Y236776D02*
Y235526D01*
Y236152D02*
X90951D01*
X90326Y236776D01*
X90201Y234402D02*
X93951Y232839D01*
X90201Y231276D01*
X91764Y233776D02*
Y231902D01*
X90389Y71059D02*
X91639D01*
X91014D02*
Y74809D01*
X90389Y74185D01*
X92264Y78059D02*
X89764D01*
X91951Y80247D01*
X92264Y80872D01*
X91951Y81497D01*
X91326Y81809D01*
X90389D01*
X89764Y81497D01*
X91309Y149589D02*
X90996Y148964D01*
Y148339D01*
X91309Y147714D01*
X91934Y147402D01*
X92559Y147714D01*
X92872Y148339D01*
Y148964D01*
Y148339D02*
X93184Y147714D01*
X93809Y147402D01*
X94434Y147714D01*
X94746Y148339D01*
Y148964D01*
X94434Y149589D01*
X92764Y74059D02*
X94326Y77809D01*
X95889Y74059D01*
X93389Y75622D02*
X95264D01*
X94951Y82935D02*
X95576Y82622D01*
X95889Y81997D01*
X95576Y81372D01*
X94951Y81059D01*
X92764D01*
Y84809D01*
X94951D01*
X95576Y84497D01*
X95889Y83872D01*
X95576Y83247D01*
X94951Y82935D01*
X92764D01*
X94201Y234902D02*
Y237402D01*
X96389Y235214D01*
X97014Y234902D01*
X97639Y235214D01*
X97951Y235839D01*
Y236776D01*
X97639Y237402D01*
X94232Y172240D02*
X92670Y168490D01*
X91107Y172240D01*
X93607Y170677D02*
X91732D01*
X92045Y179365D02*
X91420Y179677D01*
X91107Y180302D01*
X91420Y180927D01*
X92045Y181240D01*
X94232D01*
Y177490D01*
X92045D01*
X91420Y177802D01*
X91107Y178427D01*
X91420Y179052D01*
X92045Y179365D01*
X94232D01*
X93607Y187240D02*
X92357D01*
X92982D02*
Y183490D01*
X93607Y184115D01*
X91732Y196240D02*
X94232D01*
X92045Y194052D01*
X91732Y193427D01*
X92045Y192802D01*
X92670Y192490D01*
X93607D01*
X94232Y192802D01*
X95113Y107674D02*
X96363D01*
X95738D02*
Y111424D01*
X95113Y110799D01*
X96988Y114674D02*
X94488D01*
X96676Y116861D01*
X96988Y117486D01*
X96676Y118111D01*
X96051Y118424D01*
X95113D01*
X94488Y118111D01*
X95113Y120666D02*
X96363D01*
X95738D02*
Y124416D01*
X95113Y123791D01*
X96988Y127666D02*
X94488D01*
X96676Y129854D01*
X96988Y130478D01*
X96676Y131104D01*
X96051Y131416D01*
X95113D01*
X94488Y131104D01*
X95113Y133658D02*
X96363D01*
X95738D02*
Y137408D01*
X95113Y136783D01*
X96988Y140658D02*
X94488D01*
X96676Y142846D01*
X96988Y143470D01*
X96676Y144096D01*
X96051Y144408D01*
X95113D01*
X94488Y144096D01*
X94141Y223366D02*
Y220866D01*
X91954Y223054D01*
X91329Y223366D01*
X90704Y223054D01*
X90391Y222429D01*
Y221491D01*
X90704Y220866D01*
X99076Y232214D02*
X98764Y231589D01*
X98139Y231276D01*
X97514Y231589D01*
X97201Y232214D01*
Y234402D01*
X100951D01*
Y232214D01*
X100639Y231589D01*
X100014Y231276D01*
X99389Y231589D01*
X99076Y232214D01*
Y234402D01*
X97488Y110674D02*
X99051Y114424D01*
X100613Y110674D01*
X98113Y112236D02*
X99988D01*
X99676Y119549D02*
X100301Y119236D01*
X100613Y118611D01*
X100301Y117986D01*
X99676Y117674D01*
X97488D01*
Y121424D01*
X99676D01*
X100301Y121111D01*
X100613Y120486D01*
X100301Y119861D01*
X99676Y119549D01*
X97488D01*
Y123666D02*
X99051Y127416D01*
X100613Y123666D01*
X98113Y125228D02*
X99988D01*
X99676Y132541D02*
X100301Y132228D01*
X100613Y131604D01*
X100301Y130978D01*
X99676Y130666D01*
X97488D01*
Y134416D01*
X99676D01*
X100301Y134104D01*
X100613Y133478D01*
X100301Y132854D01*
X99676Y132541D01*
X97488D01*
Y136658D02*
X99051Y140408D01*
X100613Y136658D01*
X98113Y138220D02*
X99988D01*
X99676Y145533D02*
X100301Y145220D01*
X100613Y144596D01*
X100301Y143970D01*
X99676Y143658D01*
X97488D01*
Y147408D01*
X99676D01*
X100301Y147096D01*
X100613Y146470D01*
X100301Y145846D01*
X99676Y145533D01*
X97488D01*
X104469Y227906D02*
X101969D01*
X104156Y230094D01*
X104469Y230719D01*
X104156Y231344D01*
X103531Y231656D01*
X102594D01*
X101969Y231344D01*
X102594Y241685D02*
X103844D01*
X103219D02*
Y245435D01*
X102594Y244811D01*
X102106Y172240D02*
X100544Y168490D01*
X98981Y172240D01*
X101481Y170677D02*
X99606D01*
X99919Y179365D02*
X99294Y179677D01*
X98981Y180302D01*
X99294Y180927D01*
X99919Y181240D01*
X102106D01*
Y177490D01*
X99919D01*
X99294Y177802D01*
X98981Y178427D01*
X99294Y179052D01*
X99919Y179365D01*
X102106D01*
X101481Y187240D02*
X100231D01*
X100856D02*
Y183490D01*
X101481Y184115D01*
X99606Y196240D02*
X102106D01*
X99919Y194052D01*
X99606Y193427D01*
X99919Y192802D01*
X100544Y192490D01*
X101481D01*
X102106Y192802D01*
X104498Y58521D02*
X105748D01*
X105122D02*
Y62271D01*
X104498Y61646D01*
X106060Y66083D02*
X106998D01*
Y65771D01*
X106685Y65146D01*
X106372Y64833D01*
X105748Y64521D01*
X105122D01*
X104498Y64833D01*
X104185Y65146D01*
X103872Y65771D01*
Y67021D01*
X104185Y67646D01*
X104498Y67959D01*
X105122Y68271D01*
X105748D01*
X106372Y67959D01*
X106685Y67646D01*
X106998Y67021D01*
X108872Y64521D02*
Y68271D01*
X111998Y64521D01*
Y68271D01*
X113872Y64521D02*
Y68271D01*
X115748D01*
X116372Y67959D01*
X116685Y67646D01*
X116998Y67021D01*
Y65771D01*
X116685Y65146D01*
X116372Y64833D01*
X115748Y64521D01*
X113872D01*
X110429Y93563D02*
X106679Y95126D01*
X110429Y96688D01*
X108866Y94188D02*
Y96063D01*
X112062Y185819D02*
X113312D01*
X112687D02*
Y189569D01*
X112062Y188944D01*
X115428Y58521D02*
X112928D01*
X115115Y60709D01*
X115428Y61333D01*
X115115Y61959D01*
X114490Y62271D01*
X113553D01*
X112928Y61959D01*
Y68271D02*
X114490Y64521D01*
X116053Y68271D01*
X117928Y65459D02*
X118240Y64833D01*
X118865Y64521D01*
X119490D01*
X120115Y64833D01*
X120428Y65459D01*
Y66083D01*
X120115Y66709D01*
X119490Y67021D01*
X118865D01*
X118240Y66709D01*
X117928Y66083D01*
Y65459D01*
X122928Y67021D02*
Y65459D01*
X123240Y64833D01*
X123865Y64521D01*
X124490D01*
X125115Y64833D01*
X125428Y65459D01*
Y67021D02*
Y64521D01*
X128448Y67021D02*
X129907D01*
X129178Y67646D02*
Y64833D01*
X129490Y64521D01*
X129803D01*
X130115Y64833D01*
X114490Y83718D02*
Y87468D01*
X112928Y84968D01*
X115428D01*
X112928Y93468D02*
X114490Y89718D01*
X116053Y93468D01*
X117928Y90656D02*
X118240Y90030D01*
X118865Y89718D01*
X119490D01*
X120115Y90030D01*
X120428Y90656D01*
Y91280D01*
X120115Y91906D01*
X119490Y92218D01*
X118865D01*
X118240Y91906D01*
X117928Y91280D01*
Y90656D01*
X122928Y92218D02*
Y90656D01*
X123240Y90030D01*
X123865Y89718D01*
X124490D01*
X125115Y90030D01*
X125428Y90656D01*
Y92218D02*
Y89718D01*
X128448Y92218D02*
X129907D01*
X129178Y92843D02*
Y90030D01*
X129490Y89718D01*
X129803D01*
X130115Y90030D01*
X117554Y95750D02*
X117866Y96376D01*
X118491Y96688D01*
X119116Y96376D01*
X119429Y95750D01*
Y93563D01*
X115679D01*
Y95750D01*
X115991Y96376D01*
X116616Y96688D01*
X117241Y96376D01*
X117554Y95750D01*
Y93563D01*
X122295Y58833D02*
X122920Y58521D01*
X123545D01*
X124170Y58833D01*
X124483Y59459D01*
X124170Y60083D01*
X123545Y60396D01*
X122920D01*
X123545D02*
X124170Y60709D01*
X124483Y61333D01*
X124170Y61959D01*
X123545Y62271D01*
X122920D01*
X122295Y61959D01*
X121983Y68271D02*
X123545Y64521D01*
X125108Y68271D01*
X128233Y64521D02*
Y67021D01*
Y67959D02*
X131983Y64521D02*
Y67021D01*
Y66083D02*
X132295Y66709D01*
X132920Y67021D01*
X133545D01*
X134170Y66709D01*
X134483Y66083D01*
Y64521D01*
X126811Y185819D02*
X124311D01*
X126498Y188007D01*
X126811Y188632D01*
X126498Y189257D01*
X125874Y189569D01*
X124936D01*
X124311Y189257D01*
X126609Y38776D02*
X127859D01*
X127234D02*
Y42526D01*
X126609Y41901D01*
X128484Y45776D02*
X125984D01*
X128172Y47964D01*
X128484Y48589D01*
X128172Y49214D01*
X127547Y49526D01*
X126609D01*
X125984Y49214D01*
X125429Y94188D02*
Y95438D01*
Y94813D02*
X121679D01*
X122304Y94188D01*
X128984Y41776D02*
X130547Y45526D01*
X132109Y41776D01*
X129609Y43339D02*
X131484D01*
X131172Y50651D02*
X131797Y50339D01*
X132109Y49714D01*
X131797Y49089D01*
X131172Y48776D01*
X128984D01*
Y52526D01*
X131172D01*
X131797Y52214D01*
X132109Y51589D01*
X131797Y50964D01*
X131172Y50651D01*
X128984D01*
X128277Y46987D02*
X127652Y47299D01*
X127339Y47924D01*
X127652Y48549D01*
X128277Y48862D01*
X130465D01*
Y45112D01*
X128277D01*
X127652Y45424D01*
X127339Y46049D01*
X127652Y46674D01*
X128277Y46987D01*
X130465D01*
Y55862D02*
X128902Y52112D01*
X127339Y55862D01*
X129839Y54299D02*
X127965D01*
X130465Y61854D02*
Y58104D01*
Y59979D02*
X129527D01*
X127339Y58104D01*
X129527Y59979D02*
X127339Y61854D01*
X130465Y68854D02*
X128902Y65104D01*
X127339Y68854D01*
X129839Y67291D02*
X127965D01*
X130965Y51862D02*
X133465D01*
X131277Y49674D01*
X130965Y49049D01*
X131277Y48424D01*
X131902Y48112D01*
X132839D01*
X133465Y48424D01*
X132839Y58862D02*
X131589D01*
X132215D02*
Y55112D01*
X132839Y55737D01*
X130965Y64854D02*
X133465D01*
X131277Y62666D01*
X130965Y62041D01*
X131277Y61416D01*
X131902Y61104D01*
X132839D01*
X133465Y61416D01*
X132839Y71854D02*
X131589D01*
X132215D02*
Y68104D01*
X132839Y68729D01*
X134090Y204130D02*
X135340D01*
X134715D02*
Y207880D01*
X134090Y207256D01*
X135965Y211130D02*
X133465D01*
X135652Y213318D01*
X135965Y213943D01*
X135652Y214568D01*
X135027Y214880D01*
X134090D01*
X133465Y214568D01*
X134090Y217122D02*
X135340D01*
X134715D02*
Y220872D01*
X134090Y220248D01*
X135965Y224122D02*
X133465D01*
X135652Y226310D01*
X135965Y226935D01*
X135652Y227560D01*
X135027Y227872D01*
X134090D01*
X133465Y227560D01*
X134429Y96063D02*
Y93563D01*
X132241Y95750D01*
X131616Y96063D01*
X130991Y95750D01*
X130679Y95126D01*
Y94188D01*
X130991Y93563D01*
X136465Y207130D02*
X138027Y210880D01*
X139590Y207130D01*
X137090Y208693D02*
X138965D01*
X136465Y214130D02*
Y217880D01*
Y216006D02*
X137402D01*
X139590Y217880D01*
X137402Y216006D02*
X139590Y214130D01*
X136465Y220122D02*
X138027Y223872D01*
X139590Y220122D01*
X137090Y221685D02*
X138965D01*
X138652Y228998D02*
X139277Y228685D01*
X139590Y228060D01*
X139277Y227435D01*
X138652Y227122D01*
X136465D01*
Y230872D01*
X138652D01*
X139277Y230560D01*
X139590Y229935D01*
X139277Y229310D01*
X138652Y228998D01*
X136465D01*
D02*
D109*
X91732Y178177D03*
Y187177D03*
X99606Y178177D03*
Y187177D03*
D02*
D111*
X103543Y228543D03*
Y242323D03*
D02*
D112*
X53980Y240157D03*
X60980D03*
X64217Y219291D03*
X71217D03*
X86264Y237402D03*
X93264D03*
D02*
D114*
X38189Y60280D03*
Y67280D03*
Y73272D03*
Y80272D03*
X70079Y250437D03*
Y257437D03*
X80315Y237445D03*
Y244445D03*
X81496Y70122D03*
Y77122D03*
X82677Y98862D03*
Y105862D03*
Y111854D03*
Y118854D03*
Y124846D03*
Y131846D03*
X89764Y70122D03*
Y77122D03*
X94488Y106736D03*
Y113736D03*
Y119728D03*
Y126728D03*
Y132720D03*
Y139720D03*
X125984Y37839D03*
Y44839D03*
X133465Y52799D03*
Y59799D03*
Y65791D03*
Y72791D03*
Y203193D03*
Y210193D03*
Y216185D03*
Y223185D03*
D02*
D118*
X41535Y98819D03*
X45276Y90945D03*
X49016Y98819D03*
X83858Y147835D03*
Y155315D03*
X91732Y151575D03*
D02*
D119*
X70276Y264173D03*
X76181D03*
D02*
D148*
X45276Y61811D03*
Y79134D03*
X47244Y61811D03*
Y79134D03*
X49213Y61811D03*
Y79134D03*
X51181Y61811D03*
Y79134D03*
X53150Y61811D03*
Y79134D03*
D02*
D149*
X62795Y226181D03*
Y229921D03*
Y233661D03*
X72638Y226181D03*
Y229921D03*
Y233661D03*
D02*
D152*
X39764Y198425D03*
Y222835D03*
D02*
D153*
X62795Y211811D03*
X76575D03*
X79724Y222441D03*
X93504D03*
D02*
D154*
X64961Y196457D03*
X80709D03*
D02*
D155*
X109705Y186614D03*
X122579D03*
D02*
D156*
X102772Y58683D03*
X111828D03*
X120883D03*
D02*
D157*
X111828Y83880D03*
D02*
D158*
X116366Y96063D03*
X125366D03*
D02*
D159*
X65748Y63780D03*
X72047Y61811D03*
Y65748D03*
X0Y0D02*
M02*
