G04 DesignSpark PCB PRO Gerber Version 10.0 Build 5299*
G04 #@! TF.Part,Single*
G04 #@! TF.FileFunction,Copper,L1,Top*
G04 #@! TF.FilePolarity,Positive*
%FSLAX35Y35*%
%MOIN*%
%ADD108C,0.00787*%
%ADD111C,0.00984*%
%ADD113C,0.01500*%
G04 #@! TA.AperFunction,ViaPad*
%ADD112C,0.03543*%
G04 #@! TA.AperFunction,ComponentPad*
%ADD114C,0.06102*%
G04 #@! TA.AperFunction,SMDPad,CuDef*
%ADD116R,0.03543X0.01575*%
%ADD115R,0.08268X0.05512*%
G04 #@! TD.AperFunction*
X0Y0D02*
D02*
D108*
X9687Y251993D02*
Y8637D01*
X12286Y6038D01*
X367847D01*
X370446Y8637D01*
Y251993D01*
X367847Y254593D01*
X12286D01*
X9687Y251993D01*
X14279Y242520D02*
G75*
G02*
X29240I7480J0D01*
G01*
G75*
G02*
X14279I-7480J0D01*
G01*
X14772Y82677D02*
X26583D01*
Y73622D01*
X14772D01*
Y82677D01*
X26398Y64606D02*
G75*
G02*
X31319I2461J0D01*
G01*
G75*
G02*
X26398I-2461J0D01*
G01*
X14772Y122047D02*
X26583D01*
Y112992D01*
X14772D01*
Y122047D01*
X71071Y79205D02*
G75*
G02*
X72350Y76772I-1673J-2433D01*
G01*
G75*
G02*
X66445I-2953J0D01*
G01*
G75*
G02*
X67724Y79205I2953J0D01*
G01*
Y94583D01*
X62406Y99902D01*
X24421D01*
X24323Y99803D01*
X25992D01*
Y91929D01*
X15362D01*
Y99803D01*
X19591D01*
X22543Y102756D01*
G75*
G02*
X23728Y103248I1185J-1181D01*
G01*
X63098D01*
G75*
G02*
X64283Y102756I0J-1673D01*
G01*
X70579Y96461D01*
G75*
G02*
X71071Y95276I-1181J-1185D01*
G01*
Y79205D01*
X26398Y87362D02*
G75*
G02*
X31319I2461J0D01*
G01*
G75*
G02*
X26398I-2461J0D01*
G01*
X40854Y66535D02*
G75*
G02*
X46760I2953J0D01*
G01*
G75*
G02*
X40854I-2953J0D01*
G01*
Y89370D02*
G75*
G02*
X46760I2953J0D01*
G01*
G75*
G02*
X40854I-2953J0D01*
G01*
X51189Y82087D02*
X61819D01*
Y74213D01*
X51189D01*
Y82087D01*
X57783Y49409D02*
G75*
G02*
X64082I3150J0D01*
G01*
G75*
G02*
X57783I-3150J0D01*
G01*
X51189Y99803D02*
X61819D01*
Y91929D01*
X51189D01*
Y99803D01*
X14772Y161417D02*
X26583D01*
Y152362D01*
X14772D01*
Y161417D01*
X115783Y67028D02*
G75*
G02*
X121169Y65355I2433J-1673D01*
G01*
G75*
G02*
X115783Y63681I-2953J0D01*
G01*
X78059D01*
G75*
G02*
X76874Y64174I0J1673D01*
G01*
X73728Y67319D01*
G75*
G02*
X73236Y68504I1181J1185D01*
G01*
Y122142D01*
X71461Y123917D01*
X21858D01*
G75*
G02*
X20673Y124409I0J1673D01*
G01*
X19496Y125587D01*
G75*
G02*
X19010Y126632I1181J1185D01*
G01*
G75*
G02*
X18571Y131299I1569J2502D01*
G01*
X15362D01*
Y139173D01*
X25992D01*
Y131299D01*
X22586D01*
G75*
G02*
X22864Y127264I-2007J-2165D01*
G01*
X72150D01*
G75*
G02*
X73337Y126774I3J-1673D01*
G01*
X76093Y124018D01*
G75*
G02*
X76583Y122835I-1183J-1183D01*
G01*
G75*
G02*
Y122834I-683J0D01*
G01*
G75*
G02*
Y122831I-793J-1D01*
G01*
Y69197D01*
X78752Y67028D01*
X83177D01*
G75*
G02*
X82779Y67323I788J1476D01*
G01*
X77272Y72831D01*
G75*
G02*
X76780Y74016I1181J1185D01*
G01*
Y126410D01*
G75*
G02*
Y126421I1578J6D01*
G01*
Y126421D01*
G75*
G02*
X76823Y126800I1673J0D01*
G01*
Y155441D01*
G75*
G02*
X76063Y156201I1674J2433D01*
G01*
X74165D01*
G75*
G02*
X72980Y156693I0J1673D01*
G01*
X65992Y163681D01*
X39476D01*
G75*
G02*
X38291Y164173I0J1673D01*
G01*
X29531Y172933D01*
X25992D01*
Y170669D01*
X15362D01*
Y178543D01*
X25992D01*
Y176280D01*
X30224D01*
G75*
G02*
X31409Y175787I0J-1673D01*
G01*
X40169Y167028D01*
X66685D01*
G75*
G02*
X67870Y166535I0J-1673D01*
G01*
X74858Y159547D01*
X76063D01*
G75*
G02*
X81449Y157874I2433J-1673D01*
G01*
G75*
G02*
X80169Y155441I-2953J0D01*
G01*
Y126476D01*
G75*
G02*
Y126465I-1578J-5D01*
G01*
Y126465D01*
G75*
G02*
X80126Y126086I-1673J0D01*
G01*
Y74709D01*
X84657Y70178D01*
X88294D01*
G75*
G02*
X87898Y70472I789J1476D01*
G01*
X83571Y74799D01*
G75*
G02*
X83079Y75984I1181J1185D01*
G01*
Y187102D01*
X77665Y192516D01*
G75*
G02*
X77173Y193701I1181J1185D01*
G01*
Y206988D01*
X37508D01*
G75*
G02*
X36323Y207480I0J1673D01*
G01*
X31500Y212303D01*
X25992D01*
Y210039D01*
X15362D01*
Y217913D01*
X25992D01*
Y215650D01*
X32193D01*
G75*
G02*
X33378Y215157I0J-1673D01*
G01*
X38201Y210335D01*
X51189D01*
Y217913D01*
X61819D01*
Y210335D01*
X96535D01*
G75*
G02*
X101921Y208661I2433J-1673D01*
G01*
G75*
G02*
X96535Y206988I-2953J0D01*
G01*
X80520D01*
Y194394D01*
X85933Y188980D01*
G75*
G02*
X86425Y187795I-1181J-1185D01*
G01*
Y76677D01*
X89776Y73327D01*
X98854Y73327D01*
G75*
G02*
X103844Y70178I2433J-1673D01*
G01*
X105941D01*
G75*
G02*
X110931Y67028I2433J-1673D01*
G01*
X115783D01*
X51189Y139173D02*
X61819D01*
Y131299D01*
X51189D01*
Y139173D01*
Y160827D02*
X61819D01*
Y152953D01*
X51189D01*
Y160827D01*
X62902Y130315D02*
G75*
G02*
X68807I2953J0D01*
G01*
G75*
G02*
X62902I-2953J0D01*
G01*
X51189Y178543D02*
X61819D01*
Y170669D01*
X51189D01*
Y178543D01*
Y200197D02*
X61819D01*
Y192323D01*
X51189D01*
Y200197D01*
X101441Y103937D02*
G75*
G02*
X107346I2953J0D01*
G01*
G75*
G02*
X101441I-2953J0D01*
G01*
X88492Y144094D02*
G75*
G02*
X94398I2953J0D01*
G01*
G75*
G02*
X88492I-2953J0D01*
G01*
X93610Y155906D02*
G75*
G02*
X99516I2953J0D01*
G01*
G75*
G02*
X98236Y153472I-2953J0D01*
G01*
Y140551D01*
G75*
G02*
X97744Y139366I-1673J0D01*
G01*
X93906Y135528D01*
Y123299D01*
G75*
G02*
X95185Y120866I-1673J-2433D01*
G01*
G75*
G02*
X89280I-2953J0D01*
G01*
G75*
G02*
X90559Y123299I2953J0D01*
G01*
Y136220D01*
G75*
G02*
X91051Y137406I1673J0D01*
G01*
X94890Y141244D01*
Y153472D01*
G75*
G02*
X93610Y155906I1673J2433D01*
G01*
X111795Y38859D02*
G75*
G02*
X121441I4823J0D01*
G01*
G75*
G02*
X111795I-4823J0D01*
G01*
X112385Y28859D02*
G75*
G02*
X120850I4232J0D01*
G01*
G75*
G02*
X112385I-4232J0D01*
G01*
X51189Y121457D02*
X61819D01*
Y113583D01*
X51189D01*
Y121457D01*
X14772Y200787D02*
X26583D01*
Y191732D01*
X14772D01*
Y200787D01*
X57783Y242717D02*
G75*
G02*
X64083I3150J0D01*
G01*
G75*
G02*
X57783I-3150J0D01*
G01*
X103059Y188976D02*
G75*
G02*
X108965I2953J0D01*
G01*
G75*
G02*
X103059I-2953J0D01*
G01*
X110933Y239370D02*
G75*
G02*
X116838I2953J0D01*
G01*
G75*
G02*
X114946Y236615I-2953J0D01*
G01*
G75*
G02*
Y231103I-1060J-2756D01*
G01*
G75*
G02*
X116838Y228347I-1060J-2756D01*
G01*
G75*
G02*
X110933I-2953J0D01*
G01*
G75*
G02*
X112825Y231103I2953J0D01*
G01*
G75*
G02*
Y236615I1060J2756D01*
G01*
G75*
G02*
X110933Y239370I1060J2756D01*
G01*
X122385Y28859D02*
G75*
G02*
X130850I4232J0D01*
G01*
G75*
G02*
X122385I-4232J0D01*
G01*
Y38859D02*
G75*
G02*
X130850I4232J0D01*
G01*
G75*
G02*
X122385I-4232J0D01*
G01*
X132385Y28859D02*
G75*
G02*
X140850I4232J0D01*
G01*
G75*
G02*
X132385I-4232J0D01*
G01*
Y38859D02*
G75*
G02*
X140850I4232J0D01*
G01*
G75*
G02*
X132385I-4232J0D01*
G01*
X136523Y76772D02*
G75*
G02*
X142429I2953J0D01*
G01*
G75*
G02*
X136523I-2953J0D01*
G01*
X141795Y28859D02*
G75*
G02*
X151441I4823J0D01*
G01*
G75*
G02*
X141795I-4823J0D01*
G01*
X142385Y38859D02*
G75*
G02*
X150850I4232J0D01*
G01*
G75*
G02*
X142385I-4232J0D01*
G01*
X169988Y136221D02*
G75*
G02*
X175893I2953J0D01*
G01*
G75*
G02*
X174614Y133788I-2953J0D01*
G01*
Y101575D01*
G75*
G02*
X174122Y100390I-1673J0D01*
G01*
X163196Y89465D01*
Y41350D01*
G75*
G02*
X170850Y38859I3421J-2491D01*
G01*
G75*
G02*
X163196Y36367I-4232J0D01*
G01*
Y33465D01*
G75*
G02*
X162704Y32280I-1673J0D01*
G01*
X160630Y30206D01*
G75*
G02*
X160850Y28859I-4013J-1347D01*
G01*
G75*
G02*
X152385I-4232J0D01*
G01*
G75*
G02*
X158393Y32701I4232J0D01*
G01*
X159850Y34158D01*
Y36126D01*
G75*
G02*
X152385Y38859I-3232J2732D01*
G01*
G75*
G02*
X159850Y41591I4232J0D01*
G01*
Y90158D01*
G75*
G02*
X160342Y91343I1673J0D01*
G01*
X171267Y102268D01*
Y133788D01*
G75*
G02*
X169988Y136221I1673J2433D01*
G01*
X359654Y104437D02*
G75*
G02*
X365264Y103150I2657J-1287D01*
G01*
G75*
G02*
X363984Y100717I-2953J0D01*
G01*
Y48426D01*
G75*
G02*
X363492Y47241I-1673J0D01*
G01*
X356803Y40552D01*
G75*
G02*
X355618Y40059I-1185J1181D01*
G01*
X354632D01*
G75*
G02*
X355028Y38583I-2557J-1476D01*
G01*
G75*
G02*
X349122I-2953J0D01*
G01*
G75*
G02*
X349518Y40059I2953J0D01*
G01*
X329539D01*
X328157Y38678D01*
Y19685D01*
G75*
G02*
X327665Y18500I-1673J0D01*
G01*
X319007Y9843D01*
G75*
G02*
X317822Y9351I-1185J1181D01*
G01*
X295579D01*
Y9055D01*
X289673D01*
Y9458D01*
G75*
G02*
X289078Y9843I591J1566D01*
G01*
X288488Y10433D01*
X282783D01*
Y15551D01*
X287803D01*
Y17811D01*
X287208Y18406D01*
X283570D01*
G75*
G02*
X282385Y18898I0J1673D01*
G01*
X280027Y21256D01*
G75*
G02*
X279535Y22441I1181J1185D01*
G01*
Y25793D01*
G75*
G02*
X272385Y28859I-2917J3066D01*
G01*
G75*
G02*
X279535Y31925I4232J0D01*
G01*
Y35793D01*
G75*
G02*
X272385Y38859I-2917J3066D01*
G01*
G75*
G02*
X274944Y42746I4232J0D01*
G01*
Y64961D01*
G75*
G02*
X275437Y66146I1673J0D01*
G01*
X278582Y69292D01*
G75*
G02*
X278980Y69587I1185J-1181D01*
G01*
X270484D01*
X267133Y66237D01*
Y56370D01*
G75*
G02*
X268413Y53937I-1673J-2433D01*
G01*
G75*
G02*
X263196Y52042I-2953J0D01*
G01*
Y42258D01*
G75*
G02*
X271441Y38859I3421J-3399D01*
G01*
G75*
G02*
X263196Y35459I-4823J0D01*
G01*
Y31350D01*
G75*
G02*
X270850Y28859I3421J-2491D01*
G01*
G75*
G02*
X263196Y26367I-4232J0D01*
G01*
Y25197D01*
G75*
G02*
X262704Y24012I-1673J0D01*
G01*
X254441Y15748D01*
G75*
G02*
X253256Y15256I-1185J1181D01*
G01*
X180027D01*
G75*
G02*
X178842Y15748I0J1673D01*
G01*
X175303Y19288D01*
G75*
G02*
X174811Y20473I1181J1185D01*
G01*
Y25031D01*
G75*
G02*
X172385Y28859I1807J3827D01*
G01*
G75*
G02*
X179929Y31495I4232J0D01*
G01*
Y32788D01*
X177893Y34823D01*
G75*
G02*
X172385Y38859I-1276J4035D01*
G01*
G75*
G02*
X180850I4232J0D01*
G01*
G75*
G02*
X180430Y37019I-4233J0D01*
G01*
X182783Y34666D01*
G75*
G02*
X183275Y33481I-1181J-1185D01*
G01*
Y31455D01*
G75*
G02*
X190850Y28859I3343J-2596D01*
G01*
G75*
G02*
X183275Y26263I-4232J0D01*
G01*
Y23528D01*
X185838Y20965D01*
X247838D01*
X250007Y23134D01*
Y25428D01*
G75*
G02*
X241795Y28859I-3390J3431D01*
G01*
G75*
G02*
X250007Y32289I4823J0D01*
G01*
Y36324D01*
G75*
G02*
X242385Y38859I-3390J2534D01*
G01*
G75*
G02*
X250007Y41393I4232J0D01*
G01*
Y43701D01*
G75*
G02*
X250500Y44886I1673J0D01*
G01*
X251583Y45969D01*
Y59378D01*
G75*
G02*
X250632Y60458I1674J2433D01*
G01*
G75*
G02*
X250696Y59843I-2889J-614D01*
G01*
G75*
G02*
X244793Y59744I-2953J0D01*
G01*
X232393D01*
G75*
G02*
X231206Y60235I-3J1673D01*
G01*
X228450Y62991D01*
G75*
G02*
X227960Y64174I1183J1183D01*
G01*
G75*
G02*
Y64177I793J2D01*
G01*
Y69780D01*
X226972Y70768D01*
X179704D01*
G75*
G02*
X174319Y72441I-2433J1673D01*
G01*
G75*
G02*
X179704Y74115I2953J0D01*
G01*
X190161D01*
X177021Y87254D01*
G75*
G02*
X173531Y90158I-537J2904D01*
G01*
G75*
G02*
X178931Y91810I2953J0D01*
G01*
G75*
G02*
X184555Y90551I2671J-1259D01*
G01*
G75*
G02*
X184506Y90014I-2954J0D01*
G01*
X195681Y78839D01*
X233961D01*
G75*
G02*
X235147Y78348I3J-1673D01*
G01*
X236168Y77328D01*
G75*
G02*
X239570Y74410I450J-2918D01*
G01*
G75*
G02*
X234456Y72398I-2953J0D01*
G01*
Y67229D01*
X235051Y66634D01*
X238618D01*
G75*
G02*
X243733Y66196I2433J-1673D01*
G01*
G75*
G02*
X247100Y68258I2830J-842D01*
G01*
X247740Y68898D01*
G75*
G02*
X248925Y69390I1185J-1181D01*
G01*
X259161D01*
G75*
G02*
X260346Y68898I0J-1673D01*
G01*
X262704Y66540D01*
G75*
G02*
X263196Y65355I-1181J-1185D01*
G01*
Y55833D01*
G75*
G02*
X263787Y56370I2265J-1896D01*
G01*
Y66930D01*
G75*
G02*
X264279Y68115I1673J0D01*
G01*
X268606Y72441D01*
G75*
G02*
X269791Y72933I1185J-1181D01*
G01*
X282484D01*
X287015Y77465D01*
Y206788D01*
X283272Y210531D01*
X234035D01*
G75*
G02*
X228937Y213477I-2433J1673D01*
G01*
G75*
G02*
X224712Y216142I-1272J2665D01*
G01*
G75*
G02*
X230098Y217815I2953J0D01*
G01*
X287902D01*
G75*
G02*
X289087Y217323I0J-1673D01*
G01*
X292626Y213784D01*
G75*
G02*
X293118Y212599I-1181J-1185D01*
G01*
Y72441D01*
G75*
G02*
X292626Y71256I-1673J0D01*
G01*
X288299Y66930D01*
G75*
G02*
X287114Y66437I-1185J1181D01*
G01*
X280460D01*
X278291Y64268D01*
Y42746D01*
G75*
G02*
X279535Y41925I-1673J-3887D01*
G01*
Y42914D01*
G75*
G02*
X280027Y44099I1673J0D01*
G01*
X281992Y46063D01*
G75*
G02*
X283177Y46556I1185J-1181D01*
G01*
X294984D01*
G75*
G02*
X296171Y46065I3J-1673D01*
G01*
X297746Y44491D01*
G75*
G02*
X298236Y43307I-1183J-1183D01*
G01*
G75*
G02*
Y43304I-793J-2D01*
G01*
Y42769D01*
G75*
G02*
X300850Y38859I-1618J-3911D01*
G01*
G75*
G02*
X293118Y36479I-4232J0D01*
G01*
Y31238D01*
G75*
G02*
X300850Y28859I3500J-2380D01*
G01*
G75*
G02*
X293118Y26479I-4232J0D01*
G01*
Y21166D01*
X293807Y20477D01*
G75*
G02*
X294299Y19292I-1181J-1185D01*
G01*
Y16929D01*
X295579D01*
Y16634D01*
X317523D01*
X321661Y20772D01*
Y40158D01*
G75*
G02*
X322153Y41343I1673J0D01*
G01*
X325693Y44882D01*
G75*
G02*
X326878Y45374I1185J-1181D01*
G01*
X351776D01*
X356307Y49906D01*
Y113087D01*
X352169Y117224D01*
X349390D01*
G75*
G02*
X349169Y116941I-2434J1674D01*
G01*
G75*
G02*
X345120Y111143I-2212J-2768D01*
G01*
Y106643D01*
G75*
G02*
X349909Y104331I1837J-2312D01*
G01*
G75*
G02*
X348630Y101898I-2953J0D01*
G01*
Y56696D01*
G75*
G02*
Y56694I-793J-1D01*
G01*
G75*
G02*
Y56693I-683J0D01*
G01*
G75*
G02*
X348140Y55510I-1673J0D01*
G01*
X345384Y52754D01*
G75*
G02*
X344197Y52264I-1183J1183D01*
G01*
X331162D01*
G75*
G02*
X332980Y49409I-1331J-2854D01*
G01*
G75*
G02*
X326681I-3150J0D01*
G01*
G75*
G02*
X328499Y52264I3150J0D01*
G01*
X320091D01*
X319939Y52112D01*
G75*
G02*
X319988Y51575I-2903J-537D01*
G01*
G75*
G02*
X314082I-2953J0D01*
G01*
G75*
G02*
X317573Y54479I2953J0D01*
G01*
X318215Y55120D01*
G75*
G02*
X319399Y55610I1183J-1183D01*
G01*
X322464D01*
G75*
G02*
X320053Y60236I3233J4626D01*
G01*
Y244488D01*
G75*
G02*
X325697Y250132I5644J0D01*
G01*
X339476D01*
G75*
G02*
X345120Y244488I0J-5644D01*
G01*
Y121210D01*
G75*
G02*
X349390Y120571I1837J-2312D01*
G01*
X352862D01*
G75*
G02*
X354047Y120079I0J-1673D01*
G01*
X359161Y114965D01*
G75*
G02*
X359654Y113780I-1181J-1185D01*
G01*
Y104437D01*
X232385Y28859D02*
G75*
G02*
X240850I4232J0D01*
G01*
G75*
G02*
X232385I-4232J0D01*
G01*
Y38859D02*
G75*
G02*
X240850I4232J0D01*
G01*
G75*
G02*
X232385I-4232J0D01*
G01*
X181795D02*
G75*
G02*
X191441I4823J0D01*
G01*
G75*
G02*
X181795I-4823J0D01*
G01*
X192385Y28859D02*
G75*
G02*
X200850I4232J0D01*
G01*
G75*
G02*
X192385I-4232J0D01*
G01*
Y38859D02*
G75*
G02*
X200850I4232J0D01*
G01*
G75*
G02*
X192385I-4232J0D01*
G01*
X202385Y28859D02*
G75*
G02*
X210850I4232J0D01*
G01*
G75*
G02*
X202385I-4232J0D01*
G01*
Y38859D02*
G75*
G02*
X210850I4232J0D01*
G01*
G75*
G02*
X202385I-4232J0D01*
G01*
X211795Y28859D02*
G75*
G02*
X221441I4823J0D01*
G01*
G75*
G02*
X211795I-4823J0D01*
G01*
X212385Y38859D02*
G75*
G02*
X220850I4232J0D01*
G01*
G75*
G02*
X212385I-4232J0D01*
G01*
X222385Y28859D02*
G75*
G02*
X230850I4232J0D01*
G01*
G75*
G02*
X222385I-4232J0D01*
G01*
Y38859D02*
G75*
G02*
X230850I4232J0D01*
G01*
G75*
G02*
X222385I-4232J0D01*
G01*
X238492Y121654D02*
G75*
G02*
X244398I2953J0D01*
G01*
G75*
G02*
X238492I-2953J0D01*
G01*
X241248Y110630D02*
G75*
G02*
X247154I2953J0D01*
G01*
G75*
G02*
X241248I-2953J0D01*
G01*
X240854Y175591D02*
G75*
G02*
X246760I2953J0D01*
G01*
G75*
G02*
X240854I-2953J0D01*
G01*
X250303Y81890D02*
G75*
G02*
X256209I2953J0D01*
G01*
G75*
G02*
X250303I-2953J0D01*
G01*
X267232Y182678D02*
G75*
G02*
X273138I2953J0D01*
G01*
G75*
G02*
X267232I-2953J0D01*
G01*
X331996Y18110D02*
G75*
G02*
X346957I7480J0D01*
G01*
G75*
G02*
X331996I-7480J0D01*
G01*
X161795Y28859D02*
G75*
G02*
X171441I4823J0D01*
G01*
G75*
G02*
X161795I-4823J0D01*
G01*
X154240Y224803D02*
G75*
G02*
X160146I2953J0D01*
G01*
G75*
G02*
X154240I-2953J0D01*
G01*
Y233858D02*
G75*
G02*
X160146I2953J0D01*
G01*
G75*
G02*
X154240I-2953J0D01*
G01*
X161327Y185039D02*
G75*
G02*
X167232I2953J0D01*
G01*
G75*
G02*
X161327I-2953J0D01*
G01*
X206602Y220079D02*
G75*
G02*
X212508I2953J0D01*
G01*
G75*
G02*
X206602I-2953J0D01*
G01*
X215201Y87526D02*
G75*
G02*
X218807Y84646I653J-2880D01*
G01*
G75*
G02*
X212901I-2953J0D01*
G01*
G75*
G02*
X212974Y85299I2953J1D01*
G01*
X210607Y87666D01*
G75*
G02*
X210146Y88780I1113J1114D01*
G01*
Y97109D01*
G75*
G02*
X208768Y99607I1575J2498D01*
G01*
G75*
G02*
X214673I2953J0D01*
G01*
G75*
G02*
X213295Y97109I-2953J0D01*
G01*
Y89432D01*
X215201Y87526D01*
X302385Y28859D02*
G75*
G02*
X310850I4232J0D01*
G01*
G75*
G02*
X302385I-4232J0D01*
G01*
Y38859D02*
G75*
G02*
X310850I4232J0D01*
G01*
G75*
G02*
X302385I-4232J0D01*
G01*
X355815Y162992D02*
G75*
G02*
X361720I2953J0D01*
G01*
G75*
G02*
X355815I-2953J0D01*
G01*
X10080Y18110D02*
G36*
X10080Y18110D02*
Y8244D01*
X11893Y6431D01*
X368241D01*
X370053Y8244D01*
Y18110D01*
X346957D01*
G75*
G02*
X331996I-7480J0D01*
G01*
X327275D01*
X319007Y9843D01*
G75*
G02*
X317822Y9351I-1185J1180D01*
G01*
X295579D01*
Y9055D01*
X289673D01*
Y9458D01*
G75*
G02*
X289078Y9843I593J1569D01*
G01*
X288488Y10433D01*
X282783D01*
Y15551D01*
X287803D01*
Y17811D01*
X287504Y18110D01*
X256802D01*
X254441Y15748D01*
G75*
G02*
X253256Y15256I-1185J1180D01*
G01*
X180027D01*
G75*
G02*
X178842Y15748I0J1672D01*
G01*
X176480Y18110D01*
X10080D01*
G37*
X294299D02*
G36*
X294299Y18110D02*
Y16929D01*
X295579D01*
Y16634D01*
X317523D01*
X318999Y18110D01*
X294299D01*
G37*
X10080Y28859D02*
G36*
X10080Y28859D02*
Y18110D01*
X176480D01*
X175303Y19288D01*
G75*
G02*
X174811Y20473I1181J1185D01*
G01*
Y25031D01*
G75*
G02*
X172385Y28859I1808J3828D01*
G01*
X171441D01*
G75*
G02*
X161795I-4823J0D01*
G01*
X160850D01*
G75*
G02*
X152385I-4232J0D01*
G01*
X151441D01*
G75*
G02*
X141795I-4823J0D01*
G01*
X140850D01*
G75*
G02*
X132385I-4232J0D01*
G01*
X130850D01*
G75*
G02*
X122385I-4232J0D01*
G01*
X120850D01*
G75*
G02*
X112385I-4232J0D01*
G01*
X10080D01*
G37*
X183275Y26263D02*
G36*
X183275Y26263D02*
Y23528D01*
X185838Y20965D01*
X247838D01*
X250007Y23134D01*
Y25428D01*
G75*
G02*
X241795Y28859I-3390J3431D01*
G01*
X240850D01*
G75*
G02*
X232385I-4232J0D01*
G01*
X230850D01*
G75*
G02*
X222385I-4232J0D01*
G01*
X221441D01*
G75*
G02*
X211795I-4823J0D01*
G01*
X210850D01*
G75*
G02*
X202385I-4232J0D01*
G01*
X200850D01*
G75*
G02*
X192385I-4232J0D01*
G01*
X190850D01*
G75*
G02*
X183275Y26263I-4232J0D01*
G01*
G37*
X262704Y24012D02*
G36*
X262704Y24012D02*
X256802Y18110D01*
X287504D01*
X287208Y18406D01*
X283570D01*
G75*
G02*
X282385Y18898I0J1672D01*
G01*
X280027Y21256D01*
G75*
G02*
X279535Y22441I1181J1185D01*
G01*
Y25793D01*
G75*
G02*
X272385Y28859I-2917J3066D01*
G01*
X270850D01*
G75*
G02*
X263196Y26367I-4232J0D01*
G01*
Y25197D01*
G75*
G02*
X262704Y24012I-1673J0D01*
G01*
G37*
X293118Y26479D02*
G36*
X293118Y26479D02*
Y21166D01*
X293807Y20477D01*
G75*
G02*
X294299Y19292I-1181J-1185D01*
G01*
Y18110D01*
X318999D01*
X321661Y20772D01*
Y28859D01*
X310850D01*
G75*
G02*
X302385I-4232J0D01*
G01*
X300850D01*
G75*
G02*
X293118Y26479I-4232J0D01*
G01*
G37*
X327665Y18500D02*
G36*
X327665Y18500D02*
X327275Y18110D01*
X331996D01*
G75*
G02*
X346957I7480J0D01*
G01*
X370053D01*
Y28859D01*
X328157D01*
Y19685D01*
G75*
G02*
X327665Y18500I-1673J0D01*
G01*
G37*
X10080Y38859D02*
G36*
X10080Y38859D02*
Y28859D01*
X112385D01*
G75*
G02*
X120850I4232J0D01*
G01*
X122385D01*
G75*
G02*
X130850I4232J0D01*
G01*
X132385D01*
G75*
G02*
X140850I4232J0D01*
G01*
X141795D01*
G75*
G02*
X151441I4823J0D01*
G01*
X152385D01*
G75*
G02*
X158393Y32701I4232J0D01*
G01*
X159850Y34158D01*
Y36126D01*
G75*
G02*
X152385Y38859I-3232J2732D01*
G01*
X150850D01*
G75*
G02*
X142385I-4232J0D01*
G01*
X140850D01*
G75*
G02*
X132385I-4232J0D01*
G01*
X130850D01*
G75*
G02*
X122385I-4232J0D01*
G01*
X121441D01*
G75*
G02*
X111795I-4823J0D01*
G01*
X10080D01*
G37*
X160630Y30206D02*
G36*
X160630Y30206D02*
G75*
G02*
X160850Y28859I-4022J-1348D01*
G01*
X161795D01*
G75*
G02*
X171441I4823J0D01*
G01*
X172385D01*
G75*
G02*
X179929Y31495I4232J0D01*
G01*
Y32788D01*
X177893Y34823D01*
G75*
G02*
X172385Y38859I-1275J4036D01*
G01*
X170850D01*
G75*
G02*
X163196Y36367I-4232J0D01*
G01*
Y33465D01*
G75*
G02*
X162704Y32280I-1673J0D01*
G01*
X160630Y30206D01*
G37*
X180850Y38857D02*
G36*
X180850Y38857D02*
G75*
G02*
X180430Y37019I-4228J0D01*
G01*
X182783Y34666D01*
G75*
G02*
X183275Y33481I-1181J-1185D01*
G01*
Y31455D01*
G75*
G02*
X190850Y28859I3343J-2596D01*
G01*
X192385D01*
G75*
G02*
X200850I4232J0D01*
G01*
X202385D01*
G75*
G02*
X210850I4232J0D01*
G01*
X211795D01*
G75*
G02*
X221441I4823J0D01*
G01*
X222385D01*
G75*
G02*
X230850I4232J0D01*
G01*
X232385D01*
G75*
G02*
X240850I4232J0D01*
G01*
X241795D01*
G75*
G02*
X250007Y32289I4823J0D01*
G01*
Y36324D01*
G75*
G02*
X242385Y38859I-3390J2534D01*
G01*
X240850D01*
G75*
G02*
X232385I-4232J0D01*
G01*
X230850D01*
G75*
G02*
X222385I-4232J0D01*
G01*
X220850D01*
G75*
G02*
X212385I-4232J0D01*
G01*
X210850D01*
G75*
G02*
X202385I-4232J0D01*
G01*
X200850D01*
G75*
G02*
X192385I-4232J0D01*
G01*
X191441D01*
G75*
G02*
X181795I-4823J0D01*
G01*
X180850D01*
G75*
G02*
Y38857I-4511J0D01*
G01*
G37*
X263196Y35459D02*
G36*
X263196Y35459D02*
Y31350D01*
G75*
G02*
X270850Y28859I3421J-2491D01*
G01*
X272385D01*
G75*
G02*
X279535Y31925I4232J0D01*
G01*
Y35793D01*
G75*
G02*
X272385Y38859I-2917J3066D01*
G01*
X271441D01*
G75*
G02*
X263196Y35459I-4823J0D01*
G01*
G37*
X293118Y36479D02*
G36*
X293118Y36479D02*
Y31238D01*
G75*
G02*
X300850Y28859I3500J-2380D01*
G01*
X302385D01*
G75*
G02*
X310850I4232J0D01*
G01*
X321661D01*
Y38859D01*
X310850D01*
G75*
G02*
X302385I-4232J0D01*
G01*
X300850D01*
G75*
G02*
X293118Y36479I-4232J0D01*
G01*
G37*
X328157Y38678D02*
G36*
X328157Y38678D02*
Y28859D01*
X370053D01*
Y38859D01*
X355015D01*
G75*
G02*
X355028Y38583I-2944J-277D01*
G01*
G75*
G02*
X349122I-2953J0D01*
G01*
G75*
G02*
X349135Y38859I2957J-1D01*
G01*
X328338D01*
X328157Y38678D01*
G37*
X10080Y49409D02*
G36*
X10080Y49409D02*
Y38859D01*
X111795D01*
G75*
G02*
X121441I4823J0D01*
G01*
X122385D01*
G75*
G02*
X130850I4232J0D01*
G01*
X132385D01*
G75*
G02*
X140850I4232J0D01*
G01*
X142385D01*
G75*
G02*
X150850I4232J0D01*
G01*
X152385D01*
G75*
G02*
X159850Y41591I4232J0D01*
G01*
Y49409D01*
X64082D01*
G75*
G02*
X57783I-3150J0D01*
G01*
X10080D01*
G37*
X163196D02*
G36*
X163196Y49409D02*
Y41350D01*
G75*
G02*
X170850Y38859I3421J-2491D01*
G01*
X172385D01*
G75*
G02*
X180850I4232J0D01*
G01*
X181795D01*
G75*
G02*
X191441I4823J0D01*
G01*
X192385D01*
G75*
G02*
X200850I4232J0D01*
G01*
X202385D01*
G75*
G02*
X210850I4232J0D01*
G01*
X212385D01*
G75*
G02*
X220850I4232J0D01*
G01*
X222385D01*
G75*
G02*
X230850I4232J0D01*
G01*
X232385D01*
G75*
G02*
X240850I4232J0D01*
G01*
X242385D01*
G75*
G02*
X250007Y41393I4232J0D01*
G01*
Y43701D01*
G75*
G02*
X250500Y44886I1673J0D01*
G01*
X251583Y45969D01*
Y49409D01*
X163196D01*
G37*
X263196D02*
G36*
X263196Y49409D02*
Y42258D01*
G75*
G02*
X271441Y38859I3421J-3399D01*
G01*
X272385D01*
G75*
G02*
X274944Y42746I4232J0D01*
G01*
Y49409D01*
X263196D01*
G37*
X278291D02*
G36*
X278291Y49409D02*
Y42746D01*
G75*
G02*
X279535Y41925I-1680J-3898D01*
G01*
Y42914D01*
G75*
G02*
X280027Y44099I1673J0D01*
G01*
X281992Y46063D01*
G75*
G02*
X283177Y46556I1185J-1180D01*
G01*
X294984D01*
G75*
G02*
X296171Y46065I3J-1674D01*
G01*
X297746Y44491D01*
G75*
G02*
X298236Y43307I-1185J-1184D01*
G01*
Y43307D01*
Y43304D01*
Y42769D01*
G75*
G02*
X300850Y38859I-1618J-3911D01*
G01*
X302385D01*
G75*
G02*
X310850I4232J0D01*
G01*
X321661D01*
Y40158D01*
G75*
G02*
X322153Y41343I1673J0D01*
G01*
X325693Y44882D01*
G75*
G02*
X326878Y45374I1185J-1180D01*
G01*
X351776D01*
X355811Y49409D01*
X332980D01*
G75*
G02*
X326681I-3150J0D01*
G01*
X319042D01*
G75*
G02*
X315028I-2007J2166D01*
G01*
X278291D01*
G37*
X329539Y40059D02*
G36*
X329539Y40059D02*
X328338Y38859D01*
X349135D01*
G75*
G02*
X349518Y40059I2944J-277D01*
G01*
X329539D01*
G37*
X354632D02*
G36*
X354632Y40059D02*
G75*
G02*
X355015Y38859I-2561J-1478D01*
G01*
X370053D01*
Y49409D01*
X363984D01*
Y48426D01*
G75*
G02*
X363492Y47241I-1673J0D01*
G01*
X356803Y40552D01*
G75*
G02*
X355618Y40059I-1185J1180D01*
G01*
X354632D01*
G37*
X10080Y64606D02*
G36*
X10080Y64606D02*
Y49409D01*
X57783D01*
G75*
G02*
X64082I3150J0D01*
G01*
X159850D01*
Y64606D01*
X121072D01*
G75*
G02*
X115783Y63681I-2856J749D01*
G01*
X78059D01*
G75*
G02*
X76874Y64174I0J1672D01*
G01*
X76441Y64606D01*
X46043D01*
G75*
G02*
X41572I-2235J1929D01*
G01*
X31319D01*
G75*
G02*
X26398I-2461J0D01*
G01*
X10080D01*
G37*
X163196D02*
G36*
X163196Y64606D02*
Y49409D01*
X251583D01*
Y59378D01*
G75*
G02*
X250632Y60458I1676J2435D01*
G01*
G75*
G02*
X250696Y59844I-2890J-614D01*
G01*
G75*
G02*
Y59843I-4101J0D01*
G01*
G75*
G02*
X244793Y59744I-2953J0D01*
G01*
X232393D01*
G75*
G02*
X231206Y60235I-3J1674D01*
G01*
X228450Y62991D01*
G75*
G02*
X227960Y64174I1185J1184D01*
G01*
Y64174D01*
Y64177D01*
Y64606D01*
X163196D01*
G37*
X263196Y52042D02*
G36*
X263196Y52042D02*
Y49409D01*
X274944D01*
Y64606D01*
X267133D01*
Y56370D01*
G75*
G02*
X268413Y53937I-1674J-2433D01*
G01*
G75*
G02*
X263196Y52042I-2953J0D01*
G01*
G37*
Y64606D02*
G36*
X263196Y64606D02*
Y55833D01*
G75*
G02*
X263787Y56370I2281J-1913D01*
G01*
Y64606D01*
X263196D01*
G37*
X278291Y64268D02*
G36*
X278291Y64268D02*
Y49409D01*
X315028D01*
G75*
G02*
X314082Y51575I2007J2166D01*
G01*
G75*
G02*
X317573Y54479I2953J0D01*
G01*
X318215Y55120D01*
G75*
G02*
X319399Y55610I1182J-1182D01*
G01*
X322464D01*
G75*
G02*
X320053Y60236I3233J4626D01*
G01*
Y64606D01*
X278629D01*
X278291Y64268D01*
G37*
X319988Y51575D02*
G36*
X319988Y51575D02*
G75*
G02*
X319042Y49409I-2953J0D01*
G01*
X326681D01*
G75*
G02*
X328499Y52264I3150J0D01*
G01*
X320091D01*
X319939Y52112D01*
G75*
G02*
X319988Y51578I-2875J-534D01*
G01*
G75*
G02*
Y51575I-2942J-1D01*
G01*
G37*
X331162Y52264D02*
G36*
X331162Y52264D02*
G75*
G02*
X332980Y49409I-1332J-2855D01*
G01*
X355811D01*
X356307Y49906D01*
Y64606D01*
X348630D01*
Y56696D01*
Y56694D01*
Y56693D01*
G75*
G02*
X348140Y55510I-1676J1D01*
G01*
X345384Y52754D01*
G75*
G02*
X344197Y52264I-1183J1184D01*
G01*
X331162D01*
G37*
X363984Y64606D02*
G36*
X363984Y64606D02*
Y49409D01*
X370053D01*
Y64606D01*
X363984D01*
G37*
X10080Y78150D02*
G36*
X10080Y78150D02*
Y64606D01*
X26398D01*
G75*
G02*
X31319I2461J0D01*
G01*
X41572D01*
G75*
G02*
X40854Y66535I2235J1929D01*
G01*
G75*
G02*
X46760I2953J0D01*
G01*
G75*
G02*
X46043Y64606I-2953J0D01*
G01*
X76441D01*
X73728Y67319D01*
G75*
G02*
X73236Y68504I1181J1185D01*
G01*
Y78150D01*
X72009D01*
G75*
G02*
X72350Y76772I-2612J-1378D01*
G01*
G75*
G02*
X66445I-2953J0D01*
G01*
G75*
G02*
X66786Y78150I2954J0D01*
G01*
X61819D01*
Y74213D01*
X51189D01*
Y78150D01*
X26583D01*
Y73622D01*
X14772D01*
Y78150D01*
X10080D01*
G37*
X76583D02*
G36*
X76583Y78150D02*
Y69197D01*
X78752Y67028D01*
X83177D01*
G75*
G02*
X82779Y67323I780J1465D01*
G01*
X77272Y72831D01*
G75*
G02*
X76780Y74016I1181J1185D01*
G01*
Y78150D01*
X76583D01*
G37*
X80126D02*
G36*
X80126Y78150D02*
Y74709D01*
X84657Y70178D01*
X88294D01*
G75*
G02*
X87898Y70472I785J1471D01*
G01*
X83571Y74799D01*
G75*
G02*
X83079Y75984I1181J1185D01*
G01*
Y78150D01*
X80126D01*
G37*
X86425D02*
G36*
X86425Y78150D02*
Y76677D01*
X89776Y73327D01*
X98854Y73327D01*
G75*
G02*
X104240Y71654I2433J-1673D01*
G01*
G75*
G02*
X103844Y70178I-2953J0D01*
G01*
X105941D01*
G75*
G02*
X111326Y68505I2433J-1673D01*
G01*
G75*
G02*
X110931Y67028I-2953J0D01*
G01*
X115783D01*
G75*
G02*
X121169Y65355I2433J-1674D01*
G01*
G75*
G02*
X121072Y64606I-2953J0D01*
G01*
X159850D01*
Y78150D01*
X142087D01*
G75*
G02*
X142429Y76772I-2611J-1378D01*
G01*
G75*
G02*
X136523I-2953J0D01*
G01*
G75*
G02*
X136865Y78150I2953J0D01*
G01*
X86425D01*
G37*
X163196D02*
G36*
X163196Y78150D02*
Y64606D01*
X227960D01*
Y69780D01*
X226972Y70768D01*
X179704D01*
G75*
G02*
X174319Y72441I-2433J1674D01*
G01*
G75*
G02*
X179704Y74115I2953J0D01*
G01*
X190161D01*
X186126Y78150D01*
X163196D01*
G37*
X234456Y72398D02*
G36*
X234456Y72398D02*
Y67229D01*
X235051Y66634D01*
X238618D01*
G75*
G02*
X243733Y66196I2433J-1673D01*
G01*
G75*
G02*
X247100Y68258I2830J-842D01*
G01*
X247740Y68898D01*
G75*
G02*
X248925Y69390I1185J-1180D01*
G01*
X259161D01*
G75*
G02*
X260346Y68898I0J-1672D01*
G01*
X262704Y66540D01*
G75*
G02*
X263196Y65355I-1181J-1185D01*
G01*
Y64606D01*
X263787D01*
Y66930D01*
G75*
G02*
X264279Y68115I1673J0D01*
G01*
X268606Y72441D01*
G75*
G02*
X269791Y72933I1185J-1180D01*
G01*
X282484D01*
X287015Y77465D01*
Y78150D01*
X235346D01*
X236168Y77328D01*
G75*
G02*
X239570Y74410I450J-2919D01*
G01*
Y74409D01*
G75*
G02*
X234456Y72398I-2953J0D01*
G01*
G37*
X267133Y66237D02*
G36*
X267133Y66237D02*
Y64606D01*
X274944D01*
Y64961D01*
G75*
G02*
X275437Y66146I1673J0D01*
G01*
X278582Y69292D01*
G75*
G02*
X278980Y69587I1177J-1170D01*
G01*
X270484D01*
X267133Y66237D01*
G37*
X280460Y66437D02*
G36*
X280460Y66437D02*
X278629Y64606D01*
X320053D01*
Y78150D01*
X293118D01*
Y72441D01*
G75*
G02*
X292626Y71256I-1673J0D01*
G01*
X288299Y66930D01*
G75*
G02*
X287114Y66437I-1185J1180D01*
G01*
X280460D01*
G37*
X348630Y78150D02*
G36*
X348630Y78150D02*
Y64606D01*
X356307D01*
Y78150D01*
X348630D01*
G37*
X363984D02*
G36*
X363984Y78150D02*
Y64606D01*
X370053D01*
Y78150D01*
X363984D01*
G37*
X10080Y81890D02*
G36*
X10080Y81890D02*
Y78150D01*
X14772D01*
Y81890D01*
X10080D01*
G37*
X26583D02*
G36*
X26583Y81890D02*
Y78150D01*
X51189D01*
Y81890D01*
X26583D01*
G37*
X61819D02*
G36*
X61819Y81890D02*
Y78150D01*
X66786D01*
G75*
G02*
X67724Y79205I2612J-1378D01*
G01*
Y81890D01*
X61819D01*
G37*
X71071D02*
G36*
X71071Y81890D02*
Y79205D01*
G75*
G02*
X72009Y78150I-1674J-2433D01*
G01*
X73236D01*
Y81890D01*
X71071D01*
G37*
X76583D02*
G36*
X76583Y81890D02*
Y78150D01*
X76780D01*
Y81890D01*
X76583D01*
G37*
X80126D02*
G36*
X80126Y81890D02*
Y78150D01*
X83079D01*
Y81890D01*
X80126D01*
G37*
X86425D02*
G36*
X86425Y81890D02*
Y78150D01*
X136865D01*
G75*
G02*
X142087I2611J-1378D01*
G01*
X159850D01*
Y81890D01*
X86425D01*
G37*
X163196D02*
G36*
X163196Y81890D02*
Y78150D01*
X186126D01*
X182385Y81890D01*
X163196D01*
G37*
X192630D02*
G36*
X192630Y81890D02*
X195681Y78839D01*
X233961D01*
G75*
G02*
X235147Y78348I3J-1674D01*
G01*
X235346Y78150D01*
X287015D01*
Y81890D01*
X256209D01*
G75*
G02*
X250303I-2953J0D01*
G01*
X216913D01*
G75*
G02*
X214795I-1059J2756D01*
G01*
X192630D01*
G37*
X293118D02*
G36*
X293118Y81890D02*
Y78150D01*
X320053D01*
Y81890D01*
X293118D01*
G37*
X348630D02*
G36*
X348630Y81890D02*
Y78150D01*
X356307D01*
Y81890D01*
X348630D01*
G37*
X363984D02*
G36*
X363984Y81890D02*
Y78150D01*
X370053D01*
Y81890D01*
X363984D01*
G37*
X10080Y87362D02*
G36*
X10080Y87362D02*
Y81890D01*
X14772D01*
Y82677D01*
X26583D01*
Y81890D01*
X51189D01*
Y82087D01*
X61819D01*
Y81890D01*
X67724D01*
Y87362D01*
X45972D01*
G75*
G02*
X41642I-2165J2008D01*
G01*
X31319D01*
G75*
G02*
X26398I-2461J0D01*
G01*
X10080D01*
G37*
X71071D02*
G36*
X71071Y87362D02*
Y81890D01*
X73236D01*
Y87362D01*
X71071D01*
G37*
X76583D02*
G36*
X76583Y87362D02*
Y81890D01*
X76780D01*
Y87362D01*
X76583D01*
G37*
X80126D02*
G36*
X80126Y87362D02*
Y81890D01*
X83079D01*
Y87362D01*
X80126D01*
G37*
X86425D02*
G36*
X86425Y87362D02*
Y81890D01*
X159850D01*
Y87362D01*
X86425D01*
G37*
X163196D02*
G36*
X163196Y87362D02*
Y81890D01*
X182385D01*
X177021Y87254D01*
G75*
G02*
X175533Y87362I-537J2903D01*
G01*
X163196D01*
G37*
X187157D02*
G36*
X187157Y87362D02*
X192630Y81890D01*
X214795D01*
G75*
G02*
X212901Y84646I1059J2756D01*
G01*
G75*
G02*
Y84649I3096J2D01*
G01*
G75*
G02*
X212974Y85299I2937J0D01*
G01*
X210911Y87362D01*
X187157D01*
G37*
X218807Y84646D02*
G36*
X218807Y84646D02*
G75*
G02*
X216913Y81890I-2953J0D01*
G01*
X250303D01*
G75*
G02*
X256209I2953J0D01*
G01*
X287015D01*
Y87362D01*
X217013D01*
G75*
G02*
X218807Y84646I-1159J-2716D01*
G01*
Y84646D01*
G37*
X293118Y87362D02*
G36*
X293118Y87362D02*
Y81890D01*
X320053D01*
Y87362D01*
X293118D01*
G37*
X348630D02*
G36*
X348630Y87362D02*
Y81890D01*
X356307D01*
Y87362D01*
X348630D01*
G37*
X363984D02*
G36*
X363984Y87362D02*
Y81890D01*
X370053D01*
Y87362D01*
X363984D01*
G37*
X10080Y95866D02*
G36*
X10080Y95866D02*
Y87362D01*
X26398D01*
G75*
G02*
X31319I2461J0D01*
G01*
X41642D01*
G75*
G02*
X40854Y89370I2165J2008D01*
G01*
G75*
G02*
X46760I2953J0D01*
G01*
G75*
G02*
X45972Y87362I-2953J0D01*
G01*
X67724D01*
Y94583D01*
X66441Y95866D01*
X61819D01*
Y91929D01*
X51189D01*
Y95866D01*
X25992D01*
Y91929D01*
X15362D01*
Y95866D01*
X10080D01*
G37*
X71071Y95276D02*
G36*
X71071Y95276D02*
Y87362D01*
X73236D01*
Y95866D01*
X70963D01*
G75*
G02*
X71071Y95276I-1565J-590D01*
G01*
G37*
X76583Y95866D02*
G36*
X76583Y95866D02*
Y87362D01*
X76780D01*
Y95866D01*
X76583D01*
G37*
X80126D02*
G36*
X80126Y95866D02*
Y87362D01*
X83079D01*
Y95866D01*
X80126D01*
G37*
X86425D02*
G36*
X86425Y95866D02*
Y87362D01*
X159850D01*
Y90158D01*
G75*
G02*
X160342Y91343I1673J0D01*
G01*
X164865Y95866D01*
X86425D01*
G37*
X163196Y89465D02*
G36*
X163196Y89465D02*
Y87362D01*
X175533D01*
G75*
G02*
X173531Y90157I950J2795D01*
G01*
Y90158D01*
G75*
G02*
X178931Y91810I2953J0D01*
G01*
G75*
G02*
X184555Y90551I2671J-1259D01*
G01*
G75*
G02*
Y90549I-2942J-1D01*
G01*
G75*
G02*
X184506Y90014I-2933J0D01*
G01*
X187157Y87362D01*
X210911D01*
X210607Y87666D01*
G75*
G02*
X210146Y88780I1114J1114D01*
G01*
Y95866D01*
X169598D01*
X163196Y89465D01*
G37*
X213295Y95866D02*
G36*
X213295Y95866D02*
Y89432D01*
X215201Y87526D01*
G75*
G02*
X217013Y87362I653J-2880D01*
G01*
X287015D01*
Y95866D01*
X213295D01*
G37*
X293118D02*
G36*
X293118Y95866D02*
Y87362D01*
X320053D01*
Y95866D01*
X293118D01*
G37*
X348630D02*
G36*
X348630Y95866D02*
Y87362D01*
X356307D01*
Y95866D01*
X348630D01*
G37*
X363984D02*
G36*
X363984Y95866D02*
Y87362D01*
X370053D01*
Y95866D01*
X363984D01*
G37*
X10080Y103937D02*
G36*
X10080Y103937D02*
Y95866D01*
X15362D01*
Y99803D01*
X19591D01*
X22543Y102756D01*
G75*
G02*
X23728Y103248I1185J-1180D01*
G01*
X63098D01*
G75*
G02*
X64283Y102756I0J-1672D01*
G01*
X70579Y96461D01*
G75*
G02*
X70963Y95866I-1180J-1185D01*
G01*
X73236D01*
Y103937D01*
X10080D01*
G37*
X24421Y99902D02*
G36*
X24421Y99902D02*
X24323Y99803D01*
X25992D01*
Y95866D01*
X51189D01*
Y99803D01*
X61819D01*
Y95866D01*
X66441D01*
X62406Y99902D01*
X24421D01*
G37*
X76583Y103937D02*
G36*
X76583Y103937D02*
Y95866D01*
X76780D01*
Y103937D01*
X76583D01*
G37*
X80126D02*
G36*
X80126Y103937D02*
Y95866D01*
X83079D01*
Y103937D01*
X80126D01*
G37*
X86425D02*
G36*
X86425Y103937D02*
Y95866D01*
X164865D01*
X171267Y102268D01*
Y103937D01*
X107346D01*
G75*
G02*
X101441I-2953J0D01*
G01*
X86425D01*
G37*
X174122Y100390D02*
G36*
X174122Y100390D02*
X169598Y95866D01*
X210146D01*
Y97109D01*
G75*
G02*
X208768Y99606I1574J2497D01*
G01*
Y99607D01*
G75*
G02*
X214673I2953J0D01*
G01*
Y99606D01*
G75*
G02*
X213295Y97109I-2952J0D01*
G01*
Y95866D01*
X287015D01*
Y103937D01*
X174614D01*
Y101575D01*
G75*
G02*
X174122Y100390I-1673J0D01*
G01*
G37*
X293118Y103937D02*
G36*
X293118Y103937D02*
Y95866D01*
X320053D01*
Y103937D01*
X293118D01*
G37*
X348630Y101898D02*
G36*
X348630Y101898D02*
Y95866D01*
X356307D01*
Y103937D01*
X349883D01*
G75*
G02*
X348630Y101898I-2927J394D01*
G01*
G37*
X363984Y100717D02*
G36*
X363984Y100717D02*
Y95866D01*
X370053D01*
Y103937D01*
X365157D01*
G75*
G02*
X365264Y103150I-2846J-788D01*
G01*
G75*
G02*
X363984Y100717I-2953J0D01*
G01*
G37*
X10080Y110630D02*
G36*
X10080Y110630D02*
Y103937D01*
X73236D01*
Y110630D01*
X10080D01*
G37*
X76583D02*
G36*
X76583Y110630D02*
Y103937D01*
X76780D01*
Y110630D01*
X76583D01*
G37*
X80126D02*
G36*
X80126Y110630D02*
Y103937D01*
X83079D01*
Y110630D01*
X80126D01*
G37*
X86425D02*
G36*
X86425Y110630D02*
Y103937D01*
X101441D01*
G75*
G02*
X107346I2953J0D01*
G01*
X171267D01*
Y110630D01*
X86425D01*
G37*
X174614D02*
G36*
X174614Y110630D02*
Y103937D01*
X287015D01*
Y110630D01*
X247154D01*
G75*
G02*
X241248I-2953J0D01*
G01*
X174614D01*
G37*
X293118D02*
G36*
X293118Y110630D02*
Y103937D01*
X320053D01*
Y110630D01*
X293118D01*
G37*
X345120D02*
G36*
X345120Y110630D02*
Y106643D01*
G75*
G02*
X349909Y104331I1837J-2312D01*
G01*
G75*
G02*
X349883Y103937I-2954J0D01*
G01*
X356307D01*
Y110630D01*
X346965D01*
G75*
G02*
X346948I-9J3545D01*
G01*
X345120D01*
G37*
X359654D02*
G36*
X359654Y110630D02*
Y104437D01*
G75*
G02*
X365157Y103937I2657J-1287D01*
G01*
X370053D01*
Y110630D01*
X359654D01*
G37*
X10080Y117520D02*
G36*
X10080Y117520D02*
Y110630D01*
X73236D01*
Y117520D01*
X61819D01*
Y113583D01*
X51189D01*
Y117520D01*
X26583D01*
Y112992D01*
X14772D01*
Y117520D01*
X10080D01*
G37*
X76583D02*
G36*
X76583Y117520D02*
Y110630D01*
X76780D01*
Y117520D01*
X76583D01*
G37*
X80126D02*
G36*
X80126Y117520D02*
Y110630D01*
X83079D01*
Y117520D01*
X80126D01*
G37*
X86425D02*
G36*
X86425Y117520D02*
Y110630D01*
X171267D01*
Y117520D01*
X86425D01*
G37*
X174614D02*
G36*
X174614Y117520D02*
Y110630D01*
X241248D01*
G75*
G02*
X247154I2953J0D01*
G01*
X287015D01*
Y117520D01*
X174614D01*
G37*
X293118D02*
G36*
X293118Y117520D02*
Y110630D01*
X320053D01*
Y117520D01*
X293118D01*
G37*
X345120Y111143D02*
G36*
X345120Y111143D02*
Y110630D01*
X346948D01*
G75*
G02*
X345120Y111143I9J3543D01*
G01*
G37*
X349390Y117224D02*
G36*
X349390Y117224D02*
G75*
G02*
X349169Y116941I-2431J1672D01*
G01*
G75*
G02*
X350500Y114173I-2212J-2768D01*
G01*
G75*
G02*
X346965Y110630I-3544J0D01*
G01*
X356307D01*
Y113087D01*
X352169Y117224D01*
X349390D01*
G37*
X356606Y117520D02*
G36*
X356606Y117520D02*
X359161Y114965D01*
G75*
G02*
X359654Y113780I-1181J-1185D01*
G01*
Y110630D01*
X370053D01*
Y117520D01*
X356606D01*
G37*
X10080Y121654D02*
G36*
X10080Y121654D02*
Y117520D01*
X14772D01*
Y121654D01*
X10080D01*
G37*
X26583D02*
G36*
X26583Y121654D02*
Y117520D01*
X51189D01*
Y121457D01*
X61819D01*
Y117520D01*
X73236D01*
Y121654D01*
X26583D01*
G37*
X76583D02*
G36*
X76583Y121654D02*
Y117520D01*
X76780D01*
Y121654D01*
X76583D01*
G37*
X80126D02*
G36*
X80126Y121654D02*
Y117520D01*
X83079D01*
Y121654D01*
X80126D01*
G37*
X86425D02*
G36*
X86425Y121654D02*
Y117520D01*
X171267D01*
Y121654D01*
X95078D01*
G75*
G02*
X95185Y120866I-2846J-788D01*
G01*
G75*
G02*
X89280I-2953J0D01*
G01*
G75*
G02*
X89387Y121654I2954J-1D01*
G01*
X86425D01*
G37*
X174614D02*
G36*
X174614Y121654D02*
Y117520D01*
X287015D01*
Y121654D01*
X244398D01*
G75*
G02*
X238492I-2953J0D01*
G01*
X174614D01*
G37*
X293118D02*
G36*
X293118Y121654D02*
Y117520D01*
X320053D01*
Y121654D01*
X293118D01*
G37*
X345120D02*
G36*
X345120Y121654D02*
Y121210D01*
G75*
G02*
X345896Y121654I1837J-2312D01*
G01*
X345120D01*
G37*
X348017D02*
G36*
X348017Y121654D02*
G75*
G02*
X349390Y120571I-1061J-2756D01*
G01*
X352862D01*
G75*
G02*
X354047Y120079I0J-1672D01*
G01*
X356606Y117520D01*
X370053D01*
Y121654D01*
X348017D01*
G37*
X10080Y130315D02*
G36*
X10080Y130315D02*
Y121654D01*
X14772D01*
Y122047D01*
X26583D01*
Y121654D01*
X73236D01*
Y122142D01*
X71461Y123917D01*
X21858D01*
G75*
G02*
X20673Y124409I0J1672D01*
G01*
X19496Y125587D01*
G75*
G02*
X19010Y126632I1178J1184D01*
G01*
G75*
G02*
X17626Y129134I1569J2502D01*
G01*
G75*
G02*
X17872Y130315I2953J0D01*
G01*
X10080D01*
G37*
X23531Y129134D02*
G36*
X23531Y129134D02*
G75*
G02*
X22864Y127264I-2953J0D01*
G01*
X72150D01*
G75*
G02*
X73337Y126774I3J-1674D01*
G01*
X76093Y124018D01*
G75*
G02*
X76583Y122835I-1185J-1184D01*
G01*
Y122834D01*
Y122831D01*
Y121654D01*
X76780D01*
Y126410D01*
Y126421D01*
Y126421D01*
G75*
G02*
X76823Y126800I1697J-3D01*
G01*
Y130315D01*
X68807D01*
G75*
G02*
X62902I-2953J0D01*
G01*
X23285D01*
G75*
G02*
X23531Y129134I-2707J-1181D01*
G01*
G37*
X80126Y126086D02*
G36*
X80126Y126086D02*
Y121654D01*
X83079D01*
Y130315D01*
X80169D01*
Y126476D01*
Y126465D01*
Y126465D01*
G75*
G02*
X80126Y126086I-1697J3D01*
G01*
G37*
X86425Y130315D02*
G36*
X86425Y130315D02*
Y121654D01*
X89387D01*
G75*
G02*
X90559Y123299I2846J-787D01*
G01*
Y130315D01*
X86425D01*
G37*
X93906D02*
G36*
X93906Y130315D02*
Y123299D01*
G75*
G02*
X95078Y121654I-1674J-2433D01*
G01*
X171267D01*
Y130315D01*
X93906D01*
G37*
X174614D02*
G36*
X174614Y130315D02*
Y121654D01*
X238492D01*
G75*
G02*
X244398I2953J0D01*
G01*
X287015D01*
Y130315D01*
X174614D01*
G37*
X293118D02*
G36*
X293118Y130315D02*
Y121654D01*
X320053D01*
Y130315D01*
X293118D01*
G37*
X345120D02*
G36*
X345120Y130315D02*
Y121654D01*
X345896D01*
G75*
G02*
X348017I1061J-2756D01*
G01*
X370053D01*
Y130315D01*
X345120D01*
G37*
X10080Y135236D02*
G36*
X10080Y135236D02*
Y130315D01*
X17872D01*
G75*
G02*
X18571Y131299I2707J-1181D01*
G01*
X15362D01*
Y135236D01*
X10080D01*
G37*
X22586Y131299D02*
G36*
X22586Y131299D02*
G75*
G02*
X23285Y130315I-2008J-2166D01*
G01*
X62902D01*
G75*
G02*
X68807I2953J0D01*
G01*
X76823D01*
Y135236D01*
X61819D01*
Y131299D01*
X51189D01*
Y135236D01*
X25992D01*
Y131299D01*
X22586D01*
G37*
X80169Y135236D02*
G36*
X80169Y135236D02*
Y130315D01*
X83079D01*
Y135236D01*
X80169D01*
G37*
X86425D02*
G36*
X86425Y135236D02*
Y130315D01*
X90559D01*
Y135236D01*
X86425D01*
G37*
X93906D02*
G36*
X93906Y135236D02*
Y130315D01*
X171267D01*
Y133788D01*
G75*
G02*
X170157Y135236I1674J2433D01*
G01*
X93906D01*
G37*
X174614Y133788D02*
G36*
X174614Y133788D02*
Y130315D01*
X287015D01*
Y135236D01*
X175724D01*
G75*
G02*
X174614Y133788I-2784J985D01*
G01*
G37*
X293118Y135236D02*
G36*
X293118Y135236D02*
Y130315D01*
X320053D01*
Y135236D01*
X293118D01*
G37*
X345120D02*
G36*
X345120Y135236D02*
Y130315D01*
X370053D01*
Y135236D01*
X345120D01*
G37*
X10080Y144094D02*
G36*
X10080Y144094D02*
Y135236D01*
X15362D01*
Y139173D01*
X25992D01*
Y135236D01*
X51189D01*
Y139173D01*
X61819D01*
Y135236D01*
X76823D01*
Y144094D01*
X10080D01*
G37*
X80169D02*
G36*
X80169Y144094D02*
Y135236D01*
X83079D01*
Y144094D01*
X80169D01*
G37*
X86425D02*
G36*
X86425Y144094D02*
Y135236D01*
X90559D01*
Y136220D01*
G75*
G02*
X91051Y137406I1673J0D01*
G01*
X94890Y141244D01*
Y144094D01*
X94398D01*
G75*
G02*
X88492I-2953J0D01*
G01*
X86425D01*
G37*
X93906Y135528D02*
G36*
X93906Y135528D02*
Y135236D01*
X170157D01*
G75*
G02*
X169988Y136221I2785J984D01*
G01*
G75*
G02*
X175893I2953J0D01*
G01*
G75*
G02*
X175724Y135236I-2954J0D01*
G01*
X287015D01*
Y144094D01*
X98236D01*
Y140551D01*
G75*
G02*
X97744Y139366I-1673J0D01*
G01*
X93906Y135528D01*
G37*
X293118Y144094D02*
G36*
X293118Y144094D02*
Y135236D01*
X320053D01*
Y144094D01*
X293118D01*
G37*
X345120D02*
G36*
X345120Y144094D02*
Y135236D01*
X370053D01*
Y144094D01*
X345120D01*
G37*
X10080Y156890D02*
G36*
X10080Y156890D02*
Y144094D01*
X76823D01*
Y155441D01*
G75*
G02*
X76063Y156201I1674J2434D01*
G01*
X74165D01*
G75*
G02*
X72980Y156693I0J1672D01*
G01*
X72783Y156890D01*
X61819D01*
Y152953D01*
X51189D01*
Y156890D01*
X26583D01*
Y152362D01*
X14772D01*
Y156890D01*
X10080D01*
G37*
X80169Y155441D02*
G36*
X80169Y155441D02*
Y144094D01*
X83079D01*
Y156890D01*
X81280D01*
G75*
G02*
X80169Y155441I-2784J984D01*
G01*
G37*
X86425Y156890D02*
G36*
X86425Y156890D02*
Y144094D01*
X88492D01*
G75*
G02*
X94398I2953J0D01*
G01*
X94890D01*
Y153472D01*
G75*
G02*
X93610Y155906I1674J2433D01*
G01*
G75*
G02*
X93779Y156890I2953J0D01*
G01*
X86425D01*
G37*
X98236Y153472D02*
G36*
X98236Y153472D02*
Y144094D01*
X287015D01*
Y156890D01*
X99347D01*
G75*
G02*
X99516Y155906I-2784J-984D01*
G01*
G75*
G02*
X98236Y153472I-2953J0D01*
G01*
G37*
X293118Y156890D02*
G36*
X293118Y156890D02*
Y144094D01*
X320053D01*
Y156890D01*
X293118D01*
G37*
X345120D02*
G36*
X345120Y156890D02*
Y144094D01*
X370053D01*
Y156890D01*
X345120D01*
G37*
X10080Y162992D02*
G36*
X10080Y162992D02*
Y156890D01*
X14772D01*
Y161417D01*
X26583D01*
Y156890D01*
X51189D01*
Y160827D01*
X61819D01*
Y156890D01*
X72783D01*
X66681Y162992D01*
X10080D01*
G37*
X71413D02*
G36*
X71413Y162992D02*
X74858Y159547D01*
X76063D01*
G75*
G02*
X81449Y157874I2433J-1674D01*
G01*
G75*
G02*
X81280Y156890I-2954J0D01*
G01*
X83079D01*
Y162992D01*
X71413D01*
G37*
X86425D02*
G36*
X86425Y162992D02*
Y156890D01*
X93779D01*
G75*
G02*
X99347I2784J-984D01*
G01*
X287015D01*
Y162992D01*
X86425D01*
G37*
X293118D02*
G36*
X293118Y162992D02*
Y156890D01*
X320053D01*
Y162992D01*
X293118D01*
G37*
X345120D02*
G36*
X345120Y162992D02*
Y156890D01*
X370053D01*
Y162992D01*
X361720D01*
G75*
G02*
X355815I-2953J0D01*
G01*
X345120D01*
G37*
X10080Y174606D02*
G36*
X10080Y174606D02*
Y162992D01*
X66681D01*
X65992Y163681D01*
X39476D01*
G75*
G02*
X38291Y164173I0J1672D01*
G01*
X29531Y172933D01*
X25992D01*
Y170669D01*
X15362D01*
Y174606D01*
X10080D01*
G37*
X32591D02*
G36*
X32591Y174606D02*
X40169Y167028D01*
X66685D01*
G75*
G02*
X67870Y166535I0J-1672D01*
G01*
X71413Y162992D01*
X83079D01*
Y174606D01*
X61819D01*
Y170669D01*
X51189D01*
Y174606D01*
X32591D01*
G37*
X86425D02*
G36*
X86425Y174606D02*
Y162992D01*
X287015D01*
Y174606D01*
X246591D01*
G75*
G02*
X241023I-2784J984D01*
G01*
X86425D01*
G37*
X293118D02*
G36*
X293118Y174606D02*
Y162992D01*
X320053D01*
Y174606D01*
X293118D01*
G37*
X345120D02*
G36*
X345120Y174606D02*
Y162992D01*
X355815D01*
G75*
G02*
X361720I2953J0D01*
G01*
X370053D01*
Y174606D01*
X345120D01*
G37*
X10080Y182678D02*
G36*
X10080Y182678D02*
Y174606D01*
X15362D01*
Y178543D01*
X25992D01*
Y176280D01*
X30224D01*
G75*
G02*
X31409Y175787I0J-1672D01*
G01*
X32591Y174606D01*
X51189D01*
Y178543D01*
X61819D01*
Y174606D01*
X83079D01*
Y182678D01*
X10080D01*
G37*
X86425D02*
G36*
X86425Y182678D02*
Y174606D01*
X241023D01*
G75*
G02*
X240854Y175591I2784J984D01*
G01*
G75*
G02*
X246760I2953J0D01*
G01*
G75*
G02*
X246591Y174606I-2953J0D01*
G01*
X287015D01*
Y182678D01*
X273138D01*
G75*
G02*
X267232I-2953J0D01*
G01*
X166052D01*
G75*
G02*
X162507I-1772J2362D01*
G01*
X86425D01*
G37*
X293118D02*
G36*
X293118Y182678D02*
Y174606D01*
X320053D01*
Y182678D01*
X293118D01*
G37*
X345120D02*
G36*
X345120Y182678D02*
Y174606D01*
X370053D01*
Y182678D01*
X345120D01*
G37*
X10080Y188976D02*
G36*
X10080Y188976D02*
Y182678D01*
X83079D01*
Y187102D01*
X81205Y188976D01*
X10080D01*
G37*
X86425Y187795D02*
G36*
X86425Y187795D02*
Y182678D01*
X162507D01*
G75*
G02*
X161327Y185039I1772J2362D01*
G01*
G75*
G02*
X167232I2953J0D01*
G01*
G75*
G02*
X166052Y182678I-2953J0D01*
G01*
X267232D01*
G75*
G02*
X273138I2953J0D01*
G01*
X287015D01*
Y188976D01*
X108965D01*
G75*
G02*
X103059I-2953J0D01*
G01*
X85937D01*
G75*
G02*
X86425Y187795I-1185J-1181D01*
G01*
G37*
X293118Y188976D02*
G36*
X293118Y188976D02*
Y182678D01*
X320053D01*
Y188976D01*
X293118D01*
G37*
X345120D02*
G36*
X345120Y188976D02*
Y182678D01*
X370053D01*
Y188976D01*
X345120D01*
G37*
X10080Y196260D02*
G36*
X10080Y196260D02*
Y188976D01*
X81205D01*
X77665Y192516D01*
G75*
G02*
X77173Y193701I1181J1185D01*
G01*
Y196260D01*
X61819D01*
Y192323D01*
X51189D01*
Y196260D01*
X26583D01*
Y191732D01*
X14772D01*
Y196260D01*
X10080D01*
G37*
X80520D02*
G36*
X80520Y196260D02*
Y194394D01*
X85933Y188980D01*
G75*
G02*
X85937Y188976I-1185J-1189D01*
G01*
X103059D01*
G75*
G02*
X108965I2953J0D01*
G01*
X287015D01*
Y196260D01*
X80520D01*
G37*
X293118D02*
G36*
X293118Y196260D02*
Y188976D01*
X320053D01*
Y196260D01*
X293118D01*
G37*
X345120D02*
G36*
X345120Y196260D02*
Y188976D01*
X370053D01*
Y196260D01*
X345120D01*
G37*
X10080Y220079D02*
G36*
X10080Y220079D02*
Y196260D01*
X14772D01*
Y200787D01*
X26583D01*
Y196260D01*
X51189D01*
Y200197D01*
X61819D01*
Y196260D01*
X77173D01*
Y206988D01*
X37508D01*
G75*
G02*
X36323Y207480I0J1672D01*
G01*
X31500Y212303D01*
X25992D01*
Y210039D01*
X15362D01*
Y217913D01*
X25992D01*
Y215650D01*
X32193D01*
G75*
G02*
X33378Y215157I0J-1672D01*
G01*
X38201Y210335D01*
X51189D01*
Y217913D01*
X61819D01*
Y210335D01*
X96535D01*
G75*
G02*
X101921Y208661I2433J-1674D01*
G01*
G75*
G02*
X96535Y206988I-2953J0D01*
G01*
X80520D01*
Y196260D01*
X287015D01*
Y206788D01*
X283272Y210531D01*
X234035D01*
G75*
G02*
X228649Y212205I-2433J1673D01*
G01*
G75*
G02*
X228937Y213477I2953J0D01*
G01*
G75*
G02*
X224712Y216142I-1272J2665D01*
G01*
G75*
G02*
X230098Y217815I2953J0D01*
G01*
X287902D01*
G75*
G02*
X289087Y217323I0J-1672D01*
G01*
X292626Y213784D01*
G75*
G02*
X293118Y212599I-1181J-1185D01*
G01*
Y196260D01*
X320053D01*
Y220079D01*
X212508D01*
G75*
G02*
X206602I-2953J0D01*
G01*
X10080D01*
G37*
X345120D02*
G36*
X345120Y220079D02*
Y196260D01*
X370053D01*
Y220079D01*
X345120D01*
G37*
X10080Y224803D02*
G36*
X10080Y224803D02*
Y220079D01*
X206602D01*
G75*
G02*
X212508I2953J0D01*
G01*
X320053D01*
Y224803D01*
X160146D01*
G75*
G02*
X154240I-2953J0D01*
G01*
X10080D01*
G37*
X345120D02*
G36*
X345120Y224803D02*
Y220079D01*
X370053D01*
Y224803D01*
X345120D01*
G37*
X10080Y233859D02*
G36*
X10080Y233859D02*
Y224803D01*
X154240D01*
G75*
G02*
X160146I2953J0D01*
G01*
X320053D01*
Y233859D01*
X160146D01*
Y233858D01*
G75*
G02*
X154240I-2953J0D01*
G01*
Y233859D01*
X116838D01*
G75*
G02*
X114946Y231103I-2953J0D01*
G01*
G75*
G02*
X116838Y228348I-1059J-2755D01*
G01*
G75*
G02*
Y228347I-3759J0D01*
G01*
G75*
G02*
X110933I-2953J0D01*
G01*
G75*
G02*
Y228348I3759J0D01*
G01*
G75*
G02*
X112825Y231103I2952J0D01*
G01*
G75*
G02*
X110933Y233859I1060J2756D01*
G01*
X10080D01*
G37*
X345120D02*
G36*
X345120Y233859D02*
Y224803D01*
X370053D01*
Y233859D01*
X345120D01*
G37*
X10080Y242520D02*
G36*
X10080Y242520D02*
Y233859D01*
X110933D01*
G75*
G02*
X112825Y236615I2953J0D01*
G01*
G75*
G02*
X110933Y239370I1059J2755D01*
G01*
G75*
G02*
X116838Y239370I2953J1D01*
G01*
G75*
G02*
X114946Y236615I-2952J-1D01*
G01*
G75*
G02*
X116838Y233859I-1060J-2756D01*
G01*
X154240D01*
G75*
G02*
X160146I2953J0D01*
G01*
X320053D01*
Y242520D01*
X64076D01*
G75*
G02*
X57790I-3143J196D01*
G01*
X29240D01*
G75*
G02*
X14279I-7480J0D01*
G01*
X10080D01*
G37*
X345120D02*
G36*
X345120Y242520D02*
Y233859D01*
X370053D01*
Y242520D01*
X345120D01*
G37*
X10080Y252387D02*
G36*
X10080Y252387D02*
Y242520D01*
X14279D01*
G75*
G02*
X29240I7480J0D01*
G01*
X57790D01*
G75*
G02*
X57783Y242717I3144J199D01*
G01*
G75*
G02*
X64083I3150J0D01*
G01*
G75*
G02*
X64076Y242520I-3150J3D01*
G01*
X320053D01*
Y244488D01*
G75*
G02*
X325697Y250132I5644J0D01*
G01*
X339476D01*
G75*
G02*
X345120Y244488I0J-5644D01*
G01*
Y242520D01*
X370053D01*
Y252387D01*
X368241Y254199D01*
X11893D01*
X10080Y252387D01*
G37*
X211720Y99607D02*
Y88780D01*
X215854Y84646D01*
X282881Y25809D02*
Y23134D01*
X284263Y21752D01*
X287898D01*
G75*
G02*
X289084Y21262I3J-1673D01*
G01*
X289771Y20575D01*
Y25210D01*
G75*
G02*
X282881Y25809I-3154J3649D01*
G01*
G36*
X282881Y25809D02*
Y23134D01*
X284263Y21752D01*
X287898D01*
G75*
G02*
X289084Y21262I3J-1673D01*
G01*
X289771Y20575D01*
Y25210D01*
G75*
G02*
X282881Y25809I-3154J3649D01*
G01*
G37*
Y36870D02*
Y31908D01*
G75*
G02*
X289771Y32507I3736J-3050D01*
G01*
Y36036D01*
G75*
G02*
X282881Y36870I-3154J2823D01*
G01*
G36*
X282881Y36870D02*
Y31908D01*
G75*
G02*
X289771Y32507I3736J-3050D01*
G01*
Y36036D01*
G75*
G02*
X282881Y36870I-3154J2823D01*
G01*
G37*
D02*
D111*
X17035Y78150D02*
X14673D01*
X17035Y117520D02*
X14673D01*
X17035Y156890D02*
X14673D01*
X17035Y196260D02*
X14673D01*
X20677Y75886D02*
Y73524D01*
Y80413D02*
Y82776D01*
Y95866D02*
Y98524D01*
X23728Y101575D01*
X63098D01*
X69398Y95276D01*
Y76772D01*
X20677Y115256D02*
Y112894D01*
Y119783D02*
Y122146D01*
Y135236D02*
Y126772D01*
X21858Y125591D01*
X72154D01*
X74909Y122835D01*
Y68504D01*
X78059Y65355D01*
X118216D01*
X20677Y154626D02*
Y152264D01*
Y159154D02*
Y161516D01*
Y174606D02*
X30224D01*
X39476Y165354D01*
X66685D01*
X74165Y157874D01*
X78496D01*
X20677Y193996D02*
Y191634D01*
Y198524D02*
Y200886D01*
Y213976D02*
X32193D01*
X37508Y208661D01*
X78846D01*
X24319Y78150D02*
X26681D01*
X24319Y117520D02*
X26681D01*
X24319Y156890D02*
X26681D01*
X24319Y196260D02*
X26681D01*
X78496Y157874D02*
Y126465D01*
X78453Y126421D01*
Y74016D01*
X83964Y68504D01*
X108374D01*
X78846Y208661D02*
Y193701D01*
X84752Y187795D01*
Y75984D01*
X89083Y71654D01*
X101287D01*
X101287Y71654D01*
X92232Y120866D02*
Y136220D01*
X96563Y140551D01*
Y155906D01*
X98969Y208661D02*
X78846D01*
X114059Y38859D02*
X111696D01*
X116618Y36300D02*
Y33937D01*
Y41418D02*
Y43780D01*
X119177Y38859D02*
X121539D01*
X144059Y28859D02*
X141696D01*
X146618Y26300D02*
Y23937D01*
Y31418D02*
Y33780D01*
X149177Y28859D02*
X151539D01*
X156618D02*
X156917D01*
X161523Y33465D01*
Y90158D01*
X172941Y101575D01*
Y136221D01*
X164059Y28859D02*
X161696D01*
X166618Y26300D02*
Y23937D01*
Y31418D02*
Y33780D01*
X169177Y28859D02*
X171539D01*
X176484Y90158D02*
X191838Y74804D01*
X230815D01*
X232783Y72835D01*
Y66536D01*
X234358Y64961D01*
X241051D01*
X177271Y72441D02*
X227665D01*
X229633Y70473D01*
Y64174D01*
X232389Y61418D01*
X246169D01*
X247744Y59843D01*
X181602Y90551D02*
X194988Y77166D01*
X233964D01*
X236720Y74410D01*
X236618D01*
X184059Y38859D02*
X181696D01*
X186618Y36300D02*
Y33937D01*
Y41418D02*
Y43780D01*
X189177Y38859D02*
X191539D01*
X214059Y28859D02*
X211696D01*
X216618Y26300D02*
Y23937D01*
Y31418D02*
Y33780D01*
X219177Y28859D02*
X221539D01*
X227665Y216142D02*
X287902D01*
X291444Y212599D01*
Y72441D01*
X287114Y68111D01*
X279767D01*
X276618Y64961D01*
Y38859D01*
X231602Y212205D02*
X283965D01*
X288689Y207481D01*
Y76772D01*
X283177Y71260D01*
X269791D01*
X265460Y66930D01*
Y53937D01*
X244059Y28859D02*
X241696D01*
X246563Y65355D02*
Y65355D01*
X248925Y67717D01*
X259161D01*
X261523Y65355D01*
Y25197D01*
X253256Y16930D01*
X180027D01*
X176484Y20473D01*
Y28725D01*
X176618Y28859D01*
X246618Y26300D02*
Y23937D01*
Y31418D02*
Y33780D01*
X253256Y61811D02*
Y45276D01*
X251681Y43701D01*
Y22441D01*
X248531Y19292D01*
X185145D01*
X181602Y22835D01*
Y33481D01*
X176618Y38465D01*
Y38859D01*
X266618Y36300D02*
Y33937D01*
Y41418D02*
Y43780D01*
X269177Y38859D02*
X271539D01*
X285047Y12993D02*
X282685D01*
X286326Y12697D02*
Y10335D01*
Y13288D02*
Y15650D01*
X286618Y26300D02*
Y23937D01*
Y31418D02*
Y33780D01*
Y38859D02*
X289988D01*
X291444Y37402D01*
Y20473D01*
X292626Y19292D01*
Y14961D01*
Y11024D02*
X290263D01*
X289476Y11811D01*
Y18504D01*
X287901Y20079D01*
X283570D01*
X281208Y22441D01*
Y42914D01*
X283177Y44882D01*
X294988D01*
X296563Y43307D01*
Y38914D01*
X296618Y38859D01*
X292626Y14961D02*
X318216D01*
X323334Y20079D01*
Y40158D01*
X326878Y43701D01*
X352469D01*
X357980Y49213D01*
Y113780D01*
X352862Y118898D01*
X346957D01*
X297350Y11024D02*
X292626D01*
X346957Y104331D02*
Y56693D01*
X344201Y53937D01*
X319398D01*
X317036Y51575D01*
X317035D01*
X346957Y112894D02*
Y110531D01*
X348236Y114173D02*
X350598D01*
X362311Y103150D02*
Y48426D01*
X355618Y41733D01*
X328846D01*
X326484Y39370D01*
Y19685D01*
X317822Y11024D01*
X297350D01*
D02*
D112*
X17035Y67717D03*
X20579Y129134D03*
X22547Y11811D03*
Y27559D03*
X24122Y107874D03*
X30028Y32677D03*
Y120079D03*
X30421Y157087D03*
X30815Y196457D03*
X37508Y11811D03*
Y27559D03*
X39870Y61417D03*
X41445Y96457D03*
X43020Y14173D03*
Y25197D03*
X43413Y132283D03*
X43807Y66535D03*
Y89370D03*
X61130Y110630D03*
X64279Y14173D03*
Y26378D03*
Y33465D03*
Y39764D03*
Y45276D03*
X65460Y51969D03*
X65854Y130315D03*
X69398Y76772D03*
X69791Y14567D03*
X76878D03*
Y25984D03*
Y34252D03*
X77665Y171654D03*
X78496Y157874D03*
X82389Y20079D03*
Y39764D03*
Y45669D03*
Y50788D03*
X82783Y197244D03*
X88295Y52363D03*
X88295Y129134D03*
X91445Y144094D03*
X91838Y57481D03*
X92232Y120866D03*
X93020Y114567D03*
Y185433D03*
X96563Y155906D03*
X98969Y208661D03*
X101287Y71654D03*
X104394Y103937D03*
X106012Y188976D03*
X108374Y68504D03*
X108768Y112992D03*
X112311Y201575D03*
X113885Y228347D03*
Y233859D03*
Y239370D03*
X116642Y218898D03*
X118216Y65355D03*
X119398Y200000D03*
X122153Y47638D03*
X123728Y98031D03*
X125697Y157874D03*
Y212598D03*
X139476Y70079D03*
Y76772D03*
X148925Y167323D03*
X150894Y190157D03*
X156405Y14174D03*
X157193Y172441D03*
Y224803D03*
Y233858D03*
Y242913D03*
X161524Y118504D03*
Y157874D03*
X164280Y185039D03*
X172941Y136221D03*
X174122Y188976D03*
X176091Y229134D03*
X176484Y52363D03*
Y90158D03*
X177271Y72441D03*
X180028Y169685D03*
X181602Y90551D03*
X188689Y56693D03*
X191839Y173622D03*
X200894Y118504D03*
Y197244D03*
X209555Y220079D03*
Y243701D03*
X211720Y99607D03*
X213098Y208268D03*
X215854Y84646D03*
X217823Y103150D03*
X221563Y88976D03*
X224516Y152362D03*
Y165748D03*
Y178346D03*
X226090Y50000D03*
X227665Y216142D03*
X231602Y212205D03*
X236618Y74410D03*
X240264Y79134D03*
Y157874D03*
X241051Y64961D03*
X241445Y121654D03*
X243807Y175591D03*
X244201Y104724D03*
Y110630D03*
Y197244D03*
Y236614D03*
X246563Y65355D03*
X247744Y59843D03*
X253256Y61811D03*
Y81890D03*
X265460Y53937D03*
X265854Y14174D03*
X270185Y182678D03*
X279634Y79134D03*
Y118504D03*
Y157874D03*
Y236614D03*
X280421Y12993D03*
X283177Y196851D03*
X299712Y54725D03*
X304437Y21260D03*
X317035Y51575D03*
X317035Y79134D03*
Y118504D03*
Y157874D03*
Y197244D03*
Y236614D03*
X346957Y104331D03*
Y114173D03*
Y118898D03*
X347350Y161024D03*
X352075Y38583D03*
X358374Y197244D03*
Y236614D03*
X358768Y162992D03*
X362311Y103150D03*
X364280Y125197D03*
X366642Y165354D03*
X367429Y33858D03*
X367823Y71654D03*
D02*
D113*
X20677Y78150D02*
Y71358D01*
X17035Y67717D01*
X20677Y117520D02*
Y111319D01*
X24122Y107874D01*
X20677Y156890D02*
X30224D01*
X30421Y157087D01*
X20677Y196260D02*
X30618D01*
X30815Y196457D01*
X21366Y27559D02*
X22547D01*
X286326Y12993D02*
X280421D01*
D02*
D114*
X116618Y28859D03*
Y38859D03*
X126618Y28859D03*
Y38859D03*
X136618Y28859D03*
Y38859D03*
X146618Y28859D03*
Y38859D03*
X156618Y28859D03*
Y38859D03*
X166618Y28859D03*
Y38859D03*
X176618Y28859D03*
Y38859D03*
X186618Y28859D03*
Y38859D03*
X196618Y28859D03*
Y38859D03*
X206618Y28859D03*
Y38859D03*
X216618Y28859D03*
Y38859D03*
X226618Y28859D03*
Y38859D03*
X236618Y28859D03*
Y38859D03*
X246618Y28859D03*
Y38859D03*
X256618Y28859D03*
Y38859D03*
X266618Y28859D03*
Y38859D03*
X276618Y28859D03*
Y38859D03*
X286618Y28859D03*
Y38859D03*
X296618Y28859D03*
Y38859D03*
X306618Y28859D03*
Y38859D03*
D02*
D115*
X20677Y78150D03*
Y95866D03*
Y117520D03*
Y135236D03*
Y156890D03*
Y174606D03*
Y196260D03*
Y213976D03*
X56504Y78150D03*
Y95866D03*
Y117520D03*
Y135236D03*
Y156890D03*
Y174606D03*
Y196260D03*
Y213976D03*
D02*
D116*
X286326Y12993D03*
X292626Y11024D03*
Y14961D03*
X0Y0D02*
M02*
