G04 DesignSpark PCB PRO Gerber Version 10.0 Build 5299*
G04 #@! TF.Part,Single*
G04 #@! TF.FileFunction,Legend,Bot*
G04 #@! TF.FilePolarity,Positive*
%FSLAX35Y35*%
%MOIN*%
%ADD120C,0.00394*%
%ADD119C,0.00500*%
%ADD121C,0.00787*%
%ADD150C,0.01000*%
G04 #@! TD.AperFunction*
X0Y0D02*
D02*
D119*
X7181Y95669D02*
X6868Y95982D01*
X6556Y96607D01*
X6868Y97232D01*
X7181Y97544D01*
X10306D01*
Y98169D01*
Y97544D02*
Y96294D01*
X6556Y101294D02*
Y102544D01*
Y101919D02*
X10306D01*
X9681Y101294D01*
X6868Y105982D02*
X6556Y106607D01*
Y107232D01*
X6868Y107857D01*
X7493Y108169D01*
X9368D01*
X9993Y107857D01*
X10306Y107232D01*
Y106607D01*
X9993Y105982D01*
X9368Y105669D01*
X7493D01*
X6868Y105982D01*
X9993Y107857D01*
X12617Y151469D02*
Y146169D01*
X24917D01*
Y151469D01*
X12617D01*
X19921Y23780D02*
X20234Y23467D01*
X20546Y22843D01*
X20234Y22217D01*
X19921Y21905D01*
X16796D01*
Y21280D01*
Y21905D02*
Y23155D01*
X20546Y16280D02*
Y18780D01*
X18359Y16593D01*
X17734Y16280D01*
X17109Y16593D01*
X16796Y17217D01*
Y18155D01*
X17109Y18780D01*
X18792Y153531D02*
X19104Y153219D01*
X19730Y152906D01*
X20667D01*
X21292Y153219D01*
X21604Y153531D01*
X21917Y154156D01*
Y155406D01*
X21604Y156031D01*
X21292Y156344D01*
X20667Y156656D01*
X19730D01*
X19104Y156344D01*
X18792Y156031D01*
X16917Y152906D02*
X14417Y156656D01*
X16917D01*
X24122Y42473D02*
Y46223D01*
X21934D01*
X21309Y45911D01*
X20996Y45286D01*
X21309Y44661D01*
X21934Y44348D01*
X24122D01*
X21934D02*
X20996Y42473D01*
X18496D02*
X17246D01*
X17872D02*
Y46223D01*
X18496Y45598D01*
X12559Y42473D02*
Y46223D01*
X14122Y43723D01*
X11622D01*
X24917Y139083D02*
Y144383D01*
X12617D01*
Y139083D01*
X24917D01*
X25854Y134206D02*
Y137956D01*
X23666D01*
X23041Y137643D01*
X22728Y137018D01*
X23041Y136393D01*
X23666Y136081D01*
X25854D01*
X23666D02*
X22728Y134206D01*
X20228D02*
X18978D01*
X19604D02*
Y137956D01*
X20228Y137331D01*
X15541Y134518D02*
X14916Y134206D01*
X14291D01*
X13666Y134518D01*
X13354Y135143D01*
Y137018D01*
X13666Y137643D01*
X14291Y137956D01*
X14916D01*
X15541Y137643D01*
X15854Y137018D01*
Y135143D01*
X15541Y134518D01*
X13666Y137643D01*
X27468Y36174D02*
Y39924D01*
X25281D01*
X24656Y39612D01*
X24343Y38987D01*
X24656Y38362D01*
X25281Y38049D01*
X27468D01*
X25281D02*
X24343Y36174D01*
X21843D02*
X20593D01*
X21218D02*
Y39924D01*
X21843Y39299D01*
X17468Y36487D02*
X16843Y36174D01*
X15906D01*
X15281Y36487D01*
X14968Y37112D01*
Y37424D01*
X15281Y38049D01*
X15906Y38362D01*
X17468D01*
Y39924D01*
X14968D01*
X28798Y40839D02*
Y35539D01*
X41098D01*
Y40839D01*
X28798D01*
X41098Y41445D02*
Y46745D01*
X28798D01*
Y41445D01*
X41098D01*
X41838Y212048D02*
X22547D01*
Y159685D01*
X58374D01*
X69004Y170315D01*
Y201418D01*
X58374Y212048D01*
X41838D01*
X49169Y44095D02*
X45419D01*
Y41907D01*
X45731Y41282D01*
X46356Y40970D01*
X46981Y41282D01*
X47293Y41907D01*
Y44095D01*
Y41907D02*
X49169Y40970D01*
Y38470D02*
Y37220D01*
Y37845D02*
X45419D01*
X46043Y38470D01*
X48231Y34095D02*
X47606Y33782D01*
X47293Y33157D01*
Y32532D01*
X47606Y31907D01*
X48231Y31595D01*
X48856Y31907D01*
X49169Y32532D01*
Y33157D01*
X48856Y33782D01*
X48231Y34095D01*
X47293D01*
X46356Y33782D01*
X45731Y33157D01*
X45419Y32532D01*
X50999Y17079D02*
X56299D01*
Y29379D01*
X50999D01*
Y17079D01*
Y32039D02*
X56299D01*
Y44339D01*
X50999D01*
Y32039D01*
X52819Y248748D02*
Y232748D01*
X45819D01*
Y248748D01*
X52819D01*
X54319Y227186D02*
Y230936D01*
X52131D01*
X51506Y230624D01*
X51193Y229998D01*
X51506Y229374D01*
X52131Y229061D01*
X54319D01*
X52131D02*
X51193Y227186D01*
X46819D02*
X49319D01*
X47131Y229374D01*
X46819Y229998D01*
X47131Y230624D01*
X47756Y230936D01*
X48693D01*
X49319Y230624D01*
X41819Y227186D02*
X44319D01*
X42131Y229374D01*
X41819Y229998D01*
X42131Y230624D01*
X42756Y230936D01*
X43693D01*
X44319Y230624D01*
X51718Y15355D02*
X55468D01*
Y12230D01*
Y9730D02*
Y8480D01*
Y9105D02*
X51718D01*
X52343Y9730D01*
X61917Y141883D02*
Y145633D01*
X59730D01*
X59104Y145320D01*
X58792Y144695D01*
X59104Y144070D01*
X59730Y143758D01*
X61917D01*
X59730D02*
X58792Y141883D01*
X56292D02*
X55042D01*
X55667D02*
Y145633D01*
X56292Y145008D01*
X51292Y141883D02*
X50042D01*
X50667D02*
Y145633D01*
X51292Y145008D01*
X59185Y149201D02*
X59498Y148888D01*
X60123Y148576D01*
X61061D01*
X61685Y148888D01*
X61998Y149201D01*
X62311Y149826D01*
Y151076D01*
X61998Y151701D01*
X61685Y152013D01*
X61061Y152326D01*
X60123D01*
X59498Y152013D01*
X59185Y151701D01*
X56373Y150451D02*
X55748D01*
X55123Y150763D01*
X54811Y151388D01*
X55123Y152013D01*
X55748Y152326D01*
X56373D01*
X56998Y152013D01*
X57311Y151388D01*
X56998Y150763D01*
X56373Y150451D01*
X56998Y150138D01*
X57311Y149513D01*
X56998Y148888D01*
X56373Y148576D01*
X55748D01*
X55123Y148888D01*
X54811Y149513D01*
X55123Y150138D01*
X55748Y150451D01*
X63641Y146744D02*
Y141444D01*
X75941D01*
Y146744D01*
X63641D01*
X65854Y249201D02*
X65541Y248888D01*
X64917Y248576D01*
X64291Y248888D01*
X63979Y249201D01*
Y252326D01*
X63354D01*
X63979D02*
X65229D01*
X60854Y248888D02*
X60229Y248576D01*
X59291D01*
X58667Y248888D01*
X58354Y249513D01*
Y249826D01*
X58667Y250451D01*
X59291Y250763D01*
X60854D01*
Y252326D01*
X58354D01*
X66641Y246260D02*
X63689Y247589D01*
Y244931D01*
X66641Y246260D01*
G36*
X66641Y246260D02*
X63689Y247589D01*
Y244931D01*
X66641Y246260D01*
G37*
X67141Y23771D02*
X72441D01*
Y36071D01*
X67141D01*
Y23771D01*
X67184Y22729D02*
Y17429D01*
X79484D01*
Y22729D01*
X67184D01*
Y42414D02*
Y37114D01*
X79484D01*
Y42414D01*
X67184D01*
X67232Y252461D02*
X91297D01*
Y247737D01*
X84801D01*
Y212894D01*
X91297D01*
Y208170D01*
X67232D01*
Y252461D01*
X65635Y124803D02*
X64385D01*
X63760Y124491D01*
X63448Y124178D01*
X63135Y123553D01*
Y122928D01*
X63448Y122303D01*
X63760Y121991D01*
X64385Y121678D01*
X65635D01*
X66260Y121991D01*
X66573Y122303D01*
X66885Y122928D01*
Y123553D01*
X66573Y124178D01*
X66260Y124491D01*
X65635Y124803D01*
X65948Y122616D02*
X66885Y121678D01*
Y119178D02*
Y117928D01*
Y118553D02*
X63135D01*
X63760Y119178D01*
X68634Y155500D02*
X68947Y155187D01*
X69572Y154875D01*
X70509D01*
X71134Y155187D01*
X71447Y155500D01*
X71759Y156125D01*
Y157375D01*
X71447Y158000D01*
X71134Y158313D01*
X70509Y158625D01*
X69572D01*
X68947Y158313D01*
X68634Y158000D01*
X66759Y156125D02*
Y157375D01*
X66447Y158000D01*
X66134Y158313D01*
X65509Y158625D01*
X64884D01*
X64259Y158313D01*
X63947Y158000D01*
X63634Y157375D01*
Y156125D01*
X63947Y155500D01*
X64259Y155187D01*
X64884Y154875D01*
X65509D01*
X66134Y155187D01*
X66447Y155500D01*
X66759Y156125D01*
X61759Y154875D02*
Y158625D01*
X58634Y154875D01*
Y158625D01*
X56759Y154875D02*
Y158625D01*
X53634Y154875D01*
Y158625D01*
X51134Y154875D02*
X49884D01*
X50509D02*
Y158625D01*
X51134Y158000D01*
X72302Y202257D02*
Y196957D01*
X84602D01*
Y202257D01*
X72302D01*
X73925Y128544D02*
G75*
G02*
X67626I-3150J0D01*
G01*
G75*
G02*
X73925I3150J0D01*
G01*
X75941Y148137D02*
Y153437D01*
X63641D01*
Y148137D01*
X75941D01*
X76102Y132040D02*
Y135790D01*
X77665D02*
X74540D01*
X72665Y132040D02*
Y135790D01*
X70478D01*
X69852Y135478D01*
X69540Y134853D01*
X69852Y134228D01*
X70478Y133915D01*
X72665D01*
X66102Y132040D02*
Y135790D01*
X67665Y133290D01*
X65165D01*
X78674Y203531D02*
X78986Y203219D01*
X79611Y202906D01*
X80549D01*
X81174Y203219D01*
X81486Y203531D01*
X81799Y204156D01*
Y205406D01*
X81486Y206031D01*
X81174Y206344D01*
X80549Y206656D01*
X79611D01*
X78986Y206344D01*
X78674Y206031D01*
X75861Y202906D02*
X75236Y203219D01*
X74611Y203844D01*
X74299Y204781D01*
Y205719D01*
X74611Y206344D01*
X75236Y206656D01*
X75861D01*
X76486Y206344D01*
X76799Y205719D01*
X76486Y205094D01*
X75861Y204781D01*
X75236D01*
X74611Y205094D01*
X74299Y205719D01*
X83027Y33071D02*
X79277D01*
Y30884D01*
X79589Y30259D01*
X80214Y29946D01*
X80839Y30259D01*
X81152Y30884D01*
Y33071D01*
Y30884D02*
X83027Y29946D01*
Y27446D02*
Y26196D01*
Y26821D02*
X79277D01*
X79902Y27446D01*
X84602Y190264D02*
Y195564D01*
X72302D01*
Y190264D01*
X84602D01*
X90067Y185190D02*
Y188940D01*
X87879D01*
X87254Y188628D01*
X86941Y188002D01*
X87254Y187378D01*
X87879Y187065D01*
X90067D01*
X87879D02*
X86941Y185190D01*
X84441D02*
X83191D01*
X83817D02*
Y188940D01*
X84441Y188315D01*
X77567Y185190D02*
X80067D01*
X77879Y187378D01*
X77567Y188002D01*
X77879Y188628D01*
X78504Y188940D01*
X79441D01*
X80067Y188628D01*
X88319Y38177D02*
X88632Y37864D01*
X89257Y37552D01*
X90194D01*
X90819Y37864D01*
X91132Y38177D01*
X91444Y38802D01*
Y40052D01*
X91132Y40677D01*
X90819Y40989D01*
X90194Y41302D01*
X89257D01*
X88632Y40989D01*
X88319Y40677D01*
X85819Y37552D02*
X84569D01*
X85194D02*
Y41302D01*
X85819Y40677D01*
X89500Y18885D02*
X89813Y18573D01*
X90438Y18260D01*
X91376D01*
X92000Y18573D01*
X92313Y18885D01*
X92626Y19510D01*
Y20760D01*
X92313Y21385D01*
X92000Y21698D01*
X91376Y22010D01*
X90438D01*
X89813Y21698D01*
X89500Y21385D01*
X85126Y18260D02*
X87626D01*
X85438Y20448D01*
X85126Y21073D01*
X85438Y21698D01*
X86063Y22010D01*
X87000D01*
X87626Y21698D01*
X97893Y98713D02*
Y93413D01*
X110193D01*
Y98713D01*
X97893D01*
Y105013D02*
Y99713D01*
X110193D01*
Y105013D01*
X97893D01*
X97131Y116536D02*
X95881D01*
X95256Y116223D01*
X94943Y115911D01*
X94631Y115286D01*
Y114661D01*
X94943Y114036D01*
X95256Y113723D01*
X95881Y113411D01*
X97131D01*
X97756Y113723D01*
X98069Y114036D01*
X98381Y114661D01*
Y115286D01*
X98069Y115911D01*
X97756Y116223D01*
X97131Y116536D01*
X97443Y114348D02*
X98381Y113411D01*
Y109036D02*
Y111536D01*
X96193Y109348D01*
X95569Y109036D01*
X94943Y109348D01*
X94631Y109973D01*
Y110911D01*
X94943Y111536D01*
X99956Y89614D02*
Y88364D01*
Y88989D02*
X96206D01*
Y89614D02*
Y88364D01*
X99331Y82426D02*
X99643Y82739D01*
X99956Y83364D01*
Y84302D01*
X99643Y84926D01*
X99331Y85239D01*
X98706Y85552D01*
X97456D01*
X96831Y85239D01*
X96518Y84926D01*
X96206Y84302D01*
Y83364D01*
X96518Y82739D01*
X96831Y82426D01*
X99956Y79926D02*
Y78676D01*
Y79302D02*
X96206D01*
X96831Y79926D01*
X103405Y76469D02*
Y71169D01*
X115705D01*
Y76469D01*
X103405D01*
X106405Y115748D02*
G75*
G02*
X100106I-3150J0D01*
G01*
G75*
G02*
X106405I3150J0D01*
G01*
X112901Y83812D02*
Y87562D01*
X110714D01*
X110089Y87250D01*
X109776Y86624D01*
X110089Y86000D01*
X110714Y85687D01*
X112901D01*
X110714D02*
X109776Y83812D01*
X106964D02*
X106339Y84124D01*
X105714Y84750D01*
X105401Y85687D01*
Y86624D01*
X105714Y87250D01*
X106339Y87562D01*
X106964D01*
X107589Y87250D01*
X107901Y86624D01*
X107589Y86000D01*
X106964Y85687D01*
X106339D01*
X105714Y86000D01*
X105401Y86624D01*
X115705Y77862D02*
Y83162D01*
X103405D01*
Y77862D01*
X115705D01*
X114291Y108024D02*
Y111774D01*
X115854D02*
X112729D01*
X110854Y108024D02*
Y111774D01*
X108667D01*
X108041Y111462D01*
X107729Y110837D01*
X108041Y110212D01*
X108667Y109900D01*
X110854D01*
X105854Y108337D02*
X105229Y108024D01*
X104291D01*
X103667Y108337D01*
X103354Y108962D01*
Y109274D01*
X103667Y109900D01*
X104291Y110212D01*
X105854D01*
Y111774D01*
X103354D01*
X114304Y67311D02*
X114616Y66998D01*
X115241Y66686D01*
X116179D01*
X116804Y66998D01*
X117116Y67311D01*
X117429Y67936D01*
Y69186D01*
X117116Y69811D01*
X116804Y70124D01*
X116179Y70436D01*
X115241D01*
X114616Y70124D01*
X114304Y69811D01*
X112429Y67624D02*
X112116Y68248D01*
X111491Y68561D01*
X110866D01*
X110241Y68248D01*
X109929Y67624D01*
X110241Y66998D01*
X110866Y66686D01*
X111491D01*
X112116Y66998D01*
X112429Y67624D01*
Y68561D01*
X112116Y69498D01*
X111491Y70124D01*
X110866Y70436D01*
X115484Y92902D02*
X115797Y92589D01*
X116422Y92276D01*
X117359D01*
X117984Y92589D01*
X118297Y92902D01*
X118609Y93526D01*
Y94776D01*
X118297Y95402D01*
X117984Y95714D01*
X117359Y96026D01*
X116422D01*
X115797Y95714D01*
X115484Y95402D01*
X112047Y92276D02*
Y96026D01*
X113609Y93526D01*
X111109D01*
X115485Y102744D02*
X115797Y102431D01*
X116422Y102119D01*
X117360D01*
X117985Y102431D01*
X118297Y102744D01*
X118610Y103369D01*
Y104619D01*
X118297Y105244D01*
X117985Y105557D01*
X117360Y105869D01*
X116422D01*
X115797Y105557D01*
X115485Y105244D01*
X113297Y102431D02*
X112672Y102119D01*
X112047D01*
X111422Y102431D01*
X111110Y103057D01*
X111422Y103681D01*
X112047Y103994D01*
X112672D01*
X112047D02*
X111422Y104307D01*
X111110Y104931D01*
X111422Y105557D01*
X112047Y105869D01*
X112672D01*
X113297Y105557D01*
X124319Y64567D02*
G75*
G02*
X118019I-3150J0D01*
G01*
G75*
G02*
X124319I3150J0D01*
G01*
X125709Y56843D02*
Y60593D01*
X127271D02*
X124146D01*
X122271Y56843D02*
Y60593D01*
X120084D01*
X119459Y60281D01*
X119146Y59656D01*
X119459Y59031D01*
X120084Y58719D01*
X122271D01*
X116646Y56843D02*
X115396D01*
X116021D02*
Y60593D01*
X116646Y59969D01*
X129240Y69489D02*
G75*
G02*
X122941I-3150J0D01*
G01*
G75*
G02*
X129240I3150J0D01*
G01*
X132008Y78103D02*
Y81853D01*
X133570D02*
X130445D01*
X128570Y78103D02*
Y81853D01*
X126383D01*
X125758Y81541D01*
X125445Y80916D01*
X125758Y80291D01*
X126383Y79978D01*
X128570D01*
X123258Y78416D02*
X122633Y78103D01*
X122008D01*
X121383Y78416D01*
X121070Y79041D01*
X121383Y79666D01*
X122008Y79978D01*
X122633D01*
X122008D02*
X121383Y80291D01*
X121070Y80916D01*
X121383Y81541D01*
X122008Y81853D01*
X122633D01*
X123258Y81541D01*
X134161Y74410D02*
G75*
G02*
X127862I-3150J0D01*
G01*
G75*
G02*
X134161I3150J0D01*
G01*
X137901Y138189D02*
G75*
G02*
X131602I-3150J0D01*
G01*
G75*
G02*
X137901I3150J0D01*
G01*
X140866Y65111D02*
Y68861D01*
X142429D02*
X139304D01*
X137429Y65111D02*
Y68861D01*
X135241D01*
X134616Y68549D01*
X134304Y67924D01*
X134616Y67299D01*
X135241Y66986D01*
X137429D01*
X129929Y65111D02*
X132429D01*
X130241Y67299D01*
X129929Y67924D01*
X130241Y68549D01*
X130866Y68861D01*
X131804D01*
X132429Y68549D01*
X141654Y129284D02*
Y133034D01*
X143216D02*
X140091D01*
X138216Y129284D02*
Y133034D01*
X136029D01*
X135404Y132722D01*
X135091Y132097D01*
X135404Y131472D01*
X136029Y131159D01*
X138216D01*
X133216Y130222D02*
X132904Y130847D01*
X132279Y131159D01*
X131654D01*
X131029Y130847D01*
X130716Y130222D01*
X131029Y129597D01*
X131654Y129284D01*
X132279D01*
X132904Y129597D01*
X133216Y130222D01*
Y131159D01*
X132904Y132097D01*
X132279Y132722D01*
X131654Y133034D01*
X144838Y122441D02*
X141088D01*
Y120254D01*
X141400Y119629D01*
X142025Y119316D01*
X142650Y119629D01*
X142963Y120254D01*
Y122441D01*
Y120254D02*
X144838Y119316D01*
Y116816D02*
Y115566D01*
Y116191D02*
X141088D01*
X141713Y116816D01*
X144838Y112441D02*
X141088Y109941D01*
Y112441D01*
X145881Y110386D02*
X151181D01*
Y122686D01*
X145881D01*
Y110386D01*
X143044Y183846D02*
X143356Y183534D01*
X143981Y183221D01*
X144919D01*
X145544Y183534D01*
X145856Y183846D01*
X146169Y184471D01*
Y185721D01*
X145856Y186346D01*
X145544Y186659D01*
X144919Y186971D01*
X143981D01*
X143356Y186659D01*
X143044Y186346D01*
X141169Y183534D02*
X140544Y183221D01*
X139606D01*
X138981Y183534D01*
X138669Y184159D01*
Y184471D01*
X138981Y185096D01*
X139606Y185409D01*
X141169D01*
Y186971D01*
X138669D01*
X147062Y178693D02*
X152362D01*
Y190993D01*
X147062D01*
Y178693D01*
X151924Y219535D02*
X150674D01*
X151299D02*
Y215785D01*
X151924D02*
X150674D01*
X144737Y218910D02*
X145049Y219223D01*
X145674Y219535D01*
X146612D01*
X147237Y219223D01*
X147549Y218910D01*
X147862Y218285D01*
Y217035D01*
X147549Y216410D01*
X147237Y216098D01*
X146612Y215785D01*
X145674D01*
X145049Y216098D01*
X144737Y216410D01*
X142549Y219223D02*
X141924Y219535D01*
X141299D01*
X140674Y219223D01*
X140362Y218598D01*
X140674Y217973D01*
X141299Y217660D01*
X141924D01*
X141299D02*
X140674Y217348D01*
X140362Y216723D01*
X140674Y216098D01*
X141299Y215785D01*
X141924D01*
X142549Y216098D01*
X152087Y130465D02*
Y132341D01*
X153649Y134215D01*
X152087Y132341D02*
X150524Y134215D01*
X148024Y130465D02*
X146774D01*
X147399D02*
Y134215D01*
X148024Y133591D01*
X154830Y227166D02*
Y242126D01*
X157436Y168551D02*
Y167301D01*
Y167926D02*
X153686D01*
Y168551D02*
Y167301D01*
X156811Y161363D02*
X157124Y161676D01*
X157436Y162301D01*
Y163239D01*
X157124Y163863D01*
X156811Y164176D01*
X156186Y164489D01*
X154936D01*
X154311Y164176D01*
X153998Y163863D01*
X153686Y163239D01*
Y162301D01*
X153998Y161676D01*
X154311Y161363D01*
X157436Y156989D02*
Y159489D01*
X155248Y157301D01*
X154624Y156989D01*
X153998Y157301D01*
X153686Y157926D01*
Y158863D01*
X153998Y159489D01*
X161917Y106125D02*
Y107375D01*
X161604Y108000D01*
X161292Y108313D01*
X160667Y108625D01*
X160042D01*
X159417Y108313D01*
X159104Y108000D01*
X158792Y107375D01*
Y106125D01*
X159104Y105500D01*
X159417Y105187D01*
X160042Y104875D01*
X160667D01*
X161292Y105187D01*
X161604Y105500D01*
X161917Y106125D01*
X159730Y105813D02*
X158792Y104875D01*
X156917Y105187D02*
X156292Y104875D01*
X155354D01*
X154730Y105187D01*
X154417Y105813D01*
Y106125D01*
X154730Y106750D01*
X155354Y107063D01*
X156917D01*
Y108625D01*
X154417D01*
X162220Y124677D02*
X167520D01*
Y136977D01*
X162220D01*
Y124677D01*
X162948Y150709D02*
X159198D01*
Y148522D01*
X159510Y147896D01*
X160135Y147584D01*
X160760Y147896D01*
X161073Y148522D01*
Y150709D01*
Y148522D02*
X162948Y147584D01*
Y143209D02*
Y145709D01*
X160760Y143522D01*
X160135Y143209D01*
X159510Y143522D01*
X159198Y144146D01*
Y145084D01*
X159510Y145709D01*
X162635Y140396D02*
X162948Y139772D01*
Y139146D01*
X162635Y138522D01*
X162010Y138209D01*
X161385Y138522D01*
X161073Y139146D01*
Y139772D01*
Y139146D02*
X160760Y138522D01*
X160135Y138209D01*
X159510Y138522D01*
X159198Y139146D01*
Y139772D01*
X159510Y140396D01*
X163504Y174631D02*
X163817Y174944D01*
X164129Y175569D01*
Y176506D01*
X163817Y177131D01*
X163504Y177444D01*
X162879Y177756D01*
X161629D01*
X161004Y177444D01*
X160691Y177131D01*
X160379Y176506D01*
Y175569D01*
X160691Y174944D01*
X161004Y174631D01*
X164129Y172131D02*
Y170881D01*
Y171506D02*
X160379D01*
X161004Y172131D01*
X163817Y167444D02*
X164129Y166819D01*
Y166194D01*
X163817Y165569D01*
X163191Y165256D01*
X161317D01*
X160691Y165569D01*
X160379Y166194D01*
Y166819D01*
X160691Y167444D01*
X161317Y167756D01*
X163191D01*
X163817Y167444D01*
X160691Y165569D01*
X165157Y191190D02*
X159857D01*
Y178890D01*
X165157D01*
Y191190D01*
X166354Y191488D02*
X171654D01*
Y203788D01*
X166354D01*
Y191488D01*
X166491Y244639D02*
X165241D01*
X165866D02*
Y248389D01*
X166491D02*
X165241D01*
X159304Y245264D02*
X159616Y244951D01*
X160241Y244639D01*
X161179D01*
X161804Y244951D01*
X162116Y245264D01*
X162429Y245889D01*
Y247139D01*
X162116Y247764D01*
X161804Y248076D01*
X161179Y248389D01*
X160241D01*
X159616Y248076D01*
X159304Y247764D01*
X155866Y244639D02*
Y248389D01*
X157429Y245889D01*
X154929D01*
X169004Y222441D02*
Y227166D01*
X154830D01*
X169004Y246851D02*
X191444D01*
Y222441D01*
X169004Y246851D02*
Y242126D01*
X154830D01*
X169248Y152126D02*
X165498D01*
Y149939D01*
X165810Y149314D01*
X166435Y149001D01*
X167060Y149314D01*
X167372Y149939D01*
Y152126D01*
Y149939D02*
X169248Y149001D01*
X167372Y146189D02*
Y145564D01*
X167060Y144939D01*
X166435Y144626D01*
X165810Y144939D01*
X165498Y145564D01*
Y146189D01*
X165810Y146814D01*
X166435Y147126D01*
X167060Y146814D01*
X167372Y146189D01*
X167685Y146814D01*
X168310Y147126D01*
X168935Y146814D01*
X169248Y146189D01*
Y145564D01*
X168935Y144939D01*
X168310Y144626D01*
X167685Y144939D01*
X167372Y145564D01*
X172697Y191339D02*
X176447D01*
Y193526D01*
X176135Y194152D01*
X175509Y194464D01*
X174885Y194152D01*
X174572Y193526D01*
Y191339D01*
Y193526D02*
X172697Y194464D01*
Y196964D02*
Y198214D01*
Y197589D02*
X176447D01*
X175822Y196964D01*
X173009Y201652D02*
X172697Y202276D01*
Y202902D01*
X173009Y203526D01*
X173635Y203839D01*
X174259Y203526D01*
X174572Y202902D01*
Y202276D01*
Y202902D02*
X174885Y203526D01*
X175509Y203839D01*
X176135Y203526D01*
X176447Y202902D01*
Y202276D01*
X176135Y201652D01*
X175591Y154339D02*
X170291D01*
Y142039D01*
X175591D01*
Y154339D01*
X182783Y201181D02*
G75*
G02*
X176484I-3150J0D01*
G01*
G75*
G02*
X182783I3150J0D01*
G01*
X187508Y149038D02*
Y150288D01*
X187195Y150913D01*
X186883Y151226D01*
X186258Y151538D01*
X185633D01*
X185008Y151226D01*
X184695Y150913D01*
X184383Y150288D01*
Y149038D01*
X184695Y148413D01*
X185008Y148100D01*
X185633Y147788D01*
X186258D01*
X186883Y148100D01*
X187195Y148413D01*
X187508Y149038D01*
X185320Y148726D02*
X184383Y147788D01*
X180945D02*
Y151538D01*
X182508Y149038D01*
X180008D01*
X187902Y174235D02*
Y175485D01*
X187589Y176110D01*
X187276Y176422D01*
X186652Y176735D01*
X186026D01*
X185402Y176422D01*
X185089Y176110D01*
X184776Y175485D01*
Y174235D01*
X185089Y173610D01*
X185402Y173297D01*
X186026Y172985D01*
X186652D01*
X187276Y173297D01*
X187589Y173610D01*
X187902Y174235D01*
X185714Y173922D02*
X184776Y172985D01*
X182589Y173297D02*
X181964Y172985D01*
X181339D01*
X180714Y173297D01*
X180402Y173922D01*
X180714Y174547D01*
X181339Y174860D01*
X181964D01*
X181339D02*
X180714Y175172D01*
X180402Y175797D01*
X180714Y176422D01*
X181339Y176735D01*
X181964D01*
X182589Y176422D01*
X189279Y100985D02*
G75*
G02*
Y140355I0J19685D01*
G01*
G75*
G02*
Y100985I0J-19685D01*
G01*
X191444Y222441D02*
X169004D01*
X194212Y199363D02*
Y203113D01*
X195775D02*
X192650D01*
X190775Y199363D02*
Y203113D01*
X188587D01*
X187962Y202801D01*
X187650Y202176D01*
X187962Y201551D01*
X188587Y201238D01*
X190775D01*
X185775Y199363D02*
X183275Y203113D01*
X185775D01*
X198555Y152063D02*
X220555D01*
Y140063D01*
X198555D01*
Y152063D01*
Y165055D02*
X220555D01*
Y153055D01*
X198555D01*
Y165055D01*
Y178047D02*
X220555D01*
Y166047D01*
X198555D01*
Y178047D01*
Y191039D02*
X220555D01*
Y179039D01*
X198555D01*
Y191039D01*
X198680Y228241D02*
Y222941D01*
X210980D01*
Y228241D01*
X198680D01*
Y237296D02*
Y231996D01*
X210980D01*
Y237296D01*
X198680D01*
X208444Y17060D02*
X208757Y17372D01*
X209382Y17685D01*
X210007Y17372D01*
X210320Y17060D01*
Y13935D01*
X210944D01*
X210320D02*
X209070D01*
X214070Y17685D02*
X215320D01*
X214694D02*
Y13935D01*
X214070Y14560D01*
X207217Y218492D02*
X207530Y218180D01*
X208155Y217867D01*
X209092D01*
X209717Y218180D01*
X210030Y218492D01*
X210342Y219117D01*
Y220367D01*
X210030Y220992D01*
X209717Y221305D01*
X209092Y221617D01*
X208155D01*
X207530Y221305D01*
X207217Y220992D01*
X204717Y217867D02*
X203467D01*
X204092D02*
Y221617D01*
X204717Y220992D01*
X199717Y217867D02*
X198467D01*
X199092D02*
Y221617D01*
X199717Y220992D01*
X208004Y239358D02*
X208317Y239046D01*
X208942Y238733D01*
X209880D01*
X210504Y239046D01*
X210817Y239358D01*
X211130Y239983D01*
Y241233D01*
X210817Y241858D01*
X210504Y242171D01*
X209880Y242483D01*
X208942D01*
X208317Y242171D01*
X208004Y241858D01*
X205504Y238733D02*
X204254D01*
X204880D02*
Y242483D01*
X205504Y241858D01*
X198630Y238733D02*
X201130D01*
X198942Y240921D01*
X198630Y241546D01*
X198942Y242171D01*
X199567Y242483D01*
X200504D01*
X201130Y242171D01*
X220960Y238977D02*
X220647Y239289D01*
X220335Y239914D01*
X220647Y240539D01*
X220960Y240852D01*
X224085D01*
Y241477D01*
Y240852D02*
Y239602D01*
X220647Y244289D02*
X220335Y244914D01*
Y245539D01*
X220647Y246164D01*
X221272Y246477D01*
X221897Y246164D01*
X222210Y245539D01*
Y244914D01*
Y245539D02*
X222522Y246164D01*
X223147Y246477D01*
X223772Y246164D01*
X224085Y245539D01*
Y244914D01*
X223772Y244289D01*
X222571Y194870D02*
X222884Y194557D01*
X223509Y194245D01*
X224446D01*
X225071Y194557D01*
X225384Y194870D01*
X225696Y195495D01*
Y196745D01*
X225384Y197370D01*
X225071Y197683D01*
X224446Y197995D01*
X223509D01*
X222884Y197683D01*
X222571Y197370D01*
X220071Y194245D02*
X218821D01*
X219446D02*
Y197995D01*
X220071Y197370D01*
X215384Y194557D02*
X214759Y194245D01*
X214134D01*
X213509Y194557D01*
X213196Y195183D01*
X213509Y195807D01*
X214134Y196120D01*
X214759D01*
X214134D02*
X213509Y196433D01*
X213196Y197057D01*
X213509Y197683D01*
X214134Y197995D01*
X214759D01*
X215384Y197683D01*
X225118Y149606D02*
X221368D01*
Y147419D01*
X221680Y146794D01*
X222305Y146481D01*
X222930Y146794D01*
X223243Y147419D01*
Y149606D01*
Y147419D02*
X225118Y146481D01*
Y144606D02*
X221368Y142106D01*
Y144606D01*
X225118Y162598D02*
X221368D01*
Y160411D01*
X221680Y159786D01*
X222305Y159473D01*
X222930Y159786D01*
X223243Y160411D01*
Y162598D01*
Y160411D02*
X225118Y159473D01*
X224180Y157598D02*
X223555Y157286D01*
X223243Y156661D01*
Y156036D01*
X223555Y155411D01*
X224180Y155098D01*
X224805Y155411D01*
X225118Y156036D01*
Y156661D01*
X224805Y157286D01*
X224180Y157598D01*
X223243D01*
X222305Y157286D01*
X221680Y156661D01*
X221368Y156036D01*
X225118Y175591D02*
X221368D01*
Y173403D01*
X221680Y172778D01*
X222305Y172465D01*
X222930Y172778D01*
X223243Y173403D01*
Y175591D01*
Y173403D02*
X225118Y172465D01*
X224805Y170591D02*
X225118Y169965D01*
Y169028D01*
X224805Y168403D01*
X224180Y168091D01*
X223868D01*
X223243Y168403D01*
X222930Y169028D01*
Y170591D01*
X221368D01*
Y168091D01*
X225118Y188977D02*
X221368D01*
Y186789D01*
X221680Y186164D01*
X222305Y185852D01*
X222930Y186164D01*
X223243Y186789D01*
Y188977D01*
Y186789D02*
X225118Y185852D01*
Y182414D02*
X221368D01*
X223868Y183977D01*
Y181477D01*
X239232Y68504D02*
X242982D01*
Y70692D01*
X242670Y71317D01*
X242045Y71630D01*
X241420Y71317D01*
X241107Y70692D01*
Y68504D01*
Y70692D02*
X239232Y71630D01*
Y76004D02*
Y73504D01*
X241420Y75692D01*
X242045Y76004D01*
X242670Y75692D01*
X242982Y75067D01*
Y74130D01*
X242670Y73504D01*
X238736Y189083D02*
Y194383D01*
X226436D01*
Y189083D01*
X238736D01*
X249213Y80166D02*
X243913D01*
Y67866D01*
X249213D01*
Y80166D01*
X250606Y65067D02*
X255906D01*
Y77367D01*
X250606D01*
Y65067D01*
X258165Y91733D02*
X257852Y92045D01*
X257539Y92670D01*
X257852Y93295D01*
X258165Y93608D01*
X261289D01*
Y94233D01*
Y93608D02*
Y92358D01*
X257539Y98295D02*
X261289D01*
X258789Y96733D01*
Y99233D01*
X257737Y66929D02*
X261487D01*
Y69117D01*
X261174Y69742D01*
X260549Y70054D01*
X259924Y69742D01*
X259612Y69117D01*
Y66929D01*
Y69117D02*
X257737Y70054D01*
X258049Y72242D02*
X257737Y72867D01*
Y73492D01*
X258049Y74117D01*
X258674Y74429D01*
X259299Y74117D01*
X259612Y73492D01*
Y72867D01*
Y73492D02*
X259924Y74117D01*
X260549Y74429D01*
X261174Y74117D01*
X261487Y73492D01*
Y72867D01*
X261174Y72242D01*
X344050Y248032D02*
X340300D01*
Y245844D01*
X340613Y245219D01*
X341238Y244907D01*
X341863Y245219D01*
X342175Y245844D01*
Y248032D01*
Y245844D02*
X344050Y244907D01*
Y242407D02*
Y241157D01*
Y241782D02*
X340300D01*
X340925Y242407D01*
X344050Y237094D02*
X343738Y236469D01*
X343113Y235844D01*
X342175Y235532D01*
X341238D01*
X340613Y235844D01*
X340300Y236469D01*
Y237094D01*
X340613Y237719D01*
X341238Y238032D01*
X341863Y237719D01*
X342175Y237094D01*
Y236469D01*
X341863Y235844D01*
X341238Y235532D01*
X342997Y225000D02*
X341747D01*
X341122Y224688D01*
X340809Y224375D01*
X340497Y223750D01*
Y223125D01*
X340809Y222500D01*
X341122Y222188D01*
X341747Y221875D01*
X342997D01*
X343622Y222188D01*
X343935Y222500D01*
X344247Y223125D01*
Y223750D01*
X343935Y224375D01*
X343622Y224688D01*
X342997Y225000D01*
X343309Y222813D02*
X344247Y221875D01*
X343309Y220000D02*
X342685Y219688D01*
X342372Y219063D01*
Y218438D01*
X342685Y217813D01*
X343309Y217500D01*
X343935Y217813D01*
X344247Y218438D01*
Y219063D01*
X343935Y219688D01*
X343309Y220000D01*
X342372D01*
X341435Y219688D01*
X340809Y219063D01*
X340497Y218438D01*
X350394Y247883D02*
X345094D01*
Y235583D01*
X350394D01*
Y247883D01*
X351102Y135630D02*
X351415Y135318D01*
X351728Y134693D01*
X351415Y134068D01*
X351102Y133755D01*
X347978D01*
Y133130D01*
Y133755D02*
Y135005D01*
X349852Y129693D02*
Y129068D01*
X349540Y128443D01*
X348915Y128130D01*
X348290Y128443D01*
X347978Y129068D01*
Y129693D01*
X348290Y130318D01*
X348915Y130630D01*
X349540Y130318D01*
X349852Y129693D01*
X350165Y130318D01*
X350790Y130630D01*
X351415Y130318D01*
X351728Y129693D01*
Y129068D01*
X351415Y128443D01*
X350790Y128130D01*
X350165Y128443D01*
X349852Y129068D01*
X353106Y163189D02*
X349356D01*
Y161314D01*
X349668Y160689D01*
X349980Y160377D01*
X350606Y160064D01*
X351856D01*
X352480Y160377D01*
X352793Y160689D01*
X353106Y161314D01*
Y163189D01*
Y155689D02*
Y158189D01*
X350918Y156002D01*
X350293Y155689D01*
X349668Y156002D01*
X349356Y156627D01*
Y157564D01*
X349668Y158189D01*
X353499Y53150D02*
X349749D01*
Y51275D01*
X350061Y50650D01*
X350374Y50337D01*
X350999Y50025D01*
X352249D01*
X352874Y50337D01*
X353187Y50650D01*
X353499Y51275D01*
Y53150D01*
X353187Y47837D02*
X353499Y47213D01*
Y46587D01*
X353187Y45963D01*
X352561Y45650D01*
X351937Y45963D01*
X351624Y46587D01*
Y47213D01*
Y46587D02*
X351311Y45963D01*
X350687Y45650D01*
X350061Y45963D01*
X349749Y46587D01*
Y47213D01*
X350061Y47837D01*
X355596Y200394D02*
X354346D01*
X353720Y200081D01*
X353408Y199769D01*
X353096Y199144D01*
Y198519D01*
X353408Y197894D01*
X353720Y197581D01*
X354346Y197269D01*
X355596D01*
X356220Y197581D01*
X356533Y197894D01*
X356846Y198519D01*
Y199144D01*
X356533Y199769D01*
X356220Y200081D01*
X355596Y200394D01*
X355908Y198207D02*
X356846Y197269D01*
Y195394D02*
X353096Y192894D01*
Y195394D01*
X359011Y254922D02*
X355261D01*
Y252734D01*
X355573Y252109D01*
X356198Y251796D01*
X356823Y252109D01*
X357136Y252734D01*
Y254922D01*
Y252734D02*
X359011Y251796D01*
Y249296D02*
Y248046D01*
Y248672D02*
X355261D01*
X355886Y249296D01*
X357136Y243984D02*
Y243359D01*
X356823Y242734D01*
X356198Y242422D01*
X355573Y242734D01*
X355261Y243359D01*
Y243984D01*
X355573Y244609D01*
X356198Y244922D01*
X356823Y244609D01*
X357136Y243984D01*
X357448Y244609D01*
X358073Y244922D01*
X358698Y244609D01*
X359011Y243984D01*
Y243359D01*
X358698Y242734D01*
X358073Y242422D01*
X357448Y242734D01*
X357136Y243359D01*
X360054Y235976D02*
X365354D01*
Y248276D01*
X360054D01*
Y235976D01*
X360933Y209009D02*
Y212759D01*
X358745D01*
X358120Y212446D01*
X357807Y211821D01*
X358120Y211196D01*
X358745Y210884D01*
X360933D01*
X358745D02*
X357807Y209009D01*
X353433D02*
X355933D01*
X353745Y211196D01*
X353433Y211821D01*
X353745Y212446D01*
X354370Y212759D01*
X355307D01*
X355933Y212446D01*
X350307Y209009D02*
X349057D01*
X349683D02*
Y212759D01*
X350307Y212134D01*
X363583Y226032D02*
X358283D01*
Y213732D01*
X363583D01*
Y226032D01*
X364385Y213732D02*
X369685D01*
Y226032D01*
X364385D01*
Y213732D01*
X366051Y159402D02*
Y163152D01*
X362926D01*
X363551Y161278D02*
X366051D01*
X360426Y159402D02*
X359176D01*
X359801D02*
Y163152D01*
X360426Y162528D01*
X367429Y61568D02*
Y65318D01*
X364304D01*
X364929Y63443D02*
X367429D01*
X359929Y61568D02*
X362429D01*
X360241Y63756D01*
X359929Y64380D01*
X360241Y65006D01*
X360866Y65318D01*
X361804D01*
X362429Y65006D01*
X374169Y225985D02*
X370419D01*
Y223797D01*
X370731Y223172D01*
X371356Y222859D01*
X371981Y223172D01*
X372293Y223797D01*
Y225985D01*
Y223797D02*
X374169Y222859D01*
Y218485D02*
Y220985D01*
X371981Y218797D01*
X371356Y218485D01*
X370731Y218797D01*
X370419Y219422D01*
Y220359D01*
X370731Y220985D01*
X373856Y215672D02*
X374169Y215047D01*
Y214422D01*
X373856Y213797D01*
X373231Y213485D01*
X371356D01*
X370731Y213797D01*
X370419Y214422D01*
Y215047D01*
X370731Y215672D01*
X371356Y215985D01*
X373231D01*
X373856Y215672D01*
X370731Y213797D01*
D02*
D120*
X4134Y58386D02*
Y93583D02*
X8768Y58386D02*
X4134D01*
Y93583D01*
X9752D01*
X8768Y58386D02*
X4134D01*
Y93583D01*
X9752D01*
X8768Y58386D02*
X9752Y93583D02*
X21563D02*
X24516Y58386D02*
Y58268D01*
X21563D01*
Y58386D01*
X24516D01*
X25500Y93583D02*
X21563D01*
X25500D02*
X21563D01*
X112208Y24115D02*
X311027D01*
Y43603D01*
X112208D01*
Y24115D01*
X147744Y136615D02*
X151681D01*
X147744Y142520D02*
X151681D01*
X267823Y95669D02*
X263886D01*
Y100787D01*
X267823Y196457D02*
X263886D01*
Y191339D01*
X279634Y95669D02*
X285933D01*
Y196457D01*
X279634D01*
D02*
D121*
X37114Y62598D02*
G75*
G02*
Y62992I0J197D01*
G01*
Y62598D02*
G75*
G03*
Y62992I0J197D01*
G01*
Y62598D02*
Y62992D02*
G75*
G03*
Y62598I0J-197D01*
G01*
X54634Y102559D02*
Y64370D01*
X56996Y108819D02*
G75*
G03*
Y109307I0J244D01*
G01*
Y108819D02*
G75*
G03*
Y109307I0J244D01*
G01*
G75*
G03*
Y108819I0J-244D01*
G01*
X68472Y125000D02*
Y120276D01*
X68807Y118898D02*
Y118110D01*
X80224D01*
Y118898D01*
X68807D01*
X85795Y125000D02*
Y120276D01*
X86130Y118898D02*
Y118110D01*
X97547D01*
Y118898D01*
X86130D01*
X94398Y64370D02*
Y102559D01*
X132882Y194567D02*
X138886D01*
X140264Y195079D02*
X152862D01*
Y214370D01*
X140264D01*
Y195079D01*
X140657Y139174D02*
Y139961D02*
G75*
G02*
Y139174I0J-394D01*
G01*
Y139961D02*
G75*
G03*
Y139174I0J-394D01*
G01*
X151878Y156496D02*
Y169095D01*
X132586D01*
Y156496D01*
X151878D01*
X152389Y149115D02*
Y155119D01*
X154240Y110296D02*
X158964D01*
X160342Y110630D02*
X161130D01*
Y122048D01*
X160342D01*
Y110630D01*
X180224Y153012D02*
X184949D01*
X180224Y178996D02*
X184949D01*
X186327Y153346D02*
X187114D01*
Y164764D01*
X186327D01*
Y153346D01*
Y179331D02*
X187114D01*
Y190748D01*
X186327D01*
Y179331D01*
X306618Y45748D02*
G75*
G03*
X306224I-197J0D01*
G01*
X306618D02*
G75*
G03*
X306224I-197J0D01*
G01*
G75*
G03*
X306618I197J0D01*
G01*
X345185Y231398D02*
Y226870D01*
X345775Y225493D02*
Y222933D01*
X357193D01*
Y225493D01*
X345775D01*
X349122Y57973D02*
Y64863D01*
X354240Y54772D02*
Y64863D01*
X357980Y207579D02*
Y203052D01*
X358028Y149606D02*
X367382D01*
X358570Y201674D02*
Y199115D01*
X369988D01*
Y201674D01*
X358570D01*
X359209Y51969D02*
X368563D01*
D02*
D150*
X226681Y199213D02*
X219791D01*
Y205551D01*
X226681Y237008D02*
X219791D01*
Y230669D01*
X238461Y199213D02*
X241839D01*
Y237008D01*
X238461D01*
X347941Y144587D02*
Y151477D01*
X353059D02*
Y144587D01*
X353650Y77657D02*
Y86220D01*
Y135728D02*
Y127165D01*
X368217Y127953D02*
Y85433D01*
X0Y0D02*
M02*
