G04 DesignSpark PCB PRO Gerber Version 10.0 Build 5299*
G04 #@! TF.Part,Single*
G04 #@! TF.FileFunction,Legend,Top*
G04 #@! TF.FilePolarity,Positive*
%FSLAX35Y35*%
%MOIN*%
%ADD122C,0.00300*%
%ADD120C,0.00394*%
%ADD119C,0.00500*%
%ADD121C,0.00787*%
%ADD123C,0.00800*%
G04 #@! TD.AperFunction*
X0Y0D02*
D02*
D119*
X14692Y32010D02*
Y53700D01*
X14767Y54243D01*
X14996Y54636D01*
X15387Y54874D01*
X15947Y54954D01*
X27635D01*
X28580Y54771D01*
X29282Y54283D01*
X29720Y53581D01*
X29870Y52758D01*
Y44169D01*
X29719Y43352D01*
X29302Y42693D01*
X28679Y42233D01*
X27909Y42011D01*
X27243Y41865D01*
X27093Y41703D01*
X27047Y41423D01*
X27089Y41205D01*
X27238Y41061D01*
X27988Y40874D01*
X28381Y40777D01*
X28723Y40565D01*
X29165Y39933D01*
X30027Y37619D01*
X30366Y37006D01*
X30728Y36797D01*
X31322Y36717D01*
X38381D01*
X38954Y36795D01*
X39372Y37021D01*
X39628Y37379D01*
X39715Y37854D01*
Y38717D01*
X39651Y39160D01*
X39440Y39526D01*
X39053Y39781D01*
X38460Y39894D01*
X34185Y40090D01*
X33081Y40375D01*
X32185Y40957D01*
X31581Y41783D01*
X31361Y42796D01*
Y52366D01*
X31523Y53418D01*
X31983Y54165D01*
X32701Y54611D01*
X33636Y54758D01*
X43676D01*
X44275Y54679D01*
X44676Y54444D01*
X44900Y54063D01*
X44970Y53543D01*
Y50326D01*
X44894Y49760D01*
X44652Y49356D01*
X44226Y49113D01*
X43598Y49032D01*
X38146D01*
X37615Y48944D01*
X37249Y48709D01*
X37037Y48370D01*
X36969Y47973D01*
Y46875D01*
X37064Y46473D01*
X37342Y46159D01*
X37797Y45948D01*
X38420Y45855D01*
X42931Y45581D01*
X43890Y45313D01*
X44661Y44703D01*
X45176Y43865D01*
X45363Y42914D01*
Y33069D01*
X45307Y32563D01*
X45150Y32132D01*
X44603Y31486D01*
X43857Y31111D01*
X43048Y30991D01*
X26890D01*
X26330Y31030D01*
X25885Y31187D01*
X25550Y31520D01*
X25321Y32089D01*
X23909Y37854D01*
X23753Y38324D01*
X23512Y38668D01*
X23087Y38880D01*
X22380Y38952D01*
X21892Y39020D01*
X21507Y39227D01*
X21254Y39581D01*
X21163Y40090D01*
Y43110D01*
X21239Y43619D01*
X21472Y43972D01*
X21875Y44180D01*
X22458Y44247D01*
X23242D01*
X23722Y44356D01*
X24051Y44644D01*
X24241Y45058D01*
X24301Y45541D01*
Y48012D01*
X24216Y48482D01*
X23973Y48826D01*
X23590Y49038D01*
X23085Y49111D01*
X20419D01*
Y32128D01*
X20300Y31586D01*
X19997Y31236D01*
X19591Y31047D01*
X19163Y30991D01*
X15908D01*
X15370Y31062D01*
X14991Y31265D01*
X14766Y31586D01*
X14692Y32010D01*
G36*
X14692Y32010D02*
Y53700D01*
X14767Y54243D01*
X14996Y54636D01*
X15387Y54874D01*
X15947Y54954D01*
X27635D01*
X28580Y54771D01*
X29282Y54283D01*
X29720Y53581D01*
X29870Y52758D01*
Y44169D01*
X29719Y43352D01*
X29302Y42693D01*
X28679Y42233D01*
X27909Y42011D01*
X27243Y41865D01*
X27093Y41703D01*
X27047Y41423D01*
X27089Y41205D01*
X27238Y41061D01*
X27988Y40874D01*
X28381Y40777D01*
X28723Y40565D01*
X29165Y39933D01*
X30027Y37619D01*
X30366Y37006D01*
X30728Y36797D01*
X31322Y36717D01*
X38381D01*
X38954Y36795D01*
X39372Y37021D01*
X39628Y37379D01*
X39715Y37854D01*
Y38717D01*
X39651Y39160D01*
X39440Y39526D01*
X39053Y39781D01*
X38460Y39894D01*
X34185Y40090D01*
X33081Y40375D01*
X32185Y40957D01*
X31581Y41783D01*
X31361Y42796D01*
Y52366D01*
X31523Y53418D01*
X31983Y54165D01*
X32701Y54611D01*
X33636Y54758D01*
X43676D01*
X44275Y54679D01*
X44676Y54444D01*
X44900Y54063D01*
X44970Y53543D01*
Y50326D01*
X44894Y49760D01*
X44652Y49356D01*
X44226Y49113D01*
X43598Y49032D01*
X38146D01*
X37615Y48944D01*
X37249Y48709D01*
X37037Y48370D01*
X36969Y47973D01*
Y46875D01*
X37064Y46473D01*
X37342Y46159D01*
X37797Y45948D01*
X38420Y45855D01*
X42931Y45581D01*
X43890Y45313D01*
X44661Y44703D01*
X45176Y43865D01*
X45363Y42914D01*
Y33069D01*
X45307Y32563D01*
X45150Y32132D01*
X44603Y31486D01*
X43857Y31111D01*
X43048Y30991D01*
X26890D01*
X26330Y31030D01*
X25885Y31187D01*
X25550Y31520D01*
X25321Y32089D01*
X23909Y37854D01*
X23753Y38324D01*
X23512Y38668D01*
X23087Y38880D01*
X22380Y38952D01*
X21892Y39020D01*
X21507Y39227D01*
X21254Y39581D01*
X21163Y40090D01*
Y43110D01*
X21239Y43619D01*
X21472Y43972D01*
X21875Y44180D01*
X22458Y44247D01*
X23242D01*
X23722Y44356D01*
X24051Y44644D01*
X24241Y45058D01*
X24301Y45541D01*
Y48012D01*
X24216Y48482D01*
X23973Y48826D01*
X23590Y49038D01*
X23085Y49111D01*
X20419D01*
Y32128D01*
X20300Y31586D01*
X19997Y31236D01*
X19591Y31047D01*
X19163Y30991D01*
X15908D01*
X15370Y31062D01*
X14991Y31265D01*
X14766Y31586D01*
X14692Y32010D01*
G37*
X31602Y140064D02*
X31915Y139439D01*
X32539Y139126D01*
X33789D01*
X34415Y139439D01*
X34727Y140064D01*
X34415Y140689D01*
X33789Y141002D01*
X32539D01*
X31915Y141314D01*
X31602Y141939D01*
X31915Y142564D01*
X32539Y142876D01*
X33789D01*
X34415Y142564D01*
X34727Y141939D01*
X36602Y139126D02*
Y142876D01*
Y141002D02*
X37539D01*
X39727Y142876D01*
X37539Y141002D02*
X39727Y139126D01*
X44102D02*
X41602D01*
X43789Y141314D01*
X44102Y141939D01*
X43789Y142564D01*
X43165Y142876D01*
X42227D01*
X41602Y142564D01*
X31602Y179434D02*
X31915Y178809D01*
X32539Y178496D01*
X33789D01*
X34415Y178809D01*
X34727Y179434D01*
X34415Y180059D01*
X33789Y180372D01*
X32539D01*
X31915Y180684D01*
X31602Y181309D01*
X31915Y181934D01*
X32539Y182246D01*
X33789D01*
X34415Y181934D01*
X34727Y181309D01*
X36602Y178496D02*
Y182246D01*
Y180372D02*
X37539D01*
X39727Y182246D01*
X37539Y180372D02*
X39727Y178496D01*
X41915Y178809D02*
X42539Y178496D01*
X43165D01*
X43789Y178809D01*
X44102Y179434D01*
X43789Y180059D01*
X43165Y180372D01*
X42539D01*
X43165D02*
X43789Y180684D01*
X44102Y181309D01*
X43789Y181934D01*
X43165Y182246D01*
X42539D01*
X41915Y181934D01*
X32389Y100694D02*
X32702Y100069D01*
X33327Y99756D01*
X34577D01*
X35202Y100069D01*
X35515Y100694D01*
X35202Y101319D01*
X34577Y101631D01*
X33327D01*
X32702Y101944D01*
X32389Y102569D01*
X32702Y103194D01*
X33327Y103506D01*
X34577D01*
X35202Y103194D01*
X35515Y102569D01*
X37389Y99756D02*
Y103506D01*
Y101631D02*
X38327D01*
X40515Y103506D01*
X38327Y101631D02*
X40515Y99756D01*
X43015D02*
X44265D01*
X43639D02*
Y103506D01*
X43015Y102881D01*
X32389Y218804D02*
X32702Y218179D01*
X33327Y217867D01*
X34577D01*
X35202Y218179D01*
X35515Y218804D01*
X35202Y219429D01*
X34577Y219742D01*
X33327D01*
X32702Y220054D01*
X32389Y220679D01*
X32702Y221304D01*
X33327Y221617D01*
X34577D01*
X35202Y221304D01*
X35515Y220679D01*
X37389Y217867D02*
Y221617D01*
Y219742D02*
X38327D01*
X40515Y221617D01*
X38327Y219742D02*
X40515Y217867D01*
X43952D02*
Y221617D01*
X42389Y219117D01*
X44889D01*
X67035Y247788D02*
Y251538D01*
X70161D01*
X69535Y249663D02*
X67035D01*
Y247788D02*
X70161D01*
X72035Y248726D02*
X72348Y248100D01*
X72973Y247788D01*
X74223D01*
X74848Y248100D01*
X75161Y248726D01*
X74848Y249350D01*
X74223Y249663D01*
X72973D01*
X72348Y249976D01*
X72035Y250600D01*
X72348Y251226D01*
X72973Y251538D01*
X74223D01*
X74848Y251226D01*
X75161Y250600D01*
X77035Y247788D02*
Y251538D01*
X78911D01*
X79535Y251226D01*
X79848Y250913D01*
X80161Y250288D01*
Y249038D01*
X79848Y248413D01*
X79535Y248100D01*
X78911Y247788D01*
X77035D01*
X82035D02*
Y251538D01*
Y249663D02*
X82973D01*
X85161Y251538D01*
X82973Y249663D02*
X85161Y247788D01*
X87035Y249038D02*
X89535D01*
X92035Y247788D02*
Y251538D01*
X93598Y249663D01*
X95161Y251538D01*
Y247788D01*
X97035Y249976D02*
X97661Y250288D01*
X98598D01*
X99223Y249976D01*
X99535Y249350D01*
Y248413D01*
X99223Y248100D01*
X98598Y247788D01*
X97973D01*
X97348Y248100D01*
X97035Y248413D01*
Y248726D01*
X97348Y249038D01*
X97973Y249350D01*
X98598D01*
X99223Y249038D01*
X99535Y248726D01*
Y248413D02*
Y247788D01*
X103285D02*
Y250288D01*
Y251226D02*
X107035Y247788D02*
Y250288D01*
Y249350D02*
X107348Y249976D01*
X107973Y250288D01*
X108598D01*
X109223Y249976D01*
X109535Y249350D01*
Y247788D01*
X117035Y250288D02*
X118285Y247788D01*
X119535Y250288D01*
X122348Y248100D02*
X122973Y247788D01*
X123598D01*
X124223Y248100D01*
X124535Y248726D01*
Y250600D01*
X124223Y251226D01*
X123598Y251538D01*
X122973D01*
X122348Y251226D01*
X122035Y250600D01*
Y248726D01*
X122348Y248100D01*
X124223Y251226D01*
X127348Y247788D02*
X127661Y248100D01*
X127348Y248413D01*
X127035Y248100D01*
X127348Y247788D01*
X132348Y248100D02*
X132973Y247788D01*
X133598D01*
X134223Y248100D01*
X134535Y248726D01*
X134223Y249350D01*
X133598Y249663D01*
X132973D01*
X133598D02*
X134223Y249976D01*
X134535Y250600D01*
X134223Y251226D01*
X133598Y251538D01*
X132973D01*
X132348Y251226D01*
X157035Y249038D02*
Y249350D01*
X157348Y250288D01*
X157661Y250600D01*
X158285Y250913D01*
X158911D01*
X159535Y250600D01*
X159848Y250288D01*
X160161Y249350D01*
Y249038D01*
X159848Y248413D01*
X159535Y248100D01*
X158911Y247788D01*
X158285D01*
X157661Y248100D01*
X157348Y248413D01*
X157035Y249038D01*
X159223D02*
X158598Y248726D01*
X157973Y249038D01*
Y249663D01*
X158598Y249976D01*
X159223Y249663D01*
X169535Y247788D02*
X167035D01*
X169223Y249976D01*
X169535Y250600D01*
X169223Y251226D01*
X168598Y251538D01*
X167661D01*
X167035Y251226D01*
X172348Y248100D02*
X172973Y247788D01*
X173598D01*
X174223Y248100D01*
X174535Y248726D01*
Y250600D01*
X174223Y251226D01*
X173598Y251538D01*
X172973D01*
X172348Y251226D01*
X172035Y250600D01*
Y248726D01*
X172348Y248100D01*
X174223Y251226D01*
X179535Y247788D02*
X177035D01*
X179223Y249976D01*
X179535Y250600D01*
X179223Y251226D01*
X178598Y251538D01*
X177661D01*
X177035Y251226D01*
X184535Y247788D02*
X182035D01*
X184223Y249976D01*
X184535Y250600D01*
X184223Y251226D01*
X183598Y251538D01*
X182661D01*
X182035Y251226D01*
X192035Y247788D02*
Y251538D01*
X194223D01*
X194848Y251226D01*
X195161Y250600D01*
X194848Y249976D01*
X194223Y249663D01*
X192035D01*
X194223D02*
X195161Y247788D01*
X197035Y248726D02*
X197348Y248100D01*
X197973Y247788D01*
X199223D01*
X199848Y248100D01*
X200161Y248726D01*
X199848Y249350D01*
X199223Y249663D01*
X197973D01*
X197348Y249976D01*
X197035Y250600D01*
X197348Y251226D01*
X197973Y251538D01*
X199223D01*
X199848Y251226D01*
X200161Y250600D01*
X210161Y248413D02*
X209848Y248100D01*
X209223Y247788D01*
X208285D01*
X207661Y248100D01*
X207348Y248413D01*
X207035Y249038D01*
Y250288D01*
X207348Y250913D01*
X207661Y251226D01*
X208285Y251538D01*
X209223D01*
X209848Y251226D01*
X210161Y250913D01*
X212035Y248726D02*
X212348Y248100D01*
X212973Y247788D01*
X213598D01*
X214223Y248100D01*
X214535Y248726D01*
Y249350D01*
X214223Y249976D01*
X213598Y250288D01*
X212973D01*
X212348Y249976D01*
X212035Y249350D01*
Y248726D01*
X217035Y247788D02*
Y250288D01*
Y249976D02*
X217348Y250288D01*
X217973D01*
X218285Y249976D01*
Y249038D01*
Y249976D02*
X218598Y250288D01*
X219223D01*
X219535Y249976D01*
Y247788D01*
X222035Y250288D02*
Y246850D01*
Y248726D02*
X222348Y248100D01*
X222973Y247788D01*
X223598D01*
X224223Y248100D01*
X224535Y248726D01*
Y249350D01*
X224223Y249976D01*
X223598Y250288D01*
X222973D01*
X222348Y249976D01*
X222035Y249350D01*
Y248726D01*
X227035D02*
X227348Y248100D01*
X227973Y247788D01*
X228598D01*
X229223Y248100D01*
X229535Y248726D01*
Y249350D01*
X229223Y249976D01*
X228598Y250288D01*
X227973D01*
X227348Y249976D01*
X227035Y249350D01*
Y248726D01*
X232035Y247788D02*
Y250288D01*
Y249350D02*
X232348Y249976D01*
X232973Y250288D01*
X233598D01*
X234223Y249976D01*
X234535Y249350D01*
Y247788D01*
X239535Y248100D02*
X239223Y247788D01*
X238598D01*
X237973D01*
X237348Y248100D01*
X237035Y248726D01*
Y249663D01*
X237348Y249976D01*
X237973Y250288D01*
X238598D01*
X239223Y249976D01*
X239535Y249663D01*
Y249350D01*
X239223Y249038D01*
X238598Y248726D01*
X237973D01*
X237348Y249038D01*
X237035Y249350D01*
X242035Y247788D02*
Y250288D01*
Y249350D02*
X242348Y249976D01*
X242973Y250288D01*
X243598D01*
X244223Y249976D01*
X244535Y249350D01*
Y247788D01*
X247556Y250288D02*
X249015D01*
X248285Y250913D02*
Y248100D01*
X248598Y247788D01*
X248911D01*
X249223Y248100D01*
X252035D02*
X252661Y247788D01*
X253911D01*
X254535Y248100D01*
Y248726D01*
X253911Y249038D01*
X252661D01*
X252035Y249350D01*
Y249976D01*
X252661Y250288D01*
X253911D01*
X254535Y249976D01*
X296563Y10387D02*
Y14137D01*
X298438D01*
X299063Y13824D01*
X299375Y13512D01*
X299688Y12887D01*
Y11637D01*
X299375Y11012D01*
X299063Y10699D01*
X298438Y10387D01*
X296563D01*
X302188D02*
X303438D01*
X302813D02*
Y14137D01*
X302188Y13512D01*
D02*
D120*
X26780Y98819D02*
Y75197D01*
X50402D01*
Y98819D01*
X26780D01*
Y138189D02*
Y114567D01*
X50402D01*
Y138189D01*
X26780D01*
Y177559D02*
Y153937D01*
X50402D01*
Y177559D01*
X26780D01*
Y216929D02*
Y193307D01*
X50402D01*
Y216929D01*
X26780D01*
D02*
D121*
X14969Y95276D02*
G75*
G03*
Y96063I0J394D01*
G01*
Y95276D02*
G75*
G02*
Y96063I0J394D01*
G01*
Y134646D02*
G75*
G03*
Y135433I0J394D01*
G01*
Y134646D02*
G75*
G02*
Y135433I0J394D01*
G01*
Y174016D02*
G75*
G03*
Y174803I0J394D01*
G01*
Y174016D02*
G75*
G02*
Y174803I0J394D01*
G01*
Y213386D02*
G75*
G03*
Y214173I0J394D01*
G01*
Y213386D02*
G75*
G02*
Y214173I0J394D01*
G01*
X294397Y9252D02*
X290854D01*
D02*
D122*
X126958Y8456D02*
Y18881D01*
X129611Y18839D01*
X129968Y18833D01*
X131039Y18809D01*
X131924Y18766D01*
X132470Y18691D01*
X132781Y18605D01*
X132882Y18567D01*
X133235Y18437D01*
X134216Y17828D01*
X135184Y16742D01*
X135774Y15330D01*
X135974Y14042D01*
Y13191D01*
X135793Y11928D01*
X135244Y10572D01*
X134316Y9530D01*
X133347Y8923D01*
X133000Y8785D01*
X132898Y8745D01*
X132585Y8647D01*
X132055Y8567D01*
X131163Y8524D01*
X130039Y8500D01*
X129666Y8495D01*
X126958Y8456D01*
X131606Y10890D02*
X131789Y10940D01*
X132306Y11202D01*
X132813Y11709D01*
X133134Y12421D01*
X133266Y13116D01*
X133279Y13349D01*
X133298Y13703D01*
X133163Y14773D01*
X132635Y15776D01*
X131679Y16370D01*
X130637Y16565D01*
X129692D01*
Y10769D01*
X130431Y10770D01*
X130594D01*
X131081Y10806D01*
X131545Y10874D01*
X131606Y10890D01*
X137020Y8473D02*
Y18862D01*
X142815D01*
Y16571D01*
X141203Y16541D01*
X139591Y16510D01*
X139558Y15718D01*
X139525Y14924D01*
X142707D01*
Y12519D01*
X139526D01*
X139558Y11671D01*
X139591Y10824D01*
X141203Y10793D01*
X142815Y10763D01*
Y8473D01*
X137020D01*
X146068Y8366D02*
X145805Y8432D01*
X145063Y8801D01*
X144276Y9503D01*
X143764Y10409D01*
X143581Y11187D01*
Y11863D01*
X145070D01*
X145623Y11858D01*
X146020Y11830D01*
X146195Y11756D01*
X146250Y11653D01*
X146261Y11617D01*
X146305Y11462D01*
X146528Y10929D01*
X146814Y10630D01*
X146890Y10591D01*
X146965Y10552D01*
X147219Y10489D01*
X147534Y10511D01*
X147818Y10634D01*
X148053Y10838D01*
X148219Y11102D01*
X148298Y11404D01*
X148274Y11723D01*
X148176Y11968D01*
X148128Y12038D01*
X148106Y12069D01*
X147964Y12170D01*
X147636Y12362D01*
X147192Y12591D01*
X146808Y12772D01*
X146678Y12828D01*
X146322Y12984D01*
X145287Y13528D01*
X144392Y14223D01*
X143913Y14999D01*
X143772Y15707D01*
Y16162D01*
X143885Y16821D01*
X144231Y17562D01*
X144818Y18180D01*
X145437Y18584D01*
X145659Y18688D01*
X145760Y18736D01*
X146071Y18870D01*
X146423Y18971D01*
X146831Y19016D01*
X147265Y19024D01*
X147548D01*
X147967Y19014D01*
X148369Y18973D01*
X148701Y18888D01*
X148965Y18783D01*
X149050Y18743D01*
X149235Y18656D01*
X149756Y18315D01*
X150297Y17773D01*
X150666Y17120D01*
X150837Y16555D01*
X150863Y16362D01*
X150937Y15799D01*
X148301D01*
X148175Y16183D01*
X148137Y16294D01*
X147863Y16650D01*
X147419Y16784D01*
X147155D01*
X146808Y16635D01*
X146502Y16276D01*
X146417Y15835D01*
X146539Y15512D01*
X146617Y15443D01*
X146642Y15419D01*
X146801Y15323D01*
X147163Y15123D01*
X147652Y14871D01*
X148071Y14664D01*
X148212Y14595D01*
X148560Y14428D01*
X149577Y13859D01*
X150419Y13160D01*
X150844Y12373D01*
X150960Y11621D01*
Y11370D01*
X150959Y11133D01*
X150850Y10422D01*
X150520Y9644D01*
X149960Y9024D01*
X149374Y8641D01*
X149165Y8547D01*
X149023Y8485D01*
X148540Y8388D01*
X147667Y8295D01*
X146769Y8283D01*
X146236Y8323D01*
X146068Y8366D01*
X151674Y8473D02*
Y18862D01*
X154409D01*
Y8473D01*
X151674D01*
X159231Y8427D02*
X158958Y8500D01*
X158171Y8841D01*
X157228Y9471D01*
X156430Y10296D01*
X155933Y11028D01*
X155804Y11288D01*
X155737Y11424D01*
X155546Y11834D01*
X155402Y12251D01*
X155333Y12707D01*
X155306Y13202D01*
X155300Y13366D01*
X155291Y13606D01*
X155311Y14323D01*
X155429Y15136D01*
X155670Y15857D01*
X155938Y16378D01*
X156044Y16541D01*
X156382Y17061D01*
X157899Y18300D01*
X160265Y19034D01*
X162741Y18708D01*
X164491Y17747D01*
X164933Y17290D01*
X165026Y17195D01*
X165268Y16872D01*
X165616Y16329D01*
X165889Y15813D01*
X166000Y15560D01*
Y15454D01*
X165615Y15392D01*
X164801Y15362D01*
X163059D01*
X162771Y15739D01*
X162648Y15900D01*
X162146Y16276D01*
X161325Y16596D01*
X160435Y16670D01*
X159793Y16557D01*
X159603Y16470D01*
X159472Y16411D01*
X159112Y16161D01*
X158665Y15720D01*
X158301Y15197D01*
X158106Y14785D01*
X158064Y14640D01*
X157998Y14414D01*
X157935Y13692D01*
X158063Y12737D01*
X158420Y11875D01*
X158816Y11343D01*
X158981Y11205D01*
X159181Y11039D01*
X159919Y10706D01*
X160963Y10592D01*
X161973Y10852D01*
X162644Y11285D01*
X162813Y11477D01*
X162895Y11572D01*
X163122Y11876D01*
X163092Y12090D01*
X162624Y12176D01*
X161874Y12191D01*
X160096D01*
Y14378D01*
X166328D01*
Y13276D01*
X166035Y11924D01*
X165213Y10362D01*
X163950Y9156D01*
X162756Y8531D01*
X162333Y8421D01*
X162159Y8376D01*
X161622Y8305D01*
X160777Y8268D01*
X159934Y8308D01*
X159402Y8381D01*
X159231Y8427D01*
X167313Y8473D02*
Y18869D01*
X168482Y18837D01*
X169651Y18807D01*
X171594Y15648D01*
X171784Y15341D01*
X172354Y14418D01*
X172987Y13399D01*
X173427Y12699D01*
X173598Y12433D01*
X173609Y12423D01*
X173630Y12654D01*
X173635Y13331D01*
X173625Y14351D01*
X173607Y15294D01*
X173600Y15608D01*
X173520Y18862D01*
X176062D01*
Y8465D01*
X173710Y8527D01*
X171796Y11583D01*
X169882Y14639D01*
X169825Y8473D01*
X167313D01*
X179824Y8359D02*
X179543Y8420D01*
X178733Y8774D01*
X177890Y9466D01*
X177348Y10377D01*
X177156Y11178D01*
Y11863D01*
X179753D01*
X179821Y11435D01*
X179836Y11340D01*
X179955Y11063D01*
X180204Y10745D01*
X180525Y10524D01*
X180787Y10441D01*
X180954D01*
X181193Y10523D01*
X181473Y10685D01*
X181522Y10724D01*
X181589Y10781D01*
X181791Y11037D01*
X181858Y11339D01*
Y11537D01*
X181796Y11827D01*
X181561Y12145D01*
X181077Y12461D01*
X180475Y12750D01*
X180272Y12839D01*
X179952Y12978D01*
X179022Y13451D01*
X178173Y14042D01*
X177648Y14686D01*
X177410Y15255D01*
X177368Y15451D01*
X177331Y15627D01*
X177311Y16174D01*
X177454Y16863D01*
X177788Y17504D01*
X178166Y17953D01*
X178311Y18080D01*
X178570Y18308D01*
X179534Y18778D01*
X180950Y19014D01*
X182339Y18787D01*
X183250Y18325D01*
X183484Y18097D01*
X183626Y17959D01*
X184098Y17309D01*
X184324Y16571D01*
X184343Y16389D01*
X184404Y15799D01*
X181907D01*
X181691Y16264D01*
X181650Y16350D01*
X181446Y16647D01*
X181196Y16805D01*
X181133Y16822D01*
X181015Y16856D01*
X180625Y16820D01*
X180199Y16582D01*
X179944Y16189D01*
X179912Y15829D01*
X179948Y15724D01*
X179965Y15674D01*
X180066Y15537D01*
X180341Y15320D01*
X180852Y15024D01*
X181469Y14701D01*
X181676Y14596D01*
X182049Y14409D01*
X183135Y13772D01*
X184007Y13014D01*
X184407Y12171D01*
X184474Y11364D01*
X184456Y11097D01*
X184449Y10992D01*
X184356Y10458D01*
X184209Y10000D01*
X184176Y9933D01*
X184117Y9819D01*
X183884Y9501D01*
X183483Y9098D01*
X183018Y8760D01*
X182656Y8569D01*
X182528Y8524D01*
X182388Y8475D01*
X181942Y8391D01*
X181189Y8313D01*
X180430Y8299D01*
X179972Y8329D01*
X179824Y8359D01*
X185577Y8473D02*
Y18887D01*
X188120Y18837D01*
X188463Y18831D01*
X189496Y18804D01*
X190345Y18757D01*
X190869Y18678D01*
X191175Y18588D01*
X191274Y18549D01*
X191462Y18477D01*
X192279Y17909D01*
X192907Y17091D01*
X193001Y16893D01*
X193041Y16808D01*
X193147Y16548D01*
X193234Y16223D01*
X193274Y15836D01*
X193284Y15439D01*
Y15307D01*
X193283Y15176D01*
X193271Y14782D01*
X193229Y14393D01*
X193142Y14063D01*
X193037Y13800D01*
X192998Y13715D01*
X192941Y13594D01*
X192727Y13252D01*
X192374Y12793D01*
X192029Y12441D01*
X191844Y12300D01*
X191739D01*
X191611Y12368D01*
X191222Y12549D01*
X190672Y12819D01*
X190183Y13065D01*
X190022Y13147D01*
X188365Y13995D01*
X189280Y14054D01*
X189408Y14063D01*
X189793Y14097D01*
X190107Y14157D01*
X190314Y14271D01*
X190465Y14415D01*
X190511Y14466D01*
X190571Y14535D01*
X190759Y14844D01*
X190826Y15182D01*
Y15440D01*
X190713Y15876D01*
X190362Y16269D01*
X189744Y16493D01*
X189058Y16565D01*
X188830D01*
X188092Y16566D01*
Y13992D01*
X189671Y13009D01*
X189822Y12916D01*
X190277Y12630D01*
X190707Y12344D01*
X190959Y12137D01*
X191029Y11994D01*
X190913Y11902D01*
X190610Y11844D01*
X190117Y11809D01*
X189602Y11787D01*
X189431Y11779D01*
X188092Y11727D01*
Y8473D01*
X185577D01*
X191735Y8391D02*
X191755Y8440D01*
X191962Y8947D01*
X192244Y9642D01*
X192302Y9784D01*
X192359Y9927D01*
X192622Y10546D01*
X192790Y10904D01*
X192802Y10915D01*
X192811Y10928D01*
X192940Y10882D01*
X193263Y10724D01*
X193721Y10466D01*
X194130Y10219D01*
X194266Y10133D01*
X195651Y9259D01*
X195289Y9146D01*
X195169Y9108D01*
X194813Y8997D01*
X194253Y8824D01*
X193653Y8639D01*
X193059Y8459D01*
X192515Y8294D01*
X192067Y8160D01*
X191759Y8069D01*
X191666Y8035D01*
X191636D01*
X191645Y8139D01*
X191714Y8343D01*
X191735Y8391D01*
X194517Y10830D02*
X194380Y10899D01*
X193975Y11116D01*
X193531Y11370D01*
X193232Y11567D01*
X193122Y11649D01*
Y11759D01*
X193233Y12006D01*
X193537Y12801D01*
X193987Y13943D01*
X194397Y14970D01*
X194536Y15311D01*
X195950Y18807D01*
X196408Y18841D01*
X196865Y18875D01*
X196786Y15123D01*
X196778Y14752D01*
X196749Y13634D01*
X196709Y12353D01*
X196670Y11417D01*
X196646Y11018D01*
X196637Y10961D01*
X196567Y10552D01*
X195476Y11927D01*
X195368Y12062D01*
X195043Y12466D01*
X194674Y12918D01*
X194406Y13234D01*
X194294Y13359D01*
X194280Y13367D01*
X194328Y13191D01*
X194533Y12779D01*
X194591Y12674D01*
X194742Y12402D01*
X195192Y11580D01*
X195624Y10776D01*
X195879Y10284D01*
X195949Y10119D01*
X195944Y10120D01*
X195824Y10177D01*
X195512Y10330D01*
X195060Y10556D01*
X194652Y10761D01*
X194517Y10830D01*
X198605Y11070D02*
X198669Y11187D01*
X199052Y11878D01*
X199420Y12531D01*
X199475Y12628D01*
X199531Y12726D01*
X199748Y13144D01*
X199842Y13379D01*
X199830Y13391D01*
X199761D01*
X199756Y13385D01*
X199751Y13379D01*
X199650Y13253D01*
X199391Y12928D01*
X199017Y12459D01*
X198680Y12035D01*
X198567Y11895D01*
X197415Y10452D01*
X197345Y13645D01*
X197337Y13975D01*
X197312Y14965D01*
X197274Y16198D01*
X197239Y17206D01*
X197217Y17711D01*
X197208Y17850D01*
X197143Y18862D01*
X198105D01*
X199565Y15249D01*
X199706Y14899D01*
X200128Y13844D01*
X200583Y12686D01*
X200884Y11898D01*
X200989Y11603D01*
X200983Y11598D01*
X200964Y11581D01*
X200844Y11519D01*
X200525Y11353D01*
X200086Y11132D01*
X199589Y10884D01*
X199090Y10640D01*
X198653Y10427D01*
X198336Y10279D01*
X198234Y10222D01*
X198201D01*
X198293Y10472D01*
X198540Y10954D01*
X198605Y11070D01*
X200417Y8633D02*
X200238Y8690D01*
X199700Y8861D01*
X199107Y9055D01*
X198698Y9194D01*
X198542Y9250D01*
X198537Y9256D01*
X198626Y9340D01*
X198906Y9537D01*
X199332Y9820D01*
X199728Y10072D01*
X199860Y10155D01*
X199992Y10238D01*
X200393Y10485D01*
X200836Y10750D01*
X201141Y10920D01*
X201259Y10978D01*
X201264Y10972D01*
X201281Y10954D01*
X201333Y10833D01*
X201472Y10511D01*
X201658Y10065D01*
X201867Y9559D01*
X202070Y9052D01*
X202246Y8603D01*
X202371Y8276D01*
X202417Y8166D01*
Y8113D01*
X202393Y8063D01*
X202187Y8090D01*
X201595Y8263D01*
X200711Y8541D01*
X200417Y8633D01*
X202746Y8473D02*
Y11956D01*
X204096Y12784D01*
X204287Y12903D01*
X204869Y13250D01*
X205352Y13498D01*
X205715Y13595D01*
X206021Y13612D01*
X206270D01*
X206711Y13659D01*
X207124Y13749D01*
X207176Y13770D01*
X207304Y13823D01*
X207635Y14112D01*
X207915Y14624D01*
X207987Y15221D01*
X207892Y15681D01*
X207824Y15813D01*
X207763Y15931D01*
X207161Y16364D01*
X206227Y16563D01*
X206000D01*
X205262Y16565D01*
Y13723D01*
X204060Y13120D01*
X203943Y13062D01*
X203589Y12888D01*
X203195Y12696D01*
X202919Y12567D01*
X202832Y12519D01*
X202796D01*
X202781Y12770D01*
X202763Y13454D01*
X202751Y14466D01*
X202746Y15393D01*
Y18885D01*
X205234Y18835D01*
X205654Y18828D01*
X206918Y18779D01*
X207996Y18661D01*
X208697Y18439D01*
X209124Y18173D01*
X209252Y18068D01*
X209512Y17854D01*
X210097Y16975D01*
X210466Y15617D01*
X210337Y14211D01*
X209912Y13237D01*
X209694Y12978D01*
X209623Y12895D01*
X209369Y12685D01*
X208930Y12394D01*
X208490Y12171D01*
X208244Y12081D01*
X208120D01*
X207996Y11996D01*
Y11924D01*
X208098Y11794D01*
X208381Y11407D01*
X208798Y10865D01*
X209179Y10382D01*
X209308Y10222D01*
X209435Y10064D01*
X209818Y9585D01*
X210234Y9053D01*
X210516Y8683D01*
X210620Y8570D01*
Y8522D01*
X210193Y8490D01*
X209423Y8473D01*
X207715D01*
X206590Y10056D01*
X206479Y10211D01*
X206145Y10676D01*
X205765Y11193D01*
X205491Y11554D01*
X205378Y11694D01*
X205364Y11702D01*
X205289Y11299D01*
X205262Y10414D01*
Y8473D01*
X202746D01*
X211385Y8472D02*
Y18862D01*
X214006D01*
X214035Y16496D01*
X214065Y14131D01*
X215541Y16493D01*
X217018Y18857D01*
X218357Y18859D01*
X218541Y18860D01*
X219304Y18845D01*
X219698Y18816D01*
Y18751D01*
X219564Y18584D01*
X219201Y18023D01*
X218664Y17206D01*
X218172Y16465D01*
X218008Y16218D01*
X216319Y13684D01*
X216514Y13402D01*
X216541Y13364D01*
X216710Y13120D01*
X217101Y12561D01*
X217630Y11805D01*
X218087Y11151D01*
X218239Y10933D01*
X218389Y10719D01*
X218840Y10074D01*
X219343Y9348D01*
X219698Y8836D01*
X219837Y8629D01*
X219849Y8609D01*
X219853Y8601D01*
X219817Y8543D01*
X219598Y8502D01*
X219148Y8479D01*
X218601Y8473D01*
X216908D01*
X214065Y12999D01*
X214035Y10736D01*
X214006Y8472D01*
X211385D01*
D02*
D123*
X45637Y28352D02*
X46511Y28529D01*
X47226Y29010D01*
X47707Y29724D01*
X47883Y30598D01*
Y55229D01*
X47707Y56103D01*
X47226Y56817D01*
X46511Y57299D01*
X45637Y57475D01*
X14418D01*
X13543Y57299D01*
X12829Y56817D01*
X12348Y56103D01*
X12171Y55229D01*
Y30598D01*
X12348Y29724D01*
X12829Y29010D01*
X13543Y28529D01*
X14418Y28352D01*
X45637D01*
X47190Y55230D02*
X47068Y55834D01*
X46735Y56328D01*
X46242Y56660D01*
X45637Y56782D01*
X14418D01*
X13813Y56660D01*
X13319Y56328D01*
X12987Y55834D01*
X12865Y55230D01*
Y30599D01*
X12987Y29994D01*
X13319Y29501D01*
X13813Y29168D01*
X14418Y29046D01*
X45637D01*
X46242Y29168D01*
X46735Y29501D01*
X47068Y29994D01*
X47190Y30599D01*
Y55230D01*
X0Y0D02*
M02*
