G04 DesignSpark PCB PRO Gerber Version 10.0 Build 5299*
G04 #@! TF.Part,Single*
G04 #@! TF.FileFunction,Copper,L1,Top*
G04 #@! TF.FilePolarity,Positive*
%FSLAX35Y35*%
%MOIN*%
%ADD121C,0.00787*%
%ADD124C,0.00984*%
%ADD126C,0.01500*%
%ADD128C,0.02165*%
G04 #@! TA.AperFunction,ViaPad*
%ADD125C,0.03543*%
%ADD127C,0.05600*%
G04 #@! TA.AperFunction,ComponentPad*
%ADD129C,0.06102*%
G04 #@! TA.AperFunction,SMDPad,CuDef*
%ADD131R,0.03543X0.01575*%
%ADD130R,0.08268X0.05512*%
G04 #@! TD.AperFunction*
X0Y0D02*
D02*
D121*
X9687Y251993D02*
Y8637D01*
X12286Y6038D01*
X367847D01*
X370446Y8637D01*
Y187689D01*
G75*
G02*
X370283Y187475I-2426J1681D01*
G01*
Y42717D01*
G75*
G02*
X369618Y41114I-2264J0D01*
G01*
X366827Y38323D01*
G75*
G02*
X360933Y38583I-2941J260D01*
G01*
G75*
G02*
X363625Y41524I2953J0D01*
G01*
X365756Y43655D01*
Y187475D01*
G75*
G02*
X365067Y189370I2264J1896D01*
G01*
G75*
G02*
X370446Y191052I2953J0D01*
G01*
Y251993D01*
X367847Y254593D01*
X361265D01*
X365263Y250595D01*
G75*
G02*
X365756Y249410I-1181J-1185D01*
G01*
Y232945D01*
G75*
G02*
X367035Y230512I-1673J-2433D01*
G01*
G75*
G02*
X361130I-2953J0D01*
G01*
G75*
G02*
X362409Y232945I2953J0D01*
G01*
Y248717D01*
X358862Y252264D01*
X168319D01*
X160047Y243993D01*
Y78935D01*
G75*
G02*
X161148Y79307I1476J-2557D01*
G01*
G75*
G02*
X161031Y79922I1557J615D01*
G01*
G75*
G02*
Y79925I793J2D01*
G01*
Y243504D01*
G75*
G02*
X161523Y244689I1673J0D01*
G01*
X165653Y248819D01*
G75*
G02*
X166838Y249311I1185J-1181D01*
G01*
X312311D01*
G75*
G02*
X313496Y248819I0J-1673D01*
G01*
X313742Y248573D01*
G75*
G02*
X317232Y245670I537J-2904D01*
G01*
G75*
G02*
X311326I-2953J0D01*
G01*
G75*
G02*
X311341Y245965I2953J-2D01*
G01*
X167531D01*
X164378Y242811D01*
Y80615D01*
X166053Y78939D01*
G75*
G02*
X166543Y77756I-1183J-1183D01*
G01*
G75*
G02*
Y77753I-793J-2D01*
G01*
Y47150D01*
X167531Y46162D01*
X189082D01*
G75*
G02*
X190267Y45670I0J-1673D01*
G01*
X192822Y43115D01*
G75*
G02*
X193315Y41930I-1181J-1185D01*
G01*
Y41505D01*
G75*
G02*
X200850Y38859I3303J-2646D01*
G01*
G75*
G02*
X193315Y36213I-4232J0D01*
G01*
Y33859D01*
G75*
G02*
X192822Y32674I-1673J0D01*
G01*
X190556Y30407D01*
G75*
G02*
X183275Y26263I-3939J-1549D01*
G01*
Y23528D01*
X185838Y20965D01*
X247838D01*
X250007Y23134D01*
Y25428D01*
G75*
G02*
X241795Y28859I-3390J3431D01*
G01*
G75*
G02*
X250007Y32289I4823J0D01*
G01*
Y36324D01*
G75*
G02*
X242385Y38859I-3390J2534D01*
G01*
G75*
G02*
X250007Y41393I4232J0D01*
G01*
Y44488D01*
G75*
G02*
X250500Y45673I1673J0D01*
G01*
X251583Y46756D01*
Y49930D01*
G75*
G02*
X247476Y50689I-1674J2433D01*
G01*
X177736D01*
G75*
G02*
X172350Y52363I-2433J1673D01*
G01*
G75*
G02*
X177736Y54036I2953J0D01*
G01*
X195459D01*
G75*
G02*
X195736Y58071I2285J1870D01*
G01*
G75*
G02*
X194791Y60237I2007J2165D01*
G01*
G75*
G02*
X200177Y61910I2953J0D01*
G01*
X216570D01*
G75*
G02*
X221956Y60237I2433J-1673D01*
G01*
G75*
G02*
X221011Y58071I-2953J0D01*
G01*
G75*
G02*
X221289Y54036I-2007J-2165D01*
G01*
X247476D01*
G75*
G02*
X251583Y54795I2433J-1673D01*
G01*
Y59378D01*
G75*
G02*
X250971Y63681I1673J2433D01*
G01*
X248996D01*
G75*
G02*
X243610Y65355I-2433J1673D01*
G01*
G75*
G02*
X248996Y67028I2953J0D01*
G01*
X259161D01*
G75*
G02*
X260346Y66536I0J-1673D01*
G01*
X262704Y64178D01*
G75*
G02*
X263196Y62993I-1181J-1185D01*
G01*
Y66339D01*
G75*
G02*
X263689Y67524I1673J0D01*
G01*
X268606Y72441D01*
G75*
G02*
X269791Y72933I1185J-1181D01*
G01*
X282484D01*
X287015Y77465D01*
Y206788D01*
X283272Y210531D01*
X234035D01*
G75*
G02*
X228937Y213477I-2433J1673D01*
G01*
G75*
G02*
X224712Y216142I-1272J2665D01*
G01*
G75*
G02*
X230098Y217815I2953J0D01*
G01*
X287902D01*
G75*
G02*
X289087Y217323I0J-1673D01*
G01*
X292626Y213784D01*
G75*
G02*
X293118Y212599I-1181J-1185D01*
G01*
Y72441D01*
G75*
G02*
X292626Y71256I-1673J0D01*
G01*
X288299Y66930D01*
G75*
G02*
X287114Y66437I-1185J1181D01*
G01*
X280460D01*
X278291Y64268D01*
Y42746D01*
G75*
G02*
X279535Y41925I-1673J-3887D01*
G01*
Y42914D01*
G75*
G02*
X280027Y44099I1673J0D01*
G01*
X281992Y46063D01*
G75*
G02*
X283177Y46556I1185J-1181D01*
G01*
X294984D01*
G75*
G02*
X296171Y46065I3J-1673D01*
G01*
X297746Y44491D01*
G75*
G02*
X298236Y43307I-1183J-1183D01*
G01*
G75*
G02*
Y43304I-793J-2D01*
G01*
Y42769D01*
G75*
G02*
X300850Y38859I-1618J-3911D01*
G01*
G75*
G02*
X293118Y36479I-4232J0D01*
G01*
Y31238D01*
G75*
G02*
X300850Y28859I3500J-2380D01*
G01*
G75*
G02*
X293118Y26479I-4232J0D01*
G01*
Y21166D01*
X293807Y20477D01*
G75*
G02*
X294299Y19292I-1181J-1185D01*
G01*
Y16929D01*
X295579D01*
Y16634D01*
X317523D01*
X321661Y20772D01*
Y40158D01*
G75*
G02*
X322153Y41343I1673J0D01*
G01*
X325693Y44882D01*
G75*
G02*
X326878Y45374I1185J-1181D01*
G01*
X351776D01*
X356307Y49906D01*
Y113087D01*
X352169Y117224D01*
X348996D01*
G75*
G02*
X348668Y116827I-2432J1674D01*
G01*
G75*
G02*
X345120Y110741I-2105J-2850D01*
G01*
Y106907D01*
G75*
G02*
X349515Y104331I1443J-2576D01*
G01*
G75*
G02*
X347055Y101419I-2953J0D01*
G01*
Y57874D01*
G75*
G02*
X346563Y56689I-1673J0D01*
G01*
X342743Y52869D01*
G75*
G02*
X341282Y52264I-1298J1068D01*
G01*
X331162D01*
G75*
G02*
X332980Y49409I-1331J-2855D01*
G01*
G75*
G02*
X326681I-3150J0D01*
G01*
G75*
G02*
X328500Y52264I3150J0D01*
G01*
X322617D01*
G75*
G02*
X317232Y53937I-2433J1674D01*
G01*
G75*
G02*
X321333Y56658I2953J0D01*
G01*
G75*
G02*
X320053Y60236I4364J3578D01*
G01*
Y244488D01*
G75*
G02*
X325697Y250132I5644J0D01*
G01*
X339476D01*
G75*
G02*
X345120Y244488I0J-5644D01*
G01*
Y121474D01*
G75*
G02*
X348996Y120571I1443J-2576D01*
G01*
X352862D01*
G75*
G02*
X354047Y120079I0J-1673D01*
G01*
X359161Y114965D01*
G75*
G02*
X359654Y113780I-1181J-1185D01*
G01*
Y104437D01*
G75*
G02*
X365264Y103150I2657J-1287D01*
G01*
G75*
G02*
X363984Y100717I-2953J0D01*
G01*
Y48426D01*
G75*
G02*
X363492Y47241I-1673J0D01*
G01*
X356803Y40552D01*
G75*
G02*
X355618Y40059I-1185J1181D01*
G01*
X329539D01*
X328157Y38678D01*
Y19685D01*
G75*
G02*
X327665Y18500I-1673J0D01*
G01*
X319007Y9843D01*
G75*
G02*
X317822Y9351I-1185J1181D01*
G01*
X295579D01*
Y9055D01*
X289673D01*
Y9458D01*
G75*
G02*
X289078Y9843I591J1566D01*
G01*
X288488Y10433D01*
X282783D01*
Y15551D01*
X287803D01*
Y17811D01*
X287208Y18406D01*
X283570D01*
G75*
G02*
X282385Y18898I0J1673D01*
G01*
X280027Y21256D01*
G75*
G02*
X279535Y22441I1181J1185D01*
G01*
Y25793D01*
G75*
G02*
X272385Y28859I-2917J3066D01*
G01*
G75*
G02*
X279535Y31925I4232J0D01*
G01*
Y35793D01*
G75*
G02*
X272385Y38859I-2917J3066D01*
G01*
G75*
G02*
X274944Y42746I4232J0D01*
G01*
Y64961D01*
G75*
G02*
X275437Y66146I1673J0D01*
G01*
X278582Y69292D01*
G75*
G02*
X278980Y69587I1185J-1181D01*
G01*
X270484D01*
X266543Y65646D01*
Y48103D01*
G75*
G02*
X267036Y43663I-1673J-2433D01*
G01*
G75*
G02*
X271441Y38859I-419J-4805D01*
G01*
G75*
G02*
X263196Y35459I-4823J0D01*
G01*
Y31350D01*
G75*
G02*
X270850Y28859I3421J-2491D01*
G01*
G75*
G02*
X263196Y26367I-4232J0D01*
G01*
Y25197D01*
G75*
G02*
X262704Y24012I-1673J0D01*
G01*
X254441Y15748D01*
G75*
G02*
X253256Y15256I-1185J1181D01*
G01*
X180027D01*
G75*
G02*
X178842Y15748I0J1673D01*
G01*
X175303Y19288D01*
G75*
G02*
X174811Y20473I1181J1185D01*
G01*
Y25031D01*
G75*
G02*
X172385Y28859I1807J3827D01*
G01*
G75*
G02*
X179929Y31495I4232J0D01*
G01*
Y32788D01*
X177893Y34823D01*
G75*
G02*
X175115Y42815I-1276J4035D01*
G01*
X168120D01*
G75*
G02*
X170850Y38859I-1502J-3957D01*
G01*
G75*
G02*
X163196Y36367I-4232J0D01*
G01*
Y33465D01*
G75*
G02*
X162704Y32280I-1673J0D01*
G01*
X160630Y30206D01*
G75*
G02*
X160850Y28859I-4013J-1347D01*
G01*
G75*
G02*
X152385I-4232J0D01*
G01*
G75*
G02*
X158393Y32701I4232J0D01*
G01*
X159850Y34158D01*
Y36126D01*
G75*
G02*
X152385Y38859I-3232J2732D01*
G01*
G75*
G02*
X159850Y41591I4232J0D01*
G01*
Y53544D01*
G75*
G02*
X159557Y53148I-1476J788D01*
G01*
X156801Y50392D01*
G75*
G02*
X155614Y49902I-1183J1183D01*
G01*
X144893D01*
X143315Y48323D01*
Y41505D01*
G75*
G02*
X150850Y38859I3303J-2646D01*
G01*
G75*
G02*
X143315Y36213I-4232J0D01*
G01*
Y33859D01*
G75*
G02*
X142822Y32674I-1673J0D01*
G01*
X140556Y30407D01*
G75*
G02*
X140850Y28859I-3939J-1549D01*
G01*
G75*
G02*
X132385I-4232J0D01*
G01*
G75*
G02*
X138200Y32784I4232J0D01*
G01*
X139968Y34552D01*
Y36273D01*
G75*
G02*
X132385Y38859I-3350J2586D01*
G01*
G75*
G02*
X134450Y42494I4232J0D01*
G01*
G75*
G02*
X133964Y42422I-486J1602D01*
G01*
X128902D01*
G75*
G02*
X130850Y38859I-2284J-3563D01*
G01*
G75*
G02*
X122385I-4232J0D01*
G01*
G75*
G02*
X125008Y42773I4232J0D01*
G01*
G75*
G02*
X125500Y43902I1672J-57D01*
G01*
X126874Y45276D01*
G75*
G02*
X128059Y45768I1185J-1181D01*
G01*
X133271D01*
X140165Y52662D01*
Y77489D01*
G75*
G02*
X138885Y79922I1673J2433D01*
G01*
G75*
G02*
X144791I2953J0D01*
G01*
G75*
G02*
X143511Y77489I-2953J0D01*
G01*
Y53100D01*
G75*
G02*
X144200Y53248I689J-1525D01*
G01*
X154925D01*
X156700Y55024D01*
Y244685D01*
G75*
G02*
X157193Y245870I1673J0D01*
G01*
X165915Y254593D01*
X12286D01*
X9687Y251993D01*
X361326Y210630D02*
G75*
G02*
X367232I2953J0D01*
G01*
G75*
G02*
X361326I-2953J0D01*
G01*
X354830Y238583D02*
G75*
G02*
X360736I2953J0D01*
G01*
G75*
G02*
X354830I-2953J0D01*
G01*
X186523Y95670D02*
G75*
G02*
X192429I2953J0D01*
G01*
G75*
G02*
X186523I-2953J0D01*
G01*
X192035Y225591D02*
G75*
G02*
X197941I2953J0D01*
G01*
G75*
G02*
X192035I-2953J0D01*
G01*
Y234646D02*
G75*
G02*
X197941I2953J0D01*
G01*
G75*
G02*
X192035I-2953J0D01*
G01*
X215201Y87526D02*
G75*
G02*
X218807Y84646I653J-2880D01*
G01*
G75*
G02*
X212901I-2953J0D01*
G01*
G75*
G02*
X212974Y85299I2953J1D01*
G01*
X210607Y87666D01*
G75*
G02*
X210146Y88780I1113J1114D01*
G01*
Y97109D01*
G75*
G02*
X208768Y99607I1575J2498D01*
G01*
G75*
G02*
X214673I2953J0D01*
G01*
G75*
G02*
X213295Y97109I-2953J0D01*
G01*
Y89432D01*
X215201Y87526D01*
X211326Y220079D02*
G75*
G02*
X217232I2953J0D01*
G01*
G75*
G02*
X211326I-2953J0D01*
G01*
X302385Y28859D02*
G75*
G02*
X310850I4232J0D01*
G01*
G75*
G02*
X302385I-4232J0D01*
G01*
Y38859D02*
G75*
G02*
X310850I4232J0D01*
G01*
G75*
G02*
X302385I-4232J0D01*
G01*
X166051Y187008D02*
G75*
G02*
X171956I2953J0D01*
G01*
G75*
G02*
X166051I-2953J0D01*
G01*
X192385Y28859D02*
G75*
G02*
X200850I4232J0D01*
G01*
G75*
G02*
X192385I-4232J0D01*
G01*
X202385D02*
G75*
G02*
X210850I4232J0D01*
G01*
G75*
G02*
X202385I-4232J0D01*
G01*
Y38859D02*
G75*
G02*
X210850I4232J0D01*
G01*
G75*
G02*
X202385I-4232J0D01*
G01*
X211795Y28859D02*
G75*
G02*
X221441I4823J0D01*
G01*
G75*
G02*
X211795I-4823J0D01*
G01*
X212385Y38859D02*
G75*
G02*
X220850I4232J0D01*
G01*
G75*
G02*
X212385I-4232J0D01*
G01*
X222385Y28859D02*
G75*
G02*
X230850I4232J0D01*
G01*
G75*
G02*
X222385I-4232J0D01*
G01*
Y38859D02*
G75*
G02*
X230850I4232J0D01*
G01*
G75*
G02*
X222385I-4232J0D01*
G01*
X232385Y28859D02*
G75*
G02*
X240850I4232J0D01*
G01*
G75*
G02*
X232385I-4232J0D01*
G01*
Y38859D02*
G75*
G02*
X240850I4232J0D01*
G01*
G75*
G02*
X232385I-4232J0D01*
G01*
X238492Y121654D02*
G75*
G02*
X244398I2953J0D01*
G01*
G75*
G02*
X238492I-2953J0D01*
G01*
X241248Y110630D02*
G75*
G02*
X247154I2953J0D01*
G01*
G75*
G02*
X241248I-2953J0D01*
G01*
X240854Y175591D02*
G75*
G02*
X246760I2953J0D01*
G01*
G75*
G02*
X240854I-2953J0D01*
G01*
X250303Y81890D02*
G75*
G02*
X256209I2953J0D01*
G01*
G75*
G02*
X250303I-2953J0D01*
G01*
X267232Y182678D02*
G75*
G02*
X273138I2953J0D01*
G01*
G75*
G02*
X267232I-2953J0D01*
G01*
X331996Y18110D02*
G75*
G02*
X346957I7480J0D01*
G01*
G75*
G02*
X331996I-7480J0D01*
G01*
X161795Y28859D02*
G75*
G02*
X171441I4823J0D01*
G01*
G75*
G02*
X161795I-4823J0D01*
G01*
X141795D02*
G75*
G02*
X151441I4823J0D01*
G01*
G75*
G02*
X141795I-4823J0D01*
G01*
X14279Y242520D02*
G75*
G02*
X29240I7480J0D01*
G01*
G75*
G02*
X14279I-7480J0D01*
G01*
X14772Y82677D02*
X26583D01*
Y73622D01*
X14772D01*
Y82677D01*
X26398Y64606D02*
G75*
G02*
X31319I2461J0D01*
G01*
G75*
G02*
X26398I-2461J0D01*
G01*
X14772Y122047D02*
X26583D01*
Y112992D01*
X14772D01*
Y122047D01*
X107575Y68246D02*
G75*
G02*
X111130Y65355I602J-2891D01*
G01*
G75*
G02*
X105744Y63681I-2953J0D01*
G01*
X82389D01*
G75*
G02*
X81204Y64174I0J1673D01*
G01*
X71563Y73815D01*
G75*
G02*
X71070Y75000I1181J1185D01*
G01*
Y78079D01*
G75*
G02*
X67724Y82945I-1673J2433D01*
G01*
Y97142D01*
X64965Y99902D01*
X22748D01*
X22649Y99803D01*
X25992D01*
Y91929D01*
X15362D01*
Y99803D01*
X19004D01*
Y100194D01*
G75*
G02*
Y100196I793J2D01*
G01*
G75*
G02*
Y100197I683J0D01*
G01*
G75*
G02*
X19494Y101380I1673J0D01*
G01*
X20872Y102758D01*
G75*
G02*
X22058Y103248I1183J-1183D01*
G01*
X65658D01*
G75*
G02*
X66843Y102756I0J-1673D01*
G01*
X70579Y99020D01*
G75*
G02*
X71070Y97871I-1181J-1185D01*
G01*
Y122142D01*
X69295Y123917D01*
X21858D01*
G75*
G02*
X20673Y124409I0J1673D01*
G01*
X19496Y125587D01*
G75*
G02*
X19010Y126632I1181J1185D01*
G01*
G75*
G02*
X18571Y131299I1569J2502D01*
G01*
X15362D01*
Y139173D01*
X25992D01*
Y131299D01*
X22586D01*
G75*
G02*
X22864Y127264I-2007J-2165D01*
G01*
X69984D01*
G75*
G02*
X71171Y126774I3J-1673D01*
G01*
X72645Y125299D01*
Y154654D01*
G75*
G02*
X72154Y159095I1673J2433D01*
G01*
X70323Y160926D01*
X26583D01*
Y152362D01*
X14772D01*
Y161417D01*
X22642D01*
X22642Y161418D01*
X19496Y164563D01*
G75*
G02*
X19004Y165748I1181J1185D01*
G01*
Y170669D01*
X15362D01*
Y178543D01*
X25992D01*
Y170669D01*
X22350D01*
Y166441D01*
X24520Y164272D01*
X71016D01*
G75*
G02*
X72201Y163780I0J-1673D01*
G01*
X73236Y162745D01*
Y184378D01*
G75*
G02*
Y189244I1673J2433D01*
G01*
Y201276D01*
X70672Y203839D01*
X22547D01*
G75*
G02*
X21362Y204331I0J1673D01*
G01*
X19496Y206197D01*
G75*
G02*
X19004Y207382I1181J1185D01*
G01*
Y210039D01*
X15362D01*
Y217913D01*
X25992D01*
Y210039D01*
X22350D01*
Y208075D01*
X23240Y207185D01*
X71365D01*
G75*
G02*
X72550Y206693I0J-1673D01*
G01*
X76090Y203154D01*
G75*
G02*
X76582Y201969I-1181J-1185D01*
G01*
Y189244D01*
G75*
G02*
Y184378I-1673J-2433D01*
G01*
Y162701D01*
X79043Y160241D01*
G75*
G02*
X79535Y159056I-1181J-1185D01*
G01*
Y75693D01*
X81901Y73327D01*
X98854Y73327D01*
G75*
G02*
X104240Y71654I2433J-1673D01*
G01*
G75*
G02*
X104231Y71430I-2953J2D01*
G01*
G75*
G02*
X107586Y68504I402J-2925D01*
G01*
G75*
G02*
X107575Y68246I-2951J1D01*
G01*
X51189Y121457D02*
X61819D01*
Y113583D01*
X51189D01*
Y121457D01*
X43885Y144134D02*
G75*
G02*
X49791I2953J0D01*
G01*
G75*
G02*
X43885I-2953J0D01*
G01*
X51189Y139173D02*
X61819D01*
Y131299D01*
X51189D01*
Y139173D01*
Y160827D02*
X61819D01*
Y152953D01*
X51189D01*
Y160827D01*
X25106Y141733D02*
G75*
G02*
X31011I2953J0D01*
G01*
G75*
G02*
X25106I-2953J0D01*
G01*
X51189Y178543D02*
X61819D01*
Y170669D01*
X51189D01*
Y178543D01*
Y200197D02*
X61819D01*
Y192323D01*
X51189D01*
Y200197D01*
X26398Y87362D02*
G75*
G02*
X31319I2461J0D01*
G01*
G75*
G02*
X26398I-2461J0D01*
G01*
X40460Y66536D02*
G75*
G02*
X46366I2953J0D01*
G01*
G75*
G02*
X40460I-2953J0D01*
G01*
Y87993D02*
G75*
G02*
X46366I2953J0D01*
G01*
G75*
G02*
X40460I-2953J0D01*
G01*
X51189Y82087D02*
X61819D01*
Y74213D01*
X51189D01*
Y82087D01*
X57783Y49409D02*
G75*
G02*
X64082I3150J0D01*
G01*
G75*
G02*
X57783I-3150J0D01*
G01*
X51189Y99803D02*
X61819D01*
Y91929D01*
X51189D01*
Y99803D01*
X14772Y200787D02*
X26583D01*
Y191732D01*
X14772D01*
Y200787D01*
X143118Y214657D02*
G75*
G02*
X144397Y212224I-1673J-2433D01*
G01*
G75*
G02*
X138492I-2953J0D01*
G01*
G75*
G02*
X139771Y214657I2953J0D01*
G01*
Y220567D01*
X137208Y223130D01*
X127468D01*
G75*
G02*
X127866Y222835I-788J-1476D01*
G01*
X132389Y218311D01*
G75*
G02*
X132881Y217126I-1181J-1185D01*
G01*
Y170937D01*
G75*
G02*
X133104Y166241I-1673J-2433D01*
G01*
X137507D01*
G75*
G02*
X138693Y165748I0J-1673D01*
G01*
X139333Y165109D01*
G75*
G02*
X142822Y162205I537J-2904D01*
G01*
G75*
G02*
X136917I-2953J0D01*
G01*
G75*
G02*
X136966Y162742I2952J0D01*
G01*
X136815Y162894D01*
X128846D01*
G75*
G02*
X127661Y163386I0J1673D01*
G01*
X126484Y164563D01*
G75*
G02*
X125992Y165748I1181J1185D01*
G01*
Y170276D01*
G75*
G02*
X126484Y171461I1673J0D01*
G01*
X127370Y172347D01*
Y215449D01*
X125594Y217225D01*
X72157D01*
G75*
G02*
X70970Y217715I-3J1673D01*
G01*
X69885Y218800D01*
X31114D01*
X31014Y218700D01*
G75*
G02*
X32193Y216339I-1774J-2361D01*
G01*
G75*
G02*
X26287I-2953J0D01*
G01*
G75*
G02*
X27567Y218772I2953J0D01*
G01*
Y219292D01*
G75*
G02*
X28059Y220477I1673J0D01*
G01*
X29236Y221654D01*
G75*
G02*
X30421Y222146I1185J-1181D01*
G01*
X70575D01*
G75*
G02*
X70901Y222115I3J-1674D01*
G01*
X70578Y222437D01*
G75*
G02*
X70086Y223622I1181J1185D01*
G01*
Y227882D01*
G75*
G02*
X68807Y230315I1673J2433D01*
G01*
G75*
G02*
X74712I2953J0D01*
G01*
G75*
G02*
X73433Y227882I-2953J0D01*
G01*
Y227361D01*
G75*
G02*
X77342Y226477I1476J-2557D01*
G01*
X137901D01*
G75*
G02*
X139086Y225985I0J-1673D01*
G01*
X142626Y222445D01*
G75*
G02*
X143118Y221260I-1181J-1185D01*
G01*
Y214657D01*
X141838Y184252D02*
G75*
G02*
X144791Y181299I0J-2953D01*
G01*
G75*
G02*
X141838Y178346I-2953J0D01*
G01*
G75*
G02*
X138885Y181299I0J2953D01*
G01*
G75*
G02*
X141838Y184252I2953J0D01*
G01*
X84007Y192914D02*
G75*
G02*
X89913I2953J0D01*
G01*
G75*
G02*
X84007I-2953J0D01*
G01*
X97547Y107874D02*
G75*
G02*
X103452I2953J0D01*
G01*
G75*
G02*
X97547I-2953J0D01*
G01*
X111795Y38859D02*
G75*
G02*
X121441I4823J0D01*
G01*
G75*
G02*
X111795I-4823J0D01*
G01*
X112385Y28859D02*
G75*
G02*
X120850I4232J0D01*
G01*
G75*
G02*
X112385I-4232J0D01*
G01*
X114870Y80512D02*
G75*
G02*
X120775I2953J0D01*
G01*
G75*
G02*
X114870I-2953J0D01*
G01*
X122385Y28859D02*
G75*
G02*
X130850I4232J0D01*
G01*
G75*
G02*
X122385I-4232J0D01*
G01*
X51189Y217913D02*
X61819D01*
Y210039D01*
X51189D01*
Y217913D01*
X37070Y245276D02*
G75*
G02*
X45032I3981J0D01*
G01*
G75*
G02*
X37070I-3981J0D01*
G01*
X52818Y236221D02*
G75*
G02*
X60780I3981J0D01*
G01*
G75*
G02*
X52818I-3981J0D01*
G01*
X57783Y242717D02*
G75*
G02*
X64083I3150J0D01*
G01*
G75*
G02*
X57783I-3150J0D01*
G01*
X148728Y240158D02*
G75*
G02*
X154633I2953J0D01*
G01*
G75*
G02*
X152741Y237402I-2953J0D01*
G01*
G75*
G02*
Y231891I-1060J-2756D01*
G01*
G75*
G02*
X154633Y229135I-1060J-2756D01*
G01*
G75*
G02*
X148728I-2953J0D01*
G01*
G75*
G02*
X150620Y231891I2953J0D01*
G01*
G75*
G02*
Y237402I1060J2756D01*
G01*
G75*
G02*
X148728Y240158I1060J2756D01*
G01*
X10080Y18110D02*
G36*
X10080Y18110D02*
Y8244D01*
X11893Y6431D01*
X368241D01*
X370053Y8244D01*
Y18110D01*
X346957D01*
G75*
G02*
X331996I-7480J0D01*
G01*
X327275D01*
X319007Y9843D01*
X318464Y9479D01*
X317822Y9351D01*
X295579D01*
Y9055D01*
X289673D01*
Y9458D01*
X289078Y9843D01*
X288488Y10433D01*
X282783D01*
Y15551D01*
X287803D01*
Y17811D01*
X287504Y18110D01*
X256802D01*
X254441Y15748D01*
X253897Y15384D01*
X253256Y15256D01*
X180027D01*
X179386Y15384D01*
X178842Y15748D01*
X176480Y18110D01*
X10080D01*
G37*
X294299D02*
G36*
X294299Y18110D02*
Y16929D01*
X295579D01*
Y16634D01*
X317523D01*
X318999Y18110D01*
X294299D01*
G37*
X10080Y28859D02*
G36*
X10080Y28859D02*
Y18110D01*
X176480D01*
X175303Y19288D01*
X174939Y19831D01*
X174811Y20473D01*
Y25031D01*
X173999Y25533D01*
X173321Y26204D01*
X172810Y27010D01*
X172493Y27910D01*
X172385Y28859D01*
X171441D01*
G75*
G02*
X161795I-4823J0D01*
G01*
X160850D01*
X160706Y27763D01*
X160283Y26743D01*
X159611Y25866D01*
X158734Y25193D01*
X157713Y24770D01*
X156618Y24626D01*
X155523Y24770D01*
X154502Y25193D01*
X153626Y25866D01*
X152953Y26742D01*
X152530Y27763D01*
X152385Y28859D01*
X151441D01*
G75*
G02*
X141795I-4823J0D01*
G01*
X140850D01*
X140706Y27763D01*
X140283Y26743D01*
X139611Y25866D01*
X138734Y25193D01*
X137713Y24770D01*
X136618Y24626D01*
X135523Y24770D01*
X134502Y25193D01*
X133626Y25866D01*
X132953Y26742D01*
X132530Y27763D01*
X132385Y28859D01*
X130850D01*
G75*
G02*
X122385I-4232J0D01*
G01*
X120850D01*
G75*
G02*
X112385I-4232J0D01*
G01*
X10080D01*
G37*
X183275Y26263D02*
G36*
X183275Y26263D02*
Y23528D01*
X185838Y20965D01*
X247838D01*
X250007Y23134D01*
Y25428D01*
X249115Y24733D01*
X248086Y24265D01*
X246976Y24049D01*
X245846Y24098D01*
X244759Y24409D01*
X243774Y24964D01*
X242945Y25733D01*
X242319Y26674D01*
X241928Y27735D01*
X241795Y28859D01*
X240850D01*
G75*
G02*
X232385I-4232J0D01*
G01*
X230850D01*
G75*
G02*
X222385I-4232J0D01*
G01*
X221441D01*
G75*
G02*
X211795I-4823J0D01*
G01*
X210850D01*
G75*
G02*
X202385I-4232J0D01*
G01*
X200850D01*
G75*
G02*
X192385I-4232J0D01*
G01*
X190815D01*
X190806Y28249D01*
X190509Y27194D01*
X189951Y26251D01*
X189170Y25482D01*
X188218Y24940D01*
X187158Y24661D01*
X186063Y24663D01*
X185004Y24946D01*
X184054Y25491D01*
X183275Y26263D01*
G37*
X262704Y24012D02*
G36*
X262704Y24012D02*
X256802Y18110D01*
X287504D01*
X287208Y18406D01*
X283570D01*
X282929Y18534D01*
X282385Y18898D01*
X280027Y21256D01*
X279663Y21800D01*
X279535Y22441D01*
Y25793D01*
X278652Y25148D01*
X277634Y24750D01*
X276548Y24627D01*
X275466Y24786D01*
X274461Y25217D01*
X273600Y25891D01*
X272941Y26763D01*
X272527Y27774D01*
X272385Y28859D01*
X270850D01*
X270717Y27807D01*
X270327Y26820D01*
X269704Y25962D01*
X268887Y25286D01*
X267928Y24834D01*
X266886Y24635D01*
X265828Y24700D01*
X264819Y25027D01*
X263923Y25594D01*
X263196Y26367D01*
Y25197D01*
X263069Y24556D01*
X262704Y24012D01*
G37*
X293118Y26479D02*
G36*
X293118Y26479D02*
Y21166D01*
X293807Y20477D01*
X294171Y19933D01*
X294299Y19292D01*
Y18110D01*
X318999D01*
X321661Y20772D01*
Y28859D01*
X310850D01*
G75*
G02*
X302385I-4232J0D01*
G01*
X300850D01*
X300714Y27793D01*
X300314Y26796D01*
X299676Y25933D01*
X298841Y25257D01*
X297863Y24813D01*
X296804Y24630D01*
X295734Y24719D01*
X294721Y25075D01*
X293830Y25674D01*
X293118Y26479D01*
G37*
X327665Y18500D02*
G36*
X327665Y18500D02*
X327275Y18110D01*
X331996D01*
G75*
G02*
X346957I7480J0D01*
G01*
X370053D01*
Y28859D01*
X328157D01*
Y19685D01*
X328029Y19044D01*
X327665Y18500D01*
G37*
X10080Y38859D02*
G36*
X10080Y38859D02*
Y28859D01*
X112385D01*
G75*
G02*
X120850I4232J0D01*
G01*
X122385D01*
G75*
G02*
X130850I4232J0D01*
G01*
X132385D01*
X132511Y29882D01*
X132880Y30845D01*
X133472Y31690D01*
X134250Y32367D01*
X135168Y32835D01*
X136173Y33068D01*
X137204Y33050D01*
X138200Y32784D01*
X139968Y34552D01*
Y36273D01*
X139230Y35528D01*
X138331Y34989D01*
X137327Y34686D01*
X136279Y34640D01*
X135252Y34853D01*
X134309Y35311D01*
X133508Y35988D01*
X132898Y36841D01*
X132516Y37817D01*
X132385Y38859D01*
X130850D01*
X130706Y37763D01*
X130283Y36743D01*
X129611Y35866D01*
X128734Y35193D01*
X127713Y34770D01*
X126618Y34626D01*
X125523Y34770D01*
X124502Y35193D01*
X123626Y35866D01*
X122953Y36742D01*
X122530Y37763D01*
X122385Y38859D01*
X121441D01*
G75*
G02*
X111795I-4823J0D01*
G01*
X10080D01*
G37*
X140556Y30407D02*
G36*
X140556Y30407D02*
X140776Y29647D01*
X140850Y28859D01*
X141795D01*
G75*
G02*
X151441I4823J0D01*
G01*
X152385D01*
X152517Y29907D01*
X152905Y30891D01*
X153524Y31748D01*
X154337Y32424D01*
X155292Y32878D01*
X156329Y33081D01*
X157385Y33021D01*
X158393Y32701D01*
X159850Y34158D01*
Y36126D01*
X159000Y35361D01*
X157977Y34850D01*
X156854Y34633D01*
X155714Y34724D01*
X154639Y35117D01*
X153709Y35783D01*
X152992Y36674D01*
X152539Y37725D01*
X152385Y38859D01*
X150850D01*
X150722Y37826D01*
X150346Y36855D01*
X149744Y36005D01*
X148952Y35328D01*
X148020Y34865D01*
X147003Y34644D01*
X145962Y34677D01*
X144961Y34964D01*
X144061Y35486D01*
X143315Y36213D01*
Y33859D01*
X143187Y33217D01*
X142822Y32674D01*
X140556Y30407D01*
G37*
X160630Y30206D02*
G36*
X160630Y30206D02*
X160794Y29541D01*
X160850Y28859D01*
X161795D01*
G75*
G02*
X171441I4823J0D01*
G01*
X172385D01*
X172514Y29893D01*
X172891Y30865D01*
X173494Y31715D01*
X174287Y32391D01*
X175221Y32854D01*
X176240Y33074D01*
X177282Y33039D01*
X178283Y32750D01*
X179184Y32224D01*
X179929Y31495D01*
Y32788D01*
X177893Y34823D01*
X176825Y34631D01*
X175744Y34718D01*
X174720Y35076D01*
X173820Y35683D01*
X173105Y36498D01*
X172620Y37469D01*
X172398Y38531D01*
X172415Y38859D01*
X170850D01*
X170717Y37807D01*
X170327Y36820D01*
X169704Y35962D01*
X168887Y35286D01*
X167928Y34834D01*
X166886Y34635D01*
X165828Y34700D01*
X164819Y35027D01*
X163923Y35594D01*
X163196Y36367D01*
Y33465D01*
X163069Y32824D01*
X162704Y32280D01*
X160630Y30206D01*
G37*
X190822Y29344D02*
G36*
X190822Y29344D02*
X190815Y28859D01*
X192385D01*
G75*
G02*
X200850I4232J0D01*
G01*
X202385D01*
G75*
G02*
X210850I4232J0D01*
G01*
X211795D01*
G75*
G02*
X221441I4823J0D01*
G01*
X222385D01*
G75*
G02*
X230850I4232J0D01*
G01*
X232385D01*
G75*
G02*
X240850I4232J0D01*
G01*
X241795D01*
X241928Y29981D01*
X242318Y31043D01*
X242945Y31984D01*
X243774Y32753D01*
X244759Y33308D01*
X245846Y33619D01*
X246975Y33668D01*
X248085Y33452D01*
X249114Y32984D01*
X250007Y32289D01*
Y36324D01*
X249275Y35565D01*
X248378Y35009D01*
X247371Y34694D01*
X246318Y34637D01*
X245283Y34842D01*
X244331Y35297D01*
X243521Y35974D01*
X242904Y36829D01*
X242517Y37811D01*
X242385Y38859D01*
X240850D01*
G75*
G02*
X232385I-4232J0D01*
G01*
X230850D01*
G75*
G02*
X222385I-4232J0D01*
G01*
X220850D01*
G75*
G02*
X212385I-4232J0D01*
G01*
X210850D01*
G75*
G02*
X202385I-4232J0D01*
G01*
X200850D01*
X200722Y37826D01*
X200346Y36855D01*
X199744Y36005D01*
X198952Y35328D01*
X198020Y34865D01*
X197003Y34644D01*
X195962Y34677D01*
X194961Y34964D01*
X194061Y35486D01*
X193315Y36213D01*
Y33859D01*
X193187Y33217D01*
X192822Y32674D01*
X190556Y30407D01*
X190822Y29344D01*
G37*
X263196Y35459D02*
G36*
X263196Y35459D02*
Y31350D01*
X263923Y32122D01*
X264819Y32689D01*
X265828Y33016D01*
X266886Y33082D01*
X267927Y32883D01*
X268886Y32431D01*
X269703Y31755D01*
X270326Y30897D01*
X270716Y29911D01*
X270850Y28859D01*
X272385D01*
X272527Y29943D01*
X272941Y30954D01*
X273600Y31826D01*
X274461Y32500D01*
X275466Y32931D01*
X276547Y33090D01*
X277633Y32967D01*
X278652Y32570D01*
X279535Y31925D01*
Y35793D01*
X278652Y35148D01*
X277634Y34750D01*
X276548Y34627D01*
X275466Y34786D01*
X274461Y35217D01*
X273600Y35891D01*
X272941Y36763D01*
X272527Y37774D01*
X272385Y38859D01*
X271441D01*
X271307Y37731D01*
X270914Y36667D01*
X270282Y35723D01*
X269448Y34954D01*
X268457Y34400D01*
X267363Y34094D01*
X266229Y34052D01*
X265116Y34276D01*
X264086Y34754D01*
X263196Y35459D01*
G37*
X293118Y36479D02*
G36*
X293118Y36479D02*
Y31238D01*
X293829Y32043D01*
X294720Y32642D01*
X295734Y32998D01*
X296804Y33087D01*
X297862Y32904D01*
X298840Y32461D01*
X299675Y31785D01*
X300313Y30922D01*
X300714Y29925D01*
X300850Y28859D01*
X302385D01*
G75*
G02*
X310850I4232J0D01*
G01*
X321661D01*
Y38859D01*
X310850D01*
G75*
G02*
X302385I-4232J0D01*
G01*
X300850D01*
X300714Y37793D01*
X300314Y36796D01*
X299676Y35933D01*
X298841Y35257D01*
X297863Y34813D01*
X296804Y34630D01*
X295734Y34719D01*
X294721Y35075D01*
X293830Y35674D01*
X293118Y36479D01*
G37*
X328157Y38678D02*
G36*
X328157Y38678D02*
Y28859D01*
X370053D01*
Y38859D01*
X367363D01*
X366827Y38323D01*
X366613Y37451D01*
X366146Y36683D01*
X365470Y36092D01*
X364648Y35730D01*
X363756Y35633D01*
X362875Y35809D01*
X362087Y36241D01*
X361467Y36890D01*
X361069Y37695D01*
X360933Y38583D01*
X360974Y38859D01*
X328338D01*
X328157Y38678D01*
G37*
X10080Y49409D02*
G36*
X10080Y49409D02*
Y38859D01*
X111795D01*
G75*
G02*
X121441I4823J0D01*
G01*
X122385D01*
X122503Y39849D01*
X122848Y40784D01*
X123404Y41612D01*
X124137Y42288D01*
X125008Y42773D01*
X125146Y43385D01*
X125500Y43902D01*
X126874Y45276D01*
X127417Y45640D01*
X128059Y45768D01*
X133271D01*
X136913Y49409D01*
X64082D01*
G75*
G02*
X57783I-3150J0D01*
G01*
X10080D01*
G37*
X128902Y42422D02*
G36*
X128902Y42422D02*
X129713Y41745D01*
X130331Y40889D01*
X130718Y39906D01*
X130850Y38859D01*
X132385D01*
X132526Y39940D01*
X132938Y40949D01*
X133594Y41819D01*
X134450Y42494D01*
X133964Y42422D01*
X128902D01*
G37*
X143315Y48323D02*
G36*
X143315Y48323D02*
Y41505D01*
X144061Y42231D01*
X144961Y42753D01*
X145962Y43040D01*
X147003Y43073D01*
X148020Y42852D01*
X148952Y42389D01*
X149743Y41712D01*
X150345Y40863D01*
X150722Y39892D01*
X150850Y38859D01*
X152385D01*
X152540Y39992D01*
X152993Y41043D01*
X153710Y41933D01*
X154639Y42600D01*
X155713Y42993D01*
X156854Y43085D01*
X157976Y42867D01*
X159000Y42357D01*
X159850Y41591D01*
Y49409D01*
X144401D01*
X143315Y48323D01*
G37*
X166543Y49409D02*
G36*
X166543Y49409D02*
Y47150D01*
X167531Y46162D01*
X189082D01*
X189724Y46034D01*
X190267Y45670D01*
X192822Y43115D01*
X193187Y42571D01*
X193315Y41930D01*
Y41505D01*
X194061Y42231D01*
X194961Y42753D01*
X195962Y43040D01*
X197003Y43073D01*
X198020Y42852D01*
X198952Y42389D01*
X199743Y41712D01*
X200345Y40863D01*
X200722Y39892D01*
X200850Y38859D01*
X202385D01*
G75*
G02*
X210850I4232J0D01*
G01*
X212385D01*
G75*
G02*
X220850I4232J0D01*
G01*
X222385D01*
G75*
G02*
X230850I4232J0D01*
G01*
X232385D01*
G75*
G02*
X240850I4232J0D01*
G01*
X242385D01*
X242517Y39906D01*
X242903Y40887D01*
X243520Y41743D01*
X244330Y42420D01*
X245282Y42875D01*
X246317Y43080D01*
X247371Y43024D01*
X248378Y42708D01*
X249275Y42153D01*
X250007Y41393D01*
Y44488D01*
X250135Y45130D01*
X250500Y45673D01*
X251583Y46756D01*
Y49409D01*
X166543D01*
G37*
X168120Y42815D02*
G36*
X168120Y42815D02*
X169023Y42341D01*
X169786Y41665D01*
X170365Y40825D01*
X170727Y39872D01*
X170850Y38859D01*
X172415D01*
X172454Y39615D01*
X172783Y40649D01*
X173364Y41565D01*
X174159Y42303D01*
X175115Y42815D01*
X168120D01*
G37*
X266543Y49409D02*
G36*
X266543Y49409D02*
Y48103D01*
X267161Y47532D01*
X267593Y46811D01*
X267804Y45996D01*
X267777Y45155D01*
X267514Y44356D01*
X267036Y43663D01*
X268200Y43415D01*
X269267Y42889D01*
X270173Y42117D01*
X270862Y41148D01*
X271293Y40039D01*
X271441Y38859D01*
X272385D01*
X272500Y39835D01*
X272836Y40759D01*
X273377Y41581D01*
X274093Y42255D01*
X274944Y42746D01*
Y49409D01*
X266543D01*
G37*
X278291D02*
G36*
X278291Y49409D02*
Y42746D01*
X278949Y42391D01*
X279535Y41925D01*
Y42914D01*
X279663Y43555D01*
X280027Y44099D01*
X281992Y46063D01*
X282535Y46428D01*
X283177Y46556D01*
X294984D01*
X295626Y46429D01*
X296171Y46065D01*
X297746Y44491D01*
X298108Y43948D01*
X298236Y43307D01*
Y42769D01*
X299104Y42283D01*
X299835Y41608D01*
X300389Y40781D01*
X300733Y39847D01*
X300850Y38859D01*
X302385D01*
G75*
G02*
X310850I4232J0D01*
G01*
X321661D01*
Y40158D01*
X321789Y40799D01*
X322153Y41343D01*
X325693Y44882D01*
X326236Y45246D01*
X326878Y45374D01*
X351776D01*
X355811Y49409D01*
X332980D01*
X332826Y48436D01*
X332379Y47558D01*
X331682Y46861D01*
X330804Y46414D01*
X329831Y46260D01*
X328857Y46414D01*
X327980Y46861D01*
X327283Y47558D01*
X326835Y48436D01*
X326681Y49409D01*
X278291D01*
G37*
X329539Y40059D02*
G36*
X329539Y40059D02*
X328338Y38859D01*
X360974D01*
X361061Y39446D01*
X361437Y40233D01*
X362026Y40876D01*
X362777Y41320D01*
X363625Y41524D01*
X365756Y43655D01*
Y49409D01*
X363984D01*
Y48426D01*
X363856Y47784D01*
X363492Y47241D01*
X356803Y40552D01*
X356260Y40187D01*
X355618Y40059D01*
X329539D01*
G37*
X369618Y41114D02*
G36*
X369618Y41114D02*
X367363Y38859D01*
X370053D01*
Y41761D01*
X369979Y41583D01*
X369618Y41114D01*
G37*
X10080Y64606D02*
G36*
X10080Y64606D02*
Y49409D01*
X57783D01*
G75*
G02*
X64082I3150J0D01*
G01*
X136913D01*
X140165Y52662D01*
Y64606D01*
X111033D01*
G75*
G02*
X105744Y63681I-2856J749D01*
G01*
X82389D01*
G75*
G02*
X81204Y64174I0J1672D01*
G01*
X80771Y64606D01*
X45648D01*
G75*
G02*
X41178I-2235J1930D01*
G01*
X31319D01*
G75*
G02*
X26398I-2461J0D01*
G01*
X10080D01*
G37*
X143511D02*
G36*
X143511Y64606D02*
Y53100D01*
X144200Y53248D01*
X154925D01*
X156700Y55024D01*
Y64606D01*
X143511D01*
G37*
X144893Y49902D02*
G36*
X144893Y49902D02*
X144401Y49409D01*
X159850D01*
Y53544D01*
X159557Y53148D01*
X156801Y50392D01*
X156256Y50029D01*
X155614Y49902D01*
X144893D01*
G37*
X166543Y64606D02*
G36*
X166543Y64606D02*
Y49409D01*
X251583D01*
Y49930D01*
X250749Y49532D01*
X249833Y49411D01*
X248925Y49579D01*
X248113Y50020D01*
X247476Y50689D01*
X177736D01*
X177092Y50014D01*
X176270Y49573D01*
X175351Y49410D01*
X174427Y49543D01*
X173591Y49957D01*
X172926Y50611D01*
X172498Y51441D01*
X172350Y52363D01*
X172498Y53284D01*
X172925Y54114D01*
X173591Y54769D01*
X174427Y55183D01*
X175351Y55315D01*
X176270Y55153D01*
X177093Y54711D01*
X177736Y54036D01*
X195459D01*
X195006Y54800D01*
X194801Y55663D01*
X194862Y56549D01*
X195183Y57377D01*
X195736Y58071D01*
X195224Y58696D01*
X194901Y59436D01*
X194791Y60237D01*
X194939Y61158D01*
X195366Y61988D01*
X196031Y62643D01*
X196868Y63057D01*
X197792Y63189D01*
X198711Y63027D01*
X199533Y62585D01*
X200177Y61910D01*
X216570D01*
X217214Y62585D01*
X218037Y63026D01*
X218956Y63189D01*
X219879Y63057D01*
X220715Y62643D01*
X221381Y61988D01*
X221809Y61159D01*
X221956Y60237D01*
X221846Y59437D01*
X221522Y58696D01*
X221011Y58071D01*
X221564Y57377D01*
X221885Y56549D01*
X221946Y55663D01*
X221741Y54800D01*
X221289Y54036D01*
X247476D01*
X248112Y54706D01*
X248924Y55146D01*
X249833Y55315D01*
X250749Y55194D01*
X251583Y54795D01*
Y59378D01*
X250983Y59926D01*
X250556Y60615D01*
X250332Y61396D01*
X250330Y62207D01*
X250548Y62989D01*
X250971Y63681D01*
X248996D01*
X248352Y63006D01*
X247530Y62565D01*
X246611Y62402D01*
X245687Y62535D01*
X244851Y62949D01*
X244186Y63603D01*
X243758Y64433D01*
X243730Y64606D01*
X166543D01*
G37*
X262276D02*
G36*
X262276Y64606D02*
X262704Y64178D01*
X263069Y63634D01*
X263196Y62993D01*
Y64606D01*
X262276D01*
G37*
X266543D02*
G36*
X266543Y64606D02*
Y49409D01*
X274944D01*
Y64606D01*
X266543D01*
G37*
X278291Y64268D02*
G36*
X278291Y64268D02*
Y49409D01*
X326681D01*
X326807Y50291D01*
X327174Y51102D01*
X327754Y51777D01*
X328500Y52264D01*
X322617D01*
X321974Y51588D01*
X321151Y51147D01*
X320232Y50985D01*
X319309Y51118D01*
X318472Y51532D01*
X317807Y52186D01*
X317380Y53016D01*
X317232Y53937D01*
X317348Y54757D01*
X317687Y55513D01*
X318223Y56144D01*
X318913Y56602D01*
X319704Y56850D01*
X320531Y56869D01*
X321333Y56658D01*
X320635Y57742D01*
X320201Y58956D01*
X320053Y60236D01*
Y64606D01*
X278629D01*
X278291Y64268D01*
G37*
X331162Y52264D02*
G36*
X331162Y52264D02*
X331907Y51778D01*
X332487Y51102D01*
X332854Y50291D01*
X332980Y49409D01*
X355811D01*
X356307Y49906D01*
Y64606D01*
X347055D01*
Y57874D01*
X346927Y57233D01*
X346563Y56689D01*
X342743Y52869D01*
X342331Y52509D01*
X341827Y52300D01*
X341282Y52264D01*
X331162D01*
G37*
X363984Y64606D02*
G36*
X363984Y64606D02*
Y49409D01*
X365756D01*
Y64606D01*
X363984D01*
G37*
X10080Y78150D02*
G36*
X10080Y78150D02*
Y64606D01*
X26398D01*
G75*
G02*
X31319I2461J0D01*
G01*
X41178D01*
G75*
G02*
X40460Y66536I2235J1930D01*
G01*
G75*
G02*
X46366I2953J0D01*
G01*
G75*
G02*
X45648Y64606I-2953J0D01*
G01*
X80771D01*
X71563Y73815D01*
G75*
G02*
X71070Y75000I1181J1185D01*
G01*
Y78079D01*
G75*
G02*
X67627Y78150I-1673J2433D01*
G01*
X61819D01*
Y74213D01*
X51189D01*
Y78150D01*
X26583D01*
Y73622D01*
X14772D01*
Y78150D01*
X10080D01*
G37*
X79535D02*
G36*
X79535Y78150D02*
Y75693D01*
X81901Y73327D01*
X98854Y73327D01*
G75*
G02*
X104240Y71654I2433J-1673D01*
G01*
Y71654D01*
G75*
G02*
X104231Y71430I-3206J11D01*
G01*
G75*
G02*
X107586Y68504I402J-2925D01*
G01*
G75*
G02*
Y68500I-2757J-2D01*
G01*
G75*
G02*
X107575Y68246I-2836J0D01*
G01*
G75*
G02*
X111130Y65355I602J-2891D01*
G01*
G75*
G02*
X111033Y64606I-2953J0D01*
G01*
X140165D01*
Y77489D01*
X139480Y78145D01*
X139477Y78150D01*
X119594D01*
G75*
G02*
X116051I-1771J2363D01*
G01*
X79535D01*
G37*
X143511Y77489D02*
G36*
X143511Y77489D02*
Y64606D01*
X156700D01*
Y78150D01*
X144199D01*
X144197Y78145D01*
X143511Y77489D01*
G37*
X166543Y77756D02*
G36*
X166543Y77756D02*
Y64606D01*
X243730D01*
X243610Y65355D01*
X243758Y66276D01*
X244185Y67106D01*
X244851Y67761D01*
X245687Y68175D01*
X246611Y68307D01*
X247530Y68145D01*
X248353Y67704D01*
X248996Y67028D01*
X259161D01*
X259802Y66900D01*
X260346Y66536D01*
X262276Y64606D01*
X263196D01*
Y66339D01*
X263324Y66980D01*
X263689Y67524D01*
X268606Y72441D01*
X269149Y72806D01*
X269791Y72933D01*
X282484D01*
X287015Y77465D01*
Y78150D01*
X166465D01*
X166543Y77756D01*
G37*
X266543Y65646D02*
G36*
X266543Y65646D02*
Y64606D01*
X274944D01*
Y64961D01*
X275072Y65602D01*
X275437Y66146D01*
X278582Y69292D01*
X278980Y69587D01*
X270484D01*
X266543Y65646D01*
G37*
X280460Y66437D02*
G36*
X280460Y66437D02*
X278629Y64606D01*
X320053D01*
Y78150D01*
X293118D01*
Y72441D01*
X292990Y71800D01*
X292626Y71256D01*
X288299Y66930D01*
X287756Y66565D01*
X287114Y66437D01*
X280460D01*
G37*
X347055Y78150D02*
G36*
X347055Y78150D02*
Y64606D01*
X356307D01*
Y78150D01*
X347055D01*
G37*
X363984D02*
G36*
X363984Y78150D02*
Y64606D01*
X365756D01*
Y78150D01*
X363984D01*
G37*
X10080Y81890D02*
G36*
X10080Y81890D02*
Y78150D01*
X14772D01*
Y81890D01*
X10080D01*
G37*
X26583D02*
G36*
X26583Y81890D02*
Y78150D01*
X51189D01*
Y81890D01*
X26583D01*
G37*
X61819D02*
G36*
X61819Y81890D02*
Y78150D01*
X67627D01*
G75*
G02*
X66445Y80512I1771J2363D01*
G01*
G75*
G02*
X66786Y81890I2953J0D01*
G01*
X61819D01*
G37*
X79535D02*
G36*
X79535Y81890D02*
Y78150D01*
X116051D01*
G75*
G02*
X114870Y80512I1771J2363D01*
G01*
G75*
G02*
X115211Y81890I2953J0D01*
G01*
X79535D01*
G37*
X120775Y80512D02*
G36*
X120775Y80512D02*
G75*
G02*
X119594Y78150I-2953J0D01*
G01*
X139477D01*
X139038Y78985D01*
X138885Y79922D01*
X139030Y80834D01*
X139449Y81657D01*
X139681Y81890D01*
X120434D01*
G75*
G02*
X120775Y80512I-2612J-1378D01*
G01*
G37*
X143995Y81890D02*
G36*
X143995Y81890D02*
X144227Y81657D01*
X144646Y80834D01*
X144791Y79922D01*
X144639Y78985D01*
X144199Y78150D01*
X156700D01*
Y81890D01*
X143995D01*
G37*
X160047D02*
G36*
X160047Y81890D02*
Y78935D01*
X160579Y79176D01*
X161148Y79307D01*
X161031Y79922D01*
Y81890D01*
X160047D01*
G37*
X164378D02*
G36*
X164378Y81890D02*
Y80615D01*
X166053Y78939D01*
X166415Y78396D01*
X166465Y78150D01*
X287015D01*
Y81890D01*
X256209D01*
G75*
G02*
X250303I-2953J0D01*
G01*
X216913D01*
G75*
G02*
X214795I-1059J2756D01*
G01*
X164378D01*
G37*
X293118D02*
G36*
X293118Y81890D02*
Y78150D01*
X320053D01*
Y81890D01*
X293118D01*
G37*
X347055D02*
G36*
X347055Y81890D02*
Y78150D01*
X356307D01*
Y81890D01*
X347055D01*
G37*
X363984D02*
G36*
X363984Y81890D02*
Y78150D01*
X365756D01*
Y81890D01*
X363984D01*
G37*
X10080Y87362D02*
G36*
X10080Y87362D02*
Y81890D01*
X14772D01*
Y82677D01*
X26583D01*
Y81890D01*
X51189D01*
Y82087D01*
X61819D01*
Y81890D01*
X66786D01*
G75*
G02*
X67724Y82945I2612J-1378D01*
G01*
Y87362D01*
X46298D01*
G75*
G02*
X40528I-2885J630D01*
G01*
X31319D01*
G75*
G02*
X26398I-2461J0D01*
G01*
X10080D01*
G37*
X79535D02*
G36*
X79535Y87362D02*
Y81890D01*
X115211D01*
G75*
G02*
X120434I2612J-1378D01*
G01*
X139681D01*
X140102Y82311D01*
X140926Y82730D01*
X141838Y82874D01*
X142751Y82730D01*
X143574Y82311D01*
X143995Y81890D01*
X156700D01*
Y87362D01*
X79535D01*
G37*
X160047D02*
G36*
X160047Y87362D02*
Y81890D01*
X161031D01*
Y87362D01*
X160047D01*
G37*
X164378D02*
G36*
X164378Y87362D02*
Y81890D01*
X214795D01*
G75*
G02*
X212901Y84646I1059J2756D01*
G01*
G75*
G02*
Y84649I3096J2D01*
G01*
G75*
G02*
X212974Y85299I2937J0D01*
G01*
X210911Y87362D01*
X164378D01*
G37*
X218807Y84646D02*
G36*
X218807Y84646D02*
G75*
G02*
X216913Y81890I-2953J0D01*
G01*
X250303D01*
G75*
G02*
X256209I2953J0D01*
G01*
X287015D01*
Y87362D01*
X217013D01*
G75*
G02*
X218807Y84646I-1159J-2716D01*
G01*
Y84646D01*
G37*
X293118Y87362D02*
G36*
X293118Y87362D02*
Y81890D01*
X320053D01*
Y87362D01*
X293118D01*
G37*
X347055D02*
G36*
X347055Y87362D02*
Y81890D01*
X356307D01*
Y87362D01*
X347055D01*
G37*
X363984D02*
G36*
X363984Y87362D02*
Y81890D01*
X365756D01*
Y87362D01*
X363984D01*
G37*
X10080Y95670D02*
G36*
X10080Y95670D02*
Y87362D01*
X26398D01*
G75*
G02*
X31319I2461J0D01*
G01*
X40528D01*
G75*
G02*
X40460Y87993I2885J631D01*
G01*
G75*
G02*
X46366I2953J0D01*
G01*
G75*
G02*
X46298Y87362I-2953J0D01*
G01*
X67724D01*
Y95670D01*
X61819D01*
Y91929D01*
X51189D01*
Y95670D01*
X25992D01*
Y91929D01*
X15362D01*
Y95670D01*
X10080D01*
G37*
X79535D02*
G36*
X79535Y95670D02*
Y87362D01*
X156700D01*
Y95670D01*
X79535D01*
G37*
X160047D02*
G36*
X160047Y95670D02*
Y87362D01*
X161031D01*
Y95670D01*
X160047D01*
G37*
X164378D02*
G36*
X164378Y95670D02*
Y87362D01*
X210911D01*
X210607Y87666D01*
G75*
G02*
X210146Y88780I1114J1114D01*
G01*
Y95670D01*
X192429D01*
G75*
G02*
X186523I-2953J0D01*
G01*
X164378D01*
G37*
X213295D02*
G36*
X213295Y95670D02*
Y89432D01*
X215201Y87526D01*
G75*
G02*
X217013Y87362I653J-2880D01*
G01*
X287015D01*
Y95670D01*
X213295D01*
G37*
X293118D02*
G36*
X293118Y95670D02*
Y87362D01*
X320053D01*
Y95670D01*
X293118D01*
G37*
X347055D02*
G36*
X347055Y95670D02*
Y87362D01*
X356307D01*
Y95670D01*
X347055D01*
G37*
X363984D02*
G36*
X363984Y95670D02*
Y87362D01*
X365756D01*
Y95670D01*
X363984D01*
G37*
X10080Y107874D02*
G36*
X10080Y107874D02*
Y95670D01*
X15362D01*
Y99803D01*
X19004D01*
Y100194D01*
Y100196D01*
Y100197D01*
G75*
G02*
X19494Y101380I1676J-1D01*
G01*
X20872Y102758D01*
G75*
G02*
X22058Y103248I1183J-1184D01*
G01*
X65658D01*
G75*
G02*
X66843Y102756I0J-1672D01*
G01*
X70579Y99020D01*
G75*
G02*
X71070Y97871I-1181J-1185D01*
G01*
Y107874D01*
X10080D01*
G37*
X22748Y99902D02*
G36*
X22748Y99902D02*
X22649Y99803D01*
X25992D01*
Y95670D01*
X51189D01*
Y99803D01*
X61819D01*
Y95670D01*
X67724D01*
Y97142D01*
X64965Y99902D01*
X22748D01*
G37*
X79535Y107874D02*
G36*
X79535Y107874D02*
Y95670D01*
X156700D01*
Y107874D01*
X103452D01*
G75*
G02*
X97547I-2953J0D01*
G01*
X79535D01*
G37*
X160047D02*
G36*
X160047Y107874D02*
Y95670D01*
X161031D01*
Y107874D01*
X160047D01*
G37*
X164378D02*
G36*
X164378Y107874D02*
Y95670D01*
X186523D01*
G75*
G02*
X192429I2953J0D01*
G01*
X210146D01*
Y97109D01*
G75*
G02*
X208768Y99606I1574J2497D01*
G01*
Y99607D01*
G75*
G02*
X214673I2953J0D01*
G01*
Y99606D01*
G75*
G02*
X213295Y97109I-2952J0D01*
G01*
Y95670D01*
X287015D01*
Y107874D01*
X245262D01*
G75*
G02*
X243140I-1061J2756D01*
G01*
X164378D01*
G37*
X293118D02*
G36*
X293118Y107874D02*
Y95670D01*
X320053D01*
Y107874D01*
X293118D01*
G37*
X345120D02*
G36*
X345120Y107874D02*
Y106907D01*
X345938Y107217D01*
X346811Y107273D01*
X347662Y107071D01*
X348416Y106629D01*
X349008Y105985D01*
X349385Y105196D01*
X349515Y104331D01*
X349400Y103513D01*
X349063Y102759D01*
X348530Y102128D01*
X347843Y101669D01*
X347055Y101419D01*
Y95670D01*
X356307D01*
Y107874D01*
X345120D01*
G37*
X359654D02*
G36*
X359654Y107874D02*
Y104437D01*
X360150Y105162D01*
X360839Y105709D01*
X361658Y106030D01*
X362535Y106094D01*
X363393Y105897D01*
X364154Y105457D01*
X364752Y104812D01*
X365133Y104019D01*
X365264Y103150D01*
X365111Y102213D01*
X364670Y101373D01*
X363984Y100717D01*
Y95670D01*
X365756D01*
Y107874D01*
X359654D01*
G37*
X10080Y110630D02*
G36*
X10080Y110630D02*
Y107874D01*
X71070D01*
Y110630D01*
X10080D01*
G37*
X79535D02*
G36*
X79535Y110630D02*
Y107874D01*
X97547D01*
G75*
G02*
X99439Y110630I2953J0D01*
G01*
X79535D01*
G37*
X101561D02*
G36*
X101561Y110630D02*
G75*
G02*
X103452Y107874I-1061J-2756D01*
G01*
X156700D01*
Y110630D01*
X101561D01*
G37*
X160047D02*
G36*
X160047Y110630D02*
Y107874D01*
X161031D01*
Y110630D01*
X160047D01*
G37*
X164378D02*
G36*
X164378Y110630D02*
Y107874D01*
X243140D01*
G75*
G02*
X241248Y110630I1061J2756D01*
G01*
X164378D01*
G37*
X247154D02*
G36*
X247154Y110630D02*
G75*
G02*
X245262Y107874I-2953J0D01*
G01*
X287015D01*
Y110630D01*
X247154D01*
G37*
X293118D02*
G36*
X293118Y110630D02*
Y107874D01*
X320053D01*
Y110630D01*
X293118D01*
G37*
X345120D02*
G36*
X345120Y110630D02*
Y107874D01*
X356307D01*
Y110630D01*
X347606D01*
X347147Y110482D01*
X346115Y110462D01*
X345515Y110630D01*
X345120D01*
G37*
X359654D02*
G36*
X359654Y110630D02*
Y107874D01*
X365756D01*
Y110630D01*
X359654D01*
G37*
X10080Y117520D02*
G36*
X10080Y117520D02*
Y110630D01*
X71070D01*
Y117520D01*
X61819D01*
Y113583D01*
X51189D01*
Y117520D01*
X26583D01*
Y112992D01*
X14772D01*
Y117520D01*
X10080D01*
G37*
X79535D02*
G36*
X79535Y117520D02*
Y110630D01*
X99439D01*
G75*
G02*
X101561I1061J-2756D01*
G01*
X156700D01*
Y117520D01*
X79535D01*
G37*
X160047D02*
G36*
X160047Y117520D02*
Y110630D01*
X161031D01*
Y117520D01*
X160047D01*
G37*
X164378D02*
G36*
X164378Y117520D02*
Y110630D01*
X241248D01*
G75*
G02*
X247154I2953J0D01*
G01*
X287015D01*
Y117520D01*
X164378D01*
G37*
X293118D02*
G36*
X293118Y117520D02*
Y110630D01*
X320053D01*
Y117520D01*
X293118D01*
G37*
X345120Y110741D02*
G36*
X345120Y110741D02*
Y110630D01*
X345515D01*
X345120Y110741D01*
G37*
X348130Y110799D02*
G36*
X348130Y110799D02*
X347606Y110630D01*
X356307D01*
Y113087D01*
X352169Y117224D01*
X348996D01*
X348668Y116827D01*
X349400Y116099D01*
X349891Y115191D01*
X350100Y114180D01*
X350008Y113151D01*
X349624Y112193D01*
X348980Y111386D01*
X348130Y110799D01*
G37*
X356606Y117520D02*
G36*
X356606Y117520D02*
X359161Y114965D01*
X359526Y114421D01*
X359654Y113780D01*
Y110630D01*
X365756D01*
Y117520D01*
X356606D01*
G37*
X10080Y121654D02*
G36*
X10080Y121654D02*
Y117520D01*
X14772D01*
Y121654D01*
X10080D01*
G37*
X26583D02*
G36*
X26583Y121654D02*
Y117520D01*
X51189D01*
Y121457D01*
X61819D01*
Y117520D01*
X71070D01*
Y121654D01*
X26583D01*
G37*
X79535D02*
G36*
X79535Y121654D02*
Y117520D01*
X156700D01*
Y121654D01*
X79535D01*
G37*
X160047D02*
G36*
X160047Y121654D02*
Y117520D01*
X161031D01*
Y121654D01*
X160047D01*
G37*
X164378D02*
G36*
X164378Y121654D02*
Y117520D01*
X287015D01*
Y121654D01*
X244398D01*
G75*
G02*
X238492I-2953J0D01*
G01*
X164378D01*
G37*
X293118D02*
G36*
X293118Y121654D02*
Y117520D01*
X320053D01*
Y121654D01*
X293118D01*
G37*
X345120D02*
G36*
X345120Y121654D02*
Y121474D01*
X345593Y121654D01*
X345120D01*
G37*
X347607D02*
G36*
X347607Y121654D02*
X347649Y121644D01*
X348402Y121208D01*
X348996Y120571D01*
X352862D01*
X353504Y120443D01*
X354047Y120079D01*
X356606Y117520D01*
X365756D01*
Y121654D01*
X347607D01*
G37*
X10080Y135236D02*
G36*
X10080Y135236D02*
Y121654D01*
X14772D01*
Y122047D01*
X26583D01*
Y121654D01*
X71070D01*
Y122142D01*
X69295Y123917D01*
X21858D01*
G75*
G02*
X20673Y124409I0J1672D01*
G01*
X19496Y125587D01*
G75*
G02*
X19010Y126632I1178J1184D01*
G01*
G75*
G02*
X17626Y129134I1569J2502D01*
G01*
G75*
G02*
X18571Y131299I2953J0D01*
G01*
X15362D01*
Y135236D01*
X10080D01*
G37*
X23531Y129134D02*
G36*
X23531Y129134D02*
G75*
G02*
X22864Y127264I-2953J0D01*
G01*
X69984D01*
G75*
G02*
X71171Y126774I3J-1674D01*
G01*
X72645Y125299D01*
Y135236D01*
X61819D01*
Y131299D01*
X51189D01*
Y135236D01*
X25992D01*
Y131299D01*
X22586D01*
G75*
G02*
X23531Y129134I-2008J-2165D01*
G01*
G37*
X79535Y135236D02*
G36*
X79535Y135236D02*
Y121654D01*
X156700D01*
Y135236D01*
X79535D01*
G37*
X160047D02*
G36*
X160047Y135236D02*
Y121654D01*
X161031D01*
Y135236D01*
X160047D01*
G37*
X164378D02*
G36*
X164378Y135236D02*
Y121654D01*
X238492D01*
G75*
G02*
X244398I2953J0D01*
G01*
X287015D01*
Y135236D01*
X164378D01*
G37*
X293118D02*
G36*
X293118Y135236D02*
Y121654D01*
X320053D01*
Y135236D01*
X293118D01*
G37*
X345120D02*
G36*
X345120Y135236D02*
Y121654D01*
X345593D01*
X345933Y121783D01*
X346802Y121841D01*
X347607Y121654D01*
X365756D01*
Y135236D01*
X345120D01*
G37*
X10080Y144134D02*
G36*
X10080Y144134D02*
Y135236D01*
X15362D01*
Y139173D01*
X25992D01*
Y135236D01*
X51189D01*
Y139173D01*
X61819D01*
Y135236D01*
X72645D01*
Y144134D01*
X49791D01*
G75*
G02*
X43885I-2953J0D01*
G01*
X29776D01*
G75*
G02*
X31011Y141733I-1718J-2402D01*
G01*
G75*
G02*
X25106I-2953J0D01*
G01*
G75*
G02*
X26341Y144134I2953J0D01*
G01*
X10080D01*
G37*
X79535D02*
G36*
X79535Y144134D02*
Y135236D01*
X156700D01*
Y144134D01*
X79535D01*
G37*
X160047D02*
G36*
X160047Y144134D02*
Y135236D01*
X161031D01*
Y144134D01*
X160047D01*
G37*
X164378D02*
G36*
X164378Y144134D02*
Y135236D01*
X287015D01*
Y144134D01*
X164378D01*
G37*
X293118D02*
G36*
X293118Y144134D02*
Y135236D01*
X320053D01*
Y144134D01*
X293118D01*
G37*
X345120D02*
G36*
X345120Y144134D02*
Y135236D01*
X365756D01*
Y144134D01*
X345120D01*
G37*
X10080Y156890D02*
G36*
X10080Y156890D02*
Y144134D01*
X26341D01*
G75*
G02*
X29776I1718J-2401D01*
G01*
X43885D01*
G75*
G02*
X49791I2953J0D01*
G01*
X72645D01*
Y154654D01*
G75*
G02*
X71372Y156890I1673J2433D01*
G01*
X61819D01*
Y152953D01*
X51189D01*
Y156890D01*
X26583D01*
Y152362D01*
X14772D01*
Y156890D01*
X10080D01*
G37*
X79535D02*
G36*
X79535Y156890D02*
Y144134D01*
X156700D01*
Y156890D01*
X79535D01*
G37*
X160047D02*
G36*
X160047Y156890D02*
Y144134D01*
X161031D01*
Y156890D01*
X160047D01*
G37*
X164378D02*
G36*
X164378Y156890D02*
Y144134D01*
X287015D01*
Y156890D01*
X164378D01*
G37*
X293118D02*
G36*
X293118Y156890D02*
Y144134D01*
X320053D01*
Y156890D01*
X293118D01*
G37*
X345120D02*
G36*
X345120Y156890D02*
Y144134D01*
X365756D01*
Y156890D01*
X345120D01*
G37*
X10080Y175591D02*
G36*
X10080Y175591D02*
Y156890D01*
X14772D01*
Y161417D01*
X22642D01*
X22642Y161418D01*
X19496Y164563D01*
G75*
G02*
X19004Y165748I1181J1185D01*
G01*
Y170669D01*
X15362D01*
Y175591D01*
X10080D01*
G37*
X22350Y170669D02*
G36*
X22350Y170669D02*
Y166441D01*
X24520Y164272D01*
X71016D01*
G75*
G02*
X72201Y163780I0J-1672D01*
G01*
X73236Y162745D01*
Y175591D01*
X61819D01*
Y170669D01*
X51189D01*
Y175591D01*
X25992D01*
Y170669D01*
X22350D01*
G37*
X26583Y160926D02*
G36*
X26583Y160926D02*
Y156890D01*
X51189D01*
Y160827D01*
X61819D01*
Y156890D01*
X71372D01*
G75*
G02*
X71365Y157087I2948J199D01*
G01*
G75*
G02*
X72154Y159095I2952J0D01*
G01*
X70323Y160926D01*
X26583D01*
G37*
X76582Y175591D02*
G36*
X76582Y175591D02*
Y162701D01*
X79043Y160241D01*
G75*
G02*
X79535Y159056I-1181J-1185D01*
G01*
Y156890D01*
X156700D01*
Y175591D01*
X132881D01*
Y170937D01*
G75*
G02*
X134161Y168504I-1673J-2433D01*
G01*
G75*
G02*
X133104Y166241I-2952J0D01*
G01*
X137507D01*
G75*
G02*
X138693Y165748I0J-1672D01*
G01*
X139333Y165109D01*
G75*
G02*
X142822Y162206I537J-2903D01*
G01*
Y162205D01*
G75*
G02*
X136917I-2953J0D01*
G01*
G75*
G02*
Y162208I2924J2D01*
G01*
G75*
G02*
X136966Y162742I2924J0D01*
G01*
X136815Y162894D01*
X128846D01*
G75*
G02*
X127661Y163386I0J1672D01*
G01*
X126484Y164563D01*
G75*
G02*
X125992Y165748I1181J1185D01*
G01*
Y170276D01*
G75*
G02*
X126484Y171461I1673J0D01*
G01*
X127370Y172347D01*
Y175591D01*
X76582D01*
G37*
X160047D02*
G36*
X160047Y175591D02*
Y156890D01*
X161031D01*
Y175591D01*
X160047D01*
G37*
X164378D02*
G36*
X164378Y175591D02*
Y156890D01*
X287015D01*
Y175591D01*
X246760D01*
G75*
G02*
X240854I-2953J0D01*
G01*
X164378D01*
G37*
X293118D02*
G36*
X293118Y175591D02*
Y156890D01*
X320053D01*
Y175591D01*
X293118D01*
G37*
X345120D02*
G36*
X345120Y175591D02*
Y156890D01*
X365756D01*
Y175591D01*
X345120D01*
G37*
X10080Y182678D02*
G36*
X10080Y182678D02*
Y175591D01*
X15362D01*
Y178543D01*
X25992D01*
Y175591D01*
X51189D01*
Y178543D01*
X61819D01*
Y175591D01*
X73236D01*
Y182678D01*
X10080D01*
G37*
X76582D02*
G36*
X76582Y182678D02*
Y175591D01*
X127370D01*
Y182678D01*
X76582D01*
G37*
X132881D02*
G36*
X132881Y182678D02*
Y175591D01*
X156700D01*
Y182678D01*
X144449D01*
G75*
G02*
X144791Y181299I-2611J-1379D01*
G01*
G75*
G02*
X141838Y178346I-2953J0D01*
G01*
G75*
G02*
X138885Y181299I0J2953D01*
G01*
G75*
G02*
X139227Y182678I2953J-1D01*
G01*
X132881D01*
G37*
X160047D02*
G36*
X160047Y182678D02*
Y175591D01*
X161031D01*
Y182678D01*
X160047D01*
G37*
X164378D02*
G36*
X164378Y182678D02*
Y175591D01*
X240854D01*
G75*
G02*
X246760I2953J0D01*
G01*
X287015D01*
Y182678D01*
X273138D01*
G75*
G02*
X267232I-2953J0D01*
G01*
X164378D01*
G37*
X293118D02*
G36*
X293118Y182678D02*
Y175591D01*
X320053D01*
Y182678D01*
X293118D01*
G37*
X345120D02*
G36*
X345120Y182678D02*
Y175591D01*
X365756D01*
Y182678D01*
X345120D01*
G37*
X10080Y187008D02*
G36*
X10080Y187008D02*
Y182678D01*
X73236D01*
Y184378D01*
G75*
G02*
X71956Y186811I1674J2433D01*
G01*
G75*
G02*
X71963Y187008I2953J-2D01*
G01*
X10080D01*
G37*
X76582Y184378D02*
G36*
X76582Y184378D02*
Y182678D01*
X127370D01*
Y187008D01*
X77855D01*
G75*
G02*
X77862Y186811I-2946J-199D01*
G01*
G75*
G02*
X76582Y184378I-2953J0D01*
G01*
G37*
X132881Y187008D02*
G36*
X132881Y187008D02*
Y182678D01*
X139227D01*
G75*
G02*
X141838Y184252I2611J-1379D01*
G01*
G75*
G02*
X144449Y182678I0J-2953D01*
G01*
X156700D01*
Y187008D01*
X132881D01*
G37*
X160047D02*
G36*
X160047Y187008D02*
Y182678D01*
X161031D01*
Y187008D01*
X160047D01*
G37*
X164378D02*
G36*
X164378Y187008D02*
Y182678D01*
X267232D01*
G75*
G02*
X273138I2953J0D01*
G01*
X287015D01*
Y187008D01*
X171956D01*
G75*
G02*
X166051I-2953J0D01*
G01*
X164378D01*
G37*
X293118D02*
G36*
X293118Y187008D02*
Y182678D01*
X320053D01*
Y187008D01*
X293118D01*
G37*
X345120D02*
G36*
X345120Y187008D02*
Y182678D01*
X365756D01*
Y187008D01*
X345120D01*
G37*
X10080Y192914D02*
G36*
X10080Y192914D02*
Y187008D01*
X71963D01*
G75*
G02*
X73236Y189244I2946J-197D01*
G01*
Y192914D01*
X61819D01*
Y192323D01*
X51189D01*
Y192914D01*
X26583D01*
Y191732D01*
X14772D01*
Y192914D01*
X10080D01*
G37*
X76582D02*
G36*
X76582Y192914D02*
Y189244D01*
G75*
G02*
X77855Y187008I-1674J-2433D01*
G01*
X127370D01*
Y192914D01*
X89913D01*
G75*
G02*
X84007I-2953J0D01*
G01*
X76582D01*
G37*
X132881D02*
G36*
X132881Y192914D02*
Y187008D01*
X156700D01*
Y192914D01*
X132881D01*
G37*
X160047D02*
G36*
X160047Y192914D02*
Y187008D01*
X161031D01*
Y192914D01*
X160047D01*
G37*
X164378D02*
G36*
X164378Y192914D02*
Y187008D01*
X166051D01*
G75*
G02*
X171956I2953J0D01*
G01*
X287015D01*
Y192914D01*
X164378D01*
G37*
X293118D02*
G36*
X293118Y192914D02*
Y187008D01*
X320053D01*
Y192914D01*
X293118D01*
G37*
X345120D02*
G36*
X345120Y192914D02*
Y187008D01*
X365756D01*
Y187475D01*
X365380Y188047D01*
X365146Y188691D01*
X365067Y189370D01*
X365214Y190291D01*
X365641Y191120D01*
X366304Y191774D01*
X367139Y192189D01*
X368061Y192323D01*
X368980Y192163D01*
X369802Y191724D01*
X370053Y191463D01*
Y192914D01*
X345120D01*
G37*
X10080Y196260D02*
G36*
X10080Y196260D02*
Y192914D01*
X14772D01*
Y196260D01*
X10080D01*
G37*
X26583D02*
G36*
X26583Y196260D02*
Y192914D01*
X51189D01*
Y196260D01*
X26583D01*
G37*
X61819D02*
G36*
X61819Y196260D02*
Y192914D01*
X73236D01*
Y196260D01*
X61819D01*
G37*
X76582D02*
G36*
X76582Y196260D02*
Y192914D01*
X84007D01*
G75*
G02*
X89913I2953J0D01*
G01*
X127370D01*
Y196260D01*
X76582D01*
G37*
X132881D02*
G36*
X132881Y196260D02*
Y192914D01*
X156700D01*
Y196260D01*
X132881D01*
G37*
X160047D02*
G36*
X160047Y196260D02*
Y192914D01*
X161031D01*
Y196260D01*
X160047D01*
G37*
X164378D02*
G36*
X164378Y196260D02*
Y192914D01*
X287015D01*
Y196260D01*
X164378D01*
G37*
X293118D02*
G36*
X293118Y196260D02*
Y192914D01*
X320053D01*
Y196260D01*
X293118D01*
G37*
X345120D02*
G36*
X345120Y196260D02*
Y192914D01*
X370053D01*
Y196260D01*
X345120D01*
G37*
X10080Y210630D02*
G36*
X10080Y210630D02*
Y196260D01*
X14772D01*
Y200787D01*
X26583D01*
Y196260D01*
X51189D01*
Y200197D01*
X61819D01*
Y196260D01*
X73236D01*
Y201276D01*
X70672Y203839D01*
X22547D01*
G75*
G02*
X21362Y204331I0J1672D01*
G01*
X19496Y206197D01*
G75*
G02*
X19004Y207382I1181J1185D01*
G01*
Y210039D01*
X15362D01*
Y210630D01*
X10080D01*
G37*
X22350Y210039D02*
G36*
X22350Y210039D02*
Y208075D01*
X23240Y207185D01*
X71365D01*
G75*
G02*
X72550Y206693I0J-1672D01*
G01*
X76090Y203154D01*
G75*
G02*
X76582Y201969I-1181J-1185D01*
G01*
Y196260D01*
X127370D01*
Y210630D01*
X61819D01*
Y210039D01*
X51189D01*
Y210630D01*
X25992D01*
Y210039D01*
X22350D01*
G37*
X132881Y210630D02*
G36*
X132881Y210630D02*
Y196260D01*
X156700D01*
Y210630D01*
X143930D01*
G75*
G02*
X138959I-2485J1594D01*
G01*
X132881D01*
G37*
X160047D02*
G36*
X160047Y210630D02*
Y196260D01*
X161031D01*
Y210630D01*
X160047D01*
G37*
X164378D02*
G36*
X164378Y210630D02*
Y196260D01*
X287015D01*
Y206788D01*
X283272Y210531D01*
X234035D01*
X233435Y209890D01*
X232674Y209453D01*
X231817Y209260D01*
X230941Y209327D01*
X230124Y209648D01*
X229438Y210196D01*
X229142Y210630D01*
X164378D01*
G37*
X293118D02*
G36*
X293118Y210630D02*
Y196260D01*
X320053D01*
Y210630D01*
X293118D01*
G37*
X345120D02*
G36*
X345120Y210630D02*
Y196260D01*
X370053D01*
Y210630D01*
X367232D01*
G75*
G02*
X361326I-2953J0D01*
G01*
X345120D01*
G37*
X10080Y220079D02*
G36*
X10080Y220079D02*
Y210630D01*
X15362D01*
Y217913D01*
X25992D01*
Y210630D01*
X51189D01*
Y217913D01*
X61819D01*
Y210630D01*
X127370D01*
Y215449D01*
X125594Y217225D01*
X72157D01*
G75*
G02*
X70970Y217715I-3J1674D01*
G01*
X69885Y218800D01*
X31114D01*
X31014Y218700D01*
G75*
G02*
X32193Y216339I-1774J-2361D01*
G01*
G75*
G02*
X26287I-2953J0D01*
G01*
G75*
G02*
X27567Y218772I2953J0D01*
G01*
Y219292D01*
G75*
G02*
X27763Y220079I1673J0D01*
G01*
X10080D01*
G37*
X130622D02*
G36*
X130622Y220079D02*
X132389Y218311D01*
G75*
G02*
X132881Y217126I-1181J-1185D01*
G01*
Y210630D01*
X138959D01*
G75*
G02*
X138492Y212224I2485J1594D01*
G01*
G75*
G02*
X139771Y214657I2953J0D01*
G01*
Y220079D01*
X130622D01*
G37*
X143118D02*
G36*
X143118Y220079D02*
Y214657D01*
G75*
G02*
X144397Y212224I-1674J-2433D01*
G01*
G75*
G02*
X143930Y210630I-2953J0D01*
G01*
X156700D01*
Y220079D01*
X143118D01*
G37*
X160047D02*
G36*
X160047Y220079D02*
Y210630D01*
X161031D01*
Y220079D01*
X160047D01*
G37*
X164378D02*
G36*
X164378Y220079D02*
Y210630D01*
X229142D01*
X228943Y210921D01*
X228683Y211760D01*
X228681Y212638D01*
X228937Y213477D01*
X228128Y213226D01*
X227280Y213214D01*
X226465Y213444D01*
X225748Y213896D01*
X225189Y214533D01*
X224833Y215303D01*
X224712Y216142D01*
X224860Y217063D01*
X225287Y217893D01*
X225953Y218548D01*
X226789Y218962D01*
X227713Y219094D01*
X228632Y218932D01*
X229455Y218491D01*
X230098Y217815D01*
X287902D01*
X288543Y217687D01*
X289087Y217323D01*
X292626Y213784D01*
X292990Y213241D01*
X293118Y212599D01*
Y210630D01*
X320053D01*
Y220079D01*
X217232D01*
G75*
G02*
X211326I-2953J0D01*
G01*
X164378D01*
G37*
X345120D02*
G36*
X345120Y220079D02*
Y210630D01*
X361326D01*
G75*
G02*
X367232I2953J0D01*
G01*
X370053D01*
Y220079D01*
X345120D01*
G37*
X10080Y225591D02*
G36*
X10080Y225591D02*
Y220079D01*
X27763D01*
G75*
G02*
X28059Y220477I1476J-786D01*
G01*
X29236Y221654D01*
G75*
G02*
X30421Y222146I1185J-1180D01*
G01*
X70575D01*
G75*
G02*
X70901Y222115I0J-1698D01*
G01*
X70578Y222437D01*
G75*
G02*
X70086Y223622I1181J1185D01*
G01*
Y225591D01*
X10080D01*
G37*
X127468Y223130D02*
G36*
X127468Y223130D02*
G75*
G02*
X127866Y222835I-780J-1465D01*
G01*
X130622Y220079D01*
X139771D01*
Y220567D01*
X137208Y223130D01*
X127468D01*
G37*
X139480Y225591D02*
G36*
X139480Y225591D02*
X142626Y222445D01*
G75*
G02*
X143118Y221260I-1181J-1185D01*
G01*
Y220079D01*
X156700D01*
Y225591D01*
X139480D01*
G37*
X160047D02*
G36*
X160047Y225591D02*
Y220079D01*
X161031D01*
Y225591D01*
X160047D01*
G37*
X164378D02*
G36*
X164378Y225591D02*
Y220079D01*
X211326D01*
G75*
G02*
X217232I2953J0D01*
G01*
X320053D01*
Y225591D01*
X197941D01*
G75*
G02*
X192035I-2953J0D01*
G01*
X164378D01*
G37*
X345120D02*
G36*
X345120Y225591D02*
Y220079D01*
X370053D01*
Y225591D01*
X345120D01*
G37*
X10080Y234646D02*
G36*
X10080Y234646D02*
Y225591D01*
X70086D01*
Y227882D01*
G75*
G02*
X68807Y230315I1674J2433D01*
G01*
G75*
G02*
X74712I2953J0D01*
G01*
G75*
G02*
X73433Y227882I-2953J0D01*
G01*
Y227361D01*
G75*
G02*
X77342Y226477I1476J-2558D01*
G01*
X137901D01*
G75*
G02*
X139086Y225985I0J-1672D01*
G01*
X139480Y225591D01*
X156700D01*
Y234646D01*
X154633D01*
G75*
G02*
X152741Y231891I-2953J0D01*
G01*
G75*
G02*
X154633Y229135I-1059J-2755D01*
G01*
G75*
G02*
X148728Y229135I-2953J-1D01*
G01*
G75*
G02*
X150620Y231891I2952J1D01*
G01*
G75*
G02*
X148728Y234646I1060J2756D01*
G01*
X60455D01*
G75*
G02*
X53143I-3656J1575D01*
G01*
X10080D01*
G37*
X160047D02*
G36*
X160047Y234646D02*
Y225591D01*
X161031D01*
Y234646D01*
X160047D01*
G37*
X164378D02*
G36*
X164378Y234646D02*
Y225591D01*
X192035D01*
G75*
G02*
X197941I2953J0D01*
G01*
X320053D01*
Y234646D01*
X197941D01*
G75*
G02*
X192035I-2953J0D01*
G01*
X164378D01*
G37*
X345120D02*
G36*
X345120Y234646D02*
Y225591D01*
X370053D01*
Y234646D01*
X365756D01*
Y232945D01*
X366441Y232289D01*
X366883Y231449D01*
X367035Y230512D01*
X366891Y229600D01*
X366471Y228776D01*
X365818Y228123D01*
X364995Y227704D01*
X364082Y227559D01*
X363170Y227704D01*
X362346Y228123D01*
X361693Y228776D01*
X361274Y229600D01*
X361130Y230512D01*
X361282Y231449D01*
X361724Y232289D01*
X362409Y232945D01*
Y234646D01*
X345120D01*
G37*
X10080Y238583D02*
G36*
X10080Y238583D02*
Y234646D01*
X53143D01*
G75*
G02*
X52818Y236221I3656J1575D01*
G01*
G75*
G02*
X53594Y238583I3981J0D01*
G01*
X28120D01*
G75*
G02*
X15399I-6360J3937D01*
G01*
X10080D01*
G37*
X60780Y236221D02*
G36*
X60780Y236221D02*
G75*
G02*
X60455Y234646I-3981J0D01*
G01*
X148728D01*
Y234646D01*
G75*
G02*
X150620Y237402I2953J0D01*
G01*
G75*
G02*
X149183Y238583I1059J2755D01*
G01*
X60004D01*
G75*
G02*
X60780Y236221I-3205J-2362D01*
G01*
G37*
X154178Y238583D02*
G36*
X154178Y238583D02*
G75*
G02*
X152741Y237402I-2497J1574D01*
G01*
G75*
G02*
X154633Y234646I-1060J-2756D01*
G01*
Y234646D01*
X156700D01*
Y238583D01*
X154178D01*
G37*
X160047D02*
G36*
X160047Y238583D02*
Y234646D01*
X161031D01*
Y238583D01*
X160047D01*
G37*
X164378D02*
G36*
X164378Y238583D02*
Y234646D01*
X192035D01*
G75*
G02*
X197941I2953J0D01*
G01*
X320053D01*
Y238583D01*
X164378D01*
G37*
X345120D02*
G36*
X345120Y238583D02*
Y234646D01*
X362409D01*
Y238583D01*
X360736D01*
G75*
G02*
X354830I-2953J0D01*
G01*
X345120D01*
G37*
X365756D02*
G36*
X365756Y238583D02*
Y234646D01*
X370053D01*
Y238583D01*
X365756D01*
G37*
X10080Y245276D02*
G36*
X10080Y245276D02*
Y238583D01*
X15399D01*
G75*
G02*
X14279Y242520I6361J3937D01*
G01*
G75*
G02*
X14805Y245276I7480J0D01*
G01*
X10080D01*
G37*
X29240Y242520D02*
G36*
X29240Y242520D02*
G75*
G02*
X28120Y238583I-7481J0D01*
G01*
X53594D01*
G75*
G02*
X60004I3205J-2362D01*
G01*
X149183D01*
G75*
G02*
X148728Y240157I2496J1575D01*
G01*
G75*
G02*
Y240158I3759J0D01*
G01*
G75*
G02*
X154633I2953J0D01*
G01*
G75*
G02*
Y240157I-3759J0D01*
G01*
G75*
G02*
X154178Y238583I-2952J0D01*
G01*
X156700D01*
Y244685D01*
X156818Y245276D01*
X62769D01*
G75*
G02*
X64083Y242717I-1835J-2559D01*
G01*
G75*
G02*
X57783I-3150J0D01*
G01*
G75*
G02*
X59098Y245276I3150J0D01*
G01*
X45032D01*
G75*
G02*
X37070I-3981J0D01*
G01*
X28714D01*
G75*
G02*
X29240Y242520I-6954J-2756D01*
G01*
G37*
X160047Y243993D02*
G36*
X160047Y243993D02*
Y238583D01*
X161031D01*
Y243504D01*
X161159Y244146D01*
X161523Y244689D01*
X162110Y245276D01*
X161330D01*
X160047Y243993D01*
G37*
X164378Y242811D02*
G36*
X164378Y242811D02*
Y238583D01*
X320053D01*
Y244488D01*
X320142Y245276D01*
X317170D01*
X317087Y244757D01*
X316668Y243934D01*
X316015Y243281D01*
X315192Y242861D01*
X314279Y242717D01*
X313367Y242861D01*
X312543Y243281D01*
X311890Y243934D01*
X311471Y244757D01*
X311389Y245276D01*
X166842D01*
X164378Y242811D01*
G37*
X345120Y244488D02*
G36*
X345120Y244488D02*
Y238583D01*
X354830D01*
G75*
G02*
X360736I2953J0D01*
G01*
X362409D01*
Y245276D01*
X345031D01*
X345120Y244488D01*
G37*
X365756Y245276D02*
G36*
X365756Y245276D02*
Y238583D01*
X370053D01*
Y245276D01*
X365756D01*
G37*
X10080Y252387D02*
G36*
X10080Y252387D02*
Y245276D01*
X14805D01*
G75*
G02*
X28714I6954J-2756D01*
G01*
X37070D01*
G75*
G02*
X45032I3981J0D01*
G01*
X59098D01*
G75*
G02*
X62769I1835J-2559D01*
G01*
X156818D01*
X156828Y245327D01*
X157193Y245870D01*
X165521Y254199D01*
X11893D01*
X10080Y252387D01*
G37*
X161330Y245276D02*
G36*
X161330Y245276D02*
X162110D01*
X165653Y248819D01*
X166196Y249183D01*
X166838Y249311D01*
X312311D01*
X312952Y249183D01*
X313496Y248819D01*
X313742Y248573D01*
X314602Y248605D01*
X315433Y248387D01*
X316168Y247939D01*
X316742Y247299D01*
X317107Y246520D01*
X317232Y245670D01*
X317170Y245276D01*
X320142D01*
X320194Y245744D01*
X320612Y246937D01*
X321284Y248007D01*
X322178Y248901D01*
X323248Y249573D01*
X324441Y249991D01*
X325697Y250132D01*
X339476D01*
X340732Y249991D01*
X341925Y249573D01*
X342995Y248901D01*
X343889Y248007D01*
X344561Y246937D01*
X344979Y245744D01*
X345031Y245276D01*
X362409D01*
Y248717D01*
X358862Y252264D01*
X168319D01*
X161330Y245276D01*
G37*
X167531Y245965D02*
G36*
X167531Y245965D02*
X166842Y245276D01*
X311389D01*
X311326Y245670D01*
X311341Y245965D01*
X167531D01*
G37*
X361659Y254199D02*
G36*
X361659Y254199D02*
X365263Y250595D01*
X365628Y250052D01*
X365756Y249410D01*
Y245276D01*
X370053D01*
Y252387D01*
X368241Y254199D01*
X361659D01*
G37*
X178120Y42815D02*
G75*
G02*
X180430Y37019I-1503J-3957D01*
G01*
X182783Y34666D01*
G75*
G02*
X183275Y33481I-1181J-1185D01*
G01*
Y31455D01*
G75*
G02*
X188200Y32784I3343J-2596D01*
G01*
X189968Y34552D01*
Y35390D01*
G75*
G02*
X181795Y38859I-3350J3469D01*
G01*
G75*
G02*
X183860Y42815I4823J0D01*
G01*
X178120D01*
G36*
X178120Y42815D02*
G75*
G02*
X180430Y37019I-1503J-3957D01*
G01*
X182783Y34666D01*
G75*
G02*
X183275Y33481I-1181J-1185D01*
G01*
Y31455D01*
G75*
G02*
X188200Y32784I3343J-2596D01*
G01*
X189968Y34552D01*
Y35390D01*
G75*
G02*
X181795Y38859I-3350J3469D01*
G01*
G75*
G02*
X183860Y42815I4823J0D01*
G01*
X178120D01*
G37*
X211720Y99607D02*
Y88780D01*
X215854Y84646D01*
X282881Y25809D02*
Y23134D01*
X284263Y21752D01*
X287898D01*
G75*
G02*
X289084Y21262I3J-1673D01*
G01*
X289771Y20575D01*
Y25210D01*
G75*
G02*
X282881Y25809I-3154J3649D01*
G01*
G36*
X282881Y25809D02*
Y23134D01*
X284263Y21752D01*
X287898D01*
G75*
G02*
X289084Y21262I3J-1673D01*
G01*
X289771Y20575D01*
Y25210D01*
G75*
G02*
X282881Y25809I-3154J3649D01*
G01*
G37*
Y36870D02*
Y31908D01*
G75*
G02*
X289771Y32507I3736J-3050D01*
G01*
Y36036D01*
G75*
G02*
X282881Y36870I-3154J2823D01*
G01*
G36*
X282881Y36870D02*
Y31908D01*
G75*
G02*
X289771Y32507I3736J-3050D01*
G01*
Y36036D01*
G75*
G02*
X282881Y36870I-3154J2823D01*
G01*
G37*
D02*
D124*
X17035Y78150D02*
X14673D01*
X17035Y117520D02*
X14673D01*
X17035Y156890D02*
X14673D01*
X17035Y196260D02*
X14673D01*
X20677Y75886D02*
Y73524D01*
Y80413D02*
Y82776D01*
Y95866D02*
Y100197D01*
X22055Y101575D01*
X65658D01*
X69398Y97835D01*
Y80512D01*
X20677Y115256D02*
Y112894D01*
Y119783D02*
Y122146D01*
Y135236D02*
Y126772D01*
X21858Y125591D01*
X69988D01*
X72744Y122835D01*
Y75000D01*
X82389Y65355D01*
X108177D01*
X20677Y154626D02*
Y152264D01*
Y159154D02*
Y161516D01*
Y174606D02*
Y165748D01*
X23827Y162599D01*
X71016D01*
X74319Y159296D01*
Y157087D01*
X20677Y193996D02*
Y191634D01*
Y198524D02*
Y200886D01*
Y213976D02*
Y207382D01*
X22547Y205512D01*
X71365D01*
X74909Y201969D01*
Y186811D01*
X24319Y78150D02*
X26681D01*
X24319Y117520D02*
X26681D01*
X24319Y156890D02*
X26681D01*
X24319Y196260D02*
X26681D01*
X29240Y216339D02*
Y219292D01*
X30421Y220473D01*
X70578D01*
X72153Y218898D01*
X126287D01*
X129043Y216142D01*
Y171654D01*
X127665Y170276D01*
Y165748D01*
X128846Y164567D01*
X137507D01*
X139870Y162205D01*
X74319Y157087D02*
Y124213D01*
X75303Y123229D01*
Y75000D01*
X81798Y68504D01*
X104633D01*
X74909Y186811D02*
Y162008D01*
X77862Y159056D01*
Y75000D01*
X81208Y71654D01*
X101287D01*
X101287Y71654D01*
X74909Y224804D02*
X137901D01*
X141444Y221260D01*
Y212224D01*
X114059Y38859D02*
X111696D01*
X116618Y36300D02*
Y33937D01*
Y41418D02*
Y43780D01*
X119177Y38859D02*
X121539D01*
X131208Y168504D02*
Y217126D01*
X126681Y221654D01*
X73728D01*
X71759Y223622D01*
Y230315D01*
X141838Y79922D02*
Y51969D01*
X133964Y44095D01*
X128059D01*
X126681Y42717D01*
Y38922D01*
X126618Y38859D01*
X144059Y28859D02*
X141696D01*
X146618Y26300D02*
Y23937D01*
Y31418D02*
Y33780D01*
X149177Y28859D02*
X151539D01*
X156618D02*
X156917D01*
X161523Y33465D01*
Y76378D01*
X164059Y28859D02*
X161696D01*
X166618Y26300D02*
Y23937D01*
Y31418D02*
Y33780D01*
X169177Y28859D02*
X171539D01*
X175303Y52363D02*
X249909D01*
X184059Y38859D02*
X181696D01*
X186618Y28859D02*
X186641D01*
X191641Y33859D01*
Y41930D01*
X189082Y44489D01*
X166838D01*
X164870Y46457D01*
Y77756D01*
X162704Y79922D01*
Y243504D01*
X166838Y247638D01*
X312311D01*
X314279Y245670D01*
X186618Y28859D02*
X186641D01*
X186618Y36300D02*
Y33937D01*
X197744Y55906D02*
X219004D01*
X197744Y60237D02*
X219004D01*
X214059Y28859D02*
X211696D01*
X216618Y26300D02*
Y23937D01*
Y31418D02*
Y33780D01*
X219177Y28859D02*
X221539D01*
X227665Y216142D02*
X287902D01*
X291444Y212599D01*
Y72441D01*
X287114Y68111D01*
X279767D01*
X276618Y64961D01*
Y38859D01*
X231602Y212205D02*
X283965D01*
X288689Y207481D01*
Y76772D01*
X283177Y71260D01*
X269791D01*
X264870Y66339D01*
Y45670D01*
X244059Y28859D02*
X241696D01*
X246563Y65355D02*
X259161D01*
X261523Y62993D01*
Y25197D01*
X253256Y16930D01*
X180027D01*
X176484Y20473D01*
Y28725D01*
X176618Y28859D01*
X246618Y26300D02*
Y23937D01*
Y31418D02*
Y33780D01*
X253256Y61811D02*
Y46063D01*
X251681Y44488D01*
Y22441D01*
X248531Y19292D01*
X185145D01*
X181602Y22835D01*
Y33481D01*
X176618Y38465D01*
Y38859D01*
X266618Y36300D02*
Y33937D01*
X269177Y38859D02*
X271539D01*
X285047Y12993D02*
X282685D01*
X286326Y12697D02*
Y10335D01*
Y13288D02*
Y15650D01*
X286618Y26300D02*
Y23937D01*
Y31418D02*
Y33780D01*
Y38859D02*
X289988D01*
X291444Y37402D01*
Y20473D01*
X292626Y19292D01*
Y14961D01*
Y11024D02*
X290263D01*
X289476Y11811D01*
Y18504D01*
X287901Y20079D01*
X283570D01*
X281208Y22441D01*
Y42914D01*
X283177Y44882D01*
X294988D01*
X296563Y43307D01*
Y38914D01*
X296618Y38859D01*
X292626Y14961D02*
X318216D01*
X323334Y20079D01*
Y40158D01*
X326878Y43701D01*
X352469D01*
X357980Y49213D01*
Y113780D01*
X352862Y118898D01*
X346563D01*
X297350Y11024D02*
X292626D01*
X320185Y53937D02*
X320185Y53937D01*
X341444D01*
Y53937D01*
X345381Y57874D01*
Y103150D01*
X346563Y104331D01*
Y112697D02*
Y110335D01*
X347842Y113977D02*
X350204D01*
X362311Y103150D02*
Y48426D01*
X355618Y41733D01*
X328846D01*
X326484Y39370D01*
Y19685D01*
X317822Y11024D01*
X297350D01*
X364082Y230512D02*
Y249410D01*
X359555Y253937D01*
X167626D01*
X158374Y244685D01*
Y54331D01*
X155618Y51575D01*
X144200D01*
X141641Y49016D01*
Y33859D01*
X136641Y28859D01*
X136618D01*
D02*
D125*
X20578Y73229D03*
X20579Y129134D03*
X22547Y11811D03*
Y27559D03*
X24122Y107874D03*
X26287Y44095D03*
X28059Y141733D03*
Y148819D03*
X29240Y216339D03*
X30028Y32677D03*
Y120079D03*
X30421Y157087D03*
X30815Y196457D03*
X37508Y11811D03*
Y27559D03*
X39870Y59646D03*
X43020Y14173D03*
Y25197D03*
X43216Y96063D03*
X43413Y66536D03*
Y87993D03*
X46838Y144134D03*
X64279Y14173D03*
Y26378D03*
Y33465D03*
Y39764D03*
Y45276D03*
X65067Y110630D03*
X65460Y51969D03*
X69398Y80512D03*
X69791Y14567D03*
X71759Y230315D03*
X74319Y157087D03*
X74909Y186811D03*
Y224804D03*
X76878Y14567D03*
Y25984D03*
Y34252D03*
X77665Y215158D03*
X82193Y122638D03*
X82389Y20079D03*
Y39764D03*
Y45669D03*
Y50788D03*
X82783Y114567D03*
X86960Y192914D03*
Y199607D03*
X88295Y52363D03*
X91838Y57481D03*
X99515Y122638D03*
X100500Y107874D03*
X101287Y71654D03*
X104633Y68504D03*
X106208Y138189D03*
X106405Y155512D03*
Y173622D03*
Y205119D03*
Y244489D03*
X108177Y65355D03*
X113098Y99213D03*
X116641Y47244D03*
X117822Y80512D03*
X118019Y73820D03*
X123728Y10040D03*
X125696Y204725D03*
X131208Y168504D03*
X133374Y117323D03*
X134751Y145276D03*
X139870Y162205D03*
X141444Y212224D03*
X141838Y79922D03*
Y181299D03*
Y188189D03*
X151680Y229135D03*
Y234646D03*
Y240158D03*
X154437Y124804D03*
X154830Y181496D03*
X155224Y222835D03*
X161523Y76378D03*
X165854Y159449D03*
X169004Y187008D03*
X169791Y181103D03*
X173137Y92323D03*
X174122Y188976D03*
X175303Y52363D03*
X178846Y195276D03*
X180028Y169685D03*
X189082Y68111D03*
X189476Y95670D03*
X194988Y225591D03*
Y234646D03*
Y243701D03*
X197744Y55906D03*
Y60237D03*
X200894Y127559D03*
X211720Y99607D03*
X213098Y208268D03*
X213295Y234646D03*
X213492Y242126D03*
X214279Y220079D03*
X215854Y84646D03*
X219004Y55906D03*
Y60237D03*
X223925Y191733D03*
X224516Y152362D03*
Y165748D03*
Y178346D03*
X226090Y92520D03*
X227665Y216142D03*
X230027Y70473D03*
X231602Y212205D03*
X240264Y157874D03*
X241445Y121654D03*
X242626Y46851D03*
X243807Y175591D03*
X244201Y104724D03*
Y110630D03*
Y197244D03*
Y236614D03*
X246563Y65355D03*
X249909Y52363D03*
X253256Y61811D03*
Y81890D03*
X264870Y45670D03*
X270185Y182678D03*
X275500Y10040D03*
X279634Y79134D03*
Y118504D03*
Y157874D03*
Y236614D03*
X283177Y196851D03*
X299712Y54725D03*
X304437Y21260D03*
X314279Y245670D03*
X317035Y79134D03*
Y118504D03*
Y157874D03*
Y197244D03*
Y236614D03*
X320185Y53937D03*
X346563Y104331D03*
Y113977D03*
Y118898D03*
Y158268D03*
Y212993D03*
X357783Y238583D03*
X361917Y172048D03*
X362311Y103150D03*
X363492Y124213D03*
X363885Y38583D03*
X364082Y230512D03*
X364279Y210630D03*
X367232Y251772D03*
X367429Y33858D03*
X368019Y189370D03*
D02*
D126*
X20677Y78150D02*
Y73328D01*
X20578Y73229D01*
X20677Y117520D02*
Y111319D01*
X24122Y107874D01*
X20677Y156890D02*
X30224D01*
X30421Y157087D01*
X20677Y196260D02*
X30618D01*
X30815Y196457D01*
X21366Y27559D02*
X22547D01*
X286326Y12993D02*
X278452D01*
X275500Y10040D01*
D02*
D127*
X41051Y245276D03*
X56799Y236221D03*
D02*
D128*
X368019Y189370D02*
Y42717D01*
X363885Y38583D01*
D02*
D129*
X116618Y28859D03*
Y38859D03*
X126618Y28859D03*
Y38859D03*
X136618Y28859D03*
Y38859D03*
X146618Y28859D03*
Y38859D03*
X156618Y28859D03*
Y38859D03*
X166618Y28859D03*
Y38859D03*
X176618Y28859D03*
Y38859D03*
X186618Y28859D03*
Y38859D03*
X196618Y28859D03*
Y38859D03*
X206618Y28859D03*
Y38859D03*
X216618Y28859D03*
Y38859D03*
X226618Y28859D03*
Y38859D03*
X236618Y28859D03*
Y38859D03*
X246618Y28859D03*
Y38859D03*
X256618Y28859D03*
Y38859D03*
X266618Y28859D03*
Y38859D03*
X276618Y28859D03*
Y38859D03*
X286618Y28859D03*
Y38859D03*
X296618Y28859D03*
Y38859D03*
X306618Y28859D03*
Y38859D03*
D02*
D130*
X20677Y78150D03*
Y95866D03*
Y117520D03*
Y135236D03*
Y156890D03*
Y174606D03*
Y196260D03*
Y213976D03*
X56504Y78150D03*
Y95866D03*
Y117520D03*
Y135236D03*
Y156890D03*
Y174606D03*
Y196260D03*
Y213976D03*
D02*
D131*
X286326Y12993D03*
X292626Y11024D03*
Y14961D03*
X0Y0D02*
M02*
