G04 DesignSpark PCB PRO Gerber Version 10.0 Build 5299*
G04 #@! TF.Part,Single*
G04 #@! TF.FileFunction,Copper,L2,Bot*
G04 #@! TF.FilePolarity,Positive*
%FSLAX35Y35*%
%MOIN*%
G04 #@! TA.AperFunction,ComponentPad*
%ADD21R,0.06496X0.06496*%
G04 #@! TD.AperFunction*
%ADD18C,0.00787*%
%ADD75C,0.00984*%
%ADD19C,0.01000*%
G04 #@! TA.AperFunction,ViaPad*
%ADD70C,0.03543*%
G04 #@! TD.AperFunction*
%ADD76C,0.03937*%
G04 #@! TA.AperFunction,ViaPad*
%ADD134C,0.05600*%
G04 #@! TA.AperFunction,ComponentPad*
%ADD20C,0.06102*%
%ADD22C,0.06496*%
%ADD137C,0.24921*%
G04 #@! TD.AperFunction*
X0Y0D02*
D02*
D18*
X6974Y268984D02*
Y7394D01*
X11331Y3037D01*
X272921D01*
X277278Y7394D01*
Y268984D01*
X272921Y273341D01*
X11331D01*
X6974Y268984D01*
X20472Y24016D02*
G75*
G02*
X35433I7480J0D01*
G01*
G75*
G02*
X20472I-7480J0D01*
G01*
Y252362D02*
G75*
G02*
X35433I7480J0D01*
G01*
G75*
G02*
X20472I-7480J0D01*
G01*
X38902Y123189D02*
G75*
G02*
X48185I4642J0D01*
G01*
G75*
G02*
X38902I-4642J0D01*
G01*
X273228Y182287D02*
G75*
G02*
X273720Y181102I-1181J-1185D01*
G01*
Y116535D01*
G75*
G02*
X273228Y115350I-1673J0D01*
G01*
X269689Y111811D01*
G75*
G02*
X268504Y111319I-1185J1181D01*
G01*
X266002D01*
G75*
G02*
X265354Y110362I-3797J1870D01*
G01*
Y108272D01*
G75*
G02*
Y108269I-1211J-2D01*
G01*
G75*
G02*
Y108268I-1410J0D01*
G01*
G75*
G02*
X264432Y106041I-3150J0D01*
G01*
X259707Y101316D01*
G75*
G02*
X257476Y100394I-2227J2227D01*
G01*
X240162D01*
G75*
G02*
X237930Y101316I-4J3150D01*
G01*
X235568Y103678D01*
G75*
G02*
X234646Y105906I2227J2227D01*
G01*
G75*
G02*
Y105907I1327J1D01*
G01*
G75*
G02*
Y105910I1195J2D01*
G01*
Y159325D01*
X232554Y161417D01*
X73352D01*
X68898Y156963D01*
Y107485D01*
G75*
G02*
Y107481I-1211J-2D01*
G01*
G75*
G02*
Y107480I-1410J0D01*
G01*
G75*
G02*
X67975Y105253I-3150J0D01*
G01*
X63251Y100529D01*
G75*
G02*
X61019Y99606I-2227J2227D01*
G01*
X46457D01*
G75*
G02*
X44227Y100531I0J3150D01*
G01*
X41319Y103439D01*
G75*
G02*
X40394Y105669I2224J2230D01*
G01*
Y110075D01*
G75*
G02*
X39114Y113189I3150J3114D01*
G01*
G75*
G02*
X47972I4429J0D01*
G01*
G75*
G02*
X46693Y110075I-4430J0D01*
G01*
Y106974D01*
X47761Y105906D01*
X59719D01*
X62598Y108785D01*
Y158268D01*
G75*
G02*
X63524Y160498I3150J0D01*
G01*
X69817Y166791D01*
G75*
G02*
X72047Y167717I2230J-2224D01*
G01*
X233858D01*
G75*
G02*
X236088Y166791I0J-3150D01*
G01*
X240020Y162860D01*
G75*
G02*
X240945Y160630I-2224J-2230D01*
G01*
Y107210D01*
X241462Y106693D01*
X256176D01*
X259055Y109572D01*
Y110362D01*
G75*
G02*
X257972Y113189I3150J2827D01*
G01*
G75*
G02*
X266171Y114665I4232J0D01*
G01*
X267811D01*
X270374Y117228D01*
Y180409D01*
X238189Y212594D01*
G75*
G02*
X237697Y213780I1181J1185D01*
G01*
Y243205D01*
X231000Y249902D01*
X179970D01*
G75*
G02*
X172397Y251618I-3592J1717D01*
G01*
G75*
G02*
X180010Y253248I3981J0D01*
G01*
X231693D01*
G75*
G02*
X232878Y252756I0J-1673D01*
G01*
X240551Y245083D01*
G75*
G02*
X241043Y243898I-1181J-1185D01*
G01*
Y214472D01*
X273228Y182287D01*
X247972Y113189D02*
G75*
G02*
X256437I4232J0D01*
G01*
G75*
G02*
X247972I-4232J0D01*
G01*
Y123189D02*
G75*
G02*
X256437I4232J0D01*
G01*
G75*
G02*
X247972I-4232J0D01*
G01*
Y133189D02*
G75*
G02*
X256437I4232J0D01*
G01*
G75*
G02*
X247972I-4232J0D01*
G01*
Y143189D02*
G75*
G02*
X256437I4232J0D01*
G01*
G75*
G02*
X247972I-4232J0D01*
G01*
Y153189D02*
G75*
G02*
X256437I4232J0D01*
G01*
G75*
G02*
X247972I-4232J0D01*
G01*
Y163189D02*
G75*
G02*
X256437I4232J0D01*
G01*
G75*
G02*
X247972I-4232J0D01*
G01*
X257760Y123189D02*
G75*
G02*
X266650I4445J0D01*
G01*
G75*
G02*
X257760I-4445J0D01*
G01*
X257972Y133189D02*
G75*
G02*
X266437I4232J0D01*
G01*
G75*
G02*
X257972I-4232J0D01*
G01*
Y143189D02*
G75*
G02*
X266437I4232J0D01*
G01*
G75*
G02*
X257972I-4232J0D01*
G01*
Y153189D02*
G75*
G02*
X266437I4232J0D01*
G01*
G75*
G02*
X257972I-4232J0D01*
G01*
Y163189D02*
G75*
G02*
X266437I4232J0D01*
G01*
G75*
G02*
X257972I-4232J0D01*
G01*
X248819Y24016D02*
G75*
G02*
X263780I7480J0D01*
G01*
G75*
G02*
X248819I-7480J0D01*
G01*
X169823Y146063D02*
G75*
G02*
X197106I13642J0D01*
G01*
G75*
G02*
X178096Y133522I-13641J0D01*
G01*
G75*
G02*
X178234Y132677I-2506J-845D01*
G01*
Y65748D01*
G75*
G02*
X175591Y63104I-2644J0D01*
G01*
X108661D01*
G75*
G02*
X106018Y65748I0J2644D01*
G01*
Y132677D01*
G75*
G02*
X108661Y135321I2644J0D01*
G01*
X175056D01*
G75*
G02*
X169823Y146063I8409J10742D01*
G01*
X39114Y133189D02*
G75*
G02*
X47972I4429J0D01*
G01*
G75*
G02*
X39114I-4429J0D01*
G01*
Y143189D02*
G75*
G02*
X47972I4429J0D01*
G01*
G75*
G02*
X39114I-4429J0D01*
G01*
Y153189D02*
G75*
G02*
X47972I4429J0D01*
G01*
G75*
G02*
X39114I-4429J0D01*
G01*
Y163189D02*
G75*
G02*
X47972I4429J0D01*
G01*
G75*
G02*
X39114I-4429J0D01*
G01*
X49114Y117618D02*
X57972D01*
Y108760D01*
X49114D01*
Y117618D01*
Y123189D02*
G75*
G02*
X57972I4429J0D01*
G01*
G75*
G02*
X49114I-4429J0D01*
G01*
Y133189D02*
G75*
G02*
X57972I4429J0D01*
G01*
G75*
G02*
X49114I-4429J0D01*
G01*
Y143189D02*
G75*
G02*
X57972I4429J0D01*
G01*
G75*
G02*
X49114I-4429J0D01*
G01*
Y153189D02*
G75*
G02*
X57972I4429J0D01*
G01*
G75*
G02*
X49114I-4429J0D01*
G01*
Y163189D02*
G75*
G02*
X57972I4429J0D01*
G01*
G75*
G02*
X49114I-4429J0D01*
G01*
X98957Y220866D02*
G75*
G02*
X126240I13642J0D01*
G01*
G75*
G02*
X98957I-13642J0D01*
G01*
X248819Y252362D02*
G75*
G02*
X263780I7480J0D01*
G01*
G75*
G02*
X248819I-7480J0D01*
G01*
X7368Y24016D02*
G36*
X7368Y24016D02*
Y7000D01*
X10937Y3431D01*
X273315D01*
X276884Y7000D01*
Y24016D01*
X263780D01*
G75*
G02*
X248819I-7480J0D01*
G01*
X35433D01*
G75*
G02*
X20472I-7480J0D01*
G01*
X7368D01*
G37*
Y113189D02*
G36*
X7368Y113189D02*
Y24016D01*
X20472D01*
G75*
G02*
X35433I7480J0D01*
G01*
X248819D01*
G75*
G02*
X263780I7480J0D01*
G01*
X276884D01*
Y113189D01*
X271067D01*
X269689Y111811D01*
G75*
G02*
X268504Y111319I-1185J1180D01*
G01*
X266002D01*
G75*
G02*
X265354Y110362I-3804J1875D01*
G01*
Y108272D01*
Y108269D01*
Y108268D01*
G75*
G02*
X264432Y106041I-3151J0D01*
G01*
X259707Y101316D01*
G75*
G02*
X257476Y100394I-2228J2229D01*
G01*
X240162D01*
G75*
G02*
X237930Y101316I-4J3152D01*
G01*
X235568Y103678D01*
G75*
G02*
X234646Y105905I2227J2227D01*
G01*
Y105906D01*
Y105907D01*
Y105910D01*
Y113189D01*
X178234D01*
Y65748D01*
G75*
G02*
X175591Y63104I-2644J0D01*
G01*
X108661D01*
G75*
G02*
X106018Y65748I0J2644D01*
G01*
Y113189D01*
X68898D01*
Y107485D01*
Y107481D01*
Y107480D01*
G75*
G02*
X67975Y105253I-3151J0D01*
G01*
X63251Y100529D01*
G75*
G02*
X61019Y99606I-2228J2229D01*
G01*
X46457D01*
G75*
G02*
X44227Y100531I0J3151D01*
G01*
X41319Y103439D01*
G75*
G02*
X40394Y105669I2226J2230D01*
G01*
Y110075D01*
G75*
G02*
X39114Y113189I3149J3114D01*
G01*
Y113189D01*
X7368D01*
G37*
X46693Y110075D02*
G36*
X46693Y110075D02*
Y106974D01*
X47761Y105906D01*
X59719D01*
X62598Y108785D01*
Y113189D01*
X57972D01*
Y108760D01*
X49114D01*
Y113189D01*
X47972D01*
Y113189D01*
G75*
G02*
X46693Y110075I-4428J0D01*
G01*
G37*
X240945Y113189D02*
G36*
X240945Y113189D02*
Y107210D01*
X241462Y106693D01*
X256176D01*
X259055Y109572D01*
Y110362D01*
G75*
G02*
X257972Y113189I3150J2827D01*
G01*
X256437D01*
G75*
G02*
X247972I-4232J0D01*
G01*
X240945D01*
G37*
X7368Y123189D02*
G36*
X7368Y123189D02*
Y113189D01*
X39114D01*
G75*
G02*
X47972I4429J0D01*
G01*
X49114D01*
Y117618D01*
X57972D01*
Y113189D01*
X62598D01*
Y123189D01*
X57972D01*
G75*
G02*
X49114I-4429J0D01*
G01*
X48185D01*
G75*
G02*
X38902I-4642J0D01*
G01*
X7368D01*
G37*
X68898D02*
G36*
X68898Y123189D02*
Y113189D01*
X106018D01*
Y123189D01*
X68898D01*
G37*
X178234D02*
G36*
X178234Y123189D02*
Y113189D01*
X234646D01*
Y123189D01*
X178234D01*
G37*
X240945D02*
G36*
X240945Y123189D02*
Y113189D01*
X247972D01*
G75*
G02*
X256437I4232J0D01*
G01*
X257972D01*
G75*
G02*
X266171Y114665I4232J0D01*
G01*
X267811D01*
X270374Y117228D01*
Y123189D01*
X266650D01*
G75*
G02*
X257760I-4445J0D01*
G01*
X256437D01*
G75*
G02*
X247972I-4232J0D01*
G01*
X240945D01*
G37*
X273228Y115350D02*
G36*
X273228Y115350D02*
X271067Y113189D01*
X276884D01*
Y123189D01*
X273720D01*
Y116535D01*
G75*
G02*
X273228Y115350I-1673J0D01*
G01*
G37*
X7368Y133189D02*
G36*
X7368Y133189D02*
Y123189D01*
X38902D01*
G75*
G02*
X48185I4642J0D01*
G01*
X49114D01*
G75*
G02*
X57972I4429J0D01*
G01*
X62598D01*
Y133189D01*
X57972D01*
G75*
G02*
X49114I-4429J0D01*
G01*
X47972D01*
G75*
G02*
X39114I-4429J0D01*
G01*
X7368D01*
G37*
X68898D02*
G36*
X68898Y133189D02*
Y123189D01*
X106018D01*
Y132677D01*
G75*
G02*
X106068Y133189I2644J0D01*
G01*
X68898D01*
G37*
X178234Y132677D02*
G36*
X178234Y132677D02*
Y123189D01*
X234646D01*
Y133189D01*
X187976D01*
G75*
G02*
X178954I-4511J12874D01*
G01*
X178185D01*
G75*
G02*
X178234Y132680I-2581J-508D01*
G01*
G75*
G02*
Y132677I-2506J-1D01*
G01*
G37*
X240945Y133189D02*
G36*
X240945Y133189D02*
Y123189D01*
X247972D01*
G75*
G02*
X256437I4232J0D01*
G01*
X257760D01*
G75*
G02*
X266650I4445J0D01*
G01*
X270374D01*
Y133189D01*
X266437D01*
G75*
G02*
X257972I-4232J0D01*
G01*
X256437D01*
G75*
G02*
X247972I-4232J0D01*
G01*
X240945D01*
G37*
X273720D02*
G36*
X273720Y133189D02*
Y123189D01*
X276884D01*
Y133189D01*
X273720D01*
G37*
X7368Y143189D02*
G36*
X7368Y143189D02*
Y133189D01*
X39114D01*
G75*
G02*
X47972I4429J0D01*
G01*
X49114D01*
G75*
G02*
X57972I4429J0D01*
G01*
X62598D01*
Y143189D01*
X57972D01*
G75*
G02*
X49114I-4429J0D01*
G01*
X47972D01*
G75*
G02*
X39114I-4429J0D01*
G01*
X7368D01*
G37*
X68898D02*
G36*
X68898Y143189D02*
Y133189D01*
X106068D01*
G75*
G02*
X108661Y135321I2594J-512D01*
G01*
X175056D01*
G75*
G02*
X170129Y143189I8409J10742D01*
G01*
X68898D01*
G37*
X178096Y133522D02*
G36*
X178096Y133522D02*
G75*
G02*
X178185Y133189I-2491J-843D01*
G01*
X178954D01*
G75*
G02*
X178096Y133522I4511J12876D01*
G01*
G37*
X196800Y143189D02*
G36*
X196800Y143189D02*
G75*
G02*
X187976Y133189I-13335J2874D01*
G01*
X234646D01*
Y143189D01*
X196800D01*
G37*
X240945D02*
G36*
X240945Y143189D02*
Y133189D01*
X247972D01*
G75*
G02*
X256437I4232J0D01*
G01*
X257972D01*
G75*
G02*
X266437I4232J0D01*
G01*
X270374D01*
Y143189D01*
X266437D01*
G75*
G02*
X257972I-4232J0D01*
G01*
X256437D01*
G75*
G02*
X247972I-4232J0D01*
G01*
X240945D01*
G37*
X273720D02*
G36*
X273720Y143189D02*
Y133189D01*
X276884D01*
Y143189D01*
X273720D01*
G37*
X7368Y153189D02*
G36*
X7368Y153189D02*
Y143189D01*
X39114D01*
G75*
G02*
X47972I4429J0D01*
G01*
X49114D01*
G75*
G02*
X57972I4429J0D01*
G01*
X62598D01*
Y153189D01*
X57972D01*
G75*
G02*
X49114I-4429J0D01*
G01*
X47972D01*
G75*
G02*
X39114I-4429J0D01*
G01*
X7368D01*
G37*
X68898D02*
G36*
X68898Y153189D02*
Y143189D01*
X170129D01*
G75*
G02*
X169823Y146063I13337J2875D01*
G01*
G75*
G02*
X171832Y153189I13642J0D01*
G01*
X68898D01*
G37*
X197106Y146063D02*
G36*
X197106Y146063D02*
G75*
G02*
X196800Y143189I-13642J0D01*
G01*
X234646D01*
Y153189D01*
X195097D01*
G75*
G02*
X197106Y146063I-11633J-7126D01*
G01*
G37*
X240945Y153189D02*
G36*
X240945Y153189D02*
Y143189D01*
X247972D01*
G75*
G02*
X256437I4232J0D01*
G01*
X257972D01*
G75*
G02*
X266437I4232J0D01*
G01*
X270374D01*
Y153189D01*
X266437D01*
G75*
G02*
X257972I-4232J0D01*
G01*
X256437D01*
G75*
G02*
X247972I-4232J0D01*
G01*
X240945D01*
G37*
X273720D02*
G36*
X273720Y153189D02*
Y143189D01*
X276884D01*
Y153189D01*
X273720D01*
G37*
X7368Y163189D02*
G36*
X7368Y163189D02*
Y153189D01*
X39114D01*
G75*
G02*
X47972I4429J0D01*
G01*
X49114D01*
G75*
G02*
X57972I4429J0D01*
G01*
X62598D01*
Y158268D01*
G75*
G02*
X63524Y160498I3151J0D01*
G01*
X66215Y163189D01*
X57972D01*
G75*
G02*
X49114I-4429J0D01*
G01*
X47972D01*
G75*
G02*
X39114I-4429J0D01*
G01*
X7368D01*
G37*
X68898Y156963D02*
G36*
X68898Y156963D02*
Y153189D01*
X171832D01*
G75*
G02*
X195097I11633J-7126D01*
G01*
X234646D01*
Y159325D01*
X232554Y161417D01*
X73352D01*
X68898Y156963D01*
G37*
X239691Y163189D02*
G36*
X239691Y163189D02*
X240020Y162860D01*
G75*
G02*
X240945Y160630I-2226J-2230D01*
G01*
Y153189D01*
X247972D01*
G75*
G02*
X256437I4232J0D01*
G01*
X257972D01*
G75*
G02*
X266437I4232J0D01*
G01*
X270374D01*
Y163189D01*
X266437D01*
G75*
G02*
X257972I-4232J0D01*
G01*
X256437D01*
G75*
G02*
X247972I-4232J0D01*
G01*
X239691D01*
G37*
X273720D02*
G36*
X273720Y163189D02*
Y153189D01*
X276884D01*
Y163189D01*
X273720D01*
G37*
X7368Y220866D02*
G36*
X7368Y220866D02*
Y163189D01*
X39114D01*
G75*
G02*
X47972I4429J0D01*
G01*
X49114D01*
G75*
G02*
X57972I4429J0D01*
G01*
X66215D01*
X69817Y166791D01*
G75*
G02*
X72047Y167717I2230J-2226D01*
G01*
X233858D01*
G75*
G02*
X236088Y166791I0J-3151D01*
G01*
X239691Y163189D01*
X247972D01*
G75*
G02*
X256437I4232J0D01*
G01*
X257972D01*
G75*
G02*
X266437I4232J0D01*
G01*
X270374D01*
Y180409D01*
X238189Y212594D01*
G75*
G02*
X237697Y213780I1181J1185D01*
G01*
Y220866D01*
X126240D01*
G75*
G02*
X98957I-13642J0D01*
G01*
X7368D01*
G37*
X241043D02*
G36*
X241043Y220866D02*
Y214472D01*
X273228Y182287D01*
G75*
G02*
X273720Y181102I-1181J-1185D01*
G01*
Y163189D01*
X276884D01*
Y220866D01*
X241043D01*
G37*
X7368Y252362D02*
G36*
X7368Y252362D02*
Y220866D01*
X98957D01*
G75*
G02*
X126240I13642J0D01*
G01*
X237697D01*
Y243205D01*
X231000Y249902D01*
X179970D01*
G75*
G02*
X172397Y251618I-3592J1717D01*
G01*
G75*
G02*
X172467Y252362I3981J0D01*
G01*
X35433D01*
G75*
G02*
X20472I-7480J0D01*
G01*
X7368D01*
G37*
X233272D02*
G36*
X233272Y252362D02*
X240551Y245083D01*
G75*
G02*
X241043Y243898I-1181J-1185D01*
G01*
Y220866D01*
X276884D01*
Y252362D01*
X263780D01*
G75*
G02*
X248819I-7480J0D01*
G01*
X233272D01*
G37*
X7368Y269378D02*
G36*
X7368Y269378D02*
Y252362D01*
X20472D01*
G75*
G02*
X35433I7480J0D01*
G01*
X172467D01*
G75*
G02*
X180010Y253248I3911J-744D01*
G01*
X231693D01*
G75*
G02*
X232878Y252756I0J-1672D01*
G01*
X233272Y252362D01*
X248819D01*
G75*
G02*
X263780I7480J0D01*
G01*
X276884D01*
Y269378D01*
X273315Y272947D01*
X10937D01*
X7368Y269378D01*
G37*
D02*
D19*
X40795Y123189D02*
X38795D01*
X43543Y120441D02*
Y118441D01*
Y125937D02*
Y127937D01*
X46291Y123189D02*
X48291D01*
X259654D02*
X257654D01*
X262205Y120638D02*
Y118638D01*
Y125740D02*
Y127740D01*
X264756Y123189D02*
X266756D01*
D02*
D70*
X63386Y20079D03*
Y59449D03*
Y177559D03*
Y216929D03*
Y256299D03*
X90945Y216929D03*
X93307Y177559D03*
X102756Y20079D03*
Y59449D03*
Y98819D03*
Y256299D03*
X142126Y20079D03*
Y57874D03*
Y220866D03*
X181496Y20079D03*
Y220866D03*
X186220Y256299D03*
X189370Y98819D03*
X220866Y20079D03*
Y59449D03*
Y98819D03*
Y256299D03*
X233465Y59055D03*
Y74016D03*
D02*
D20*
X252205Y113189D03*
Y123189D03*
Y133189D03*
Y143189D03*
Y153189D03*
Y163189D03*
X262205Y113189D03*
Y123189D03*
Y133189D03*
Y143189D03*
Y153189D03*
Y163189D03*
D02*
D21*
X53543Y113189D03*
D02*
D22*
X43543D03*
Y123189D03*
Y133189D03*
Y143189D03*
Y153189D03*
Y163189D03*
X53543Y123189D03*
Y133189D03*
Y143189D03*
Y153189D03*
Y163189D03*
D02*
D75*
X262205Y113189D02*
X262402Y112992D01*
X268504D01*
X272047Y116535D01*
Y181102D01*
X239370Y213780D01*
Y243898D01*
X231693Y251575D01*
X176421D01*
X176378Y251618D01*
D02*
D76*
X43543Y113189D02*
Y105669D01*
X46457Y102756D01*
X61024D01*
X65748Y107480D01*
Y158268D01*
X72047Y164567D01*
X233858D01*
X237795Y160630D01*
Y105906D01*
X240157Y103543D01*
X257480D01*
X262205Y108268D01*
Y113189D01*
D02*
D134*
X176378Y251618D03*
D02*
D137*
X112598Y220866D03*
X183465Y146063D03*
X0Y0D02*
M02*
