G04 DesignSpark PCB PRO Gerber Version 10.0 Build 5299*
G04 #@! TF.Part,Single*
G04 #@! TF.FileFunction,Copper,L1,Top*
G04 #@! TF.FilePolarity,Positive*
%FSLAX35Y35*%
%MOIN*%
G04 #@! TA.AperFunction,SMDPad,CuDef*
%ADD76R,0.03937X0.04291*%
%ADD75R,0.03543X0.03543*%
G04 #@! TA.AperFunction,ComponentPad*
%ADD29R,0.06496X0.06496*%
G04 #@! TD.AperFunction*
%ADD17C,0.00500*%
%ADD19C,0.00787*%
%ADD22C,0.00984*%
%ADD21C,0.01000*%
%ADD23C,0.01969*%
G04 #@! TA.AperFunction,ViaPad*
%ADD24C,0.03543*%
G04 #@! TD.AperFunction*
%ADD130C,0.03937*%
G04 #@! TA.AperFunction,ViaPad*
%ADD137C,0.05600*%
G04 #@! TA.AperFunction,ComponentPad*
%ADD28C,0.06102*%
%ADD72C,0.06496*%
G04 #@! TA.AperFunction,SMDPad,CuDef*
%ADD138R,0.04724X0.03150*%
%ADD74R,0.05906X0.04331*%
%ADD139R,0.08465X0.05118*%
G04 #@! TA.AperFunction,ComponentPad*
%ADD140C,0.24921*%
G04 #@! TD.AperFunction*
X0Y0D02*
D02*
D17*
X166929Y252618D02*
Y257618D01*
D02*
D19*
X6974Y268984D02*
Y7394D01*
X11331Y3037D01*
X272921D01*
X277278Y7394D01*
Y268984D01*
X272921Y273341D01*
X11331D01*
X6974Y268984D01*
X20472Y24016D02*
G75*
G02*
X35433I7480J0D01*
G01*
G75*
G02*
X20472I-7480J0D01*
G01*
Y252362D02*
G75*
G02*
X35433I7480J0D01*
G01*
G75*
G02*
X20472I-7480J0D01*
G01*
X38902Y123189D02*
G75*
G02*
X48185I4642J0D01*
G01*
G75*
G02*
X38902I-4642J0D01*
G01*
X257972Y113189D02*
G75*
G02*
X266437I4232J0D01*
G01*
G75*
G02*
X265354Y110362I-4233J0D01*
G01*
Y93307D01*
G75*
G02*
X264429Y91077I-3150J0D01*
G01*
X248293Y74941D01*
G75*
G02*
X246063Y74016I-2230J2224D01*
G01*
X59449D01*
G75*
G02*
X57219Y74941I0J3150D01*
G01*
X41319Y90841D01*
G75*
G02*
X40394Y93071I2224J2230D01*
G01*
Y110075D01*
G75*
G02*
X39114Y113189I3150J3114D01*
G01*
G75*
G02*
X47972I4429J0D01*
G01*
G75*
G02*
X46693Y110075I-4430J0D01*
G01*
Y94376D01*
X60754Y80315D01*
X244758D01*
X259055Y94612D01*
Y110362D01*
G75*
G02*
X257972Y113189I3150J2827D01*
G01*
X248819Y24016D02*
G75*
G02*
X263780I7480J0D01*
G01*
G75*
G02*
X248819I-7480J0D01*
G01*
X171791Y55512D02*
G75*
G02*
X199075I13642J0D01*
G01*
G75*
G02*
X171791I-13642J0D01*
G01*
X273228Y225594D02*
G75*
G02*
X273720Y224409I-1181J-1185D01*
G01*
Y137795D01*
G75*
G02*
X273228Y136610I-1673J0D01*
G01*
X268508Y131890D01*
G75*
G02*
X267323Y131398I-1185J1181D01*
G01*
X266039D01*
G75*
G02*
X260486Y129322I-3834J1791D01*
G01*
X258200Y127036D01*
G75*
G02*
X257084Y126575I-1114J1113D01*
G01*
X254744D01*
G75*
G02*
X256437Y123189I-2539J-3386D01*
G01*
G75*
G02*
X247972I-4232J0D01*
G01*
G75*
G02*
X249665Y126575I4232J0D01*
G01*
X248290D01*
X246457Y124741D01*
Y90551D01*
G75*
G02*
X245995Y89438I-1575J0D01*
G01*
X237728Y81170D01*
G75*
G02*
X236612Y80709I-1114J1113D01*
G01*
X63388D01*
G75*
G02*
X62272Y81170I-2J1575D01*
G01*
X59517Y83926D01*
G75*
G02*
X59055Y85039I1113J1114D01*
G01*
Y126119D01*
X58600Y126575D01*
X56399D01*
G75*
G02*
X57972Y123189I-2856J-3386D01*
G01*
G75*
G02*
X49114I-4429J0D01*
G01*
G75*
G02*
X50688Y126575I4429J0D01*
G01*
X48349D01*
G75*
G02*
X47233Y127036I-2J1575D01*
G01*
X45191Y129078D01*
G75*
G02*
X39114Y133189I-1648J4111D01*
G01*
G75*
G02*
X47972I4429J0D01*
G01*
G75*
G02*
X47508Y131215I-4429J0D01*
G01*
X48999Y129724D01*
X50784D01*
G75*
G02*
X50735Y136614I2759J3465D01*
G01*
X48703D01*
G75*
G02*
X47587Y137076I-2J1575D01*
G01*
X45465Y139198D01*
G75*
G02*
X39114Y143189I-1921J3991D01*
G01*
G75*
G02*
X47972I4429J0D01*
G01*
G75*
G02*
X47631Y141485I-4430J0D01*
G01*
X49353Y139764D01*
X50735D01*
G75*
G02*
X49114Y143189I2808J3426D01*
G01*
G75*
G02*
X57683Y144764I4429J0D01*
G01*
X62320D01*
G75*
G02*
X63436Y144302I2J-1575D01*
G01*
X68436Y139302D01*
G75*
G02*
X68504Y139231I-1109J-1116D01*
G01*
Y149348D01*
X66237Y151614D01*
X57683D01*
G75*
G02*
X49114Y153189I-4140J1575D01*
G01*
G75*
G02*
X57683Y154764I4429J0D01*
G01*
X66887D01*
G75*
G02*
X68003Y154302I2J-1575D01*
G01*
X71192Y151113D01*
G75*
G02*
X71654Y150000I-1113J-1114D01*
G01*
Y96715D01*
X75849Y92520D01*
X222576D01*
X227165Y97109D01*
Y146063D01*
G75*
G02*
X227627Y147176I1575J0D01*
G01*
X234713Y154263D01*
G75*
G02*
X235829Y154724I1114J-1113D01*
G01*
X248261D01*
G75*
G02*
X256437Y153189I3944J-1535D01*
G01*
G75*
G02*
X248293Y151575I-4232J0D01*
G01*
X236479D01*
X230315Y145411D01*
Y96457D01*
G75*
G02*
X230157Y95770I-1575J0D01*
G01*
X231102Y96715D01*
Y139370D01*
G75*
G02*
X231564Y140483I1575J0D01*
G01*
X235107Y144027D01*
G75*
G02*
X236223Y144488I1114J-1113D01*
G01*
X248177D01*
G75*
G02*
X256437Y143189I4028J-1299D01*
G01*
G75*
G02*
X254691Y139764I-4232J0D01*
G01*
X256552D01*
X258313Y141525D01*
G75*
G02*
X266084Y144882I3891J1664D01*
G01*
X266277D01*
X266929Y145534D01*
Y193048D01*
X262733Y197244D01*
X217323D01*
Y181299D01*
X210236D01*
Y202067D01*
X209649D01*
G75*
G02*
X208463Y202557I-3J1673D01*
G01*
X206297Y204722D01*
G75*
G02*
X205807Y205906I1183J1183D01*
G01*
G75*
G02*
Y205909I793J2D01*
G01*
Y206113D01*
G75*
G02*
Y206879I1673J383D01*
G01*
Y226772D01*
G75*
G02*
X206299Y227957I1673J0D01*
G01*
X208657Y230315D01*
G75*
G02*
X209843Y230807I1185J-1181D01*
G01*
X267323D01*
G75*
G02*
X268508Y230315I0J-1673D01*
G01*
X273228Y225594D01*
X217402Y180315D02*
X228228D01*
Y172835D01*
X217402D01*
Y180315D01*
X257972Y153189D02*
G75*
G02*
X266437I4232J0D01*
G01*
G75*
G02*
X257972I-4232J0D01*
G01*
Y163189D02*
G75*
G02*
X266437I4232J0D01*
G01*
G75*
G02*
X257972I-4232J0D01*
G01*
X257760Y123189D02*
G75*
G02*
X266650I4445J0D01*
G01*
G75*
G02*
X257760I-4445J0D01*
G01*
X247972Y113189D02*
G75*
G02*
X256437I4232J0D01*
G01*
G75*
G02*
X247972I-4232J0D01*
G01*
X49114Y117618D02*
X57972D01*
Y108760D01*
X49114D01*
Y117618D01*
X39114Y153189D02*
G75*
G02*
X47972I4429J0D01*
G01*
G75*
G02*
X39114I-4429J0D01*
G01*
Y163189D02*
G75*
G02*
X47972I4429J0D01*
G01*
G75*
G02*
X39114I-4429J0D01*
G01*
X249378Y166339D02*
G75*
G02*
X256437Y163189I2827J-3150D01*
G01*
G75*
G02*
X249378Y160039I-4232J0D01*
G01*
X203425D01*
G75*
G02*
X201195Y160965I0J3150D01*
G01*
X196201Y165959D01*
G75*
G02*
X195276Y168189I2224J2230D01*
G01*
Y224286D01*
X192396Y227165D01*
X59848D01*
X56693Y224010D01*
Y166303D01*
G75*
G02*
X57972Y163189I-3150J-3114D01*
G01*
G75*
G02*
X49114I-4429J0D01*
G01*
G75*
G02*
X50394Y166303I4430J0D01*
G01*
Y225315D01*
G75*
G02*
X51319Y227545I3150J0D01*
G01*
X56313Y232539D01*
G75*
G02*
X58543Y233465I2230J-2224D01*
G01*
X193696D01*
G75*
G02*
X195928Y232542I4J-3150D01*
G01*
X200652Y227818D01*
G75*
G02*
X201575Y225591I-2227J-2227D01*
G01*
G75*
G02*
Y225589I-1327J0D01*
G01*
G75*
G02*
Y225586I-1195J-2D01*
G01*
Y169494D01*
X204730Y166339D01*
X249378D01*
X185827Y213667D02*
G75*
G02*
X188470Y211024I0J-2644D01*
G01*
Y144094D01*
G75*
G02*
X185827Y141451I-2644J0D01*
G01*
X118903D01*
G75*
G02*
X111024Y116673I-7880J-11136D01*
G01*
G75*
G02*
Y143957I0J13642D01*
G01*
G75*
G02*
X116617Y142757I0J-13643D01*
G01*
G75*
G02*
X116254Y144094I2281J1338D01*
G01*
Y211024D01*
G75*
G02*
X118898Y213667I2644J0D01*
G01*
X185827D01*
X113567Y248858D02*
X120291D01*
Y241780D01*
X113567D01*
Y248858D01*
X205512Y243420D02*
G75*
G02*
X207918Y239764I-1575J-3656D01*
G01*
G75*
G02*
X199956I-3981J0D01*
G01*
G75*
G02*
X202362Y243420I3981J0D01*
G01*
Y246985D01*
X199348Y250000D01*
X170079D01*
Y248291D01*
X163780D01*
Y254945D01*
X165498D01*
Y255291D01*
X163780D01*
Y256988D01*
X159843D01*
G75*
G02*
X158657Y257480I0J1673D01*
G01*
X156591Y259547D01*
X153150D01*
Y257874D01*
X145079D01*
Y255709D01*
X139173D01*
Y257874D01*
X131102D01*
Y259547D01*
X120181D01*
X118602Y257969D01*
Y255646D01*
X120079D01*
Y248992D01*
X113780D01*
Y255646D01*
X115256D01*
Y258661D01*
G75*
G02*
X115748Y259846I1673J0D01*
G01*
X118303Y262402D01*
G75*
G02*
X119488Y262894I1185J-1181D01*
G01*
X131102D01*
Y264567D01*
X139370D01*
Y261614D01*
X144882D01*
Y264567D01*
X153150D01*
Y262894D01*
X157283D01*
G75*
G02*
X158469Y262402I0J-1673D01*
G01*
X160535Y260335D01*
X163780D01*
Y261945D01*
X170079D01*
Y255291D01*
X168360D01*
Y254945D01*
X170079D01*
Y253150D01*
X199998D01*
G75*
G02*
X201113Y252688I2J-1575D01*
G01*
X205050Y248751D01*
G75*
G02*
X205512Y247638I-1113J-1114D01*
G01*
Y243420D01*
X248819Y252362D02*
G75*
G02*
X263780I7480J0D01*
G01*
G75*
G02*
X248819I-7480J0D01*
G01*
X7368Y24016D02*
G36*
X7368Y24016D02*
Y7000D01*
X10937Y3431D01*
X273315D01*
X276884Y7000D01*
Y24016D01*
X263780D01*
G75*
G02*
X248819I-7480J0D01*
G01*
X35433D01*
G75*
G02*
X20472I-7480J0D01*
G01*
X7368D01*
G37*
Y55512D02*
G36*
X7368Y55512D02*
Y24016D01*
X20472D01*
G75*
G02*
X35433I7480J0D01*
G01*
X248819D01*
G75*
G02*
X263780I7480J0D01*
G01*
X276884D01*
Y55512D01*
X199075D01*
G75*
G02*
X171791I-13642J0D01*
G01*
X7368D01*
G37*
Y95817D02*
G36*
X7368Y95817D02*
Y55512D01*
X171791D01*
G75*
G02*
X199075I13642J0D01*
G01*
X276884D01*
Y95817D01*
X265354D01*
Y93307D01*
G75*
G02*
X264429Y91077I-3151J0D01*
G01*
X248293Y74941D01*
G75*
G02*
X246063Y74016I-2230J2226D01*
G01*
X59449D01*
G75*
G02*
X57219Y74941I0J3151D01*
G01*
X41319Y90841D01*
G75*
G02*
X40394Y93071I2226J2230D01*
G01*
Y95817D01*
X7368D01*
G37*
X46693D02*
G36*
X46693Y95817D02*
Y94376D01*
X60754Y80315D01*
X244758D01*
X259055Y94612D01*
Y95817D01*
X246457D01*
Y90551D01*
G75*
G02*
X245995Y89438I-1575J0D01*
G01*
X237728Y81170D01*
G75*
G02*
X236612Y80709I-1114J1115D01*
G01*
X63388D01*
G75*
G02*
X62272Y81170I-2J1576D01*
G01*
X59517Y83926D01*
G75*
G02*
X59055Y85039I1114J1114D01*
G01*
Y95817D01*
X46693D01*
G37*
X72552D02*
G36*
X72552Y95817D02*
X75849Y92520D01*
X222576D01*
X225873Y95817D01*
X72552D01*
G37*
X230179D02*
G36*
X230179Y95817D02*
G75*
G02*
X230157Y95770I-1435J641D01*
G01*
X230204Y95817D01*
X230179D01*
G37*
X7368Y113189D02*
G36*
X7368Y113189D02*
Y95817D01*
X40394D01*
Y110075D01*
G75*
G02*
X39114Y113189I3149J3114D01*
G01*
Y113189D01*
X7368D01*
G37*
X46693Y110075D02*
G36*
X46693Y110075D02*
Y95817D01*
X59055D01*
Y113189D01*
X57972D01*
Y108760D01*
X49114D01*
Y113189D01*
X47972D01*
Y113189D01*
G75*
G02*
X46693Y110075I-4428J0D01*
G01*
G37*
X71654Y113189D02*
G36*
X71654Y113189D02*
Y96715D01*
X72552Y95817D01*
X225873D01*
X227165Y97109D01*
Y113189D01*
X71654D01*
G37*
X230179Y95817D02*
G36*
X230179Y95817D02*
X230204D01*
X231102Y96715D01*
Y113189D01*
X230315D01*
Y96457D01*
G75*
G02*
Y96456I-1504J0D01*
G01*
G75*
G02*
X230179Y95817I-1570J0D01*
G01*
G37*
X246457Y113189D02*
G36*
X246457Y113189D02*
Y95817D01*
X259055D01*
Y110362D01*
G75*
G02*
X257972Y113189I3150J2827D01*
G01*
X256437D01*
G75*
G02*
X247972I-4232J0D01*
G01*
X246457D01*
G37*
X265354Y110362D02*
G36*
X265354Y110362D02*
Y95817D01*
X276884D01*
Y113189D01*
X266437D01*
G75*
G02*
X265354Y110362I-4232J0D01*
G01*
G37*
X7368Y123189D02*
G36*
X7368Y123189D02*
Y113189D01*
X39114D01*
G75*
G02*
X47972I4429J0D01*
G01*
X49114D01*
Y117618D01*
X57972D01*
Y113189D01*
X59055D01*
Y123189D01*
X57972D01*
G75*
G02*
X49114I-4429J0D01*
G01*
X48185D01*
G75*
G02*
X38902I-4642J0D01*
G01*
X7368D01*
G37*
X71654D02*
G36*
X71654Y123189D02*
Y113189D01*
X227165D01*
Y123189D01*
X122656D01*
G75*
G02*
X111024Y116673I-11633J7126D01*
G01*
G75*
G02*
X99391Y123189I0J13642D01*
G01*
X71654D01*
G37*
X230315D02*
G36*
X230315Y123189D02*
Y113189D01*
X231102D01*
Y123189D01*
X230315D01*
G37*
X246457D02*
G36*
X246457Y123189D02*
Y113189D01*
X247972D01*
G75*
G02*
X256437I4232J0D01*
G01*
X257972D01*
G75*
G02*
X266437I4232J0D01*
G01*
X276884D01*
Y123189D01*
X266650D01*
G75*
G02*
X257760I-4445J0D01*
G01*
X256437D01*
G75*
G02*
X247972I-4232J0D01*
G01*
X246457D01*
G37*
X7368Y153189D02*
G36*
X7368Y153189D02*
Y123189D01*
X38902D01*
G75*
G02*
X48185I4642J0D01*
G01*
X49114D01*
Y123189D01*
G75*
G02*
X50688Y126575I4429J0D01*
G01*
X48349D01*
G75*
G02*
X47233Y127036I-2J1576D01*
G01*
X45191Y129078D01*
G75*
G02*
X39114Y133189I-1648J4111D01*
G01*
G75*
G02*
X47972I4429J0D01*
G01*
G75*
G02*
X47508Y131215I-4435J1D01*
G01*
X48999Y129724D01*
X50784D01*
G75*
G02*
X49114Y133189I2759J3465D01*
G01*
G75*
G02*
X50735Y136614I4429J0D01*
G01*
X48703D01*
G75*
G02*
X47587Y137076I-2J1576D01*
G01*
X45465Y139198D01*
G75*
G02*
X39114Y143189I-1921J3991D01*
G01*
G75*
G02*
X47972I4429J0D01*
G01*
G75*
G02*
X47631Y141485I-4435J2D01*
G01*
X49353Y139764D01*
X50735D01*
G75*
G02*
X49114Y143189I2809J3426D01*
G01*
G75*
G02*
X57683Y144764I4429J0D01*
G01*
X62320D01*
G75*
G02*
X63436Y144302I2J-1576D01*
G01*
X68436Y139302D01*
G75*
G02*
X68504Y139231I-1553J-1535D01*
G01*
Y149348D01*
X66237Y151614D01*
X57683D01*
G75*
G02*
X49114Y153189I-4140J1575D01*
G01*
X47972D01*
G75*
G02*
X39114I-4429J0D01*
G01*
X7368D01*
G37*
X57972Y123189D02*
G36*
X57972Y123189D02*
Y123189D01*
X59055D01*
Y126119D01*
X58600Y126575D01*
X56399D01*
G75*
G02*
X57972Y123189I-2855J-3385D01*
G01*
G37*
X69117Y153189D02*
G36*
X69117Y153189D02*
X71192Y151113D01*
G75*
G02*
X71654Y150000I-1114J-1114D01*
G01*
Y123189D01*
X99391D01*
G75*
G02*
X97382Y130315I11633J7126D01*
G01*
G75*
G02*
X111024Y143957I13642J0D01*
G01*
G75*
G02*
X116617Y142757I2J-13635D01*
G01*
G75*
G02*
X116254Y144094I2281J1338D01*
G01*
Y153189D01*
X69117D01*
G37*
X124665Y130315D02*
G36*
X124665Y130315D02*
G75*
G02*
X122656Y123189I-13642J0D01*
G01*
X227165D01*
Y146063D01*
G75*
G02*
X227627Y147176I1575J0D01*
G01*
X233639Y153189D01*
X188470D01*
Y144094D01*
G75*
G02*
X185827Y141451I-2644J0D01*
G01*
X118903D01*
G75*
G02*
X124665Y130315I-7880J-11136D01*
G01*
G37*
X230315Y145411D02*
G36*
X230315Y145411D02*
Y123189D01*
X231102D01*
Y139370D01*
G75*
G02*
X231564Y140483I1575J0D01*
G01*
X235107Y144027D01*
G75*
G02*
X236223Y144488I1114J-1115D01*
G01*
X248177D01*
G75*
G02*
X256437Y143189I4028J-1300D01*
G01*
G75*
G02*
X254691Y139764I-4232J0D01*
G01*
X256552D01*
X258313Y141525D01*
G75*
G02*
X257972Y143189I3891J1664D01*
G01*
G75*
G02*
X266084Y144882I4232J0D01*
G01*
X266277D01*
X266929Y145534D01*
Y153189D01*
X266437D01*
G75*
G02*
X257972I-4232J0D01*
G01*
X256437D01*
G75*
G02*
X248293Y151575I-4232J0D01*
G01*
X236479D01*
X230315Y145411D01*
G37*
X246457Y124741D02*
G36*
X246457Y124741D02*
Y123189D01*
X247972D01*
Y123189D01*
G75*
G02*
X249665Y126575I4232J0D01*
G01*
X248290D01*
X246457Y124741D01*
G37*
X256437Y123189D02*
G36*
X256437Y123189D02*
Y123189D01*
X257760D01*
G75*
G02*
X266650I4445J0D01*
G01*
X276884D01*
Y153189D01*
X273720D01*
Y137795D01*
G75*
G02*
X273228Y136610I-1673J0D01*
G01*
X268508Y131890D01*
G75*
G02*
X267323Y131398I-1185J1180D01*
G01*
X266039D01*
G75*
G02*
X260486Y129322I-3835J1791D01*
G01*
X258200Y127036D01*
G75*
G02*
X257084Y126575I-1114J1115D01*
G01*
X254744D01*
G75*
G02*
X256437Y123189I-2539J-3385D01*
G01*
G37*
X7368Y163189D02*
G36*
X7368Y163189D02*
Y153189D01*
X39114D01*
G75*
G02*
X47972I4429J0D01*
G01*
X49114D01*
G75*
G02*
X57683Y154764I4429J0D01*
G01*
X66887D01*
G75*
G02*
X68003Y154302I2J-1576D01*
G01*
X69117Y153189D01*
X116254D01*
Y163189D01*
X57972D01*
G75*
G02*
X49114I-4429J0D01*
G01*
X47972D01*
G75*
G02*
X39114I-4429J0D01*
G01*
X7368D01*
G37*
X188470D02*
G36*
X188470Y163189D02*
Y153189D01*
X233639D01*
X234713Y154263D01*
G75*
G02*
X235829Y154724I1114J-1115D01*
G01*
X248261D01*
G75*
G02*
X256437Y153189I3944J-1536D01*
G01*
X257972D01*
G75*
G02*
X266437I4232J0D01*
G01*
X266929D01*
Y163189D01*
X266437D01*
G75*
G02*
X257972I-4232J0D01*
G01*
X256437D01*
G75*
G02*
X249378Y160039I-4232J0D01*
G01*
X203425D01*
G75*
G02*
X201195Y160965I0J3151D01*
G01*
X198971Y163189D01*
X188470D01*
G37*
X273720D02*
G36*
X273720Y163189D02*
Y153189D01*
X276884D01*
Y163189D01*
X273720D01*
G37*
X7368Y176575D02*
G36*
X7368Y176575D02*
Y163189D01*
X39114D01*
G75*
G02*
X47972I4429J0D01*
G01*
X49114D01*
Y163189D01*
G75*
G02*
X50394Y166303I4428J0D01*
G01*
Y176575D01*
X7368D01*
G37*
X56693D02*
G36*
X56693Y176575D02*
Y166303D01*
G75*
G02*
X57972Y163189I-3149J-3114D01*
G01*
Y163189D01*
X116254D01*
Y176575D01*
X56693D01*
G37*
X188470D02*
G36*
X188470Y176575D02*
Y163189D01*
X198971D01*
X196201Y165959D01*
G75*
G02*
X195276Y168189I2226J2230D01*
G01*
Y176575D01*
X188470D01*
G37*
X201575D02*
G36*
X201575Y176575D02*
Y169494D01*
X204730Y166339D01*
X249378D01*
G75*
G02*
X256437Y163189I2827J-3150D01*
G01*
X257972D01*
G75*
G02*
X266437I4232J0D01*
G01*
X266929D01*
Y176575D01*
X228228D01*
Y172835D01*
X217402D01*
Y176575D01*
X201575D01*
G37*
X273720D02*
G36*
X273720Y176575D02*
Y163189D01*
X276884D01*
Y176575D01*
X273720D01*
G37*
X7368Y245319D02*
G36*
X7368Y245319D02*
Y176575D01*
X50394D01*
Y225315D01*
G75*
G02*
X51319Y227545I3151J0D01*
G01*
X56313Y232539D01*
G75*
G02*
X58543Y233465I2230J-2226D01*
G01*
X193696D01*
G75*
G02*
X195928Y232542I4J-3152D01*
G01*
X200652Y227818D01*
G75*
G02*
X201575Y225591I-2227J-2227D01*
G01*
Y225591D01*
Y225589D01*
Y225586D01*
Y176575D01*
X217402D01*
Y180315D01*
X228228D01*
Y176575D01*
X266929D01*
Y193048D01*
X262733Y197244D01*
X217323D01*
Y181299D01*
X210236D01*
Y202067D01*
X209649D01*
G75*
G02*
X208463Y202557I-3J1674D01*
G01*
X206297Y204722D01*
G75*
G02*
X205807Y205906I1185J1184D01*
G01*
Y205906D01*
Y205909D01*
Y206113D01*
G75*
G02*
X205764Y206496I1672J383D01*
G01*
G75*
G02*
X205807Y206879I1716J0D01*
G01*
Y226772D01*
G75*
G02*
X206299Y227957I1673J0D01*
G01*
X208657Y230315D01*
G75*
G02*
X209843Y230807I1185J-1180D01*
G01*
X267323D01*
G75*
G02*
X268508Y230315I0J-1672D01*
G01*
X273228Y225594D01*
G75*
G02*
X273720Y224409I-1181J-1185D01*
G01*
Y176575D01*
X276884D01*
Y245319D01*
X258819D01*
G75*
G02*
X253780I-2519J7043D01*
G01*
X205512D01*
Y243420D01*
G75*
G02*
X207918Y239764I-1574J-3656D01*
G01*
G75*
G02*
X199956I-3981J0D01*
G01*
G75*
G02*
X202362Y243420I3981J0D01*
G01*
Y245319D01*
X120291D01*
Y241780D01*
X113567D01*
Y245319D01*
X30472D01*
G75*
G02*
X25433I-2519J7043D01*
G01*
X7368D01*
G37*
X56693Y224010D02*
G36*
X56693Y224010D02*
Y176575D01*
X116254D01*
Y211024D01*
G75*
G02*
X118898Y213667I2644J0D01*
G01*
X185827D01*
G75*
G02*
X188470Y211024I0J-2644D01*
G01*
Y176575D01*
X195276D01*
Y224286D01*
X192396Y227165D01*
X59848D01*
X56693Y224010D01*
G37*
X7368Y252362D02*
G36*
X7368Y252362D02*
Y245319D01*
X25433D01*
G75*
G02*
X20472Y252362I2519J7043D01*
G01*
X7368D01*
G37*
X35433D02*
G36*
X35433Y252362D02*
G75*
G02*
X30472Y245319I-7480J0D01*
G01*
X113567D01*
Y248858D01*
X120291D01*
Y245319D01*
X202362D01*
Y246985D01*
X199348Y250000D01*
X170079D01*
Y248291D01*
X163780D01*
Y252362D01*
X120079D01*
Y248992D01*
X113780D01*
Y252362D01*
X35433D01*
G37*
X201439D02*
G36*
X201439Y252362D02*
X205050Y248751D01*
G75*
G02*
X205512Y247638I-1114J-1114D01*
G01*
Y245319D01*
X253780D01*
G75*
G02*
X248819Y252362I2519J7043D01*
G01*
X201439D01*
G37*
X263780D02*
G36*
X263780Y252362D02*
G75*
G02*
X258819Y245319I-7480J0D01*
G01*
X276884D01*
Y252362D01*
X263780D01*
G37*
X7368Y269378D02*
G36*
X7368Y269378D02*
Y252362D01*
X20472D01*
G75*
G02*
X35433I7480J0D01*
G01*
X113780D01*
Y255646D01*
X115256D01*
Y258661D01*
G75*
G02*
X115748Y259846I1673J0D01*
G01*
X118303Y262402D01*
G75*
G02*
X119488Y262894I1185J-1180D01*
G01*
X131102D01*
Y264567D01*
X139370D01*
Y261614D01*
X144882D01*
Y264567D01*
X153150D01*
Y262894D01*
X157283D01*
G75*
G02*
X158469Y262402I0J-1672D01*
G01*
X160535Y260335D01*
X163780D01*
Y261945D01*
X170079D01*
Y255291D01*
X168360D01*
Y254945D01*
X170079D01*
Y253150D01*
X199998D01*
G75*
G02*
X201113Y252688I2J-1576D01*
G01*
X201439Y252362D01*
X248819D01*
G75*
G02*
X263780I7480J0D01*
G01*
X276884D01*
Y269378D01*
X273315Y272947D01*
X10937D01*
X7368Y269378D01*
G37*
X118602Y257969D02*
G36*
X118602Y257969D02*
Y255646D01*
X120079D01*
Y252362D01*
X163780D01*
Y254945D01*
X165498D01*
Y255291D01*
X163780D01*
Y256988D01*
X159843D01*
G75*
G02*
X158657Y257480I0J1672D01*
G01*
X156591Y259547D01*
X153150D01*
Y257874D01*
X145079D01*
Y255709D01*
X139173D01*
Y257874D01*
X131102D01*
Y259547D01*
X120181D01*
X118602Y257969D01*
G37*
X53543Y143189D02*
X62323D01*
X67323Y138189D01*
Y92126D01*
X71260Y88189D01*
X224803D01*
X232677Y96063D01*
Y139370D01*
X236220Y142913D01*
X251929D01*
X252205Y143189D01*
X53543Y153189D02*
X66890D01*
X70079Y150000D01*
Y96063D01*
X75197Y90945D01*
X223228D01*
X228740Y96457D01*
Y146063D01*
X235827Y153150D01*
X252165D01*
X252205Y153189D01*
X166929Y251618D02*
X166972Y251575D01*
X200000D01*
X203937Y247638D01*
Y239764D01*
X209154Y226079D02*
Y206879D01*
G75*
G02*
X209196Y206556I-1673J-383D01*
G01*
X210024Y205728D01*
Y211630D01*
X210236D01*
Y216339D01*
X217323D01*
Y215945D01*
X228549D01*
G75*
G02*
X235871Y213780I3341J-2165D01*
G01*
G75*
G02*
X228549Y211614I-3981J0D01*
G01*
X217535D01*
Y205693D01*
X217323D01*
Y200394D01*
X263383D01*
G75*
G02*
X264499Y199932I2J-1575D01*
G01*
X269617Y194814D01*
G75*
G02*
X270079Y193701I-1113J-1114D01*
G01*
Y144882D01*
G75*
G02*
X269617Y143769I-1575J0D01*
G01*
X268043Y142194D01*
G75*
G02*
X266927Y141732I-1114J1113D01*
G01*
X266178D01*
G75*
G02*
X260541Y139298I-3974J1457D01*
G01*
X258318Y137076D01*
G75*
G02*
X257202Y136614I-1114J1113D01*
G01*
X254691D01*
G75*
G02*
X254635Y129724I-2486J-3425D01*
G01*
X256434D01*
X258290Y131580D01*
G75*
G02*
X257972Y133189I3915J1609D01*
G01*
G75*
G02*
X266141Y134744I4232J0D01*
G01*
X266630D01*
X270374Y138488D01*
Y223717D01*
X266630Y227461D01*
X210535D01*
X209154Y226079D01*
X217402Y224803D02*
X228228D01*
Y217323D01*
X217402D01*
Y224803D01*
X209547Y221063D02*
G36*
X209547Y221063D02*
Y206205D01*
X210024Y205728D01*
Y211630D01*
X210236D01*
Y216339D01*
X217323D01*
Y215945D01*
X228549D01*
G75*
G02*
X235871Y213780I3341J-2165D01*
G01*
G75*
G02*
X228549Y211614I-3981J0D01*
G01*
X217535D01*
Y205693D01*
X217323D01*
Y200394D01*
X263383D01*
G75*
G02*
X264499Y199932I2J-1576D01*
G01*
X269617Y194814D01*
G75*
G02*
X269980Y194248I-1114J-1114D01*
G01*
Y221063D01*
X228228D01*
Y217323D01*
X217402D01*
Y221063D01*
X209547D01*
G37*
X256437Y133189D02*
G36*
X256437Y133189D02*
G75*
G02*
X255117Y130118I-4232J0D01*
G01*
X256828D01*
X258290Y131580D01*
G75*
G02*
X257972Y133189I3922J1610D01*
G01*
G75*
G02*
X266141Y134744I4232J0D01*
G01*
X266630D01*
X269980Y138094D01*
Y144334D01*
G75*
G02*
X269617Y143769I-1477J548D01*
G01*
X268043Y142194D01*
G75*
G02*
X266927Y141732I-1114J1115D01*
G01*
X266178D01*
G75*
G02*
X260541Y139298I-3974J1457D01*
G01*
X258318Y137076D01*
G75*
G02*
X257202Y136614I-1114J1115D01*
G01*
X254691D01*
G75*
G02*
X256437Y133189I-2486J-3425D01*
G01*
G37*
X209547Y226472D02*
G36*
X209547Y226472D02*
Y221063D01*
X217402D01*
Y224803D01*
X228228D01*
Y221063D01*
X269980D01*
Y224110D01*
X267024Y227067D01*
X210142D01*
X209547Y226472D01*
G37*
X213780Y198819D02*
X263386D01*
X268504Y193701D01*
Y144882D01*
X266929Y143307D01*
X262323D01*
X262205Y143189D01*
Y133189D02*
X262126D01*
X257087Y128150D01*
X247638D01*
X244882Y125394D01*
Y90551D01*
X236614Y82283D01*
X63386D01*
X60630Y85039D01*
Y126772D01*
X59252Y128150D01*
X48346D01*
X43307Y133189D01*
X43543D01*
X262205Y143189D02*
X257205Y138189D01*
X238976D01*
X236614Y135827D01*
Y93307D01*
X228740Y85433D01*
X67323D01*
X64173Y88583D01*
Y135827D01*
X61811Y138189D01*
X48701D01*
X43701Y143189D01*
X43543D01*
D02*
D21*
X40795Y123189D02*
X38795D01*
X43543Y120441D02*
Y118441D01*
Y125937D02*
Y127937D01*
X46291Y123189D02*
X48291D01*
X115314Y243704D02*
X113461Y241850D01*
X115314Y246934D02*
X113461Y248787D01*
X118544Y243704D02*
X120398Y241850D01*
X118544Y246934D02*
X120398Y248787D01*
X211917Y208661D02*
X209917D01*
X215642D02*
X217642D01*
X259654Y123189D02*
X257654D01*
X262205Y120638D02*
Y118638D01*
Y125740D02*
Y127740D01*
X264756Y123189D02*
X266756D01*
D02*
D22*
X135236Y261220D02*
X119488D01*
X116929Y258661D01*
Y252319D01*
X149016Y261220D02*
X157283D01*
X159843Y258661D01*
X166886D01*
X166929Y258618D01*
X207480Y206496D02*
Y207087D01*
Y226772D01*
X209843Y229134D01*
X267323D01*
X272047Y224409D01*
Y137795D01*
X267323Y133071D01*
X262323D01*
X262205Y133189D01*
X213780Y203740D02*
X209646D01*
X207480Y205906D01*
Y207087D01*
X213780Y208661D02*
X220866D01*
D02*
D23*
X231890Y213780D02*
X213976D01*
X213780Y213583D01*
D02*
D24*
X63386Y20079D03*
Y59449D03*
Y177559D03*
Y216929D03*
Y256299D03*
X102756Y20079D03*
Y59449D03*
Y98819D03*
Y177559D03*
Y216929D03*
Y256299D03*
X142126Y20079D03*
Y59449D03*
Y98819D03*
Y220866D03*
X181496Y20079D03*
Y98819D03*
Y220866D03*
Y256299D03*
X220866Y20079D03*
Y59449D03*
Y98819D03*
Y208661D03*
Y256299D03*
X222441Y188976D03*
D02*
D28*
X252205Y113189D03*
Y123189D03*
Y133189D03*
Y143189D03*
Y153189D03*
Y163189D03*
X262205Y113189D03*
Y123189D03*
Y133189D03*
Y143189D03*
Y153189D03*
Y163189D03*
D02*
D29*
X53543Y113189D03*
D02*
D72*
X43543D03*
Y123189D03*
Y133189D03*
Y143189D03*
Y153189D03*
Y163189D03*
X53543Y123189D03*
Y133189D03*
Y143189D03*
Y153189D03*
Y163189D03*
D02*
D74*
X135236Y261220D03*
X149016D03*
D02*
D75*
X142126Y258661D03*
D02*
D76*
X116929Y245319D03*
Y252319D03*
X166929Y251618D03*
Y258618D03*
D02*
D130*
X43543Y113189D02*
Y93071D01*
X59449Y77165D01*
X246063D01*
X262205Y93307D01*
Y113189D01*
X252205Y163189D02*
X203425D01*
X198425Y168189D01*
Y225591D01*
X193701Y230315D01*
X58543D01*
X53543Y225315D01*
Y163189D01*
D02*
D137*
X203937Y239764D03*
X231890Y213780D03*
D02*
D138*
X213780Y184055D03*
Y188976D03*
Y193898D03*
Y198819D03*
Y203740D03*
Y208661D03*
Y213583D03*
D02*
D139*
X222815Y176575D03*
Y221063D03*
D02*
D140*
X111024Y130315D03*
X185433Y55512D03*
X0Y0D02*
M02*
