G04 DesignSpark PCB PRO Gerber Version 10.0 Build 5299*
G04 #@! TF.Part,Single*
G04 #@! TF.FileFunction,Legend,Top*
G04 #@! TF.FilePolarity,Positive*
%FSLAX35Y35*%
%MOIN*%
%ADD71C,0.00300*%
%ADD18C,0.00394*%
%ADD17C,0.00500*%
%ADD19C,0.00787*%
%ADD70C,0.00800*%
G04 #@! TD.AperFunction*
X0Y0D02*
D02*
D17*
X16948Y198152D02*
Y219841D01*
X17023Y220384D01*
X17252Y220777D01*
X17643Y221015D01*
X18204Y221096D01*
X29891D01*
X30836Y220913D01*
X31539Y220424D01*
X31976Y219722D01*
X32127Y218900D01*
Y210310D01*
X31975Y209493D01*
X31558Y208834D01*
X30935Y208374D01*
X30166Y208153D01*
X29499Y208006D01*
X29350Y207844D01*
X29303Y207565D01*
X29345Y207346D01*
X29494Y207202D01*
X30244Y207015D01*
X30638Y206918D01*
X30980Y206707D01*
X31421Y206074D01*
X32283Y203760D01*
X32622Y203147D01*
X32984Y202939D01*
X33578Y202858D01*
X40637D01*
X41210Y202937D01*
X41628Y203162D01*
X41884Y203520D01*
X41971Y203996D01*
Y204858D01*
X41907Y205302D01*
X41696Y205667D01*
X41309Y205923D01*
X40716Y206035D01*
X36441Y206231D01*
X35338Y206516D01*
X34441Y207099D01*
X33838Y207924D01*
X33617Y208937D01*
Y218507D01*
X33780Y219559D01*
X34240Y220306D01*
X34957Y220752D01*
X35892Y220900D01*
X45932D01*
X46531Y220820D01*
X46932Y220586D01*
X47157Y220205D01*
X47227Y219684D01*
Y216468D01*
X47150Y215902D01*
X46908Y215497D01*
X46482Y215254D01*
X45854Y215173D01*
X40402D01*
X39871Y215085D01*
X39505Y214850D01*
X39294Y214511D01*
X39226Y214115D01*
Y213016D01*
X39320Y212614D01*
X39598Y212300D01*
X40053Y212090D01*
X40677Y211996D01*
X45187Y211722D01*
X46146Y211454D01*
X46918Y210844D01*
X47432Y210007D01*
X47619Y209055D01*
Y199211D01*
X47563Y198705D01*
X47406Y198274D01*
X46859Y197627D01*
X46113Y197253D01*
X45305Y197132D01*
X29146D01*
X28587Y197171D01*
X28141Y197328D01*
X27806Y197661D01*
X27577Y198230D01*
X26165Y203996D01*
X26009Y204465D01*
X25768Y204809D01*
X25343Y205021D01*
X24636Y205094D01*
X24148Y205161D01*
X23763Y205368D01*
X23511Y205722D01*
X23420Y206231D01*
Y209251D01*
X23495Y209760D01*
X23729Y210114D01*
X24131Y210321D01*
X24714Y210389D01*
X25498D01*
X25978Y210497D01*
X26307Y210785D01*
X26497Y211199D01*
X26557Y211683D01*
Y214154D01*
X26472Y214623D01*
X26229Y214967D01*
X25846Y215180D01*
X25342Y215252D01*
X22675D01*
Y198269D01*
X22556Y197728D01*
X22253Y197377D01*
X21847Y197189D01*
X21420Y197132D01*
X18164D01*
X17627Y197203D01*
X17248Y197407D01*
X17022Y197728D01*
X16948Y198152D01*
G36*
X16948Y198152D02*
Y219841D01*
X17023Y220384D01*
X17252Y220777D01*
X17643Y221015D01*
X18204Y221096D01*
X29891D01*
X30836Y220913D01*
X31539Y220424D01*
X31976Y219722D01*
X32127Y218900D01*
Y210310D01*
X31975Y209493D01*
X31558Y208834D01*
X30935Y208374D01*
X30166Y208153D01*
X29499Y208006D01*
X29350Y207844D01*
X29303Y207565D01*
X29345Y207346D01*
X29494Y207202D01*
X30244Y207015D01*
X30638Y206918D01*
X30980Y206707D01*
X31421Y206074D01*
X32283Y203760D01*
X32622Y203147D01*
X32984Y202939D01*
X33578Y202858D01*
X40637D01*
X41210Y202937D01*
X41628Y203162D01*
X41884Y203520D01*
X41971Y203996D01*
Y204858D01*
X41907Y205302D01*
X41696Y205667D01*
X41309Y205923D01*
X40716Y206035D01*
X36441Y206231D01*
X35338Y206516D01*
X34441Y207099D01*
X33838Y207924D01*
X33617Y208937D01*
Y218507D01*
X33780Y219559D01*
X34240Y220306D01*
X34957Y220752D01*
X35892Y220900D01*
X45932D01*
X46531Y220820D01*
X46932Y220586D01*
X47157Y220205D01*
X47227Y219684D01*
Y216468D01*
X47150Y215902D01*
X46908Y215497D01*
X46482Y215254D01*
X45854Y215173D01*
X40402D01*
X39871Y215085D01*
X39505Y214850D01*
X39294Y214511D01*
X39226Y214115D01*
Y213016D01*
X39320Y212614D01*
X39598Y212300D01*
X40053Y212090D01*
X40677Y211996D01*
X45187Y211722D01*
X46146Y211454D01*
X46918Y210844D01*
X47432Y210007D01*
X47619Y209055D01*
Y199211D01*
X47563Y198705D01*
X47406Y198274D01*
X46859Y197627D01*
X46113Y197253D01*
X45305Y197132D01*
X29146D01*
X28587Y197171D01*
X28141Y197328D01*
X27806Y197661D01*
X27577Y198230D01*
X26165Y203996D01*
X26009Y204465D01*
X25768Y204809D01*
X25343Y205021D01*
X24636Y205094D01*
X24148Y205161D01*
X23763Y205368D01*
X23511Y205722D01*
X23420Y206231D01*
Y209251D01*
X23495Y209760D01*
X23729Y210114D01*
X24131Y210321D01*
X24714Y210389D01*
X25498D01*
X25978Y210497D01*
X26307Y210785D01*
X26497Y211199D01*
X26557Y211683D01*
Y214154D01*
X26472Y214623D01*
X26229Y214967D01*
X25846Y215180D01*
X25342Y215252D01*
X22675D01*
Y198269D01*
X22556Y197728D01*
X22253Y197377D01*
X21847Y197189D01*
X21420Y197132D01*
X18164D01*
X17627Y197203D01*
X17248Y197407D01*
X17022Y197728D01*
X16948Y198152D01*
G37*
X49606Y102350D02*
X49919Y102037D01*
X50544Y101725D01*
X51169Y102037D01*
X51481Y102350D01*
Y105475D01*
X52106D01*
X51481D02*
X50231D01*
X57106Y101725D02*
X54606D01*
X56794Y103913D01*
X57106Y104537D01*
X56794Y105163D01*
X56169Y105475D01*
X55231D01*
X54606Y105163D01*
X99213Y40157D02*
X193701D01*
Y221260D01*
X99213D01*
Y40157D01*
X111024Y131252D02*
Y135002D01*
Y133128D02*
X114149D01*
Y131252D02*
Y135002D01*
X118524Y131252D02*
X116024D01*
X118211Y133440D01*
X118524Y134065D01*
X118211Y134690D01*
X117586Y135002D01*
X116649D01*
X116024Y134690D01*
X115111Y240945D02*
X118861D01*
Y238757D01*
X118548Y238132D01*
X117923Y237820D01*
X117298Y238132D01*
X116986Y238757D01*
Y240945D01*
Y238757D02*
X115111Y237820D01*
Y235320D02*
Y234070D01*
Y234695D02*
X118861D01*
X118236Y235320D01*
X119579Y242669D02*
X114279D01*
Y254969D01*
X119579D01*
Y242669D01*
X134252Y254294D02*
Y250544D01*
X137377D01*
X139252D02*
Y254294D01*
X142377D01*
X141752Y252419D02*
X139252D01*
Y250544D02*
X142377D01*
X144252D02*
Y254294D01*
X146127D01*
X146752Y253981D01*
X147065Y253669D01*
X147377Y253044D01*
Y251794D01*
X147065Y251169D01*
X146752Y250856D01*
X146127Y250544D01*
X144252D01*
X149877D02*
X151127D01*
X150502D02*
Y254294D01*
X149877Y253669D01*
X57913Y29678D02*
Y33428D01*
X61039D01*
X60413Y31553D02*
X57913D01*
Y29678D02*
X61039D01*
X62913Y30615D02*
X63226Y29990D01*
X63851Y29678D01*
X65101D01*
X65726Y29990D01*
X66039Y30615D01*
X65726Y31240D01*
X65101Y31553D01*
X63851D01*
X63226Y31865D01*
X62913Y32490D01*
X63226Y33115D01*
X63851Y33428D01*
X65101D01*
X65726Y33115D01*
X66039Y32490D01*
X67913Y29678D02*
Y33428D01*
X69789D01*
X70413Y33115D01*
X70726Y32803D01*
X71039Y32178D01*
Y30928D01*
X70726Y30303D01*
X70413Y29990D01*
X69789Y29678D01*
X67913D01*
X72913D02*
Y33428D01*
Y31553D02*
X73851D01*
X76039Y33428D01*
X73851Y31553D02*
X76039Y29678D01*
X77913Y30928D02*
X80413D01*
X82913Y29678D02*
Y33428D01*
X86039D01*
X85413Y31553D02*
X82913D01*
X87913Y33428D02*
Y29678D01*
X91039D01*
X92913D02*
Y33428D01*
X94789D01*
X95413Y33115D01*
X95726Y32803D01*
X96039Y32178D01*
Y30928D01*
X95726Y30303D01*
X95413Y29990D01*
X94789Y29678D01*
X92913D01*
X102913Y32178D02*
X104163Y29678D01*
X105413Y32178D01*
X108226Y29990D02*
X108851Y29678D01*
X109476D01*
X110101Y29990D01*
X110413Y30615D01*
Y32490D01*
X110101Y33115D01*
X109476Y33428D01*
X108851D01*
X108226Y33115D01*
X107913Y32490D01*
Y30615D01*
X108226Y29990D01*
X110101Y33115D01*
X113226Y29678D02*
X113539Y29990D01*
X113226Y30303D01*
X112913Y29990D01*
X113226Y29678D01*
X118539D02*
X119789D01*
X119163D02*
Y33428D01*
X118539Y32803D01*
X127913Y30928D02*
Y31240D01*
X128226Y32178D01*
X128539Y32490D01*
X129163Y32803D01*
X129789D01*
X130413Y32490D01*
X130726Y32178D01*
X131039Y31240D01*
Y30928D01*
X130726Y30303D01*
X130413Y29990D01*
X129789Y29678D01*
X129163D01*
X128539Y29990D01*
X128226Y30303D01*
X127913Y30928D01*
X130101D02*
X129476Y30615D01*
X128851Y30928D01*
Y31553D01*
X129476Y31865D01*
X130101Y31553D01*
X137913Y29678D02*
Y33428D01*
X140101D01*
X140726Y33115D01*
X141039Y32490D01*
X140726Y31865D01*
X140101Y31553D01*
X137913D01*
X140101D02*
X141039Y29678D01*
X142913Y30615D02*
X143226Y29990D01*
X143851Y29678D01*
X145101D01*
X145726Y29990D01*
X146039Y30615D01*
X145726Y31240D01*
X145101Y31553D01*
X143851D01*
X143226Y31865D01*
X142913Y32490D01*
X143226Y33115D01*
X143851Y33428D01*
X145101D01*
X145726Y33115D01*
X146039Y32490D01*
X156039Y30303D02*
X155726Y29990D01*
X155101Y29678D01*
X154163D01*
X153539Y29990D01*
X153226Y30303D01*
X152913Y30928D01*
Y32178D01*
X153226Y32803D01*
X153539Y33115D01*
X154163Y33428D01*
X155101D01*
X155726Y33115D01*
X156039Y32803D01*
X157913Y30615D02*
X158226Y29990D01*
X158851Y29678D01*
X159476D01*
X160101Y29990D01*
X160413Y30615D01*
Y31240D01*
X160101Y31865D01*
X159476Y32178D01*
X158851D01*
X158226Y31865D01*
X157913Y31240D01*
Y30615D01*
X162913Y29678D02*
Y32178D01*
Y31865D02*
X163226Y32178D01*
X163851D01*
X164163Y31865D01*
Y30928D01*
Y31865D02*
X164476Y32178D01*
X165101D01*
X165413Y31865D01*
Y29678D01*
X167913Y32178D02*
Y28740D01*
Y30615D02*
X168226Y29990D01*
X168851Y29678D01*
X169476D01*
X170101Y29990D01*
X170413Y30615D01*
Y31240D01*
X170101Y31865D01*
X169476Y32178D01*
X168851D01*
X168226Y31865D01*
X167913Y31240D01*
Y30615D01*
X172913D02*
X173226Y29990D01*
X173851Y29678D01*
X174476D01*
X175101Y29990D01*
X175413Y30615D01*
Y31240D01*
X175101Y31865D01*
X174476Y32178D01*
X173851D01*
X173226Y31865D01*
X172913Y31240D01*
Y30615D01*
X177913Y29678D02*
Y32178D01*
Y31240D02*
X178226Y31865D01*
X178851Y32178D01*
X179476D01*
X180101Y31865D01*
X180413Y31240D01*
Y29678D01*
X185413Y29990D02*
X185101Y29678D01*
X184476D01*
X183851D01*
X183226Y29990D01*
X182913Y30615D01*
Y31553D01*
X183226Y31865D01*
X183851Y32178D01*
X184476D01*
X185101Y31865D01*
X185413Y31553D01*
Y31240D01*
X185101Y30928D01*
X184476Y30615D01*
X183851D01*
X183226Y30928D01*
X182913Y31240D01*
X187913Y29678D02*
Y32178D01*
Y31240D02*
X188226Y31865D01*
X188851Y32178D01*
X189476D01*
X190101Y31865D01*
X190413Y31240D01*
Y29678D01*
X193434Y32178D02*
X194893D01*
X194163Y32803D02*
Y29990D01*
X194476Y29678D01*
X194789D01*
X195101Y29990D01*
X197913D02*
X198539Y29678D01*
X199789D01*
X200413Y29990D01*
Y30615D01*
X199789Y30928D01*
X198539D01*
X197913Y31240D01*
Y31865D01*
X198539Y32178D01*
X199789D01*
X200413Y31865D01*
X210413Y29678D02*
X207913D01*
X210101Y31865D01*
X210413Y32490D01*
X210101Y33115D01*
X209476Y33428D01*
X208539D01*
X207913Y33115D01*
X213226Y29990D02*
X213851Y29678D01*
X214476D01*
X215101Y29990D01*
X215413Y30615D01*
Y32490D01*
X215101Y33115D01*
X214476Y33428D01*
X213851D01*
X213226Y33115D01*
X212913Y32490D01*
Y30615D01*
X213226Y29990D01*
X215101Y33115D01*
X220413Y29678D02*
X217913D01*
X220101Y31865D01*
X220413Y32490D01*
X220101Y33115D01*
X219476Y33428D01*
X218539D01*
X217913Y33115D01*
X223539Y29678D02*
X224789D01*
X224163D02*
Y33428D01*
X223539Y32803D01*
X145000Y223378D02*
Y227128D01*
X146563Y225254D01*
X148125Y227128D01*
Y223378D01*
X150625D02*
X151875D01*
X151250D02*
Y227128D01*
X150625Y226504D01*
X169579Y248968D02*
X164279D01*
Y261268D01*
X169579D01*
Y248968D01*
X171641Y257505D02*
X171329Y257817D01*
X171016Y258443D01*
Y259380D01*
X171329Y260005D01*
X171641Y260317D01*
X172266Y260630D01*
X173516D01*
X174141Y260317D01*
X174454Y260005D01*
X174766Y259380D01*
Y258443D01*
X174454Y257817D01*
X174141Y257505D01*
X172266Y255630D02*
X173516D01*
X174141Y255317D01*
X174454Y255005D01*
X174766Y254380D01*
Y253755D01*
X174454Y253130D01*
X174141Y252817D01*
X173516Y252505D01*
X172266D01*
X171641Y252817D01*
X171329Y253130D01*
X171016Y253755D01*
Y254380D01*
X171329Y255005D01*
X171641Y255317D01*
X172266Y255630D01*
X171016Y250630D02*
X174766D01*
X171016Y247505D01*
X174766D01*
X171016Y245630D02*
X174766D01*
X171016Y242505D01*
X174766D01*
X171016Y240005D02*
Y238755D01*
Y239380D02*
X174766D01*
X174141Y240005D01*
X185433Y56449D02*
Y60199D01*
Y58324D02*
X188558D01*
Y56449D02*
Y60199D01*
X191058Y56449D02*
X192308D01*
X191683D02*
Y60199D01*
X191058Y59574D01*
X211811Y229331D02*
X215748D01*
X213780Y225394D01*
X211811Y229331D01*
X215342Y198819D02*
X215030Y198506D01*
X214717Y197881D01*
X215030Y197256D01*
X215342Y196944D01*
X218467D01*
Y196319D01*
Y196944D02*
Y198194D01*
X215030Y193506D02*
X214717Y192881D01*
Y192256D01*
X215030Y191631D01*
X215655Y191319D01*
X216280Y191631D01*
X216592Y192256D01*
Y192881D01*
Y192256D02*
X216905Y191631D01*
X217530Y191319D01*
X218155Y191631D01*
X218467Y192256D01*
Y192881D01*
X218155Y193506D01*
X227854Y222441D02*
Y175197D01*
X248425Y171248D02*
X248738Y170935D01*
X249363Y170622D01*
X249988Y170935D01*
X250300Y171248D01*
Y174372D01*
X250925D01*
X250300D02*
X249050D01*
X254050Y170622D02*
X255300D01*
X254675D02*
Y174372D01*
X254050Y173748D01*
D02*
D18*
X131689Y261220D02*
G75*
G02*
X131508I-91J0D01*
G01*
X131689D02*
G75*
G02*
X131508I-91J0D01*
G01*
G75*
G02*
X131689I91J0D01*
G01*
X138386Y264665D02*
X138583Y267126D01*
X138976Y262205D02*
X145276D01*
X145669Y267126D02*
X145866Y264665D01*
X145669Y267128D02*
G75*
G03*
X138583Y267127I-3543J-644D01*
G01*
X266043Y169193D02*
X297579D01*
Y107185D01*
X266043D01*
D02*
D19*
X27559Y113189D02*
X4567D01*
X27559Y123189D02*
X4567D01*
X27559Y133189D02*
X4567D01*
X27559Y143189D02*
X4567D01*
X27559Y153189D02*
X4567D01*
X27559Y163189D02*
X4567D01*
X53543Y108189D02*
X27559D01*
Y168189D01*
X37559D01*
X96063Y130315D02*
G75*
G02*
X96457I197J0D01*
G01*
G75*
G03*
X96063I-197J0D01*
G01*
X96457D02*
G75*
G02*
X96063I-197J0D01*
G01*
X96457D02*
X170472Y55512D02*
G75*
G02*
X170866I197J0D01*
G01*
G75*
G03*
X170472I-197J0D01*
G01*
X170866D02*
G75*
G02*
X170472I-197J0D01*
G01*
X170866D02*
X262205Y167913D02*
G75*
G02*
Y167520I0J-197D01*
G01*
Y167913D02*
G75*
G02*
Y167520I0J-197D01*
G01*
G75*
G02*
Y167913I0J197D01*
G01*
D02*
D70*
X47893Y194494D02*
X48768Y194670D01*
X49482Y195152D01*
X49963Y195865D01*
X50140Y196740D01*
Y221370D01*
X49963Y222244D01*
X49482Y222959D01*
X48768Y223440D01*
X47893Y223617D01*
X16674D01*
X15800Y223440D01*
X15085Y222959D01*
X14604Y222244D01*
X14428Y221370D01*
Y196740D01*
X14604Y195865D01*
X15085Y195152D01*
X15800Y194670D01*
X16674Y194494D01*
X47893D01*
X49446Y221371D02*
X49324Y221975D01*
X48992Y222469D01*
X48498Y222802D01*
X47893Y222924D01*
X16674D01*
X16069Y222802D01*
X15576Y222469D01*
X15243Y221975D01*
X15121Y221371D01*
Y196741D01*
X15243Y196136D01*
X15576Y195642D01*
X16069Y195309D01*
X16674Y195187D01*
X47893D01*
X48498Y195309D01*
X48991Y195642D01*
X49324Y196136D01*
X49446Y196741D01*
Y221371D01*
D02*
D71*
X10061Y227865D02*
Y238290D01*
X12714Y238248D01*
X13070Y238242D01*
X14142Y238219D01*
X15027Y238175D01*
X15573Y238100D01*
X15883Y238014D01*
X15985Y237976D01*
X16337Y237846D01*
X17319Y237237D01*
X18287Y236151D01*
X18877Y234739D01*
X19077Y233451D01*
Y232600D01*
X18895Y231337D01*
X18346Y229981D01*
X17419Y228939D01*
X16450Y228332D01*
X16102Y228194D01*
X16001Y228154D01*
X15688Y228056D01*
X15157Y227976D01*
X14265Y227933D01*
X13142Y227909D01*
X12769Y227904D01*
X10061Y227865D01*
X14709Y230299D02*
X14891Y230349D01*
X15408Y230611D01*
X15915Y231118D01*
X16237Y231830D01*
X16369Y232525D01*
X16381Y232758D01*
X16400Y233112D01*
X16266Y234182D01*
X15737Y235185D01*
X14781Y235779D01*
X13739Y235974D01*
X12795D01*
Y230178D01*
X13534Y230179D01*
X13696D01*
X14183Y230215D01*
X14648Y230283D01*
X14709Y230299D01*
X20122Y227882D02*
Y238271D01*
X25918D01*
Y235980D01*
X24306Y235950D01*
X22693Y235919D01*
X22661Y235127D01*
X22628Y234333D01*
X25809D01*
Y231928D01*
X22629D01*
X22661Y231080D01*
X22693Y230233D01*
X24306Y230202D01*
X25918Y230172D01*
Y227882D01*
X20122D01*
X29170Y227775D02*
X28907Y227841D01*
X28165Y228210D01*
X27379Y228912D01*
X26867Y229818D01*
X26684Y230596D01*
Y231272D01*
X28173D01*
X28726Y231267D01*
X29123Y231239D01*
X29298Y231165D01*
X29353Y231062D01*
X29364Y231026D01*
X29407Y230871D01*
X29631Y230338D01*
X29917Y230039D01*
X29993Y230000D01*
X30067Y229961D01*
X30322Y229898D01*
X30637Y229920D01*
X30920Y230043D01*
X31156Y230247D01*
X31321Y230511D01*
X31401Y230813D01*
X31377Y231132D01*
X31278Y231377D01*
X31230Y231447D01*
X31208Y231478D01*
X31067Y231579D01*
X30739Y231771D01*
X30295Y232000D01*
X29911Y232181D01*
X29781Y232237D01*
X29425Y232393D01*
X28389Y232937D01*
X27495Y233632D01*
X27016Y234408D01*
X26875Y235117D01*
Y235571D01*
X26987Y236230D01*
X27333Y236971D01*
X27921Y237589D01*
X28540Y237993D01*
X28761Y238097D01*
X28863Y238145D01*
X29174Y238279D01*
X29526Y238380D01*
X29934Y238425D01*
X30368Y238433D01*
X30651D01*
X31069Y238423D01*
X31472Y238382D01*
X31804Y238297D01*
X32068Y238192D01*
X32153Y238152D01*
X32338Y238065D01*
X32859Y237724D01*
X33400Y237182D01*
X33769Y236529D01*
X33940Y235964D01*
X33966Y235771D01*
X34039Y235208D01*
X31404D01*
X31278Y235593D01*
X31240Y235704D01*
X30966Y236059D01*
X30521Y236193D01*
X30257D01*
X29911Y236044D01*
X29605Y235685D01*
X29519Y235244D01*
X29642Y234921D01*
X29719Y234852D01*
X29745Y234828D01*
X29904Y234732D01*
X30266Y234532D01*
X30754Y234280D01*
X31174Y234073D01*
X31315Y234004D01*
X31663Y233837D01*
X32680Y233268D01*
X33521Y232569D01*
X33946Y231782D01*
X34063Y231030D01*
Y230780D01*
X34062Y230542D01*
X33953Y229831D01*
X33623Y229054D01*
X33063Y228433D01*
X32477Y228050D01*
X32267Y227956D01*
X32126Y227894D01*
X31643Y227797D01*
X30770Y227704D01*
X29872Y227693D01*
X29339Y227732D01*
X29170Y227775D01*
X34777Y227882D02*
Y238271D01*
X37511D01*
Y227882D01*
X34777D01*
X42334Y227836D02*
X42061Y227909D01*
X41274Y228250D01*
X40331Y228880D01*
X39533Y229705D01*
X39036Y230437D01*
X38907Y230697D01*
X38840Y230833D01*
X38649Y231243D01*
X38505Y231660D01*
X38436Y232116D01*
X38408Y232611D01*
X38403Y232775D01*
X38393Y233015D01*
X38414Y233732D01*
X38532Y234545D01*
X38772Y235266D01*
X39041Y235787D01*
X39146Y235950D01*
X39485Y236470D01*
X41002Y237709D01*
X43367Y238443D01*
X45844Y238117D01*
X47593Y237156D01*
X48036Y236699D01*
X48128Y236604D01*
X48370Y236281D01*
X48719Y235738D01*
X48992Y235222D01*
X49103Y234969D01*
Y234863D01*
X48718Y234801D01*
X47904Y234771D01*
X46162D01*
X45874Y235148D01*
X45751Y235309D01*
X45249Y235685D01*
X44428Y236005D01*
X43538Y236080D01*
X42896Y235967D01*
X42706Y235879D01*
X42574Y235820D01*
X42215Y235570D01*
X41768Y235129D01*
X41404Y234606D01*
X41209Y234194D01*
X41167Y234049D01*
X41101Y233823D01*
X41038Y233101D01*
X41166Y232146D01*
X41523Y231284D01*
X41919Y230752D01*
X42084Y230614D01*
X42284Y230448D01*
X43022Y230115D01*
X44065Y230001D01*
X45076Y230261D01*
X45746Y230694D01*
X45915Y230886D01*
X45998Y230981D01*
X46225Y231285D01*
X46195Y231499D01*
X45727Y231585D01*
X44977Y231600D01*
X43198D01*
Y233787D01*
X49431D01*
Y232685D01*
X49137Y231333D01*
X48316Y229771D01*
X47053Y228565D01*
X45859Y227941D01*
X45436Y227830D01*
X45261Y227785D01*
X44724Y227714D01*
X43880Y227677D01*
X43037Y227717D01*
X42505Y227790D01*
X42334Y227836D01*
X50416Y227882D02*
Y238278D01*
X51585Y238246D01*
X52754Y238216D01*
X54697Y235057D01*
X54887Y234750D01*
X55456Y233827D01*
X56090Y232808D01*
X56530Y232108D01*
X56701Y231842D01*
X56711Y231832D01*
X56733Y232063D01*
X56738Y232740D01*
X56728Y233760D01*
X56710Y234703D01*
X56703Y235017D01*
X56623Y238271D01*
X59165D01*
Y227874D01*
X56813Y227936D01*
X54899Y230992D01*
X52985Y234048D01*
X52928Y227882D01*
X50416D01*
X62927Y227769D02*
X62645Y227830D01*
X61835Y228183D01*
X60993Y228875D01*
X60450Y229786D01*
X60258Y230587D01*
Y231272D01*
X62856D01*
X62924Y230844D01*
X62939Y230749D01*
X63057Y230472D01*
X63306Y230154D01*
X63628Y229933D01*
X63889Y229850D01*
X64056D01*
X64295Y229932D01*
X64576Y230094D01*
X64624Y230133D01*
X64691Y230191D01*
X64893Y230446D01*
X64961Y230748D01*
Y230946D01*
X64899Y231236D01*
X64664Y231554D01*
X64180Y231870D01*
X63578Y232159D01*
X63374Y232248D01*
X63055Y232387D01*
X62125Y232860D01*
X61276Y233451D01*
X60751Y234095D01*
X60513Y234664D01*
X60471Y234860D01*
X60433Y235036D01*
X60414Y235583D01*
X60556Y236272D01*
X60891Y236913D01*
X61269Y237362D01*
X61414Y237489D01*
X61672Y237717D01*
X62637Y238187D01*
X64053Y238423D01*
X65442Y238196D01*
X66353Y237734D01*
X66587Y237506D01*
X66729Y237369D01*
X67201Y236718D01*
X67427Y235980D01*
X67446Y235798D01*
X67507Y235208D01*
X65010D01*
X64794Y235673D01*
X64753Y235759D01*
X64549Y236056D01*
X64298Y236214D01*
X64235Y236231D01*
X64118Y236265D01*
X63728Y236229D01*
X63302Y235991D01*
X63047Y235598D01*
X63015Y235238D01*
X63051Y235133D01*
X63068Y235083D01*
X63169Y234946D01*
X63444Y234729D01*
X63954Y234433D01*
X64572Y234110D01*
X64779Y234006D01*
X65152Y233818D01*
X66238Y233181D01*
X67109Y232423D01*
X67510Y231580D01*
X67577Y230773D01*
X67559Y230506D01*
X67552Y230401D01*
X67459Y229867D01*
X67311Y229409D01*
X67278Y229342D01*
X67219Y229228D01*
X66987Y228910D01*
X66586Y228507D01*
X66120Y228169D01*
X65758Y227978D01*
X65631Y227933D01*
X65491Y227884D01*
X65045Y227800D01*
X64292Y227722D01*
X63533Y227708D01*
X63074Y227738D01*
X62927Y227769D01*
X68680Y227882D02*
Y238296D01*
X71222Y238246D01*
X71566Y238240D01*
X72599Y238213D01*
X73448Y238167D01*
X73972Y238087D01*
X74278Y237997D01*
X74377Y237958D01*
X74565Y237886D01*
X75382Y237318D01*
X76010Y236500D01*
X76104Y236302D01*
X76144Y236217D01*
X76250Y235957D01*
X76337Y235632D01*
X76377Y235245D01*
X76387Y234848D01*
Y234716D01*
X76386Y234585D01*
X76374Y234191D01*
X76331Y233802D01*
X76245Y233472D01*
X76140Y233209D01*
X76101Y233124D01*
X76044Y233003D01*
X75830Y232661D01*
X75477Y232202D01*
X75132Y231850D01*
X74946Y231709D01*
X74842D01*
X74713Y231777D01*
X74324Y231958D01*
X73774Y232228D01*
X73285Y232474D01*
X73124Y232556D01*
X71468Y233404D01*
X72383Y233463D01*
X72511Y233472D01*
X72896Y233506D01*
X73210Y233567D01*
X73417Y233680D01*
X73568Y233824D01*
X73613Y233875D01*
X73674Y233944D01*
X73862Y234254D01*
X73928Y234591D01*
Y234849D01*
X73816Y235285D01*
X73465Y235678D01*
X72846Y235902D01*
X72161Y235974D01*
X71932D01*
X71194Y235975D01*
Y233401D01*
X72774Y232419D01*
X72924Y232325D01*
X73380Y232039D01*
X73810Y231753D01*
X74062Y231546D01*
X74131Y231403D01*
X74016Y231311D01*
X73713Y231254D01*
X73219Y231218D01*
X72704Y231196D01*
X72533Y231188D01*
X71194Y231136D01*
Y227882D01*
X68680D01*
X74837Y227800D02*
X74857Y227849D01*
X75065Y228356D01*
X75346Y229051D01*
X75404Y229193D01*
X75462Y229336D01*
X75725Y229955D01*
X75893Y230313D01*
X75904Y230324D01*
X75914Y230337D01*
X76043Y230291D01*
X76366Y230133D01*
X76824Y229875D01*
X77233Y229628D01*
X77369Y229543D01*
X78754Y228668D01*
X78391Y228555D01*
X78272Y228517D01*
X77915Y228406D01*
X77356Y228233D01*
X76756Y228048D01*
X76161Y227868D01*
X75618Y227704D01*
X75169Y227569D01*
X74862Y227478D01*
X74769Y227444D01*
X74739D01*
X74748Y227548D01*
X74817Y227752D01*
X74837Y227800D01*
X77619Y230239D02*
X77483Y230308D01*
X77078Y230525D01*
X76633Y230780D01*
X76335Y230976D01*
X76224Y231058D01*
Y231168D01*
X76336Y231415D01*
X76640Y232210D01*
X77089Y233352D01*
X77500Y234380D01*
X77639Y234720D01*
X79053Y238216D01*
X79511Y238250D01*
X79968Y238284D01*
X79889Y234532D01*
X79880Y234161D01*
X79852Y233043D01*
X79812Y231762D01*
X79772Y230826D01*
X79749Y230427D01*
X79739Y230370D01*
X79670Y229961D01*
X78578Y231336D01*
X78470Y231471D01*
X78146Y231875D01*
X77776Y232327D01*
X77508Y232643D01*
X77396Y232768D01*
X77382Y232776D01*
X77430Y232600D01*
X77636Y232188D01*
X77694Y232083D01*
X77844Y231811D01*
X78294Y230989D01*
X78727Y230185D01*
X78982Y229693D01*
X79052Y229528D01*
X79046Y229529D01*
X78926Y229586D01*
X78615Y229739D01*
X78163Y229965D01*
X77755Y230170D01*
X77619Y230239D01*
X81707Y230479D02*
X81772Y230596D01*
X82155Y231287D01*
X82522Y231940D01*
X82578Y232037D01*
X82633Y232135D01*
X82850Y232553D01*
X82944Y232788D01*
X82933Y232800D01*
X82863D01*
X82859Y232794D01*
X82854Y232788D01*
X82753Y232662D01*
X82494Y232337D01*
X82120Y231869D01*
X81783Y231444D01*
X81670Y231304D01*
X80518Y229861D01*
X80448Y233054D01*
X80440Y233384D01*
X80415Y234374D01*
X80377Y235607D01*
X80342Y236615D01*
X80319Y237120D01*
X80311Y237259D01*
X80245Y238271D01*
X81208D01*
X82668Y234658D01*
X82809Y234308D01*
X83230Y233253D01*
X83685Y232095D01*
X83987Y231307D01*
X84091Y231012D01*
X84086Y231007D01*
X84067Y230990D01*
X83947Y230928D01*
X83628Y230762D01*
X83189Y230541D01*
X82691Y230293D01*
X82193Y230049D01*
X81756Y229836D01*
X81439Y229688D01*
X81337Y229631D01*
X81304D01*
X81396Y229881D01*
X81643Y230363D01*
X81707Y230479D01*
X83520Y228042D02*
X83341Y228099D01*
X82802Y228270D01*
X82209Y228464D01*
X81800Y228603D01*
X81645Y228659D01*
X81639Y228665D01*
X81729Y228749D01*
X82009Y228946D01*
X82435Y229229D01*
X82830Y229481D01*
X82963Y229564D01*
X83095Y229647D01*
X83495Y229894D01*
X83939Y230159D01*
X84244Y230330D01*
X84361Y230387D01*
X84367Y230381D01*
X84384Y230363D01*
X84435Y230242D01*
X84575Y229920D01*
X84761Y229474D01*
X84969Y228968D01*
X85173Y228461D01*
X85349Y228012D01*
X85474Y227685D01*
X85520Y227575D01*
Y227522D01*
X85496Y227472D01*
X85290Y227499D01*
X84698Y227672D01*
X83814Y227950D01*
X83520Y228042D01*
X85849Y227882D02*
Y231365D01*
X87199Y232193D01*
X87390Y232312D01*
X87971Y232659D01*
X88455Y232907D01*
X88817Y233004D01*
X89124Y233021D01*
X89372D01*
X89814Y233068D01*
X90227Y233158D01*
X90279Y233179D01*
X90406Y233232D01*
X90737Y233521D01*
X91017Y234033D01*
X91090Y234630D01*
X90995Y235090D01*
X90926Y235222D01*
X90865Y235341D01*
X90264Y235773D01*
X89330Y235972D01*
X89102D01*
X88365Y235974D01*
Y233132D01*
X87163Y232530D01*
X87046Y232471D01*
X86692Y232297D01*
X86298Y232105D01*
X86022Y231976D01*
X85935Y231928D01*
X85899D01*
X85883Y232180D01*
X85865Y232863D01*
X85854Y233875D01*
X85849Y234802D01*
Y238294D01*
X88337Y238244D01*
X88757Y238237D01*
X90021Y238188D01*
X91098Y238070D01*
X91800Y237848D01*
X92227Y237582D01*
X92355Y237477D01*
X92615Y237263D01*
X93200Y236384D01*
X93569Y235026D01*
X93439Y233620D01*
X93015Y232646D01*
X92796Y232387D01*
X92726Y232304D01*
X92472Y232094D01*
X92033Y231804D01*
X91593Y231580D01*
X91347Y231491D01*
X91223D01*
X91098Y231405D01*
Y231333D01*
X91201Y231203D01*
X91484Y230817D01*
X91900Y230274D01*
X92282Y229791D01*
X92411Y229631D01*
X92538Y229473D01*
X92920Y228994D01*
X93337Y228462D01*
X93619Y228092D01*
X93722Y227979D01*
Y227931D01*
X93295Y227899D01*
X92526Y227882D01*
X90817D01*
X89693Y229465D01*
X89582Y229620D01*
X89248Y230085D01*
X88868Y230602D01*
X88594Y230963D01*
X88481Y231103D01*
X88467Y231111D01*
X88392Y230708D01*
X88365Y229823D01*
Y227882D01*
X85849D01*
X94488Y227881D02*
Y238271D01*
X97109D01*
X97138Y235906D01*
X97168Y233540D01*
X98644Y235902D01*
X100121Y238266D01*
X101460Y238268D01*
X101644Y238269D01*
X102406Y238254D01*
X102800Y238225D01*
Y238160D01*
X102667Y237993D01*
X102304Y237432D01*
X101767Y236615D01*
X101275Y235874D01*
X101111Y235627D01*
X99421Y233093D01*
X99617Y232811D01*
X99643Y232773D01*
X99813Y232530D01*
X100204Y231970D01*
X100733Y231214D01*
X101190Y230560D01*
X101342Y230343D01*
X101492Y230128D01*
X101943Y229483D01*
X102446Y228757D01*
X102800Y228245D01*
X102940Y228038D01*
X102952Y228019D01*
X102956Y228010D01*
X102920Y227952D01*
X102701Y227911D01*
X102250Y227888D01*
X101704Y227882D01*
X100011D01*
X97168Y232408D01*
X97138Y230145D01*
X97109Y227881D01*
X94488D01*
X0Y0D02*
M02*
