G05
M48
;#@! TF.GenerationSoftware,DesignSpark,DesignSpark PCB PRO,10.0.5344
;#@! TF.CreationDate,2022-06-24T15:22:01+00:00*
;#@! TF.FileFunction,Plated,1,2,PTH
;FILE_FORMAT=3:5
;TYPE=PLATED
INCH,TZ
FMAT,2
T1C000.01969
T2C000.03200
T3C000.04094
T4C000.04331
T5C000.16614
%
T001
X0.63386Y0.20079
X0.63386Y0.59449
X0.63386Y1.77559
X0.63386Y2.16929
X0.63386Y2.56299
X1.02756Y0.20079
X1.02756Y0.59449
X1.02756Y0.98819
X1.02756Y1.77559
X1.02756Y2.16929
X1.02756Y2.56299
X1.42126Y0.20079
X1.42126Y0.59449
X1.42126Y0.98819
X1.42126Y2.20866
X1.81496Y0.20079
X1.81496Y0.98819
X1.81496Y2.20866
X1.81496Y2.56299
X2.20866Y0.20079
X2.20866Y0.59449
X2.20866Y0.98819
X2.20866Y2.08661
X2.20866Y2.56299
X2.22441Y1.88976
T002
X2.03937Y2.39764
X2.31890Y2.13780
T003
X2.52205Y1.13189
X2.52205Y1.23189
X2.52205Y1.33189
X2.52205Y1.43189
X2.52205Y1.53189
X2.52205Y1.63189
X2.62205Y1.13189
X2.62205Y1.23189
X2.62205Y1.33189
X2.62205Y1.43189
X2.62205Y1.53189
X2.62205Y1.63189
T004
X0.43543Y1.13189
X0.43543Y1.23189
X0.43543Y1.33189
X0.43543Y1.43189
X0.43543Y1.53189
X0.43543Y1.63189
X0.53543Y1.13189
X0.53543Y1.23189
X0.53543Y1.33189
X0.53543Y1.43189
X0.53543Y1.53189
X0.53543Y1.63189
T005
X1.11024Y1.30315
X1.85433Y0.55512
M30
