G04 DesignSpark PCB PRO Gerber Version 10.0 Build 5299*
G04 #@! TF.Part,Single*
G04 #@! TF.FileFunction,Soldermask,Bot*
G04 #@! TF.FilePolarity,Negative*
%FSLAX35Y35*%
%MOIN*%
G04 #@! TA.AperFunction,ComponentPad*
%ADD132R,0.07096X0.07096*%
G04 #@! TA.AperFunction,ViaPad*
%ADD10C,0.04143*%
%ADD11C,0.06200*%
G04 #@! TA.AperFunction,ComponentPad*
%ADD13C,0.06702*%
%ADD133C,0.07096*%
G04 #@! TA.AperFunction,WasherPad*
%ADD12C,0.13198*%
G04 #@! TA.AperFunction,ComponentPad*
%ADD146C,0.25521*%
G04 #@! TD.AperFunction*
X0Y0D02*
D02*
D10*
X63386Y20079D03*
Y59449D03*
Y177559D03*
Y216929D03*
Y256299D03*
X90945Y216929D03*
X93307Y177559D03*
X102756Y20079D03*
Y59449D03*
Y98819D03*
Y256299D03*
X142126Y20079D03*
Y57874D03*
Y220866D03*
X181496Y20079D03*
Y220866D03*
X186220Y256299D03*
X189370Y98819D03*
X220866Y20079D03*
Y59449D03*
Y98819D03*
Y256299D03*
X233465Y59055D03*
Y74016D03*
D02*
D11*
X176378Y251618D03*
D02*
D12*
X27953Y24016D03*
Y252362D03*
X256299Y24016D03*
Y252362D03*
D02*
D13*
X252205Y113189D03*
Y123189D03*
Y133189D03*
Y143189D03*
Y153189D03*
Y163189D03*
X262205Y113189D03*
Y123189D03*
Y133189D03*
Y143189D03*
Y153189D03*
Y163189D03*
D02*
D132*
X53543Y113189D03*
D02*
D133*
X43543D03*
Y123189D03*
Y133189D03*
Y143189D03*
Y153189D03*
Y163189D03*
X53543Y123189D03*
Y133189D03*
Y143189D03*
Y153189D03*
Y163189D03*
D02*
D146*
X112598Y220866D03*
X183465Y146063D03*
X0Y0D02*
M02*
