G04 DesignSpark PCB PRO Gerber Version 10.0 Build 5299*
G04 #@! TF.Part,Single*
G04 #@! TF.FileFunction,Soldermask,Top*
G04 #@! TF.FilePolarity,Negative*
%FSLAX35Y35*%
%MOIN*%
G04 #@! TA.AperFunction,SMDPad,CuDef*
%ADD91R,0.04937X0.05291*%
%ADD153R,0.04543X0.04543*%
G04 #@! TA.AperFunction,ComponentPad*
%ADD104R,0.05331X0.05331*%
G04 #@! TA.AperFunction,SMDPad,CuDef*
%ADD95R,0.06906X0.06906*%
G04 #@! TA.AperFunction,ComponentPad*
%ADD150R,0.07496X0.07496*%
%ADD105C,0.05331*%
%ADD87C,0.07102*%
%ADD151C,0.07496*%
G04 #@! TA.AperFunction,WasherPad*
%ADD86C,0.13598*%
G04 #@! TD.AperFunction*
X0Y0D02*
D02*
D86*
X27953Y24016D03*
Y252362D03*
X256299Y24016D03*
Y252362D03*
D02*
D87*
X252205Y113189D03*
Y123189D03*
Y133189D03*
Y143189D03*
Y153189D03*
Y163189D03*
X262205Y113189D03*
Y123189D03*
Y133189D03*
Y143189D03*
Y153189D03*
Y163189D03*
D02*
D91*
X116929Y245319D03*
Y252319D03*
X166929Y251618D03*
Y258618D03*
D02*
D95*
X135236Y260236D03*
X149016D03*
D02*
D104*
X207087Y231496D03*
D02*
D105*
Y207874D03*
Y213780D03*
Y219685D03*
Y225591D03*
D02*
D150*
X53543Y113189D03*
D02*
D151*
X43543D03*
Y123189D03*
Y133189D03*
Y143189D03*
Y153189D03*
Y163189D03*
X53543Y123189D03*
Y133189D03*
Y143189D03*
Y153189D03*
Y163189D03*
D02*
D153*
X142126Y257677D03*
X0Y0D02*
M02*
