G04 DesignSpark PCB PRO Gerber Version 10.0 Build 5299*
G04 #@! TF.Part,Single*
G04 #@! TF.FileFunction,Copper,L1,Top*
G04 #@! TF.FilePolarity,Positive*
%FSLAX35Y35*%
%MOIN*%
G04 #@! TA.AperFunction,SMDPad,CuDef*
%ADD75R,0.03937X0.04291*%
%ADD72R,0.03543X0.03543*%
G04 #@! TA.AperFunction,ComponentPad*
%ADD99R,0.04331X0.04331*%
G04 #@! TA.AperFunction,SMDPad,CuDef*
%ADD98R,0.05906X0.05906*%
G04 #@! TA.AperFunction,ComponentPad*
%ADD26R,0.06496X0.06496*%
G04 #@! TD.AperFunction*
%ADD16C,0.00500*%
%ADD17C,0.00787*%
%ADD70C,0.00984*%
%ADD21C,0.01000*%
%ADD22C,0.01969*%
G04 #@! TA.AperFunction,ViaPad*
%ADD23C,0.03543*%
G04 #@! TD.AperFunction*
%ADD24C,0.03937*%
G04 #@! TA.AperFunction,ComponentPad*
%ADD100C,0.04331*%
%ADD25C,0.06102*%
%ADD27C,0.06496*%
G04 #@! TD.AperFunction*
X0Y0D02*
D02*
D16*
X166929Y252618D02*
Y257618D01*
D02*
D17*
X6974Y268984D02*
Y7394D01*
X11331Y3037D01*
X272921D01*
X277278Y7394D01*
Y268984D01*
X272921Y273341D01*
X11331D01*
X6974Y268984D01*
X20472Y24016D02*
G75*
G02*
X35433I7480J0D01*
G01*
G75*
G02*
X20472I-7480J0D01*
G01*
Y252362D02*
G75*
G02*
X35433I7480J0D01*
G01*
G75*
G02*
X20472I-7480J0D01*
G01*
X38902Y123189D02*
G75*
G02*
X48185I4642J0D01*
G01*
G75*
G02*
X38902I-4642J0D01*
G01*
X257972Y113189D02*
G75*
G02*
X266437I4232J0D01*
G01*
G75*
G02*
X265354Y110362I-4233J0D01*
G01*
Y107087D01*
G75*
G02*
X264429Y104857I-3150J0D01*
G01*
X248293Y88720D01*
G75*
G02*
X246063Y87795I-2230J2224D01*
G01*
X59449D01*
G75*
G02*
X57219Y88720I0J3150D01*
G01*
X41319Y104620D01*
G75*
G02*
X40394Y106850I2224J2230D01*
G01*
Y110075D01*
G75*
G02*
X39114Y113189I3150J3114D01*
G01*
G75*
G02*
X47972I4429J0D01*
G01*
G75*
G02*
X46693Y110075I-4430J0D01*
G01*
Y108155D01*
X60754Y94094D01*
X244758D01*
X259055Y108391D01*
Y110362D01*
G75*
G02*
X257972Y113189I3150J2827D01*
G01*
X248819Y24016D02*
G75*
G02*
X263780I7480J0D01*
G01*
G75*
G02*
X248819I-7480J0D01*
G01*
X272835Y197642D02*
G75*
G02*
X273327Y196457I-1181J-1185D01*
G01*
Y142520D01*
G75*
G02*
X272835Y141335I-1673J0D01*
G01*
X266170Y134669D01*
G75*
G02*
X260486Y129322I-3965J-1480D01*
G01*
X258200Y127036D01*
G75*
G02*
X257084Y126575I-1114J1113D01*
G01*
X254744D01*
G75*
G02*
X256437Y123189I-2539J-3386D01*
G01*
G75*
G02*
X247972I-4232J0D01*
G01*
G75*
G02*
X249665Y126575I4232J0D01*
G01*
X56399D01*
G75*
G02*
X57972Y123189I-2856J-3386D01*
G01*
G75*
G02*
X49114I-4429J0D01*
G01*
G75*
G02*
X50688Y126575I4429J0D01*
G01*
X48349D01*
G75*
G02*
X47233Y127036I-2J1575D01*
G01*
X45191Y129078D01*
G75*
G02*
X39114Y133189I-1648J4111D01*
G01*
G75*
G02*
X47972I4429J0D01*
G01*
G75*
G02*
X47508Y131215I-4429J0D01*
G01*
X48999Y129724D01*
X50784D01*
G75*
G02*
X50735Y136614I2759J3465D01*
G01*
X48703D01*
G75*
G02*
X47587Y137076I-2J1575D01*
G01*
X45465Y139198D01*
G75*
G02*
X39114Y143189I-1921J3991D01*
G01*
G75*
G02*
X47972I4429J0D01*
G01*
G75*
G02*
X47631Y141485I-4430J0D01*
G01*
X49353Y139764D01*
X50735D01*
G75*
G02*
X49114Y143189I2808J3426D01*
G01*
G75*
G02*
X57683Y144764I4429J0D01*
G01*
X248276D01*
G75*
G02*
X256437Y143189I3928J-1575D01*
G01*
G75*
G02*
X254691Y139764I-4232J0D01*
G01*
X256552D01*
X258313Y141525D01*
G75*
G02*
X263963Y147039I3891J1664D01*
G01*
X266831Y149906D01*
Y187496D01*
X234346Y219980D01*
X216835D01*
X215358Y218504D01*
G75*
G02*
X214173Y218012I-1185J1181D01*
G01*
X209985D01*
G75*
G02*
X208875Y216857I-2898J1673D01*
G01*
G75*
G02*
X209074Y210827I-1789J-3077D01*
G01*
G75*
G02*
X210646Y207874I-1987J-2953D01*
G01*
G75*
G02*
X203528I-3559J0D01*
G01*
G75*
G02*
X205100Y210827I3559J0D01*
G01*
G75*
G02*
X205298Y216857I1987J2953D01*
G01*
G75*
G02*
X205512Y222638I1789J2828D01*
G01*
G75*
G02*
X204930Y228150I1575J2953D01*
G01*
X203740D01*
Y229331D01*
X198338D01*
X195866Y226859D01*
Y166339D01*
X249378D01*
G75*
G02*
X256437Y163189I2827J-3150D01*
G01*
G75*
G02*
X249378Y160039I-4232J0D01*
G01*
X56657D01*
G75*
G02*
X49114Y163189I-3114J3150D01*
G01*
G75*
G02*
X56657Y166339I4429J0D01*
G01*
X191535D01*
Y227756D01*
G75*
G02*
X192170Y229287I2165J0D01*
G01*
X195910Y233027D01*
G75*
G02*
X197443Y233661I1531J-1531D01*
G01*
X203740D01*
Y234843D01*
X205413D01*
Y243402D01*
X198870Y249945D01*
X170079D01*
Y248291D01*
X163780D01*
Y254945D01*
X165498D01*
Y255291D01*
X163780D01*
Y257382D01*
X153150D01*
Y256102D01*
X145079D01*
Y254724D01*
X139173D01*
Y256102D01*
X131102D01*
Y258563D01*
X121559D01*
X118642Y255646D01*
X120079D01*
Y248992D01*
X113780D01*
Y255646D01*
X115256D01*
Y256299D01*
G75*
G02*
X115748Y257484I1673J0D01*
G01*
X119681Y261417D01*
G75*
G02*
X120866Y261909I1185J-1181D01*
G01*
X131102D01*
Y264370D01*
X139370D01*
Y260630D01*
X144882D01*
Y264370D01*
X153150D01*
Y260728D01*
X163780D01*
Y261945D01*
X170079D01*
Y255291D01*
X168360D01*
Y254945D01*
X170079D01*
Y253291D01*
X199563D01*
G75*
G02*
X200748Y252799I0J-1673D01*
G01*
X208268Y245280D01*
G75*
G02*
X208760Y244094I-1181J-1185D01*
G01*
Y234843D01*
X210433D01*
Y228150D01*
X209243D01*
G75*
G02*
X209985Y227264I-2156J-2559D01*
G01*
X242520D01*
G75*
G02*
X243705Y226772I0J-1673D01*
G01*
X272835Y197642D01*
X257972Y153189D02*
G75*
G02*
X266437I4232J0D01*
G01*
G75*
G02*
X257972I-4232J0D01*
G01*
Y163189D02*
G75*
G02*
X266437I4232J0D01*
G01*
G75*
G02*
X257972I-4232J0D01*
G01*
X257760Y123189D02*
G75*
G02*
X266650I4445J0D01*
G01*
G75*
G02*
X257760I-4445J0D01*
G01*
X247972Y113189D02*
G75*
G02*
X256437I4232J0D01*
G01*
G75*
G02*
X247972I-4232J0D01*
G01*
X49114Y117618D02*
X57972D01*
Y108760D01*
X49114D01*
Y117618D01*
X39114Y153189D02*
G75*
G02*
X47972I4429J0D01*
G01*
G75*
G02*
X39114I-4429J0D01*
G01*
Y163189D02*
G75*
G02*
X47972I4429J0D01*
G01*
G75*
G02*
X39114I-4429J0D01*
G01*
X248276Y154764D02*
G75*
G02*
X256437Y153189I3928J-1575D01*
G01*
G75*
G02*
X248276Y151614I-4232J0D01*
G01*
X57683D01*
G75*
G02*
X49114Y153189I-4140J1575D01*
G01*
G75*
G02*
X57683Y154764I4429J0D01*
G01*
X248276D01*
X113567Y248858D02*
X120291D01*
Y241780D01*
X113567D01*
Y248858D01*
X248819Y252362D02*
G75*
G02*
X263780I7480J0D01*
G01*
G75*
G02*
X248819I-7480J0D01*
G01*
X7368Y24016D02*
G36*
X7368Y24016D02*
Y7000D01*
X10937Y3431D01*
X273315D01*
X276884Y7000D01*
Y24016D01*
X263780D01*
G75*
G02*
X248819I-7480J0D01*
G01*
X35433D01*
G75*
G02*
X20472I-7480J0D01*
G01*
X7368D01*
G37*
Y102707D02*
G36*
X7368Y102707D02*
Y24016D01*
X20472D01*
G75*
G02*
X35433I7480J0D01*
G01*
X248819D01*
G75*
G02*
X263780I7480J0D01*
G01*
X276884D01*
Y102707D01*
X262279D01*
X248293Y88720D01*
G75*
G02*
X246063Y87795I-2230J2226D01*
G01*
X59449D01*
G75*
G02*
X57219Y88720I0J3151D01*
G01*
X43233Y102707D01*
X7368D01*
G37*
X52141D02*
G36*
X52141Y102707D02*
X60754Y94094D01*
X244758D01*
X253370Y102707D01*
X52141D01*
G37*
X7368Y113189D02*
G36*
X7368Y113189D02*
Y102707D01*
X43233D01*
X41319Y104620D01*
G75*
G02*
X40394Y106850I2226J2230D01*
G01*
Y110075D01*
G75*
G02*
X39114Y113189I3149J3114D01*
G01*
Y113189D01*
X7368D01*
G37*
X46693Y110075D02*
G36*
X46693Y110075D02*
Y108155D01*
X52141Y102707D01*
X253370D01*
X259055Y108391D01*
Y110362D01*
G75*
G02*
X257972Y113189I3150J2827D01*
G01*
X256437D01*
G75*
G02*
X247972I-4232J0D01*
G01*
X57972D01*
Y108760D01*
X49114D01*
Y113189D01*
X47972D01*
Y113189D01*
G75*
G02*
X46693Y110075I-4428J0D01*
G01*
G37*
X264429Y104857D02*
G36*
X264429Y104857D02*
X262279Y102707D01*
X276884D01*
Y113189D01*
X266437D01*
G75*
G02*
X265354Y110362I-4232J0D01*
G01*
Y107087D01*
G75*
G02*
X264429Y104857I-3151J0D01*
G01*
G37*
X7368Y123189D02*
G36*
X7368Y123189D02*
Y113189D01*
X39114D01*
G75*
G02*
X47972I4429J0D01*
G01*
X49114D01*
Y117618D01*
X57972D01*
Y113189D01*
X247972D01*
G75*
G02*
X256437I4232J0D01*
G01*
X257972D01*
G75*
G02*
X266437I4232J0D01*
G01*
X276884D01*
Y123189D01*
X266650D01*
G75*
G02*
X257760I-4445J0D01*
G01*
X256437D01*
G75*
G02*
X247972I-4232J0D01*
G01*
X57972D01*
G75*
G02*
X49114I-4429J0D01*
G01*
X48185D01*
G75*
G02*
X38902I-4642J0D01*
G01*
X7368D01*
G37*
Y153189D02*
G36*
X7368Y153189D02*
Y123189D01*
X38902D01*
G75*
G02*
X48185I4642J0D01*
G01*
X49114D01*
Y123189D01*
G75*
G02*
X50688Y126575I4429J0D01*
G01*
X48349D01*
G75*
G02*
X47233Y127036I-2J1576D01*
G01*
X45191Y129078D01*
G75*
G02*
X39114Y133189I-1648J4111D01*
G01*
G75*
G02*
X47972I4429J0D01*
G01*
G75*
G02*
X47508Y131215I-4435J1D01*
G01*
X48999Y129724D01*
X50784D01*
G75*
G02*
X49114Y133189I2759J3465D01*
G01*
G75*
G02*
X50735Y136614I4429J0D01*
G01*
X48703D01*
G75*
G02*
X47587Y137076I-2J1576D01*
G01*
X45465Y139198D01*
G75*
G02*
X39114Y143189I-1921J3991D01*
G01*
G75*
G02*
X47972I4429J0D01*
G01*
G75*
G02*
X47631Y141485I-4435J2D01*
G01*
X49353Y139764D01*
X50735D01*
G75*
G02*
X49114Y143189I2809J3426D01*
G01*
G75*
G02*
X57683Y144764I4429J0D01*
G01*
X248276D01*
G75*
G02*
X256437Y143189I3928J-1575D01*
G01*
G75*
G02*
X254691Y139764I-4232J0D01*
G01*
X256552D01*
X258313Y141525D01*
G75*
G02*
X257972Y143189I3891J1664D01*
G01*
G75*
G02*
X263963Y147039I4232J0D01*
G01*
X266831Y149906D01*
Y153189D01*
X266437D01*
G75*
G02*
X257972I-4232J0D01*
G01*
X256437D01*
G75*
G02*
X248276Y151614I-4232J0D01*
G01*
X57683D01*
G75*
G02*
X49114Y153189I-4140J1575D01*
G01*
X47972D01*
G75*
G02*
X39114I-4429J0D01*
G01*
X7368D01*
G37*
X57972Y123189D02*
G36*
X57972Y123189D02*
Y123189D01*
X247972D01*
Y123189D01*
G75*
G02*
X249665Y126575I4232J0D01*
G01*
X56399D01*
G75*
G02*
X57972Y123189I-2855J-3385D01*
G01*
G37*
X256437D02*
G36*
X256437Y123189D02*
Y123189D01*
X257760D01*
G75*
G02*
X266650I4445J0D01*
G01*
X276884D01*
Y153189D01*
X273327D01*
Y142520D01*
G75*
G02*
X272835Y141335I-1673J0D01*
G01*
X266170Y134669D01*
G75*
G02*
X266437Y133189I-3965J-1480D01*
G01*
G75*
G02*
X260486Y129322I-4232J0D01*
G01*
X258200Y127036D01*
G75*
G02*
X257084Y126575I-1114J1115D01*
G01*
X254744D01*
G75*
G02*
X256437Y123189I-2539J-3385D01*
G01*
G37*
X7368Y163189D02*
G36*
X7368Y163189D02*
Y153189D01*
X39114D01*
G75*
G02*
X47972I4429J0D01*
G01*
X49114D01*
G75*
G02*
X57683Y154764I4429J0D01*
G01*
X248276D01*
G75*
G02*
X256437Y153189I3928J-1575D01*
G01*
X257972D01*
G75*
G02*
X266437I4232J0D01*
G01*
X266831D01*
Y163189D01*
X266437D01*
G75*
G02*
X257972I-4232J0D01*
G01*
X256437D01*
G75*
G02*
X249378Y160039I-4232J0D01*
G01*
X56657D01*
G75*
G02*
X49114Y163189I-3114J3150D01*
G01*
X47972D01*
G75*
G02*
X39114I-4429J0D01*
G01*
X7368D01*
G37*
X273327D02*
G36*
X273327Y163189D02*
Y153189D01*
X276884D01*
Y163189D01*
X273327D01*
G37*
X7368Y245319D02*
G36*
X7368Y245319D02*
Y163189D01*
X39114D01*
G75*
G02*
X47972I4429J0D01*
G01*
X49114D01*
G75*
G02*
X56657Y166339I4430J0D01*
G01*
X191535D01*
Y227756D01*
G75*
G02*
X192170Y229287I2166J0D01*
G01*
X195910Y233027D01*
G75*
G02*
X197443Y233661I1532J-1533D01*
G01*
X203740D01*
Y234843D01*
X205413D01*
Y243402D01*
X203496Y245319D01*
X120291D01*
Y241780D01*
X113567D01*
Y245319D01*
X30472D01*
G75*
G02*
X25433I-2519J7043D01*
G01*
X7368D01*
G37*
X195866Y226859D02*
G36*
X195866Y226859D02*
Y166339D01*
X249378D01*
G75*
G02*
X256437Y163189I2827J-3150D01*
G01*
X257972D01*
G75*
G02*
X266437I4232J0D01*
G01*
X266831D01*
Y187496D01*
X234346Y219980D01*
X216835D01*
X215358Y218504D01*
G75*
G02*
X214173Y218012I-1185J1180D01*
G01*
X209985D01*
G75*
G02*
X208875Y216857I-2900J1674D01*
G01*
G75*
G02*
X210646Y213780I-1789J-3077D01*
G01*
G75*
G02*
X209074Y210827I-3559J0D01*
G01*
G75*
G02*
X210646Y207874I-1986J-2952D01*
G01*
Y207874D01*
G75*
G02*
X203528I-3559J0D01*
G01*
Y207874D01*
G75*
G02*
X205100Y210827I3558J0D01*
G01*
G75*
G02*
X203528Y213780I1987J2953D01*
G01*
G75*
G02*
X205298Y216857I3559J0D01*
G01*
G75*
G02*
X203740Y219685I1789J2828D01*
G01*
G75*
G02*
X205512Y222638I3346J0D01*
G01*
G75*
G02*
X203740Y225591I1575J2953D01*
G01*
G75*
G02*
X204930Y228150I3346J0D01*
G01*
X203740D01*
Y229331D01*
X198338D01*
X195866Y226859D01*
G37*
X208228Y245319D02*
G36*
X208228Y245319D02*
X208268Y245280D01*
G75*
G02*
X208760Y244094I-1181J-1185D01*
G01*
Y234843D01*
X210433D01*
Y228150D01*
X209243D01*
G75*
G02*
X209985Y227264I-2153J-2556D01*
G01*
X242520D01*
G75*
G02*
X243705Y226772I0J-1672D01*
G01*
X272835Y197642D01*
G75*
G02*
X273327Y196457I-1181J-1185D01*
G01*
Y163189D01*
X276884D01*
Y245319D01*
X258819D01*
G75*
G02*
X253780I-2519J7043D01*
G01*
X208228D01*
G37*
X7368Y252362D02*
G36*
X7368Y252362D02*
Y245319D01*
X25433D01*
G75*
G02*
X20472Y252362I2519J7043D01*
G01*
X7368D01*
G37*
X35433D02*
G36*
X35433Y252362D02*
G75*
G02*
X30472Y245319I-7480J0D01*
G01*
X113567D01*
Y248858D01*
X120291D01*
Y245319D01*
X203496D01*
X198870Y249945D01*
X170079D01*
Y248291D01*
X163780D01*
Y252362D01*
X120079D01*
Y248992D01*
X113780D01*
Y252362D01*
X35433D01*
G37*
X201185D02*
G36*
X201185Y252362D02*
X208228Y245319D01*
X253780D01*
G75*
G02*
X248819Y252362I2519J7043D01*
G01*
X201185D01*
G37*
X263780D02*
G36*
X263780Y252362D02*
G75*
G02*
X258819Y245319I-7480J0D01*
G01*
X276884D01*
Y252362D01*
X263780D01*
G37*
X7368Y269378D02*
G36*
X7368Y269378D02*
Y252362D01*
X20472D01*
G75*
G02*
X35433I7480J0D01*
G01*
X113780D01*
Y255646D01*
X115256D01*
Y256299D01*
G75*
G02*
X115748Y257484I1673J0D01*
G01*
X119681Y261417D01*
G75*
G02*
X120866Y261909I1185J-1180D01*
G01*
X131102D01*
Y264370D01*
X139370D01*
Y260630D01*
X144882D01*
Y264370D01*
X153150D01*
Y260728D01*
X163780D01*
Y261945D01*
X170079D01*
Y255291D01*
X168360D01*
Y254945D01*
X170079D01*
Y253291D01*
X199563D01*
G75*
G02*
X200748Y252799I0J-1672D01*
G01*
X201185Y252362D01*
X248819D01*
G75*
G02*
X263780I7480J0D01*
G01*
X276884D01*
Y269378D01*
X273315Y272947D01*
X10937D01*
X7368Y269378D01*
G37*
X120079Y255646D02*
G36*
X120079Y255646D02*
Y252362D01*
X163780D01*
Y254945D01*
X165498D01*
Y255291D01*
X163780D01*
Y257382D01*
X153150D01*
Y256102D01*
X145079D01*
Y254724D01*
X139173D01*
Y256102D01*
X131102D01*
Y258563D01*
X121559D01*
X118642Y255646D01*
X120079D01*
G37*
X43543Y133189D02*
X43307D01*
X48346Y128150D01*
X257087D01*
X262126Y133189D01*
X262205D01*
X43543Y143189D02*
X43701D01*
X48701Y138189D01*
X257205D01*
X262205Y143189D01*
X53543D02*
X252205D01*
X53543Y153189D02*
X252205D01*
D02*
D70*
X135236Y260236D02*
X120866D01*
X116929Y256299D01*
Y252319D01*
X166929Y251618D02*
X199563D01*
X207087Y244094D01*
Y231496D01*
X166929Y258618D02*
Y259055D01*
X150240D01*
X149059Y260236D01*
X149016D01*
X262205Y133189D02*
X262323D01*
X271654Y142520D01*
Y196457D01*
X242520Y225591D01*
X207087D01*
X262205Y143189D02*
X262480D01*
X268504Y149213D01*
Y188189D01*
X235039Y221654D01*
X216142D01*
X214173Y219685D01*
X207087D01*
D02*
D21*
X40795Y123189D02*
X38795D01*
X43543Y120441D02*
Y118441D01*
Y125937D02*
Y127937D01*
X46291Y123189D02*
X48291D01*
X115314Y243704D02*
X113461Y241850D01*
X115314Y246934D02*
X113461Y248787D01*
X118544Y243704D02*
X120398Y241850D01*
X118544Y246934D02*
X120398Y248787D01*
X205909Y206696D02*
X204495Y205282D01*
X205909Y209052D02*
X204495Y210466D01*
X205909Y212602D02*
X204495Y211188D01*
X205909Y214957D02*
X204495Y216371D01*
X208264Y206696D02*
X209678Y205282D01*
X208264Y209052D02*
X209678Y210466D01*
X208264Y212602D02*
X209678Y211188D01*
X208264Y214957D02*
X209678Y216371D01*
X259654Y123189D02*
X257654D01*
X262205Y120638D02*
Y118638D01*
Y125740D02*
Y127740D01*
X264756Y123189D02*
X266756D01*
D02*
D22*
X193701Y227756D02*
Y163189D01*
X207087Y231496D02*
X197441D01*
X193701Y227756D01*
D02*
D23*
X63386Y20079D03*
Y59449D03*
Y98819D03*
Y177559D03*
Y216929D03*
Y256299D03*
X102756Y20079D03*
Y59449D03*
Y98819D03*
Y177559D03*
Y216929D03*
Y256299D03*
X142126Y20079D03*
Y59449D03*
Y98819D03*
Y177559D03*
Y216929D03*
X181496Y20079D03*
Y59449D03*
Y98819D03*
Y177559D03*
Y216929D03*
Y256299D03*
X220866Y20079D03*
Y59449D03*
Y98819D03*
Y177559D03*
Y216929D03*
Y256299D03*
D02*
D24*
X43543Y113189D02*
Y106850D01*
X59449Y90945D01*
X246063D01*
X262205Y107087D01*
Y113189D01*
X193701Y163189D02*
X53543D01*
X252205D02*
X193701D01*
D02*
D25*
X252205Y113189D03*
Y123189D03*
Y133189D03*
Y143189D03*
Y153189D03*
Y163189D03*
X262205Y113189D03*
Y123189D03*
Y133189D03*
Y143189D03*
Y153189D03*
Y163189D03*
D02*
D26*
X53543Y113189D03*
D02*
D27*
X43543D03*
Y123189D03*
Y133189D03*
Y143189D03*
Y153189D03*
Y163189D03*
X53543Y123189D03*
Y133189D03*
Y143189D03*
Y153189D03*
Y163189D03*
D02*
D72*
X142126Y257677D03*
D02*
D75*
X116929Y245319D03*
Y252319D03*
X166929Y251618D03*
Y258618D03*
D02*
D98*
X135236Y260236D03*
X149016D03*
D02*
D99*
X207087Y231496D03*
D02*
D100*
Y207874D03*
Y213780D03*
Y219685D03*
Y225591D03*
X0Y0D02*
M02*
