G04 DesignSpark PCB PRO Gerber Version 10.0 Build 5299*
G04 #@! TF.Part,Single*
G04 #@! TF.FileFunction,Soldermask,Bot*
G04 #@! TF.FilePolarity,Negative*
%FSLAX35Y35*%
%MOIN*%
G04 #@! TA.AperFunction,ComponentPad*
%ADD104R,0.04931X0.04931*%
%ADD13R,0.07096X0.07096*%
G04 #@! TA.AperFunction,ViaPad*
%ADD10C,0.04143*%
G04 #@! TA.AperFunction,ComponentPad*
%ADD105C,0.04931*%
%ADD12C,0.06702*%
%ADD14C,0.07096*%
G04 #@! TA.AperFunction,WasherPad*
%ADD11C,0.13198*%
G04 #@! TD.AperFunction*
X0Y0D02*
D02*
D10*
X63386Y20079D03*
Y59449D03*
Y98819D03*
Y177559D03*
Y216929D03*
Y256299D03*
X102756Y20079D03*
Y59449D03*
Y98819D03*
Y177559D03*
Y216929D03*
Y256299D03*
X142126Y20079D03*
Y59449D03*
Y98819D03*
Y177559D03*
Y216929D03*
X181496Y20079D03*
Y59449D03*
Y98819D03*
Y177559D03*
Y216929D03*
Y256299D03*
X220866Y20079D03*
Y59449D03*
Y98819D03*
Y177559D03*
Y216929D03*
Y256299D03*
D02*
D11*
X27953Y24016D03*
Y252362D03*
X256299Y24016D03*
Y252362D03*
D02*
D12*
X252205Y113189D03*
Y123189D03*
Y133189D03*
Y143189D03*
Y153189D03*
Y163189D03*
X262205Y113189D03*
Y123189D03*
Y133189D03*
Y143189D03*
Y153189D03*
Y163189D03*
D02*
D13*
X53543Y113189D03*
D02*
D14*
X43543D03*
Y123189D03*
Y133189D03*
Y143189D03*
Y153189D03*
Y163189D03*
X53543Y123189D03*
Y133189D03*
Y143189D03*
Y153189D03*
Y163189D03*
D02*
D104*
X207087Y231496D03*
D02*
D105*
Y207874D03*
Y213780D03*
Y219685D03*
Y225591D03*
X0Y0D02*
M02*
