G04 DesignSpark PCB PRO Gerber Version 10.0 Build 5299*
G04 #@! TF.Part,Single*
G04 #@! TF.FileFunction,Copper,L3,Inr*
G04 #@! TF.FilePolarity,Positive*
%FSLAX35Y35*%
%MOIN*%
G04 #@! TA.AperFunction,ComponentPad*
%ADD89R,0.05020X0.05020*%
%ADD29R,0.06496X0.06496*%
G04 #@! TD.AperFunction*
%ADD17C,0.00500*%
%ADD19C,0.00787*%
%ADD21C,0.01000*%
%ADD23C,0.01969*%
G04 #@! TA.AperFunction,ViaPad*
%ADD26C,0.02756*%
%ADD24C,0.03543*%
G04 #@! TA.AperFunction,ComponentPad*
%ADD90C,0.05020*%
%ADD28C,0.06102*%
%ADD72C,0.06496*%
G04 #@! TD.AperFunction*
X0Y0D02*
D02*
D17*
X14561Y269043D02*
Y7335D01*
X19002Y2894D01*
X280711D01*
X285152Y7335D01*
Y269043D01*
X280711Y273484D01*
X19002D01*
X14561Y269043D01*
X22638Y41339D02*
G75*
G02*
X28256I2809J0D01*
G01*
G75*
G02*
X22638I-2809J0D01*
G01*
X28346Y24016D02*
G75*
G02*
X43020I7337J0D01*
G01*
G75*
G02*
X28346I-7337J0D01*
G01*
Y252362D02*
G75*
G02*
X43020I7337J0D01*
G01*
G75*
G02*
X28346I-7337J0D01*
G01*
X79634Y73283D02*
G75*
G02*
X81012Y70866I-1431J-2417D01*
G01*
G75*
G02*
X76241Y68856I-2809J0D01*
G01*
G75*
G02*
X70457Y70079I-2763J1223D01*
G01*
G75*
G02*
X75695Y72132I3022J0D01*
G01*
G75*
G02*
X76772Y73283I2507J-1266D01*
G01*
Y102557D01*
X74460Y104868D01*
X44344D01*
G75*
G02*
X43331Y105289I0J1431D01*
G01*
X39924Y108696D01*
G75*
G02*
X36417Y111417I-697J2721D01*
G01*
G75*
G02*
X42035I2809J0D01*
G01*
G75*
G02*
X41948Y110720I-2809J0D01*
G01*
X44937Y107730D01*
X75053D01*
G75*
G02*
X76067Y107309I0J-1431D01*
G01*
X79213Y104163D01*
G75*
G02*
X79634Y103150I-1010J-1014D01*
G01*
Y73283D01*
X53740Y22835D02*
G75*
G02*
X59358I2809J0D01*
G01*
G75*
G02*
X53740I-2809J0D01*
G01*
X109952Y44148D02*
G75*
G02*
X113689Y42126I1322J-2022D01*
G01*
G75*
G02*
X109952Y40104I-2415J0D01*
G01*
X57871D01*
G75*
G02*
X54134Y42126I-1322J2022D01*
G01*
G75*
G02*
X57871Y44148I2415J0D01*
G01*
X101378D01*
Y56946D01*
G75*
G02*
X101450Y59694I2022J1322D01*
G01*
G75*
G02*
X100197Y61811I1162J2117D01*
G01*
G75*
G02*
X105028I2415J0D01*
G01*
G75*
G02*
X104562Y60385I-2415J0D01*
G01*
G75*
G02*
X105421Y56946I-1162J-2117D01*
G01*
Y44932D01*
X106206Y44148D01*
X109952D01*
X108252Y36220D02*
G75*
G02*
X114295I3022J0D01*
G01*
G75*
G02*
X111915Y33268I-3022J0D01*
G01*
G75*
G02*
X114295Y30315I-642J-2953D01*
G01*
G75*
G02*
X108252I-3022J0D01*
G01*
G75*
G02*
X110632Y33268I3022J0D01*
G01*
G75*
G02*
X108252Y36220I642J2953D01*
G01*
X70669Y18110D02*
G75*
G02*
X76287I2809J0D01*
G01*
G75*
G02*
X70669I-2809J0D01*
G01*
X75181Y29921D02*
G75*
G02*
X81224I3022J0D01*
G01*
G75*
G02*
X75181I-3022J0D01*
G01*
X80118Y18110D02*
G75*
G02*
X85736I2809J0D01*
G01*
G75*
G02*
X80118I-2809J0D01*
G01*
X88386D02*
G75*
G02*
X94004I2809J0D01*
G01*
G75*
G02*
X88386I-2809J0D01*
G01*
X94291D02*
G75*
G02*
X99909I2809J0D01*
G01*
G75*
G02*
X94291I-2809J0D01*
G01*
X99197Y26772D02*
G75*
G02*
X105240I3022J0D01*
G01*
G75*
G02*
X99197I-3022J0D01*
G01*
X54528Y60236D02*
G75*
G02*
X60146I2809J0D01*
G01*
G75*
G02*
X54528I-2809J0D01*
G01*
X58465Y68110D02*
G75*
G02*
X64083I2809J0D01*
G01*
G75*
G02*
X58465I-2809J0D01*
G01*
X60827Y92913D02*
G75*
G02*
X66445I2809J0D01*
G01*
G75*
G02*
X60827I-2809J0D01*
G01*
X68307Y98819D02*
G75*
G02*
X73925I2809J0D01*
G01*
G75*
G02*
X68307I-2809J0D01*
G01*
X70669Y86614D02*
G75*
G02*
X76287I2809J0D01*
G01*
G75*
G02*
X70669I-2809J0D01*
G01*
X42898Y35827D02*
G75*
G02*
X48941I3022J0D01*
G01*
G75*
G02*
X42898I-3022J0D01*
G01*
X46988Y113189D02*
G75*
G02*
X55559I4285J0D01*
G01*
G75*
G02*
X46988I-4285J0D01*
G01*
Y123189D02*
G75*
G02*
X55559I4285J0D01*
G01*
G75*
G02*
X46988I-4285J0D01*
G01*
Y133189D02*
G75*
G02*
X55559I4285J0D01*
G01*
G75*
G02*
X46988I-4285J0D01*
G01*
Y143189D02*
G75*
G02*
X55559I4285J0D01*
G01*
G75*
G02*
X46988I-4285J0D01*
G01*
Y153189D02*
G75*
G02*
X55559I4285J0D01*
G01*
G75*
G02*
X46988I-4285J0D01*
G01*
Y163189D02*
G75*
G02*
X55559I4285J0D01*
G01*
G75*
G02*
X46988I-4285J0D01*
G01*
X56988Y117474D02*
X65559D01*
Y108904D01*
X56988D01*
Y117474D01*
Y123189D02*
G75*
G02*
X65559I4285J0D01*
G01*
G75*
G02*
X56988I-4285J0D01*
G01*
Y133189D02*
G75*
G02*
X65559I4285J0D01*
G01*
G75*
G02*
X56988I-4285J0D01*
G01*
Y143189D02*
G75*
G02*
X65559I4285J0D01*
G01*
G75*
G02*
X56988I-4285J0D01*
G01*
Y153189D02*
G75*
G02*
X65559I4285J0D01*
G01*
G75*
G02*
X56988I-4285J0D01*
G01*
Y163189D02*
G75*
G02*
X65559I4285J0D01*
G01*
G75*
G02*
X56988I-4285J0D01*
G01*
X68307Y177559D02*
G75*
G02*
X73925I2809J0D01*
G01*
G75*
G02*
X68307I-2809J0D01*
G01*
Y216929D02*
G75*
G02*
X73925I2809J0D01*
G01*
G75*
G02*
X68307I-2809J0D01*
G01*
X73606Y193307D02*
G75*
G02*
X79650I3022J0D01*
G01*
G75*
G02*
X73606I-3022J0D01*
G01*
X73819Y187008D02*
G75*
G02*
X79437I2809J0D01*
G01*
G75*
G02*
X73819I-2809J0D01*
G01*
X68307Y256299D02*
G75*
G02*
X73925I2809J0D01*
G01*
G75*
G02*
X68307I-2809J0D01*
G01*
X80512Y76378D02*
G75*
G02*
X85343I2415J0D01*
G01*
G75*
G02*
X80512I-2415J0D01*
G01*
X84449Y56693D02*
G75*
G02*
X89280I2415J0D01*
G01*
G75*
G02*
X88264Y54724I-2415J0D01*
G01*
G75*
G02*
X89280Y52756I-1400J-1969D01*
G01*
G75*
G02*
X84449I-2415J0D01*
G01*
G75*
G02*
X85465Y54724I2415J0D01*
G01*
G75*
G02*
X84449Y56693I1400J1969D01*
G01*
X90748Y86614D02*
G75*
G02*
X96366I2809J0D01*
G01*
G75*
G02*
X90748I-2809J0D01*
G01*
X95260Y76772D02*
G75*
G02*
X101303I3022J0D01*
G01*
G75*
G02*
X95260I-3022J0D01*
G01*
X92323Y181890D02*
G75*
G02*
X97941I2809J0D01*
G01*
G75*
G02*
X92323I-2809J0D01*
G01*
X107677Y98819D02*
G75*
G02*
X113295I2809J0D01*
G01*
G75*
G02*
X107677I-2809J0D01*
G01*
Y177559D02*
G75*
G02*
X113295I2809J0D01*
G01*
G75*
G02*
X107677I-2809J0D01*
G01*
Y222835D02*
G75*
G02*
X113295I2809J0D01*
G01*
G75*
G02*
X107677I-2809J0D01*
G01*
Y256299D02*
G75*
G02*
X113295I2809J0D01*
G01*
G75*
G02*
X107677I-2809J0D01*
G01*
X117126Y9449D02*
G75*
G02*
X122744I2809J0D01*
G01*
G75*
G02*
X117126I-2809J0D01*
G01*
X119882Y58661D02*
G75*
G02*
X125500I2809J0D01*
G01*
G75*
G02*
X119882I-2809J0D01*
G01*
X126181Y30315D02*
G75*
G02*
X131799I2809J0D01*
G01*
G75*
G02*
X126181I-2809J0D01*
G01*
X129724Y9843D02*
G75*
G02*
X135343I2809J0D01*
G01*
G75*
G02*
X129724I-2809J0D01*
G01*
X126181Y36220D02*
G75*
G02*
X131799I2809J0D01*
G01*
G75*
G02*
X126181I-2809J0D01*
G01*
Y42126D02*
G75*
G02*
X131799I2809J0D01*
G01*
G75*
G02*
X126181I-2809J0D01*
G01*
X143110Y44488D02*
G75*
G02*
X148728I2809J0D01*
G01*
G75*
G02*
X143110I-2809J0D01*
G01*
X147047Y98819D02*
G75*
G02*
X152665I2809J0D01*
G01*
G75*
G02*
X147047I-2809J0D01*
G01*
Y177559D02*
G75*
G02*
X152665I2809J0D01*
G01*
G75*
G02*
X147047I-2809J0D01*
G01*
X156890Y200787D02*
G75*
G02*
X162508I2809J0D01*
G01*
G75*
G02*
X156890I-2809J0D01*
G01*
X170699Y55697D02*
G75*
G02*
X175106Y54331I1992J-1367D01*
G01*
G75*
G02*
X170276I-2415J0D01*
G01*
G75*
G02*
X170352Y54933I2416J-1D01*
G01*
G75*
G02*
X165945Y56299I-1992J1367D01*
G01*
G75*
G02*
X170776I2415J0D01*
G01*
G75*
G02*
X170699Y55697I-2416J1D01*
G01*
X170669Y44488D02*
G75*
G02*
X176287I2809J0D01*
G01*
G75*
G02*
X170669I-2809J0D01*
G01*
X171638Y246457D02*
G75*
G02*
X177681I3022J0D01*
G01*
G75*
G02*
X171638I-3022J0D01*
G01*
X183055Y18110D02*
G75*
G02*
X189098I3022J0D01*
G01*
G75*
G02*
X183055I-3022J0D01*
G01*
X185811Y59449D02*
G75*
G02*
X191854I3022J0D01*
G01*
G75*
G02*
X185811I-3022J0D01*
G01*
X191535Y47638D02*
G75*
G02*
X197154I2809J0D01*
G01*
G75*
G02*
X191535I-2809J0D01*
G01*
X186417Y98819D02*
G75*
G02*
X192035I2809J0D01*
G01*
G75*
G02*
X186417I-2809J0D01*
G01*
Y177559D02*
G75*
G02*
X192035I2809J0D01*
G01*
G75*
G02*
X186417I-2809J0D01*
G01*
Y222835D02*
G75*
G02*
X192035I2809J0D01*
G01*
G75*
G02*
X186417I-2809J0D01*
G01*
Y256299D02*
G75*
G02*
X192035I2809J0D01*
G01*
G75*
G02*
X186417I-2809J0D01*
G01*
X193947Y118902D02*
X201041D01*
Y111807D01*
X193947D01*
Y118902D01*
X202165Y44488D02*
G75*
G02*
X207783I2809J0D01*
G01*
G75*
G02*
X202165I-2809J0D01*
G01*
X213947Y115354D02*
G75*
G02*
X221041I3547J0D01*
G01*
G75*
G02*
X213947I-3547J0D01*
G01*
X221457Y105906D02*
G75*
G02*
X227075I2809J0D01*
G01*
G75*
G02*
X221457I-2809J0D01*
G01*
X225787Y177559D02*
G75*
G02*
X231406I2809J0D01*
G01*
G75*
G02*
X225787I-2809J0D01*
G01*
Y216929D02*
G75*
G02*
X231406I2809J0D01*
G01*
G75*
G02*
X225787I-2809J0D01*
G01*
Y256299D02*
G75*
G02*
X231406I2809J0D01*
G01*
G75*
G02*
X225787I-2809J0D01*
G01*
X235630Y101969D02*
G75*
G02*
X241248I2809J0D01*
G01*
G75*
G02*
X235630I-2809J0D01*
G01*
X237992Y46063D02*
G75*
G02*
X243610I2809J0D01*
G01*
G75*
G02*
X237992I-2809J0D01*
G01*
Y83465D02*
G75*
G02*
X243610I2809J0D01*
G01*
G75*
G02*
X237992I-2809J0D01*
G01*
X245079Y48031D02*
G75*
G02*
X250697I2809J0D01*
G01*
G75*
G02*
X245079I-2809J0D01*
G01*
Y57480D02*
G75*
G02*
X250697I2809J0D01*
G01*
G75*
G02*
X245079I-2809J0D01*
G01*
Y76378D02*
G75*
G02*
X250697I2809J0D01*
G01*
G75*
G02*
X245079I-2809J0D01*
G01*
X246260Y92126D02*
G75*
G02*
X251878I2809J0D01*
G01*
G75*
G02*
X246260I-2809J0D01*
G01*
X255846Y113189D02*
G75*
G02*
X264024I4089J0D01*
G01*
G75*
G02*
X255846I-4089J0D01*
G01*
X256583Y55551D02*
G75*
G02*
X261217I2317J0D01*
G01*
G75*
G02*
X256583I-2317J0D01*
G01*
X256693Y24016D02*
G75*
G02*
X271366I7337J0D01*
G01*
G75*
G02*
X256693I-7337J0D01*
G01*
X256583Y78307D02*
G75*
G02*
X261217I2317J0D01*
G01*
G75*
G02*
X256583I-2317J0D01*
G01*
X255846Y123189D02*
G75*
G02*
X264024I4089J0D01*
G01*
G75*
G02*
X255846I-4089J0D01*
G01*
Y133189D02*
G75*
G02*
X264024I4089J0D01*
G01*
G75*
G02*
X255846I-4089J0D01*
G01*
Y143189D02*
G75*
G02*
X264024I4089J0D01*
G01*
G75*
G02*
X255846I-4089J0D01*
G01*
Y153189D02*
G75*
G02*
X264024I4089J0D01*
G01*
G75*
G02*
X255846I-4089J0D01*
G01*
Y163189D02*
G75*
G02*
X264024I4089J0D01*
G01*
G75*
G02*
X255846I-4089J0D01*
G01*
X256693Y252362D02*
G75*
G02*
X271366I7337J0D01*
G01*
G75*
G02*
X256693I-7337J0D01*
G01*
X265846Y113189D02*
G75*
G02*
X274024I4089J0D01*
G01*
G75*
G02*
X265846I-4089J0D01*
G01*
Y123189D02*
G75*
G02*
X274024I4089J0D01*
G01*
G75*
G02*
X265846I-4089J0D01*
G01*
Y133189D02*
G75*
G02*
X274024I4089J0D01*
G01*
G75*
G02*
X265846I-4089J0D01*
G01*
Y143189D02*
G75*
G02*
X274024I4089J0D01*
G01*
G75*
G02*
X265846I-4089J0D01*
G01*
Y153189D02*
G75*
G02*
X274024I4089J0D01*
G01*
G75*
G02*
X265846I-4089J0D01*
G01*
Y163189D02*
G75*
G02*
X274024I4089J0D01*
G01*
G75*
G02*
X265846I-4089J0D01*
G01*
X14811Y9449D02*
G36*
X14811Y9449D02*
Y7085D01*
X18752Y3144D01*
X280961D01*
X284902Y7085D01*
Y9449D01*
X135315D01*
G75*
G02*
X129752I-2781J394D01*
G01*
X122744D01*
G75*
G02*
X117126I-2809J0D01*
G01*
X14811D01*
G37*
Y18110D02*
G36*
X14811Y18110D02*
Y9449D01*
X117126D01*
G75*
G02*
X122744I2809J0D01*
G01*
X129752D01*
G75*
G02*
X129724Y9843I2781J393D01*
G01*
G75*
G02*
X135343I2809J0D01*
G01*
G75*
G02*
X135315Y9449I-2809J-1D01*
G01*
X284902D01*
Y18110D01*
X268383D01*
G75*
G02*
X259676I-4353J5906D01*
G01*
X189098D01*
G75*
G02*
X183055I-3022J0D01*
G01*
X99909D01*
G75*
G02*
X94291I-2809J0D01*
G01*
X94004D01*
G75*
G02*
X88386I-2809J0D01*
G01*
X85736D01*
G75*
G02*
X80118I-2809J0D01*
G01*
X76287D01*
G75*
G02*
X70669I-2809J0D01*
G01*
X40036D01*
G75*
G02*
X31330I-4353J5906D01*
G01*
X14811D01*
G37*
Y24016D02*
G36*
X14811Y24016D02*
Y18110D01*
X31330D01*
G75*
G02*
X28346Y24016I4353J5906D01*
G01*
X14811D01*
G37*
X43020D02*
G36*
X43020Y24016D02*
G75*
G02*
X40036Y18110I-7337J0D01*
G01*
X70669D01*
G75*
G02*
X76287I2809J0D01*
G01*
X80118D01*
G75*
G02*
X85736I2809J0D01*
G01*
X88386D01*
G75*
G02*
X94004I2809J0D01*
G01*
X94291D01*
G75*
G02*
X99909I2809J0D01*
G01*
X183055D01*
G75*
G02*
X189098I3022J0D01*
G01*
X259676D01*
G75*
G02*
X256693Y24016I4353J5906D01*
G01*
X103457D01*
G75*
G02*
X100980I-1239J2756D01*
G01*
X59098D01*
G75*
G02*
X59358Y22835I-2549J-1181D01*
G01*
G75*
G02*
X53740I-2809J0D01*
G01*
G75*
G02*
X54000Y24016I2809J0D01*
G01*
X43020D01*
G37*
X271366D02*
G36*
X271366Y24016D02*
G75*
G02*
X268383Y18110I-7337J0D01*
G01*
X284902D01*
Y24016D01*
X271366D01*
G37*
X14811Y29921D02*
G36*
X14811Y29921D02*
Y24016D01*
X28346D01*
G75*
G02*
X31330Y29921I7337J0D01*
G01*
X14811D01*
G37*
X40036D02*
G36*
X40036Y29921D02*
G75*
G02*
X43020Y24016I-4353J-5906D01*
G01*
X54000D01*
G75*
G02*
X59098I2549J-1181D01*
G01*
X100980D01*
G75*
G02*
X99197Y26772I1239J2756D01*
G01*
G75*
G02*
X105240I3022J0D01*
G01*
G75*
G02*
X103457Y24016I-3022J0D01*
G01*
X256693D01*
G75*
G02*
X259676Y29921I7337J0D01*
G01*
X131772D01*
G75*
G02*
X126209I-2781J394D01*
G01*
X114270D01*
G75*
G02*
X108278I-2996J394D01*
G01*
X81224D01*
G75*
G02*
X75181I-3022J0D01*
G01*
X40036D01*
G37*
X268383D02*
G36*
X268383Y29921D02*
G75*
G02*
X271366Y24016I-4353J-5906D01*
G01*
X284902D01*
Y29921D01*
X268383D01*
G37*
X14811Y33268D02*
G36*
X14811Y33268D02*
Y29921D01*
X31330D01*
G75*
G02*
X40036I4353J-5906D01*
G01*
X75181D01*
G75*
G02*
X81224I3022J0D01*
G01*
X108278D01*
G75*
G02*
X108252Y30315I2996J393D01*
G01*
G75*
G02*
X110632Y33268I3022J0D01*
G01*
X47526D01*
G75*
G02*
X44313I-1607J2559D01*
G01*
X14811D01*
G37*
X114295Y30315D02*
G36*
X114295Y30315D02*
G75*
G02*
X114270Y29921I-3022J-1D01*
G01*
X126209D01*
G75*
G02*
X126181Y30315I2781J393D01*
G01*
G75*
G02*
X131799I2809J0D01*
G01*
G75*
G02*
X131772Y29921I-2809J-1D01*
G01*
X259676D01*
G75*
G02*
X268383I4353J-5906D01*
G01*
X284902D01*
Y33268D01*
X111915D01*
G75*
G02*
X114295Y30316I-641J-2952D01*
G01*
G75*
G02*
Y30315I-3470J0D01*
G01*
G37*
X14811Y36220D02*
G36*
X14811Y36220D02*
Y33268D01*
X44313D01*
G75*
G02*
X42898Y35827I1607J2559D01*
G01*
G75*
G02*
X42923Y36220I3022J1D01*
G01*
X14811D01*
G37*
X48941Y35827D02*
G36*
X48941Y35827D02*
G75*
G02*
X47526Y33268I-3022J0D01*
G01*
X110632D01*
G75*
G02*
X108252Y36220I641J2952D01*
G01*
X48915Y36220D01*
G75*
G02*
X48941Y35827I-2996J-393D01*
G01*
G37*
X114295Y36220D02*
G36*
X114295Y36220D02*
G75*
G02*
X111915Y33268I-3022J0D01*
G01*
X284902D01*
Y36220D01*
X131799D01*
G75*
G02*
X126181I-2809J0D01*
G01*
X114295D01*
G37*
X14811Y41339D02*
G36*
X14811Y41339D02*
Y36220D01*
X42923D01*
G75*
G02*
X48915I2996J-394D01*
G01*
X108252D01*
G75*
G02*
X114295I3022J0D01*
G01*
X126181D01*
G75*
G02*
X131799I2809J0D01*
G01*
X284902D01*
Y41339D01*
X131687D01*
G75*
G02*
X126294I-2696J787D01*
G01*
X113557D01*
G75*
G02*
X109952Y40104I-2283J787D01*
G01*
X57871D01*
G75*
G02*
X54266Y41339I-1322J2022D01*
G01*
X28256D01*
G75*
G02*
X22638I-2809J0D01*
G01*
X14811D01*
G37*
Y44488D02*
G36*
X14811Y44488D02*
Y41339D01*
X22638D01*
G75*
G02*
X28256I2809J0D01*
G01*
X54266D01*
G75*
G02*
X54134Y42126I2283J787D01*
G01*
G75*
G02*
X56045Y44488I2415J0D01*
G01*
X14811D01*
G37*
X57053D02*
G36*
X57053Y44488D02*
G75*
G02*
X57871Y44148I-504J-2362D01*
G01*
X101378D01*
Y44488D01*
X57053D01*
G37*
X105865D02*
G36*
X105865Y44488D02*
X106206Y44148D01*
X109952D01*
G75*
G02*
X110770Y44488I1322J-2021D01*
G01*
X105865D01*
G37*
X113689Y42126D02*
G36*
X113689Y42126D02*
G75*
G02*
X113557Y41339I-2415J0D01*
G01*
X126294D01*
G75*
G02*
X126181Y42126I2696J787D01*
G01*
G75*
G02*
X127470Y44488I2809J0D01*
G01*
X111778D01*
G75*
G02*
X113689Y42126I-504J-2362D01*
G01*
G37*
X131799D02*
G36*
X131799Y42126D02*
G75*
G02*
X131687Y41339I-2809J0D01*
G01*
X284902D01*
Y44488D01*
X243127D01*
G75*
G02*
X238475I-2326J1575D01*
G01*
X207783D01*
G75*
G02*
X202165I-2809J0D01*
G01*
X176287D01*
G75*
G02*
X170669I-2809J0D01*
G01*
X148728D01*
G75*
G02*
X143110I-2809J0D01*
G01*
X130510D01*
G75*
G02*
X131799Y42126I-1520J-2362D01*
G01*
G37*
X14811Y47638D02*
G36*
X14811Y47638D02*
Y44488D01*
X56045D01*
G75*
G02*
X57053I504J-2363D01*
G01*
X101378D01*
Y47638D01*
X14811D01*
G37*
X105421D02*
G36*
X105421Y47638D02*
Y44932D01*
X105865Y44488D01*
X110770D01*
G75*
G02*
X111778I504J-2363D01*
G01*
X127470D01*
G75*
G02*
X130510I1520J-2362D01*
G01*
X143110D01*
G75*
G02*
X148728I2809J0D01*
G01*
X170669D01*
G75*
G02*
X176287I2809J0D01*
G01*
X202165D01*
G75*
G02*
X207783I2809J0D01*
G01*
X238475D01*
G75*
G02*
X237992Y46063I2326J1575D01*
G01*
G75*
G02*
X238475Y47638I2809J0D01*
G01*
X197154D01*
G75*
G02*
X191535I-2809J0D01*
G01*
X105421D01*
G37*
X243610Y46063D02*
G36*
X243610Y46063D02*
G75*
G02*
X243127Y44488I-2809J0D01*
G01*
X284902D01*
Y47638D01*
X250669D01*
G75*
G02*
X245106I-2781J394D01*
G01*
X243127D01*
G75*
G02*
X243610Y46063I-2326J-1575D01*
G01*
G37*
X14811Y54724D02*
G36*
X14811Y54724D02*
Y47638D01*
X101378D01*
Y54724D01*
X88264D01*
G75*
G02*
X89280Y52756I-1400J-1969D01*
G01*
G75*
G02*
X84449I-2415J0D01*
G01*
G75*
G02*
X85465Y54724I2416J0D01*
G01*
X14811D01*
G37*
X105421D02*
G36*
X105421Y54724D02*
Y47638D01*
X191535D01*
G75*
G02*
X197154I2809J0D01*
G01*
X238475D01*
G75*
G02*
X243127I2326J-1575D01*
G01*
X245106D01*
G75*
G02*
X245079Y48031I2781J393D01*
G01*
G75*
G02*
X250697I2809J0D01*
G01*
G75*
G02*
X250669Y47638I-2809J-1D01*
G01*
X284902D01*
Y54724D01*
X261064D01*
G75*
G02*
X256735I-2165J827D01*
G01*
X248431D01*
G75*
G02*
X247344I-544J2755D01*
G01*
X175074D01*
G75*
G02*
X175106Y54331I-2383J-394D01*
G01*
G75*
G02*
X170276I-2415J0D01*
G01*
G75*
G02*
X170308Y54724I2423J0D01*
G01*
X170192D01*
G75*
G02*
X166529I-1831J1575D01*
G01*
X105421D01*
G37*
X14811Y57480D02*
G36*
X14811Y57480D02*
Y54724D01*
X85465D01*
G75*
G02*
X84449Y56693I1400J1969D01*
G01*
G75*
G02*
X84581Y57480I2415J0D01*
G01*
X57880D01*
G75*
G02*
X56793I-544J2755D01*
G01*
X14811D01*
G37*
X89280Y56693D02*
G36*
X89280Y56693D02*
G75*
G02*
X88264Y54724I-2416J0D01*
G01*
X101378D01*
Y56946D01*
G75*
G02*
X101116Y57480I2022J1322D01*
G01*
X89148D01*
G75*
G02*
X89280Y56693I-2283J-787D01*
G01*
G37*
X105421Y56946D02*
G36*
X105421Y56946D02*
Y54724D01*
X166529D01*
G75*
G02*
X165945Y56299I1831J1575D01*
G01*
G75*
G02*
X166254Y57480I2415J0D01*
G01*
X125240D01*
G75*
G02*
X120142I-2549J1181D01*
G01*
X105683D01*
G75*
G02*
X105421Y56946I-2283J788D01*
G01*
G37*
X170192Y54724D02*
G36*
X170192Y54724D02*
X170308D01*
G75*
G02*
X170352Y54933I2391J-397D01*
G01*
G75*
G02*
X170192Y54724I-1992J1367D01*
G01*
G37*
X170776Y56299D02*
G36*
X170776Y56299D02*
G75*
G02*
X170699Y55697I-2423J2D01*
G01*
G75*
G02*
X175074Y54724I1992J-1367D01*
G01*
X247344D01*
G75*
G02*
X245079Y57480I544J2756D01*
G01*
X191125D01*
G75*
G02*
X186540I-2293J1969D01*
G01*
X170467D01*
G75*
G02*
X170776Y56299I-2107J-1181D01*
G01*
G37*
X250697Y57480D02*
G36*
X250697Y57480D02*
G75*
G02*
X248431Y54724I-2809J0D01*
G01*
X256735D01*
G75*
G02*
X256583Y55551I2165J826D01*
G01*
G75*
G02*
X257617Y57480I2317J0D01*
G01*
X250697D01*
G37*
X261217Y55551D02*
G36*
X261217Y55551D02*
G75*
G02*
X261064Y54724I-2317J0D01*
G01*
X284902D01*
Y57480D01*
X260183D01*
G75*
G02*
X261217Y55551I-1283J-1929D01*
G01*
G37*
X14811Y60236D02*
G36*
X14811Y60236D02*
Y57480D01*
X56793D01*
G75*
G02*
X54528Y60236I544J2756D01*
G01*
X14811D01*
G37*
X60146D02*
G36*
X60146Y60236D02*
G75*
G02*
X57880Y57480I-2809J0D01*
G01*
X84581D01*
G75*
G02*
X89148I2283J-787D01*
G01*
X101116D01*
G75*
G02*
X100984Y58268I2283J787D01*
G01*
G75*
G02*
X101450Y59694I2415J0D01*
G01*
G75*
G02*
X100781Y60236I1161J2117D01*
G01*
X60146D01*
G37*
X105815Y58268D02*
G36*
X105815Y58268D02*
G75*
G02*
X105683Y57480I-2415J0D01*
G01*
X120142D01*
G75*
G02*
X119882Y58661I2549J1181D01*
G01*
G75*
G02*
X120365Y60236I2809J0D01*
G01*
X104799D01*
G75*
G02*
X105815Y58268I-1400J-1969D01*
G01*
G37*
X125500Y58661D02*
G36*
X125500Y58661D02*
G75*
G02*
X125240Y57480I-2809J0D01*
G01*
X166254D01*
G75*
G02*
X170467I2107J-1181D01*
G01*
X186540D01*
G75*
G02*
X185811Y59449I2293J1969D01*
G01*
G75*
G02*
X185915Y60236I3022J0D01*
G01*
X125017D01*
G75*
G02*
X125500Y58661I-2326J-1575D01*
G01*
G37*
X191854Y59449D02*
G36*
X191854Y59449D02*
G75*
G02*
X191125Y57480I-3022J0D01*
G01*
X245079D01*
G75*
G02*
X247344Y60236I2809J0D01*
G01*
X191750D01*
G75*
G02*
X191854Y59449I-2917J-787D01*
G01*
G37*
X248431Y60236D02*
G36*
X248431Y60236D02*
G75*
G02*
X250697Y57480I-544J-2756D01*
G01*
X257617D01*
G75*
G02*
X260183I1283J-1929D01*
G01*
X284902D01*
Y60236D01*
X248431D01*
G37*
X14811Y68110D02*
G36*
X14811Y68110D02*
Y60236D01*
X54528D01*
G75*
G02*
X60146I2809J0D01*
G01*
X100781D01*
G75*
G02*
X100197Y61810I1830J1574D01*
G01*
G75*
G02*
Y61811I2820J0D01*
G01*
G75*
G02*
X105028I2415J0D01*
G01*
Y61811D01*
G75*
G02*
X104562Y60385I-2415J0D01*
G01*
G75*
G02*
X104799Y60236I-1162J-2118D01*
G01*
X120365D01*
G75*
G02*
X125017I2326J-1575D01*
G01*
X185915D01*
G75*
G02*
X191750I2917J-787D01*
G01*
X247344D01*
G75*
G02*
X248431I544J-2755D01*
G01*
X284902D01*
Y68110D01*
X78745D01*
G75*
G02*
X77661I-542J2756D01*
G01*
X75771D01*
G75*
G02*
X71186I-2293J1969D01*
G01*
X64083D01*
G75*
G02*
X58465I-2809J0D01*
G01*
X14811D01*
G37*
Y76378D02*
G36*
X14811Y76378D02*
Y68110D01*
X58465D01*
G75*
G02*
X64083I2809J0D01*
G01*
X71186D01*
G75*
G02*
X70457Y70079I2293J1969D01*
G01*
G75*
G02*
X75695Y72132I3022J0D01*
G01*
G75*
G02*
X76772Y73283I2507J-1266D01*
G01*
Y76378D01*
X14811D01*
G37*
X76241Y68856D02*
G36*
X76241Y68856D02*
G75*
G02*
X75771Y68110I-2763J1223D01*
G01*
X77661D01*
G75*
G02*
X76241Y68856I542J2756D01*
G01*
G37*
X79634Y76378D02*
G36*
X79634Y76378D02*
Y73283D01*
G75*
G02*
X81012Y70867I-1430J-2417D01*
G01*
G75*
G02*
Y70866I-3007J0D01*
G01*
G75*
G02*
X78745Y68110I-2809J0D01*
G01*
X284902D01*
Y76378D01*
X260183D01*
G75*
G02*
X257617I-1283J1929D01*
G01*
X250697D01*
G75*
G02*
X245079I-2809J0D01*
G01*
X101278D01*
G75*
G02*
X95285I-2996J394D01*
G01*
X85343D01*
G75*
G02*
X80512I-2415J0D01*
G01*
X79634D01*
G37*
X14811Y83465D02*
G36*
X14811Y83465D02*
Y76378D01*
X76772D01*
Y83465D01*
X14811D01*
G37*
X79634D02*
G36*
X79634Y83465D02*
Y76378D01*
X80512D01*
G75*
G02*
X85343I2415J0D01*
G01*
X95285D01*
G75*
G02*
X95260Y76772I2996J393D01*
G01*
G75*
G02*
X101303I3022J0D01*
G01*
G75*
G02*
X101278Y76378I-3022J-1D01*
G01*
X245079D01*
G75*
G02*
X250697I2809J0D01*
G01*
X257617D01*
G75*
G02*
X256583Y78307I1283J1929D01*
G01*
G75*
G02*
X261217I2317J0D01*
G01*
G75*
G02*
X260183Y76378I-2317J0D01*
G01*
X284902D01*
Y83465D01*
X243610D01*
G75*
G02*
X237992I-2809J0D01*
G01*
X79634D01*
G37*
X14811Y86614D02*
G36*
X14811Y86614D02*
Y83465D01*
X76772D01*
Y86614D01*
X76287D01*
G75*
G02*
X70669I-2809J0D01*
G01*
X14811D01*
G37*
X79634D02*
G36*
X79634Y86614D02*
Y83465D01*
X237992D01*
G75*
G02*
X243610I2809J0D01*
G01*
X284902D01*
Y86614D01*
X96366D01*
G75*
G02*
X90748I-2809J0D01*
G01*
X79634D01*
G37*
X14811Y90642D02*
G36*
X14811Y90642D02*
Y86614D01*
X70669D01*
G75*
G02*
X76287I2809J0D01*
G01*
X76772D01*
Y90642D01*
X65288D01*
G75*
G02*
X61983I-1652J2272D01*
G01*
X14811D01*
G37*
X79634D02*
G36*
X79634Y90642D02*
Y86614D01*
X90748D01*
G75*
G02*
X96366I2809J0D01*
G01*
X284902D01*
Y90642D01*
X251454D01*
G75*
G02*
X246684I-2385J1484D01*
G01*
X79634D01*
G37*
X14811Y98819D02*
G36*
X14811Y98819D02*
Y90642D01*
X61983D01*
G75*
G02*
X60827Y92913I1652J2272D01*
G01*
G75*
G02*
X66445I2809J0D01*
G01*
G75*
G02*
X65288Y90642I-2809J0D01*
G01*
X76772D01*
Y98819D01*
X73925D01*
G75*
G02*
X68307I-2809J0D01*
G01*
X14811D01*
G37*
X79634D02*
G36*
X79634Y98819D02*
Y90642D01*
X246684D01*
G75*
G02*
X246260Y92126I2385J1484D01*
G01*
G75*
G02*
X251878I2809J0D01*
G01*
G75*
G02*
X251454Y90642I-2809J0D01*
G01*
X284902D01*
Y98819D01*
X192035D01*
G75*
G02*
X186417I-2809J0D01*
G01*
X152665D01*
G75*
G02*
X147047I-2809J0D01*
G01*
X113295D01*
G75*
G02*
X107677I-2809J0D01*
G01*
X79634D01*
G37*
X14811Y101969D02*
G36*
X14811Y101969D02*
Y98819D01*
X68307D01*
G75*
G02*
X73925I2809J0D01*
G01*
X76772D01*
Y101969D01*
X14811D01*
G37*
X79634D02*
G36*
X79634Y101969D02*
Y98819D01*
X107677D01*
G75*
G02*
X113295I2809J0D01*
G01*
X147047D01*
G75*
G02*
X152665I2809J0D01*
G01*
X186417D01*
G75*
G02*
X192035I2809J0D01*
G01*
X284902D01*
Y101969D01*
X241248D01*
G75*
G02*
X235630I-2809J0D01*
G01*
X79634D01*
G37*
X14811Y105906D02*
G36*
X14811Y105906D02*
Y101969D01*
X76772D01*
Y102557D01*
X74460Y104868D01*
X44344D01*
G75*
G02*
X43331Y105289I0J1430D01*
G01*
X42715Y105906D01*
X14811D01*
G37*
X77470D02*
G36*
X77470Y105906D02*
X79213Y104163D01*
G75*
G02*
X79634Y103150I-1009J-1013D01*
G01*
Y101969D01*
X235630D01*
G75*
G02*
X241248I2809J0D01*
G01*
X284902D01*
Y105906D01*
X227075D01*
G75*
G02*
X221457I-2809J0D01*
G01*
X77470D01*
G37*
X14811Y113189D02*
G36*
X14811Y113189D02*
Y105906D01*
X42715D01*
X39924Y108696D01*
G75*
G02*
X36417Y111417I-698J2721D01*
G01*
Y111417D01*
G75*
G02*
X37046Y113189I2809J0D01*
G01*
X14811D01*
G37*
X41406D02*
G36*
X41406Y113189D02*
G75*
G02*
X42035Y111417I-2180J-1772D01*
G01*
Y111417D01*
G75*
G02*
X41948Y110720I-2810J0D01*
G01*
X44937Y107730D01*
X75053D01*
G75*
G02*
X76067Y107309I0J-1430D01*
G01*
X77470Y105906D01*
X221457D01*
G75*
G02*
X227075I2809J0D01*
G01*
X284902D01*
Y113189D01*
X274024D01*
G75*
G02*
X265846I-4089J0D01*
G01*
X264024D01*
G75*
G02*
X255846I-4089J0D01*
G01*
X220304D01*
G75*
G02*
X214684I-2810J2165D01*
G01*
X201041D01*
Y111807D01*
X193947D01*
Y113189D01*
X65559D01*
Y108904D01*
X56988D01*
Y113189D01*
X55559D01*
G75*
G02*
X46988I-4285J0D01*
G01*
X41406D01*
G37*
X14811Y123189D02*
G36*
X14811Y123189D02*
Y113189D01*
X37046D01*
G75*
G02*
X41406I2180J-1772D01*
G01*
X46988D01*
G75*
G02*
X55559I4285J0D01*
G01*
X56988D01*
Y117474D01*
X65559D01*
Y113189D01*
X193947D01*
Y118902D01*
X201041D01*
Y113189D01*
X214684D01*
G75*
G02*
X213947Y115354I2810J2165D01*
G01*
G75*
G02*
X221041I3547J0D01*
G01*
G75*
G02*
X220304Y113189I-3547J0D01*
G01*
X255846D01*
G75*
G02*
X264024I4089J0D01*
G01*
X265846D01*
G75*
G02*
X274024I4089J0D01*
G01*
X284902D01*
Y123189D01*
X274024D01*
G75*
G02*
X265846I-4089J0D01*
G01*
X264024D01*
G75*
G02*
X255846I-4089J0D01*
G01*
X65559D01*
G75*
G02*
X56988I-4285J0D01*
G01*
X55559D01*
G75*
G02*
X46988I-4285J0D01*
G01*
X14811D01*
G37*
Y133189D02*
G36*
X14811Y133189D02*
Y123189D01*
X46988D01*
G75*
G02*
X55559I4285J0D01*
G01*
X56988D01*
G75*
G02*
X65559I4285J0D01*
G01*
X255846D01*
G75*
G02*
X264024I4089J0D01*
G01*
X265846D01*
G75*
G02*
X274024I4089J0D01*
G01*
X284902D01*
Y133189D01*
X274024D01*
G75*
G02*
X265846I-4089J0D01*
G01*
X264024D01*
G75*
G02*
X255846I-4089J0D01*
G01*
X65559D01*
G75*
G02*
X56988I-4285J0D01*
G01*
X55559D01*
G75*
G02*
X46988I-4285J0D01*
G01*
X14811D01*
G37*
Y143189D02*
G36*
X14811Y143189D02*
Y133189D01*
X46988D01*
G75*
G02*
X55559I4285J0D01*
G01*
X56988D01*
G75*
G02*
X65559I4285J0D01*
G01*
X255846D01*
G75*
G02*
X264024I4089J0D01*
G01*
X265846D01*
G75*
G02*
X274024I4089J0D01*
G01*
X284902D01*
Y143189D01*
X274024D01*
G75*
G02*
X265846I-4089J0D01*
G01*
X264024D01*
G75*
G02*
X255846I-4089J0D01*
G01*
X65559D01*
G75*
G02*
X56988I-4285J0D01*
G01*
X55559D01*
G75*
G02*
X46988I-4285J0D01*
G01*
X14811D01*
G37*
Y153189D02*
G36*
X14811Y153189D02*
Y143189D01*
X46988D01*
G75*
G02*
X55559I4285J0D01*
G01*
X56988D01*
G75*
G02*
X65559I4285J0D01*
G01*
X255846D01*
G75*
G02*
X264024I4089J0D01*
G01*
X265846D01*
G75*
G02*
X274024I4089J0D01*
G01*
X284902D01*
Y153189D01*
X274024D01*
G75*
G02*
X265846I-4089J0D01*
G01*
X264024D01*
G75*
G02*
X255846I-4089J0D01*
G01*
X65559D01*
G75*
G02*
X56988I-4285J0D01*
G01*
X55559D01*
G75*
G02*
X46988I-4285J0D01*
G01*
X14811D01*
G37*
Y163189D02*
G36*
X14811Y163189D02*
Y153189D01*
X46988D01*
G75*
G02*
X55559I4285J0D01*
G01*
X56988D01*
G75*
G02*
X65559I4285J0D01*
G01*
X255846D01*
G75*
G02*
X264024I4089J0D01*
G01*
X265846D01*
G75*
G02*
X274024I4089J0D01*
G01*
X284902D01*
Y163189D01*
X274024D01*
G75*
G02*
X265846I-4089J0D01*
G01*
X264024D01*
G75*
G02*
X255846I-4089J0D01*
G01*
X65559D01*
G75*
G02*
X56988I-4285J0D01*
G01*
X55559D01*
G75*
G02*
X46988I-4285J0D01*
G01*
X14811D01*
G37*
Y177559D02*
G36*
X14811Y177559D02*
Y163189D01*
X46988D01*
G75*
G02*
X55559I4285J0D01*
G01*
X56988D01*
G75*
G02*
X65559I4285J0D01*
G01*
X255846D01*
G75*
G02*
X264024I4089J0D01*
G01*
X265846D01*
G75*
G02*
X274024I4089J0D01*
G01*
X284902D01*
Y177559D01*
X231406D01*
G75*
G02*
X225787I-2809J0D01*
G01*
X192035D01*
G75*
G02*
X186417I-2809J0D01*
G01*
X152665D01*
G75*
G02*
X147047I-2809J0D01*
G01*
X113295D01*
G75*
G02*
X107677I-2809J0D01*
G01*
X73925D01*
G75*
G02*
X68307I-2809J0D01*
G01*
X14811D01*
G37*
Y181890D02*
G36*
X14811Y181890D02*
Y177559D01*
X68307D01*
G75*
G02*
X73925I2809J0D01*
G01*
X107677D01*
G75*
G02*
X113295I2809J0D01*
G01*
X147047D01*
G75*
G02*
X152665I2809J0D01*
G01*
X186417D01*
G75*
G02*
X192035I2809J0D01*
G01*
X225787D01*
G75*
G02*
X231406I2809J0D01*
G01*
X284902D01*
Y181890D01*
X97941D01*
G75*
G02*
X92323I-2809J0D01*
G01*
X14811D01*
G37*
Y187008D02*
G36*
X14811Y187008D02*
Y181890D01*
X92323D01*
G75*
G02*
X97941I2809J0D01*
G01*
X284902D01*
Y187008D01*
X79437D01*
G75*
G02*
X73819I-2809J0D01*
G01*
X14811D01*
G37*
Y193307D02*
G36*
X14811Y193307D02*
Y187008D01*
X73819D01*
G75*
G02*
X79437I2809J0D01*
G01*
X284902D01*
Y193307D01*
X79650D01*
G75*
G02*
X73606I-3022J0D01*
G01*
X14811D01*
G37*
Y200787D02*
G36*
X14811Y200787D02*
Y193307D01*
X73606D01*
G75*
G02*
X79650I3022J0D01*
G01*
X284902D01*
Y200787D01*
X162508D01*
G75*
G02*
X156890I-2809J0D01*
G01*
X14811D01*
G37*
Y216929D02*
G36*
X14811Y216929D02*
Y200787D01*
X156890D01*
G75*
G02*
X162508I2809J0D01*
G01*
X284902D01*
Y216929D01*
X231406D01*
G75*
G02*
X225787I-2809J0D01*
G01*
X73925D01*
G75*
G02*
X68307I-2809J0D01*
G01*
X14811D01*
G37*
Y222835D02*
G36*
X14811Y222835D02*
Y216929D01*
X68307D01*
G75*
G02*
X73925I2809J0D01*
G01*
X225787D01*
G75*
G02*
X231406I2809J0D01*
G01*
X284902D01*
Y222835D01*
X192035D01*
G75*
G02*
X186417I-2809J0D01*
G01*
X113295D01*
G75*
G02*
X107677I-2809J0D01*
G01*
X14811D01*
G37*
Y246457D02*
G36*
X14811Y246457D02*
Y222835D01*
X107677D01*
G75*
G02*
X113295I2809J0D01*
G01*
X186417D01*
G75*
G02*
X192035I2809J0D01*
G01*
X284902D01*
Y246457D01*
X268383D01*
G75*
G02*
X259676I-4353J5906D01*
G01*
X177681D01*
G75*
G02*
X171638I-3022J0D01*
G01*
X40036D01*
G75*
G02*
X31330I-4353J5906D01*
G01*
X14811D01*
G37*
Y252362D02*
G36*
X14811Y252362D02*
Y246457D01*
X31330D01*
G75*
G02*
X28346Y252362I4353J5906D01*
G01*
X14811D01*
G37*
X43020D02*
G36*
X43020Y252362D02*
G75*
G02*
X40036Y246457I-7337J0D01*
G01*
X171638D01*
G75*
G02*
X177681I3022J0D01*
G01*
X259676D01*
G75*
G02*
X256693Y252362I4353J5906D01*
G01*
X43020D01*
G37*
X271366D02*
G36*
X271366Y252362D02*
G75*
G02*
X268383Y246457I-7337J0D01*
G01*
X284902D01*
Y252362D01*
X271366D01*
G37*
X14811Y256299D02*
G36*
X14811Y256299D02*
Y252362D01*
X28346D01*
G75*
G02*
X29492Y256299I7337J0D01*
G01*
X14811D01*
G37*
X41874D02*
G36*
X41874Y256299D02*
G75*
G02*
X43020Y252362I-6191J-3937D01*
G01*
X256693D01*
G75*
G02*
X257839Y256299I7337J0D01*
G01*
X231406D01*
G75*
G02*
X225787I-2809J0D01*
G01*
X192035D01*
G75*
G02*
X186417I-2809J0D01*
G01*
X113295D01*
G75*
G02*
X107677I-2809J0D01*
G01*
X73925D01*
G75*
G02*
X68307I-2809J0D01*
G01*
X41874D01*
G37*
X270220D02*
G36*
X270220Y256299D02*
G75*
G02*
X271366Y252362I-6191J-3937D01*
G01*
X284902D01*
Y256299D01*
X270220D01*
G37*
X14811Y269293D02*
G36*
X14811Y269293D02*
Y256299D01*
X29492D01*
G75*
G02*
X41874I6191J-3937D01*
G01*
X68307D01*
G75*
G02*
X73925I2809J0D01*
G01*
X107677D01*
G75*
G02*
X113295I2809J0D01*
G01*
X186417D01*
G75*
G02*
X192035I2809J0D01*
G01*
X225787D01*
G75*
G02*
X231406I2809J0D01*
G01*
X257839D01*
G75*
G02*
X270220I6191J-3937D01*
G01*
X284902D01*
Y269293D01*
X280961Y273234D01*
X18752D01*
X14811Y269293D01*
G37*
D02*
D19*
X78203Y70866D02*
Y103150D01*
X75053Y106299D01*
X44344D01*
X39226Y111417D01*
D02*
D21*
X44648Y35827D02*
X42648D01*
X45919Y34555D02*
Y32555D01*
Y37098D02*
Y39098D01*
X47191Y35827D02*
X49191D01*
X72207Y70079D02*
X70207D01*
X73478Y68807D02*
Y66807D01*
Y71350D02*
Y73350D01*
X75729Y192408D02*
X74315Y190994D01*
X75729Y194206D02*
X74315Y195620D01*
X76931Y29921D02*
X74931D01*
X77527Y192408D02*
X78941Y190994D01*
X77527Y194206D02*
X78941Y195620D01*
X78203Y28650D02*
Y26650D01*
Y31193D02*
Y33193D01*
X79474Y29921D02*
X81474D01*
X97010Y76772D02*
X95010D01*
X98281Y75500D02*
Y73500D01*
Y78043D02*
Y80043D01*
X99553Y76772D02*
X101553D01*
X100947Y26772D02*
X98947D01*
X102219Y25500D02*
Y23500D01*
Y28043D02*
Y30043D01*
X103490Y26772D02*
X105490D01*
X110374Y29416D02*
X108960Y28002D01*
X110374Y31214D02*
X108960Y32628D01*
X110374Y35321D02*
X108960Y33907D01*
X110374Y37120D02*
X108960Y38534D01*
X112173Y29416D02*
X113587Y28002D01*
X112173Y31214D02*
X113587Y32628D01*
X112173Y35321D02*
X113587Y33907D01*
X112173Y37120D02*
X113587Y38534D01*
X173388Y246457D02*
X171388D01*
X174659Y245185D02*
Y243185D01*
Y247728D02*
Y249728D01*
X175931Y246457D02*
X177931D01*
X184805Y18110D02*
X182805D01*
X186077Y16839D02*
Y14839D01*
Y19382D02*
Y21382D01*
X187348Y18110D02*
X189348D01*
X187561Y59449D02*
X185561D01*
X188833Y58177D02*
Y56177D01*
Y60720D02*
Y62720D01*
X190104Y59449D02*
X192104D01*
D02*
D23*
X111274Y42126D02*
X56549D01*
X111274D02*
X105368D01*
X103400Y44094D01*
Y58268D01*
D02*
D24*
X25447Y41339D03*
X39226Y111417D03*
X45919Y35827D03*
X56549Y22835D03*
X57337Y60236D03*
X61274Y68110D03*
X63636Y92913D03*
X71116Y98819D03*
Y177559D03*
Y216929D03*
Y256299D03*
X73478Y18110D03*
Y70079D03*
Y86614D03*
X76628Y187008D03*
Y193307D03*
X78203Y29921D03*
Y70866D03*
X82927Y18110D03*
X91195D03*
X93557Y86614D03*
X95132Y181890D03*
X97100Y18110D03*
X98281Y76772D03*
X102219Y26772D03*
X110486Y98819D03*
Y177559D03*
Y222835D03*
Y256299D03*
X111274Y30315D03*
Y36220D03*
X119935Y9449D03*
X122691Y58661D03*
X128990Y30315D03*
Y36220D03*
Y42126D03*
X132533Y9843D03*
X145919Y44488D03*
X149856Y98819D03*
Y177559D03*
X159699Y200787D03*
X173478Y44488D03*
X174659Y246457D03*
X186077Y18110D03*
X188833Y59449D03*
X189226Y98819D03*
Y177559D03*
Y222835D03*
Y256299D03*
X194344Y47638D03*
X204974Y44488D03*
X224266Y105906D03*
X228596Y177559D03*
Y216929D03*
Y256299D03*
X238439Y101969D03*
X240801Y46063D03*
Y83465D03*
X247888Y48031D03*
Y57480D03*
Y76378D03*
X249069Y92126D03*
D02*
D26*
X56549Y42126D03*
X82927Y76378D03*
X86864Y52756D03*
Y56693D03*
X102612Y61811D03*
X103400Y58268D03*
X111274Y42126D03*
X168360Y56299D03*
X172691Y54331D03*
D02*
D28*
X259935Y113189D03*
Y123189D03*
Y133189D03*
Y143189D03*
Y153189D03*
Y163189D03*
X269935Y113189D03*
Y123189D03*
Y133189D03*
Y143189D03*
Y153189D03*
Y163189D03*
D02*
D29*
X61274Y113189D03*
D02*
D72*
X51274D03*
Y123189D03*
Y133189D03*
Y143189D03*
Y153189D03*
Y163189D03*
X61274Y123189D03*
Y133189D03*
Y143189D03*
Y153189D03*
Y163189D03*
D02*
D89*
X197494Y115354D03*
D02*
D90*
X207494D03*
X217494D03*
X0Y0D02*
M02*
