G04 DesignSpark PCB PRO Gerber Version 10.0 Build 5299*
G04 #@! TF.Part,Single*
G04 #@! TF.FileFunction,Soldermask,Top*
G04 #@! TF.FilePolarity,Negative*
%FSLAX35Y35*%
%MOIN*%
G04 #@! TA.AperFunction,SMDPad,CuDef*
%ADD99R,0.01787X0.04346*%
%ADD105R,0.04740X0.07102*%
%ADD98R,0.04937X0.05291*%
%ADD106R,0.05331X0.14780*%
%ADD103R,0.06906X0.08874*%
%ADD110R,0.08874X0.09583*%
%ADD104R,0.09268X0.23047*%
%ADD97R,0.04543X0.04543*%
G04 #@! TA.AperFunction,ComponentPad*
%ADD112R,0.06020X0.06020*%
%ADD93R,0.07496X0.07496*%
G04 #@! TA.AperFunction,SMDPad,CuDef*
%ADD101R,0.13598X0.13598*%
G04 #@! TA.AperFunction,ComponentPad*
%ADD109C,0.02280*%
%ADD113C,0.06020*%
%ADD92C,0.07102*%
%ADD94C,0.07496*%
G04 #@! TA.AperFunction,SMDPad,CuDef*
%ADD100R,0.04346X0.01787*%
%ADD108R,0.05528X0.02181*%
%ADD111R,0.05134X0.03362*%
%ADD107R,0.05724X0.03559*%
%ADD102R,0.07496X0.03559*%
G04 #@! TA.AperFunction,WasherPad*
%ADD91C,0.13598*%
G04 #@! TA.AperFunction,SMDPad,CuDef*
%ADD95R,0.05291X0.04937*%
%ADD96R,0.06906X0.05331*%
G04 #@! TD.AperFunction*
X0Y0D02*
D02*
D91*
X35683Y24016D03*
Y252362D03*
X264030Y24016D03*
Y252362D03*
D02*
D92*
X259935Y113189D03*
Y123189D03*
Y133189D03*
Y143189D03*
Y153189D03*
Y163189D03*
X269935Y113189D03*
Y123189D03*
Y133189D03*
Y143189D03*
Y153189D03*
Y163189D03*
D02*
D93*
X61274Y113189D03*
D02*
D94*
X51274D03*
Y123189D03*
Y133189D03*
Y143189D03*
Y153189D03*
Y163189D03*
X61274Y123189D03*
Y133189D03*
Y143189D03*
Y153189D03*
Y163189D03*
D02*
D95*
X30215Y41339D03*
X37215D03*
X46356Y49606D03*
X51868Y92913D03*
X53356Y49606D03*
X58868Y92913D03*
X81789Y187008D03*
Y193307D03*
X88789Y187008D03*
Y193307D03*
X95175Y187008D03*
Y193307D03*
X100687Y47244D03*
Y53150D03*
X102175Y187008D03*
Y193307D03*
X107380Y61024D03*
X107687Y47244D03*
Y53150D03*
X114380Y61024D03*
X117222Y24409D03*
Y30315D03*
Y36220D03*
Y42126D03*
X124222Y24409D03*
Y30315D03*
Y36220D03*
Y42126D03*
X147537Y67323D03*
X154537D03*
X161711D03*
X168711D03*
X174309Y18110D03*
X181309D03*
X211317Y105906D03*
X218317D03*
D02*
D96*
X142967Y261220D03*
X156746D03*
D02*
D97*
X149856Y258661D03*
D02*
D98*
X50644Y28783D03*
Y35783D03*
X56549Y28783D03*
Y35783D03*
X64423Y22878D03*
Y29878D03*
X73478Y22878D03*
Y29878D03*
Y74846D03*
Y81846D03*
X81352Y87839D03*
Y94839D03*
X82927Y22878D03*
Y29878D03*
X91195Y22878D03*
Y29878D03*
X93557Y74846D03*
Y81846D03*
X97100Y22878D03*
Y29878D03*
X126234Y251618D03*
Y258618D03*
X132533Y14610D03*
Y21610D03*
X174659Y251618D03*
Y258618D03*
X194344Y52406D03*
Y59406D03*
X238439Y89217D03*
Y96217D03*
X240801Y51224D03*
Y58224D03*
Y71303D03*
Y78303D03*
D02*
D99*
X67179Y38386D03*
Y65551D03*
X68754Y38386D03*
Y65551D03*
X70329Y38386D03*
Y65551D03*
X71904Y38386D03*
Y65551D03*
X73478Y38386D03*
Y65551D03*
X75053Y38386D03*
Y65551D03*
X76628Y38386D03*
Y65551D03*
X78203Y38386D03*
Y65551D03*
X79778Y38386D03*
Y65551D03*
X81352Y38386D03*
Y65551D03*
X82927Y38386D03*
Y65551D03*
X84502Y38386D03*
Y65551D03*
X86077Y38386D03*
Y65551D03*
X87652Y38386D03*
Y65551D03*
D02*
D100*
X63833Y41732D03*
Y43307D03*
Y44882D03*
Y46457D03*
Y48031D03*
Y49606D03*
Y51181D03*
Y52756D03*
Y54331D03*
Y55906D03*
Y57480D03*
Y59055D03*
Y60630D03*
Y62205D03*
X90998Y41732D03*
Y43307D03*
Y44882D03*
Y46457D03*
Y48031D03*
Y49606D03*
Y51181D03*
Y52756D03*
Y54331D03*
Y55906D03*
Y57480D03*
Y59055D03*
Y60630D03*
Y62205D03*
D02*
D101*
X77415Y51969D03*
D02*
D102*
X151431Y44469D03*
Y49469D03*
Y54469D03*
Y59469D03*
X179778Y44469D03*
Y49469D03*
Y54469D03*
Y59469D03*
D02*
D103*
X213636Y50000D03*
Y71260D03*
D02*
D104*
X38045Y57283D03*
Y94685D03*
D02*
D105*
X155959Y18110D03*
X163439D03*
D02*
D106*
X139699Y191339D03*
X149699D03*
X159699D03*
D02*
D107*
X139817Y14331D03*
Y21890D03*
X148085Y18110D03*
D02*
D108*
X254667Y53740D03*
Y54921D03*
Y56890D03*
Y58071D03*
Y60039D03*
Y62008D03*
Y63976D03*
Y65945D03*
Y67913D03*
Y69882D03*
Y71850D03*
Y73819D03*
Y75787D03*
Y76969D03*
Y78937D03*
Y80118D03*
D02*
D109*
X258900Y55551D03*
Y78307D03*
D02*
D110*
X256931Y46811D03*
Y87047D03*
X272404Y46811D03*
Y87047D03*
D02*
D111*
X221116Y90551D03*
Y98031D03*
X231352Y90551D03*
Y94291D03*
Y98031D03*
D02*
D112*
X197494Y115354D03*
D02*
D113*
X207494D03*
X217494D03*
X0Y0D02*
M02*
