G04 DesignSpark PCB PRO Gerber Version 10.0 Build 5299*
G04 #@! TF.Part,Single*
G04 #@! TF.FileFunction,Paste,Top*
G04 #@! TF.FilePolarity,Positive*
%FSLAX35Y35*%
%MOIN*%
G04 #@! TA.AperFunction,SMDPad,CuDef*
%ADD119R,0.00709X0.03268*%
%ADD125R,0.03366X0.05728*%
%ADD118R,0.03543X0.03898*%
%ADD126R,0.03898X0.13346*%
%ADD123R,0.05315X0.07283*%
%ADD129R,0.07087X0.07795*%
%ADD124R,0.07441X0.21220*%
%ADD117R,0.03189X0.03189*%
%ADD121R,0.11339X0.11339*%
%ADD120R,0.03268X0.00709*%
%ADD128R,0.04409X0.01063*%
%ADD130R,0.03898X0.02126*%
%ADD127R,0.04469X0.02303*%
%ADD122R,0.06240X0.02303*%
%ADD115R,0.03898X0.03543*%
%ADD116R,0.05472X0.03898*%
G04 #@! TD.AperFunction*
X0Y0D02*
D02*
D115*
X30215Y41339D03*
X37215D03*
X46356Y49606D03*
X51868Y92913D03*
X53356Y49606D03*
X58868Y92913D03*
X81789Y187008D03*
Y193307D03*
X88789Y187008D03*
Y193307D03*
X95175Y187008D03*
Y193307D03*
X100687Y47244D03*
Y53150D03*
X102175Y187008D03*
Y193307D03*
X107380Y61024D03*
X107687Y47244D03*
Y53150D03*
X114380Y61024D03*
X117222Y24409D03*
Y30315D03*
Y36220D03*
Y42126D03*
X124222Y24409D03*
Y30315D03*
Y36220D03*
Y42126D03*
X147537Y67323D03*
X154537D03*
X161711D03*
X168711D03*
X174309Y18110D03*
X181309D03*
X211317Y105906D03*
X218317D03*
D02*
D116*
X142967Y261220D03*
X156746D03*
D02*
D117*
X149856Y258661D03*
D02*
D118*
X50644Y28783D03*
Y35783D03*
X56549Y28783D03*
Y35783D03*
X64423Y22878D03*
Y29878D03*
X73478Y22878D03*
Y29878D03*
Y74846D03*
Y81846D03*
X81352Y87839D03*
Y94839D03*
X82927Y22878D03*
Y29878D03*
X91195Y22878D03*
Y29878D03*
X93557Y74846D03*
Y81846D03*
X97100Y22878D03*
Y29878D03*
X126234Y251618D03*
Y258618D03*
X132533Y14610D03*
Y21610D03*
X174659Y251618D03*
Y258618D03*
X194344Y52406D03*
Y59406D03*
X238439Y89217D03*
Y96217D03*
X240801Y51224D03*
Y58224D03*
Y71303D03*
Y78303D03*
D02*
D119*
X67179Y38386D03*
Y65551D03*
X68754Y38386D03*
Y65551D03*
X70329Y38386D03*
Y65551D03*
X71904Y38386D03*
Y65551D03*
X73478Y38386D03*
Y65551D03*
X75053Y38386D03*
Y65551D03*
X76628Y38386D03*
Y65551D03*
X78203Y38386D03*
Y65551D03*
X79778Y38386D03*
Y65551D03*
X81352Y38386D03*
Y65551D03*
X82927Y38386D03*
Y65551D03*
X84502Y38386D03*
Y65551D03*
X86077Y38386D03*
Y65551D03*
X87652Y38386D03*
Y65551D03*
D02*
D120*
X63833Y41732D03*
Y43307D03*
Y44882D03*
Y46457D03*
Y48031D03*
Y49606D03*
Y51181D03*
Y52756D03*
Y54331D03*
Y55906D03*
Y57480D03*
Y59055D03*
Y60630D03*
Y62205D03*
X90998Y41732D03*
Y43307D03*
Y44882D03*
Y46457D03*
Y48031D03*
Y49606D03*
Y51181D03*
Y52756D03*
Y54331D03*
Y55906D03*
Y57480D03*
Y59055D03*
Y60630D03*
Y62205D03*
D02*
D121*
X77415Y51969D03*
D02*
D122*
X151431Y44469D03*
Y49469D03*
Y54469D03*
Y59469D03*
X179778Y44469D03*
Y49469D03*
Y54469D03*
Y59469D03*
D02*
D123*
X213636Y50000D03*
Y71260D03*
D02*
D124*
X38045Y57283D03*
Y94685D03*
D02*
D125*
X155959Y18110D03*
X163439D03*
D02*
D126*
X139699Y191339D03*
X149699D03*
X159699D03*
D02*
D127*
X139817Y14331D03*
Y21890D03*
X148085Y18110D03*
D02*
D128*
X254667Y53740D03*
Y54921D03*
Y56890D03*
Y58071D03*
Y60039D03*
Y62008D03*
Y63976D03*
Y65945D03*
Y67913D03*
Y69882D03*
Y71850D03*
Y73819D03*
Y75787D03*
Y76969D03*
Y78937D03*
Y80118D03*
D02*
D129*
X256931Y46811D03*
Y87047D03*
X272404Y46811D03*
Y87047D03*
D02*
D130*
X221116Y90551D03*
Y98031D03*
X231352Y90551D03*
Y94291D03*
Y98031D03*
X0Y0D02*
M02*
