G04 DesignSpark PCB PRO Gerber Version 10.0 Build 5299*
G04 #@! TF.Part,Single*
G04 #@! TF.FileFunction,Copper,L2,Inr*
G04 #@! TF.FilePolarity,Positive*
%FSLAX35Y35*%
%MOIN*%
G04 #@! TA.AperFunction,ComponentPad*
%ADD89R,0.05020X0.05020*%
%ADD29R,0.06496X0.06496*%
G04 #@! TD.AperFunction*
%ADD17C,0.00500*%
%ADD21C,0.01000*%
G04 #@! TA.AperFunction,ViaPad*
%ADD26C,0.02756*%
%ADD24C,0.03543*%
G04 #@! TA.AperFunction,ComponentPad*
%ADD90C,0.05020*%
%ADD28C,0.06102*%
%ADD72C,0.06496*%
G04 #@! TD.AperFunction*
X0Y0D02*
D02*
D17*
X14561Y269043D02*
Y7335D01*
X19002Y2894D01*
X280711D01*
X285152Y7335D01*
Y269043D01*
X280711Y273484D01*
X19002D01*
X14561Y269043D01*
X28346Y24016D02*
G75*
G02*
X43020I7337J0D01*
G01*
G75*
G02*
X28346I-7337J0D01*
G01*
Y252362D02*
G75*
G02*
X43020I7337J0D01*
G01*
G75*
G02*
X28346I-7337J0D01*
G01*
X36417Y111417D02*
G75*
G02*
X42035I2809J0D01*
G01*
G75*
G02*
X36417I-2809J0D01*
G01*
X43110Y35827D02*
G75*
G02*
X48728I2809J0D01*
G01*
G75*
G02*
X43110I-2809J0D01*
G01*
X46776Y123189D02*
G75*
G02*
X55772I4498J0D01*
G01*
G75*
G02*
X46776I-4498J0D01*
G01*
X46988Y113189D02*
G75*
G02*
X55559I4285J0D01*
G01*
G75*
G02*
X46988I-4285J0D01*
G01*
X54134Y42126D02*
G75*
G02*
X58965I2415J0D01*
G01*
G75*
G02*
X54134I-2415J0D01*
G01*
X46988Y133189D02*
G75*
G02*
X55559I4285J0D01*
G01*
G75*
G02*
X46988I-4285J0D01*
G01*
Y143189D02*
G75*
G02*
X55559I4285J0D01*
G01*
G75*
G02*
X46988I-4285J0D01*
G01*
Y153189D02*
G75*
G02*
X55559I4285J0D01*
G01*
G75*
G02*
X46988I-4285J0D01*
G01*
Y163189D02*
G75*
G02*
X55559I4285J0D01*
G01*
G75*
G02*
X46988I-4285J0D01*
G01*
X56988Y117474D02*
X65559D01*
Y108904D01*
X56988D01*
Y117474D01*
Y123189D02*
G75*
G02*
X65559I4285J0D01*
G01*
G75*
G02*
X56988I-4285J0D01*
G01*
Y133189D02*
G75*
G02*
X65559I4285J0D01*
G01*
G75*
G02*
X56988I-4285J0D01*
G01*
Y143189D02*
G75*
G02*
X65559I4285J0D01*
G01*
G75*
G02*
X56988I-4285J0D01*
G01*
Y153189D02*
G75*
G02*
X65559I4285J0D01*
G01*
G75*
G02*
X56988I-4285J0D01*
G01*
Y163189D02*
G75*
G02*
X65559I4285J0D01*
G01*
G75*
G02*
X56988I-4285J0D01*
G01*
X75599Y71921D02*
G75*
G02*
X81012Y70866I2604J-1055D01*
G01*
G75*
G02*
X76082Y69024I-2809J0D01*
G01*
G75*
G02*
X70669Y70079I-2604J1055D01*
G01*
G75*
G02*
X75599Y71921I2809J0D01*
G01*
X75394Y29921D02*
G75*
G02*
X81012I2809J0D01*
G01*
G75*
G02*
X75394I-2809J0D01*
G01*
X73819Y193307D02*
G75*
G02*
X79437I2809J0D01*
G01*
G75*
G02*
X73819I-2809J0D01*
G01*
X80512Y76378D02*
G75*
G02*
X85343I2415J0D01*
G01*
G75*
G02*
X80512I-2415J0D01*
G01*
X84449Y56693D02*
G75*
G02*
X89280I2415J0D01*
G01*
G75*
G02*
X88264Y54724I-2415J0D01*
G01*
G75*
G02*
X89280Y52756I-1400J-1969D01*
G01*
G75*
G02*
X84449I-2415J0D01*
G01*
G75*
G02*
X85465Y54724I2415J0D01*
G01*
G75*
G02*
X84449Y56693I1400J1969D01*
G01*
X95472Y76772D02*
G75*
G02*
X101091I2809J0D01*
G01*
G75*
G02*
X95472I-2809J0D01*
G01*
X99409Y26772D02*
G75*
G02*
X105028I2809J0D01*
G01*
G75*
G02*
X99409I-2809J0D01*
G01*
X104562Y60385D02*
G75*
G02*
X105815Y58268I-1162J-2117D01*
G01*
G75*
G02*
X100984I-2415J0D01*
G01*
G75*
G02*
X101450Y59694I2415J0D01*
G01*
G75*
G02*
X100197Y61811I1162J2117D01*
G01*
G75*
G02*
X105028I2415J0D01*
G01*
G75*
G02*
X104562Y60385I-2415J0D01*
G01*
X108465Y30315D02*
G75*
G02*
X114083I2809J0D01*
G01*
G75*
G02*
X108465I-2809J0D01*
G01*
Y36220D02*
G75*
G02*
X114083I2809J0D01*
G01*
G75*
G02*
X108465I-2809J0D01*
G01*
X108858Y42126D02*
G75*
G02*
X113689I2415J0D01*
G01*
G75*
G02*
X108858I-2415J0D01*
G01*
X117126Y9449D02*
G75*
G02*
X122744I2809J0D01*
G01*
G75*
G02*
X117126I-2809J0D01*
G01*
X170699Y55697D02*
G75*
G02*
X175106Y54331I1992J-1367D01*
G01*
G75*
G02*
X170276I-2415J0D01*
G01*
G75*
G02*
X170352Y54933I2416J-1D01*
G01*
G75*
G02*
X165945Y56299I-1992J1367D01*
G01*
G75*
G02*
X170776I2415J0D01*
G01*
G75*
G02*
X170699Y55697I-2416J1D01*
G01*
X170669Y44488D02*
G75*
G02*
X176287I2809J0D01*
G01*
G75*
G02*
X170669I-2809J0D01*
G01*
X171850Y246457D02*
G75*
G02*
X177469I2809J0D01*
G01*
G75*
G02*
X171850I-2809J0D01*
G01*
X183268Y18110D02*
G75*
G02*
X188886I2809J0D01*
G01*
G75*
G02*
X183268I-2809J0D01*
G01*
X186024Y59449D02*
G75*
G02*
X191642I2809J0D01*
G01*
G75*
G02*
X186024I-2809J0D01*
G01*
X193947Y118902D02*
X201041D01*
Y111807D01*
X193947D01*
Y118902D01*
X203947Y115354D02*
G75*
G02*
X211041I3547J0D01*
G01*
G75*
G02*
X203947I-3547J0D01*
G01*
X213947D02*
G75*
G02*
X221041I3547J0D01*
G01*
G75*
G02*
X213947I-3547J0D01*
G01*
X245079Y57480D02*
G75*
G02*
X250697I2809J0D01*
G01*
G75*
G02*
X245079I-2809J0D01*
G01*
Y76378D02*
G75*
G02*
X250697I2809J0D01*
G01*
G75*
G02*
X245079I-2809J0D01*
G01*
X255846Y113189D02*
G75*
G02*
X264024I4089J0D01*
G01*
G75*
G02*
X255846I-4089J0D01*
G01*
X256583Y55551D02*
G75*
G02*
X261217I2317J0D01*
G01*
G75*
G02*
X256583I-2317J0D01*
G01*
X256693Y24016D02*
G75*
G02*
X271366I7337J0D01*
G01*
G75*
G02*
X256693I-7337J0D01*
G01*
X256583Y78307D02*
G75*
G02*
X261217I2317J0D01*
G01*
G75*
G02*
X256583I-2317J0D01*
G01*
X255846Y123189D02*
G75*
G02*
X264024I4089J0D01*
G01*
G75*
G02*
X255846I-4089J0D01*
G01*
Y133189D02*
G75*
G02*
X264024I4089J0D01*
G01*
G75*
G02*
X255846I-4089J0D01*
G01*
Y143189D02*
G75*
G02*
X264024I4089J0D01*
G01*
G75*
G02*
X255846I-4089J0D01*
G01*
Y153189D02*
G75*
G02*
X264024I4089J0D01*
G01*
G75*
G02*
X255846I-4089J0D01*
G01*
Y163189D02*
G75*
G02*
X264024I4089J0D01*
G01*
G75*
G02*
X255846I-4089J0D01*
G01*
X256693Y252362D02*
G75*
G02*
X271366I7337J0D01*
G01*
G75*
G02*
X256693I-7337J0D01*
G01*
X265634Y123189D02*
G75*
G02*
X274236I4301J0D01*
G01*
G75*
G02*
X265634I-4301J0D01*
G01*
X265846Y113189D02*
G75*
G02*
X274024I4089J0D01*
G01*
G75*
G02*
X265846I-4089J0D01*
G01*
Y133189D02*
G75*
G02*
X274024I4089J0D01*
G01*
G75*
G02*
X265846I-4089J0D01*
G01*
Y143189D02*
G75*
G02*
X274024I4089J0D01*
G01*
G75*
G02*
X265846I-4089J0D01*
G01*
Y153189D02*
G75*
G02*
X274024I4089J0D01*
G01*
G75*
G02*
X265846I-4089J0D01*
G01*
Y163189D02*
G75*
G02*
X274024I4089J0D01*
G01*
G75*
G02*
X265846I-4089J0D01*
G01*
X14811Y9449D02*
G36*
X14811Y9449D02*
Y7085D01*
X18752Y3144D01*
X280961D01*
X284902Y7085D01*
Y9449D01*
X122744D01*
G75*
G02*
X117126I-2809J0D01*
G01*
X14811D01*
G37*
Y18110D02*
G36*
X14811Y18110D02*
Y9449D01*
X117126D01*
G75*
G02*
X122744I2809J0D01*
G01*
X284902D01*
Y18110D01*
X268383D01*
G75*
G02*
X259676I-4353J5906D01*
G01*
X188886D01*
G75*
G02*
X183268I-2809J0D01*
G01*
X40036D01*
G75*
G02*
X31330I-4353J5906D01*
G01*
X14811D01*
G37*
Y24016D02*
G36*
X14811Y24016D02*
Y18110D01*
X31330D01*
G75*
G02*
X28346Y24016I4353J5906D01*
G01*
X14811D01*
G37*
X43020D02*
G36*
X43020Y24016D02*
G75*
G02*
X40036Y18110I-7337J0D01*
G01*
X183268D01*
G75*
G02*
X188886I2809J0D01*
G01*
X259676D01*
G75*
G02*
X256693Y24016I4353J5906D01*
G01*
X102762D01*
G75*
G02*
X101675I-544J2755D01*
G01*
X43020D01*
G37*
X271366D02*
G36*
X271366Y24016D02*
G75*
G02*
X268383Y18110I-7337J0D01*
G01*
X284902D01*
Y24016D01*
X271366D01*
G37*
X14811Y26772D02*
G36*
X14811Y26772D02*
Y24016D01*
X28346D01*
G75*
G02*
X28884Y26772I7337J0D01*
G01*
X14811D01*
G37*
X42482D02*
G36*
X42482Y26772D02*
G75*
G02*
X43020Y24016I-6800J-2756D01*
G01*
X101675D01*
G75*
G02*
X99409Y26772I544J2756D01*
G01*
X42482D01*
G37*
X105028D02*
G36*
X105028Y26772D02*
G75*
G02*
X102762Y24016I-2809J0D01*
G01*
X256693D01*
G75*
G02*
X257230Y26772I7337J0D01*
G01*
X105028D01*
G37*
X270829D02*
G36*
X270829Y26772D02*
G75*
G02*
X271366Y24016I-6800J-2756D01*
G01*
X284902D01*
Y26772D01*
X270829D01*
G37*
X14811Y29921D02*
G36*
X14811Y29921D02*
Y26772D01*
X28884D01*
G75*
G02*
X31330Y29921I6800J-2756D01*
G01*
X14811D01*
G37*
X40036D02*
G36*
X40036Y29921D02*
G75*
G02*
X42482Y26772I-4354J-5906D01*
G01*
X99409D01*
G75*
G02*
X105028I2809J0D01*
G01*
X257230D01*
G75*
G02*
X259676Y29921I6800J-2756D01*
G01*
X114055D01*
G75*
G02*
X108492I-2781J394D01*
G01*
X81012D01*
G75*
G02*
X75394I-2809J0D01*
G01*
X40036D01*
G37*
X268383D02*
G36*
X268383Y29921D02*
G75*
G02*
X270829Y26772I-4354J-5906D01*
G01*
X284902D01*
Y29921D01*
X268383D01*
G37*
X14811Y35827D02*
G36*
X14811Y35827D02*
Y29921D01*
X31330D01*
G75*
G02*
X40036I4353J-5906D01*
G01*
X75394D01*
G75*
G02*
X81012I2809J0D01*
G01*
X108492D01*
G75*
G02*
X108465Y30315I2781J393D01*
G01*
G75*
G02*
X114083I2809J0D01*
G01*
G75*
G02*
X114055Y29921I-2809J-1D01*
G01*
X259676D01*
G75*
G02*
X268383I4353J-5906D01*
G01*
X284902D01*
Y35827D01*
X114055D01*
G75*
G02*
X108492I-2781J394D01*
G01*
X48728D01*
G75*
G02*
X43110I-2809J0D01*
G01*
X14811D01*
G37*
Y42126D02*
G36*
X14811Y42126D02*
Y35827D01*
X43110D01*
G75*
G02*
X48728I2809J0D01*
G01*
X108492D01*
G75*
G02*
X108465Y36220I2781J393D01*
G01*
G75*
G02*
X114083I2809J0D01*
G01*
G75*
G02*
X114055Y35827I-2809J-1D01*
G01*
X284902D01*
Y42126D01*
X174998D01*
G75*
G02*
X171958I-1520J2362D01*
G01*
X113689D01*
G75*
G02*
X108858I-2415J0D01*
G01*
X58965D01*
G75*
G02*
X54134I-2415J0D01*
G01*
X14811D01*
G37*
Y54724D02*
G36*
X14811Y54724D02*
Y42126D01*
X54134D01*
G75*
G02*
X58965I2415J0D01*
G01*
X108858D01*
G75*
G02*
X113689I2415J0D01*
G01*
X171958D01*
G75*
G02*
X170669Y44488I1520J2362D01*
G01*
G75*
G02*
X176287I2809J0D01*
G01*
G75*
G02*
X174998Y42126I-2809J0D01*
G01*
X284902D01*
Y54724D01*
X261064D01*
G75*
G02*
X256735I-2165J827D01*
G01*
X248431D01*
G75*
G02*
X247344I-544J2755D01*
G01*
X175074D01*
G75*
G02*
X175106Y54331I-2383J-394D01*
G01*
G75*
G02*
X170276I-2415J0D01*
G01*
G75*
G02*
X170308Y54724I2423J0D01*
G01*
X170192D01*
G75*
G02*
X166529I-1831J1575D01*
G01*
X88264D01*
G75*
G02*
X89280Y52756I-1400J-1969D01*
G01*
G75*
G02*
X84449I-2415J0D01*
G01*
G75*
G02*
X85465Y54724I2416J0D01*
G01*
X14811D01*
G37*
Y60039D02*
G36*
X14811Y60039D02*
Y54724D01*
X85465D01*
G75*
G02*
X84449Y56693I1400J1969D01*
G01*
G75*
G02*
X89280I2415J0D01*
G01*
G75*
G02*
X88264Y54724I-2416J0D01*
G01*
X166529D01*
G75*
G02*
X165945Y56299I1831J1575D01*
G01*
G75*
G02*
X170776I2415J0D01*
G01*
G75*
G02*
X170699Y55697I-2423J2D01*
G01*
G75*
G02*
X175074Y54724I1992J-1367D01*
G01*
X247344D01*
G75*
G02*
X245079Y57480I544J2756D01*
G01*
G75*
G02*
X246730Y60039I2809J0D01*
G01*
X191579D01*
G75*
G02*
X191642Y59449I-2746J-590D01*
G01*
G75*
G02*
X186024I-2809J0D01*
G01*
G75*
G02*
X186086Y60039I2809J1D01*
G01*
X105041D01*
G75*
G02*
X105815Y58269I-1641J-1771D01*
G01*
G75*
G02*
Y58268I-2820J0D01*
G01*
G75*
G02*
X100984I-2415J0D01*
G01*
Y58268D01*
G75*
G02*
X101450Y59694I2415J0D01*
G01*
G75*
G02*
X100970Y60039I1161J2116D01*
G01*
X14811D01*
G37*
X170192Y54724D02*
G36*
X170192Y54724D02*
X170308D01*
G75*
G02*
X170352Y54933I2391J-397D01*
G01*
G75*
G02*
X170192Y54724I-1992J1367D01*
G01*
G37*
X250697Y57480D02*
G36*
X250697Y57480D02*
G75*
G02*
X248431Y54724I-2809J0D01*
G01*
X256735D01*
G75*
G02*
X256583Y55551I2165J826D01*
G01*
G75*
G02*
X261217I2317J0D01*
G01*
G75*
G02*
X261064Y54724I-2317J0D01*
G01*
X284902D01*
Y60039D01*
X249046D01*
G75*
G02*
X250697Y57480I-1158J-2559D01*
G01*
G37*
X14811Y70472D02*
G36*
X14811Y70472D02*
Y60039D01*
X100970D01*
G75*
G02*
X100197Y61810I1641J1771D01*
G01*
G75*
G02*
Y61811I2820J0D01*
G01*
G75*
G02*
X105028I2415J0D01*
G01*
Y61811D01*
G75*
G02*
X104562Y60385I-2415J0D01*
G01*
G75*
G02*
X105041Y60039I-1161J-2116D01*
G01*
X186086D01*
G75*
G02*
X191579I2746J-591D01*
G01*
X246730D01*
G75*
G02*
X249046I1158J-2559D01*
G01*
X284902D01*
Y70472D01*
X80984D01*
G75*
G02*
X76082Y69024I-2781J394D01*
G01*
G75*
G02*
X70669Y70079I-2604J1055D01*
G01*
G75*
G02*
X70697Y70472I2809J1D01*
G01*
X14811D01*
G37*
Y76378D02*
G36*
X14811Y76378D02*
Y70472D01*
X70697D01*
G75*
G02*
X75599Y71921I2781J-394D01*
G01*
G75*
G02*
X81012Y70866I2604J-1055D01*
G01*
G75*
G02*
X80984Y70472I-2809J-1D01*
G01*
X284902D01*
Y76378D01*
X260183D01*
G75*
G02*
X257617I-1283J1929D01*
G01*
X250697D01*
G75*
G02*
X245079I-2809J0D01*
G01*
X101063D01*
G75*
G02*
X95500I-2781J394D01*
G01*
X85343D01*
G75*
G02*
X80512I-2415J0D01*
G01*
X14811D01*
G37*
Y111417D02*
G36*
X14811Y111417D02*
Y76378D01*
X80512D01*
G75*
G02*
X85343I2415J0D01*
G01*
X95500D01*
G75*
G02*
X95472Y76772I2781J393D01*
G01*
G75*
G02*
X101091I2809J0D01*
G01*
G75*
G02*
X101063Y76378I-2809J-1D01*
G01*
X245079D01*
G75*
G02*
X250697I2809J0D01*
G01*
X257617D01*
G75*
G02*
X256583Y78307I1283J1929D01*
G01*
G75*
G02*
X261217I2317J0D01*
G01*
G75*
G02*
X260183Y76378I-2317J0D01*
G01*
X284902D01*
Y111417D01*
X273620D01*
G75*
G02*
X266250I-3685J1772D01*
G01*
X263620D01*
G75*
G02*
X256250I-3685J1772D01*
G01*
X65559D01*
Y108904D01*
X56988D01*
Y111417D01*
X55176D01*
G75*
G02*
X47372I-3902J1772D01*
G01*
X42035D01*
G75*
G02*
X36417I-2809J0D01*
G01*
X14811D01*
G37*
Y115354D02*
G36*
X14811Y115354D02*
Y111417D01*
X36417D01*
G75*
G02*
X42035I2809J0D01*
G01*
X47372D01*
G75*
G02*
X46988Y113189I3902J1772D01*
G01*
G75*
G02*
X47576Y115354I4285J0D01*
G01*
X14811D01*
G37*
X55559Y113189D02*
G36*
X55559Y113189D02*
G75*
G02*
X55176Y111417I-4285J0D01*
G01*
X56988D01*
Y115354D01*
X54972D01*
G75*
G02*
X55559Y113189I-3698J-2165D01*
G01*
G37*
X65559Y115354D02*
G36*
X65559Y115354D02*
Y111417D01*
X256250D01*
G75*
G02*
X255846Y113189I3685J1772D01*
G01*
G75*
G02*
X256467Y115354I4089J0D01*
G01*
X221041D01*
G75*
G02*
X213947I-3547J0D01*
G01*
X211041D01*
G75*
G02*
X203947I-3547J0D01*
G01*
X201041D01*
Y111807D01*
X193947D01*
Y115354D01*
X65559D01*
G37*
X264024Y113189D02*
G36*
X264024Y113189D02*
G75*
G02*
X263620Y111417I-4089J0D01*
G01*
X266250D01*
G75*
G02*
X265846Y113189I3685J1772D01*
G01*
G75*
G02*
X266467Y115354I4089J0D01*
G01*
X263403D01*
G75*
G02*
X264024Y113189I-3468J-2165D01*
G01*
G37*
X274024D02*
G36*
X274024Y113189D02*
G75*
G02*
X273620Y111417I-4089J0D01*
G01*
X284902D01*
Y115354D01*
X273403D01*
G75*
G02*
X274024Y113189I-3468J-2165D01*
G01*
G37*
X14811Y123189D02*
G36*
X14811Y123189D02*
Y115354D01*
X47576D01*
G75*
G02*
X54972I3698J-2165D01*
G01*
X56988D01*
Y117474D01*
X65559D01*
Y115354D01*
X193947D01*
Y118902D01*
X201041D01*
Y115354D01*
X203947D01*
G75*
G02*
X211041I3547J0D01*
G01*
X213947D01*
G75*
G02*
X221041I3547J0D01*
G01*
X256467D01*
G75*
G02*
X263403I3468J-2165D01*
G01*
X266467D01*
G75*
G02*
X273403I3468J-2165D01*
G01*
X284902D01*
Y123189D01*
X274236D01*
G75*
G02*
X265634I-4301J0D01*
G01*
X264024D01*
G75*
G02*
X255846I-4089J0D01*
G01*
X65559D01*
G75*
G02*
X56988I-4285J0D01*
G01*
X55772D01*
G75*
G02*
X46776I-4498J0D01*
G01*
X14811D01*
G37*
Y133189D02*
G36*
X14811Y133189D02*
Y123189D01*
X46776D01*
G75*
G02*
X55772I4498J0D01*
G01*
X56988D01*
G75*
G02*
X65559I4285J0D01*
G01*
X255846D01*
G75*
G02*
X264024I4089J0D01*
G01*
X265634D01*
G75*
G02*
X274236I4301J0D01*
G01*
X284902D01*
Y133189D01*
X274024D01*
G75*
G02*
X265846I-4089J0D01*
G01*
X264024D01*
G75*
G02*
X255846I-4089J0D01*
G01*
X65559D01*
G75*
G02*
X56988I-4285J0D01*
G01*
X55559D01*
G75*
G02*
X46988I-4285J0D01*
G01*
X14811D01*
G37*
Y143189D02*
G36*
X14811Y143189D02*
Y133189D01*
X46988D01*
G75*
G02*
X55559I4285J0D01*
G01*
X56988D01*
G75*
G02*
X65559I4285J0D01*
G01*
X255846D01*
G75*
G02*
X264024I4089J0D01*
G01*
X265846D01*
G75*
G02*
X274024I4089J0D01*
G01*
X284902D01*
Y143189D01*
X274024D01*
G75*
G02*
X265846I-4089J0D01*
G01*
X264024D01*
G75*
G02*
X255846I-4089J0D01*
G01*
X65559D01*
G75*
G02*
X56988I-4285J0D01*
G01*
X55559D01*
G75*
G02*
X46988I-4285J0D01*
G01*
X14811D01*
G37*
Y153189D02*
G36*
X14811Y153189D02*
Y143189D01*
X46988D01*
G75*
G02*
X55559I4285J0D01*
G01*
X56988D01*
G75*
G02*
X65559I4285J0D01*
G01*
X255846D01*
G75*
G02*
X264024I4089J0D01*
G01*
X265846D01*
G75*
G02*
X274024I4089J0D01*
G01*
X284902D01*
Y153189D01*
X274024D01*
G75*
G02*
X265846I-4089J0D01*
G01*
X264024D01*
G75*
G02*
X255846I-4089J0D01*
G01*
X65559D01*
G75*
G02*
X56988I-4285J0D01*
G01*
X55559D01*
G75*
G02*
X46988I-4285J0D01*
G01*
X14811D01*
G37*
Y163189D02*
G36*
X14811Y163189D02*
Y153189D01*
X46988D01*
G75*
G02*
X55559I4285J0D01*
G01*
X56988D01*
G75*
G02*
X65559I4285J0D01*
G01*
X255846D01*
G75*
G02*
X264024I4089J0D01*
G01*
X265846D01*
G75*
G02*
X274024I4089J0D01*
G01*
X284902D01*
Y163189D01*
X274024D01*
G75*
G02*
X265846I-4089J0D01*
G01*
X264024D01*
G75*
G02*
X255846I-4089J0D01*
G01*
X65559D01*
G75*
G02*
X56988I-4285J0D01*
G01*
X55559D01*
G75*
G02*
X46988I-4285J0D01*
G01*
X14811D01*
G37*
Y193307D02*
G36*
X14811Y193307D02*
Y163189D01*
X46988D01*
G75*
G02*
X55559I4285J0D01*
G01*
X56988D01*
G75*
G02*
X65559I4285J0D01*
G01*
X255846D01*
G75*
G02*
X264024I4089J0D01*
G01*
X265846D01*
G75*
G02*
X274024I4089J0D01*
G01*
X284902D01*
Y193307D01*
X79437D01*
G75*
G02*
X73819I-2809J0D01*
G01*
X14811D01*
G37*
Y246457D02*
G36*
X14811Y246457D02*
Y193307D01*
X73819D01*
G75*
G02*
X79437I2809J0D01*
G01*
X284902D01*
Y246457D01*
X268383D01*
G75*
G02*
X259676I-4353J5906D01*
G01*
X177469D01*
G75*
G02*
X171850I-2809J0D01*
G01*
X40036D01*
G75*
G02*
X31330I-4353J5906D01*
G01*
X14811D01*
G37*
Y252362D02*
G36*
X14811Y252362D02*
Y246457D01*
X31330D01*
G75*
G02*
X28346Y252362I4353J5906D01*
G01*
X14811D01*
G37*
X43020D02*
G36*
X43020Y252362D02*
G75*
G02*
X40036Y246457I-7337J0D01*
G01*
X171850D01*
G75*
G02*
X177469I2809J0D01*
G01*
X259676D01*
G75*
G02*
X256693Y252362I4353J5906D01*
G01*
X43020D01*
G37*
X271366D02*
G36*
X271366Y252362D02*
G75*
G02*
X268383Y246457I-7337J0D01*
G01*
X284902D01*
Y252362D01*
X271366D01*
G37*
X14811Y269293D02*
G36*
X14811Y269293D02*
Y252362D01*
X28346D01*
G75*
G02*
X43020I7337J0D01*
G01*
X256693D01*
G75*
G02*
X271366I7337J0D01*
G01*
X284902D01*
Y269293D01*
X280961Y273234D01*
X18752D01*
X14811Y269293D01*
G37*
D02*
D21*
X48526Y123189D02*
X46526D01*
X51274Y120441D02*
Y118441D01*
Y125937D02*
Y127937D01*
X54022Y123189D02*
X56022D01*
X267384D02*
X265384D01*
X269935Y120638D02*
Y118638D01*
Y125740D02*
Y127740D01*
X272486Y123189D02*
X274486D01*
D02*
D24*
X25447Y41339D03*
X39226Y111417D03*
X45919Y35827D03*
X56549Y22835D03*
X57337Y60236D03*
X61274Y68110D03*
X63636Y92913D03*
X71116Y98819D03*
Y177559D03*
Y216929D03*
Y256299D03*
X73478Y18110D03*
Y70079D03*
Y86614D03*
X76628Y187008D03*
Y193307D03*
X78203Y29921D03*
Y70866D03*
X82927Y18110D03*
X91195D03*
X93557Y86614D03*
X95132Y181890D03*
X97100Y18110D03*
X98281Y76772D03*
X102219Y26772D03*
X110486Y98819D03*
Y177559D03*
Y222835D03*
Y256299D03*
X111274Y30315D03*
Y36220D03*
X119935Y9449D03*
X122691Y58661D03*
X128990Y30315D03*
Y36220D03*
Y42126D03*
X132533Y9843D03*
X145919Y44488D03*
X149856Y98819D03*
Y177559D03*
X159699Y200787D03*
X173478Y44488D03*
X174659Y246457D03*
X186077Y18110D03*
X188833Y59449D03*
X189226Y98819D03*
Y177559D03*
Y222835D03*
Y256299D03*
X194344Y47638D03*
X204974Y44488D03*
X224266Y105906D03*
X228596Y177559D03*
Y216929D03*
Y256299D03*
X238439Y101969D03*
X240801Y46063D03*
Y83465D03*
X247888Y48031D03*
Y57480D03*
Y76378D03*
X249069Y92126D03*
D02*
D26*
X56549Y42126D03*
X82927Y76378D03*
X86864Y52756D03*
Y56693D03*
X102612Y61811D03*
X103400Y58268D03*
X111274Y42126D03*
X168360Y56299D03*
X172691Y54331D03*
D02*
D28*
X259935Y113189D03*
Y123189D03*
Y133189D03*
Y143189D03*
Y153189D03*
Y163189D03*
X269935Y113189D03*
Y123189D03*
Y133189D03*
Y143189D03*
Y153189D03*
Y163189D03*
D02*
D29*
X61274Y113189D03*
D02*
D72*
X51274D03*
Y123189D03*
Y133189D03*
Y143189D03*
Y153189D03*
Y163189D03*
X61274Y123189D03*
Y133189D03*
Y143189D03*
Y153189D03*
Y163189D03*
D02*
D89*
X197494Y115354D03*
D02*
D90*
X207494D03*
X217494D03*
X0Y0D02*
M02*
